<svg width="68" height="14" viewBox="0 0 68 14" fill="none" xmlns="http://www.w3.org/2000/svg">
<path d="M47.3046 0.795062C47.7891 0.866857 48.4121 0.436088 48.8966 0.938652C49.4503 1.29763 49.2426 2.08737 49.1734 2.58993C48.8273 3.16429 48.2044 3.66686 47.7199 4.09763C47.3738 4.31301 46.8201 4.16942 46.474 4.02583C45.9895 3.0925 44.9513 2.30275 45.0897 1.15404C45.2974 0.795062 45.505 0.292498 45.8511 0.220703C46.474 0.220703 46.8893 0.436088 47.2354 0.866857L47.3046 0.795062Z" fill="#231815"/>
<path d="M39.0681 0.794784C38.8605 2.0153 38.8605 3.3794 39.0681 4.59991C39.0681 4.59991 39.0681 4.7435 39.2065 4.8153C40.66 3.73837 42.1828 2.66145 43.6363 1.58453C43.9131 1.44094 44.3284 1.58453 44.5361 1.79991C44.7437 2.15889 44.7437 2.66145 44.3976 3.02043C43.7747 3.81017 42.8749 4.02555 42.1828 4.67171C41.8367 5.17427 42.3904 5.60504 42.5288 5.96402C43.0133 7.39991 44.5361 8.26145 44.9514 9.62555C45.0898 10.1281 44.6745 10.3435 44.3284 10.4153C44.0516 10.4153 43.9131 10.1999 43.7055 10.1281C42.9441 9.41017 42.4596 8.47684 41.8367 7.75889C41.629 7.18453 41.2138 6.53837 40.7293 6.03581C40.0371 6.03581 39.5526 6.75376 39.1373 7.32812C38.722 8.47684 39.6218 9.91273 38.5144 10.7025C38.1683 10.7743 37.753 10.7025 37.6146 10.4871C37.0609 9.98453 37.6838 9.33837 37.4762 8.76402C37.4762 8.33325 37.4762 7.90248 37.5454 7.5435C37.4762 5.31786 37.1993 3.23581 37.4069 1.01017C37.4069 0.5794 37.753 0.148631 38.0991 0.0768358C38.6528 -0.210344 39.0681 0.364015 39.1373 0.866579L39.0681 0.794784Z" fill="#231815"/>
<path d="M58.3102 2.6609C58.4486 3.16346 58.0333 3.80962 58.5178 4.0968C59.21 4.0968 59.9021 4.025 60.3866 4.45577C60.5943 4.88654 60.5943 5.3891 60.179 5.67628C59.556 5.96346 58.7255 5.4609 58.241 6.10705C58.1717 6.60962 58.241 7.11218 58.241 7.61475C58.4486 7.90192 58.6562 8.54808 59.21 8.61987C60.179 8.69167 60.7327 7.04039 61.7017 7.83013C61.9786 8.1891 61.8401 8.69167 61.6325 8.97885C60.9403 9.76859 60.2482 10.343 59.21 10.2712C58.1025 10.1276 57.0643 9.55321 56.7874 8.40449C56.5798 7.68654 56.5798 6.8968 56.5106 6.10705C56.0953 5.53269 54.9879 6.10705 54.8494 5.10192C54.7802 4.59936 55.1955 4.38398 55.5416 4.31218C55.8877 4.24039 56.3722 4.45577 56.5798 4.025C56.649 3.30705 56.5798 2.44551 56.9951 2.01474C57.5488 1.58397 58.1025 2.15833 58.1717 2.6609H58.3102Z" fill="#231815"/>
<path d="M52.219 3.02082C52.219 3.02082 52.0805 3.73877 52.4266 3.88236C52.9111 3.81057 53.5341 3.73877 53.8801 4.16954C54.157 4.45672 54.2262 5.03108 53.8109 5.31826C53.3264 5.74903 52.219 5.17467 52.219 6.108C52.219 7.04134 52.219 7.83108 52.7035 8.54903C53.5341 9.41057 54.5723 8.62082 55.4029 8.26185C55.7489 8.26185 56.095 8.40544 56.1642 8.83621C56.3027 9.19518 56.1642 9.55416 55.8874 9.76954C54.9184 10.6311 53.4648 11.0618 52.219 10.4157C50.9039 9.76954 50.627 8.11826 50.5578 6.75416C50.5578 6.39518 50.5578 5.74903 50.0733 5.89262C49.7272 5.96441 49.2427 6.03621 48.8967 5.67723C48.6198 5.46185 48.7582 4.88749 48.8967 4.67211C49.2427 4.09775 50.1425 4.38493 50.4194 3.95416C50.8347 3.16441 50.3502 1.80031 51.3884 1.72852C52.1498 1.72852 52.0805 2.44646 52.1498 3.02082H52.219Z" fill="#231815"/>
<path d="M24.533 1.51292C24.3253 2.44625 24.3253 3.52318 24.4638 4.5283C24.3946 6.39497 24.8098 8.11805 24.7406 9.98471C24.6022 10.3437 24.3253 10.7745 23.9101 10.7027C23.4256 10.7027 22.941 10.3437 22.8026 9.84112C22.8026 8.97959 23.0795 8.18984 23.0103 7.47189C22.941 6.96933 22.8026 6.61035 22.8718 6.10779C22.7334 4.6001 22.941 2.94882 22.4565 1.58471C22.5258 1.22574 22.8026 0.866765 23.1487 0.866765C23.7024 0.65138 24.533 1.01035 24.4638 1.7283L24.533 1.51292Z" fill="#231815"/>
<path d="M63.5702 4.81651C63.9163 5.67805 63.9855 6.53959 64.4008 7.32933C64.5392 7.47292 64.7469 7.61651 64.8161 7.47292C65.3698 6.61139 65.8543 5.60626 66.408 4.67292C66.6157 4.31395 66.9618 4.09857 67.3078 4.17036C67.7231 4.17036 68 4.60113 68 5.0319C67.8616 5.60626 67.3078 6.03703 67.031 6.53959C66.8233 7.47292 66.062 8.19087 65.7851 9.12421C64.7469 10.8473 64.5392 14.0063 61.9091 13.8627C61.4938 13.7909 61.1477 13.2883 61.0093 12.8575C61.0093 12.4268 61.3554 11.996 61.6322 11.7806C61.9091 11.7088 62.2551 11.7806 62.4628 11.5652C63.0165 11.0627 63.3626 10.3447 63.501 9.62677C63.0857 8.90882 62.9473 8.04728 62.532 7.32933C62.4628 6.25241 61.9091 5.39087 61.8399 4.31395C61.8399 3.95498 62.1859 3.6678 62.532 3.73959C63.0165 3.73959 63.2934 4.31395 63.4318 4.81651H63.5702Z" fill="#231815"/>
<path d="M20.657 3.23642C20.7954 4.16975 20.7262 5.17488 20.9339 6.10821C21.2107 7.25693 21.2107 8.69283 21.2107 9.84155C21.2799 10.2723 20.9339 10.6313 20.657 10.7749C20.2417 10.7749 19.8264 10.6313 19.6188 10.2723C19.4804 9.19539 19.4111 8.04667 19.3419 6.96975C19.4804 6.2518 19.0651 5.53385 19.1343 4.8877C19.0651 3.81078 18.9266 2.66206 18.8574 1.58514C18.8574 1.15437 19.2035 1.01078 19.5496 0.867188C19.8956 0.867188 20.1725 0.867188 20.4494 1.08257C20.9339 1.65693 20.5186 2.51847 20.7262 3.16462L20.657 3.23642Z" fill="#231815"/>
<path d="M8.12926 1.44209C8.26768 3.88311 8.3369 6.25234 8.40612 8.62157C8.47533 9.05234 8.61376 9.6985 8.3369 10.0575C8.06004 10.4164 7.64475 10.56 7.22946 10.3447C6.39888 9.6267 6.81417 8.1908 6.60653 7.11388C6.60653 6.97029 6.4681 6.8985 6.32967 6.8267C5.77595 6.97029 5.15302 6.68311 4.5993 6.8267C4.04558 7.11388 3.14578 6.61132 2.86893 7.32927C2.86893 8.33439 2.86892 9.48311 3.00735 10.4164C3.00735 10.8472 2.66128 11.1344 2.31521 11.2062C1.89992 11.2062 1.62306 10.9908 1.48463 10.56C1.48463 10.2729 1.27698 9.98568 1.3462 9.55491C1.3462 7.40106 1.13855 5.10363 1.06934 2.94978C1.06934 2.44722 0.723264 1.80106 1.06934 1.37029C1.3462 1.08311 1.8307 1.2267 2.10756 1.37029C2.24599 1.58568 2.38442 1.72927 2.38442 1.94465C2.52285 2.87798 2.45364 3.95491 2.66128 4.88824C3.14578 5.4626 3.83793 5.10363 4.39165 5.10363C5.01459 4.74465 5.84516 5.31901 6.39888 4.74465C6.4681 3.45234 6.12202 2.16004 6.53731 1.08311C6.74496 0.867728 6.9526 0.652344 7.22946 0.652344C7.64475 0.652344 7.99083 1.01132 7.99083 1.37029L8.12926 1.44209Z" fill="#231815"/>
<path d="M47.789 5.31787C47.789 6.61018 47.7198 8.04607 47.789 9.33838C47.789 9.69736 47.3737 9.91274 47.0968 9.98454C46.6815 9.84095 46.0586 9.55377 46.0586 9.0512C46.0586 8.26146 46.2662 7.32812 46.197 6.53838C46.0586 6.03582 45.9894 5.31787 46.3355 4.8871C46.82 4.59992 47.6505 4.67171 47.8582 5.31787H47.789Z" fill="#231815"/>
<path d="M32.4927 4.6712C33.2541 5.38915 33.2541 6.25069 33.4617 7.11223C33.1849 8.04556 33.2541 9.19428 32.4235 9.84043C31.4545 10.7738 30.0702 11.3481 28.6859 10.9174C27.7169 10.4148 26.4018 9.76864 26.1942 8.40453C25.7097 6.96864 26.0557 5.03018 27.3016 4.02505C28.2706 3.2353 29.5165 2.94812 30.7624 3.3071C31.2469 3.88146 32.0082 4.09684 32.5619 4.6712H32.4927ZM29.1704 4.81479C28.5475 4.95838 27.8553 5.38915 27.7169 6.1071C27.44 6.75325 27.5093 7.61479 27.7861 8.18915C28.2706 8.76351 28.8243 9.12248 29.5165 9.26607C30.2086 9.26607 30.97 9.26607 31.4545 8.54813C31.8006 8.04556 31.939 7.39941 31.8698 6.75325C31.5237 5.60454 30.3471 4.81479 29.1704 4.88659V4.81479Z" fill="#231815"/>
<path d="M16.2965 3.09289C17.3347 4.09801 17.75 5.53391 17.1963 6.89801C16.9194 7.25699 16.5041 7.54417 16.0196 7.47237C14.9122 7.40058 13.9432 7.40058 12.7665 7.18519C12.4897 7.18519 11.8667 6.96981 11.8667 7.47237C11.7283 8.19032 12.3512 8.69289 12.8357 9.12365C13.7355 9.41083 14.9122 9.9134 15.6735 9.12365C16.0888 8.76468 16.2965 8.04673 16.9194 8.26212C17.1963 8.40571 17.4731 8.69289 17.4039 9.05186C16.9886 10.2006 15.812 11.1339 14.5661 11.2057C13.251 11.2057 12.0744 10.7031 11.2438 9.98519C11.0361 9.48263 10.4824 9.19545 10.4824 8.62109C10.4132 8.19032 10.2748 7.75955 10.2056 7.25699C10.2056 6.53904 10.2748 5.7493 10.344 5.10314C10.4824 4.2416 10.8285 3.38006 11.5899 2.80571C12.6973 2.08776 14.0124 2.08776 15.3275 2.44673C15.4659 2.44673 16.0196 2.80571 16.2965 3.02109V3.09289ZM14.9122 4.3134C14.0816 4.16981 12.9742 3.88263 12.4204 4.74417C12.282 4.88776 12.0744 5.24673 12.4204 5.39032C13.1126 5.60571 13.874 5.39032 14.4969 5.60571C14.843 5.60571 15.189 5.7493 15.4659 5.60571C15.6043 5.53391 15.4659 5.24673 15.4659 5.10314C15.3275 4.88776 15.189 4.60058 14.9122 4.45699V4.3134Z" fill="#231815"/>
</svg>
