<svg width="448" height="70" viewBox="0 0 448 70" fill="none" xmlns="http://www.w3.org/2000/svg">
<mask id="path-1-outside-1_281_15060" maskUnits="userSpaceOnUse" x="-0.238281" y="-0.218811" width="448" height="70" fill="black">
<rect fill="white" x="-0.238281" y="-0.218811" width="448" height="70"/>
<path d="M9.31882 65C8.07104 65 6.98602 64.5389 6.06375 63.6166C5.19573 62.6943 4.76172 61.6093 4.76172 60.3615V10.2334C4.76172 8.98565 5.19573 7.90063 6.06375 6.97836C6.98602 6.05609 8.07104 5.59496 9.31882 5.59496H15.3407C16.5885 5.59496 17.6464 6.05609 18.5144 6.97836C19.4367 7.90063 19.8978 8.98565 19.8978 10.2334V60.3615C19.8978 61.6093 19.4367 62.6943 18.5144 63.6166C17.6464 64.5389 16.5885 65 15.3407 65H9.31882Z"/>
<path d="M38.1396 65C36.8918 65 35.8068 64.5389 34.8845 63.6166C33.9622 62.6943 33.5011 61.6093 33.5011 60.3615V10.2334C33.5011 8.98565 33.9622 7.90063 34.8845 6.97836C35.8068 6.05609 36.8918 5.59496 38.1396 5.59496H42.127C45.2193 5.59496 47.4708 6.95124 48.8813 9.6638L65.9704 41.9704C65.9704 42.0246 65.9975 42.0518 66.0518 42.0518C66.106 42.0518 66.1332 42.0246 66.1332 41.9704V10.2334C66.1332 8.98565 66.5943 7.90063 67.5166 6.97836C68.4389 6.05609 69.5239 5.59496 70.7717 5.59496H74.7591C76.0069 5.59496 77.0919 6.05609 78.0142 6.97836C78.9365 7.90063 79.3976 8.98565 79.3976 10.2334V60.3615C79.3976 61.6093 78.9365 62.6943 78.0142 63.6166C77.0919 64.5389 76.0069 65 74.7591 65H70.7717C67.6793 65 65.4279 63.6437 64.0174 60.9312L46.9282 28.6246C46.9282 28.5703 46.9011 28.5432 46.8469 28.5432C46.7926 28.5432 46.7655 28.5703 46.7655 28.6246V60.3615C46.7655 61.6093 46.3044 62.6943 45.3821 63.6166C44.4598 64.5389 43.3748 65 42.127 65H38.1396Z"/>
<path d="M94.3563 17.0691C93.1085 17.0691 92.0235 16.6079 91.1012 15.6857C90.1789 14.7634 89.7178 13.6784 89.7178 12.4306V10.2334C89.7178 8.98565 90.1789 7.90063 91.1012 6.97836C92.0235 6.05609 93.1085 5.59496 94.3563 5.59496H130.65C131.898 5.59496 132.983 6.05609 133.905 6.97836C134.828 7.90063 135.289 8.98565 135.289 10.2334V12.4306C135.289 13.6784 134.828 14.7634 133.905 15.6857C132.983 16.6079 131.898 17.0691 130.65 17.0691H120.234C119.8 17.0691 119.583 17.2861 119.583 17.7201V60.3615C119.583 61.6093 119.122 62.6943 118.2 63.6166C117.277 64.5389 116.192 65 114.945 65H110.062C108.814 65 107.729 64.5389 106.807 63.6166C105.885 62.6943 105.424 61.6093 105.424 60.3615V17.7201C105.424 17.2861 105.207 17.0691 104.773 17.0691H94.3563Z"/>
<path d="M150.19 65C148.942 65 147.857 64.5389 146.935 63.6166C146.067 62.6943 145.633 61.6093 145.633 60.3615V10.2334C145.633 8.98565 146.067 7.90063 146.935 6.97836C147.857 6.05609 148.942 5.59496 150.19 5.59496H178.997C180.245 5.59496 181.303 6.05609 182.171 6.97836C183.093 7.90063 183.554 8.98565 183.554 10.2334V12.1051C183.554 13.3529 183.093 14.4379 182.171 15.3602C181.303 16.2824 180.245 16.7436 178.997 16.7436H160.118C159.684 16.7436 159.467 16.9606 159.467 17.3946V28.1363C159.467 28.6246 159.684 28.8687 160.118 28.8687H177.37C178.617 28.8687 179.675 29.3299 180.543 30.2521C181.465 31.1744 181.927 32.2594 181.927 33.5072V34.7278C181.927 35.9756 181.465 37.0607 180.543 37.9829C179.675 38.9052 178.617 39.3663 177.37 39.3663H160.118C159.684 39.3663 159.467 39.5833 159.467 40.0173V53.2004C159.467 53.6344 159.684 53.8514 160.118 53.8514H178.997C180.245 53.8514 181.303 54.3125 182.171 55.2348C183.093 56.1571 183.554 57.2421 183.554 58.4899V60.3615C183.554 61.6093 183.093 62.6943 182.171 63.6166C181.303 64.5389 180.245 65 178.997 65H150.19Z"/>
<path d="M208.732 16.4994V32.1238C208.732 32.6121 208.949 32.8562 209.383 32.8562H213.289C217.087 32.8562 219.989 32.0695 221.996 30.4963C224.004 28.8687 225.007 26.6173 225.007 23.742C225.007 18.0999 221.291 15.2788 213.859 15.2788C212.177 15.2788 210.712 15.3873 209.464 15.6043C208.976 15.7128 208.732 16.0112 208.732 16.4994ZM199.781 65C198.533 65 197.448 64.5389 196.525 63.6166C195.603 62.6943 195.142 61.6093 195.142 60.3615V10.6403C195.142 9.28404 195.576 8.11764 196.444 7.14111C197.366 6.16459 198.479 5.62208 199.781 5.51358C204.609 5.02532 209.573 4.78119 214.673 4.78119C222.81 4.78119 228.859 6.32735 232.82 9.41966C236.834 12.4577 238.841 16.7978 238.841 22.44C238.841 26.0748 237.784 29.357 235.668 32.2865C233.552 35.1619 230.785 37.2234 227.367 38.4712C227.313 38.4712 227.286 38.4983 227.286 38.5526C227.286 38.6611 227.34 38.7153 227.449 38.7153C230.107 40.2343 232.358 43.4352 234.203 48.3178L238.841 60.687C239.221 61.7178 239.086 62.6943 238.435 63.6166C237.784 64.5389 236.915 65 235.83 65H230.867C229.456 65 228.181 64.5931 227.042 63.7794C225.903 62.9656 225.116 61.9077 224.682 60.6057L220.613 48.8874C219.854 46.6089 218.931 45.0627 217.846 44.2489C216.761 43.4352 215.079 43.0283 212.801 43.0283H209.383C208.949 43.0283 208.732 43.2724 208.732 43.7607V60.3615C208.732 61.6093 208.271 62.6943 207.349 63.6166C206.426 64.5389 205.341 65 204.094 65H199.781Z"/>
<path d="M258.459 60.6057L242.021 9.9893C241.641 8.90428 241.777 7.90063 242.428 6.97836C243.133 6.05609 244.055 5.59496 245.195 5.59496H250.647C252.003 5.59496 253.224 6.02896 254.309 6.89698C255.394 7.71075 256.099 8.76865 256.425 10.0707L267.085 51.6542C267.085 51.7085 267.112 51.7356 267.166 51.7356C267.221 51.7356 267.248 51.7085 267.248 51.6542L278.234 10.0707C278.559 8.76865 279.264 7.71075 280.349 6.89698C281.434 6.02896 282.655 5.59496 284.011 5.59496H289.138C290.277 5.59496 291.172 6.05609 291.823 6.97836C292.529 7.90063 292.691 8.90428 292.312 9.9893L275.874 60.6057C275.494 61.9077 274.734 62.9656 273.595 63.7794C272.51 64.5931 271.262 65 269.852 65H264.481C263.125 65 261.877 64.5931 260.738 63.7794C259.652 62.9656 258.893 61.9077 258.459 60.6057Z"/>
<path d="M305.581 65C304.333 65 303.248 64.5389 302.326 63.6166C301.458 62.6943 301.024 61.6093 301.024 60.3615V10.2334C301.024 8.98565 301.458 7.90063 302.326 6.97836C303.248 6.05609 304.333 5.59496 305.581 5.59496H311.603C312.851 5.59496 313.909 6.05609 314.777 6.97836C315.699 7.90063 316.16 8.98565 316.16 10.2334V60.3615C316.16 61.6093 315.699 62.6943 314.777 63.6166C313.909 64.5389 312.851 65 311.603 65H305.581Z"/>
<path d="M334.321 65C333.073 65 331.988 64.5389 331.065 63.6166C330.197 62.6943 329.763 61.6093 329.763 60.3615V10.2334C329.763 8.98565 330.197 7.90063 331.065 6.97836C331.988 6.05609 333.073 5.59496 334.321 5.59496H363.128C364.376 5.59496 365.434 6.05609 366.302 6.97836C367.224 7.90063 367.685 8.98565 367.685 10.2334V12.1051C367.685 13.3529 367.224 14.4379 366.302 15.3602C365.434 16.2824 364.376 16.7436 363.128 16.7436H344.249C343.814 16.7436 343.598 16.9606 343.598 17.3946V28.1363C343.598 28.6246 343.814 28.8687 344.249 28.8687H361.5C362.748 28.8687 363.806 29.3299 364.674 30.2521C365.596 31.1744 366.057 32.2594 366.057 33.5072V34.7278C366.057 35.9756 365.596 37.0607 364.674 37.9829C363.806 38.9052 362.748 39.3663 361.5 39.3663H344.249C343.814 39.3663 343.598 39.5833 343.598 40.0173V53.2004C343.598 53.6344 343.814 53.8514 344.249 53.8514H363.128C364.376 53.8514 365.434 54.3125 366.302 55.2348C367.224 56.1571 367.685 57.2421 367.685 58.4899V60.3615C367.685 61.6093 367.224 62.6943 366.302 63.6166C365.434 64.5389 364.376 65 363.128 65H334.321Z"/>
<path d="M386.434 60.4429L376.425 10.1521C376.154 8.95853 376.398 7.90063 377.157 6.97836C377.971 6.05609 378.975 5.59496 380.168 5.59496H384.888C386.19 5.59496 387.356 6.02896 388.387 6.89698C389.418 7.765 390.015 8.85003 390.177 10.1521L395.711 50.8405C395.711 50.8947 395.738 50.9218 395.792 50.9218C395.847 50.9218 395.874 50.8947 395.874 50.8405L400.919 10.1521C401.082 8.85003 401.652 7.765 402.628 6.89698C403.605 6.02896 404.744 5.59496 406.046 5.59496H413.695C414.997 5.59496 416.137 6.02896 417.113 6.89698C418.09 7.765 418.659 8.85003 418.822 10.1521L423.867 50.8405C423.867 50.8947 423.895 50.9218 423.949 50.9218C424.003 50.9218 424.03 50.8947 424.03 50.8405L429.564 10.1521C429.727 8.85003 430.323 7.765 431.354 6.89698C432.385 6.02896 433.551 5.59496 434.853 5.59496H439.248C440.441 5.59496 441.418 6.05609 442.177 6.97836C442.937 7.90063 443.208 8.95853 442.991 10.1521L432.982 60.4429C432.71 61.7449 432.059 62.83 431.029 63.698C429.998 64.566 428.804 65 427.448 65H420.531C419.229 65 418.063 64.566 417.032 63.698C416.055 62.83 415.486 61.7449 415.323 60.4429L409.789 19.7545C409.789 19.7003 409.762 19.6731 409.708 19.6731C409.654 19.6731 409.627 19.7003 409.627 19.7545L404.093 60.4429C403.93 61.7449 403.333 62.83 402.303 63.698C401.326 64.566 400.187 65 398.885 65H391.968C390.611 65 389.391 64.566 388.306 63.698C387.275 62.83 386.651 61.7449 386.434 60.4429Z"/>
</mask>
<path d="M9.31882 65C8.07104 65 6.98602 64.5389 6.06375 63.6166C5.19573 62.6943 4.76172 61.6093 4.76172 60.3615V10.2334C4.76172 8.98565 5.19573 7.90063 6.06375 6.97836C6.98602 6.05609 8.07104 5.59496 9.31882 5.59496H15.3407C16.5885 5.59496 17.6464 6.05609 18.5144 6.97836C19.4367 7.90063 19.8978 8.98565 19.8978 10.2334V60.3615C19.8978 61.6093 19.4367 62.6943 18.5144 63.6166C17.6464 64.5389 16.5885 65 15.3407 65H9.31882Z" fill="white"/>
<path d="M38.1396 65C36.8918 65 35.8068 64.5389 34.8845 63.6166C33.9622 62.6943 33.5011 61.6093 33.5011 60.3615V10.2334C33.5011 8.98565 33.9622 7.90063 34.8845 6.97836C35.8068 6.05609 36.8918 5.59496 38.1396 5.59496H42.127C45.2193 5.59496 47.4708 6.95124 48.8813 9.6638L65.9704 41.9704C65.9704 42.0246 65.9975 42.0518 66.0518 42.0518C66.106 42.0518 66.1332 42.0246 66.1332 41.9704V10.2334C66.1332 8.98565 66.5943 7.90063 67.5166 6.97836C68.4389 6.05609 69.5239 5.59496 70.7717 5.59496H74.7591C76.0069 5.59496 77.0919 6.05609 78.0142 6.97836C78.9365 7.90063 79.3976 8.98565 79.3976 10.2334V60.3615C79.3976 61.6093 78.9365 62.6943 78.0142 63.6166C77.0919 64.5389 76.0069 65 74.7591 65H70.7717C67.6793 65 65.4279 63.6437 64.0174 60.9312L46.9282 28.6246C46.9282 28.5703 46.9011 28.5432 46.8469 28.5432C46.7926 28.5432 46.7655 28.5703 46.7655 28.6246V60.3615C46.7655 61.6093 46.3044 62.6943 45.3821 63.6166C44.4598 64.5389 43.3748 65 42.127 65H38.1396Z" fill="white"/>
<path d="M94.3563 17.0691C93.1085 17.0691 92.0235 16.6079 91.1012 15.6857C90.1789 14.7634 89.7178 13.6784 89.7178 12.4306V10.2334C89.7178 8.98565 90.1789 7.90063 91.1012 6.97836C92.0235 6.05609 93.1085 5.59496 94.3563 5.59496H130.65C131.898 5.59496 132.983 6.05609 133.905 6.97836C134.828 7.90063 135.289 8.98565 135.289 10.2334V12.4306C135.289 13.6784 134.828 14.7634 133.905 15.6857C132.983 16.6079 131.898 17.0691 130.65 17.0691H120.234C119.8 17.0691 119.583 17.2861 119.583 17.7201V60.3615C119.583 61.6093 119.122 62.6943 118.2 63.6166C117.277 64.5389 116.192 65 114.945 65H110.062C108.814 65 107.729 64.5389 106.807 63.6166C105.885 62.6943 105.424 61.6093 105.424 60.3615V17.7201C105.424 17.2861 105.207 17.0691 104.773 17.0691H94.3563Z" fill="white"/>
<path d="M150.19 65C148.942 65 147.857 64.5389 146.935 63.6166C146.067 62.6943 145.633 61.6093 145.633 60.3615V10.2334C145.633 8.98565 146.067 7.90063 146.935 6.97836C147.857 6.05609 148.942 5.59496 150.19 5.59496H178.997C180.245 5.59496 181.303 6.05609 182.171 6.97836C183.093 7.90063 183.554 8.98565 183.554 10.2334V12.1051C183.554 13.3529 183.093 14.4379 182.171 15.3602C181.303 16.2824 180.245 16.7436 178.997 16.7436H160.118C159.684 16.7436 159.467 16.9606 159.467 17.3946V28.1363C159.467 28.6246 159.684 28.8687 160.118 28.8687H177.37C178.617 28.8687 179.675 29.3299 180.543 30.2521C181.465 31.1744 181.927 32.2594 181.927 33.5072V34.7278C181.927 35.9756 181.465 37.0607 180.543 37.9829C179.675 38.9052 178.617 39.3663 177.37 39.3663H160.118C159.684 39.3663 159.467 39.5833 159.467 40.0173V53.2004C159.467 53.6344 159.684 53.8514 160.118 53.8514H178.997C180.245 53.8514 181.303 54.3125 182.171 55.2348C183.093 56.1571 183.554 57.2421 183.554 58.4899V60.3615C183.554 61.6093 183.093 62.6943 182.171 63.6166C181.303 64.5389 180.245 65 178.997 65H150.19Z" fill="white"/>
<path d="M208.732 16.4994V32.1238C208.732 32.6121 208.949 32.8562 209.383 32.8562H213.289C217.087 32.8562 219.989 32.0695 221.996 30.4963C224.004 28.8687 225.007 26.6173 225.007 23.742C225.007 18.0999 221.291 15.2788 213.859 15.2788C212.177 15.2788 210.712 15.3873 209.464 15.6043C208.976 15.7128 208.732 16.0112 208.732 16.4994ZM199.781 65C198.533 65 197.448 64.5389 196.525 63.6166C195.603 62.6943 195.142 61.6093 195.142 60.3615V10.6403C195.142 9.28404 195.576 8.11764 196.444 7.14111C197.366 6.16459 198.479 5.62208 199.781 5.51358C204.609 5.02532 209.573 4.78119 214.673 4.78119C222.81 4.78119 228.859 6.32735 232.82 9.41966C236.834 12.4577 238.841 16.7978 238.841 22.44C238.841 26.0748 237.784 29.357 235.668 32.2865C233.552 35.1619 230.785 37.2234 227.367 38.4712C227.313 38.4712 227.286 38.4983 227.286 38.5526C227.286 38.6611 227.34 38.7153 227.449 38.7153C230.107 40.2343 232.358 43.4352 234.203 48.3178L238.841 60.687C239.221 61.7178 239.086 62.6943 238.435 63.6166C237.784 64.5389 236.915 65 235.83 65H230.867C229.456 65 228.181 64.5931 227.042 63.7794C225.903 62.9656 225.116 61.9077 224.682 60.6057L220.613 48.8874C219.854 46.6089 218.931 45.0627 217.846 44.2489C216.761 43.4352 215.079 43.0283 212.801 43.0283H209.383C208.949 43.0283 208.732 43.2724 208.732 43.7607V60.3615C208.732 61.6093 208.271 62.6943 207.349 63.6166C206.426 64.5389 205.341 65 204.094 65H199.781Z" fill="white"/>
<path d="M258.459 60.6057L242.021 9.9893C241.641 8.90428 241.777 7.90063 242.428 6.97836C243.133 6.05609 244.055 5.59496 245.195 5.59496H250.647C252.003 5.59496 253.224 6.02896 254.309 6.89698C255.394 7.71075 256.099 8.76865 256.425 10.0707L267.085 51.6542C267.085 51.7085 267.112 51.7356 267.166 51.7356C267.221 51.7356 267.248 51.7085 267.248 51.6542L278.234 10.0707C278.559 8.76865 279.264 7.71075 280.349 6.89698C281.434 6.02896 282.655 5.59496 284.011 5.59496H289.138C290.277 5.59496 291.172 6.05609 291.823 6.97836C292.529 7.90063 292.691 8.90428 292.312 9.9893L275.874 60.6057C275.494 61.9077 274.734 62.9656 273.595 63.7794C272.51 64.5931 271.262 65 269.852 65H264.481C263.125 65 261.877 64.5931 260.738 63.7794C259.652 62.9656 258.893 61.9077 258.459 60.6057Z" fill="white"/>
<path d="M305.581 65C304.333 65 303.248 64.5389 302.326 63.6166C301.458 62.6943 301.024 61.6093 301.024 60.3615V10.2334C301.024 8.98565 301.458 7.90063 302.326 6.97836C303.248 6.05609 304.333 5.59496 305.581 5.59496H311.603C312.851 5.59496 313.909 6.05609 314.777 6.97836C315.699 7.90063 316.16 8.98565 316.16 10.2334V60.3615C316.16 61.6093 315.699 62.6943 314.777 63.6166C313.909 64.5389 312.851 65 311.603 65H305.581Z" fill="white"/>
<path d="M334.321 65C333.073 65 331.988 64.5389 331.065 63.6166C330.197 62.6943 329.763 61.6093 329.763 60.3615V10.2334C329.763 8.98565 330.197 7.90063 331.065 6.97836C331.988 6.05609 333.073 5.59496 334.321 5.59496H363.128C364.376 5.59496 365.434 6.05609 366.302 6.97836C367.224 7.90063 367.685 8.98565 367.685 10.2334V12.1051C367.685 13.3529 367.224 14.4379 366.302 15.3602C365.434 16.2824 364.376 16.7436 363.128 16.7436H344.249C343.814 16.7436 343.598 16.9606 343.598 17.3946V28.1363C343.598 28.6246 343.814 28.8687 344.249 28.8687H361.5C362.748 28.8687 363.806 29.3299 364.674 30.2521C365.596 31.1744 366.057 32.2594 366.057 33.5072V34.7278C366.057 35.9756 365.596 37.0607 364.674 37.9829C363.806 38.9052 362.748 39.3663 361.5 39.3663H344.249C343.814 39.3663 343.598 39.5833 343.598 40.0173V53.2004C343.598 53.6344 343.814 53.8514 344.249 53.8514H363.128C364.376 53.8514 365.434 54.3125 366.302 55.2348C367.224 56.1571 367.685 57.2421 367.685 58.4899V60.3615C367.685 61.6093 367.224 62.6943 366.302 63.6166C365.434 64.5389 364.376 65 363.128 65H334.321Z" fill="white"/>
<path d="M386.434 60.4429L376.425 10.1521C376.154 8.95853 376.398 7.90063 377.157 6.97836C377.971 6.05609 378.975 5.59496 380.168 5.59496H384.888C386.19 5.59496 387.356 6.02896 388.387 6.89698C389.418 7.765 390.015 8.85003 390.177 10.1521L395.711 50.8405C395.711 50.8947 395.738 50.9218 395.792 50.9218C395.847 50.9218 395.874 50.8947 395.874 50.8405L400.919 10.1521C401.082 8.85003 401.652 7.765 402.628 6.89698C403.605 6.02896 404.744 5.59496 406.046 5.59496H413.695C414.997 5.59496 416.137 6.02896 417.113 6.89698C418.09 7.765 418.659 8.85003 418.822 10.1521L423.867 50.8405C423.867 50.8947 423.895 50.9218 423.949 50.9218C424.003 50.9218 424.03 50.8947 424.03 50.8405L429.564 10.1521C429.727 8.85003 430.323 7.765 431.354 6.89698C432.385 6.02896 433.551 5.59496 434.853 5.59496H439.248C440.441 5.59496 441.418 6.05609 442.177 6.97836C442.937 7.90063 443.208 8.95853 442.991 10.1521L432.982 60.4429C432.71 61.7449 432.059 62.83 431.029 63.698C429.998 64.566 428.804 65 427.448 65H420.531C419.229 65 418.063 64.566 417.032 63.698C416.055 62.83 415.486 61.7449 415.323 60.4429L409.789 19.7545C409.789 19.7003 409.762 19.6731 409.708 19.6731C409.654 19.6731 409.627 19.7003 409.627 19.7545L404.093 60.4429C403.93 61.7449 403.333 62.83 402.303 63.698C401.326 64.566 400.187 65 398.885 65H391.968C390.611 65 389.391 64.566 388.306 63.698C387.275 62.83 386.651 61.7449 386.434 60.4429Z" fill="white"/>
<path d="M9.31882 65C8.07104 65 6.98602 64.5389 6.06375 63.6166C5.19573 62.6943 4.76172 61.6093 4.76172 60.3615V10.2334C4.76172 8.98565 5.19573 7.90063 6.06375 6.97836C6.98602 6.05609 8.07104 5.59496 9.31882 5.59496H15.3407C16.5885 5.59496 17.6464 6.05609 18.5144 6.97836C19.4367 7.90063 19.8978 8.98565 19.8978 10.2334V60.3615C19.8978 61.6093 19.4367 62.6943 18.5144 63.6166C17.6464 64.5389 16.5885 65 15.3407 65H9.31882Z" stroke="black" stroke-width="8.56598" mask="url(#path-1-outside-1_281_15060)"/>
<path d="M38.1396 65C36.8918 65 35.8068 64.5389 34.8845 63.6166C33.9622 62.6943 33.5011 61.6093 33.5011 60.3615V10.2334C33.5011 8.98565 33.9622 7.90063 34.8845 6.97836C35.8068 6.05609 36.8918 5.59496 38.1396 5.59496H42.127C45.2193 5.59496 47.4708 6.95124 48.8813 9.6638L65.9704 41.9704C65.9704 42.0246 65.9975 42.0518 66.0518 42.0518C66.106 42.0518 66.1332 42.0246 66.1332 41.9704V10.2334C66.1332 8.98565 66.5943 7.90063 67.5166 6.97836C68.4389 6.05609 69.5239 5.59496 70.7717 5.59496H74.7591C76.0069 5.59496 77.0919 6.05609 78.0142 6.97836C78.9365 7.90063 79.3976 8.98565 79.3976 10.2334V60.3615C79.3976 61.6093 78.9365 62.6943 78.0142 63.6166C77.0919 64.5389 76.0069 65 74.7591 65H70.7717C67.6793 65 65.4279 63.6437 64.0174 60.9312L46.9282 28.6246C46.9282 28.5703 46.9011 28.5432 46.8469 28.5432C46.7926 28.5432 46.7655 28.5703 46.7655 28.6246V60.3615C46.7655 61.6093 46.3044 62.6943 45.3821 63.6166C44.4598 64.5389 43.3748 65 42.127 65H38.1396Z" stroke="black" stroke-width="8.56598" mask="url(#path-1-outside-1_281_15060)"/>
<path d="M94.3563 17.0691C93.1085 17.0691 92.0235 16.6079 91.1012 15.6857C90.1789 14.7634 89.7178 13.6784 89.7178 12.4306V10.2334C89.7178 8.98565 90.1789 7.90063 91.1012 6.97836C92.0235 6.05609 93.1085 5.59496 94.3563 5.59496H130.65C131.898 5.59496 132.983 6.05609 133.905 6.97836C134.828 7.90063 135.289 8.98565 135.289 10.2334V12.4306C135.289 13.6784 134.828 14.7634 133.905 15.6857C132.983 16.6079 131.898 17.0691 130.65 17.0691H120.234C119.8 17.0691 119.583 17.2861 119.583 17.7201V60.3615C119.583 61.6093 119.122 62.6943 118.2 63.6166C117.277 64.5389 116.192 65 114.945 65H110.062C108.814 65 107.729 64.5389 106.807 63.6166C105.885 62.6943 105.424 61.6093 105.424 60.3615V17.7201C105.424 17.2861 105.207 17.0691 104.773 17.0691H94.3563Z" stroke="black" stroke-width="8.56598" mask="url(#path-1-outside-1_281_15060)"/>
<path d="M150.19 65C148.942 65 147.857 64.5389 146.935 63.6166C146.067 62.6943 145.633 61.6093 145.633 60.3615V10.2334C145.633 8.98565 146.067 7.90063 146.935 6.97836C147.857 6.05609 148.942 5.59496 150.19 5.59496H178.997C180.245 5.59496 181.303 6.05609 182.171 6.97836C183.093 7.90063 183.554 8.98565 183.554 10.2334V12.1051C183.554 13.3529 183.093 14.4379 182.171 15.3602C181.303 16.2824 180.245 16.7436 178.997 16.7436H160.118C159.684 16.7436 159.467 16.9606 159.467 17.3946V28.1363C159.467 28.6246 159.684 28.8687 160.118 28.8687H177.37C178.617 28.8687 179.675 29.3299 180.543 30.2521C181.465 31.1744 181.927 32.2594 181.927 33.5072V34.7278C181.927 35.9756 181.465 37.0607 180.543 37.9829C179.675 38.9052 178.617 39.3663 177.37 39.3663H160.118C159.684 39.3663 159.467 39.5833 159.467 40.0173V53.2004C159.467 53.6344 159.684 53.8514 160.118 53.8514H178.997C180.245 53.8514 181.303 54.3125 182.171 55.2348C183.093 56.1571 183.554 57.2421 183.554 58.4899V60.3615C183.554 61.6093 183.093 62.6943 182.171 63.6166C181.303 64.5389 180.245 65 178.997 65H150.19Z" stroke="black" stroke-width="8.56598" mask="url(#path-1-outside-1_281_15060)"/>
<path d="M208.732 16.4994V32.1238C208.732 32.6121 208.949 32.8562 209.383 32.8562H213.289C217.087 32.8562 219.989 32.0695 221.996 30.4963C224.004 28.8687 225.007 26.6173 225.007 23.742C225.007 18.0999 221.291 15.2788 213.859 15.2788C212.177 15.2788 210.712 15.3873 209.464 15.6043C208.976 15.7128 208.732 16.0112 208.732 16.4994ZM199.781 65C198.533 65 197.448 64.5389 196.525 63.6166C195.603 62.6943 195.142 61.6093 195.142 60.3615V10.6403C195.142 9.28404 195.576 8.11764 196.444 7.14111C197.366 6.16459 198.479 5.62208 199.781 5.51358C204.609 5.02532 209.573 4.78119 214.673 4.78119C222.81 4.78119 228.859 6.32735 232.82 9.41966C236.834 12.4577 238.841 16.7978 238.841 22.44C238.841 26.0748 237.784 29.357 235.668 32.2865C233.552 35.1619 230.785 37.2234 227.367 38.4712C227.313 38.4712 227.286 38.4983 227.286 38.5526C227.286 38.6611 227.34 38.7153 227.449 38.7153C230.107 40.2343 232.358 43.4352 234.203 48.3178L238.841 60.687C239.221 61.7178 239.086 62.6943 238.435 63.6166C237.784 64.5389 236.915 65 235.83 65H230.867C229.456 65 228.181 64.5931 227.042 63.7794C225.903 62.9656 225.116 61.9077 224.682 60.6057L220.613 48.8874C219.854 46.6089 218.931 45.0627 217.846 44.2489C216.761 43.4352 215.079 43.0283 212.801 43.0283H209.383C208.949 43.0283 208.732 43.2724 208.732 43.7607V60.3615C208.732 61.6093 208.271 62.6943 207.349 63.6166C206.426 64.5389 205.341 65 204.094 65H199.781Z" stroke="black" stroke-width="8.56598" mask="url(#path-1-outside-1_281_15060)"/>
<path d="M258.459 60.6057L242.021 9.9893C241.641 8.90428 241.777 7.90063 242.428 6.97836C243.133 6.05609 244.055 5.59496 245.195 5.59496H250.647C252.003 5.59496 253.224 6.02896 254.309 6.89698C255.394 7.71075 256.099 8.76865 256.425 10.0707L267.085 51.6542C267.085 51.7085 267.112 51.7356 267.166 51.7356C267.221 51.7356 267.248 51.7085 267.248 51.6542L278.234 10.0707C278.559 8.76865 279.264 7.71075 280.349 6.89698C281.434 6.02896 282.655 5.59496 284.011 5.59496H289.138C290.277 5.59496 291.172 6.05609 291.823 6.97836C292.529 7.90063 292.691 8.90428 292.312 9.9893L275.874 60.6057C275.494 61.9077 274.734 62.9656 273.595 63.7794C272.51 64.5931 271.262 65 269.852 65H264.481C263.125 65 261.877 64.5931 260.738 63.7794C259.652 62.9656 258.893 61.9077 258.459 60.6057Z" stroke="black" stroke-width="8.56598" mask="url(#path-1-outside-1_281_15060)"/>
<path d="M305.581 65C304.333 65 303.248 64.5389 302.326 63.6166C301.458 62.6943 301.024 61.6093 301.024 60.3615V10.2334C301.024 8.98565 301.458 7.90063 302.326 6.97836C303.248 6.05609 304.333 5.59496 305.581 5.59496H311.603C312.851 5.59496 313.909 6.05609 314.777 6.97836C315.699 7.90063 316.16 8.98565 316.16 10.2334V60.3615C316.16 61.6093 315.699 62.6943 314.777 63.6166C313.909 64.5389 312.851 65 311.603 65H305.581Z" stroke="black" stroke-width="8.56598" mask="url(#path-1-outside-1_281_15060)"/>
<path d="M334.321 65C333.073 65 331.988 64.5389 331.065 63.6166C330.197 62.6943 329.763 61.6093 329.763 60.3615V10.2334C329.763 8.98565 330.197 7.90063 331.065 6.97836C331.988 6.05609 333.073 5.59496 334.321 5.59496H363.128C364.376 5.59496 365.434 6.05609 366.302 6.97836C367.224 7.90063 367.685 8.98565 367.685 10.2334V12.1051C367.685 13.3529 367.224 14.4379 366.302 15.3602C365.434 16.2824 364.376 16.7436 363.128 16.7436H344.249C343.814 16.7436 343.598 16.9606 343.598 17.3946V28.1363C343.598 28.6246 343.814 28.8687 344.249 28.8687H361.5C362.748 28.8687 363.806 29.3299 364.674 30.2521C365.596 31.1744 366.057 32.2594 366.057 33.5072V34.7278C366.057 35.9756 365.596 37.0607 364.674 37.9829C363.806 38.9052 362.748 39.3663 361.5 39.3663H344.249C343.814 39.3663 343.598 39.5833 343.598 40.0173V53.2004C343.598 53.6344 343.814 53.8514 344.249 53.8514H363.128C364.376 53.8514 365.434 54.3125 366.302 55.2348C367.224 56.1571 367.685 57.2421 367.685 58.4899V60.3615C367.685 61.6093 367.224 62.6943 366.302 63.6166C365.434 64.5389 364.376 65 363.128 65H334.321Z" stroke="black" stroke-width="8.56598" mask="url(#path-1-outside-1_281_15060)"/>
<path d="M386.434 60.4429L376.425 10.1521C376.154 8.95853 376.398 7.90063 377.157 6.97836C377.971 6.05609 378.975 5.59496 380.168 5.59496H384.888C386.19 5.59496 387.356 6.02896 388.387 6.89698C389.418 7.765 390.015 8.85003 390.177 10.1521L395.711 50.8405C395.711 50.8947 395.738 50.9218 395.792 50.9218C395.847 50.9218 395.874 50.8947 395.874 50.8405L400.919 10.1521C401.082 8.85003 401.652 7.765 402.628 6.89698C403.605 6.02896 404.744 5.59496 406.046 5.59496H413.695C414.997 5.59496 416.137 6.02896 417.113 6.89698C418.09 7.765 418.659 8.85003 418.822 10.1521L423.867 50.8405C423.867 50.8947 423.895 50.9218 423.949 50.9218C424.003 50.9218 424.03 50.8947 424.03 50.8405L429.564 10.1521C429.727 8.85003 430.323 7.765 431.354 6.89698C432.385 6.02896 433.551 5.59496 434.853 5.59496H439.248C440.441 5.59496 441.418 6.05609 442.177 6.97836C442.937 7.90063 443.208 8.95853 442.991 10.1521L432.982 60.4429C432.71 61.7449 432.059 62.83 431.029 63.698C429.998 64.566 428.804 65 427.448 65H420.531C419.229 65 418.063 64.566 417.032 63.698C416.055 62.83 415.486 61.7449 415.323 60.4429L409.789 19.7545C409.789 19.7003 409.762 19.6731 409.708 19.6731C409.654 19.6731 409.627 19.7003 409.627 19.7545L404.093 60.4429C403.93 61.7449 403.333 62.83 402.303 63.698C401.326 64.566 400.187 65 398.885 65H391.968C390.611 65 389.391 64.566 388.306 63.698C387.275 62.83 386.651 61.7449 386.434 60.4429Z" stroke="black" stroke-width="8.56598" mask="url(#path-1-outside-1_281_15060)"/>
</svg>
