<svg width="213" height="312" viewBox="0 0 213 312" fill="none" xmlns="http://www.w3.org/2000/svg">
<path d="M183.542 140.974L183.543 140.973C190.07 134.582 195.609 127.072 200.176 118.48C205.106 109.453 207.489 99.0834 207.489 87.5254C207.489 72.7144 203.289 58.9738 194.965 46.4127C186.735 33.8012 175.063 23.9622 160.156 16.8411C145.174 9.55607 128.04 5.98666 108.877 5.98666C88.2317 5.98666 69.9233 10.2264 54.1091 18.877C38.5139 27.4077 26.4466 38.3221 18.1247 51.6876C9.93055 64.7209 5.66211 77.9045 5.66211 91.1702C5.66211 98.5825 8.77109 105.263 14.3265 111.111L14.3707 111.157L14.416 111.203C20.3572 117.144 27.7103 120.148 36.175 120.148C43.321 120.148 49.6313 117.99 54.7678 113.49C59.8001 109.082 63.3402 102.75 65.6867 94.9853C70.1612 81.5833 75.4832 71.9341 81.4346 65.6394L81.4501 65.6231L81.4654 65.6066C86.8166 59.8437 95.5796 56.4621 108.877 56.4621C119.857 56.4621 128.349 59.6404 134.817 65.6699L134.833 65.6841L134.848 65.6983C141.509 71.8037 144.736 79.1074 144.736 87.9091C144.736 92.2978 143.677 96.3002 141.559 100.007L141.532 100.055L141.506 100.102C139.312 104.143 136.535 107.85 133.157 111.229C129.701 114.685 123.925 119.964 115.752 127.115L115.748 127.119C106.348 135.36 98.7882 142.584 93.1211 148.776C87.2026 155.113 82.4852 162.517 78.9509 170.941C75.3053 179.5 73.5687 189.466 73.5687 200.703C73.5687 210.105 76.0363 218.066 81.7987 223.664L81.8239 223.688L81.8495 223.713C87.4316 228.985 94.3073 231.6 102.163 231.6C109.436 231.6 115.814 229.692 120.752 225.377C125.634 221.11 128.533 214.991 129.891 207.65C131.27 201.506 132.261 197.298 132.873 194.962C133.543 192.749 134.434 190.58 135.554 188.453L135.578 188.407L135.601 188.36C136.637 186.288 138.281 183.89 140.653 181.162C143.17 178.286 146.533 174.914 150.786 171.036C166.503 156.98 177.444 146.942 183.542 140.974ZM80.4262 297.668L80.4699 297.707L80.5146 297.745C87.3119 303.508 95.3031 306.412 104.273 306.412C113.071 306.412 120.896 303.387 127.545 297.476C134.545 291.254 137.856 282.762 137.856 272.638C137.856 263.309 134.616 255.243 128.143 248.769C121.669 242.295 113.603 239.056 104.273 239.056C94.8411 239.056 86.6636 242.276 80.0615 248.728C73.4463 255.193 70.1158 263.272 70.1158 272.638C70.1158 282.865 73.4106 291.432 80.4262 297.668Z" fill="white" stroke="black" stroke-width="10"/>
</svg>
