<svg width="489" height="83" viewBox="0 0 489 83" fill="none" xmlns="http://www.w3.org/2000/svg">
<mask id="path-1-outside-1_659_2845" maskUnits="userSpaceOnUse" x="0.635254" y="-0.00976562" width="488" height="83" fill="black">
<rect fill="white" x="0.635254" y="-0.00976562" width="488" height="83"/>
<path d="M6.28214 46.9515L5.70814 43.8355C5.48948 42.5781 5.76281 41.4575 6.52814 40.4735C7.29348 39.4348 8.30481 38.7788 9.56214 38.5055C19.4568 36.7015 29.0235 33.6675 38.2621 29.4035C47.5555 25.0848 55.7008 19.9188 62.6981 13.9055C63.6821 13.0855 64.8028 12.7028 66.0601 12.7575C67.3175 12.8121 68.3561 13.3315 69.1761 14.3155L71.2262 16.6115C72.1008 17.5955 72.4835 18.7435 72.3741 20.0555C72.2648 21.3128 71.7181 22.3788 70.7341 23.2535C65.1035 28.1188 58.7075 32.5195 51.5461 36.4555C51.1088 36.7288 50.8901 37.0841 50.8901 37.5215V72.7815C50.8901 74.0388 50.4255 75.1048 49.4961 75.9795C48.5668 76.9088 47.4735 77.3735 46.2161 77.3735H41.2141C39.9568 77.3735 38.8635 76.9088 37.9341 75.9795C37.0595 75.1048 36.6221 74.0388 36.6221 72.7815V44.2455C36.6221 44.0815 36.5401 43.9448 36.3761 43.8355C36.2668 43.7261 36.1301 43.6988 35.9661 43.7535C27.9301 46.9241 19.8395 49.2475 11.6941 50.7235C10.4368 50.9421 9.26148 50.6961 8.16814 49.9855C7.12948 49.2201 6.50081 48.2088 6.28214 46.9515Z"/>
<path d="M94.5141 24.6475C93.3661 24.1008 92.6008 23.2261 92.2181 22.0235C91.8355 20.8208 91.9448 19.6728 92.5461 18.5795L94.4321 14.8895C95.0335 13.7415 95.9355 12.9761 97.1381 12.5935C98.3955 12.1561 99.6255 12.2108 100.828 12.7575C106.459 15.4361 112.226 18.3061 118.13 21.3675C119.278 21.9141 120.016 22.8161 120.344 24.0735C120.727 25.3308 120.617 26.5061 120.016 27.5995L117.884 31.2895C117.283 32.3828 116.353 33.1208 115.096 33.5035C113.893 33.8861 112.718 33.7768 111.57 33.1755C105.885 30.2235 100.199 27.3808 94.5141 24.6475ZM152.734 20.6295C153.991 20.9028 154.975 21.5861 155.686 22.6795C156.397 23.7181 156.615 24.8661 156.342 26.1235C153.117 40.5008 146.775 51.6801 137.318 59.6615C127.915 67.6428 115.069 72.6448 98.7781 74.6675C97.4661 74.8315 96.2908 74.5035 95.2521 73.6835C94.2135 72.9181 93.5848 71.8795 93.3661 70.5675L92.7921 66.7955C92.5735 65.5928 92.8468 64.4995 93.6121 63.5155C94.3775 62.4768 95.3888 61.8755 96.6461 61.7115C109.985 59.8528 120.371 55.8895 127.806 49.8215C135.295 43.7535 140.571 34.9248 143.632 23.3355C143.96 22.0781 144.643 21.1215 145.682 20.4655C146.775 19.7548 147.951 19.5361 149.208 19.8095L152.734 20.6295Z"/>
<path d="M173.562 47.3615L171.512 45.4755C170.583 44.6555 170.063 43.6168 169.954 42.3595C169.899 41.0475 170.282 39.9268 171.102 38.9975C177.881 30.9615 182.309 22.1055 184.386 12.4295C184.659 11.1175 185.315 10.0515 186.354 9.23146C187.393 8.35679 188.541 7.94679 189.798 8.00146L193.078 8.24746C194.39 8.35679 195.456 8.87613 196.276 9.80546C197.096 10.7348 197.397 11.8008 197.178 13.0035C197.178 13.1675 197.123 13.4408 197.014 13.8235C196.905 14.1515 196.85 14.3975 196.85 14.5615C196.795 14.7255 196.823 14.8895 196.932 15.0535C197.096 15.2175 197.26 15.2995 197.424 15.2995H228.912C230.169 15.2995 231.263 15.7641 232.192 16.6935C233.121 17.5681 233.586 18.6341 233.586 19.8915C233.477 38.3141 229.404 52.0628 221.368 61.1375C213.332 70.1575 200.485 75.6788 182.828 77.7015C181.516 77.8655 180.341 77.5375 179.302 76.7175C178.263 75.8975 177.635 74.8588 177.416 73.6015L176.924 70.8955C176.705 69.6381 176.979 68.5175 177.744 67.5335C178.509 66.4948 179.521 65.8935 180.778 65.7295C193.625 63.9801 202.891 60.4815 208.576 55.2335C208.904 54.9055 208.849 54.6321 208.412 54.4135C204.367 52.3361 199.283 49.8761 193.16 47.0335C192.012 46.4868 191.247 45.6395 190.864 44.4915C190.536 43.2888 190.673 42.1408 191.274 41.0475L193.078 37.6855C193.679 36.5375 194.581 35.7721 195.784 35.3895C197.041 34.9521 198.271 35.0068 199.474 35.5535C206.198 38.6695 211.555 41.2388 215.546 43.2615C215.929 43.4255 216.202 43.3435 216.366 43.0155C217.951 38.7515 218.935 33.6948 219.318 27.8455C219.318 27.4081 219.099 27.1895 218.662 27.1895H193.898C193.406 27.1895 193.078 27.4081 192.914 27.8455C189.962 34.8428 185.753 41.2661 180.286 47.1155C179.411 48.0448 178.318 48.5368 177.006 48.5915C175.694 48.6461 174.546 48.2361 173.562 47.3615Z"/>
<path d="M300.334 7.59146C301.482 6.99012 302.685 6.88079 303.942 7.26346C305.199 7.64612 306.129 8.41146 306.73 9.55946C307.058 10.1608 307.523 11.0628 308.124 12.2655C308.725 13.4681 309.135 14.2608 309.354 14.6435C309.901 15.7915 309.955 16.9668 309.518 18.1695C309.135 19.3721 308.37 20.2468 307.222 20.7935C306.019 21.3401 304.789 21.3948 303.532 20.9575C302.329 20.5201 301.427 19.7275 300.826 18.5795C300.006 16.9941 299.159 15.3815 298.284 13.7415C297.683 12.6481 297.546 11.5001 297.874 10.2975C298.257 9.04012 299.022 8.13812 300.17 7.59146H300.334ZM320.26 7.42746C322.064 10.8715 322.993 12.6481 323.048 12.7575C323.649 13.9055 323.731 15.0808 323.294 16.2835C322.911 17.4861 322.146 18.3608 320.998 18.9075L320.752 19.0715C319.604 19.6181 318.401 19.7001 317.144 19.3175C315.941 18.8801 315.039 18.0875 314.438 16.9395C314.165 16.3928 313.727 15.5455 313.126 14.3975C312.525 13.2495 312.06 12.4021 311.732 11.8555C311.131 10.7621 310.994 9.58679 311.322 8.32946C311.705 7.07213 312.47 6.17013 313.618 5.62346L313.864 5.54146C315.012 4.94012 316.215 4.83079 317.472 5.21346C318.729 5.54146 319.659 6.27946 320.26 7.42746ZM274.668 76.6355C267.124 76.6355 261.849 75.1868 258.842 72.2895C255.89 69.3921 254.414 64.1168 254.414 56.4635V16.5295C254.414 15.2721 254.879 14.1788 255.808 13.2495C256.737 12.3201 257.831 11.8555 259.088 11.8555H263.352C264.609 11.8555 265.703 12.3201 266.632 13.2495C267.561 14.1788 268.026 15.2721 268.026 16.5295V33.0935C268.026 33.5855 268.245 33.7768 268.682 33.6675C282.294 31.3715 295.25 28.2828 307.55 24.4015C308.807 24.0188 309.955 24.1281 310.994 24.7295C312.087 25.3308 312.825 26.2328 313.208 27.4355L314.11 30.3875C314.493 31.6448 314.356 32.8475 313.7 33.9955C313.099 35.0888 312.197 35.8268 310.994 36.2095C296.89 40.5828 282.813 43.9175 268.764 46.2135C268.272 46.3228 268.026 46.5961 268.026 47.0335V56.7915C268.026 59.9075 268.518 61.9575 269.502 62.9415C270.486 63.9255 272.536 64.4175 275.652 64.4175C287.296 64.4175 298.229 64.1168 308.452 63.5155C309.709 63.4061 310.803 63.7888 311.732 64.6635C312.716 65.5381 313.235 66.6041 313.29 67.8615L313.372 70.8135C313.427 72.1255 312.989 73.2461 312.06 74.1755C311.185 75.1048 310.092 75.6241 308.78 75.7335C298.12 76.3348 286.749 76.6355 274.668 76.6355Z"/>
<path d="M343.63 74.0115C342.373 74.0115 341.279 73.5468 340.35 72.6175C339.421 71.6881 338.956 70.5948 338.956 69.3375V68.1895C338.956 66.9321 339.421 65.8661 340.35 64.9915C341.279 64.0621 342.373 63.5975 343.63 63.5975H369.214C369.706 63.5975 369.952 63.3515 369.952 62.8595L371.428 37.4395C371.428 36.9475 371.209 36.7015 370.772 36.7015H350.272C349.015 36.7015 347.921 36.2641 346.992 35.3895C346.063 34.4601 345.598 33.3668 345.598 32.1095V30.9615C345.598 29.7041 346.063 28.6108 346.992 27.6815C347.921 26.7521 349.015 26.2875 350.272 26.2875H379.956C381.213 26.2875 382.279 26.7521 383.154 27.6815C384.029 28.6108 384.439 29.7041 384.384 30.9615L382.744 62.8595C382.744 63.3515 382.963 63.5975 383.4 63.5975H390.37C391.627 63.5975 392.721 64.0621 393.65 64.9915C394.579 65.8661 395.044 66.9321 395.044 68.1895V69.3375C395.044 70.5948 394.579 71.6881 393.65 72.6175C392.721 73.5468 391.627 74.0115 390.37 74.0115H343.63Z"/>
<path d="M419.48 50.2315C418.223 50.2315 417.129 49.7668 416.2 48.8375C415.271 47.9081 414.806 46.8148 414.806 45.5575V41.6215C414.806 40.3641 415.271 39.2708 416.2 38.3415C417.129 37.4121 418.223 36.9475 419.48 36.9475H478.52C479.777 36.9475 480.871 37.4121 481.8 38.3415C482.729 39.2708 483.194 40.3641 483.194 41.6215V45.5575C483.194 46.8148 482.729 47.9081 481.8 48.8375C480.871 49.7668 479.777 50.2315 478.52 50.2315H419.48Z"/>
</mask>
<path d="M6.28214 46.9515L5.70814 43.8355C5.48948 42.5781 5.76281 41.4575 6.52814 40.4735C7.29348 39.4348 8.30481 38.7788 9.56214 38.5055C19.4568 36.7015 29.0235 33.6675 38.2621 29.4035C47.5555 25.0848 55.7008 19.9188 62.6981 13.9055C63.6821 13.0855 64.8028 12.7028 66.0601 12.7575C67.3175 12.8121 68.3561 13.3315 69.1761 14.3155L71.2262 16.6115C72.1008 17.5955 72.4835 18.7435 72.3741 20.0555C72.2648 21.3128 71.7181 22.3788 70.7341 23.2535C65.1035 28.1188 58.7075 32.5195 51.5461 36.4555C51.1088 36.7288 50.8901 37.0841 50.8901 37.5215V72.7815C50.8901 74.0388 50.4255 75.1048 49.4961 75.9795C48.5668 76.9088 47.4735 77.3735 46.2161 77.3735H41.2141C39.9568 77.3735 38.8635 76.9088 37.9341 75.9795C37.0595 75.1048 36.6221 74.0388 36.6221 72.7815V44.2455C36.6221 44.0815 36.5401 43.9448 36.3761 43.8355C36.2668 43.7261 36.1301 43.6988 35.9661 43.7535C27.9301 46.9241 19.8395 49.2475 11.6941 50.7235C10.4368 50.9421 9.26148 50.6961 8.16814 49.9855C7.12948 49.2201 6.50081 48.2088 6.28214 46.9515Z" fill="white"/>
<path d="M94.5141 24.6475C93.3661 24.1008 92.6008 23.2261 92.2181 22.0235C91.8355 20.8208 91.9448 19.6728 92.5461 18.5795L94.4321 14.8895C95.0335 13.7415 95.9355 12.9761 97.1381 12.5935C98.3955 12.1561 99.6255 12.2108 100.828 12.7575C106.459 15.4361 112.226 18.3061 118.13 21.3675C119.278 21.9141 120.016 22.8161 120.344 24.0735C120.727 25.3308 120.617 26.5061 120.016 27.5995L117.884 31.2895C117.283 32.3828 116.353 33.1208 115.096 33.5035C113.893 33.8861 112.718 33.7768 111.57 33.1755C105.885 30.2235 100.199 27.3808 94.5141 24.6475ZM152.734 20.6295C153.991 20.9028 154.975 21.5861 155.686 22.6795C156.397 23.7181 156.615 24.8661 156.342 26.1235C153.117 40.5008 146.775 51.6801 137.318 59.6615C127.915 67.6428 115.069 72.6448 98.7781 74.6675C97.4661 74.8315 96.2908 74.5035 95.2521 73.6835C94.2135 72.9181 93.5848 71.8795 93.3661 70.5675L92.7921 66.7955C92.5735 65.5928 92.8468 64.4995 93.6121 63.5155C94.3775 62.4768 95.3888 61.8755 96.6461 61.7115C109.985 59.8528 120.371 55.8895 127.806 49.8215C135.295 43.7535 140.571 34.9248 143.632 23.3355C143.96 22.0781 144.643 21.1215 145.682 20.4655C146.775 19.7548 147.951 19.5361 149.208 19.8095L152.734 20.6295Z" fill="white"/>
<path d="M173.562 47.3615L171.512 45.4755C170.583 44.6555 170.063 43.6168 169.954 42.3595C169.899 41.0475 170.282 39.9268 171.102 38.9975C177.881 30.9615 182.309 22.1055 184.386 12.4295C184.659 11.1175 185.315 10.0515 186.354 9.23146C187.393 8.35679 188.541 7.94679 189.798 8.00146L193.078 8.24746C194.39 8.35679 195.456 8.87613 196.276 9.80546C197.096 10.7348 197.397 11.8008 197.178 13.0035C197.178 13.1675 197.123 13.4408 197.014 13.8235C196.905 14.1515 196.85 14.3975 196.85 14.5615C196.795 14.7255 196.823 14.8895 196.932 15.0535C197.096 15.2175 197.26 15.2995 197.424 15.2995H228.912C230.169 15.2995 231.263 15.7641 232.192 16.6935C233.121 17.5681 233.586 18.6341 233.586 19.8915C233.477 38.3141 229.404 52.0628 221.368 61.1375C213.332 70.1575 200.485 75.6788 182.828 77.7015C181.516 77.8655 180.341 77.5375 179.302 76.7175C178.263 75.8975 177.635 74.8588 177.416 73.6015L176.924 70.8955C176.705 69.6381 176.979 68.5175 177.744 67.5335C178.509 66.4948 179.521 65.8935 180.778 65.7295C193.625 63.9801 202.891 60.4815 208.576 55.2335C208.904 54.9055 208.849 54.6321 208.412 54.4135C204.367 52.3361 199.283 49.8761 193.16 47.0335C192.012 46.4868 191.247 45.6395 190.864 44.4915C190.536 43.2888 190.673 42.1408 191.274 41.0475L193.078 37.6855C193.679 36.5375 194.581 35.7721 195.784 35.3895C197.041 34.9521 198.271 35.0068 199.474 35.5535C206.198 38.6695 211.555 41.2388 215.546 43.2615C215.929 43.4255 216.202 43.3435 216.366 43.0155C217.951 38.7515 218.935 33.6948 219.318 27.8455C219.318 27.4081 219.099 27.1895 218.662 27.1895H193.898C193.406 27.1895 193.078 27.4081 192.914 27.8455C189.962 34.8428 185.753 41.2661 180.286 47.1155C179.411 48.0448 178.318 48.5368 177.006 48.5915C175.694 48.6461 174.546 48.2361 173.562 47.3615Z" fill="white"/>
<path d="M300.334 7.59146C301.482 6.99012 302.685 6.88079 303.942 7.26346C305.199 7.64612 306.129 8.41146 306.73 9.55946C307.058 10.1608 307.523 11.0628 308.124 12.2655C308.725 13.4681 309.135 14.2608 309.354 14.6435C309.901 15.7915 309.955 16.9668 309.518 18.1695C309.135 19.3721 308.37 20.2468 307.222 20.7935C306.019 21.3401 304.789 21.3948 303.532 20.9575C302.329 20.5201 301.427 19.7275 300.826 18.5795C300.006 16.9941 299.159 15.3815 298.284 13.7415C297.683 12.6481 297.546 11.5001 297.874 10.2975C298.257 9.04012 299.022 8.13812 300.17 7.59146H300.334ZM320.26 7.42746C322.064 10.8715 322.993 12.6481 323.048 12.7575C323.649 13.9055 323.731 15.0808 323.294 16.2835C322.911 17.4861 322.146 18.3608 320.998 18.9075L320.752 19.0715C319.604 19.6181 318.401 19.7001 317.144 19.3175C315.941 18.8801 315.039 18.0875 314.438 16.9395C314.165 16.3928 313.727 15.5455 313.126 14.3975C312.525 13.2495 312.06 12.4021 311.732 11.8555C311.131 10.7621 310.994 9.58679 311.322 8.32946C311.705 7.07213 312.47 6.17013 313.618 5.62346L313.864 5.54146C315.012 4.94012 316.215 4.83079 317.472 5.21346C318.729 5.54146 319.659 6.27946 320.26 7.42746ZM274.668 76.6355C267.124 76.6355 261.849 75.1868 258.842 72.2895C255.89 69.3921 254.414 64.1168 254.414 56.4635V16.5295C254.414 15.2721 254.879 14.1788 255.808 13.2495C256.737 12.3201 257.831 11.8555 259.088 11.8555H263.352C264.609 11.8555 265.703 12.3201 266.632 13.2495C267.561 14.1788 268.026 15.2721 268.026 16.5295V33.0935C268.026 33.5855 268.245 33.7768 268.682 33.6675C282.294 31.3715 295.25 28.2828 307.55 24.4015C308.807 24.0188 309.955 24.1281 310.994 24.7295C312.087 25.3308 312.825 26.2328 313.208 27.4355L314.11 30.3875C314.493 31.6448 314.356 32.8475 313.7 33.9955C313.099 35.0888 312.197 35.8268 310.994 36.2095C296.89 40.5828 282.813 43.9175 268.764 46.2135C268.272 46.3228 268.026 46.5961 268.026 47.0335V56.7915C268.026 59.9075 268.518 61.9575 269.502 62.9415C270.486 63.9255 272.536 64.4175 275.652 64.4175C287.296 64.4175 298.229 64.1168 308.452 63.5155C309.709 63.4061 310.803 63.7888 311.732 64.6635C312.716 65.5381 313.235 66.6041 313.29 67.8615L313.372 70.8135C313.427 72.1255 312.989 73.2461 312.06 74.1755C311.185 75.1048 310.092 75.6241 308.78 75.7335C298.12 76.3348 286.749 76.6355 274.668 76.6355Z" fill="white"/>
<path d="M343.63 74.0115C342.373 74.0115 341.279 73.5468 340.35 72.6175C339.421 71.6881 338.956 70.5948 338.956 69.3375V68.1895C338.956 66.9321 339.421 65.8661 340.35 64.9915C341.279 64.0621 342.373 63.5975 343.63 63.5975H369.214C369.706 63.5975 369.952 63.3515 369.952 62.8595L371.428 37.4395C371.428 36.9475 371.209 36.7015 370.772 36.7015H350.272C349.015 36.7015 347.921 36.2641 346.992 35.3895C346.063 34.4601 345.598 33.3668 345.598 32.1095V30.9615C345.598 29.7041 346.063 28.6108 346.992 27.6815C347.921 26.7521 349.015 26.2875 350.272 26.2875H379.956C381.213 26.2875 382.279 26.7521 383.154 27.6815C384.029 28.6108 384.439 29.7041 384.384 30.9615L382.744 62.8595C382.744 63.3515 382.963 63.5975 383.4 63.5975H390.37C391.627 63.5975 392.721 64.0621 393.65 64.9915C394.579 65.8661 395.044 66.9321 395.044 68.1895V69.3375C395.044 70.5948 394.579 71.6881 393.65 72.6175C392.721 73.5468 391.627 74.0115 390.37 74.0115H343.63Z" fill="white"/>
<path d="M419.48 50.2315C418.223 50.2315 417.129 49.7668 416.2 48.8375C415.271 47.9081 414.806 46.8148 414.806 45.5575V41.6215C414.806 40.3641 415.271 39.2708 416.2 38.3415C417.129 37.4121 418.223 36.9475 419.48 36.9475H478.52C479.777 36.9475 480.871 37.4121 481.8 38.3415C482.729 39.2708 483.194 40.3641 483.194 41.6215V45.5575C483.194 46.8148 482.729 47.9081 481.8 48.8375C480.871 49.7668 479.777 50.2315 478.52 50.2315H419.48Z" fill="white"/>
<path d="M6.28214 46.9515L5.70814 43.8355C5.48948 42.5781 5.76281 41.4575 6.52814 40.4735C7.29348 39.4348 8.30481 38.7788 9.56214 38.5055C19.4568 36.7015 29.0235 33.6675 38.2621 29.4035C47.5555 25.0848 55.7008 19.9188 62.6981 13.9055C63.6821 13.0855 64.8028 12.7028 66.0601 12.7575C67.3175 12.8121 68.3561 13.3315 69.1761 14.3155L71.2262 16.6115C72.1008 17.5955 72.4835 18.7435 72.3741 20.0555C72.2648 21.3128 71.7181 22.3788 70.7341 23.2535C65.1035 28.1188 58.7075 32.5195 51.5461 36.4555C51.1088 36.7288 50.8901 37.0841 50.8901 37.5215V72.7815C50.8901 74.0388 50.4255 75.1048 49.4961 75.9795C48.5668 76.9088 47.4735 77.3735 46.2161 77.3735H41.2141C39.9568 77.3735 38.8635 76.9088 37.9341 75.9795C37.0595 75.1048 36.6221 74.0388 36.6221 72.7815V44.2455C36.6221 44.0815 36.5401 43.9448 36.3761 43.8355C36.2668 43.7261 36.1301 43.6988 35.9661 43.7535C27.9301 46.9241 19.8395 49.2475 11.6941 50.7235C10.4368 50.9421 9.26148 50.6961 8.16814 49.9855C7.12948 49.2201 6.50081 48.2088 6.28214 46.9515Z" stroke="black" stroke-width="10" mask="url(#path-1-outside-1_659_2845)"/>
<path d="M94.5141 24.6475C93.3661 24.1008 92.6008 23.2261 92.2181 22.0235C91.8355 20.8208 91.9448 19.6728 92.5461 18.5795L94.4321 14.8895C95.0335 13.7415 95.9355 12.9761 97.1381 12.5935C98.3955 12.1561 99.6255 12.2108 100.828 12.7575C106.459 15.4361 112.226 18.3061 118.13 21.3675C119.278 21.9141 120.016 22.8161 120.344 24.0735C120.727 25.3308 120.617 26.5061 120.016 27.5995L117.884 31.2895C117.283 32.3828 116.353 33.1208 115.096 33.5035C113.893 33.8861 112.718 33.7768 111.57 33.1755C105.885 30.2235 100.199 27.3808 94.5141 24.6475ZM152.734 20.6295C153.991 20.9028 154.975 21.5861 155.686 22.6795C156.397 23.7181 156.615 24.8661 156.342 26.1235C153.117 40.5008 146.775 51.6801 137.318 59.6615C127.915 67.6428 115.069 72.6448 98.7781 74.6675C97.4661 74.8315 96.2908 74.5035 95.2521 73.6835C94.2135 72.9181 93.5848 71.8795 93.3661 70.5675L92.7921 66.7955C92.5735 65.5928 92.8468 64.4995 93.6121 63.5155C94.3775 62.4768 95.3888 61.8755 96.6461 61.7115C109.985 59.8528 120.371 55.8895 127.806 49.8215C135.295 43.7535 140.571 34.9248 143.632 23.3355C143.96 22.0781 144.643 21.1215 145.682 20.4655C146.775 19.7548 147.951 19.5361 149.208 19.8095L152.734 20.6295Z" stroke="black" stroke-width="10" mask="url(#path-1-outside-1_659_2845)"/>
<path d="M173.562 47.3615L171.512 45.4755C170.583 44.6555 170.063 43.6168 169.954 42.3595C169.899 41.0475 170.282 39.9268 171.102 38.9975C177.881 30.9615 182.309 22.1055 184.386 12.4295C184.659 11.1175 185.315 10.0515 186.354 9.23146C187.393 8.35679 188.541 7.94679 189.798 8.00146L193.078 8.24746C194.39 8.35679 195.456 8.87613 196.276 9.80546C197.096 10.7348 197.397 11.8008 197.178 13.0035C197.178 13.1675 197.123 13.4408 197.014 13.8235C196.905 14.1515 196.85 14.3975 196.85 14.5615C196.795 14.7255 196.823 14.8895 196.932 15.0535C197.096 15.2175 197.26 15.2995 197.424 15.2995H228.912C230.169 15.2995 231.263 15.7641 232.192 16.6935C233.121 17.5681 233.586 18.6341 233.586 19.8915C233.477 38.3141 229.404 52.0628 221.368 61.1375C213.332 70.1575 200.485 75.6788 182.828 77.7015C181.516 77.8655 180.341 77.5375 179.302 76.7175C178.263 75.8975 177.635 74.8588 177.416 73.6015L176.924 70.8955C176.705 69.6381 176.979 68.5175 177.744 67.5335C178.509 66.4948 179.521 65.8935 180.778 65.7295C193.625 63.9801 202.891 60.4815 208.576 55.2335C208.904 54.9055 208.849 54.6321 208.412 54.4135C204.367 52.3361 199.283 49.8761 193.16 47.0335C192.012 46.4868 191.247 45.6395 190.864 44.4915C190.536 43.2888 190.673 42.1408 191.274 41.0475L193.078 37.6855C193.679 36.5375 194.581 35.7721 195.784 35.3895C197.041 34.9521 198.271 35.0068 199.474 35.5535C206.198 38.6695 211.555 41.2388 215.546 43.2615C215.929 43.4255 216.202 43.3435 216.366 43.0155C217.951 38.7515 218.935 33.6948 219.318 27.8455C219.318 27.4081 219.099 27.1895 218.662 27.1895H193.898C193.406 27.1895 193.078 27.4081 192.914 27.8455C189.962 34.8428 185.753 41.2661 180.286 47.1155C179.411 48.0448 178.318 48.5368 177.006 48.5915C175.694 48.6461 174.546 48.2361 173.562 47.3615Z" stroke="black" stroke-width="10" mask="url(#path-1-outside-1_659_2845)"/>
<path d="M300.334 7.59146C301.482 6.99012 302.685 6.88079 303.942 7.26346C305.199 7.64612 306.129 8.41146 306.73 9.55946C307.058 10.1608 307.523 11.0628 308.124 12.2655C308.725 13.4681 309.135 14.2608 309.354 14.6435C309.901 15.7915 309.955 16.9668 309.518 18.1695C309.135 19.3721 308.37 20.2468 307.222 20.7935C306.019 21.3401 304.789 21.3948 303.532 20.9575C302.329 20.5201 301.427 19.7275 300.826 18.5795C300.006 16.9941 299.159 15.3815 298.284 13.7415C297.683 12.6481 297.546 11.5001 297.874 10.2975C298.257 9.04012 299.022 8.13812 300.17 7.59146H300.334ZM320.26 7.42746C322.064 10.8715 322.993 12.6481 323.048 12.7575C323.649 13.9055 323.731 15.0808 323.294 16.2835C322.911 17.4861 322.146 18.3608 320.998 18.9075L320.752 19.0715C319.604 19.6181 318.401 19.7001 317.144 19.3175C315.941 18.8801 315.039 18.0875 314.438 16.9395C314.165 16.3928 313.727 15.5455 313.126 14.3975C312.525 13.2495 312.06 12.4021 311.732 11.8555C311.131 10.7621 310.994 9.58679 311.322 8.32946C311.705 7.07213 312.47 6.17013 313.618 5.62346L313.864 5.54146C315.012 4.94012 316.215 4.83079 317.472 5.21346C318.729 5.54146 319.659 6.27946 320.26 7.42746ZM274.668 76.6355C267.124 76.6355 261.849 75.1868 258.842 72.2895C255.89 69.3921 254.414 64.1168 254.414 56.4635V16.5295C254.414 15.2721 254.879 14.1788 255.808 13.2495C256.737 12.3201 257.831 11.8555 259.088 11.8555H263.352C264.609 11.8555 265.703 12.3201 266.632 13.2495C267.561 14.1788 268.026 15.2721 268.026 16.5295V33.0935C268.026 33.5855 268.245 33.7768 268.682 33.6675C282.294 31.3715 295.25 28.2828 307.55 24.4015C308.807 24.0188 309.955 24.1281 310.994 24.7295C312.087 25.3308 312.825 26.2328 313.208 27.4355L314.11 30.3875C314.493 31.6448 314.356 32.8475 313.7 33.9955C313.099 35.0888 312.197 35.8268 310.994 36.2095C296.89 40.5828 282.813 43.9175 268.764 46.2135C268.272 46.3228 268.026 46.5961 268.026 47.0335V56.7915C268.026 59.9075 268.518 61.9575 269.502 62.9415C270.486 63.9255 272.536 64.4175 275.652 64.4175C287.296 64.4175 298.229 64.1168 308.452 63.5155C309.709 63.4061 310.803 63.7888 311.732 64.6635C312.716 65.5381 313.235 66.6041 313.29 67.8615L313.372 70.8135C313.427 72.1255 312.989 73.2461 312.06 74.1755C311.185 75.1048 310.092 75.6241 308.78 75.7335C298.12 76.3348 286.749 76.6355 274.668 76.6355Z" stroke="black" stroke-width="10" mask="url(#path-1-outside-1_659_2845)"/>
<path d="M343.63 74.0115C342.373 74.0115 341.279 73.5468 340.35 72.6175C339.421 71.6881 338.956 70.5948 338.956 69.3375V68.1895C338.956 66.9321 339.421 65.8661 340.35 64.9915C341.279 64.0621 342.373 63.5975 343.63 63.5975H369.214C369.706 63.5975 369.952 63.3515 369.952 62.8595L371.428 37.4395C371.428 36.9475 371.209 36.7015 370.772 36.7015H350.272C349.015 36.7015 347.921 36.2641 346.992 35.3895C346.063 34.4601 345.598 33.3668 345.598 32.1095V30.9615C345.598 29.7041 346.063 28.6108 346.992 27.6815C347.921 26.7521 349.015 26.2875 350.272 26.2875H379.956C381.213 26.2875 382.279 26.7521 383.154 27.6815C384.029 28.6108 384.439 29.7041 384.384 30.9615L382.744 62.8595C382.744 63.3515 382.963 63.5975 383.4 63.5975H390.37C391.627 63.5975 392.721 64.0621 393.65 64.9915C394.579 65.8661 395.044 66.9321 395.044 68.1895V69.3375C395.044 70.5948 394.579 71.6881 393.65 72.6175C392.721 73.5468 391.627 74.0115 390.37 74.0115H343.63Z" stroke="black" stroke-width="10" mask="url(#path-1-outside-1_659_2845)"/>
<path d="M419.48 50.2315C418.223 50.2315 417.129 49.7668 416.2 48.8375C415.271 47.9081 414.806 46.8148 414.806 45.5575V41.6215C414.806 40.3641 415.271 39.2708 416.2 38.3415C417.129 37.4121 418.223 36.9475 419.48 36.9475H478.52C479.777 36.9475 480.871 37.4121 481.8 38.3415C482.729 39.2708 483.194 40.3641 483.194 41.6215V45.5575C483.194 46.8148 482.729 47.9081 481.8 48.8375C480.871 49.7668 479.777 50.2315 478.52 50.2315H419.48Z" stroke="black" stroke-width="10" mask="url(#path-1-outside-1_659_2845)"/>
</svg>
