<svg width="582" height="87" viewBox="0 0 582 87" fill="none" xmlns="http://www.w3.org/2000/svg">
<mask id="path-1-outside-1_1164_6467" maskUnits="userSpaceOnUse" x="0.804688" y="0.693359" width="582" height="87" fill="black">
<rect fill="white" x="0.804688" y="0.693359" width="582" height="87"/>
<path d="M10.3147 33.7374C9.05735 33.7374 7.99135 33.3 7.11669 32.4254C6.24202 31.496 5.80469 30.43 5.80469 29.2274V27.5874C5.80469 26.3847 6.24202 25.346 7.11669 24.4714C7.99135 23.542 9.05735 23.0774 10.3147 23.0774C10.752 23.0774 10.9707 22.8587 10.9707 22.4214V11.6794C10.9707 10.422 11.4354 9.32869 12.3647 8.39936C13.294 7.47003 14.3874 7.00536 15.6447 7.00536H18.7607C20.018 7.00536 21.1114 7.47003 22.0407 8.39936C22.97 9.32869 23.4347 10.422 23.4347 11.6794V22.4214C23.4347 22.8587 23.6534 23.0774 24.0907 23.0774H25.0747C26.332 23.0774 27.398 23.542 28.2727 24.4714C29.202 25.4007 29.6667 26.494 29.6667 27.7514V29.0634C29.6667 30.3207 29.202 31.414 28.2727 32.3434C27.398 33.2727 26.332 33.7374 25.0747 33.7374H24.0907C23.6534 33.7374 23.4347 33.9834 23.4347 34.4754V77.2794C23.4347 78.5367 22.97 79.63 22.0407 80.5594C21.1114 81.4887 20.018 81.9534 18.7607 81.9534H15.6447C14.3874 81.9534 13.294 81.4887 12.3647 80.5594C11.4354 79.63 10.9707 78.5367 10.9707 77.2794V34.3934C10.9707 33.956 10.752 33.7374 10.3147 33.7374ZM25.1567 77.5254C24.3367 76.5414 23.8994 75.366 23.8447 73.9994C23.8447 72.6874 24.2 71.4574 24.9107 70.3094C27.152 66.7014 28.5187 61.6994 29.0107 55.3034C29.0107 55.03 28.8467 54.8934 28.5187 54.8934C27.644 54.8934 26.8787 54.5927 26.2227 53.9914C25.6214 53.3354 25.3207 52.5427 25.3207 51.6134V48.4154C25.3207 47.4314 25.676 46.584 26.3867 45.8734C27.0974 45.1627 27.9447 44.8074 28.9287 44.8074C29.2567 44.8074 29.4207 44.616 29.4207 44.2334C29.4207 43.96 29.4207 43.5774 29.4207 43.0854C29.4754 42.5387 29.5027 42.1014 29.5027 41.7734C29.5027 40.9534 29.776 40.27 30.3227 39.7234C30.924 39.122 31.6347 38.8214 32.4547 38.8214C32.6734 38.8214 32.728 38.712 32.6187 38.4934L30.4867 35.7054C29.8307 34.776 29.6667 33.792 29.9947 32.7534C30.3227 31.7147 31.006 31.004 32.0447 30.6214C37.402 28.6534 41.256 25.9747 43.6067 22.5854C43.8254 22.2574 43.6887 22.0934 43.1967 22.0934H36.8007C35.5434 22.0934 34.45 21.6287 33.5207 20.6994C32.5914 19.77 32.1267 18.6767 32.1267 17.4194V16.3534C32.1267 15.096 32.5914 14.0027 33.5207 13.0734C34.45 12.144 35.5434 11.6794 36.8007 11.6794H46.5587C47.1054 11.6794 47.3787 11.4334 47.3787 10.9414V10.4494C47.488 9.13736 47.98 8.0167 48.8547 7.08736C49.784 6.15803 50.9047 5.69336 52.2167 5.69336H55.6607C56.918 5.69336 57.984 6.15803 58.8587 7.08736C59.788 8.0167 60.2254 9.11003 60.1707 10.3674C60.1707 10.4767 60.1434 10.586 60.0887 10.6954C60.0887 10.8047 60.0887 10.8867 60.0887 10.9414C60.0887 11.4334 60.3074 11.6794 60.7447 11.6794H75.9147C77.172 11.6794 78.2654 12.144 79.1947 13.0734C80.124 14.0027 80.5887 15.096 80.5887 16.3534C80.534 20.18 80.452 23.3234 80.3427 25.7834C80.2334 28.2434 79.9874 30.3754 79.6047 32.1794C79.222 33.9834 78.812 35.3774 78.3747 36.3614C77.9374 37.2907 77.2267 38.0287 76.2427 38.5754C75.3134 39.122 74.3567 39.45 73.3727 39.5594C72.4434 39.6687 71.1314 39.7234 69.4367 39.7234H69.2727C68.8354 39.7234 68.6167 39.9694 68.6167 40.4614V44.0694C68.6167 44.5614 68.8354 44.8074 69.2727 44.8074H77.7187C78.976 44.8074 80.0694 45.2994 80.9987 46.2834C81.928 47.2127 82.3927 48.306 82.3927 49.5634C82.3927 54.8114 82.338 59.13 82.2287 62.5194C82.174 65.854 82.01 68.7787 81.7367 71.2934C81.518 73.7534 81.272 75.5847 80.9987 76.7874C80.7254 77.99 80.2607 78.9467 79.6047 79.6574C78.9487 80.368 78.32 80.778 77.7187 80.8874C77.1174 81.0514 76.2154 81.1334 75.0127 81.1334C74.794 81.1334 72.9354 81.0787 69.4367 80.9694C68.1247 80.9147 67.004 80.4227 66.0747 79.4934C65.2 78.564 64.708 77.4434 64.5987 76.1314L64.4347 73.5894C64.4347 73.48 64.4074 73.4254 64.3527 73.4254C64.298 73.4254 64.2434 73.4527 64.1887 73.5074C63.478 75.202 62.5214 76.9514 61.3187 78.7554C60.608 79.7394 59.6514 80.2587 58.4487 80.3134C57.246 80.368 56.2347 79.9307 55.4147 79.0014L52.2167 75.4754C52.1074 75.366 51.998 75.3114 51.8887 75.3114C51.7794 75.366 51.6974 75.448 51.6427 75.5574C51.1507 77.9627 50.44 79.4934 49.5107 80.1494C48.636 80.8054 47.2694 81.1334 45.4107 81.1334C45.2467 81.1334 43.5794 81.0787 40.4087 80.9694C39.0967 80.86 37.9487 80.3407 36.9647 79.4114C36.0354 78.5367 35.5434 77.4434 35.4887 76.1314L35.3247 73.5894C35.3247 73.48 35.2974 73.4254 35.2427 73.4254C35.188 73.4254 35.1334 73.4527 35.0787 73.5074C34.368 75.202 33.4114 76.9514 32.2087 78.7554C31.5527 79.794 30.596 80.3134 29.3387 80.3134C28.0814 80.3134 27.07 79.8487 26.3047 78.9194L25.1567 77.5254ZM68.7807 54.8934C68.2887 54.8934 68.0427 55.112 68.0427 55.5494C67.6054 60.688 66.8127 65.2527 65.6647 69.2434C65.5554 69.7354 65.7467 69.9814 66.2387 69.9814C67.332 70.0907 68.48 70.1454 69.6827 70.1454C70.0654 70.1454 70.3387 70.0634 70.5027 69.8994C70.6667 69.6807 70.8307 69.1067 70.9947 68.1774C71.1587 67.1934 71.268 65.7447 71.3227 63.8314C71.3774 61.8634 71.4047 59.1027 71.4047 55.5494C71.4047 55.112 71.1587 54.8934 70.6667 54.8934H68.7807ZM54.1027 28.6534C53.8294 29.0907 53.9114 29.3094 54.3487 29.3094C59.214 29.528 62.4667 29.6374 64.1067 29.6374C65.364 29.6374 66.1294 29.3094 66.4027 28.6534C66.7307 27.9427 66.8947 25.9747 66.8947 22.7494C66.8947 22.312 66.676 22.0934 66.2387 22.0934H58.4487C57.9567 22.0934 57.6287 22.312 57.4647 22.7494C56.59 24.772 55.4694 26.74 54.1027 28.6534ZM39.5067 40.4614V44.0694C39.5067 44.5614 39.7254 44.8074 40.1627 44.8074H48.1167C49.374 44.8074 50.4674 45.272 51.3967 46.2014C52.326 47.076 52.7907 48.142 52.7907 49.3994C52.7907 60.2234 52.572 67.7127 52.1347 71.8674C52.1347 72.1954 52.244 72.25 52.4627 72.0314C54.048 69.8994 55.2234 67.6034 55.9887 65.1434C56.8087 62.6287 57.41 59.3487 57.7927 55.3034C57.7927 55.03 57.6287 54.8934 57.3007 54.8934C56.4807 54.8934 55.77 54.5927 55.1687 53.9914C54.5674 53.39 54.2667 52.6794 54.2667 51.8594V48.2514C54.2667 47.322 54.5947 46.5294 55.2507 45.8734C55.9614 45.1627 56.7814 44.8074 57.7107 44.8074C58.0387 44.8074 58.2027 44.616 58.2027 44.2334C58.2027 43.796 58.2027 43.14 58.2027 42.2654C58.2574 41.3907 58.2847 40.7074 58.2847 40.2154C58.2847 39.7234 58.0934 39.4774 57.7107 39.4774C56.4534 39.4227 55.3874 38.9854 54.5127 38.1654C53.638 37.3454 53.146 36.334 53.0367 35.1314L52.6267 31.2774C52.6267 31.168 52.5447 31.086 52.3807 31.0314C52.2714 30.922 52.1894 30.922 52.1347 31.0314C49.128 34.3114 45.1374 37.1267 40.1627 39.4774C39.7254 39.6414 39.5067 39.9694 39.5067 40.4614ZM36.5547 69.2434C36.5 69.4074 36.5274 69.5714 36.6367 69.7354C36.8007 69.8994 36.9647 69.9814 37.1287 69.9814C38.222 70.0907 39.3427 70.1454 40.4907 70.1454C40.8734 70.1454 41.1467 70.0634 41.3107 69.8994C41.4747 69.7354 41.6387 69.1614 41.8027 68.1774C41.9667 67.1934 42.0487 65.7447 42.0487 63.8314C42.1034 61.918 42.1307 59.1574 42.1307 55.5494C42.1307 55.112 41.8847 54.8934 41.3927 54.8934H39.6707C39.1787 54.8934 38.9327 55.112 38.9327 55.5494C38.4954 60.688 37.7027 65.2527 36.5547 69.2434Z"/>
<path d="M96.9887 30.2934C95.7314 30.2934 94.638 29.8287 93.7087 28.8994C92.834 27.97 92.3967 26.8767 92.3967 25.6194V23.5694C92.3967 22.312 92.834 21.2187 93.7087 20.2894C94.638 19.36 95.7314 18.8954 96.9887 18.8954H112.569C113.061 18.8954 113.307 18.6767 113.307 18.2394C113.416 15.178 113.471 12.8 113.471 11.1054C113.471 9.79336 113.908 8.70003 114.783 7.82536C115.712 6.89603 116.833 6.43136 118.145 6.43136H122.245C123.502 6.43136 124.568 6.89603 125.443 7.82536C126.372 8.70003 126.837 9.76603 126.837 11.0234C126.837 12.718 126.782 15.096 126.673 18.1574C126.673 18.6494 126.891 18.8954 127.329 18.8954H155.373C156.63 18.8954 157.696 19.36 158.571 20.2894C159.5 21.164 159.965 22.23 159.965 23.4874C159.91 32.562 159.801 40.106 159.637 46.1194C159.473 52.1327 159.09 57.326 158.489 61.6994C157.942 66.0727 157.313 69.4347 156.603 71.7854C155.947 74.0814 154.908 75.8854 153.487 77.1974C152.12 78.564 150.726 79.4114 149.305 79.7394C147.883 80.0674 145.943 80.2314 143.483 80.2314C142.007 80.2314 137.579 79.958 130.199 79.4114C128.887 79.302 127.766 78.7554 126.837 77.7714C125.962 76.842 125.497 75.7214 125.443 74.4094L125.361 71.7034C125.306 70.446 125.716 69.4074 126.591 68.5874C127.52 67.7674 128.586 67.412 129.789 67.5214C134.217 67.9587 137.715 68.1774 140.285 68.1774C141.378 68.1774 142.253 67.7947 142.909 67.0294C143.565 66.2094 144.193 64.542 144.795 62.0274C145.396 59.5127 145.833 55.7407 146.107 50.7114C146.38 45.6274 146.544 39.04 146.599 30.9494C146.599 30.512 146.38 30.2934 145.943 30.2934H126.591C126.099 30.2934 125.853 30.512 125.853 30.9494C124.705 42.5387 122.409 51.9687 118.965 59.2394C115.575 66.51 110.628 73.0427 104.123 78.8374C103.139 79.712 101.991 80.0947 100.679 79.9854C99.4214 79.876 98.3554 79.3294 97.4807 78.3454L94.6927 75.2294C93.8727 74.3 93.5174 73.2067 93.6267 71.9494C93.7907 70.6374 94.3374 69.5714 95.2667 68.7514C100.405 64.214 104.287 59.1027 106.911 53.4174C109.589 47.732 111.421 40.27 112.405 31.0314C112.514 30.5394 112.323 30.2934 111.831 30.2934H96.9887Z"/>
<path d="M172.593 36.1974L171.609 34.0654C171.062 32.8627 171.007 31.6327 171.445 30.3754C171.882 29.118 172.675 28.1887 173.823 27.5874C182.843 22.6674 190.906 16.9274 198.013 10.3674C200.254 8.29003 202.905 7.25136 205.967 7.25136H213.347C216.408 7.25136 219.087 8.31736 221.383 10.4494C228.489 17.0094 236.553 22.7494 245.573 27.6694C246.721 28.2707 247.486 29.2 247.869 30.4574C248.306 31.66 248.251 32.8627 247.705 34.0654L246.721 36.1974C246.174 37.3454 245.299 38.138 244.097 38.5754C242.949 38.958 241.828 38.876 240.735 38.3294C229.145 32.2067 218.95 24.7447 210.149 15.9434C209.821 15.6154 209.493 15.6154 209.165 15.9434C200.363 24.7447 190.168 32.2067 178.579 38.3294C177.485 38.876 176.337 38.958 175.135 38.5754C173.987 38.138 173.139 37.3454 172.593 36.1974ZM189.321 39.0674C190.578 39.0674 191.671 39.532 192.601 40.4614C193.53 41.3907 193.995 42.484 193.995 43.7414V68.6694C193.995 69.1067 194.241 69.3254 194.733 69.3254H204.491C204.983 69.3254 205.229 69.1067 205.229 68.6694V29.6374C205.229 28.38 205.693 27.2867 206.623 26.3574C207.552 25.428 208.645 24.9634 209.903 24.9634H213.593C214.85 24.9634 215.943 25.428 216.873 26.3574C217.802 27.2867 218.267 28.38 218.267 29.6374V42.8394C218.267 43.2767 218.513 43.4954 219.005 43.4954H238.275C239.532 43.4954 240.625 43.96 241.555 44.8894C242.484 45.8187 242.949 46.912 242.949 48.1694V49.5634C242.949 50.8207 242.484 51.914 241.555 52.8434C240.625 53.718 239.532 54.1554 238.275 54.1554H219.005C218.513 54.1554 218.267 54.4014 218.267 54.8934V68.6694C218.267 69.1067 218.513 69.3254 219.005 69.3254H242.293C243.55 69.3254 244.643 69.79 245.573 70.7194C246.502 71.6487 246.967 72.742 246.967 73.9994V75.7214C246.967 76.9787 246.502 78.072 245.573 79.0014C244.643 79.9307 243.55 80.3954 242.293 80.3954H177.021C175.763 80.3954 174.67 79.9307 173.741 79.0014C172.811 78.072 172.347 76.9787 172.347 75.7214V73.9994C172.347 72.742 172.811 71.6487 173.741 70.7194C174.67 69.79 175.763 69.3254 177.021 69.3254H180.629C181.066 69.3254 181.285 69.1067 181.285 68.6694V43.7414C181.285 42.484 181.749 41.3907 182.679 40.4614C183.608 39.532 184.701 39.0674 185.959 39.0674H189.321Z"/>
<path d="M255.413 77.5254L254.429 75.6394C253.882 74.6554 253.827 73.644 254.265 72.6054C254.757 71.5667 255.549 70.9107 256.643 70.6374C263.257 69.1067 269.298 67.412 274.765 65.5534C274.765 65.4987 274.71 65.4167 274.601 65.3074H260.661C259.403 65.3074 258.31 64.87 257.381 63.9954C256.451 63.066 255.987 61.9727 255.987 60.7154V60.4694C255.987 59.212 256.451 58.1187 257.381 57.1894C258.31 56.26 259.403 55.7954 260.661 55.7954H284.277C284.714 55.7954 284.933 55.5767 284.933 55.1394V53.9914C284.933 53.554 284.714 53.3354 284.277 53.3354H263.613C262.465 53.3354 261.481 52.9254 260.661 52.1054C259.841 51.2307 259.431 50.2194 259.431 49.0714C259.431 47.9234 259.841 46.9394 260.661 46.1194C261.481 45.2994 262.465 44.8894 263.613 44.8894H284.277C284.714 44.8894 284.933 44.6434 284.933 44.1514V43.0854C284.933 42.5934 284.714 42.3474 284.277 42.3474H261.153C259.95 42.3474 258.911 41.9374 258.037 41.1174C257.217 40.2974 256.807 39.286 256.807 38.0834C256.807 36.8807 257.217 35.8694 258.037 35.0494C258.911 34.1747 259.95 33.7374 261.153 33.7374H270.173C270.61 33.7374 270.774 33.4914 270.665 32.9994L268.697 28.0794C268.533 27.642 268.232 27.4234 267.795 27.4234H259.841C258.583 27.4234 257.49 26.986 256.561 26.1114C255.631 25.182 255.167 24.0887 255.167 22.8314V21.7654C255.167 20.508 255.631 19.4147 256.561 18.4854C257.49 17.556 258.583 17.0914 259.841 17.0914H261.809C261.973 17.0914 262.082 17.0367 262.137 16.9274C262.246 16.7634 262.273 16.6267 262.219 16.5174C262.109 16.3534 261.973 16.08 261.809 15.6974C261.645 15.3147 261.508 15.0414 261.399 14.8774C260.797 13.8387 260.715 12.7727 261.153 11.6794C261.59 10.586 262.383 9.87536 263.531 9.54736L265.253 9.05536C266.565 8.6727 267.849 8.72736 269.107 9.21936C270.364 9.71136 271.321 10.5314 271.977 11.6794C272.141 12.0074 272.523 12.718 273.125 13.8114C273.726 14.9047 274.191 15.7794 274.519 16.4354C274.683 16.8727 275.011 17.0914 275.503 17.0914H277.225C277.662 17.0914 277.881 16.8454 277.881 16.3534V11.1874C277.881 9.93003 278.345 8.86403 279.275 7.98936C280.204 7.06003 281.297 6.59536 282.555 6.59536H284.605C285.862 6.59536 286.955 7.06003 287.885 7.98936C288.814 8.86403 289.279 9.93003 289.279 11.1874V16.3534C289.279 16.8454 289.497 17.0914 289.935 17.0914H293.379C293.816 17.0914 294.035 16.8454 294.035 16.3534V11.1874C294.035 9.93003 294.499 8.86403 295.429 7.98936C296.358 7.06003 297.451 6.59536 298.709 6.59536H300.759C302.016 6.59536 303.082 7.06003 303.957 7.98936C304.886 8.86403 305.351 9.93003 305.351 11.1874V16.3534C305.351 16.8454 305.597 17.0914 306.089 17.0914H308.303C308.74 17.0914 309.095 16.8727 309.369 16.4354C309.642 15.9434 310.407 14.44 311.665 11.9254C312.266 10.7227 313.168 9.82069 314.371 9.21936C315.573 8.61803 316.831 8.45403 318.143 8.72736L319.701 9.13736C320.903 9.4107 321.751 10.094 322.243 11.1874C322.789 12.2807 322.789 13.374 322.243 14.4674L321.259 16.4354C321.04 16.8727 321.177 17.0914 321.669 17.0914H323.473C324.73 17.0914 325.823 17.556 326.753 18.4854C327.682 19.4147 328.147 20.508 328.147 21.7654V22.8314C328.147 24.0887 327.682 25.182 326.753 26.1114C325.823 26.986 324.73 27.4234 323.473 27.4234H316.011C315.573 27.4234 315.245 27.6694 315.027 28.1614C314.261 30.0747 313.578 31.742 312.977 33.1634C312.922 33.2727 312.949 33.4094 313.059 33.5734C313.168 33.6827 313.305 33.7374 313.469 33.7374H322.161C323.363 33.7374 324.375 34.1747 325.195 35.0494C326.069 35.8694 326.507 36.8807 326.507 38.0834C326.507 39.286 326.069 40.2974 325.195 41.1174C324.375 41.9374 323.363 42.3474 322.161 42.3474H299.037C298.599 42.3474 298.381 42.5934 298.381 43.0854V44.1514C298.381 44.6434 298.599 44.8894 299.037 44.8894H319.701C320.849 44.8894 321.833 45.2994 322.653 46.1194C323.473 46.9394 323.883 47.9234 323.883 49.0714C323.883 50.2194 323.473 51.2307 322.653 52.1054C321.833 52.9254 320.849 53.3354 319.701 53.3354H299.037C298.599 53.3354 298.381 53.554 298.381 53.9914V55.1394C298.381 55.5767 298.599 55.7954 299.037 55.7954H322.653C323.91 55.7954 325.003 56.26 325.933 57.1894C326.862 58.1187 327.327 59.212 327.327 60.4694V60.7154C327.327 61.9727 326.862 63.066 325.933 63.9954C325.003 64.87 323.91 65.3074 322.653 65.3074H308.713C308.658 65.362 308.658 65.444 308.713 65.5534C313.851 67.3027 319.865 68.9974 326.753 70.6374C327.846 70.856 328.611 71.512 329.049 72.6054C329.541 73.644 329.486 74.6554 328.885 75.6394L327.901 77.5254C327.245 78.728 326.261 79.5754 324.949 80.0674C323.691 80.5594 322.407 80.614 321.095 80.2314C312.676 77.6074 305.323 74.628 299.037 71.2934C298.599 71.0747 298.381 71.184 298.381 71.6214V77.2794C298.381 78.5367 297.916 79.63 296.987 80.5594C296.057 81.4887 294.964 81.9534 293.707 81.9534H289.607C288.349 81.9534 287.256 81.4887 286.327 80.5594C285.397 79.63 284.933 78.5367 284.933 77.2794V71.6214C284.933 71.4574 284.851 71.348 284.687 71.2934C284.577 71.184 284.468 71.1567 284.359 71.2114C278.291 74.4914 270.911 77.498 262.219 80.2314C260.907 80.614 259.595 80.5594 258.283 80.0674C257.025 79.5754 256.069 78.728 255.413 77.5254ZM284.687 33.7374H298.791C299.337 33.7374 299.693 33.5187 299.857 33.0814C300.513 31.824 301.223 30.1567 301.989 28.0794C302.098 27.642 301.961 27.4234 301.579 27.4234H282.309C281.926 27.4234 281.789 27.642 281.899 28.0794C282.336 29.1727 282.937 30.8127 283.703 32.9994C283.921 33.4914 284.249 33.7374 284.687 33.7374Z"/>
<path d="M369.557 52.5154C368.299 52.5154 367.206 52.078 366.277 51.2034C365.402 50.274 364.965 49.1807 364.965 47.9234V41.0354C364.965 39.778 365.402 38.712 366.277 37.8374C367.206 36.908 368.299 36.4434 369.557 36.4434H376.445C377.702 36.4434 378.768 36.908 379.643 37.8374C380.572 38.712 381.037 39.778 381.037 41.0354V47.9234C381.037 49.1807 380.572 50.274 379.643 51.2034C378.768 52.078 377.702 52.5154 376.445 52.5154H369.557Z"/>
<path d="M423.349 81.9534C422.091 81.9534 420.998 81.4887 420.069 80.5594C419.194 79.63 418.757 78.5367 418.757 77.2794V12.7454C418.757 11.488 419.194 10.422 420.069 9.54736C420.998 8.61803 422.091 8.15336 423.349 8.15336H486.653C487.91 8.15336 488.976 8.61803 489.851 9.54736C490.78 10.422 491.245 11.488 491.245 12.7454V77.2794C491.245 78.5367 490.78 79.63 489.851 80.5594C488.976 81.4887 487.91 81.9534 486.653 81.9534H481.487C480.776 81.9534 480.147 81.68 479.601 81.1334C479.109 80.6414 478.863 80.0127 478.863 79.2474C478.863 78.974 478.726 78.8374 478.453 78.8374H431.549C431.275 78.8374 431.139 78.974 431.139 79.2474C431.139 80.0127 430.865 80.6414 430.319 81.1334C429.827 81.68 429.225 81.9534 428.515 81.9534H423.349ZM431.139 18.5674V68.7514C431.139 69.1887 431.385 69.4074 431.877 69.4074H478.125C478.617 69.4074 478.863 69.1887 478.863 68.7514V18.5674C478.863 18.13 478.617 17.9114 478.125 17.9114H431.877C431.385 17.9114 431.139 18.13 431.139 18.5674ZM437.781 36.1154C436.523 36.1154 435.43 35.678 434.501 34.8034C433.571 33.874 433.107 32.7807 433.107 31.5234V30.7854C433.107 29.528 433.571 28.4347 434.501 27.5054C435.43 26.576 436.523 26.1114 437.781 26.1114H458.281C458.718 26.1114 458.937 25.8654 458.937 25.3734V24.3074C458.937 23.05 459.401 21.984 460.331 21.1094C461.26 20.18 462.353 19.7154 463.611 19.7154H466.645C467.902 19.7154 468.995 20.18 469.925 21.1094C470.854 21.984 471.319 23.05 471.319 24.3074V25.3734C471.319 25.8654 471.565 26.1114 472.057 26.1114H472.221C473.478 26.1114 474.571 26.576 475.501 27.5054C476.43 28.4347 476.895 29.528 476.895 30.7854V31.5234C476.895 32.7807 476.43 33.874 475.501 34.8034C474.571 35.678 473.478 36.1154 472.221 36.1154H472.057C471.565 36.1154 471.319 36.3614 471.319 36.8534V52.0234C471.319 54.6474 471.291 56.6974 471.237 58.1734C471.182 59.6494 470.991 61.0434 470.663 62.3554C470.389 63.6127 470.061 64.5147 469.679 65.0614C469.351 65.608 468.722 66.1 467.793 66.5374C466.863 66.92 465.907 67.1387 464.923 67.1934C463.939 67.248 462.517 67.2754 460.659 67.2754C457.324 67.2754 454.427 67.2207 451.967 67.1114C450.655 67.0567 449.534 66.5647 448.605 65.6354C447.675 64.706 447.183 63.5854 447.129 62.2734V61.7814C447.074 60.5787 447.484 59.54 448.359 58.6654C449.288 57.736 450.381 57.326 451.639 57.4354C452.951 57.49 454.427 57.5174 456.067 57.5174C457.488 57.5174 458.308 57.3807 458.527 57.1074C458.8 56.834 458.937 55.85 458.937 54.1554V36.8534C458.937 36.3614 458.718 36.1154 458.281 36.1154H437.781ZM450.819 54.1554L449.179 55.0574C448.085 55.6587 446.91 55.768 445.653 55.3854C444.45 55.0027 443.548 54.2647 442.947 53.1714C441.853 51.2034 440.432 48.8527 438.683 46.1194C438.027 45.0807 437.835 43.96 438.109 42.7574C438.437 41.5 439.12 40.5707 440.159 39.9694L441.799 39.0674C442.947 38.4114 444.149 38.2474 445.407 38.5754C446.719 38.9034 447.757 39.614 448.523 40.7074C450.272 43.4407 451.693 45.7914 452.787 47.7594C453.388 48.9074 453.497 50.11 453.115 51.3674C452.732 52.6247 451.967 53.554 450.819 54.1554Z"/>
<path d="M499.281 51.4494L498.133 44.7254C497.641 41.828 498.242 39.04 499.937 36.3614C504.146 29.8014 507.453 21.41 509.859 11.1874C510.132 9.93003 510.815 8.94603 511.909 8.23536C513.002 7.52469 514.177 7.27869 515.435 7.49736L518.223 7.98936C519.48 8.20803 520.464 8.83669 521.175 9.87536C521.94 10.914 522.213 12.062 521.995 13.3194C521.011 18.2394 519.726 22.886 518.141 27.2594C517.977 27.6967 517.895 28.134 517.895 28.5714V57.9274C517.895 58.0367 517.949 58.1187 518.059 58.1734C518.168 58.228 518.25 58.2007 518.305 58.0914C525.193 49.454 530.687 40.352 534.787 30.7854C535.005 30.348 534.869 30.1294 534.377 30.1294H524.783C523.525 30.1294 522.432 29.6647 521.503 28.7354C520.573 27.806 520.109 26.7127 520.109 25.4554V24.1434C520.109 22.886 520.573 21.7927 521.503 20.8634C522.432 19.934 523.525 19.4694 524.783 19.4694H540.527C541.019 19.4694 541.265 19.2234 541.265 18.7314V11.6794C541.265 10.422 541.729 9.32869 542.659 8.39936C543.588 7.47003 544.681 7.00536 545.939 7.00536H549.301C550.558 7.00536 551.651 7.47003 552.581 8.39936C553.51 9.32869 553.975 10.422 553.975 11.6794V18.7314C553.975 19.2234 554.193 19.4694 554.631 19.4694H571.523C572.78 19.4694 573.873 19.934 574.803 20.8634C575.732 21.7927 576.197 22.886 576.197 24.1434V25.4554C576.197 26.7127 575.732 27.806 574.803 28.7354C573.873 29.6647 572.78 30.1294 571.523 30.1294H560.945C560.453 30.1294 560.316 30.348 560.535 30.7854C564.143 39.532 569.063 48.0054 575.295 56.2054C577.153 58.6107 577.372 61.18 575.951 63.9134L573.573 68.3414C573.081 69.2707 572.288 69.7627 571.195 69.8174C570.156 69.872 569.336 69.462 568.735 68.5874C568.516 68.2594 567.587 66.838 565.947 64.3234C565.837 64.2687 565.728 64.3234 565.619 64.4874V64.9794C565.619 66.2367 565.154 67.33 564.225 68.2594C563.295 69.1887 562.202 69.6534 560.945 69.6534H554.631C554.193 69.6534 553.975 69.872 553.975 70.3094V77.2794C553.975 78.5367 553.51 79.63 552.581 80.5594C551.651 81.4887 550.558 81.9534 549.301 81.9534H545.939C544.681 81.9534 543.588 81.4887 542.659 80.5594C541.729 79.63 541.265 78.5367 541.265 77.2794V70.3094C541.265 69.872 541.019 69.6534 540.527 69.6534H534.049C532.791 69.6534 531.698 69.1887 530.769 68.2594C529.839 67.33 529.375 66.2367 529.375 64.9794V64.5694C529.375 64.46 529.32 64.4054 529.211 64.4054C529.101 64.3507 529.019 64.378 528.965 64.4874C527.762 66.346 526.833 67.74 526.177 68.6694C525.466 69.6534 524.509 70.1727 523.307 70.2274C522.104 70.282 521.12 69.872 520.355 68.9974L518.387 66.7014C518.277 66.592 518.168 66.5647 518.059 66.6194C517.949 66.674 517.895 66.756 517.895 66.8654V77.2794C517.895 78.5367 517.43 79.63 516.501 80.5594C515.626 81.4887 514.56 81.9534 513.303 81.9534H510.515C509.257 81.9534 508.164 81.4887 507.235 80.5594C506.305 79.63 505.841 78.5367 505.841 77.2794V48.7434C505.841 48.634 505.786 48.5794 505.677 48.5794C505.622 48.5794 505.567 48.6067 505.513 48.6614C504.802 49.8094 503.955 51.0667 502.971 52.4334C502.424 53.144 501.713 53.39 500.839 53.1714C499.964 52.9527 499.445 52.3787 499.281 51.4494ZM553.975 41.1994V58.9114C553.975 59.3487 554.193 59.5674 554.631 59.5674H562.339C562.503 59.5674 562.612 59.5127 562.667 59.4034C562.776 59.2394 562.803 59.1027 562.749 58.9934C559.469 53.2534 556.626 47.2947 554.221 41.1174C554.166 41.0627 554.111 41.0354 554.057 41.0354C554.002 41.0354 553.975 41.09 553.975 41.1994ZM532.327 58.9934C532.272 59.1027 532.272 59.2394 532.327 59.4034C532.436 59.5127 532.573 59.5674 532.737 59.5674H540.527C541.019 59.5674 541.265 59.3487 541.265 58.9114V41.2814C541.265 41.172 541.237 41.1174 541.183 41.1174C541.128 41.1174 541.073 41.1447 541.019 41.1994C538.395 47.7594 535.497 53.6907 532.327 58.9934Z"/>
</mask>
<path d="M10.3147 33.7374C9.05735 33.7374 7.99135 33.3 7.11669 32.4254C6.24202 31.496 5.80469 30.43 5.80469 29.2274V27.5874C5.80469 26.3847 6.24202 25.346 7.11669 24.4714C7.99135 23.542 9.05735 23.0774 10.3147 23.0774C10.752 23.0774 10.9707 22.8587 10.9707 22.4214V11.6794C10.9707 10.422 11.4354 9.32869 12.3647 8.39936C13.294 7.47003 14.3874 7.00536 15.6447 7.00536H18.7607C20.018 7.00536 21.1114 7.47003 22.0407 8.39936C22.97 9.32869 23.4347 10.422 23.4347 11.6794V22.4214C23.4347 22.8587 23.6534 23.0774 24.0907 23.0774H25.0747C26.332 23.0774 27.398 23.542 28.2727 24.4714C29.202 25.4007 29.6667 26.494 29.6667 27.7514V29.0634C29.6667 30.3207 29.202 31.414 28.2727 32.3434C27.398 33.2727 26.332 33.7374 25.0747 33.7374H24.0907C23.6534 33.7374 23.4347 33.9834 23.4347 34.4754V77.2794C23.4347 78.5367 22.97 79.63 22.0407 80.5594C21.1114 81.4887 20.018 81.9534 18.7607 81.9534H15.6447C14.3874 81.9534 13.294 81.4887 12.3647 80.5594C11.4354 79.63 10.9707 78.5367 10.9707 77.2794V34.3934C10.9707 33.956 10.752 33.7374 10.3147 33.7374ZM25.1567 77.5254C24.3367 76.5414 23.8994 75.366 23.8447 73.9994C23.8447 72.6874 24.2 71.4574 24.9107 70.3094C27.152 66.7014 28.5187 61.6994 29.0107 55.3034C29.0107 55.03 28.8467 54.8934 28.5187 54.8934C27.644 54.8934 26.8787 54.5927 26.2227 53.9914C25.6214 53.3354 25.3207 52.5427 25.3207 51.6134V48.4154C25.3207 47.4314 25.676 46.584 26.3867 45.8734C27.0974 45.1627 27.9447 44.8074 28.9287 44.8074C29.2567 44.8074 29.4207 44.616 29.4207 44.2334C29.4207 43.96 29.4207 43.5774 29.4207 43.0854C29.4754 42.5387 29.5027 42.1014 29.5027 41.7734C29.5027 40.9534 29.776 40.27 30.3227 39.7234C30.924 39.122 31.6347 38.8214 32.4547 38.8214C32.6734 38.8214 32.728 38.712 32.6187 38.4934L30.4867 35.7054C29.8307 34.776 29.6667 33.792 29.9947 32.7534C30.3227 31.7147 31.006 31.004 32.0447 30.6214C37.402 28.6534 41.256 25.9747 43.6067 22.5854C43.8254 22.2574 43.6887 22.0934 43.1967 22.0934H36.8007C35.5434 22.0934 34.45 21.6287 33.5207 20.6994C32.5914 19.77 32.1267 18.6767 32.1267 17.4194V16.3534C32.1267 15.096 32.5914 14.0027 33.5207 13.0734C34.45 12.144 35.5434 11.6794 36.8007 11.6794H46.5587C47.1054 11.6794 47.3787 11.4334 47.3787 10.9414V10.4494C47.488 9.13736 47.98 8.0167 48.8547 7.08736C49.784 6.15803 50.9047 5.69336 52.2167 5.69336H55.6607C56.918 5.69336 57.984 6.15803 58.8587 7.08736C59.788 8.0167 60.2254 9.11003 60.1707 10.3674C60.1707 10.4767 60.1434 10.586 60.0887 10.6954C60.0887 10.8047 60.0887 10.8867 60.0887 10.9414C60.0887 11.4334 60.3074 11.6794 60.7447 11.6794H75.9147C77.172 11.6794 78.2654 12.144 79.1947 13.0734C80.124 14.0027 80.5887 15.096 80.5887 16.3534C80.534 20.18 80.452 23.3234 80.3427 25.7834C80.2334 28.2434 79.9874 30.3754 79.6047 32.1794C79.222 33.9834 78.812 35.3774 78.3747 36.3614C77.9374 37.2907 77.2267 38.0287 76.2427 38.5754C75.3134 39.122 74.3567 39.45 73.3727 39.5594C72.4434 39.6687 71.1314 39.7234 69.4367 39.7234H69.2727C68.8354 39.7234 68.6167 39.9694 68.6167 40.4614V44.0694C68.6167 44.5614 68.8354 44.8074 69.2727 44.8074H77.7187C78.976 44.8074 80.0694 45.2994 80.9987 46.2834C81.928 47.2127 82.3927 48.306 82.3927 49.5634C82.3927 54.8114 82.338 59.13 82.2287 62.5194C82.174 65.854 82.01 68.7787 81.7367 71.2934C81.518 73.7534 81.272 75.5847 80.9987 76.7874C80.7254 77.99 80.2607 78.9467 79.6047 79.6574C78.9487 80.368 78.32 80.778 77.7187 80.8874C77.1174 81.0514 76.2154 81.1334 75.0127 81.1334C74.794 81.1334 72.9354 81.0787 69.4367 80.9694C68.1247 80.9147 67.004 80.4227 66.0747 79.4934C65.2 78.564 64.708 77.4434 64.5987 76.1314L64.4347 73.5894C64.4347 73.48 64.4074 73.4254 64.3527 73.4254C64.298 73.4254 64.2434 73.4527 64.1887 73.5074C63.478 75.202 62.5214 76.9514 61.3187 78.7554C60.608 79.7394 59.6514 80.2587 58.4487 80.3134C57.246 80.368 56.2347 79.9307 55.4147 79.0014L52.2167 75.4754C52.1074 75.366 51.998 75.3114 51.8887 75.3114C51.7794 75.366 51.6974 75.448 51.6427 75.5574C51.1507 77.9627 50.44 79.4934 49.5107 80.1494C48.636 80.8054 47.2694 81.1334 45.4107 81.1334C45.2467 81.1334 43.5794 81.0787 40.4087 80.9694C39.0967 80.86 37.9487 80.3407 36.9647 79.4114C36.0354 78.5367 35.5434 77.4434 35.4887 76.1314L35.3247 73.5894C35.3247 73.48 35.2974 73.4254 35.2427 73.4254C35.188 73.4254 35.1334 73.4527 35.0787 73.5074C34.368 75.202 33.4114 76.9514 32.2087 78.7554C31.5527 79.794 30.596 80.3134 29.3387 80.3134C28.0814 80.3134 27.07 79.8487 26.3047 78.9194L25.1567 77.5254ZM68.7807 54.8934C68.2887 54.8934 68.0427 55.112 68.0427 55.5494C67.6054 60.688 66.8127 65.2527 65.6647 69.2434C65.5554 69.7354 65.7467 69.9814 66.2387 69.9814C67.332 70.0907 68.48 70.1454 69.6827 70.1454C70.0654 70.1454 70.3387 70.0634 70.5027 69.8994C70.6667 69.6807 70.8307 69.1067 70.9947 68.1774C71.1587 67.1934 71.268 65.7447 71.3227 63.8314C71.3774 61.8634 71.4047 59.1027 71.4047 55.5494C71.4047 55.112 71.1587 54.8934 70.6667 54.8934H68.7807ZM54.1027 28.6534C53.8294 29.0907 53.9114 29.3094 54.3487 29.3094C59.214 29.528 62.4667 29.6374 64.1067 29.6374C65.364 29.6374 66.1294 29.3094 66.4027 28.6534C66.7307 27.9427 66.8947 25.9747 66.8947 22.7494C66.8947 22.312 66.676 22.0934 66.2387 22.0934H58.4487C57.9567 22.0934 57.6287 22.312 57.4647 22.7494C56.59 24.772 55.4694 26.74 54.1027 28.6534ZM39.5067 40.4614V44.0694C39.5067 44.5614 39.7254 44.8074 40.1627 44.8074H48.1167C49.374 44.8074 50.4674 45.272 51.3967 46.2014C52.326 47.076 52.7907 48.142 52.7907 49.3994C52.7907 60.2234 52.572 67.7127 52.1347 71.8674C52.1347 72.1954 52.244 72.25 52.4627 72.0314C54.048 69.8994 55.2234 67.6034 55.9887 65.1434C56.8087 62.6287 57.41 59.3487 57.7927 55.3034C57.7927 55.03 57.6287 54.8934 57.3007 54.8934C56.4807 54.8934 55.77 54.5927 55.1687 53.9914C54.5674 53.39 54.2667 52.6794 54.2667 51.8594V48.2514C54.2667 47.322 54.5947 46.5294 55.2507 45.8734C55.9614 45.1627 56.7814 44.8074 57.7107 44.8074C58.0387 44.8074 58.2027 44.616 58.2027 44.2334C58.2027 43.796 58.2027 43.14 58.2027 42.2654C58.2574 41.3907 58.2847 40.7074 58.2847 40.2154C58.2847 39.7234 58.0934 39.4774 57.7107 39.4774C56.4534 39.4227 55.3874 38.9854 54.5127 38.1654C53.638 37.3454 53.146 36.334 53.0367 35.1314L52.6267 31.2774C52.6267 31.168 52.5447 31.086 52.3807 31.0314C52.2714 30.922 52.1894 30.922 52.1347 31.0314C49.128 34.3114 45.1374 37.1267 40.1627 39.4774C39.7254 39.6414 39.5067 39.9694 39.5067 40.4614ZM36.5547 69.2434C36.5 69.4074 36.5274 69.5714 36.6367 69.7354C36.8007 69.8994 36.9647 69.9814 37.1287 69.9814C38.222 70.0907 39.3427 70.1454 40.4907 70.1454C40.8734 70.1454 41.1467 70.0634 41.3107 69.8994C41.4747 69.7354 41.6387 69.1614 41.8027 68.1774C41.9667 67.1934 42.0487 65.7447 42.0487 63.8314C42.1034 61.918 42.1307 59.1574 42.1307 55.5494C42.1307 55.112 41.8847 54.8934 41.3927 54.8934H39.6707C39.1787 54.8934 38.9327 55.112 38.9327 55.5494C38.4954 60.688 37.7027 65.2527 36.5547 69.2434Z" fill="white"/>
<path d="M96.9887 30.2934C95.7314 30.2934 94.638 29.8287 93.7087 28.8994C92.834 27.97 92.3967 26.8767 92.3967 25.6194V23.5694C92.3967 22.312 92.834 21.2187 93.7087 20.2894C94.638 19.36 95.7314 18.8954 96.9887 18.8954H112.569C113.061 18.8954 113.307 18.6767 113.307 18.2394C113.416 15.178 113.471 12.8 113.471 11.1054C113.471 9.79336 113.908 8.70003 114.783 7.82536C115.712 6.89603 116.833 6.43136 118.145 6.43136H122.245C123.502 6.43136 124.568 6.89603 125.443 7.82536C126.372 8.70003 126.837 9.76603 126.837 11.0234C126.837 12.718 126.782 15.096 126.673 18.1574C126.673 18.6494 126.891 18.8954 127.329 18.8954H155.373C156.63 18.8954 157.696 19.36 158.571 20.2894C159.5 21.164 159.965 22.23 159.965 23.4874C159.91 32.562 159.801 40.106 159.637 46.1194C159.473 52.1327 159.09 57.326 158.489 61.6994C157.942 66.0727 157.313 69.4347 156.603 71.7854C155.947 74.0814 154.908 75.8854 153.487 77.1974C152.12 78.564 150.726 79.4114 149.305 79.7394C147.883 80.0674 145.943 80.2314 143.483 80.2314C142.007 80.2314 137.579 79.958 130.199 79.4114C128.887 79.302 127.766 78.7554 126.837 77.7714C125.962 76.842 125.497 75.7214 125.443 74.4094L125.361 71.7034C125.306 70.446 125.716 69.4074 126.591 68.5874C127.52 67.7674 128.586 67.412 129.789 67.5214C134.217 67.9587 137.715 68.1774 140.285 68.1774C141.378 68.1774 142.253 67.7947 142.909 67.0294C143.565 66.2094 144.193 64.542 144.795 62.0274C145.396 59.5127 145.833 55.7407 146.107 50.7114C146.38 45.6274 146.544 39.04 146.599 30.9494C146.599 30.512 146.38 30.2934 145.943 30.2934H126.591C126.099 30.2934 125.853 30.512 125.853 30.9494C124.705 42.5387 122.409 51.9687 118.965 59.2394C115.575 66.51 110.628 73.0427 104.123 78.8374C103.139 79.712 101.991 80.0947 100.679 79.9854C99.4214 79.876 98.3554 79.3294 97.4807 78.3454L94.6927 75.2294C93.8727 74.3 93.5174 73.2067 93.6267 71.9494C93.7907 70.6374 94.3374 69.5714 95.2667 68.7514C100.405 64.214 104.287 59.1027 106.911 53.4174C109.589 47.732 111.421 40.27 112.405 31.0314C112.514 30.5394 112.323 30.2934 111.831 30.2934H96.9887Z" fill="white"/>
<path d="M172.593 36.1974L171.609 34.0654C171.062 32.8627 171.007 31.6327 171.445 30.3754C171.882 29.118 172.675 28.1887 173.823 27.5874C182.843 22.6674 190.906 16.9274 198.013 10.3674C200.254 8.29003 202.905 7.25136 205.967 7.25136H213.347C216.408 7.25136 219.087 8.31736 221.383 10.4494C228.489 17.0094 236.553 22.7494 245.573 27.6694C246.721 28.2707 247.486 29.2 247.869 30.4574C248.306 31.66 248.251 32.8627 247.705 34.0654L246.721 36.1974C246.174 37.3454 245.299 38.138 244.097 38.5754C242.949 38.958 241.828 38.876 240.735 38.3294C229.145 32.2067 218.95 24.7447 210.149 15.9434C209.821 15.6154 209.493 15.6154 209.165 15.9434C200.363 24.7447 190.168 32.2067 178.579 38.3294C177.485 38.876 176.337 38.958 175.135 38.5754C173.987 38.138 173.139 37.3454 172.593 36.1974ZM189.321 39.0674C190.578 39.0674 191.671 39.532 192.601 40.4614C193.53 41.3907 193.995 42.484 193.995 43.7414V68.6694C193.995 69.1067 194.241 69.3254 194.733 69.3254H204.491C204.983 69.3254 205.229 69.1067 205.229 68.6694V29.6374C205.229 28.38 205.693 27.2867 206.623 26.3574C207.552 25.428 208.645 24.9634 209.903 24.9634H213.593C214.85 24.9634 215.943 25.428 216.873 26.3574C217.802 27.2867 218.267 28.38 218.267 29.6374V42.8394C218.267 43.2767 218.513 43.4954 219.005 43.4954H238.275C239.532 43.4954 240.625 43.96 241.555 44.8894C242.484 45.8187 242.949 46.912 242.949 48.1694V49.5634C242.949 50.8207 242.484 51.914 241.555 52.8434C240.625 53.718 239.532 54.1554 238.275 54.1554H219.005C218.513 54.1554 218.267 54.4014 218.267 54.8934V68.6694C218.267 69.1067 218.513 69.3254 219.005 69.3254H242.293C243.55 69.3254 244.643 69.79 245.573 70.7194C246.502 71.6487 246.967 72.742 246.967 73.9994V75.7214C246.967 76.9787 246.502 78.072 245.573 79.0014C244.643 79.9307 243.55 80.3954 242.293 80.3954H177.021C175.763 80.3954 174.67 79.9307 173.741 79.0014C172.811 78.072 172.347 76.9787 172.347 75.7214V73.9994C172.347 72.742 172.811 71.6487 173.741 70.7194C174.67 69.79 175.763 69.3254 177.021 69.3254H180.629C181.066 69.3254 181.285 69.1067 181.285 68.6694V43.7414C181.285 42.484 181.749 41.3907 182.679 40.4614C183.608 39.532 184.701 39.0674 185.959 39.0674H189.321Z" fill="white"/>
<path d="M255.413 77.5254L254.429 75.6394C253.882 74.6554 253.827 73.644 254.265 72.6054C254.757 71.5667 255.549 70.9107 256.643 70.6374C263.257 69.1067 269.298 67.412 274.765 65.5534C274.765 65.4987 274.71 65.4167 274.601 65.3074H260.661C259.403 65.3074 258.31 64.87 257.381 63.9954C256.451 63.066 255.987 61.9727 255.987 60.7154V60.4694C255.987 59.212 256.451 58.1187 257.381 57.1894C258.31 56.26 259.403 55.7954 260.661 55.7954H284.277C284.714 55.7954 284.933 55.5767 284.933 55.1394V53.9914C284.933 53.554 284.714 53.3354 284.277 53.3354H263.613C262.465 53.3354 261.481 52.9254 260.661 52.1054C259.841 51.2307 259.431 50.2194 259.431 49.0714C259.431 47.9234 259.841 46.9394 260.661 46.1194C261.481 45.2994 262.465 44.8894 263.613 44.8894H284.277C284.714 44.8894 284.933 44.6434 284.933 44.1514V43.0854C284.933 42.5934 284.714 42.3474 284.277 42.3474H261.153C259.95 42.3474 258.911 41.9374 258.037 41.1174C257.217 40.2974 256.807 39.286 256.807 38.0834C256.807 36.8807 257.217 35.8694 258.037 35.0494C258.911 34.1747 259.95 33.7374 261.153 33.7374H270.173C270.61 33.7374 270.774 33.4914 270.665 32.9994L268.697 28.0794C268.533 27.642 268.232 27.4234 267.795 27.4234H259.841C258.583 27.4234 257.49 26.986 256.561 26.1114C255.631 25.182 255.167 24.0887 255.167 22.8314V21.7654C255.167 20.508 255.631 19.4147 256.561 18.4854C257.49 17.556 258.583 17.0914 259.841 17.0914H261.809C261.973 17.0914 262.082 17.0367 262.137 16.9274C262.246 16.7634 262.273 16.6267 262.219 16.5174C262.109 16.3534 261.973 16.08 261.809 15.6974C261.645 15.3147 261.508 15.0414 261.399 14.8774C260.797 13.8387 260.715 12.7727 261.153 11.6794C261.59 10.586 262.383 9.87536 263.531 9.54736L265.253 9.05536C266.565 8.6727 267.849 8.72736 269.107 9.21936C270.364 9.71136 271.321 10.5314 271.977 11.6794C272.141 12.0074 272.523 12.718 273.125 13.8114C273.726 14.9047 274.191 15.7794 274.519 16.4354C274.683 16.8727 275.011 17.0914 275.503 17.0914H277.225C277.662 17.0914 277.881 16.8454 277.881 16.3534V11.1874C277.881 9.93003 278.345 8.86403 279.275 7.98936C280.204 7.06003 281.297 6.59536 282.555 6.59536H284.605C285.862 6.59536 286.955 7.06003 287.885 7.98936C288.814 8.86403 289.279 9.93003 289.279 11.1874V16.3534C289.279 16.8454 289.497 17.0914 289.935 17.0914H293.379C293.816 17.0914 294.035 16.8454 294.035 16.3534V11.1874C294.035 9.93003 294.499 8.86403 295.429 7.98936C296.358 7.06003 297.451 6.59536 298.709 6.59536H300.759C302.016 6.59536 303.082 7.06003 303.957 7.98936C304.886 8.86403 305.351 9.93003 305.351 11.1874V16.3534C305.351 16.8454 305.597 17.0914 306.089 17.0914H308.303C308.74 17.0914 309.095 16.8727 309.369 16.4354C309.642 15.9434 310.407 14.44 311.665 11.9254C312.266 10.7227 313.168 9.82069 314.371 9.21936C315.573 8.61803 316.831 8.45403 318.143 8.72736L319.701 9.13736C320.903 9.4107 321.751 10.094 322.243 11.1874C322.789 12.2807 322.789 13.374 322.243 14.4674L321.259 16.4354C321.04 16.8727 321.177 17.0914 321.669 17.0914H323.473C324.73 17.0914 325.823 17.556 326.753 18.4854C327.682 19.4147 328.147 20.508 328.147 21.7654V22.8314C328.147 24.0887 327.682 25.182 326.753 26.1114C325.823 26.986 324.73 27.4234 323.473 27.4234H316.011C315.573 27.4234 315.245 27.6694 315.027 28.1614C314.261 30.0747 313.578 31.742 312.977 33.1634C312.922 33.2727 312.949 33.4094 313.059 33.5734C313.168 33.6827 313.305 33.7374 313.469 33.7374H322.161C323.363 33.7374 324.375 34.1747 325.195 35.0494C326.069 35.8694 326.507 36.8807 326.507 38.0834C326.507 39.286 326.069 40.2974 325.195 41.1174C324.375 41.9374 323.363 42.3474 322.161 42.3474H299.037C298.599 42.3474 298.381 42.5934 298.381 43.0854V44.1514C298.381 44.6434 298.599 44.8894 299.037 44.8894H319.701C320.849 44.8894 321.833 45.2994 322.653 46.1194C323.473 46.9394 323.883 47.9234 323.883 49.0714C323.883 50.2194 323.473 51.2307 322.653 52.1054C321.833 52.9254 320.849 53.3354 319.701 53.3354H299.037C298.599 53.3354 298.381 53.554 298.381 53.9914V55.1394C298.381 55.5767 298.599 55.7954 299.037 55.7954H322.653C323.91 55.7954 325.003 56.26 325.933 57.1894C326.862 58.1187 327.327 59.212 327.327 60.4694V60.7154C327.327 61.9727 326.862 63.066 325.933 63.9954C325.003 64.87 323.91 65.3074 322.653 65.3074H308.713C308.658 65.362 308.658 65.444 308.713 65.5534C313.851 67.3027 319.865 68.9974 326.753 70.6374C327.846 70.856 328.611 71.512 329.049 72.6054C329.541 73.644 329.486 74.6554 328.885 75.6394L327.901 77.5254C327.245 78.728 326.261 79.5754 324.949 80.0674C323.691 80.5594 322.407 80.614 321.095 80.2314C312.676 77.6074 305.323 74.628 299.037 71.2934C298.599 71.0747 298.381 71.184 298.381 71.6214V77.2794C298.381 78.5367 297.916 79.63 296.987 80.5594C296.057 81.4887 294.964 81.9534 293.707 81.9534H289.607C288.349 81.9534 287.256 81.4887 286.327 80.5594C285.397 79.63 284.933 78.5367 284.933 77.2794V71.6214C284.933 71.4574 284.851 71.348 284.687 71.2934C284.577 71.184 284.468 71.1567 284.359 71.2114C278.291 74.4914 270.911 77.498 262.219 80.2314C260.907 80.614 259.595 80.5594 258.283 80.0674C257.025 79.5754 256.069 78.728 255.413 77.5254ZM284.687 33.7374H298.791C299.337 33.7374 299.693 33.5187 299.857 33.0814C300.513 31.824 301.223 30.1567 301.989 28.0794C302.098 27.642 301.961 27.4234 301.579 27.4234H282.309C281.926 27.4234 281.789 27.642 281.899 28.0794C282.336 29.1727 282.937 30.8127 283.703 32.9994C283.921 33.4914 284.249 33.7374 284.687 33.7374Z" fill="white"/>
<path d="M369.557 52.5154C368.299 52.5154 367.206 52.078 366.277 51.2034C365.402 50.274 364.965 49.1807 364.965 47.9234V41.0354C364.965 39.778 365.402 38.712 366.277 37.8374C367.206 36.908 368.299 36.4434 369.557 36.4434H376.445C377.702 36.4434 378.768 36.908 379.643 37.8374C380.572 38.712 381.037 39.778 381.037 41.0354V47.9234C381.037 49.1807 380.572 50.274 379.643 51.2034C378.768 52.078 377.702 52.5154 376.445 52.5154H369.557Z" fill="white"/>
<path d="M423.349 81.9534C422.091 81.9534 420.998 81.4887 420.069 80.5594C419.194 79.63 418.757 78.5367 418.757 77.2794V12.7454C418.757 11.488 419.194 10.422 420.069 9.54736C420.998 8.61803 422.091 8.15336 423.349 8.15336H486.653C487.91 8.15336 488.976 8.61803 489.851 9.54736C490.78 10.422 491.245 11.488 491.245 12.7454V77.2794C491.245 78.5367 490.78 79.63 489.851 80.5594C488.976 81.4887 487.91 81.9534 486.653 81.9534H481.487C480.776 81.9534 480.147 81.68 479.601 81.1334C479.109 80.6414 478.863 80.0127 478.863 79.2474C478.863 78.974 478.726 78.8374 478.453 78.8374H431.549C431.275 78.8374 431.139 78.974 431.139 79.2474C431.139 80.0127 430.865 80.6414 430.319 81.1334C429.827 81.68 429.225 81.9534 428.515 81.9534H423.349ZM431.139 18.5674V68.7514C431.139 69.1887 431.385 69.4074 431.877 69.4074H478.125C478.617 69.4074 478.863 69.1887 478.863 68.7514V18.5674C478.863 18.13 478.617 17.9114 478.125 17.9114H431.877C431.385 17.9114 431.139 18.13 431.139 18.5674ZM437.781 36.1154C436.523 36.1154 435.43 35.678 434.501 34.8034C433.571 33.874 433.107 32.7807 433.107 31.5234V30.7854C433.107 29.528 433.571 28.4347 434.501 27.5054C435.43 26.576 436.523 26.1114 437.781 26.1114H458.281C458.718 26.1114 458.937 25.8654 458.937 25.3734V24.3074C458.937 23.05 459.401 21.984 460.331 21.1094C461.26 20.18 462.353 19.7154 463.611 19.7154H466.645C467.902 19.7154 468.995 20.18 469.925 21.1094C470.854 21.984 471.319 23.05 471.319 24.3074V25.3734C471.319 25.8654 471.565 26.1114 472.057 26.1114H472.221C473.478 26.1114 474.571 26.576 475.501 27.5054C476.43 28.4347 476.895 29.528 476.895 30.7854V31.5234C476.895 32.7807 476.43 33.874 475.501 34.8034C474.571 35.678 473.478 36.1154 472.221 36.1154H472.057C471.565 36.1154 471.319 36.3614 471.319 36.8534V52.0234C471.319 54.6474 471.291 56.6974 471.237 58.1734C471.182 59.6494 470.991 61.0434 470.663 62.3554C470.389 63.6127 470.061 64.5147 469.679 65.0614C469.351 65.608 468.722 66.1 467.793 66.5374C466.863 66.92 465.907 67.1387 464.923 67.1934C463.939 67.248 462.517 67.2754 460.659 67.2754C457.324 67.2754 454.427 67.2207 451.967 67.1114C450.655 67.0567 449.534 66.5647 448.605 65.6354C447.675 64.706 447.183 63.5854 447.129 62.2734V61.7814C447.074 60.5787 447.484 59.54 448.359 58.6654C449.288 57.736 450.381 57.326 451.639 57.4354C452.951 57.49 454.427 57.5174 456.067 57.5174C457.488 57.5174 458.308 57.3807 458.527 57.1074C458.8 56.834 458.937 55.85 458.937 54.1554V36.8534C458.937 36.3614 458.718 36.1154 458.281 36.1154H437.781ZM450.819 54.1554L449.179 55.0574C448.085 55.6587 446.91 55.768 445.653 55.3854C444.45 55.0027 443.548 54.2647 442.947 53.1714C441.853 51.2034 440.432 48.8527 438.683 46.1194C438.027 45.0807 437.835 43.96 438.109 42.7574C438.437 41.5 439.12 40.5707 440.159 39.9694L441.799 39.0674C442.947 38.4114 444.149 38.2474 445.407 38.5754C446.719 38.9034 447.757 39.614 448.523 40.7074C450.272 43.4407 451.693 45.7914 452.787 47.7594C453.388 48.9074 453.497 50.11 453.115 51.3674C452.732 52.6247 451.967 53.554 450.819 54.1554Z" fill="white"/>
<path d="M499.281 51.4494L498.133 44.7254C497.641 41.828 498.242 39.04 499.937 36.3614C504.146 29.8014 507.453 21.41 509.859 11.1874C510.132 9.93003 510.815 8.94603 511.909 8.23536C513.002 7.52469 514.177 7.27869 515.435 7.49736L518.223 7.98936C519.48 8.20803 520.464 8.83669 521.175 9.87536C521.94 10.914 522.213 12.062 521.995 13.3194C521.011 18.2394 519.726 22.886 518.141 27.2594C517.977 27.6967 517.895 28.134 517.895 28.5714V57.9274C517.895 58.0367 517.949 58.1187 518.059 58.1734C518.168 58.228 518.25 58.2007 518.305 58.0914C525.193 49.454 530.687 40.352 534.787 30.7854C535.005 30.348 534.869 30.1294 534.377 30.1294H524.783C523.525 30.1294 522.432 29.6647 521.503 28.7354C520.573 27.806 520.109 26.7127 520.109 25.4554V24.1434C520.109 22.886 520.573 21.7927 521.503 20.8634C522.432 19.934 523.525 19.4694 524.783 19.4694H540.527C541.019 19.4694 541.265 19.2234 541.265 18.7314V11.6794C541.265 10.422 541.729 9.32869 542.659 8.39936C543.588 7.47003 544.681 7.00536 545.939 7.00536H549.301C550.558 7.00536 551.651 7.47003 552.581 8.39936C553.51 9.32869 553.975 10.422 553.975 11.6794V18.7314C553.975 19.2234 554.193 19.4694 554.631 19.4694H571.523C572.78 19.4694 573.873 19.934 574.803 20.8634C575.732 21.7927 576.197 22.886 576.197 24.1434V25.4554C576.197 26.7127 575.732 27.806 574.803 28.7354C573.873 29.6647 572.78 30.1294 571.523 30.1294H560.945C560.453 30.1294 560.316 30.348 560.535 30.7854C564.143 39.532 569.063 48.0054 575.295 56.2054C577.153 58.6107 577.372 61.18 575.951 63.9134L573.573 68.3414C573.081 69.2707 572.288 69.7627 571.195 69.8174C570.156 69.872 569.336 69.462 568.735 68.5874C568.516 68.2594 567.587 66.838 565.947 64.3234C565.837 64.2687 565.728 64.3234 565.619 64.4874V64.9794C565.619 66.2367 565.154 67.33 564.225 68.2594C563.295 69.1887 562.202 69.6534 560.945 69.6534H554.631C554.193 69.6534 553.975 69.872 553.975 70.3094V77.2794C553.975 78.5367 553.51 79.63 552.581 80.5594C551.651 81.4887 550.558 81.9534 549.301 81.9534H545.939C544.681 81.9534 543.588 81.4887 542.659 80.5594C541.729 79.63 541.265 78.5367 541.265 77.2794V70.3094C541.265 69.872 541.019 69.6534 540.527 69.6534H534.049C532.791 69.6534 531.698 69.1887 530.769 68.2594C529.839 67.33 529.375 66.2367 529.375 64.9794V64.5694C529.375 64.46 529.32 64.4054 529.211 64.4054C529.101 64.3507 529.019 64.378 528.965 64.4874C527.762 66.346 526.833 67.74 526.177 68.6694C525.466 69.6534 524.509 70.1727 523.307 70.2274C522.104 70.282 521.12 69.872 520.355 68.9974L518.387 66.7014C518.277 66.592 518.168 66.5647 518.059 66.6194C517.949 66.674 517.895 66.756 517.895 66.8654V77.2794C517.895 78.5367 517.43 79.63 516.501 80.5594C515.626 81.4887 514.56 81.9534 513.303 81.9534H510.515C509.257 81.9534 508.164 81.4887 507.235 80.5594C506.305 79.63 505.841 78.5367 505.841 77.2794V48.7434C505.841 48.634 505.786 48.5794 505.677 48.5794C505.622 48.5794 505.567 48.6067 505.513 48.6614C504.802 49.8094 503.955 51.0667 502.971 52.4334C502.424 53.144 501.713 53.39 500.839 53.1714C499.964 52.9527 499.445 52.3787 499.281 51.4494ZM553.975 41.1994V58.9114C553.975 59.3487 554.193 59.5674 554.631 59.5674H562.339C562.503 59.5674 562.612 59.5127 562.667 59.4034C562.776 59.2394 562.803 59.1027 562.749 58.9934C559.469 53.2534 556.626 47.2947 554.221 41.1174C554.166 41.0627 554.111 41.0354 554.057 41.0354C554.002 41.0354 553.975 41.09 553.975 41.1994ZM532.327 58.9934C532.272 59.1027 532.272 59.2394 532.327 59.4034C532.436 59.5127 532.573 59.5674 532.737 59.5674H540.527C541.019 59.5674 541.265 59.3487 541.265 58.9114V41.2814C541.265 41.172 541.237 41.1174 541.183 41.1174C541.128 41.1174 541.073 41.1447 541.019 41.1994C538.395 47.7594 535.497 53.6907 532.327 58.9934Z" fill="white"/>
<path d="M10.3147 33.7374C9.05735 33.7374 7.99135 33.3 7.11669 32.4254C6.24202 31.496 5.80469 30.43 5.80469 29.2274V27.5874C5.80469 26.3847 6.24202 25.346 7.11669 24.4714C7.99135 23.542 9.05735 23.0774 10.3147 23.0774C10.752 23.0774 10.9707 22.8587 10.9707 22.4214V11.6794C10.9707 10.422 11.4354 9.32869 12.3647 8.39936C13.294 7.47003 14.3874 7.00536 15.6447 7.00536H18.7607C20.018 7.00536 21.1114 7.47003 22.0407 8.39936C22.97 9.32869 23.4347 10.422 23.4347 11.6794V22.4214C23.4347 22.8587 23.6534 23.0774 24.0907 23.0774H25.0747C26.332 23.0774 27.398 23.542 28.2727 24.4714C29.202 25.4007 29.6667 26.494 29.6667 27.7514V29.0634C29.6667 30.3207 29.202 31.414 28.2727 32.3434C27.398 33.2727 26.332 33.7374 25.0747 33.7374H24.0907C23.6534 33.7374 23.4347 33.9834 23.4347 34.4754V77.2794C23.4347 78.5367 22.97 79.63 22.0407 80.5594C21.1114 81.4887 20.018 81.9534 18.7607 81.9534H15.6447C14.3874 81.9534 13.294 81.4887 12.3647 80.5594C11.4354 79.63 10.9707 78.5367 10.9707 77.2794V34.3934C10.9707 33.956 10.752 33.7374 10.3147 33.7374ZM25.1567 77.5254C24.3367 76.5414 23.8994 75.366 23.8447 73.9994C23.8447 72.6874 24.2 71.4574 24.9107 70.3094C27.152 66.7014 28.5187 61.6994 29.0107 55.3034C29.0107 55.03 28.8467 54.8934 28.5187 54.8934C27.644 54.8934 26.8787 54.5927 26.2227 53.9914C25.6214 53.3354 25.3207 52.5427 25.3207 51.6134V48.4154C25.3207 47.4314 25.676 46.584 26.3867 45.8734C27.0974 45.1627 27.9447 44.8074 28.9287 44.8074C29.2567 44.8074 29.4207 44.616 29.4207 44.2334C29.4207 43.96 29.4207 43.5774 29.4207 43.0854C29.4754 42.5387 29.5027 42.1014 29.5027 41.7734C29.5027 40.9534 29.776 40.27 30.3227 39.7234C30.924 39.122 31.6347 38.8214 32.4547 38.8214C32.6734 38.8214 32.728 38.712 32.6187 38.4934L30.4867 35.7054C29.8307 34.776 29.6667 33.792 29.9947 32.7534C30.3227 31.7147 31.006 31.004 32.0447 30.6214C37.402 28.6534 41.256 25.9747 43.6067 22.5854C43.8254 22.2574 43.6887 22.0934 43.1967 22.0934H36.8007C35.5434 22.0934 34.45 21.6287 33.5207 20.6994C32.5914 19.77 32.1267 18.6767 32.1267 17.4194V16.3534C32.1267 15.096 32.5914 14.0027 33.5207 13.0734C34.45 12.144 35.5434 11.6794 36.8007 11.6794H46.5587C47.1054 11.6794 47.3787 11.4334 47.3787 10.9414V10.4494C47.488 9.13736 47.98 8.0167 48.8547 7.08736C49.784 6.15803 50.9047 5.69336 52.2167 5.69336H55.6607C56.918 5.69336 57.984 6.15803 58.8587 7.08736C59.788 8.0167 60.2254 9.11003 60.1707 10.3674C60.1707 10.4767 60.1434 10.586 60.0887 10.6954C60.0887 10.8047 60.0887 10.8867 60.0887 10.9414C60.0887 11.4334 60.3074 11.6794 60.7447 11.6794H75.9147C77.172 11.6794 78.2654 12.144 79.1947 13.0734C80.124 14.0027 80.5887 15.096 80.5887 16.3534C80.534 20.18 80.452 23.3234 80.3427 25.7834C80.2334 28.2434 79.9874 30.3754 79.6047 32.1794C79.222 33.9834 78.812 35.3774 78.3747 36.3614C77.9374 37.2907 77.2267 38.0287 76.2427 38.5754C75.3134 39.122 74.3567 39.45 73.3727 39.5594C72.4434 39.6687 71.1314 39.7234 69.4367 39.7234H69.2727C68.8354 39.7234 68.6167 39.9694 68.6167 40.4614V44.0694C68.6167 44.5614 68.8354 44.8074 69.2727 44.8074H77.7187C78.976 44.8074 80.0694 45.2994 80.9987 46.2834C81.928 47.2127 82.3927 48.306 82.3927 49.5634C82.3927 54.8114 82.338 59.13 82.2287 62.5194C82.174 65.854 82.01 68.7787 81.7367 71.2934C81.518 73.7534 81.272 75.5847 80.9987 76.7874C80.7254 77.99 80.2607 78.9467 79.6047 79.6574C78.9487 80.368 78.32 80.778 77.7187 80.8874C77.1174 81.0514 76.2154 81.1334 75.0127 81.1334C74.794 81.1334 72.9354 81.0787 69.4367 80.9694C68.1247 80.9147 67.004 80.4227 66.0747 79.4934C65.2 78.564 64.708 77.4434 64.5987 76.1314L64.4347 73.5894C64.4347 73.48 64.4074 73.4254 64.3527 73.4254C64.298 73.4254 64.2434 73.4527 64.1887 73.5074C63.478 75.202 62.5214 76.9514 61.3187 78.7554C60.608 79.7394 59.6514 80.2587 58.4487 80.3134C57.246 80.368 56.2347 79.9307 55.4147 79.0014L52.2167 75.4754C52.1074 75.366 51.998 75.3114 51.8887 75.3114C51.7794 75.366 51.6974 75.448 51.6427 75.5574C51.1507 77.9627 50.44 79.4934 49.5107 80.1494C48.636 80.8054 47.2694 81.1334 45.4107 81.1334C45.2467 81.1334 43.5794 81.0787 40.4087 80.9694C39.0967 80.86 37.9487 80.3407 36.9647 79.4114C36.0354 78.5367 35.5434 77.4434 35.4887 76.1314L35.3247 73.5894C35.3247 73.48 35.2974 73.4254 35.2427 73.4254C35.188 73.4254 35.1334 73.4527 35.0787 73.5074C34.368 75.202 33.4114 76.9514 32.2087 78.7554C31.5527 79.794 30.596 80.3134 29.3387 80.3134C28.0814 80.3134 27.07 79.8487 26.3047 78.9194L25.1567 77.5254ZM68.7807 54.8934C68.2887 54.8934 68.0427 55.112 68.0427 55.5494C67.6054 60.688 66.8127 65.2527 65.6647 69.2434C65.5554 69.7354 65.7467 69.9814 66.2387 69.9814C67.332 70.0907 68.48 70.1454 69.6827 70.1454C70.0654 70.1454 70.3387 70.0634 70.5027 69.8994C70.6667 69.6807 70.8307 69.1067 70.9947 68.1774C71.1587 67.1934 71.268 65.7447 71.3227 63.8314C71.3774 61.8634 71.4047 59.1027 71.4047 55.5494C71.4047 55.112 71.1587 54.8934 70.6667 54.8934H68.7807ZM54.1027 28.6534C53.8294 29.0907 53.9114 29.3094 54.3487 29.3094C59.214 29.528 62.4667 29.6374 64.1067 29.6374C65.364 29.6374 66.1294 29.3094 66.4027 28.6534C66.7307 27.9427 66.8947 25.9747 66.8947 22.7494C66.8947 22.312 66.676 22.0934 66.2387 22.0934H58.4487C57.9567 22.0934 57.6287 22.312 57.4647 22.7494C56.59 24.772 55.4694 26.74 54.1027 28.6534ZM39.5067 40.4614V44.0694C39.5067 44.5614 39.7254 44.8074 40.1627 44.8074H48.1167C49.374 44.8074 50.4674 45.272 51.3967 46.2014C52.326 47.076 52.7907 48.142 52.7907 49.3994C52.7907 60.2234 52.572 67.7127 52.1347 71.8674C52.1347 72.1954 52.244 72.25 52.4627 72.0314C54.048 69.8994 55.2234 67.6034 55.9887 65.1434C56.8087 62.6287 57.41 59.3487 57.7927 55.3034C57.7927 55.03 57.6287 54.8934 57.3007 54.8934C56.4807 54.8934 55.77 54.5927 55.1687 53.9914C54.5674 53.39 54.2667 52.6794 54.2667 51.8594V48.2514C54.2667 47.322 54.5947 46.5294 55.2507 45.8734C55.9614 45.1627 56.7814 44.8074 57.7107 44.8074C58.0387 44.8074 58.2027 44.616 58.2027 44.2334C58.2027 43.796 58.2027 43.14 58.2027 42.2654C58.2574 41.3907 58.2847 40.7074 58.2847 40.2154C58.2847 39.7234 58.0934 39.4774 57.7107 39.4774C56.4534 39.4227 55.3874 38.9854 54.5127 38.1654C53.638 37.3454 53.146 36.334 53.0367 35.1314L52.6267 31.2774C52.6267 31.168 52.5447 31.086 52.3807 31.0314C52.2714 30.922 52.1894 30.922 52.1347 31.0314C49.128 34.3114 45.1374 37.1267 40.1627 39.4774C39.7254 39.6414 39.5067 39.9694 39.5067 40.4614ZM36.5547 69.2434C36.5 69.4074 36.5274 69.5714 36.6367 69.7354C36.8007 69.8994 36.9647 69.9814 37.1287 69.9814C38.222 70.0907 39.3427 70.1454 40.4907 70.1454C40.8734 70.1454 41.1467 70.0634 41.3107 69.8994C41.4747 69.7354 41.6387 69.1614 41.8027 68.1774C41.9667 67.1934 42.0487 65.7447 42.0487 63.8314C42.1034 61.918 42.1307 59.1574 42.1307 55.5494C42.1307 55.112 41.8847 54.8934 41.3927 54.8934H39.6707C39.1787 54.8934 38.9327 55.112 38.9327 55.5494C38.4954 60.688 37.7027 65.2527 36.5547 69.2434Z" stroke="black" stroke-width="10" mask="url(#path-1-outside-1_1164_6467)"/>
<path d="M96.9887 30.2934C95.7314 30.2934 94.638 29.8287 93.7087 28.8994C92.834 27.97 92.3967 26.8767 92.3967 25.6194V23.5694C92.3967 22.312 92.834 21.2187 93.7087 20.2894C94.638 19.36 95.7314 18.8954 96.9887 18.8954H112.569C113.061 18.8954 113.307 18.6767 113.307 18.2394C113.416 15.178 113.471 12.8 113.471 11.1054C113.471 9.79336 113.908 8.70003 114.783 7.82536C115.712 6.89603 116.833 6.43136 118.145 6.43136H122.245C123.502 6.43136 124.568 6.89603 125.443 7.82536C126.372 8.70003 126.837 9.76603 126.837 11.0234C126.837 12.718 126.782 15.096 126.673 18.1574C126.673 18.6494 126.891 18.8954 127.329 18.8954H155.373C156.63 18.8954 157.696 19.36 158.571 20.2894C159.5 21.164 159.965 22.23 159.965 23.4874C159.91 32.562 159.801 40.106 159.637 46.1194C159.473 52.1327 159.09 57.326 158.489 61.6994C157.942 66.0727 157.313 69.4347 156.603 71.7854C155.947 74.0814 154.908 75.8854 153.487 77.1974C152.12 78.564 150.726 79.4114 149.305 79.7394C147.883 80.0674 145.943 80.2314 143.483 80.2314C142.007 80.2314 137.579 79.958 130.199 79.4114C128.887 79.302 127.766 78.7554 126.837 77.7714C125.962 76.842 125.497 75.7214 125.443 74.4094L125.361 71.7034C125.306 70.446 125.716 69.4074 126.591 68.5874C127.52 67.7674 128.586 67.412 129.789 67.5214C134.217 67.9587 137.715 68.1774 140.285 68.1774C141.378 68.1774 142.253 67.7947 142.909 67.0294C143.565 66.2094 144.193 64.542 144.795 62.0274C145.396 59.5127 145.833 55.7407 146.107 50.7114C146.38 45.6274 146.544 39.04 146.599 30.9494C146.599 30.512 146.38 30.2934 145.943 30.2934H126.591C126.099 30.2934 125.853 30.512 125.853 30.9494C124.705 42.5387 122.409 51.9687 118.965 59.2394C115.575 66.51 110.628 73.0427 104.123 78.8374C103.139 79.712 101.991 80.0947 100.679 79.9854C99.4214 79.876 98.3554 79.3294 97.4807 78.3454L94.6927 75.2294C93.8727 74.3 93.5174 73.2067 93.6267 71.9494C93.7907 70.6374 94.3374 69.5714 95.2667 68.7514C100.405 64.214 104.287 59.1027 106.911 53.4174C109.589 47.732 111.421 40.27 112.405 31.0314C112.514 30.5394 112.323 30.2934 111.831 30.2934H96.9887Z" stroke="black" stroke-width="10" mask="url(#path-1-outside-1_1164_6467)"/>
<path d="M172.593 36.1974L171.609 34.0654C171.062 32.8627 171.007 31.6327 171.445 30.3754C171.882 29.118 172.675 28.1887 173.823 27.5874C182.843 22.6674 190.906 16.9274 198.013 10.3674C200.254 8.29003 202.905 7.25136 205.967 7.25136H213.347C216.408 7.25136 219.087 8.31736 221.383 10.4494C228.489 17.0094 236.553 22.7494 245.573 27.6694C246.721 28.2707 247.486 29.2 247.869 30.4574C248.306 31.66 248.251 32.8627 247.705 34.0654L246.721 36.1974C246.174 37.3454 245.299 38.138 244.097 38.5754C242.949 38.958 241.828 38.876 240.735 38.3294C229.145 32.2067 218.95 24.7447 210.149 15.9434C209.821 15.6154 209.493 15.6154 209.165 15.9434C200.363 24.7447 190.168 32.2067 178.579 38.3294C177.485 38.876 176.337 38.958 175.135 38.5754C173.987 38.138 173.139 37.3454 172.593 36.1974ZM189.321 39.0674C190.578 39.0674 191.671 39.532 192.601 40.4614C193.53 41.3907 193.995 42.484 193.995 43.7414V68.6694C193.995 69.1067 194.241 69.3254 194.733 69.3254H204.491C204.983 69.3254 205.229 69.1067 205.229 68.6694V29.6374C205.229 28.38 205.693 27.2867 206.623 26.3574C207.552 25.428 208.645 24.9634 209.903 24.9634H213.593C214.85 24.9634 215.943 25.428 216.873 26.3574C217.802 27.2867 218.267 28.38 218.267 29.6374V42.8394C218.267 43.2767 218.513 43.4954 219.005 43.4954H238.275C239.532 43.4954 240.625 43.96 241.555 44.8894C242.484 45.8187 242.949 46.912 242.949 48.1694V49.5634C242.949 50.8207 242.484 51.914 241.555 52.8434C240.625 53.718 239.532 54.1554 238.275 54.1554H219.005C218.513 54.1554 218.267 54.4014 218.267 54.8934V68.6694C218.267 69.1067 218.513 69.3254 219.005 69.3254H242.293C243.55 69.3254 244.643 69.79 245.573 70.7194C246.502 71.6487 246.967 72.742 246.967 73.9994V75.7214C246.967 76.9787 246.502 78.072 245.573 79.0014C244.643 79.9307 243.55 80.3954 242.293 80.3954H177.021C175.763 80.3954 174.67 79.9307 173.741 79.0014C172.811 78.072 172.347 76.9787 172.347 75.7214V73.9994C172.347 72.742 172.811 71.6487 173.741 70.7194C174.67 69.79 175.763 69.3254 177.021 69.3254H180.629C181.066 69.3254 181.285 69.1067 181.285 68.6694V43.7414C181.285 42.484 181.749 41.3907 182.679 40.4614C183.608 39.532 184.701 39.0674 185.959 39.0674H189.321Z" stroke="black" stroke-width="10" mask="url(#path-1-outside-1_1164_6467)"/>
<path d="M255.413 77.5254L254.429 75.6394C253.882 74.6554 253.827 73.644 254.265 72.6054C254.757 71.5667 255.549 70.9107 256.643 70.6374C263.257 69.1067 269.298 67.412 274.765 65.5534C274.765 65.4987 274.71 65.4167 274.601 65.3074H260.661C259.403 65.3074 258.31 64.87 257.381 63.9954C256.451 63.066 255.987 61.9727 255.987 60.7154V60.4694C255.987 59.212 256.451 58.1187 257.381 57.1894C258.31 56.26 259.403 55.7954 260.661 55.7954H284.277C284.714 55.7954 284.933 55.5767 284.933 55.1394V53.9914C284.933 53.554 284.714 53.3354 284.277 53.3354H263.613C262.465 53.3354 261.481 52.9254 260.661 52.1054C259.841 51.2307 259.431 50.2194 259.431 49.0714C259.431 47.9234 259.841 46.9394 260.661 46.1194C261.481 45.2994 262.465 44.8894 263.613 44.8894H284.277C284.714 44.8894 284.933 44.6434 284.933 44.1514V43.0854C284.933 42.5934 284.714 42.3474 284.277 42.3474H261.153C259.95 42.3474 258.911 41.9374 258.037 41.1174C257.217 40.2974 256.807 39.286 256.807 38.0834C256.807 36.8807 257.217 35.8694 258.037 35.0494C258.911 34.1747 259.95 33.7374 261.153 33.7374H270.173C270.61 33.7374 270.774 33.4914 270.665 32.9994L268.697 28.0794C268.533 27.642 268.232 27.4234 267.795 27.4234H259.841C258.583 27.4234 257.49 26.986 256.561 26.1114C255.631 25.182 255.167 24.0887 255.167 22.8314V21.7654C255.167 20.508 255.631 19.4147 256.561 18.4854C257.49 17.556 258.583 17.0914 259.841 17.0914H261.809C261.973 17.0914 262.082 17.0367 262.137 16.9274C262.246 16.7634 262.273 16.6267 262.219 16.5174C262.109 16.3534 261.973 16.08 261.809 15.6974C261.645 15.3147 261.508 15.0414 261.399 14.8774C260.797 13.8387 260.715 12.7727 261.153 11.6794C261.59 10.586 262.383 9.87536 263.531 9.54736L265.253 9.05536C266.565 8.6727 267.849 8.72736 269.107 9.21936C270.364 9.71136 271.321 10.5314 271.977 11.6794C272.141 12.0074 272.523 12.718 273.125 13.8114C273.726 14.9047 274.191 15.7794 274.519 16.4354C274.683 16.8727 275.011 17.0914 275.503 17.0914H277.225C277.662 17.0914 277.881 16.8454 277.881 16.3534V11.1874C277.881 9.93003 278.345 8.86403 279.275 7.98936C280.204 7.06003 281.297 6.59536 282.555 6.59536H284.605C285.862 6.59536 286.955 7.06003 287.885 7.98936C288.814 8.86403 289.279 9.93003 289.279 11.1874V16.3534C289.279 16.8454 289.497 17.0914 289.935 17.0914H293.379C293.816 17.0914 294.035 16.8454 294.035 16.3534V11.1874C294.035 9.93003 294.499 8.86403 295.429 7.98936C296.358 7.06003 297.451 6.59536 298.709 6.59536H300.759C302.016 6.59536 303.082 7.06003 303.957 7.98936C304.886 8.86403 305.351 9.93003 305.351 11.1874V16.3534C305.351 16.8454 305.597 17.0914 306.089 17.0914H308.303C308.74 17.0914 309.095 16.8727 309.369 16.4354C309.642 15.9434 310.407 14.44 311.665 11.9254C312.266 10.7227 313.168 9.82069 314.371 9.21936C315.573 8.61803 316.831 8.45403 318.143 8.72736L319.701 9.13736C320.903 9.4107 321.751 10.094 322.243 11.1874C322.789 12.2807 322.789 13.374 322.243 14.4674L321.259 16.4354C321.04 16.8727 321.177 17.0914 321.669 17.0914H323.473C324.73 17.0914 325.823 17.556 326.753 18.4854C327.682 19.4147 328.147 20.508 328.147 21.7654V22.8314C328.147 24.0887 327.682 25.182 326.753 26.1114C325.823 26.986 324.73 27.4234 323.473 27.4234H316.011C315.573 27.4234 315.245 27.6694 315.027 28.1614C314.261 30.0747 313.578 31.742 312.977 33.1634C312.922 33.2727 312.949 33.4094 313.059 33.5734C313.168 33.6827 313.305 33.7374 313.469 33.7374H322.161C323.363 33.7374 324.375 34.1747 325.195 35.0494C326.069 35.8694 326.507 36.8807 326.507 38.0834C326.507 39.286 326.069 40.2974 325.195 41.1174C324.375 41.9374 323.363 42.3474 322.161 42.3474H299.037C298.599 42.3474 298.381 42.5934 298.381 43.0854V44.1514C298.381 44.6434 298.599 44.8894 299.037 44.8894H319.701C320.849 44.8894 321.833 45.2994 322.653 46.1194C323.473 46.9394 323.883 47.9234 323.883 49.0714C323.883 50.2194 323.473 51.2307 322.653 52.1054C321.833 52.9254 320.849 53.3354 319.701 53.3354H299.037C298.599 53.3354 298.381 53.554 298.381 53.9914V55.1394C298.381 55.5767 298.599 55.7954 299.037 55.7954H322.653C323.91 55.7954 325.003 56.26 325.933 57.1894C326.862 58.1187 327.327 59.212 327.327 60.4694V60.7154C327.327 61.9727 326.862 63.066 325.933 63.9954C325.003 64.87 323.91 65.3074 322.653 65.3074H308.713C308.658 65.362 308.658 65.444 308.713 65.5534C313.851 67.3027 319.865 68.9974 326.753 70.6374C327.846 70.856 328.611 71.512 329.049 72.6054C329.541 73.644 329.486 74.6554 328.885 75.6394L327.901 77.5254C327.245 78.728 326.261 79.5754 324.949 80.0674C323.691 80.5594 322.407 80.614 321.095 80.2314C312.676 77.6074 305.323 74.628 299.037 71.2934C298.599 71.0747 298.381 71.184 298.381 71.6214V77.2794C298.381 78.5367 297.916 79.63 296.987 80.5594C296.057 81.4887 294.964 81.9534 293.707 81.9534H289.607C288.349 81.9534 287.256 81.4887 286.327 80.5594C285.397 79.63 284.933 78.5367 284.933 77.2794V71.6214C284.933 71.4574 284.851 71.348 284.687 71.2934C284.577 71.184 284.468 71.1567 284.359 71.2114C278.291 74.4914 270.911 77.498 262.219 80.2314C260.907 80.614 259.595 80.5594 258.283 80.0674C257.025 79.5754 256.069 78.728 255.413 77.5254ZM284.687 33.7374H298.791C299.337 33.7374 299.693 33.5187 299.857 33.0814C300.513 31.824 301.223 30.1567 301.989 28.0794C302.098 27.642 301.961 27.4234 301.579 27.4234H282.309C281.926 27.4234 281.789 27.642 281.899 28.0794C282.336 29.1727 282.937 30.8127 283.703 32.9994C283.921 33.4914 284.249 33.7374 284.687 33.7374Z" stroke="black" stroke-width="10" mask="url(#path-1-outside-1_1164_6467)"/>
<path d="M369.557 52.5154C368.299 52.5154 367.206 52.078 366.277 51.2034C365.402 50.274 364.965 49.1807 364.965 47.9234V41.0354C364.965 39.778 365.402 38.712 366.277 37.8374C367.206 36.908 368.299 36.4434 369.557 36.4434H376.445C377.702 36.4434 378.768 36.908 379.643 37.8374C380.572 38.712 381.037 39.778 381.037 41.0354V47.9234C381.037 49.1807 380.572 50.274 379.643 51.2034C378.768 52.078 377.702 52.5154 376.445 52.5154H369.557Z" stroke="black" stroke-width="10" mask="url(#path-1-outside-1_1164_6467)"/>
<path d="M423.349 81.9534C422.091 81.9534 420.998 81.4887 420.069 80.5594C419.194 79.63 418.757 78.5367 418.757 77.2794V12.7454C418.757 11.488 419.194 10.422 420.069 9.54736C420.998 8.61803 422.091 8.15336 423.349 8.15336H486.653C487.91 8.15336 488.976 8.61803 489.851 9.54736C490.78 10.422 491.245 11.488 491.245 12.7454V77.2794C491.245 78.5367 490.78 79.63 489.851 80.5594C488.976 81.4887 487.91 81.9534 486.653 81.9534H481.487C480.776 81.9534 480.147 81.68 479.601 81.1334C479.109 80.6414 478.863 80.0127 478.863 79.2474C478.863 78.974 478.726 78.8374 478.453 78.8374H431.549C431.275 78.8374 431.139 78.974 431.139 79.2474C431.139 80.0127 430.865 80.6414 430.319 81.1334C429.827 81.68 429.225 81.9534 428.515 81.9534H423.349ZM431.139 18.5674V68.7514C431.139 69.1887 431.385 69.4074 431.877 69.4074H478.125C478.617 69.4074 478.863 69.1887 478.863 68.7514V18.5674C478.863 18.13 478.617 17.9114 478.125 17.9114H431.877C431.385 17.9114 431.139 18.13 431.139 18.5674ZM437.781 36.1154C436.523 36.1154 435.43 35.678 434.501 34.8034C433.571 33.874 433.107 32.7807 433.107 31.5234V30.7854C433.107 29.528 433.571 28.4347 434.501 27.5054C435.43 26.576 436.523 26.1114 437.781 26.1114H458.281C458.718 26.1114 458.937 25.8654 458.937 25.3734V24.3074C458.937 23.05 459.401 21.984 460.331 21.1094C461.26 20.18 462.353 19.7154 463.611 19.7154H466.645C467.902 19.7154 468.995 20.18 469.925 21.1094C470.854 21.984 471.319 23.05 471.319 24.3074V25.3734C471.319 25.8654 471.565 26.1114 472.057 26.1114H472.221C473.478 26.1114 474.571 26.576 475.501 27.5054C476.43 28.4347 476.895 29.528 476.895 30.7854V31.5234C476.895 32.7807 476.43 33.874 475.501 34.8034C474.571 35.678 473.478 36.1154 472.221 36.1154H472.057C471.565 36.1154 471.319 36.3614 471.319 36.8534V52.0234C471.319 54.6474 471.291 56.6974 471.237 58.1734C471.182 59.6494 470.991 61.0434 470.663 62.3554C470.389 63.6127 470.061 64.5147 469.679 65.0614C469.351 65.608 468.722 66.1 467.793 66.5374C466.863 66.92 465.907 67.1387 464.923 67.1934C463.939 67.248 462.517 67.2754 460.659 67.2754C457.324 67.2754 454.427 67.2207 451.967 67.1114C450.655 67.0567 449.534 66.5647 448.605 65.6354C447.675 64.706 447.183 63.5854 447.129 62.2734V61.7814C447.074 60.5787 447.484 59.54 448.359 58.6654C449.288 57.736 450.381 57.326 451.639 57.4354C452.951 57.49 454.427 57.5174 456.067 57.5174C457.488 57.5174 458.308 57.3807 458.527 57.1074C458.8 56.834 458.937 55.85 458.937 54.1554V36.8534C458.937 36.3614 458.718 36.1154 458.281 36.1154H437.781ZM450.819 54.1554L449.179 55.0574C448.085 55.6587 446.91 55.768 445.653 55.3854C444.45 55.0027 443.548 54.2647 442.947 53.1714C441.853 51.2034 440.432 48.8527 438.683 46.1194C438.027 45.0807 437.835 43.96 438.109 42.7574C438.437 41.5 439.12 40.5707 440.159 39.9694L441.799 39.0674C442.947 38.4114 444.149 38.2474 445.407 38.5754C446.719 38.9034 447.757 39.614 448.523 40.7074C450.272 43.4407 451.693 45.7914 452.787 47.7594C453.388 48.9074 453.497 50.11 453.115 51.3674C452.732 52.6247 451.967 53.554 450.819 54.1554Z" stroke="black" stroke-width="10" mask="url(#path-1-outside-1_1164_6467)"/>
<path d="M499.281 51.4494L498.133 44.7254C497.641 41.828 498.242 39.04 499.937 36.3614C504.146 29.8014 507.453 21.41 509.859 11.1874C510.132 9.93003 510.815 8.94603 511.909 8.23536C513.002 7.52469 514.177 7.27869 515.435 7.49736L518.223 7.98936C519.48 8.20803 520.464 8.83669 521.175 9.87536C521.94 10.914 522.213 12.062 521.995 13.3194C521.011 18.2394 519.726 22.886 518.141 27.2594C517.977 27.6967 517.895 28.134 517.895 28.5714V57.9274C517.895 58.0367 517.949 58.1187 518.059 58.1734C518.168 58.228 518.25 58.2007 518.305 58.0914C525.193 49.454 530.687 40.352 534.787 30.7854C535.005 30.348 534.869 30.1294 534.377 30.1294H524.783C523.525 30.1294 522.432 29.6647 521.503 28.7354C520.573 27.806 520.109 26.7127 520.109 25.4554V24.1434C520.109 22.886 520.573 21.7927 521.503 20.8634C522.432 19.934 523.525 19.4694 524.783 19.4694H540.527C541.019 19.4694 541.265 19.2234 541.265 18.7314V11.6794C541.265 10.422 541.729 9.32869 542.659 8.39936C543.588 7.47003 544.681 7.00536 545.939 7.00536H549.301C550.558 7.00536 551.651 7.47003 552.581 8.39936C553.51 9.32869 553.975 10.422 553.975 11.6794V18.7314C553.975 19.2234 554.193 19.4694 554.631 19.4694H571.523C572.78 19.4694 573.873 19.934 574.803 20.8634C575.732 21.7927 576.197 22.886 576.197 24.1434V25.4554C576.197 26.7127 575.732 27.806 574.803 28.7354C573.873 29.6647 572.78 30.1294 571.523 30.1294H560.945C560.453 30.1294 560.316 30.348 560.535 30.7854C564.143 39.532 569.063 48.0054 575.295 56.2054C577.153 58.6107 577.372 61.18 575.951 63.9134L573.573 68.3414C573.081 69.2707 572.288 69.7627 571.195 69.8174C570.156 69.872 569.336 69.462 568.735 68.5874C568.516 68.2594 567.587 66.838 565.947 64.3234C565.837 64.2687 565.728 64.3234 565.619 64.4874V64.9794C565.619 66.2367 565.154 67.33 564.225 68.2594C563.295 69.1887 562.202 69.6534 560.945 69.6534H554.631C554.193 69.6534 553.975 69.872 553.975 70.3094V77.2794C553.975 78.5367 553.51 79.63 552.581 80.5594C551.651 81.4887 550.558 81.9534 549.301 81.9534H545.939C544.681 81.9534 543.588 81.4887 542.659 80.5594C541.729 79.63 541.265 78.5367 541.265 77.2794V70.3094C541.265 69.872 541.019 69.6534 540.527 69.6534H534.049C532.791 69.6534 531.698 69.1887 530.769 68.2594C529.839 67.33 529.375 66.2367 529.375 64.9794V64.5694C529.375 64.46 529.32 64.4054 529.211 64.4054C529.101 64.3507 529.019 64.378 528.965 64.4874C527.762 66.346 526.833 67.74 526.177 68.6694C525.466 69.6534 524.509 70.1727 523.307 70.2274C522.104 70.282 521.12 69.872 520.355 68.9974L518.387 66.7014C518.277 66.592 518.168 66.5647 518.059 66.6194C517.949 66.674 517.895 66.756 517.895 66.8654V77.2794C517.895 78.5367 517.43 79.63 516.501 80.5594C515.626 81.4887 514.56 81.9534 513.303 81.9534H510.515C509.257 81.9534 508.164 81.4887 507.235 80.5594C506.305 79.63 505.841 78.5367 505.841 77.2794V48.7434C505.841 48.634 505.786 48.5794 505.677 48.5794C505.622 48.5794 505.567 48.6067 505.513 48.6614C504.802 49.8094 503.955 51.0667 502.971 52.4334C502.424 53.144 501.713 53.39 500.839 53.1714C499.964 52.9527 499.445 52.3787 499.281 51.4494ZM553.975 41.1994V58.9114C553.975 59.3487 554.193 59.5674 554.631 59.5674H562.339C562.503 59.5674 562.612 59.5127 562.667 59.4034C562.776 59.2394 562.803 59.1027 562.749 58.9934C559.469 53.2534 556.626 47.2947 554.221 41.1174C554.166 41.0627 554.111 41.0354 554.057 41.0354C554.002 41.0354 553.975 41.09 553.975 41.1994ZM532.327 58.9934C532.272 59.1027 532.272 59.2394 532.327 59.4034C532.436 59.5127 532.573 59.5674 532.737 59.5674H540.527C541.019 59.5674 541.265 59.3487 541.265 58.9114V41.2814C541.265 41.172 541.237 41.1174 541.183 41.1174C541.128 41.1174 541.073 41.1447 541.019 41.1994C538.395 47.7594 535.497 53.6907 532.327 58.9934Z" stroke="black" stroke-width="10" mask="url(#path-1-outside-1_1164_6467)"/>
</svg>
