<svg xmlns="http://www.w3.org/2000/svg" version="1.1" xmlns:xlink="http://www.w3.org/1999/xlink" xmlns:svgjs="http://svgjs.dev/svgjs" width="314.5" height="443.5"><svg id="SvgjsSvg1006" data-name="レイヤー 1" xmlns="http://www.w3.org/2000/svg" version="1.1" viewBox="0 0 314.5 443.5">
  <defs>
    <style>
      .cls-1 {
        fill: #231815;
      }

      .cls-1, .cls-2, .cls-3, .cls-4 {
        stroke-width: 0px;
      }

      .cls-2 {
        fill: #e60020;
      }

      .cls-3 {
        fill: #fff;
      }

      .cls-4 {
        fill: #000;
        fill-rule: evenodd;
      }
    </style>
  </defs>
  <path class="cls-3" d="M10,223.3c0-12.1,3.9-24.4,11.7-36.8,7.8-12.5,19.2-22.9,34.1-31.1,15-8.2,32.4-12.3,52.4-12.3s34.9,3.5,49.1,10.4c14.2,6.8,25.1,16,32.8,27.8,7.8,11.8,11.7,24.6,11.7,38.4s-2.2,20.4-6.7,28.6c-4.3,8.2-9.6,15.3-15.7,21.3-6,5.9-16.9,15.9-32.6,29.9-4.3,4-7.9,7.5-10.6,10.6-2.6,2.9-4.5,5.7-5.8,8.2-1.3,2.4-2.3,4.9-3.1,7.5-.6,2.4-1.7,6.8-3.1,13-2.4,13.3-10,20-22.8,20s-12.3-2.2-16.9-6.5c-4.5-4.3-6.7-10.8-6.7-19.4s1.7-20,5-27.8c3.3-7.9,7.7-14.8,13.2-20.7,5.5-6,12.9-13.1,22.3-21.3,8.2-7.2,14.1-12.5,17.6-16.1,3.7-3.7,6.8-7.8,9.2-12.3,2.6-4.5,3.8-9.3,3.8-14.6,0-10.2-3.8-18.9-11.5-25.9-7.5-7-17.3-10.6-29.4-10.6s-24.4,3.6-31.1,10.7c-6.7,7-12.3,17.5-16.9,31.3-4.3,14.5-12.6,21.7-24.7,21.7s-13.2-2.5-18.2-7.5c-4.9-5.1-7.3-10.6-7.3-16.5ZM103.6,433.5c-7.8,0-14.6-2.5-20.5-7.5-5.8-5.1-8.6-12.2-8.6-21.3s2.8-14.8,8.4-20.3c5.6-5.5,12.5-8.2,20.7-8.2s14.8,2.8,20.3,8.2c5.5,5.5,8.2,12.3,8.2,20.3s-2.9,16-8.6,21.1c-5.8,5.1-12.4,7.7-20,7.7Z"></path>
  <path class="cls-4" d="M186.4,276.6h0c-6.2,6.1-17.2,16.2-32.9,30.2-4.2,3.8-7.4,7-9.7,9.7-2.2,2.5-3.6,4.6-4.3,6.1h0c0,0,0,.2,0,.2-1,1.8-1.7,3.7-2.3,5.5-.6,2.2-1.5,6.3-2.9,12.3-1.5,8-4.8,15.3-10.7,20.5-3.2,2.8-6.8,4.7-10.7,5.9,6.9,1.6,13.1,5,18.3,10.2,7.4,7.4,11.2,16.8,11.2,27.4s-3.7,21.2-12,28.6c-7.5,6.7-16.5,10.2-26.6,10.2s-19.3-3.3-27-9.9h0c0,0,0-.2,0-.2-8.3-7.4-12-17.4-12-28.8s3.8-20.1,11.5-27.5c4.8-4.7,10.4-7.9,16.6-9.6-5.5-1.4-10.5-4.1-14.8-8.2h0s0,0,0,0c-7-6.8-9.7-16.3-9.7-26.5s1.8-22.4,5.8-31.7c3.7-8.9,8.8-16.8,15.1-23.6,5.8-6.4,13.5-13.7,23-22h0c8.2-7.1,13.8-12.3,17.2-15.7,3-3,5.5-6.4,7.5-10h0c0,0,0-.2,0-.2,1.7-2.9,2.5-6.1,2.5-9.6,0-7.4-2.6-13.3-8.3-18.5h0s0,0,0,0c-5.4-5-12.6-7.9-22.5-7.9s-19.7,3.2-23.7,7.5h0s0,0,0,0c-5.3,5.6-10.3,14.4-14.6,27.4-2.5,8.3-6.5,15.5-12.4,20.8-6.1,5.4-13.7,7.9-21.9,7.9s-18.4-3.5-25.3-10.4h0c0,0,0-.2,0-.2-6.3-6.6-10-14.4-10-23.4,0-14.4,4.6-28.5,13.2-42.1,8.8-14.2,21.6-25.7,37.8-34.5,16.7-9.1,35.8-13.5,57.2-13.5s37.7,3.7,53.4,11.4c15.6,7.5,28,17.9,36.8,31.3,8.8,13.4,13.3,28,13.3,43.9s-2.5,23.5-7.9,33.3c-4.8,9-10.6,16.9-17.5,23.7ZM195.1,248.2c4.5-8.2,6.7-17.7,6.7-28.6s-3.9-26.6-11.7-38.4c-7.7-11.8-18.6-21-32.8-27.8-14.2-6.9-30.6-10.4-49.1-10.4s-37.4,4.1-52.4,12.3c-15,8.2-26.3,18.5-34.1,31.1-7.8,12.4-11.7,24.7-11.7,36.8s2.4,11.4,7.3,16.5c5,5,11.1,7.5,18.2,7.5,12.1,0,20.4-7.2,24.7-21.7,4.6-13.8,10.2-24.2,16.9-31.3,6.6-7.2,17-10.7,31.1-10.7s21.8,3.5,29.4,10.6c7.7,7,11.5,15.7,11.5,25.9s-1.3,10.1-3.8,14.6c-2.4,4.5-5.5,8.6-9.2,12.3-3.6,3.6-9.5,9-17.6,16.1-9.3,8.2-16.8,15.3-22.3,21.3-5.5,5.9-9.9,12.8-13.2,20.7-3.3,7.8-5,17.1-5,27.8s2.2,15,6.7,19.4c4.6,4.3,10.2,6.5,16.9,6.5,12.8,0,20.4-6.6,22.8-20,1.4-6.3,2.4-10.6,3.1-13,.8-2.6,1.8-5.1,3.1-7.5,1.3-2.6,3.2-5.3,5.8-8.2,2.7-3.1,6.2-6.6,10.6-10.6,15.7-14.1,26.6-24,32.6-29.9,6.1-6,11.4-13.1,15.7-21.3ZM83.1,426c5.9,5,12.7,7.5,20.5,7.5s14.2-2.6,20-7.7c5.8-5.1,8.6-12.1,8.6-21.1s-2.8-14.8-8.2-20.3c-5.5-5.5-12.3-8.2-20.3-8.2s-15.1,2.8-20.7,8.2c-5.6,5.5-8.4,12.3-8.4,20.3s2.9,16.2,8.6,21.3Z"></path>
  <path class="cls-1" d="M307.8,167.5c4.9-14.1,11-31.6,2.6-46.7-4.7-9.8-24.2-15.8-24.2-15.8-16.4-2.8-34.8-5.4-51.5-2.9-2.5,0-5,1-7.1-1-6.8-12.6-19.7-20.7-33.3-22.4-3.8-1-8-.5-11.4-2.3-2-3-2-7.2-5-16.9-3-9.8-8.1-18.7-8.5-19.1C155.5,16.5,133.6,1.4,110.9,0h-.8c-13.8,0-26.4,7.5-33,19.4-6.6,9.8-10.9,20.6-15,31-1.5,3.8-17.6,51.9-12.4,85.4,2,11.6,10.9,23.8,22.7,26.5,19.4,3.8,39.4,0,57-5,2-.6,4.5-2.1,6.8-.8,10.4,15.9,27,25.7,46,25.7.8.5,1.5.8,2,1.5,7.3,19.7,16.2,43.9,38.3,52,26,7.3,46.4-13.9,61-32.8,5-5,10.8-12.7,15.1-19.4,5.6-8.8,9-16.2,9-16.2h0Z"></path>
  <path class="cls-2" d="M61.4,117.5c-.2,10.9.3,22.2,10.1,28.3,18.7,9.1,40.6,2.3,58.3-4.3,2.5-1.5,2-4.3,2-7-.8-4.1,2-8.6-1.8-11.4-7.6-1.5-15.1-7-16.9-14.9-2.5-9.6.8-19.2,8.3-25.3,9.4-5,22.2-2.3,30.3,4.1,4.5.3,7.6-4.1,11.6-5.6,1.8-.5,4.3-1.2,4.8-3.5-2.3-16.2-9.4-28.2-19.2-40.8-8.3-11.1-19.7-17.1-31.5-20.4-10.7-2.3-20.7.8-27,9.8-6.3,8.8-10.1,18.7-14.4,28.5-5.8,21.2-12.9,39.5-14.7,62.5h0Z"></path>
  <path class="cls-2" d="M129,91.2c-1.8.8-3.8,1.8-4.8,3.5-2.5,5.3-2.3,12.7,3.2,16.2,2.3,1,4.3,2.5,6.8,2.1,3.8-3.8,5-8.5,8-12.6.8-1.7,2.5-3,2-5-3.8-4.1-9.8-5.3-15.4-4.1h.1Z"></path>
  <path class="cls-2" d="M215.8,169c-5.8,4.8-12.1,8.3-18.2,12.4-.5.8-.5,2.3,0,3.2,4.5,10.9,9.1,22,17.2,31.3,8,6.1,17.9,10.1,28.3,7.1,19.2-7.4,30.5-25.9,42.1-41.8,7.4-15.7,19.7-31.6,13.4-50.7-3.8-9.8-14.7-13.2-23.3-15.5-13.6-1.5-28.8-3.5-41.4,1.8-2.3,2.5-.3,6.1-.5,9.1,0,2.8-1,6.5,1.2,8.6,7.8,3.2,15.9,9.1,18,17.9,1.5,7.8-1,15.6-7.1,20.7-3.8,3.5-9.1,5.6-14.4,4.1-5-1.2-8.8-5.3-12.9-8.3-1-.3-1.5,0-2.5.3h0Z"></path>
  <path class="cls-2" d="M146,124.1c-3,12.4-.3,25,7.8,34.1,4.1,3.8,8.3,7.8,13.4,9.4,15.1,5.3,33,2.3,43.4-10.3,5.8-7.8,9.6-16.2,10.1-26,.3-13.9-3.5-27.5-16.2-34.8-9.8-7.4-26.3-7.6-36.9-1.5-12.1,5.3-18.2,18-21.7,29.3h0Z"></path>
  <path class="cls-2" d="M240.1,163c2.5-2,2.8-5.3,2.3-8.1-1.5-4.3-5.8-8.1-10.4-8.6-2.8,3-4.3,7-6.1,10.6-.8,3,2.3,4.8,4.3,6.3,2.8,1.5,7.1,2.1,9.8-.3h0Z"></path>
</svg><style>@media (prefers-color-scheme: light) { :root { filter: none; } }
@media (prefers-color-scheme: dark) { :root { filter: none; } }
</style></svg>