<svg width="559" height="67" viewBox="0 0 559 67" fill="none" xmlns="http://www.w3.org/2000/svg">
<mask id="path-1-outside-1_334_1862" maskUnits="userSpaceOnUse" x="0.914062" y="0.691162" width="558" height="66" fill="black">
<rect fill="white" x="0.914062" y="0.691162" width="558" height="66"/>
<path d="M8.38606 14.894C7.4354 14.894 6.60873 14.5427 5.90606 13.84C5.24473 13.1374 4.91406 12.3107 4.91406 11.36V10.306C4.91406 9.35537 5.24473 8.54937 5.90606 7.88804C6.60873 7.18537 7.4354 6.83404 8.38606 6.83404H57.6141C58.5647 6.83404 59.3707 7.18537 60.0321 7.88804C60.7347 8.54937 61.0861 9.35537 61.0861 10.306V11.36C61.0861 12.3107 60.7347 13.1374 60.0321 13.84C59.3707 14.5427 58.5647 14.894 57.6141 14.894H37.8981C37.5674 14.894 37.4021 15.0594 37.4021 15.39V18.304C37.4021 18.6347 37.5674 18.8 37.8981 18.8H45.5241C46.4747 18.8 47.3014 19.1514 48.0041 19.854C48.7067 20.5567 49.0581 21.3834 49.0581 22.334V45.336C49.0581 46.2867 48.7067 47.1134 48.0041 47.816C47.3014 48.5187 46.4747 48.87 45.5241 48.87H20.4761C19.5254 48.87 18.6987 48.5187 17.9961 47.816C17.2934 47.1134 16.9421 46.2867 16.9421 45.336V22.334C16.9421 21.3834 17.2934 20.5567 17.9961 19.854C18.6987 19.1514 19.5254 18.8 20.4761 18.8H28.1021C28.4327 18.8 28.5981 18.6347 28.5981 18.304V15.39C28.5981 15.0594 28.4327 14.894 28.1021 14.894H8.38606ZM28.5981 41.43V37.276C28.5981 36.904 28.4327 36.718 28.1021 36.718H25.4361C25.0641 36.718 24.8781 36.904 24.8781 37.276V41.43C24.8781 41.7607 25.0641 41.926 25.4361 41.926H28.1021C28.4327 41.926 28.5981 41.7607 28.5981 41.43ZM28.5981 30.208V26.24C28.5981 25.9094 28.4327 25.744 28.1021 25.744H25.4361C25.0641 25.744 24.8781 25.9094 24.8781 26.24V30.208C24.8781 30.58 25.0641 30.766 25.4361 30.766H28.1021C28.4327 30.766 28.5981 30.58 28.5981 30.208ZM37.4021 26.24V30.208C37.4021 30.58 37.5674 30.766 37.8981 30.766H40.5641C40.9361 30.766 41.1221 30.58 41.1221 30.208V26.24C41.1221 25.9094 40.9361 25.744 40.5641 25.744H37.8981C37.5674 25.744 37.4021 25.9094 37.4021 26.24ZM37.4021 37.276V41.43C37.4021 41.7607 37.5674 41.926 37.8981 41.926H40.5641C40.9361 41.926 41.1221 41.7607 41.1221 41.43V37.276C41.1221 36.904 40.9361 36.718 40.5641 36.718H37.8981C37.5674 36.718 37.4021 36.904 37.4021 37.276ZM11.4241 20.66C12.3747 20.66 13.2014 21.0114 13.9041 21.714C14.6067 22.4167 14.9581 23.2434 14.9581 24.194V50.792C14.9581 51.1227 15.1441 51.288 15.5161 51.288H50.4841C50.8561 51.288 51.0421 51.1227 51.0421 50.792V24.194C51.0421 23.2434 51.3934 22.4167 52.0961 21.714C52.7987 21.0114 53.6254 20.66 54.5761 20.66H56.4361C57.3867 20.66 58.2134 21.0114 58.9161 21.714C59.6187 22.4167 59.9701 23.2434 59.9701 24.194V57.86C59.9701 58.8107 59.6187 59.6374 58.9161 60.34C58.2134 61.0427 57.3867 61.394 56.4361 61.394H53.3981C52.7367 61.394 52.1787 61.1667 51.7241 60.712C51.2694 60.2574 51.0421 59.6994 51.0421 59.038C51.0421 58.79 50.9181 58.666 50.6701 58.666H15.3301C15.0821 58.666 14.9581 58.79 14.9581 59.038C14.9581 59.6994 14.7307 60.2574 14.2761 60.712C13.8214 61.1667 13.2634 61.394 12.6021 61.394H9.56406C8.6134 61.394 7.78673 61.0427 7.08406 60.34C6.3814 59.6374 6.03006 58.8107 6.03006 57.86V24.194C6.03006 23.2434 6.3814 22.4167 7.08406 21.714C7.78673 21.0114 8.6134 20.66 9.56406 20.66H11.4241Z"/>
<path d="M66.0461 39.198L65.3021 33.804C65.0127 31.6134 65.4881 29.5054 66.7281 27.48C69.8694 22.3547 72.3287 16.0514 74.1061 8.57004C74.3127 7.61937 74.8294 6.87537 75.6561 6.33804C76.4827 5.75937 77.3714 5.5527 78.3221 5.71804L80.5541 6.09003C81.5047 6.25537 82.2487 6.75137 82.7861 7.57804C83.3647 8.36337 83.5507 9.23137 83.3441 10.182C82.6414 13.654 81.8147 16.7334 80.8641 19.42C80.8641 19.4614 80.8641 19.5027 80.8641 19.544C80.9054 19.5854 80.9467 19.5854 80.9881 19.544C84.1707 15.6174 86.6921 11.6287 88.5521 7.57804C89.0067 6.62737 89.6681 5.88337 90.5361 5.34604C91.4454 4.8087 92.3961 4.60204 93.3881 4.72604L97.2321 5.22203C97.8107 5.3047 98.2241 5.57337 98.4721 6.02804C98.7614 6.44137 98.8234 6.9167 98.6581 7.45404C98.5754 7.6607 98.6581 7.76404 98.9061 7.76404H112.918C113.827 7.76404 114.592 8.0947 115.212 8.75604C115.832 9.37604 116.142 10.1407 116.142 11.05V11.98C116.142 13.6334 115.708 15.018 114.84 16.134C114.799 16.1754 114.799 16.2374 114.84 16.32C114.881 16.4027 114.923 16.444 114.964 16.444H120.048C120.999 16.444 121.805 16.7954 122.466 17.498C123.169 18.2007 123.52 19.0274 123.52 19.978V29.464C123.52 30.4147 123.169 31.2414 122.466 31.944C121.805 32.6467 120.999 32.998 120.048 32.998H113.972C113.6 32.998 113.455 33.1634 113.538 33.494C113.993 35.1887 114.509 36.7594 115.088 38.206C115.129 38.33 115.212 38.4127 115.336 38.454C115.501 38.454 115.605 38.4127 115.646 38.33C115.853 38.082 116.121 37.7307 116.452 37.276C116.783 36.78 116.989 36.47 117.072 36.346C117.651 35.5607 118.395 35.106 119.304 34.982C120.213 34.858 121.04 35.0854 121.784 35.664L122.342 36.098C123.127 36.718 123.582 37.5447 123.706 38.578C123.871 39.57 123.685 40.4794 123.148 41.306C122.115 42.918 120.999 44.468 119.8 45.956C119.593 46.204 119.593 46.4727 119.8 46.762C121.04 48.498 122.239 49.9654 123.396 51.164C124.099 51.908 124.533 52.7967 124.698 53.83C124.863 54.822 124.698 55.7727 124.202 56.682L123.086 58.604C122.631 59.4307 121.949 59.906 121.04 60.03C120.172 60.154 119.428 59.8854 118.808 59.224C115.873 56.1654 113.207 52.3834 110.81 47.878C108.454 43.3727 106.635 38.5987 105.354 33.556C105.271 33.184 105.044 32.998 104.672 32.998H103.246C103.163 32.998 103.081 33.0394 102.998 33.122C102.957 33.2047 102.957 33.2874 102.998 33.37C106.842 38.9914 108.764 44.8814 108.764 51.04C108.764 55.256 108.268 58.108 107.276 59.596C106.325 61.1254 104.631 61.89 102.192 61.89C99.8361 61.89 97.7487 61.8487 95.9301 61.766C94.9381 61.7247 94.0907 61.3527 93.3881 60.65C92.6854 59.9474 92.2927 59.1 92.2101 58.108L92.0861 56.868C92.0861 56.744 92.0241 56.6407 91.9001 56.558C91.7761 56.5167 91.6727 56.5374 91.5901 56.62C89.2341 58.0667 86.6714 59.41 83.9021 60.65C83.0341 61.0634 82.1454 61.0634 81.2361 60.65C80.3681 60.278 79.7687 59.6374 79.4381 58.728L79.1281 58.046C78.7974 57.1367 78.8181 56.248 79.1901 55.38C79.6034 54.4707 80.2647 53.8507 81.1741 53.52C88.2834 50.7507 94.0701 47.5887 98.5341 44.034C98.8234 43.786 98.9061 43.4967 98.7821 43.166L98.5961 42.608C98.4307 42.3187 98.2034 42.2774 97.9141 42.484C93.9461 45.46 89.3374 48.1054 84.0881 50.42C83.1787 50.8334 82.2694 50.854 81.3601 50.482C80.4921 50.0687 79.8927 49.4074 79.5621 48.498L79.5001 48.312C79.1694 47.4027 79.2107 46.514 79.6241 45.646C80.0374 44.778 80.6987 44.1787 81.6081 43.848C86.7747 41.9054 91.2387 39.7147 95.0001 37.276C95.3307 37.1107 95.3721 36.904 95.1241 36.656C95.0827 36.6147 95.0207 36.5527 94.9381 36.47C94.8967 36.346 94.8554 36.2634 94.8141 36.222C94.5661 35.8914 94.2974 35.8294 94.0081 36.036C90.5774 38.1027 87.1674 39.8387 83.7781 41.244C82.9101 41.5747 82.0421 41.554 81.1741 41.182C80.3474 40.81 79.7687 40.19 79.4381 39.322C79.1074 38.4954 79.1281 37.6894 79.5001 36.904C79.8721 36.0774 80.4921 35.5194 81.3601 35.23C82.5587 34.858 84.4187 34.176 86.9401 33.184C86.9814 33.1014 86.9814 33.0394 86.9401 32.998H85.3901C84.4394 32.998 83.6127 32.6467 82.9101 31.944C82.2487 31.2414 81.9181 30.4147 81.9181 29.464V27.604C81.9181 27.2734 81.7734 27.0047 81.4841 26.798L80.0581 25.806C79.6861 25.558 79.3967 25.2274 79.1901 24.814C78.9834 24.5247 78.8387 24.504 78.7561 24.752C78.7147 24.876 78.6941 25.0827 78.6941 25.372V58.48C78.6941 59.4307 78.3427 60.2574 77.6401 60.96C76.9374 61.6627 76.1107 62.014 75.1601 62.014H73.3001C72.3494 62.014 71.5227 61.6627 70.8201 60.96C70.1587 60.2574 69.8281 59.4307 69.8281 58.48V38.826C69.8281 38.7434 69.7867 38.702 69.7041 38.702C69.6214 38.6607 69.5594 38.6607 69.5181 38.702C69.4354 38.826 69.3114 39.0327 69.1461 39.322C68.9807 39.57 68.8567 39.756 68.7741 39.88C68.5261 40.252 68.1954 40.4794 67.7821 40.562C67.3687 40.6034 66.9761 40.5 66.6041 40.252C66.2734 40.004 66.0874 39.6527 66.0461 39.198ZM107.028 23.698V26.488C107.028 26.86 107.193 27.046 107.524 27.046H113.662C114.034 27.046 114.22 26.86 114.22 26.488V23.698C114.22 23.326 114.034 23.14 113.662 23.14H107.524C107.193 23.14 107.028 23.326 107.028 23.698ZM98.3481 54.326C99.1334 54.326 99.6087 54.1814 99.7741 53.892C99.9394 53.5614 100.022 52.6314 100.022 51.102C100.022 51.0194 99.9807 50.9574 99.8981 50.916C99.8154 50.8334 99.7327 50.8127 99.6501 50.854C98.6994 51.722 97.4181 52.7347 95.8061 53.892C95.5581 54.14 95.5581 54.264 95.8061 54.264C96.5087 54.3054 97.3561 54.326 98.3481 54.326ZM94.6901 16.072C94.5247 16.32 94.6281 16.444 95.0001 16.444H102.874C103.205 16.444 103.494 16.32 103.742 16.072C103.907 15.9067 104.135 15.6794 104.424 15.39C104.713 15.1007 104.92 14.8734 105.044 14.708C105.251 14.4187 105.189 14.274 104.858 14.274H96.2401C95.8681 14.274 95.5994 14.4187 95.4341 14.708C95.3514 14.8734 95.2274 15.1007 95.0621 15.39C94.8967 15.6794 94.7727 15.9067 94.6901 16.072ZM90.9701 23.698V26.488C90.9701 26.86 91.1561 27.046 91.5281 27.046H97.6041C97.9347 27.046 98.1001 26.86 98.1001 26.488V23.698C98.1001 23.326 97.9347 23.14 97.6041 23.14H91.5281C91.1561 23.14 90.9701 23.326 90.9701 23.698Z"/>
<path d="M179.878 19.234C180.829 19.3994 181.573 19.8954 182.11 20.722C182.689 21.5074 182.875 22.3547 182.668 23.264C180.023 34.5894 175.352 43.0214 168.656 48.56C161.96 54.0574 152.226 57.55 139.454 59.038C138.462 59.162 137.573 58.914 136.788 58.294C136.003 57.7154 135.527 56.93 135.362 55.938L134.928 53.396C134.763 52.4867 134.969 51.66 135.548 50.916C136.168 50.1307 136.953 49.676 137.904 49.552C148.651 48.312 156.649 45.6254 161.898 41.492C167.189 37.3174 170.929 30.704 173.12 21.652C173.327 20.7014 173.843 19.9574 174.67 19.42C175.497 18.8414 176.385 18.6347 177.336 18.8L179.878 19.234ZM175.228 15.328C174.443 15.7 173.616 15.762 172.748 15.514C171.921 15.2247 171.301 14.6874 170.888 13.902C170.681 13.53 170.392 12.9927 170.02 12.29C169.648 11.546 169.359 10.988 169.152 10.616C168.739 9.8307 168.656 9.0247 168.904 8.19804C169.193 7.33004 169.731 6.68937 170.516 6.27604C171.343 5.8627 172.169 5.8007 172.996 6.09003C173.864 6.37937 174.525 6.93737 174.98 7.76404C175.187 8.13604 175.476 8.69404 175.848 9.43804C176.22 10.1407 176.509 10.678 176.716 11.05C177.129 11.8767 177.191 12.7034 176.902 13.53C176.613 14.3567 176.055 14.956 175.228 15.328ZM186.388 12.786C186.099 13.6127 185.541 14.2327 184.714 14.646C183.887 15.0594 183.04 15.1214 182.172 14.832C181.345 14.5427 180.705 13.9847 180.25 13.158C179.878 12.414 179.279 11.298 178.452 9.81003C178.039 8.98337 177.956 8.1567 178.204 7.33004C178.493 6.46204 179.051 5.82137 179.878 5.40804C180.705 4.9947 181.573 4.9327 182.482 5.22203C183.391 5.51137 184.053 6.0487 184.466 6.83404C184.673 7.24737 184.962 7.8467 185.334 8.63204C185.747 9.41737 186.037 9.97537 186.202 10.306C186.615 11.1327 186.677 11.9594 186.388 12.786ZM135.362 32.502C134.411 32.3367 133.667 31.8614 133.13 31.076C132.593 30.2494 132.427 29.3607 132.634 28.41L133.006 26.674C133.213 25.7234 133.729 24.9794 134.556 24.442C135.383 23.8634 136.271 23.6567 137.222 23.822C140.818 24.4834 145.365 25.372 150.862 26.488C151.813 26.6947 152.557 27.2114 153.094 28.038C153.631 28.8234 153.797 29.6914 153.59 30.642L153.218 32.44C153.011 33.3907 152.495 34.1347 151.668 34.672C150.841 35.168 149.953 35.3127 149.002 35.106C144.703 34.238 140.157 33.37 135.362 32.502ZM154.334 11.546C155.285 11.7114 156.029 12.2074 156.566 13.034C157.103 13.8607 157.269 14.7494 157.062 15.7L156.69 17.622C156.525 18.5727 156.008 19.3167 155.14 19.854C154.313 20.3914 153.425 20.5567 152.474 20.35C146.935 19.234 142.223 18.3454 138.338 17.684C137.429 17.5187 136.685 17.0434 136.106 16.258C135.569 15.4727 135.403 14.6047 135.61 13.654L135.982 11.732C136.147 10.7814 136.643 10.0167 137.47 9.43804C138.297 8.85937 139.185 8.6527 140.136 8.81804C142.864 9.2727 147.597 10.182 154.334 11.546Z"/>
<path d="M202.818 56.682C201.867 56.682 201.041 56.3307 200.338 55.628C199.635 54.9254 199.284 54.0987 199.284 53.148V52.28C199.284 51.3294 199.635 50.5234 200.338 49.862C201.041 49.1594 201.867 48.808 202.818 48.808H213.916C214.247 48.808 214.412 48.622 214.412 48.25V29.03C214.412 28.658 214.247 28.472 213.916 28.472H204.306C203.355 28.472 202.529 28.1414 201.826 27.48C201.123 26.7774 200.772 25.9507 200.772 25V24.132C200.772 23.1814 201.123 22.3547 201.826 21.652C202.529 20.9494 203.355 20.598 204.306 20.598H233.694C234.645 20.598 235.471 20.9494 236.174 21.652C236.877 22.3547 237.228 23.1814 237.228 24.132V25C237.228 25.9507 236.877 26.7774 236.174 27.48C235.471 28.1414 234.645 28.472 233.694 28.472H224.146C223.774 28.472 223.588 28.658 223.588 29.03V48.25C223.588 48.622 223.774 48.808 224.146 48.808H235.182C236.133 48.808 236.959 49.1594 237.662 49.862C238.365 50.5234 238.716 51.3294 238.716 52.28V53.148C238.716 54.0987 238.365 54.9254 237.662 55.628C236.959 56.3307 236.133 56.682 235.182 56.682H202.818Z"/>
<path d="M255.456 47.506L254.836 45.088C254.588 44.1787 254.712 43.3107 255.208 42.484C255.704 41.6574 256.427 41.1407 257.378 40.934C272.506 37.214 284.162 31.4687 292.346 23.698C292.429 23.6567 292.449 23.5947 292.408 23.512C292.367 23.388 292.305 23.326 292.222 23.326H261.656C260.705 23.326 259.879 22.9954 259.176 22.334C258.473 21.6314 258.122 20.8047 258.122 19.854V17.87C258.122 16.9194 258.473 16.0927 259.176 15.39C259.879 14.6874 260.705 14.336 261.656 14.336H275.296C275.668 14.336 275.854 14.1707 275.854 13.84V9.50004C275.854 8.54937 276.205 7.7227 276.908 7.02004C277.611 6.31737 278.437 5.96604 279.388 5.96604H282.86C283.811 5.96604 284.637 6.31737 285.34 7.02004C286.043 7.7227 286.394 8.54937 286.394 9.50004V13.84C286.394 14.1707 286.559 14.336 286.89 14.336H301.708C302.659 14.336 303.485 14.6874 304.188 15.39C304.891 16.0927 305.242 16.9194 305.242 17.87V22.83C305.242 23.1607 305.139 23.4914 304.932 23.822C302.535 27.542 299.228 31.0967 295.012 34.486C294.847 34.6927 294.867 34.8994 295.074 35.106C299.414 38.3714 302.907 41.0374 305.552 43.104C306.296 43.6827 306.709 44.468 306.792 45.46C306.875 46.4107 306.606 47.2374 305.986 47.94L304.25 49.986C303.589 50.73 302.783 51.164 301.832 51.288C300.881 51.3707 300.013 51.1227 299.228 50.544C295.632 47.7747 291.478 44.6334 286.766 41.12C286.518 40.9547 286.394 41.0374 286.394 41.368V56.62C286.394 57.5707 286.043 58.3974 285.34 59.1C284.637 59.8027 283.811 60.154 282.86 60.154H279.388C278.437 60.154 277.611 59.8027 276.908 59.1C276.205 58.3974 275.854 57.5707 275.854 56.62V45.708C275.854 45.4187 275.689 45.3154 275.358 45.398C270.398 47.3407 265.211 48.932 259.796 50.172C258.845 50.3787 257.936 50.234 257.068 49.738C256.241 49.2007 255.704 48.4567 255.456 47.506Z"/>
<path d="M325.578 58.79C324.586 58.8314 323.739 58.5007 323.036 57.798C322.375 57.0954 322.044 56.248 322.044 55.256V12.166C322.044 11.2154 322.375 10.4094 323.036 9.74804C323.739 9.04537 324.565 8.69404 325.516 8.69404H329.298C330.249 8.69404 331.075 9.04537 331.778 9.74804C332.481 10.4094 332.832 11.2154 332.832 12.166V48.25C332.832 48.374 332.873 48.498 332.956 48.622C333.08 48.746 333.204 48.7874 333.328 48.746C339.941 47.878 345.253 45.832 349.262 42.608C353.313 39.384 356.661 34.548 359.306 28.1C359.678 27.1907 360.277 26.5707 361.104 26.24C361.972 25.868 362.861 25.8474 363.77 26.178L366.498 27.232C367.407 27.604 368.048 28.2447 368.42 29.154C368.833 30.022 368.854 30.9107 368.482 31.82C364.555 41.2854 359.244 48.1054 352.548 52.28C345.852 56.4134 336.862 58.5834 325.578 58.79Z"/>
<path d="M382.68 38.702C381.729 38.702 380.903 38.3507 380.2 37.648C379.497 36.9454 379.146 36.1187 379.146 35.168V32.192C379.146 31.2414 379.497 30.4147 380.2 29.712C380.903 29.0094 381.729 28.658 382.68 28.658H427.32C428.271 28.658 429.097 29.0094 429.8 29.712C430.503 30.4147 430.854 31.2414 430.854 32.192V35.168C430.854 36.1187 430.503 36.9454 429.8 37.648C429.097 38.3507 428.271 38.702 427.32 38.702H382.68Z"/>
<path d="M444.742 36.532L443.192 35.106C442.489 34.486 442.097 33.7007 442.014 32.75C441.973 31.758 442.262 30.9107 442.882 30.208C448.007 24.132 451.355 17.436 452.926 10.12C453.133 9.12804 453.629 8.32204 454.414 7.70204C455.199 7.0407 456.067 6.7307 457.018 6.77204L459.498 6.95804C460.49 7.0407 461.296 7.43337 461.916 8.13604C462.536 8.8387 462.763 9.6447 462.598 10.554C462.598 10.678 462.557 10.8847 462.474 11.174C462.391 11.422 462.35 11.608 462.35 11.732C462.309 11.856 462.329 11.98 462.412 12.104C462.536 12.228 462.66 12.29 462.784 12.29H486.592C487.543 12.29 488.369 12.6414 489.072 13.344C489.775 14.0054 490.126 14.8114 490.126 15.762C490.043 29.6914 486.964 40.0867 480.888 46.948C474.812 53.768 465.099 57.9427 451.748 59.472C450.756 59.596 449.867 59.348 449.082 58.728C448.297 58.108 447.821 57.3227 447.656 56.372L447.284 54.326C447.119 53.3754 447.325 52.528 447.904 51.784C448.483 50.9987 449.247 50.544 450.198 50.42C459.911 49.0974 466.917 46.452 471.216 42.484C471.464 42.236 471.423 42.0294 471.092 41.864C468.033 40.2934 464.189 38.4334 459.56 36.284C458.692 35.8707 458.113 35.23 457.824 34.362C457.576 33.4527 457.679 32.5847 458.134 31.758L459.498 29.216C459.953 28.348 460.635 27.7694 461.544 27.48C462.495 27.1494 463.425 27.1907 464.334 27.604C469.418 29.96 473.469 31.9027 476.486 33.432C476.775 33.556 476.982 33.494 477.106 33.246C478.305 30.022 479.049 26.1987 479.338 21.776C479.338 21.4454 479.173 21.28 478.842 21.28H460.118C459.746 21.28 459.498 21.4454 459.374 21.776C457.142 27.0667 453.959 31.9234 449.826 36.346C449.165 37.0487 448.338 37.4207 447.346 37.462C446.354 37.5034 445.486 37.1934 444.742 36.532Z"/>
<path d="M506.68 38.702C505.729 38.702 504.903 38.3507 504.2 37.648C503.497 36.9454 503.146 36.1187 503.146 35.168V32.192C503.146 31.2414 503.497 30.4147 504.2 29.712C504.903 29.0094 505.729 28.658 506.68 28.658H551.32C552.271 28.658 553.097 29.0094 553.8 29.712C554.503 30.4147 554.854 31.2414 554.854 32.192V35.168C554.854 36.1187 554.503 36.9454 553.8 37.648C553.097 38.3507 552.271 38.702 551.32 38.702H506.68Z"/>
</mask>
<path d="M8.38606 14.894C7.4354 14.894 6.60873 14.5427 5.90606 13.84C5.24473 13.1374 4.91406 12.3107 4.91406 11.36V10.306C4.91406 9.35537 5.24473 8.54937 5.90606 7.88804C6.60873 7.18537 7.4354 6.83404 8.38606 6.83404H57.6141C58.5647 6.83404 59.3707 7.18537 60.0321 7.88804C60.7347 8.54937 61.0861 9.35537 61.0861 10.306V11.36C61.0861 12.3107 60.7347 13.1374 60.0321 13.84C59.3707 14.5427 58.5647 14.894 57.6141 14.894H37.8981C37.5674 14.894 37.4021 15.0594 37.4021 15.39V18.304C37.4021 18.6347 37.5674 18.8 37.8981 18.8H45.5241C46.4747 18.8 47.3014 19.1514 48.0041 19.854C48.7067 20.5567 49.0581 21.3834 49.0581 22.334V45.336C49.0581 46.2867 48.7067 47.1134 48.0041 47.816C47.3014 48.5187 46.4747 48.87 45.5241 48.87H20.4761C19.5254 48.87 18.6987 48.5187 17.9961 47.816C17.2934 47.1134 16.9421 46.2867 16.9421 45.336V22.334C16.9421 21.3834 17.2934 20.5567 17.9961 19.854C18.6987 19.1514 19.5254 18.8 20.4761 18.8H28.1021C28.4327 18.8 28.5981 18.6347 28.5981 18.304V15.39C28.5981 15.0594 28.4327 14.894 28.1021 14.894H8.38606ZM28.5981 41.43V37.276C28.5981 36.904 28.4327 36.718 28.1021 36.718H25.4361C25.0641 36.718 24.8781 36.904 24.8781 37.276V41.43C24.8781 41.7607 25.0641 41.926 25.4361 41.926H28.1021C28.4327 41.926 28.5981 41.7607 28.5981 41.43ZM28.5981 30.208V26.24C28.5981 25.9094 28.4327 25.744 28.1021 25.744H25.4361C25.0641 25.744 24.8781 25.9094 24.8781 26.24V30.208C24.8781 30.58 25.0641 30.766 25.4361 30.766H28.1021C28.4327 30.766 28.5981 30.58 28.5981 30.208ZM37.4021 26.24V30.208C37.4021 30.58 37.5674 30.766 37.8981 30.766H40.5641C40.9361 30.766 41.1221 30.58 41.1221 30.208V26.24C41.1221 25.9094 40.9361 25.744 40.5641 25.744H37.8981C37.5674 25.744 37.4021 25.9094 37.4021 26.24ZM37.4021 37.276V41.43C37.4021 41.7607 37.5674 41.926 37.8981 41.926H40.5641C40.9361 41.926 41.1221 41.7607 41.1221 41.43V37.276C41.1221 36.904 40.9361 36.718 40.5641 36.718H37.8981C37.5674 36.718 37.4021 36.904 37.4021 37.276ZM11.4241 20.66C12.3747 20.66 13.2014 21.0114 13.9041 21.714C14.6067 22.4167 14.9581 23.2434 14.9581 24.194V50.792C14.9581 51.1227 15.1441 51.288 15.5161 51.288H50.4841C50.8561 51.288 51.0421 51.1227 51.0421 50.792V24.194C51.0421 23.2434 51.3934 22.4167 52.0961 21.714C52.7987 21.0114 53.6254 20.66 54.5761 20.66H56.4361C57.3867 20.66 58.2134 21.0114 58.9161 21.714C59.6187 22.4167 59.9701 23.2434 59.9701 24.194V57.86C59.9701 58.8107 59.6187 59.6374 58.9161 60.34C58.2134 61.0427 57.3867 61.394 56.4361 61.394H53.3981C52.7367 61.394 52.1787 61.1667 51.7241 60.712C51.2694 60.2574 51.0421 59.6994 51.0421 59.038C51.0421 58.79 50.9181 58.666 50.6701 58.666H15.3301C15.0821 58.666 14.9581 58.79 14.9581 59.038C14.9581 59.6994 14.7307 60.2574 14.2761 60.712C13.8214 61.1667 13.2634 61.394 12.6021 61.394H9.56406C8.6134 61.394 7.78673 61.0427 7.08406 60.34C6.3814 59.6374 6.03006 58.8107 6.03006 57.86V24.194C6.03006 23.2434 6.3814 22.4167 7.08406 21.714C7.78673 21.0114 8.6134 20.66 9.56406 20.66H11.4241Z" fill="white"/>
<path d="M66.0461 39.198L65.3021 33.804C65.0127 31.6134 65.4881 29.5054 66.7281 27.48C69.8694 22.3547 72.3287 16.0514 74.1061 8.57004C74.3127 7.61937 74.8294 6.87537 75.6561 6.33804C76.4827 5.75937 77.3714 5.5527 78.3221 5.71804L80.5541 6.09003C81.5047 6.25537 82.2487 6.75137 82.7861 7.57804C83.3647 8.36337 83.5507 9.23137 83.3441 10.182C82.6414 13.654 81.8147 16.7334 80.8641 19.42C80.8641 19.4614 80.8641 19.5027 80.8641 19.544C80.9054 19.5854 80.9467 19.5854 80.9881 19.544C84.1707 15.6174 86.6921 11.6287 88.5521 7.57804C89.0067 6.62737 89.6681 5.88337 90.5361 5.34604C91.4454 4.8087 92.3961 4.60204 93.3881 4.72604L97.2321 5.22203C97.8107 5.3047 98.2241 5.57337 98.4721 6.02804C98.7614 6.44137 98.8234 6.9167 98.6581 7.45404C98.5754 7.6607 98.6581 7.76404 98.9061 7.76404H112.918C113.827 7.76404 114.592 8.0947 115.212 8.75604C115.832 9.37604 116.142 10.1407 116.142 11.05V11.98C116.142 13.6334 115.708 15.018 114.84 16.134C114.799 16.1754 114.799 16.2374 114.84 16.32C114.881 16.4027 114.923 16.444 114.964 16.444H120.048C120.999 16.444 121.805 16.7954 122.466 17.498C123.169 18.2007 123.52 19.0274 123.52 19.978V29.464C123.52 30.4147 123.169 31.2414 122.466 31.944C121.805 32.6467 120.999 32.998 120.048 32.998H113.972C113.6 32.998 113.455 33.1634 113.538 33.494C113.993 35.1887 114.509 36.7594 115.088 38.206C115.129 38.33 115.212 38.4127 115.336 38.454C115.501 38.454 115.605 38.4127 115.646 38.33C115.853 38.082 116.121 37.7307 116.452 37.276C116.783 36.78 116.989 36.47 117.072 36.346C117.651 35.5607 118.395 35.106 119.304 34.982C120.213 34.858 121.04 35.0854 121.784 35.664L122.342 36.098C123.127 36.718 123.582 37.5447 123.706 38.578C123.871 39.57 123.685 40.4794 123.148 41.306C122.115 42.918 120.999 44.468 119.8 45.956C119.593 46.204 119.593 46.4727 119.8 46.762C121.04 48.498 122.239 49.9654 123.396 51.164C124.099 51.908 124.533 52.7967 124.698 53.83C124.863 54.822 124.698 55.7727 124.202 56.682L123.086 58.604C122.631 59.4307 121.949 59.906 121.04 60.03C120.172 60.154 119.428 59.8854 118.808 59.224C115.873 56.1654 113.207 52.3834 110.81 47.878C108.454 43.3727 106.635 38.5987 105.354 33.556C105.271 33.184 105.044 32.998 104.672 32.998H103.246C103.163 32.998 103.081 33.0394 102.998 33.122C102.957 33.2047 102.957 33.2874 102.998 33.37C106.842 38.9914 108.764 44.8814 108.764 51.04C108.764 55.256 108.268 58.108 107.276 59.596C106.325 61.1254 104.631 61.89 102.192 61.89C99.8361 61.89 97.7487 61.8487 95.9301 61.766C94.9381 61.7247 94.0907 61.3527 93.3881 60.65C92.6854 59.9474 92.2927 59.1 92.2101 58.108L92.0861 56.868C92.0861 56.744 92.0241 56.6407 91.9001 56.558C91.7761 56.5167 91.6727 56.5374 91.5901 56.62C89.2341 58.0667 86.6714 59.41 83.9021 60.65C83.0341 61.0634 82.1454 61.0634 81.2361 60.65C80.3681 60.278 79.7687 59.6374 79.4381 58.728L79.1281 58.046C78.7974 57.1367 78.8181 56.248 79.1901 55.38C79.6034 54.4707 80.2647 53.8507 81.1741 53.52C88.2834 50.7507 94.0701 47.5887 98.5341 44.034C98.8234 43.786 98.9061 43.4967 98.7821 43.166L98.5961 42.608C98.4307 42.3187 98.2034 42.2774 97.9141 42.484C93.9461 45.46 89.3374 48.1054 84.0881 50.42C83.1787 50.8334 82.2694 50.854 81.3601 50.482C80.4921 50.0687 79.8927 49.4074 79.5621 48.498L79.5001 48.312C79.1694 47.4027 79.2107 46.514 79.6241 45.646C80.0374 44.778 80.6987 44.1787 81.6081 43.848C86.7747 41.9054 91.2387 39.7147 95.0001 37.276C95.3307 37.1107 95.3721 36.904 95.1241 36.656C95.0827 36.6147 95.0207 36.5527 94.9381 36.47C94.8967 36.346 94.8554 36.2634 94.8141 36.222C94.5661 35.8914 94.2974 35.8294 94.0081 36.036C90.5774 38.1027 87.1674 39.8387 83.7781 41.244C82.9101 41.5747 82.0421 41.554 81.1741 41.182C80.3474 40.81 79.7687 40.19 79.4381 39.322C79.1074 38.4954 79.1281 37.6894 79.5001 36.904C79.8721 36.0774 80.4921 35.5194 81.3601 35.23C82.5587 34.858 84.4187 34.176 86.9401 33.184C86.9814 33.1014 86.9814 33.0394 86.9401 32.998H85.3901C84.4394 32.998 83.6127 32.6467 82.9101 31.944C82.2487 31.2414 81.9181 30.4147 81.9181 29.464V27.604C81.9181 27.2734 81.7734 27.0047 81.4841 26.798L80.0581 25.806C79.6861 25.558 79.3967 25.2274 79.1901 24.814C78.9834 24.5247 78.8387 24.504 78.7561 24.752C78.7147 24.876 78.6941 25.0827 78.6941 25.372V58.48C78.6941 59.4307 78.3427 60.2574 77.6401 60.96C76.9374 61.6627 76.1107 62.014 75.1601 62.014H73.3001C72.3494 62.014 71.5227 61.6627 70.8201 60.96C70.1587 60.2574 69.8281 59.4307 69.8281 58.48V38.826C69.8281 38.7434 69.7867 38.702 69.7041 38.702C69.6214 38.6607 69.5594 38.6607 69.5181 38.702C69.4354 38.826 69.3114 39.0327 69.1461 39.322C68.9807 39.57 68.8567 39.756 68.7741 39.88C68.5261 40.252 68.1954 40.4794 67.7821 40.562C67.3687 40.6034 66.9761 40.5 66.6041 40.252C66.2734 40.004 66.0874 39.6527 66.0461 39.198ZM107.028 23.698V26.488C107.028 26.86 107.193 27.046 107.524 27.046H113.662C114.034 27.046 114.22 26.86 114.22 26.488V23.698C114.22 23.326 114.034 23.14 113.662 23.14H107.524C107.193 23.14 107.028 23.326 107.028 23.698ZM98.3481 54.326C99.1334 54.326 99.6087 54.1814 99.7741 53.892C99.9394 53.5614 100.022 52.6314 100.022 51.102C100.022 51.0194 99.9807 50.9574 99.8981 50.916C99.8154 50.8334 99.7327 50.8127 99.6501 50.854C98.6994 51.722 97.4181 52.7347 95.8061 53.892C95.5581 54.14 95.5581 54.264 95.8061 54.264C96.5087 54.3054 97.3561 54.326 98.3481 54.326ZM94.6901 16.072C94.5247 16.32 94.6281 16.444 95.0001 16.444H102.874C103.205 16.444 103.494 16.32 103.742 16.072C103.907 15.9067 104.135 15.6794 104.424 15.39C104.713 15.1007 104.92 14.8734 105.044 14.708C105.251 14.4187 105.189 14.274 104.858 14.274H96.2401C95.8681 14.274 95.5994 14.4187 95.4341 14.708C95.3514 14.8734 95.2274 15.1007 95.0621 15.39C94.8967 15.6794 94.7727 15.9067 94.6901 16.072ZM90.9701 23.698V26.488C90.9701 26.86 91.1561 27.046 91.5281 27.046H97.6041C97.9347 27.046 98.1001 26.86 98.1001 26.488V23.698C98.1001 23.326 97.9347 23.14 97.6041 23.14H91.5281C91.1561 23.14 90.9701 23.326 90.9701 23.698Z" fill="white"/>
<path d="M179.878 19.234C180.829 19.3994 181.573 19.8954 182.11 20.722C182.689 21.5074 182.875 22.3547 182.668 23.264C180.023 34.5894 175.352 43.0214 168.656 48.56C161.96 54.0574 152.226 57.55 139.454 59.038C138.462 59.162 137.573 58.914 136.788 58.294C136.003 57.7154 135.527 56.93 135.362 55.938L134.928 53.396C134.763 52.4867 134.969 51.66 135.548 50.916C136.168 50.1307 136.953 49.676 137.904 49.552C148.651 48.312 156.649 45.6254 161.898 41.492C167.189 37.3174 170.929 30.704 173.12 21.652C173.327 20.7014 173.843 19.9574 174.67 19.42C175.497 18.8414 176.385 18.6347 177.336 18.8L179.878 19.234ZM175.228 15.328C174.443 15.7 173.616 15.762 172.748 15.514C171.921 15.2247 171.301 14.6874 170.888 13.902C170.681 13.53 170.392 12.9927 170.02 12.29C169.648 11.546 169.359 10.988 169.152 10.616C168.739 9.8307 168.656 9.0247 168.904 8.19804C169.193 7.33004 169.731 6.68937 170.516 6.27604C171.343 5.8627 172.169 5.8007 172.996 6.09003C173.864 6.37937 174.525 6.93737 174.98 7.76404C175.187 8.13604 175.476 8.69404 175.848 9.43804C176.22 10.1407 176.509 10.678 176.716 11.05C177.129 11.8767 177.191 12.7034 176.902 13.53C176.613 14.3567 176.055 14.956 175.228 15.328ZM186.388 12.786C186.099 13.6127 185.541 14.2327 184.714 14.646C183.887 15.0594 183.04 15.1214 182.172 14.832C181.345 14.5427 180.705 13.9847 180.25 13.158C179.878 12.414 179.279 11.298 178.452 9.81003C178.039 8.98337 177.956 8.1567 178.204 7.33004C178.493 6.46204 179.051 5.82137 179.878 5.40804C180.705 4.9947 181.573 4.9327 182.482 5.22203C183.391 5.51137 184.053 6.0487 184.466 6.83404C184.673 7.24737 184.962 7.8467 185.334 8.63204C185.747 9.41737 186.037 9.97537 186.202 10.306C186.615 11.1327 186.677 11.9594 186.388 12.786ZM135.362 32.502C134.411 32.3367 133.667 31.8614 133.13 31.076C132.593 30.2494 132.427 29.3607 132.634 28.41L133.006 26.674C133.213 25.7234 133.729 24.9794 134.556 24.442C135.383 23.8634 136.271 23.6567 137.222 23.822C140.818 24.4834 145.365 25.372 150.862 26.488C151.813 26.6947 152.557 27.2114 153.094 28.038C153.631 28.8234 153.797 29.6914 153.59 30.642L153.218 32.44C153.011 33.3907 152.495 34.1347 151.668 34.672C150.841 35.168 149.953 35.3127 149.002 35.106C144.703 34.238 140.157 33.37 135.362 32.502ZM154.334 11.546C155.285 11.7114 156.029 12.2074 156.566 13.034C157.103 13.8607 157.269 14.7494 157.062 15.7L156.69 17.622C156.525 18.5727 156.008 19.3167 155.14 19.854C154.313 20.3914 153.425 20.5567 152.474 20.35C146.935 19.234 142.223 18.3454 138.338 17.684C137.429 17.5187 136.685 17.0434 136.106 16.258C135.569 15.4727 135.403 14.6047 135.61 13.654L135.982 11.732C136.147 10.7814 136.643 10.0167 137.47 9.43804C138.297 8.85937 139.185 8.6527 140.136 8.81804C142.864 9.2727 147.597 10.182 154.334 11.546Z" fill="white"/>
<path d="M202.818 56.682C201.867 56.682 201.041 56.3307 200.338 55.628C199.635 54.9254 199.284 54.0987 199.284 53.148V52.28C199.284 51.3294 199.635 50.5234 200.338 49.862C201.041 49.1594 201.867 48.808 202.818 48.808H213.916C214.247 48.808 214.412 48.622 214.412 48.25V29.03C214.412 28.658 214.247 28.472 213.916 28.472H204.306C203.355 28.472 202.529 28.1414 201.826 27.48C201.123 26.7774 200.772 25.9507 200.772 25V24.132C200.772 23.1814 201.123 22.3547 201.826 21.652C202.529 20.9494 203.355 20.598 204.306 20.598H233.694C234.645 20.598 235.471 20.9494 236.174 21.652C236.877 22.3547 237.228 23.1814 237.228 24.132V25C237.228 25.9507 236.877 26.7774 236.174 27.48C235.471 28.1414 234.645 28.472 233.694 28.472H224.146C223.774 28.472 223.588 28.658 223.588 29.03V48.25C223.588 48.622 223.774 48.808 224.146 48.808H235.182C236.133 48.808 236.959 49.1594 237.662 49.862C238.365 50.5234 238.716 51.3294 238.716 52.28V53.148C238.716 54.0987 238.365 54.9254 237.662 55.628C236.959 56.3307 236.133 56.682 235.182 56.682H202.818Z" fill="white"/>
<path d="M255.456 47.506L254.836 45.088C254.588 44.1787 254.712 43.3107 255.208 42.484C255.704 41.6574 256.427 41.1407 257.378 40.934C272.506 37.214 284.162 31.4687 292.346 23.698C292.429 23.6567 292.449 23.5947 292.408 23.512C292.367 23.388 292.305 23.326 292.222 23.326H261.656C260.705 23.326 259.879 22.9954 259.176 22.334C258.473 21.6314 258.122 20.8047 258.122 19.854V17.87C258.122 16.9194 258.473 16.0927 259.176 15.39C259.879 14.6874 260.705 14.336 261.656 14.336H275.296C275.668 14.336 275.854 14.1707 275.854 13.84V9.50004C275.854 8.54937 276.205 7.7227 276.908 7.02004C277.611 6.31737 278.437 5.96604 279.388 5.96604H282.86C283.811 5.96604 284.637 6.31737 285.34 7.02004C286.043 7.7227 286.394 8.54937 286.394 9.50004V13.84C286.394 14.1707 286.559 14.336 286.89 14.336H301.708C302.659 14.336 303.485 14.6874 304.188 15.39C304.891 16.0927 305.242 16.9194 305.242 17.87V22.83C305.242 23.1607 305.139 23.4914 304.932 23.822C302.535 27.542 299.228 31.0967 295.012 34.486C294.847 34.6927 294.867 34.8994 295.074 35.106C299.414 38.3714 302.907 41.0374 305.552 43.104C306.296 43.6827 306.709 44.468 306.792 45.46C306.875 46.4107 306.606 47.2374 305.986 47.94L304.25 49.986C303.589 50.73 302.783 51.164 301.832 51.288C300.881 51.3707 300.013 51.1227 299.228 50.544C295.632 47.7747 291.478 44.6334 286.766 41.12C286.518 40.9547 286.394 41.0374 286.394 41.368V56.62C286.394 57.5707 286.043 58.3974 285.34 59.1C284.637 59.8027 283.811 60.154 282.86 60.154H279.388C278.437 60.154 277.611 59.8027 276.908 59.1C276.205 58.3974 275.854 57.5707 275.854 56.62V45.708C275.854 45.4187 275.689 45.3154 275.358 45.398C270.398 47.3407 265.211 48.932 259.796 50.172C258.845 50.3787 257.936 50.234 257.068 49.738C256.241 49.2007 255.704 48.4567 255.456 47.506Z" fill="white"/>
<path d="M325.578 58.79C324.586 58.8314 323.739 58.5007 323.036 57.798C322.375 57.0954 322.044 56.248 322.044 55.256V12.166C322.044 11.2154 322.375 10.4094 323.036 9.74804C323.739 9.04537 324.565 8.69404 325.516 8.69404H329.298C330.249 8.69404 331.075 9.04537 331.778 9.74804C332.481 10.4094 332.832 11.2154 332.832 12.166V48.25C332.832 48.374 332.873 48.498 332.956 48.622C333.08 48.746 333.204 48.7874 333.328 48.746C339.941 47.878 345.253 45.832 349.262 42.608C353.313 39.384 356.661 34.548 359.306 28.1C359.678 27.1907 360.277 26.5707 361.104 26.24C361.972 25.868 362.861 25.8474 363.77 26.178L366.498 27.232C367.407 27.604 368.048 28.2447 368.42 29.154C368.833 30.022 368.854 30.9107 368.482 31.82C364.555 41.2854 359.244 48.1054 352.548 52.28C345.852 56.4134 336.862 58.5834 325.578 58.79Z" fill="white"/>
<path d="M382.68 38.702C381.729 38.702 380.903 38.3507 380.2 37.648C379.497 36.9454 379.146 36.1187 379.146 35.168V32.192C379.146 31.2414 379.497 30.4147 380.2 29.712C380.903 29.0094 381.729 28.658 382.68 28.658H427.32C428.271 28.658 429.097 29.0094 429.8 29.712C430.503 30.4147 430.854 31.2414 430.854 32.192V35.168C430.854 36.1187 430.503 36.9454 429.8 37.648C429.097 38.3507 428.271 38.702 427.32 38.702H382.68Z" fill="white"/>
<path d="M444.742 36.532L443.192 35.106C442.489 34.486 442.097 33.7007 442.014 32.75C441.973 31.758 442.262 30.9107 442.882 30.208C448.007 24.132 451.355 17.436 452.926 10.12C453.133 9.12804 453.629 8.32204 454.414 7.70204C455.199 7.0407 456.067 6.7307 457.018 6.77204L459.498 6.95804C460.49 7.0407 461.296 7.43337 461.916 8.13604C462.536 8.8387 462.763 9.6447 462.598 10.554C462.598 10.678 462.557 10.8847 462.474 11.174C462.391 11.422 462.35 11.608 462.35 11.732C462.309 11.856 462.329 11.98 462.412 12.104C462.536 12.228 462.66 12.29 462.784 12.29H486.592C487.543 12.29 488.369 12.6414 489.072 13.344C489.775 14.0054 490.126 14.8114 490.126 15.762C490.043 29.6914 486.964 40.0867 480.888 46.948C474.812 53.768 465.099 57.9427 451.748 59.472C450.756 59.596 449.867 59.348 449.082 58.728C448.297 58.108 447.821 57.3227 447.656 56.372L447.284 54.326C447.119 53.3754 447.325 52.528 447.904 51.784C448.483 50.9987 449.247 50.544 450.198 50.42C459.911 49.0974 466.917 46.452 471.216 42.484C471.464 42.236 471.423 42.0294 471.092 41.864C468.033 40.2934 464.189 38.4334 459.56 36.284C458.692 35.8707 458.113 35.23 457.824 34.362C457.576 33.4527 457.679 32.5847 458.134 31.758L459.498 29.216C459.953 28.348 460.635 27.7694 461.544 27.48C462.495 27.1494 463.425 27.1907 464.334 27.604C469.418 29.96 473.469 31.9027 476.486 33.432C476.775 33.556 476.982 33.494 477.106 33.246C478.305 30.022 479.049 26.1987 479.338 21.776C479.338 21.4454 479.173 21.28 478.842 21.28H460.118C459.746 21.28 459.498 21.4454 459.374 21.776C457.142 27.0667 453.959 31.9234 449.826 36.346C449.165 37.0487 448.338 37.4207 447.346 37.462C446.354 37.5034 445.486 37.1934 444.742 36.532Z" fill="white"/>
<path d="M506.68 38.702C505.729 38.702 504.903 38.3507 504.2 37.648C503.497 36.9454 503.146 36.1187 503.146 35.168V32.192C503.146 31.2414 503.497 30.4147 504.2 29.712C504.903 29.0094 505.729 28.658 506.68 28.658H551.32C552.271 28.658 553.097 29.0094 553.8 29.712C554.503 30.4147 554.854 31.2414 554.854 32.192V35.168C554.854 36.1187 554.503 36.9454 553.8 37.648C553.097 38.3507 552.271 38.702 551.32 38.702H506.68Z" fill="white"/>
<path d="M8.38606 14.894C7.4354 14.894 6.60873 14.5427 5.90606 13.84C5.24473 13.1374 4.91406 12.3107 4.91406 11.36V10.306C4.91406 9.35537 5.24473 8.54937 5.90606 7.88804C6.60873 7.18537 7.4354 6.83404 8.38606 6.83404H57.6141C58.5647 6.83404 59.3707 7.18537 60.0321 7.88804C60.7347 8.54937 61.0861 9.35537 61.0861 10.306V11.36C61.0861 12.3107 60.7347 13.1374 60.0321 13.84C59.3707 14.5427 58.5647 14.894 57.6141 14.894H37.8981C37.5674 14.894 37.4021 15.0594 37.4021 15.39V18.304C37.4021 18.6347 37.5674 18.8 37.8981 18.8H45.5241C46.4747 18.8 47.3014 19.1514 48.0041 19.854C48.7067 20.5567 49.0581 21.3834 49.0581 22.334V45.336C49.0581 46.2867 48.7067 47.1134 48.0041 47.816C47.3014 48.5187 46.4747 48.87 45.5241 48.87H20.4761C19.5254 48.87 18.6987 48.5187 17.9961 47.816C17.2934 47.1134 16.9421 46.2867 16.9421 45.336V22.334C16.9421 21.3834 17.2934 20.5567 17.9961 19.854C18.6987 19.1514 19.5254 18.8 20.4761 18.8H28.1021C28.4327 18.8 28.5981 18.6347 28.5981 18.304V15.39C28.5981 15.0594 28.4327 14.894 28.1021 14.894H8.38606ZM28.5981 41.43V37.276C28.5981 36.904 28.4327 36.718 28.1021 36.718H25.4361C25.0641 36.718 24.8781 36.904 24.8781 37.276V41.43C24.8781 41.7607 25.0641 41.926 25.4361 41.926H28.1021C28.4327 41.926 28.5981 41.7607 28.5981 41.43ZM28.5981 30.208V26.24C28.5981 25.9094 28.4327 25.744 28.1021 25.744H25.4361C25.0641 25.744 24.8781 25.9094 24.8781 26.24V30.208C24.8781 30.58 25.0641 30.766 25.4361 30.766H28.1021C28.4327 30.766 28.5981 30.58 28.5981 30.208ZM37.4021 26.24V30.208C37.4021 30.58 37.5674 30.766 37.8981 30.766H40.5641C40.9361 30.766 41.1221 30.58 41.1221 30.208V26.24C41.1221 25.9094 40.9361 25.744 40.5641 25.744H37.8981C37.5674 25.744 37.4021 25.9094 37.4021 26.24ZM37.4021 37.276V41.43C37.4021 41.7607 37.5674 41.926 37.8981 41.926H40.5641C40.9361 41.926 41.1221 41.7607 41.1221 41.43V37.276C41.1221 36.904 40.9361 36.718 40.5641 36.718H37.8981C37.5674 36.718 37.4021 36.904 37.4021 37.276ZM11.4241 20.66C12.3747 20.66 13.2014 21.0114 13.9041 21.714C14.6067 22.4167 14.9581 23.2434 14.9581 24.194V50.792C14.9581 51.1227 15.1441 51.288 15.5161 51.288H50.4841C50.8561 51.288 51.0421 51.1227 51.0421 50.792V24.194C51.0421 23.2434 51.3934 22.4167 52.0961 21.714C52.7987 21.0114 53.6254 20.66 54.5761 20.66H56.4361C57.3867 20.66 58.2134 21.0114 58.9161 21.714C59.6187 22.4167 59.9701 23.2434 59.9701 24.194V57.86C59.9701 58.8107 59.6187 59.6374 58.9161 60.34C58.2134 61.0427 57.3867 61.394 56.4361 61.394H53.3981C52.7367 61.394 52.1787 61.1667 51.7241 60.712C51.2694 60.2574 51.0421 59.6994 51.0421 59.038C51.0421 58.79 50.9181 58.666 50.6701 58.666H15.3301C15.0821 58.666 14.9581 58.79 14.9581 59.038C14.9581 59.6994 14.7307 60.2574 14.2761 60.712C13.8214 61.1667 13.2634 61.394 12.6021 61.394H9.56406C8.6134 61.394 7.78673 61.0427 7.08406 60.34C6.3814 59.6374 6.03006 58.8107 6.03006 57.86V24.194C6.03006 23.2434 6.3814 22.4167 7.08406 21.714C7.78673 21.0114 8.6134 20.66 9.56406 20.66H11.4241Z" stroke="black" stroke-width="8" mask="url(#path-1-outside-1_334_1862)"/>
<path d="M66.0461 39.198L65.3021 33.804C65.0127 31.6134 65.4881 29.5054 66.7281 27.48C69.8694 22.3547 72.3287 16.0514 74.1061 8.57004C74.3127 7.61937 74.8294 6.87537 75.6561 6.33804C76.4827 5.75937 77.3714 5.5527 78.3221 5.71804L80.5541 6.09003C81.5047 6.25537 82.2487 6.75137 82.7861 7.57804C83.3647 8.36337 83.5507 9.23137 83.3441 10.182C82.6414 13.654 81.8147 16.7334 80.8641 19.42C80.8641 19.4614 80.8641 19.5027 80.8641 19.544C80.9054 19.5854 80.9467 19.5854 80.9881 19.544C84.1707 15.6174 86.6921 11.6287 88.5521 7.57804C89.0067 6.62737 89.6681 5.88337 90.5361 5.34604C91.4454 4.8087 92.3961 4.60204 93.3881 4.72604L97.2321 5.22203C97.8107 5.3047 98.2241 5.57337 98.4721 6.02804C98.7614 6.44137 98.8234 6.9167 98.6581 7.45404C98.5754 7.6607 98.6581 7.76404 98.9061 7.76404H112.918C113.827 7.76404 114.592 8.0947 115.212 8.75604C115.832 9.37604 116.142 10.1407 116.142 11.05V11.98C116.142 13.6334 115.708 15.018 114.84 16.134C114.799 16.1754 114.799 16.2374 114.84 16.32C114.881 16.4027 114.923 16.444 114.964 16.444H120.048C120.999 16.444 121.805 16.7954 122.466 17.498C123.169 18.2007 123.52 19.0274 123.52 19.978V29.464C123.52 30.4147 123.169 31.2414 122.466 31.944C121.805 32.6467 120.999 32.998 120.048 32.998H113.972C113.6 32.998 113.455 33.1634 113.538 33.494C113.993 35.1887 114.509 36.7594 115.088 38.206C115.129 38.33 115.212 38.4127 115.336 38.454C115.501 38.454 115.605 38.4127 115.646 38.33C115.853 38.082 116.121 37.7307 116.452 37.276C116.783 36.78 116.989 36.47 117.072 36.346C117.651 35.5607 118.395 35.106 119.304 34.982C120.213 34.858 121.04 35.0854 121.784 35.664L122.342 36.098C123.127 36.718 123.582 37.5447 123.706 38.578C123.871 39.57 123.685 40.4794 123.148 41.306C122.115 42.918 120.999 44.468 119.8 45.956C119.593 46.204 119.593 46.4727 119.8 46.762C121.04 48.498 122.239 49.9654 123.396 51.164C124.099 51.908 124.533 52.7967 124.698 53.83C124.863 54.822 124.698 55.7727 124.202 56.682L123.086 58.604C122.631 59.4307 121.949 59.906 121.04 60.03C120.172 60.154 119.428 59.8854 118.808 59.224C115.873 56.1654 113.207 52.3834 110.81 47.878C108.454 43.3727 106.635 38.5987 105.354 33.556C105.271 33.184 105.044 32.998 104.672 32.998H103.246C103.163 32.998 103.081 33.0394 102.998 33.122C102.957 33.2047 102.957 33.2874 102.998 33.37C106.842 38.9914 108.764 44.8814 108.764 51.04C108.764 55.256 108.268 58.108 107.276 59.596C106.325 61.1254 104.631 61.89 102.192 61.89C99.8361 61.89 97.7487 61.8487 95.9301 61.766C94.9381 61.7247 94.0907 61.3527 93.3881 60.65C92.6854 59.9474 92.2927 59.1 92.2101 58.108L92.0861 56.868C92.0861 56.744 92.0241 56.6407 91.9001 56.558C91.7761 56.5167 91.6727 56.5374 91.5901 56.62C89.2341 58.0667 86.6714 59.41 83.9021 60.65C83.0341 61.0634 82.1454 61.0634 81.2361 60.65C80.3681 60.278 79.7687 59.6374 79.4381 58.728L79.1281 58.046C78.7974 57.1367 78.8181 56.248 79.1901 55.38C79.6034 54.4707 80.2647 53.8507 81.1741 53.52C88.2834 50.7507 94.0701 47.5887 98.5341 44.034C98.8234 43.786 98.9061 43.4967 98.7821 43.166L98.5961 42.608C98.4307 42.3187 98.2034 42.2774 97.9141 42.484C93.9461 45.46 89.3374 48.1054 84.0881 50.42C83.1787 50.8334 82.2694 50.854 81.3601 50.482C80.4921 50.0687 79.8927 49.4074 79.5621 48.498L79.5001 48.312C79.1694 47.4027 79.2107 46.514 79.6241 45.646C80.0374 44.778 80.6987 44.1787 81.6081 43.848C86.7747 41.9054 91.2387 39.7147 95.0001 37.276C95.3307 37.1107 95.3721 36.904 95.1241 36.656C95.0827 36.6147 95.0207 36.5527 94.9381 36.47C94.8967 36.346 94.8554 36.2634 94.8141 36.222C94.5661 35.8914 94.2974 35.8294 94.0081 36.036C90.5774 38.1027 87.1674 39.8387 83.7781 41.244C82.9101 41.5747 82.0421 41.554 81.1741 41.182C80.3474 40.81 79.7687 40.19 79.4381 39.322C79.1074 38.4954 79.1281 37.6894 79.5001 36.904C79.8721 36.0774 80.4921 35.5194 81.3601 35.23C82.5587 34.858 84.4187 34.176 86.9401 33.184C86.9814 33.1014 86.9814 33.0394 86.9401 32.998H85.3901C84.4394 32.998 83.6127 32.6467 82.9101 31.944C82.2487 31.2414 81.9181 30.4147 81.9181 29.464V27.604C81.9181 27.2734 81.7734 27.0047 81.4841 26.798L80.0581 25.806C79.6861 25.558 79.3967 25.2274 79.1901 24.814C78.9834 24.5247 78.8387 24.504 78.7561 24.752C78.7147 24.876 78.6941 25.0827 78.6941 25.372V58.48C78.6941 59.4307 78.3427 60.2574 77.6401 60.96C76.9374 61.6627 76.1107 62.014 75.1601 62.014H73.3001C72.3494 62.014 71.5227 61.6627 70.8201 60.96C70.1587 60.2574 69.8281 59.4307 69.8281 58.48V38.826C69.8281 38.7434 69.7867 38.702 69.7041 38.702C69.6214 38.6607 69.5594 38.6607 69.5181 38.702C69.4354 38.826 69.3114 39.0327 69.1461 39.322C68.9807 39.57 68.8567 39.756 68.7741 39.88C68.5261 40.252 68.1954 40.4794 67.7821 40.562C67.3687 40.6034 66.9761 40.5 66.6041 40.252C66.2734 40.004 66.0874 39.6527 66.0461 39.198ZM107.028 23.698V26.488C107.028 26.86 107.193 27.046 107.524 27.046H113.662C114.034 27.046 114.22 26.86 114.22 26.488V23.698C114.22 23.326 114.034 23.14 113.662 23.14H107.524C107.193 23.14 107.028 23.326 107.028 23.698ZM98.3481 54.326C99.1334 54.326 99.6087 54.1814 99.7741 53.892C99.9394 53.5614 100.022 52.6314 100.022 51.102C100.022 51.0194 99.9807 50.9574 99.8981 50.916C99.8154 50.8334 99.7327 50.8127 99.6501 50.854C98.6994 51.722 97.4181 52.7347 95.8061 53.892C95.5581 54.14 95.5581 54.264 95.8061 54.264C96.5087 54.3054 97.3561 54.326 98.3481 54.326ZM94.6901 16.072C94.5247 16.32 94.6281 16.444 95.0001 16.444H102.874C103.205 16.444 103.494 16.32 103.742 16.072C103.907 15.9067 104.135 15.6794 104.424 15.39C104.713 15.1007 104.92 14.8734 105.044 14.708C105.251 14.4187 105.189 14.274 104.858 14.274H96.2401C95.8681 14.274 95.5994 14.4187 95.4341 14.708C95.3514 14.8734 95.2274 15.1007 95.0621 15.39C94.8967 15.6794 94.7727 15.9067 94.6901 16.072ZM90.9701 23.698V26.488C90.9701 26.86 91.1561 27.046 91.5281 27.046H97.6041C97.9347 27.046 98.1001 26.86 98.1001 26.488V23.698C98.1001 23.326 97.9347 23.14 97.6041 23.14H91.5281C91.1561 23.14 90.9701 23.326 90.9701 23.698Z" stroke="black" stroke-width="8" mask="url(#path-1-outside-1_334_1862)"/>
<path d="M179.878 19.234C180.829 19.3994 181.573 19.8954 182.11 20.722C182.689 21.5074 182.875 22.3547 182.668 23.264C180.023 34.5894 175.352 43.0214 168.656 48.56C161.96 54.0574 152.226 57.55 139.454 59.038C138.462 59.162 137.573 58.914 136.788 58.294C136.003 57.7154 135.527 56.93 135.362 55.938L134.928 53.396C134.763 52.4867 134.969 51.66 135.548 50.916C136.168 50.1307 136.953 49.676 137.904 49.552C148.651 48.312 156.649 45.6254 161.898 41.492C167.189 37.3174 170.929 30.704 173.12 21.652C173.327 20.7014 173.843 19.9574 174.67 19.42C175.497 18.8414 176.385 18.6347 177.336 18.8L179.878 19.234ZM175.228 15.328C174.443 15.7 173.616 15.762 172.748 15.514C171.921 15.2247 171.301 14.6874 170.888 13.902C170.681 13.53 170.392 12.9927 170.02 12.29C169.648 11.546 169.359 10.988 169.152 10.616C168.739 9.8307 168.656 9.0247 168.904 8.19804C169.193 7.33004 169.731 6.68937 170.516 6.27604C171.343 5.8627 172.169 5.8007 172.996 6.09003C173.864 6.37937 174.525 6.93737 174.98 7.76404C175.187 8.13604 175.476 8.69404 175.848 9.43804C176.22 10.1407 176.509 10.678 176.716 11.05C177.129 11.8767 177.191 12.7034 176.902 13.53C176.613 14.3567 176.055 14.956 175.228 15.328ZM186.388 12.786C186.099 13.6127 185.541 14.2327 184.714 14.646C183.887 15.0594 183.04 15.1214 182.172 14.832C181.345 14.5427 180.705 13.9847 180.25 13.158C179.878 12.414 179.279 11.298 178.452 9.81003C178.039 8.98337 177.956 8.1567 178.204 7.33004C178.493 6.46204 179.051 5.82137 179.878 5.40804C180.705 4.9947 181.573 4.9327 182.482 5.22203C183.391 5.51137 184.053 6.0487 184.466 6.83404C184.673 7.24737 184.962 7.8467 185.334 8.63204C185.747 9.41737 186.037 9.97537 186.202 10.306C186.615 11.1327 186.677 11.9594 186.388 12.786ZM135.362 32.502C134.411 32.3367 133.667 31.8614 133.13 31.076C132.593 30.2494 132.427 29.3607 132.634 28.41L133.006 26.674C133.213 25.7234 133.729 24.9794 134.556 24.442C135.383 23.8634 136.271 23.6567 137.222 23.822C140.818 24.4834 145.365 25.372 150.862 26.488C151.813 26.6947 152.557 27.2114 153.094 28.038C153.631 28.8234 153.797 29.6914 153.59 30.642L153.218 32.44C153.011 33.3907 152.495 34.1347 151.668 34.672C150.841 35.168 149.953 35.3127 149.002 35.106C144.703 34.238 140.157 33.37 135.362 32.502ZM154.334 11.546C155.285 11.7114 156.029 12.2074 156.566 13.034C157.103 13.8607 157.269 14.7494 157.062 15.7L156.69 17.622C156.525 18.5727 156.008 19.3167 155.14 19.854C154.313 20.3914 153.425 20.5567 152.474 20.35C146.935 19.234 142.223 18.3454 138.338 17.684C137.429 17.5187 136.685 17.0434 136.106 16.258C135.569 15.4727 135.403 14.6047 135.61 13.654L135.982 11.732C136.147 10.7814 136.643 10.0167 137.47 9.43804C138.297 8.85937 139.185 8.6527 140.136 8.81804C142.864 9.2727 147.597 10.182 154.334 11.546Z" stroke="black" stroke-width="8" mask="url(#path-1-outside-1_334_1862)"/>
<path d="M202.818 56.682C201.867 56.682 201.041 56.3307 200.338 55.628C199.635 54.9254 199.284 54.0987 199.284 53.148V52.28C199.284 51.3294 199.635 50.5234 200.338 49.862C201.041 49.1594 201.867 48.808 202.818 48.808H213.916C214.247 48.808 214.412 48.622 214.412 48.25V29.03C214.412 28.658 214.247 28.472 213.916 28.472H204.306C203.355 28.472 202.529 28.1414 201.826 27.48C201.123 26.7774 200.772 25.9507 200.772 25V24.132C200.772 23.1814 201.123 22.3547 201.826 21.652C202.529 20.9494 203.355 20.598 204.306 20.598H233.694C234.645 20.598 235.471 20.9494 236.174 21.652C236.877 22.3547 237.228 23.1814 237.228 24.132V25C237.228 25.9507 236.877 26.7774 236.174 27.48C235.471 28.1414 234.645 28.472 233.694 28.472H224.146C223.774 28.472 223.588 28.658 223.588 29.03V48.25C223.588 48.622 223.774 48.808 224.146 48.808H235.182C236.133 48.808 236.959 49.1594 237.662 49.862C238.365 50.5234 238.716 51.3294 238.716 52.28V53.148C238.716 54.0987 238.365 54.9254 237.662 55.628C236.959 56.3307 236.133 56.682 235.182 56.682H202.818Z" stroke="black" stroke-width="8" mask="url(#path-1-outside-1_334_1862)"/>
<path d="M255.456 47.506L254.836 45.088C254.588 44.1787 254.712 43.3107 255.208 42.484C255.704 41.6574 256.427 41.1407 257.378 40.934C272.506 37.214 284.162 31.4687 292.346 23.698C292.429 23.6567 292.449 23.5947 292.408 23.512C292.367 23.388 292.305 23.326 292.222 23.326H261.656C260.705 23.326 259.879 22.9954 259.176 22.334C258.473 21.6314 258.122 20.8047 258.122 19.854V17.87C258.122 16.9194 258.473 16.0927 259.176 15.39C259.879 14.6874 260.705 14.336 261.656 14.336H275.296C275.668 14.336 275.854 14.1707 275.854 13.84V9.50004C275.854 8.54937 276.205 7.7227 276.908 7.02004C277.611 6.31737 278.437 5.96604 279.388 5.96604H282.86C283.811 5.96604 284.637 6.31737 285.34 7.02004C286.043 7.7227 286.394 8.54937 286.394 9.50004V13.84C286.394 14.1707 286.559 14.336 286.89 14.336H301.708C302.659 14.336 303.485 14.6874 304.188 15.39C304.891 16.0927 305.242 16.9194 305.242 17.87V22.83C305.242 23.1607 305.139 23.4914 304.932 23.822C302.535 27.542 299.228 31.0967 295.012 34.486C294.847 34.6927 294.867 34.8994 295.074 35.106C299.414 38.3714 302.907 41.0374 305.552 43.104C306.296 43.6827 306.709 44.468 306.792 45.46C306.875 46.4107 306.606 47.2374 305.986 47.94L304.25 49.986C303.589 50.73 302.783 51.164 301.832 51.288C300.881 51.3707 300.013 51.1227 299.228 50.544C295.632 47.7747 291.478 44.6334 286.766 41.12C286.518 40.9547 286.394 41.0374 286.394 41.368V56.62C286.394 57.5707 286.043 58.3974 285.34 59.1C284.637 59.8027 283.811 60.154 282.86 60.154H279.388C278.437 60.154 277.611 59.8027 276.908 59.1C276.205 58.3974 275.854 57.5707 275.854 56.62V45.708C275.854 45.4187 275.689 45.3154 275.358 45.398C270.398 47.3407 265.211 48.932 259.796 50.172C258.845 50.3787 257.936 50.234 257.068 49.738C256.241 49.2007 255.704 48.4567 255.456 47.506Z" stroke="black" stroke-width="8" mask="url(#path-1-outside-1_334_1862)"/>
<path d="M325.578 58.79C324.586 58.8314 323.739 58.5007 323.036 57.798C322.375 57.0954 322.044 56.248 322.044 55.256V12.166C322.044 11.2154 322.375 10.4094 323.036 9.74804C323.739 9.04537 324.565 8.69404 325.516 8.69404H329.298C330.249 8.69404 331.075 9.04537 331.778 9.74804C332.481 10.4094 332.832 11.2154 332.832 12.166V48.25C332.832 48.374 332.873 48.498 332.956 48.622C333.08 48.746 333.204 48.7874 333.328 48.746C339.941 47.878 345.253 45.832 349.262 42.608C353.313 39.384 356.661 34.548 359.306 28.1C359.678 27.1907 360.277 26.5707 361.104 26.24C361.972 25.868 362.861 25.8474 363.77 26.178L366.498 27.232C367.407 27.604 368.048 28.2447 368.42 29.154C368.833 30.022 368.854 30.9107 368.482 31.82C364.555 41.2854 359.244 48.1054 352.548 52.28C345.852 56.4134 336.862 58.5834 325.578 58.79Z" stroke="black" stroke-width="8" mask="url(#path-1-outside-1_334_1862)"/>
<path d="M382.68 38.702C381.729 38.702 380.903 38.3507 380.2 37.648C379.497 36.9454 379.146 36.1187 379.146 35.168V32.192C379.146 31.2414 379.497 30.4147 380.2 29.712C380.903 29.0094 381.729 28.658 382.68 28.658H427.32C428.271 28.658 429.097 29.0094 429.8 29.712C430.503 30.4147 430.854 31.2414 430.854 32.192V35.168C430.854 36.1187 430.503 36.9454 429.8 37.648C429.097 38.3507 428.271 38.702 427.32 38.702H382.68Z" stroke="black" stroke-width="8" mask="url(#path-1-outside-1_334_1862)"/>
<path d="M444.742 36.532L443.192 35.106C442.489 34.486 442.097 33.7007 442.014 32.75C441.973 31.758 442.262 30.9107 442.882 30.208C448.007 24.132 451.355 17.436 452.926 10.12C453.133 9.12804 453.629 8.32204 454.414 7.70204C455.199 7.0407 456.067 6.7307 457.018 6.77204L459.498 6.95804C460.49 7.0407 461.296 7.43337 461.916 8.13604C462.536 8.8387 462.763 9.6447 462.598 10.554C462.598 10.678 462.557 10.8847 462.474 11.174C462.391 11.422 462.35 11.608 462.35 11.732C462.309 11.856 462.329 11.98 462.412 12.104C462.536 12.228 462.66 12.29 462.784 12.29H486.592C487.543 12.29 488.369 12.6414 489.072 13.344C489.775 14.0054 490.126 14.8114 490.126 15.762C490.043 29.6914 486.964 40.0867 480.888 46.948C474.812 53.768 465.099 57.9427 451.748 59.472C450.756 59.596 449.867 59.348 449.082 58.728C448.297 58.108 447.821 57.3227 447.656 56.372L447.284 54.326C447.119 53.3754 447.325 52.528 447.904 51.784C448.483 50.9987 449.247 50.544 450.198 50.42C459.911 49.0974 466.917 46.452 471.216 42.484C471.464 42.236 471.423 42.0294 471.092 41.864C468.033 40.2934 464.189 38.4334 459.56 36.284C458.692 35.8707 458.113 35.23 457.824 34.362C457.576 33.4527 457.679 32.5847 458.134 31.758L459.498 29.216C459.953 28.348 460.635 27.7694 461.544 27.48C462.495 27.1494 463.425 27.1907 464.334 27.604C469.418 29.96 473.469 31.9027 476.486 33.432C476.775 33.556 476.982 33.494 477.106 33.246C478.305 30.022 479.049 26.1987 479.338 21.776C479.338 21.4454 479.173 21.28 478.842 21.28H460.118C459.746 21.28 459.498 21.4454 459.374 21.776C457.142 27.0667 453.959 31.9234 449.826 36.346C449.165 37.0487 448.338 37.4207 447.346 37.462C446.354 37.5034 445.486 37.1934 444.742 36.532Z" stroke="black" stroke-width="8" mask="url(#path-1-outside-1_334_1862)"/>
<path d="M506.68 38.702C505.729 38.702 504.903 38.3507 504.2 37.648C503.497 36.9454 503.146 36.1187 503.146 35.168V32.192C503.146 31.2414 503.497 30.4147 504.2 29.712C504.903 29.0094 505.729 28.658 506.68 28.658H551.32C552.271 28.658 553.097 29.0094 553.8 29.712C554.503 30.4147 554.854 31.2414 554.854 32.192V35.168C554.854 36.1187 554.503 36.9454 553.8 37.648C553.097 38.3507 552.271 38.702 551.32 38.702H506.68Z" stroke="black" stroke-width="8" mask="url(#path-1-outside-1_334_1862)"/>
</svg>
