<svg width="252" height="67" viewBox="0 0 252 67" fill="none" xmlns="http://www.w3.org/2000/svg">
<mask id="path-1-outside-1_441_2480" maskUnits="userSpaceOnUse" x="0" y="0" width="252" height="67" fill="black">
<rect fill="white" width="252" height="67"/>
<path d="M7.56792 59.49L5.27392 56.452C3.90992 54.6333 3.64126 52.608 4.46792 50.376C5.37726 47.8133 5.97659 44.8787 6.26592 41.572C6.59659 38.224 6.76192 32.892 6.76192 25.576V13.362C6.76192 12.4113 7.11326 11.5847 7.81592 10.882C8.51859 10.1793 9.34526 9.828 10.2959 9.828H28.8339C29.1646 9.828 29.3299 9.642 29.3299 9.27V7.472C29.3299 6.52133 29.6813 5.71533 30.3839 5.054C31.0866 4.35133 31.9133 4 32.8639 4H35.9639C36.9146 4 37.7413 4.35133 38.4439 5.054C39.1466 5.71533 39.4979 6.52133 39.4979 7.472V9.27C39.4979 9.642 39.6633 9.828 39.9939 9.828H57.1679C58.1186 9.828 58.9246 10.1793 59.5859 10.882C60.2886 11.5847 60.6399 12.4113 60.6399 13.362V14.354C60.6399 15.3047 60.2886 16.1313 59.5859 16.834C58.9246 17.5367 58.1186 17.888 57.1679 17.888H36.6459C36.6046 17.888 36.5839 17.9087 36.5839 17.95C36.5839 17.9913 36.6046 18.012 36.6459 18.012C40.5726 18.9627 44.4166 20.1613 48.1779 21.608C49.0873 21.9387 49.7279 22.5587 50.0999 23.468C50.4719 24.336 50.4719 25.2247 50.0999 26.134L49.6039 27.25C49.2319 28.1593 48.5913 28.8 47.6819 29.172C46.8139 29.5027 45.9253 29.5027 45.0159 29.172C40.4693 27.436 35.2199 25.886 29.2679 24.522C28.3586 24.3153 27.6766 23.8193 27.2219 23.034C26.7673 22.2073 26.6846 21.36 26.9739 20.492L27.2219 19.748C27.3873 19.2933 27.6973 18.7973 28.1519 18.26C28.2346 18.1773 28.2553 18.0947 28.2139 18.012C28.1726 17.9293 28.1106 17.888 28.0279 17.888H16.4959C16.1653 17.888 15.9999 18.0533 15.9999 18.384V33.078C15.9999 38.8233 15.6693 43.6593 15.0079 47.586H15.0699C15.8553 44.486 16.7026 40.394 17.6119 35.31C17.7773 34.3593 18.2526 33.6153 19.0379 33.078C19.8233 32.4993 20.6913 32.3133 21.6419 32.52L23.1299 32.768C24.0806 32.9747 24.8453 33.4707 25.4239 34.256C26.0439 35.0413 26.2713 35.93 26.1059 36.922C25.0313 43.9487 23.6259 50.2313 21.8899 55.77C21.6006 56.6793 21.0219 57.32 20.1539 57.692C19.2859 58.1053 18.4179 58.126 17.5499 57.754L15.8759 57.01C14.6773 56.514 13.9333 55.584 13.6439 54.22C13.6026 54.1787 13.5199 54.1993 13.3959 54.282C12.8999 55.8113 12.2386 57.4233 11.4119 59.118C11.0399 59.862 10.4199 60.2753 9.55193 60.358C8.72526 60.4407 8.06392 60.1513 7.56792 59.49ZM52.9519 31.466C53.9026 31.1353 54.8119 31.1767 55.6799 31.59C56.5893 32.0033 57.2093 32.6647 57.5399 33.574C59.5239 39.0713 61.2599 45.354 62.7479 52.422C62.9546 53.3727 62.7893 54.282 62.2519 55.15C61.7146 55.9767 60.9706 56.5347 60.0199 56.824L57.6639 57.506C56.7546 57.754 55.9073 57.63 55.1219 57.134C54.3366 56.638 53.8406 55.9147 53.6339 54.964C53.1379 52.36 52.5799 49.9007 51.9599 47.586C51.9599 47.5447 51.9393 47.524 51.8979 47.524C51.8566 47.524 51.8359 47.5447 51.8359 47.586C51.7533 49.942 51.6293 51.8433 51.4639 53.29C51.3399 54.6953 51.0506 55.956 50.5959 57.072C50.1826 58.2293 49.7486 59.056 49.2939 59.552C48.8806 60.048 48.1366 60.4613 47.0619 60.792C45.9873 61.1227 44.9126 61.3087 43.8379 61.35C42.8046 61.4327 41.2753 61.474 39.2499 61.474C37.1419 61.474 35.5299 61.4533 34.4139 61.412C33.3393 61.412 32.2646 61.288 31.1899 61.04C30.1566 60.792 29.4539 60.544 29.0819 60.296C28.7099 60.048 28.3586 59.552 28.0279 58.808C27.7386 58.064 27.5733 57.32 27.5319 56.576C27.4906 55.832 27.4699 54.716 27.4699 53.228V30.908C27.4699 29.9573 27.8006 29.1307 28.4619 28.428C29.1646 27.7253 29.9913 27.374 30.9419 27.374H33.7939C34.7446 27.374 35.5713 27.7253 36.2739 28.428C36.9766 29.1307 37.3279 29.9573 37.3279 30.908V51.12C37.3279 52.0293 37.4313 52.5667 37.6379 52.732C37.8446 52.8973 38.5679 52.98 39.8079 52.98C40.6346 52.98 41.2133 52.9593 41.5439 52.918C41.8746 52.8353 42.1846 52.546 42.4739 52.05C42.7633 51.554 42.9286 50.8927 42.9699 50.066C43.0526 49.2393 43.1146 47.9167 43.1559 46.098C43.1973 45.1473 43.5693 44.3827 44.2719 43.804C45.0159 43.184 45.8426 42.936 46.7519 43.06L50.4099 43.494C50.7406 43.494 50.8646 43.3493 50.7819 43.06C50.1206 40.7453 49.4386 38.596 48.7359 36.612C48.4053 35.7027 48.4466 34.814 48.8599 33.946C49.2733 33.0367 49.9346 32.4373 50.8439 32.148L52.9519 31.466Z"/>
<path d="M66.2199 49.198L65.8479 48.33C65.4759 47.462 65.4759 46.6147 65.8479 45.788C66.2613 44.9613 66.9226 44.3827 67.8319 44.052C70.1053 43.2253 72.4199 42.2127 74.7759 41.014C74.7759 40.9313 74.7346 40.8693 74.6519 40.828H69.4439C68.5759 40.828 67.8319 40.518 67.2119 39.898C66.5919 39.278 66.2819 38.534 66.2819 37.666C66.2819 36.798 66.5919 36.054 67.2119 35.434C67.8319 34.814 68.5759 34.504 69.4439 34.504H82.8359C83.1666 34.504 83.4766 34.3593 83.7659 34.07C83.8073 34.0287 83.8693 33.9667 83.9519 33.884C84.0346 33.76 84.0966 33.6773 84.1379 33.636C84.3446 33.3467 84.2826 33.202 83.9519 33.202H74.8379C73.8873 33.202 73.0606 32.8713 72.3579 32.21C71.6966 31.5073 71.3659 30.6807 71.3659 29.73V19.686C71.3659 18.7353 71.6966 17.9087 72.3579 17.206C73.0606 16.5033 73.8873 16.152 74.8379 16.152H78.2479C78.6199 16.152 78.8059 15.9867 78.8059 15.656V15.16C78.8059 14.788 78.6199 14.602 78.2479 14.602H69.7539C68.8033 14.602 67.9766 14.2713 67.2739 13.61C66.6126 12.9487 66.2819 12.1427 66.2819 11.192C66.2819 10.2413 66.6126 9.43533 67.2739 8.774C67.9766 8.07133 68.8033 7.72 69.7539 7.72H78.3099C78.6406 7.72 78.8059 7.55467 78.8059 7.224C78.8059 6.39733 79.0746 5.71533 79.6119 5.178C80.1906 4.59933 80.8933 4.31 81.7199 4.31H85.4399C86.2666 4.31 86.9693 4.59933 87.5479 5.178C88.1266 5.75667 88.4159 6.43867 88.4159 7.224C88.4159 7.55467 88.5606 7.72 88.8499 7.72H100.134C100.423 7.72 100.568 7.55467 100.568 7.224C100.568 6.43867 100.857 5.75667 101.436 5.178C102.015 4.59933 102.717 4.31 103.544 4.31H107.264C108.091 4.31 108.773 4.59933 109.31 5.178C109.889 5.71533 110.178 6.39733 110.178 7.224C110.178 7.55467 110.323 7.72 110.612 7.72H119.23C120.181 7.72 120.987 8.07133 121.648 8.774C122.351 9.43533 122.702 10.2413 122.702 11.192C122.702 12.1427 122.351 12.9487 121.648 13.61C120.987 14.2713 120.181 14.602 119.23 14.602H110.736C110.364 14.602 110.178 14.788 110.178 15.16V15.656C110.178 15.9867 110.364 16.152 110.736 16.152H114.146C115.097 16.152 115.903 16.5033 116.564 17.206C117.267 17.9087 117.618 18.7353 117.618 19.686V29.73C117.618 30.6807 117.267 31.5073 116.564 32.21C115.903 32.8713 115.097 33.202 114.146 33.202H95.2359C94.9053 33.202 94.6159 33.3673 94.3679 33.698C94.3266 33.7393 94.2646 33.822 94.1819 33.946C94.1406 34.0287 94.0993 34.0907 94.0579 34.132C93.8926 34.38 93.9753 34.504 94.3059 34.504H119.54C120.408 34.504 121.152 34.814 121.772 35.434C122.392 36.054 122.702 36.798 122.702 37.666C122.702 38.534 122.392 39.278 121.772 39.898C121.152 40.518 120.408 40.828 119.54 40.828H114.27C114.229 40.828 114.208 40.8693 114.208 40.952C114.208 40.9933 114.229 41.0347 114.27 41.076C116.295 42.1507 118.61 43.1427 121.214 44.052C122.082 44.3827 122.702 44.9613 123.074 45.788C123.487 46.6147 123.508 47.462 123.136 48.33L122.764 49.198C122.392 50.1073 121.751 50.7687 120.842 51.182C119.933 51.554 119.023 51.554 118.114 51.182C117.99 51.1407 117.804 51.0787 117.556 50.996C117.308 50.872 117.122 50.7893 116.998 50.748C116.667 50.5827 116.502 50.686 116.502 51.058C116.13 55.522 115.303 58.4153 114.022 59.738C112.782 61.0607 110.447 61.722 107.016 61.722C105.156 61.722 102.862 61.66 100.134 61.536C99.1419 61.4947 98.2739 61.102 97.5299 60.358C96.8273 59.6553 96.4346 58.808 96.3519 57.816L96.2899 56.886C96.2486 55.9353 96.5586 55.1293 97.2199 54.468C97.8813 53.8067 98.6666 53.5173 99.5759 53.6C100.899 53.6827 102.511 53.724 104.412 53.724C105.156 53.724 105.611 53.6207 105.776 53.414C105.983 53.2073 106.148 52.608 106.272 51.616C106.355 51.244 106.21 51.058 105.838 51.058H96.5379C96.2486 51.058 95.9593 51.2027 95.6699 51.492C91.8673 56.2453 84.9853 59.738 75.0239 61.97C73.9906 62.1767 72.9986 62.0527 72.0479 61.598C71.1386 61.1847 70.4359 60.5027 69.9399 59.552L69.3819 58.498C68.9686 57.7127 68.9686 56.948 69.3819 56.204C69.7953 55.46 70.4153 55.0053 71.2419 54.84C76.8633 53.9307 81.0379 52.7527 83.7659 51.306C83.8073 51.2647 83.8279 51.2233 83.8279 51.182C83.8279 51.0993 83.7866 51.058 83.7039 51.058H79.7979C78.3513 51.058 77.3179 50.438 76.6979 49.198C76.5326 48.8673 76.3053 48.7847 76.0159 48.95C75.0239 49.446 73.2879 50.19 70.8079 51.182C69.8986 51.554 68.9893 51.554 68.0799 51.182C67.2119 50.7687 66.5919 50.1073 66.2199 49.198ZM88.4159 15.16V15.656C88.4159 15.9867 88.5813 16.152 88.9119 16.152H100.072C100.403 16.152 100.568 15.9867 100.568 15.656V15.16C100.568 14.788 100.403 14.602 100.072 14.602H88.9119C88.5813 14.602 88.4159 14.788 88.4159 15.16ZM81.2239 21.36V22.042C81.2239 22.414 81.3893 22.6 81.7199 22.6H107.264C107.595 22.6 107.76 22.414 107.76 22.042V21.36C107.76 20.988 107.595 20.802 107.264 20.802H81.7199C81.3893 20.802 81.2239 20.988 81.2239 21.36ZM81.7199 28.366H107.264C107.595 28.366 107.76 28.18 107.76 27.808V27.126C107.76 26.7953 107.595 26.63 107.264 26.63H81.7199C81.3893 26.63 81.2239 26.7953 81.2239 27.126V27.808C81.2239 28.18 81.3893 28.366 81.7199 28.366ZM87.7339 41.2C86.3286 42.44 85.2746 43.308 84.5719 43.804C84.4893 43.8867 84.4479 43.9693 84.4479 44.052C84.4893 44.0933 84.5513 44.114 84.6339 44.114H89.4079C89.6146 44.114 89.7386 44.0313 89.7799 43.866C89.9039 43.2873 90.1726 42.812 90.5859 42.44C91.0406 42.0267 91.5366 41.82 92.0739 41.82H97.4679C98.0053 41.82 98.4393 42.0267 98.7699 42.44C99.1419 42.8533 99.2866 43.3287 99.2039 43.866C99.2039 44.0313 99.2866 44.114 99.4519 44.114H104.412C104.495 44.114 104.536 44.0933 104.536 44.052C104.577 43.9693 104.557 43.8867 104.474 43.804C102.986 42.6467 101.932 41.7787 101.312 41.2C101.064 40.952 100.754 40.828 100.382 40.828H88.6639C88.2919 40.828 87.9819 40.952 87.7339 41.2Z"/>
<path d="M131.01 20.492C130.059 20.492 129.233 20.1407 128.53 19.438C127.827 18.7353 127.476 17.9087 127.476 16.958V15.656C127.476 14.7053 127.827 13.8787 128.53 13.176C129.233 12.4733 130.059 12.122 131.01 12.122H150.23C150.561 12.122 150.726 11.9567 150.726 11.626V8.092C150.726 7.14134 151.077 6.33534 151.78 5.674C152.483 4.97133 153.309 4.62 154.26 4.62H157.36C158.311 4.62 159.137 4.97133 159.84 5.674C160.543 6.33534 160.894 7.14134 160.894 8.092V11.626C160.894 11.9567 161.059 12.122 161.39 12.122H180.61C181.561 12.122 182.387 12.4733 183.09 13.176C183.793 13.8787 184.144 14.7053 184.144 15.656V16.958C184.144 17.9087 183.793 18.7353 183.09 19.438C182.387 20.1407 181.561 20.492 180.61 20.492H153.33C152.999 20.492 152.834 20.6573 152.834 20.988C152.834 23.0547 152.772 25.018 152.648 26.878C152.648 27.2087 152.813 27.374 153.144 27.374H175.464C176.415 27.374 177.241 27.7253 177.944 28.428C178.647 29.1307 178.998 29.9573 178.998 30.908V34.008C178.998 38.1827 178.936 41.6753 178.812 44.486C178.688 47.2553 178.419 49.694 178.006 51.802C177.593 53.8687 177.117 55.46 176.58 56.576C176.043 57.692 175.257 58.5807 174.224 59.242C173.191 59.9033 172.095 60.3167 170.938 60.482C169.822 60.6887 168.334 60.792 166.474 60.792C164.779 60.792 161.473 60.6473 156.554 60.358C155.521 60.2753 154.632 59.8827 153.888 59.18C153.185 58.5187 152.813 57.6713 152.772 56.638L152.648 54.84C152.607 53.9307 152.917 53.1453 153.578 52.484C154.239 51.7813 155.045 51.4713 155.996 51.554C159.468 51.802 162.279 51.926 164.428 51.926C165.709 51.926 166.639 51.616 167.218 50.996C167.838 50.3347 168.313 48.9087 168.644 46.718C168.975 44.486 169.14 41.0553 169.14 36.426V36.24C169.14 35.868 168.954 35.682 168.582 35.682H152.214C151.883 35.682 151.677 35.8473 151.594 36.178C150.643 41.262 148.99 45.6433 146.634 49.322C144.319 52.9593 141.033 56.4727 136.776 59.862C135.991 60.482 135.102 60.73 134.11 60.606C133.159 60.5233 132.353 60.11 131.692 59.366L129.708 57.134C129.088 56.4727 128.819 55.6667 128.902 54.716C128.985 53.7653 129.398 53.0213 130.142 52.484C133.531 49.9213 136.094 47.3587 137.83 44.796C139.566 42.192 140.785 39.092 141.488 35.496C142.232 31.8587 142.625 27.0433 142.666 21.05C142.666 20.678 142.501 20.492 142.17 20.492H131.01Z"/>
<path d="M193.134 14.106C192.39 13.5273 191.956 12.7627 191.832 11.812C191.708 10.8613 191.956 10.014 192.576 9.27L193.444 8.216C194.105 7.43067 194.911 6.976 195.862 6.852C196.854 6.728 197.763 6.95534 198.59 7.534C200.037 8.56733 201.669 9.84867 203.488 11.378C204.232 11.998 204.645 12.804 204.728 13.796C204.811 14.7467 204.542 15.6147 203.922 16.4L202.93 17.64C202.31 18.384 201.525 18.7973 200.574 18.88C199.623 18.9213 198.776 18.632 198.032 18.012C196.296 16.5653 194.663 15.2633 193.134 14.106ZM190.468 28.056C189.724 27.4773 189.311 26.7127 189.228 25.762C189.145 24.8113 189.414 23.9847 190.034 23.282L190.964 22.228C191.625 21.484 192.431 21.05 193.382 20.926C194.333 20.802 195.201 21.05 195.986 21.67C198.135 23.3647 200.181 25.0387 202.124 26.692C202.868 27.3533 203.261 28.18 203.302 29.172C203.343 30.164 203.054 31.032 202.434 31.776L201.442 32.954C200.822 33.6567 200.037 34.0493 199.086 34.132C198.135 34.2147 197.309 33.946 196.606 33.326C194.291 31.218 192.245 29.4613 190.468 28.056ZM201.194 38.472L202.62 39.03C203.571 39.3607 204.273 39.9807 204.728 40.89C205.183 41.758 205.265 42.6673 204.976 43.618C203.323 48.95 201.235 53.972 198.714 58.684C198.259 59.552 197.536 60.0893 196.544 60.296C195.593 60.544 194.725 60.3993 193.94 59.862L192.142 58.746C191.315 58.2087 190.778 57.4647 190.53 56.514C190.323 55.6047 190.447 54.716 190.902 53.848C193.01 49.9213 194.953 45.4987 196.73 40.58C197.061 39.6707 197.66 39.0093 198.528 38.596C199.396 38.1827 200.285 38.1413 201.194 38.472ZM227.11 35.868C225.498 40.828 223.783 45.54 221.964 50.004C221.881 50.2933 221.985 50.438 222.274 50.438C227.027 50.1073 230.479 49.8387 232.628 49.632C233 49.632 233.103 49.4667 232.938 49.136C231.615 46.16 230.809 44.3827 230.52 43.804C230.107 42.936 230.065 42.068 230.396 41.2C230.727 40.332 231.347 39.7327 232.256 39.402L234.488 38.596C235.439 38.2653 236.369 38.286 237.278 38.658C238.229 38.9887 238.911 39.6087 239.324 40.518C241.845 45.8087 244.119 50.8307 246.144 55.584C246.516 56.452 246.516 57.32 246.144 58.188C245.772 59.0973 245.131 59.7173 244.222 60.048L241.99 60.854C241.081 61.1847 240.171 61.164 239.262 60.792C238.353 60.42 237.691 59.7793 237.278 58.87L236.906 57.94C236.741 57.6507 236.513 57.506 236.224 57.506C225.767 58.5807 216.281 59.2833 207.766 59.614C206.774 59.6553 205.906 59.3453 205.162 58.684C204.418 58.0227 204.025 57.196 203.984 56.204L203.922 54.902C203.839 53.9513 204.108 53.1247 204.728 52.422C205.389 51.7193 206.195 51.3473 207.146 51.306C207.477 51.2647 207.993 51.2233 208.696 51.182C209.399 51.1407 209.915 51.12 210.246 51.12C210.618 51.12 210.866 50.9753 210.99 50.686C212.933 46.222 214.793 41.3033 216.57 35.93C216.653 35.558 216.549 35.372 216.26 35.372H208.014C207.063 35.372 206.237 35.0413 205.534 34.38C204.873 33.6773 204.542 32.8507 204.542 31.9V30.598C204.542 29.6473 204.873 28.8207 205.534 28.118C206.237 27.4153 207.063 27.064 208.014 27.064H219.794C220.166 27.064 220.352 26.8987 220.352 26.568V19.81C220.352 19.438 220.166 19.252 219.794 19.252H210.804C209.853 19.252 209.027 18.9213 208.324 18.26C207.621 17.5573 207.27 16.7307 207.27 15.78V14.726C207.27 13.7753 207.621 12.9487 208.324 12.246C209.027 11.5433 209.853 11.192 210.804 11.192H219.794C220.166 11.192 220.352 11.0267 220.352 10.696V8.588C220.352 7.63733 220.683 6.81067 221.344 6.108C222.047 5.40533 222.873 5.054 223.824 5.054H226.676C227.627 5.054 228.453 5.40533 229.156 6.108C229.859 6.81067 230.21 7.63733 230.21 8.588V10.696C230.21 11.0267 230.375 11.192 230.706 11.192H240.874C241.825 11.192 242.651 11.5433 243.354 12.246C244.057 12.9487 244.408 13.7753 244.408 14.726V15.78C244.408 16.7307 244.057 17.5573 243.354 18.26C242.651 18.9213 241.825 19.252 240.874 19.252H230.706C230.375 19.252 230.21 19.438 230.21 19.81V26.568C230.21 26.8987 230.375 27.064 230.706 27.064H243.664C244.615 27.064 245.441 27.4153 246.144 28.118C246.847 28.8207 247.198 29.6473 247.198 30.598V31.9C247.198 32.8507 246.847 33.6773 246.144 34.38C245.441 35.0413 244.615 35.372 243.664 35.372H227.792C227.461 35.372 227.234 35.5373 227.11 35.868Z"/>
</mask>
<path d="M7.56792 59.49L5.27392 56.452C3.90992 54.6333 3.64126 52.608 4.46792 50.376C5.37726 47.8133 5.97659 44.8787 6.26592 41.572C6.59659 38.224 6.76192 32.892 6.76192 25.576V13.362C6.76192 12.4113 7.11326 11.5847 7.81592 10.882C8.51859 10.1793 9.34526 9.828 10.2959 9.828H28.8339C29.1646 9.828 29.3299 9.642 29.3299 9.27V7.472C29.3299 6.52133 29.6813 5.71533 30.3839 5.054C31.0866 4.35133 31.9133 4 32.8639 4H35.9639C36.9146 4 37.7413 4.35133 38.4439 5.054C39.1466 5.71533 39.4979 6.52133 39.4979 7.472V9.27C39.4979 9.642 39.6633 9.828 39.9939 9.828H57.1679C58.1186 9.828 58.9246 10.1793 59.5859 10.882C60.2886 11.5847 60.6399 12.4113 60.6399 13.362V14.354C60.6399 15.3047 60.2886 16.1313 59.5859 16.834C58.9246 17.5367 58.1186 17.888 57.1679 17.888H36.6459C36.6046 17.888 36.5839 17.9087 36.5839 17.95C36.5839 17.9913 36.6046 18.012 36.6459 18.012C40.5726 18.9627 44.4166 20.1613 48.1779 21.608C49.0873 21.9387 49.7279 22.5587 50.0999 23.468C50.4719 24.336 50.4719 25.2247 50.0999 26.134L49.6039 27.25C49.2319 28.1593 48.5913 28.8 47.6819 29.172C46.8139 29.5027 45.9253 29.5027 45.0159 29.172C40.4693 27.436 35.2199 25.886 29.2679 24.522C28.3586 24.3153 27.6766 23.8193 27.2219 23.034C26.7673 22.2073 26.6846 21.36 26.9739 20.492L27.2219 19.748C27.3873 19.2933 27.6973 18.7973 28.1519 18.26C28.2346 18.1773 28.2553 18.0947 28.2139 18.012C28.1726 17.9293 28.1106 17.888 28.0279 17.888H16.4959C16.1653 17.888 15.9999 18.0533 15.9999 18.384V33.078C15.9999 38.8233 15.6693 43.6593 15.0079 47.586H15.0699C15.8553 44.486 16.7026 40.394 17.6119 35.31C17.7773 34.3593 18.2526 33.6153 19.0379 33.078C19.8233 32.4993 20.6913 32.3133 21.6419 32.52L23.1299 32.768C24.0806 32.9747 24.8453 33.4707 25.4239 34.256C26.0439 35.0413 26.2713 35.93 26.1059 36.922C25.0313 43.9487 23.6259 50.2313 21.8899 55.77C21.6006 56.6793 21.0219 57.32 20.1539 57.692C19.2859 58.1053 18.4179 58.126 17.5499 57.754L15.8759 57.01C14.6773 56.514 13.9333 55.584 13.6439 54.22C13.6026 54.1787 13.5199 54.1993 13.3959 54.282C12.8999 55.8113 12.2386 57.4233 11.4119 59.118C11.0399 59.862 10.4199 60.2753 9.55193 60.358C8.72526 60.4407 8.06392 60.1513 7.56792 59.49ZM52.9519 31.466C53.9026 31.1353 54.8119 31.1767 55.6799 31.59C56.5893 32.0033 57.2093 32.6647 57.5399 33.574C59.5239 39.0713 61.2599 45.354 62.7479 52.422C62.9546 53.3727 62.7893 54.282 62.2519 55.15C61.7146 55.9767 60.9706 56.5347 60.0199 56.824L57.6639 57.506C56.7546 57.754 55.9073 57.63 55.1219 57.134C54.3366 56.638 53.8406 55.9147 53.6339 54.964C53.1379 52.36 52.5799 49.9007 51.9599 47.586C51.9599 47.5447 51.9393 47.524 51.8979 47.524C51.8566 47.524 51.8359 47.5447 51.8359 47.586C51.7533 49.942 51.6293 51.8433 51.4639 53.29C51.3399 54.6953 51.0506 55.956 50.5959 57.072C50.1826 58.2293 49.7486 59.056 49.2939 59.552C48.8806 60.048 48.1366 60.4613 47.0619 60.792C45.9873 61.1227 44.9126 61.3087 43.8379 61.35C42.8046 61.4327 41.2753 61.474 39.2499 61.474C37.1419 61.474 35.5299 61.4533 34.4139 61.412C33.3393 61.412 32.2646 61.288 31.1899 61.04C30.1566 60.792 29.4539 60.544 29.0819 60.296C28.7099 60.048 28.3586 59.552 28.0279 58.808C27.7386 58.064 27.5733 57.32 27.5319 56.576C27.4906 55.832 27.4699 54.716 27.4699 53.228V30.908C27.4699 29.9573 27.8006 29.1307 28.4619 28.428C29.1646 27.7253 29.9913 27.374 30.9419 27.374H33.7939C34.7446 27.374 35.5713 27.7253 36.2739 28.428C36.9766 29.1307 37.3279 29.9573 37.3279 30.908V51.12C37.3279 52.0293 37.4313 52.5667 37.6379 52.732C37.8446 52.8973 38.5679 52.98 39.8079 52.98C40.6346 52.98 41.2133 52.9593 41.5439 52.918C41.8746 52.8353 42.1846 52.546 42.4739 52.05C42.7633 51.554 42.9286 50.8927 42.9699 50.066C43.0526 49.2393 43.1146 47.9167 43.1559 46.098C43.1973 45.1473 43.5693 44.3827 44.2719 43.804C45.0159 43.184 45.8426 42.936 46.7519 43.06L50.4099 43.494C50.7406 43.494 50.8646 43.3493 50.7819 43.06C50.1206 40.7453 49.4386 38.596 48.7359 36.612C48.4053 35.7027 48.4466 34.814 48.8599 33.946C49.2733 33.0367 49.9346 32.4373 50.8439 32.148L52.9519 31.466Z" fill="white"/>
<path d="M66.2199 49.198L65.8479 48.33C65.4759 47.462 65.4759 46.6147 65.8479 45.788C66.2613 44.9613 66.9226 44.3827 67.8319 44.052C70.1053 43.2253 72.4199 42.2127 74.7759 41.014C74.7759 40.9313 74.7346 40.8693 74.6519 40.828H69.4439C68.5759 40.828 67.8319 40.518 67.2119 39.898C66.5919 39.278 66.2819 38.534 66.2819 37.666C66.2819 36.798 66.5919 36.054 67.2119 35.434C67.8319 34.814 68.5759 34.504 69.4439 34.504H82.8359C83.1666 34.504 83.4766 34.3593 83.7659 34.07C83.8073 34.0287 83.8693 33.9667 83.9519 33.884C84.0346 33.76 84.0966 33.6773 84.1379 33.636C84.3446 33.3467 84.2826 33.202 83.9519 33.202H74.8379C73.8873 33.202 73.0606 32.8713 72.3579 32.21C71.6966 31.5073 71.3659 30.6807 71.3659 29.73V19.686C71.3659 18.7353 71.6966 17.9087 72.3579 17.206C73.0606 16.5033 73.8873 16.152 74.8379 16.152H78.2479C78.6199 16.152 78.8059 15.9867 78.8059 15.656V15.16C78.8059 14.788 78.6199 14.602 78.2479 14.602H69.7539C68.8033 14.602 67.9766 14.2713 67.2739 13.61C66.6126 12.9487 66.2819 12.1427 66.2819 11.192C66.2819 10.2413 66.6126 9.43533 67.2739 8.774C67.9766 8.07133 68.8033 7.72 69.7539 7.72H78.3099C78.6406 7.72 78.8059 7.55467 78.8059 7.224C78.8059 6.39733 79.0746 5.71533 79.6119 5.178C80.1906 4.59933 80.8933 4.31 81.7199 4.31H85.4399C86.2666 4.31 86.9693 4.59933 87.5479 5.178C88.1266 5.75667 88.4159 6.43867 88.4159 7.224C88.4159 7.55467 88.5606 7.72 88.8499 7.72H100.134C100.423 7.72 100.568 7.55467 100.568 7.224C100.568 6.43867 100.857 5.75667 101.436 5.178C102.015 4.59933 102.717 4.31 103.544 4.31H107.264C108.091 4.31 108.773 4.59933 109.31 5.178C109.889 5.71533 110.178 6.39733 110.178 7.224C110.178 7.55467 110.323 7.72 110.612 7.72H119.23C120.181 7.72 120.987 8.07133 121.648 8.774C122.351 9.43533 122.702 10.2413 122.702 11.192C122.702 12.1427 122.351 12.9487 121.648 13.61C120.987 14.2713 120.181 14.602 119.23 14.602H110.736C110.364 14.602 110.178 14.788 110.178 15.16V15.656C110.178 15.9867 110.364 16.152 110.736 16.152H114.146C115.097 16.152 115.903 16.5033 116.564 17.206C117.267 17.9087 117.618 18.7353 117.618 19.686V29.73C117.618 30.6807 117.267 31.5073 116.564 32.21C115.903 32.8713 115.097 33.202 114.146 33.202H95.2359C94.9053 33.202 94.6159 33.3673 94.3679 33.698C94.3266 33.7393 94.2646 33.822 94.1819 33.946C94.1406 34.0287 94.0993 34.0907 94.0579 34.132C93.8926 34.38 93.9753 34.504 94.3059 34.504H119.54C120.408 34.504 121.152 34.814 121.772 35.434C122.392 36.054 122.702 36.798 122.702 37.666C122.702 38.534 122.392 39.278 121.772 39.898C121.152 40.518 120.408 40.828 119.54 40.828H114.27C114.229 40.828 114.208 40.8693 114.208 40.952C114.208 40.9933 114.229 41.0347 114.27 41.076C116.295 42.1507 118.61 43.1427 121.214 44.052C122.082 44.3827 122.702 44.9613 123.074 45.788C123.487 46.6147 123.508 47.462 123.136 48.33L122.764 49.198C122.392 50.1073 121.751 50.7687 120.842 51.182C119.933 51.554 119.023 51.554 118.114 51.182C117.99 51.1407 117.804 51.0787 117.556 50.996C117.308 50.872 117.122 50.7893 116.998 50.748C116.667 50.5827 116.502 50.686 116.502 51.058C116.13 55.522 115.303 58.4153 114.022 59.738C112.782 61.0607 110.447 61.722 107.016 61.722C105.156 61.722 102.862 61.66 100.134 61.536C99.1419 61.4947 98.2739 61.102 97.5299 60.358C96.8273 59.6553 96.4346 58.808 96.3519 57.816L96.2899 56.886C96.2486 55.9353 96.5586 55.1293 97.2199 54.468C97.8813 53.8067 98.6666 53.5173 99.5759 53.6C100.899 53.6827 102.511 53.724 104.412 53.724C105.156 53.724 105.611 53.6207 105.776 53.414C105.983 53.2073 106.148 52.608 106.272 51.616C106.355 51.244 106.21 51.058 105.838 51.058H96.5379C96.2486 51.058 95.9593 51.2027 95.6699 51.492C91.8673 56.2453 84.9853 59.738 75.0239 61.97C73.9906 62.1767 72.9986 62.0527 72.0479 61.598C71.1386 61.1847 70.4359 60.5027 69.9399 59.552L69.3819 58.498C68.9686 57.7127 68.9686 56.948 69.3819 56.204C69.7953 55.46 70.4153 55.0053 71.2419 54.84C76.8633 53.9307 81.0379 52.7527 83.7659 51.306C83.8073 51.2647 83.8279 51.2233 83.8279 51.182C83.8279 51.0993 83.7866 51.058 83.7039 51.058H79.7979C78.3513 51.058 77.3179 50.438 76.6979 49.198C76.5326 48.8673 76.3053 48.7847 76.0159 48.95C75.0239 49.446 73.2879 50.19 70.8079 51.182C69.8986 51.554 68.9893 51.554 68.0799 51.182C67.2119 50.7687 66.5919 50.1073 66.2199 49.198ZM88.4159 15.16V15.656C88.4159 15.9867 88.5813 16.152 88.9119 16.152H100.072C100.403 16.152 100.568 15.9867 100.568 15.656V15.16C100.568 14.788 100.403 14.602 100.072 14.602H88.9119C88.5813 14.602 88.4159 14.788 88.4159 15.16ZM81.2239 21.36V22.042C81.2239 22.414 81.3893 22.6 81.7199 22.6H107.264C107.595 22.6 107.76 22.414 107.76 22.042V21.36C107.76 20.988 107.595 20.802 107.264 20.802H81.7199C81.3893 20.802 81.2239 20.988 81.2239 21.36ZM81.7199 28.366H107.264C107.595 28.366 107.76 28.18 107.76 27.808V27.126C107.76 26.7953 107.595 26.63 107.264 26.63H81.7199C81.3893 26.63 81.2239 26.7953 81.2239 27.126V27.808C81.2239 28.18 81.3893 28.366 81.7199 28.366ZM87.7339 41.2C86.3286 42.44 85.2746 43.308 84.5719 43.804C84.4893 43.8867 84.4479 43.9693 84.4479 44.052C84.4893 44.0933 84.5513 44.114 84.6339 44.114H89.4079C89.6146 44.114 89.7386 44.0313 89.7799 43.866C89.9039 43.2873 90.1726 42.812 90.5859 42.44C91.0406 42.0267 91.5366 41.82 92.0739 41.82H97.4679C98.0053 41.82 98.4393 42.0267 98.7699 42.44C99.1419 42.8533 99.2866 43.3287 99.2039 43.866C99.2039 44.0313 99.2866 44.114 99.4519 44.114H104.412C104.495 44.114 104.536 44.0933 104.536 44.052C104.577 43.9693 104.557 43.8867 104.474 43.804C102.986 42.6467 101.932 41.7787 101.312 41.2C101.064 40.952 100.754 40.828 100.382 40.828H88.6639C88.2919 40.828 87.9819 40.952 87.7339 41.2Z" fill="white"/>
<path d="M131.01 20.492C130.059 20.492 129.233 20.1407 128.53 19.438C127.827 18.7353 127.476 17.9087 127.476 16.958V15.656C127.476 14.7053 127.827 13.8787 128.53 13.176C129.233 12.4733 130.059 12.122 131.01 12.122H150.23C150.561 12.122 150.726 11.9567 150.726 11.626V8.092C150.726 7.14134 151.077 6.33534 151.78 5.674C152.483 4.97133 153.309 4.62 154.26 4.62H157.36C158.311 4.62 159.137 4.97133 159.84 5.674C160.543 6.33534 160.894 7.14134 160.894 8.092V11.626C160.894 11.9567 161.059 12.122 161.39 12.122H180.61C181.561 12.122 182.387 12.4733 183.09 13.176C183.793 13.8787 184.144 14.7053 184.144 15.656V16.958C184.144 17.9087 183.793 18.7353 183.09 19.438C182.387 20.1407 181.561 20.492 180.61 20.492H153.33C152.999 20.492 152.834 20.6573 152.834 20.988C152.834 23.0547 152.772 25.018 152.648 26.878C152.648 27.2087 152.813 27.374 153.144 27.374H175.464C176.415 27.374 177.241 27.7253 177.944 28.428C178.647 29.1307 178.998 29.9573 178.998 30.908V34.008C178.998 38.1827 178.936 41.6753 178.812 44.486C178.688 47.2553 178.419 49.694 178.006 51.802C177.593 53.8687 177.117 55.46 176.58 56.576C176.043 57.692 175.257 58.5807 174.224 59.242C173.191 59.9033 172.095 60.3167 170.938 60.482C169.822 60.6887 168.334 60.792 166.474 60.792C164.779 60.792 161.473 60.6473 156.554 60.358C155.521 60.2753 154.632 59.8827 153.888 59.18C153.185 58.5187 152.813 57.6713 152.772 56.638L152.648 54.84C152.607 53.9307 152.917 53.1453 153.578 52.484C154.239 51.7813 155.045 51.4713 155.996 51.554C159.468 51.802 162.279 51.926 164.428 51.926C165.709 51.926 166.639 51.616 167.218 50.996C167.838 50.3347 168.313 48.9087 168.644 46.718C168.975 44.486 169.14 41.0553 169.14 36.426V36.24C169.14 35.868 168.954 35.682 168.582 35.682H152.214C151.883 35.682 151.677 35.8473 151.594 36.178C150.643 41.262 148.99 45.6433 146.634 49.322C144.319 52.9593 141.033 56.4727 136.776 59.862C135.991 60.482 135.102 60.73 134.11 60.606C133.159 60.5233 132.353 60.11 131.692 59.366L129.708 57.134C129.088 56.4727 128.819 55.6667 128.902 54.716C128.985 53.7653 129.398 53.0213 130.142 52.484C133.531 49.9213 136.094 47.3587 137.83 44.796C139.566 42.192 140.785 39.092 141.488 35.496C142.232 31.8587 142.625 27.0433 142.666 21.05C142.666 20.678 142.501 20.492 142.17 20.492H131.01Z" fill="white"/>
<path d="M193.134 14.106C192.39 13.5273 191.956 12.7627 191.832 11.812C191.708 10.8613 191.956 10.014 192.576 9.27L193.444 8.216C194.105 7.43067 194.911 6.976 195.862 6.852C196.854 6.728 197.763 6.95534 198.59 7.534C200.037 8.56733 201.669 9.84867 203.488 11.378C204.232 11.998 204.645 12.804 204.728 13.796C204.811 14.7467 204.542 15.6147 203.922 16.4L202.93 17.64C202.31 18.384 201.525 18.7973 200.574 18.88C199.623 18.9213 198.776 18.632 198.032 18.012C196.296 16.5653 194.663 15.2633 193.134 14.106ZM190.468 28.056C189.724 27.4773 189.311 26.7127 189.228 25.762C189.145 24.8113 189.414 23.9847 190.034 23.282L190.964 22.228C191.625 21.484 192.431 21.05 193.382 20.926C194.333 20.802 195.201 21.05 195.986 21.67C198.135 23.3647 200.181 25.0387 202.124 26.692C202.868 27.3533 203.261 28.18 203.302 29.172C203.343 30.164 203.054 31.032 202.434 31.776L201.442 32.954C200.822 33.6567 200.037 34.0493 199.086 34.132C198.135 34.2147 197.309 33.946 196.606 33.326C194.291 31.218 192.245 29.4613 190.468 28.056ZM201.194 38.472L202.62 39.03C203.571 39.3607 204.273 39.9807 204.728 40.89C205.183 41.758 205.265 42.6673 204.976 43.618C203.323 48.95 201.235 53.972 198.714 58.684C198.259 59.552 197.536 60.0893 196.544 60.296C195.593 60.544 194.725 60.3993 193.94 59.862L192.142 58.746C191.315 58.2087 190.778 57.4647 190.53 56.514C190.323 55.6047 190.447 54.716 190.902 53.848C193.01 49.9213 194.953 45.4987 196.73 40.58C197.061 39.6707 197.66 39.0093 198.528 38.596C199.396 38.1827 200.285 38.1413 201.194 38.472ZM227.11 35.868C225.498 40.828 223.783 45.54 221.964 50.004C221.881 50.2933 221.985 50.438 222.274 50.438C227.027 50.1073 230.479 49.8387 232.628 49.632C233 49.632 233.103 49.4667 232.938 49.136C231.615 46.16 230.809 44.3827 230.52 43.804C230.107 42.936 230.065 42.068 230.396 41.2C230.727 40.332 231.347 39.7327 232.256 39.402L234.488 38.596C235.439 38.2653 236.369 38.286 237.278 38.658C238.229 38.9887 238.911 39.6087 239.324 40.518C241.845 45.8087 244.119 50.8307 246.144 55.584C246.516 56.452 246.516 57.32 246.144 58.188C245.772 59.0973 245.131 59.7173 244.222 60.048L241.99 60.854C241.081 61.1847 240.171 61.164 239.262 60.792C238.353 60.42 237.691 59.7793 237.278 58.87L236.906 57.94C236.741 57.6507 236.513 57.506 236.224 57.506C225.767 58.5807 216.281 59.2833 207.766 59.614C206.774 59.6553 205.906 59.3453 205.162 58.684C204.418 58.0227 204.025 57.196 203.984 56.204L203.922 54.902C203.839 53.9513 204.108 53.1247 204.728 52.422C205.389 51.7193 206.195 51.3473 207.146 51.306C207.477 51.2647 207.993 51.2233 208.696 51.182C209.399 51.1407 209.915 51.12 210.246 51.12C210.618 51.12 210.866 50.9753 210.99 50.686C212.933 46.222 214.793 41.3033 216.57 35.93C216.653 35.558 216.549 35.372 216.26 35.372H208.014C207.063 35.372 206.237 35.0413 205.534 34.38C204.873 33.6773 204.542 32.8507 204.542 31.9V30.598C204.542 29.6473 204.873 28.8207 205.534 28.118C206.237 27.4153 207.063 27.064 208.014 27.064H219.794C220.166 27.064 220.352 26.8987 220.352 26.568V19.81C220.352 19.438 220.166 19.252 219.794 19.252H210.804C209.853 19.252 209.027 18.9213 208.324 18.26C207.621 17.5573 207.27 16.7307 207.27 15.78V14.726C207.27 13.7753 207.621 12.9487 208.324 12.246C209.027 11.5433 209.853 11.192 210.804 11.192H219.794C220.166 11.192 220.352 11.0267 220.352 10.696V8.588C220.352 7.63733 220.683 6.81067 221.344 6.108C222.047 5.40533 222.873 5.054 223.824 5.054H226.676C227.627 5.054 228.453 5.40533 229.156 6.108C229.859 6.81067 230.21 7.63733 230.21 8.588V10.696C230.21 11.0267 230.375 11.192 230.706 11.192H240.874C241.825 11.192 242.651 11.5433 243.354 12.246C244.057 12.9487 244.408 13.7753 244.408 14.726V15.78C244.408 16.7307 244.057 17.5573 243.354 18.26C242.651 18.9213 241.825 19.252 240.874 19.252H230.706C230.375 19.252 230.21 19.438 230.21 19.81V26.568C230.21 26.8987 230.375 27.064 230.706 27.064H243.664C244.615 27.064 245.441 27.4153 246.144 28.118C246.847 28.8207 247.198 29.6473 247.198 30.598V31.9C247.198 32.8507 246.847 33.6773 246.144 34.38C245.441 35.0413 244.615 35.372 243.664 35.372H227.792C227.461 35.372 227.234 35.5373 227.11 35.868Z" fill="white"/>
<path d="M7.56792 59.49L5.27392 56.452C3.90992 54.6333 3.64126 52.608 4.46792 50.376C5.37726 47.8133 5.97659 44.8787 6.26592 41.572C6.59659 38.224 6.76192 32.892 6.76192 25.576V13.362C6.76192 12.4113 7.11326 11.5847 7.81592 10.882C8.51859 10.1793 9.34526 9.828 10.2959 9.828H28.8339C29.1646 9.828 29.3299 9.642 29.3299 9.27V7.472C29.3299 6.52133 29.6813 5.71533 30.3839 5.054C31.0866 4.35133 31.9133 4 32.8639 4H35.9639C36.9146 4 37.7413 4.35133 38.4439 5.054C39.1466 5.71533 39.4979 6.52133 39.4979 7.472V9.27C39.4979 9.642 39.6633 9.828 39.9939 9.828H57.1679C58.1186 9.828 58.9246 10.1793 59.5859 10.882C60.2886 11.5847 60.6399 12.4113 60.6399 13.362V14.354C60.6399 15.3047 60.2886 16.1313 59.5859 16.834C58.9246 17.5367 58.1186 17.888 57.1679 17.888H36.6459C36.6046 17.888 36.5839 17.9087 36.5839 17.95C36.5839 17.9913 36.6046 18.012 36.6459 18.012C40.5726 18.9627 44.4166 20.1613 48.1779 21.608C49.0873 21.9387 49.7279 22.5587 50.0999 23.468C50.4719 24.336 50.4719 25.2247 50.0999 26.134L49.6039 27.25C49.2319 28.1593 48.5913 28.8 47.6819 29.172C46.8139 29.5027 45.9253 29.5027 45.0159 29.172C40.4693 27.436 35.2199 25.886 29.2679 24.522C28.3586 24.3153 27.6766 23.8193 27.2219 23.034C26.7673 22.2073 26.6846 21.36 26.9739 20.492L27.2219 19.748C27.3873 19.2933 27.6973 18.7973 28.1519 18.26C28.2346 18.1773 28.2553 18.0947 28.2139 18.012C28.1726 17.9293 28.1106 17.888 28.0279 17.888H16.4959C16.1653 17.888 15.9999 18.0533 15.9999 18.384V33.078C15.9999 38.8233 15.6693 43.6593 15.0079 47.586H15.0699C15.8553 44.486 16.7026 40.394 17.6119 35.31C17.7773 34.3593 18.2526 33.6153 19.0379 33.078C19.8233 32.4993 20.6913 32.3133 21.6419 32.52L23.1299 32.768C24.0806 32.9747 24.8453 33.4707 25.4239 34.256C26.0439 35.0413 26.2713 35.93 26.1059 36.922C25.0313 43.9487 23.6259 50.2313 21.8899 55.77C21.6006 56.6793 21.0219 57.32 20.1539 57.692C19.2859 58.1053 18.4179 58.126 17.5499 57.754L15.8759 57.01C14.6773 56.514 13.9333 55.584 13.6439 54.22C13.6026 54.1787 13.5199 54.1993 13.3959 54.282C12.8999 55.8113 12.2386 57.4233 11.4119 59.118C11.0399 59.862 10.4199 60.2753 9.55193 60.358C8.72526 60.4407 8.06392 60.1513 7.56792 59.49ZM52.9519 31.466C53.9026 31.1353 54.8119 31.1767 55.6799 31.59C56.5893 32.0033 57.2093 32.6647 57.5399 33.574C59.5239 39.0713 61.2599 45.354 62.7479 52.422C62.9546 53.3727 62.7893 54.282 62.2519 55.15C61.7146 55.9767 60.9706 56.5347 60.0199 56.824L57.6639 57.506C56.7546 57.754 55.9073 57.63 55.1219 57.134C54.3366 56.638 53.8406 55.9147 53.6339 54.964C53.1379 52.36 52.5799 49.9007 51.9599 47.586C51.9599 47.5447 51.9393 47.524 51.8979 47.524C51.8566 47.524 51.8359 47.5447 51.8359 47.586C51.7533 49.942 51.6293 51.8433 51.4639 53.29C51.3399 54.6953 51.0506 55.956 50.5959 57.072C50.1826 58.2293 49.7486 59.056 49.2939 59.552C48.8806 60.048 48.1366 60.4613 47.0619 60.792C45.9873 61.1227 44.9126 61.3087 43.8379 61.35C42.8046 61.4327 41.2753 61.474 39.2499 61.474C37.1419 61.474 35.5299 61.4533 34.4139 61.412C33.3393 61.412 32.2646 61.288 31.1899 61.04C30.1566 60.792 29.4539 60.544 29.0819 60.296C28.7099 60.048 28.3586 59.552 28.0279 58.808C27.7386 58.064 27.5733 57.32 27.5319 56.576C27.4906 55.832 27.4699 54.716 27.4699 53.228V30.908C27.4699 29.9573 27.8006 29.1307 28.4619 28.428C29.1646 27.7253 29.9913 27.374 30.9419 27.374H33.7939C34.7446 27.374 35.5713 27.7253 36.2739 28.428C36.9766 29.1307 37.3279 29.9573 37.3279 30.908V51.12C37.3279 52.0293 37.4313 52.5667 37.6379 52.732C37.8446 52.8973 38.5679 52.98 39.8079 52.98C40.6346 52.98 41.2133 52.9593 41.5439 52.918C41.8746 52.8353 42.1846 52.546 42.4739 52.05C42.7633 51.554 42.9286 50.8927 42.9699 50.066C43.0526 49.2393 43.1146 47.9167 43.1559 46.098C43.1973 45.1473 43.5693 44.3827 44.2719 43.804C45.0159 43.184 45.8426 42.936 46.7519 43.06L50.4099 43.494C50.7406 43.494 50.8646 43.3493 50.7819 43.06C50.1206 40.7453 49.4386 38.596 48.7359 36.612C48.4053 35.7027 48.4466 34.814 48.8599 33.946C49.2733 33.0367 49.9346 32.4373 50.8439 32.148L52.9519 31.466Z" stroke="black" stroke-width="8" mask="url(#path-1-outside-1_441_2480)"/>
<path d="M66.2199 49.198L65.8479 48.33C65.4759 47.462 65.4759 46.6147 65.8479 45.788C66.2613 44.9613 66.9226 44.3827 67.8319 44.052C70.1053 43.2253 72.4199 42.2127 74.7759 41.014C74.7759 40.9313 74.7346 40.8693 74.6519 40.828H69.4439C68.5759 40.828 67.8319 40.518 67.2119 39.898C66.5919 39.278 66.2819 38.534 66.2819 37.666C66.2819 36.798 66.5919 36.054 67.2119 35.434C67.8319 34.814 68.5759 34.504 69.4439 34.504H82.8359C83.1666 34.504 83.4766 34.3593 83.7659 34.07C83.8073 34.0287 83.8693 33.9667 83.9519 33.884C84.0346 33.76 84.0966 33.6773 84.1379 33.636C84.3446 33.3467 84.2826 33.202 83.9519 33.202H74.8379C73.8873 33.202 73.0606 32.8713 72.3579 32.21C71.6966 31.5073 71.3659 30.6807 71.3659 29.73V19.686C71.3659 18.7353 71.6966 17.9087 72.3579 17.206C73.0606 16.5033 73.8873 16.152 74.8379 16.152H78.2479C78.6199 16.152 78.8059 15.9867 78.8059 15.656V15.16C78.8059 14.788 78.6199 14.602 78.2479 14.602H69.7539C68.8033 14.602 67.9766 14.2713 67.2739 13.61C66.6126 12.9487 66.2819 12.1427 66.2819 11.192C66.2819 10.2413 66.6126 9.43533 67.2739 8.774C67.9766 8.07133 68.8033 7.72 69.7539 7.72H78.3099C78.6406 7.72 78.8059 7.55467 78.8059 7.224C78.8059 6.39733 79.0746 5.71533 79.6119 5.178C80.1906 4.59933 80.8933 4.31 81.7199 4.31H85.4399C86.2666 4.31 86.9693 4.59933 87.5479 5.178C88.1266 5.75667 88.4159 6.43867 88.4159 7.224C88.4159 7.55467 88.5606 7.72 88.8499 7.72H100.134C100.423 7.72 100.568 7.55467 100.568 7.224C100.568 6.43867 100.857 5.75667 101.436 5.178C102.015 4.59933 102.717 4.31 103.544 4.31H107.264C108.091 4.31 108.773 4.59933 109.31 5.178C109.889 5.71533 110.178 6.39733 110.178 7.224C110.178 7.55467 110.323 7.72 110.612 7.72H119.23C120.181 7.72 120.987 8.07133 121.648 8.774C122.351 9.43533 122.702 10.2413 122.702 11.192C122.702 12.1427 122.351 12.9487 121.648 13.61C120.987 14.2713 120.181 14.602 119.23 14.602H110.736C110.364 14.602 110.178 14.788 110.178 15.16V15.656C110.178 15.9867 110.364 16.152 110.736 16.152H114.146C115.097 16.152 115.903 16.5033 116.564 17.206C117.267 17.9087 117.618 18.7353 117.618 19.686V29.73C117.618 30.6807 117.267 31.5073 116.564 32.21C115.903 32.8713 115.097 33.202 114.146 33.202H95.2359C94.9053 33.202 94.6159 33.3673 94.3679 33.698C94.3266 33.7393 94.2646 33.822 94.1819 33.946C94.1406 34.0287 94.0993 34.0907 94.0579 34.132C93.8926 34.38 93.9753 34.504 94.3059 34.504H119.54C120.408 34.504 121.152 34.814 121.772 35.434C122.392 36.054 122.702 36.798 122.702 37.666C122.702 38.534 122.392 39.278 121.772 39.898C121.152 40.518 120.408 40.828 119.54 40.828H114.27C114.229 40.828 114.208 40.8693 114.208 40.952C114.208 40.9933 114.229 41.0347 114.27 41.076C116.295 42.1507 118.61 43.1427 121.214 44.052C122.082 44.3827 122.702 44.9613 123.074 45.788C123.487 46.6147 123.508 47.462 123.136 48.33L122.764 49.198C122.392 50.1073 121.751 50.7687 120.842 51.182C119.933 51.554 119.023 51.554 118.114 51.182C117.99 51.1407 117.804 51.0787 117.556 50.996C117.308 50.872 117.122 50.7893 116.998 50.748C116.667 50.5827 116.502 50.686 116.502 51.058C116.13 55.522 115.303 58.4153 114.022 59.738C112.782 61.0607 110.447 61.722 107.016 61.722C105.156 61.722 102.862 61.66 100.134 61.536C99.1419 61.4947 98.2739 61.102 97.5299 60.358C96.8273 59.6553 96.4346 58.808 96.3519 57.816L96.2899 56.886C96.2486 55.9353 96.5586 55.1293 97.2199 54.468C97.8813 53.8067 98.6666 53.5173 99.5759 53.6C100.899 53.6827 102.511 53.724 104.412 53.724C105.156 53.724 105.611 53.6207 105.776 53.414C105.983 53.2073 106.148 52.608 106.272 51.616C106.355 51.244 106.21 51.058 105.838 51.058H96.5379C96.2486 51.058 95.9593 51.2027 95.6699 51.492C91.8673 56.2453 84.9853 59.738 75.0239 61.97C73.9906 62.1767 72.9986 62.0527 72.0479 61.598C71.1386 61.1847 70.4359 60.5027 69.9399 59.552L69.3819 58.498C68.9686 57.7127 68.9686 56.948 69.3819 56.204C69.7953 55.46 70.4153 55.0053 71.2419 54.84C76.8633 53.9307 81.0379 52.7527 83.7659 51.306C83.8073 51.2647 83.8279 51.2233 83.8279 51.182C83.8279 51.0993 83.7866 51.058 83.7039 51.058H79.7979C78.3513 51.058 77.3179 50.438 76.6979 49.198C76.5326 48.8673 76.3053 48.7847 76.0159 48.95C75.0239 49.446 73.2879 50.19 70.8079 51.182C69.8986 51.554 68.9893 51.554 68.0799 51.182C67.2119 50.7687 66.5919 50.1073 66.2199 49.198ZM88.4159 15.16V15.656C88.4159 15.9867 88.5813 16.152 88.9119 16.152H100.072C100.403 16.152 100.568 15.9867 100.568 15.656V15.16C100.568 14.788 100.403 14.602 100.072 14.602H88.9119C88.5813 14.602 88.4159 14.788 88.4159 15.16ZM81.2239 21.36V22.042C81.2239 22.414 81.3893 22.6 81.7199 22.6H107.264C107.595 22.6 107.76 22.414 107.76 22.042V21.36C107.76 20.988 107.595 20.802 107.264 20.802H81.7199C81.3893 20.802 81.2239 20.988 81.2239 21.36ZM81.7199 28.366H107.264C107.595 28.366 107.76 28.18 107.76 27.808V27.126C107.76 26.7953 107.595 26.63 107.264 26.63H81.7199C81.3893 26.63 81.2239 26.7953 81.2239 27.126V27.808C81.2239 28.18 81.3893 28.366 81.7199 28.366ZM87.7339 41.2C86.3286 42.44 85.2746 43.308 84.5719 43.804C84.4893 43.8867 84.4479 43.9693 84.4479 44.052C84.4893 44.0933 84.5513 44.114 84.6339 44.114H89.4079C89.6146 44.114 89.7386 44.0313 89.7799 43.866C89.9039 43.2873 90.1726 42.812 90.5859 42.44C91.0406 42.0267 91.5366 41.82 92.0739 41.82H97.4679C98.0053 41.82 98.4393 42.0267 98.7699 42.44C99.1419 42.8533 99.2866 43.3287 99.2039 43.866C99.2039 44.0313 99.2866 44.114 99.4519 44.114H104.412C104.495 44.114 104.536 44.0933 104.536 44.052C104.577 43.9693 104.557 43.8867 104.474 43.804C102.986 42.6467 101.932 41.7787 101.312 41.2C101.064 40.952 100.754 40.828 100.382 40.828H88.6639C88.2919 40.828 87.9819 40.952 87.7339 41.2Z" stroke="black" stroke-width="8" mask="url(#path-1-outside-1_441_2480)"/>
<path d="M131.01 20.492C130.059 20.492 129.233 20.1407 128.53 19.438C127.827 18.7353 127.476 17.9087 127.476 16.958V15.656C127.476 14.7053 127.827 13.8787 128.53 13.176C129.233 12.4733 130.059 12.122 131.01 12.122H150.23C150.561 12.122 150.726 11.9567 150.726 11.626V8.092C150.726 7.14134 151.077 6.33534 151.78 5.674C152.483 4.97133 153.309 4.62 154.26 4.62H157.36C158.311 4.62 159.137 4.97133 159.84 5.674C160.543 6.33534 160.894 7.14134 160.894 8.092V11.626C160.894 11.9567 161.059 12.122 161.39 12.122H180.61C181.561 12.122 182.387 12.4733 183.09 13.176C183.793 13.8787 184.144 14.7053 184.144 15.656V16.958C184.144 17.9087 183.793 18.7353 183.09 19.438C182.387 20.1407 181.561 20.492 180.61 20.492H153.33C152.999 20.492 152.834 20.6573 152.834 20.988C152.834 23.0547 152.772 25.018 152.648 26.878C152.648 27.2087 152.813 27.374 153.144 27.374H175.464C176.415 27.374 177.241 27.7253 177.944 28.428C178.647 29.1307 178.998 29.9573 178.998 30.908V34.008C178.998 38.1827 178.936 41.6753 178.812 44.486C178.688 47.2553 178.419 49.694 178.006 51.802C177.593 53.8687 177.117 55.46 176.58 56.576C176.043 57.692 175.257 58.5807 174.224 59.242C173.191 59.9033 172.095 60.3167 170.938 60.482C169.822 60.6887 168.334 60.792 166.474 60.792C164.779 60.792 161.473 60.6473 156.554 60.358C155.521 60.2753 154.632 59.8827 153.888 59.18C153.185 58.5187 152.813 57.6713 152.772 56.638L152.648 54.84C152.607 53.9307 152.917 53.1453 153.578 52.484C154.239 51.7813 155.045 51.4713 155.996 51.554C159.468 51.802 162.279 51.926 164.428 51.926C165.709 51.926 166.639 51.616 167.218 50.996C167.838 50.3347 168.313 48.9087 168.644 46.718C168.975 44.486 169.14 41.0553 169.14 36.426V36.24C169.14 35.868 168.954 35.682 168.582 35.682H152.214C151.883 35.682 151.677 35.8473 151.594 36.178C150.643 41.262 148.99 45.6433 146.634 49.322C144.319 52.9593 141.033 56.4727 136.776 59.862C135.991 60.482 135.102 60.73 134.11 60.606C133.159 60.5233 132.353 60.11 131.692 59.366L129.708 57.134C129.088 56.4727 128.819 55.6667 128.902 54.716C128.985 53.7653 129.398 53.0213 130.142 52.484C133.531 49.9213 136.094 47.3587 137.83 44.796C139.566 42.192 140.785 39.092 141.488 35.496C142.232 31.8587 142.625 27.0433 142.666 21.05C142.666 20.678 142.501 20.492 142.17 20.492H131.01Z" stroke="black" stroke-width="8" mask="url(#path-1-outside-1_441_2480)"/>
<path d="M193.134 14.106C192.39 13.5273 191.956 12.7627 191.832 11.812C191.708 10.8613 191.956 10.014 192.576 9.27L193.444 8.216C194.105 7.43067 194.911 6.976 195.862 6.852C196.854 6.728 197.763 6.95534 198.59 7.534C200.037 8.56733 201.669 9.84867 203.488 11.378C204.232 11.998 204.645 12.804 204.728 13.796C204.811 14.7467 204.542 15.6147 203.922 16.4L202.93 17.64C202.31 18.384 201.525 18.7973 200.574 18.88C199.623 18.9213 198.776 18.632 198.032 18.012C196.296 16.5653 194.663 15.2633 193.134 14.106ZM190.468 28.056C189.724 27.4773 189.311 26.7127 189.228 25.762C189.145 24.8113 189.414 23.9847 190.034 23.282L190.964 22.228C191.625 21.484 192.431 21.05 193.382 20.926C194.333 20.802 195.201 21.05 195.986 21.67C198.135 23.3647 200.181 25.0387 202.124 26.692C202.868 27.3533 203.261 28.18 203.302 29.172C203.343 30.164 203.054 31.032 202.434 31.776L201.442 32.954C200.822 33.6567 200.037 34.0493 199.086 34.132C198.135 34.2147 197.309 33.946 196.606 33.326C194.291 31.218 192.245 29.4613 190.468 28.056ZM201.194 38.472L202.62 39.03C203.571 39.3607 204.273 39.9807 204.728 40.89C205.183 41.758 205.265 42.6673 204.976 43.618C203.323 48.95 201.235 53.972 198.714 58.684C198.259 59.552 197.536 60.0893 196.544 60.296C195.593 60.544 194.725 60.3993 193.94 59.862L192.142 58.746C191.315 58.2087 190.778 57.4647 190.53 56.514C190.323 55.6047 190.447 54.716 190.902 53.848C193.01 49.9213 194.953 45.4987 196.73 40.58C197.061 39.6707 197.66 39.0093 198.528 38.596C199.396 38.1827 200.285 38.1413 201.194 38.472ZM227.11 35.868C225.498 40.828 223.783 45.54 221.964 50.004C221.881 50.2933 221.985 50.438 222.274 50.438C227.027 50.1073 230.479 49.8387 232.628 49.632C233 49.632 233.103 49.4667 232.938 49.136C231.615 46.16 230.809 44.3827 230.52 43.804C230.107 42.936 230.065 42.068 230.396 41.2C230.727 40.332 231.347 39.7327 232.256 39.402L234.488 38.596C235.439 38.2653 236.369 38.286 237.278 38.658C238.229 38.9887 238.911 39.6087 239.324 40.518C241.845 45.8087 244.119 50.8307 246.144 55.584C246.516 56.452 246.516 57.32 246.144 58.188C245.772 59.0973 245.131 59.7173 244.222 60.048L241.99 60.854C241.081 61.1847 240.171 61.164 239.262 60.792C238.353 60.42 237.691 59.7793 237.278 58.87L236.906 57.94C236.741 57.6507 236.513 57.506 236.224 57.506C225.767 58.5807 216.281 59.2833 207.766 59.614C206.774 59.6553 205.906 59.3453 205.162 58.684C204.418 58.0227 204.025 57.196 203.984 56.204L203.922 54.902C203.839 53.9513 204.108 53.1247 204.728 52.422C205.389 51.7193 206.195 51.3473 207.146 51.306C207.477 51.2647 207.993 51.2233 208.696 51.182C209.399 51.1407 209.915 51.12 210.246 51.12C210.618 51.12 210.866 50.9753 210.99 50.686C212.933 46.222 214.793 41.3033 216.57 35.93C216.653 35.558 216.549 35.372 216.26 35.372H208.014C207.063 35.372 206.237 35.0413 205.534 34.38C204.873 33.6773 204.542 32.8507 204.542 31.9V30.598C204.542 29.6473 204.873 28.8207 205.534 28.118C206.237 27.4153 207.063 27.064 208.014 27.064H219.794C220.166 27.064 220.352 26.8987 220.352 26.568V19.81C220.352 19.438 220.166 19.252 219.794 19.252H210.804C209.853 19.252 209.027 18.9213 208.324 18.26C207.621 17.5573 207.27 16.7307 207.27 15.78V14.726C207.27 13.7753 207.621 12.9487 208.324 12.246C209.027 11.5433 209.853 11.192 210.804 11.192H219.794C220.166 11.192 220.352 11.0267 220.352 10.696V8.588C220.352 7.63733 220.683 6.81067 221.344 6.108C222.047 5.40533 222.873 5.054 223.824 5.054H226.676C227.627 5.054 228.453 5.40533 229.156 6.108C229.859 6.81067 230.21 7.63733 230.21 8.588V10.696C230.21 11.0267 230.375 11.192 230.706 11.192H240.874C241.825 11.192 242.651 11.5433 243.354 12.246C244.057 12.9487 244.408 13.7753 244.408 14.726V15.78C244.408 16.7307 244.057 17.5573 243.354 18.26C242.651 18.9213 241.825 19.252 240.874 19.252H230.706C230.375 19.252 230.21 19.438 230.21 19.81V26.568C230.21 26.8987 230.375 27.064 230.706 27.064H243.664C244.615 27.064 245.441 27.4153 246.144 28.118C246.847 28.8207 247.198 29.6473 247.198 30.598V31.9C247.198 32.8507 246.847 33.6773 246.144 34.38C245.441 35.0413 244.615 35.372 243.664 35.372H227.792C227.461 35.372 227.234 35.5373 227.11 35.868Z" stroke="black" stroke-width="8" mask="url(#path-1-outside-1_441_2480)"/>
</svg>
