<svg width="250" height="67" viewBox="0 0 250 67" fill="none" xmlns="http://www.w3.org/2000/svg">
<mask id="path-1-outside-1_324_1855" maskUnits="userSpaceOnUse" x="0.0664062" y="0.0440063" width="250" height="67" fill="black">
<rect fill="white" x="0.0664062" y="0.0440063" width="250" height="67"/>
<path d="M7.63433 59.534L5.34033 56.496C3.97633 54.6773 3.70766 52.652 4.53433 50.42C5.44366 47.8573 6.043 44.9227 6.33233 41.616C6.663 38.268 6.82833 32.936 6.82833 25.62V13.406C6.82833 12.4553 7.17966 11.6287 7.88233 10.926C8.585 10.2233 9.41166 9.87201 10.3623 9.87201H28.9003C29.231 9.87201 29.3963 9.68601 29.3963 9.31401V7.51601C29.3963 6.56534 29.7477 5.75934 30.4503 5.09801C31.153 4.39534 31.9797 4.04401 32.9303 4.04401H36.0303C36.981 4.04401 37.8077 4.39534 38.5103 5.09801C39.213 5.75934 39.5643 6.56534 39.5643 7.51601V9.31401C39.5643 9.68601 39.7297 9.87201 40.0603 9.87201H57.2343C58.185 9.87201 58.991 10.2233 59.6523 10.926C60.355 11.6287 60.7063 12.4553 60.7063 13.406V14.398C60.7063 15.3487 60.355 16.1753 59.6523 16.878C58.991 17.5807 58.185 17.932 57.2343 17.932H36.7123C36.671 17.932 36.6503 17.9527 36.6503 17.994C36.6503 18.0353 36.671 18.056 36.7123 18.056C40.639 19.0067 44.483 20.2053 48.2443 21.652C49.1537 21.9827 49.7943 22.6027 50.1663 23.512C50.5383 24.38 50.5383 25.2687 50.1663 26.178L49.6703 27.294C49.2983 28.2033 48.6577 28.844 47.7483 29.216C46.8803 29.5467 45.9917 29.5467 45.0823 29.216C40.5357 27.48 35.2863 25.93 29.3343 24.566C28.425 24.3593 27.743 23.8633 27.2883 23.078C26.8337 22.2513 26.751 21.404 27.0403 20.536L27.2883 19.792C27.4537 19.3373 27.7637 18.8413 28.2183 18.304C28.301 18.2213 28.3217 18.1387 28.2803 18.056C28.239 17.9733 28.177 17.932 28.0943 17.932H16.5623C16.2317 17.932 16.0663 18.0973 16.0663 18.428V33.122C16.0663 38.8673 15.7357 43.7033 15.0743 47.63H15.1363C15.9217 44.53 16.769 40.438 17.6783 35.354C17.8437 34.4033 18.319 33.6593 19.1043 33.122C19.8897 32.5433 20.7577 32.3573 21.7083 32.564L23.1963 32.812C24.147 33.0187 24.9117 33.5147 25.4903 34.3C26.1103 35.0853 26.3377 35.974 26.1723 36.966C25.0977 43.9927 23.6923 50.2753 21.9563 55.814C21.667 56.7233 21.0883 57.364 20.2203 57.736C19.3523 58.1493 18.4843 58.17 17.6163 57.798L15.9423 57.054C14.7437 56.558 13.9997 55.628 13.7103 54.264C13.669 54.2227 13.5863 54.2433 13.4623 54.326C12.9663 55.8553 12.305 57.4673 11.4783 59.162C11.1063 59.906 10.4863 60.3193 9.61833 60.402C8.79166 60.4847 8.13033 60.1953 7.63433 59.534ZM53.0183 31.51C53.969 31.1793 54.8783 31.2207 55.7463 31.634C56.6557 32.0473 57.2757 32.7087 57.6063 33.618C59.5903 39.1153 61.3263 45.398 62.8143 52.466C63.021 53.4167 62.8557 54.326 62.3183 55.194C61.781 56.0207 61.037 56.5787 60.0863 56.868L57.7303 57.55C56.821 57.798 55.9737 57.674 55.1883 57.178C54.403 56.682 53.907 55.9587 53.7003 55.008C53.2043 52.404 52.6463 49.9447 52.0263 47.63C52.0263 47.5887 52.0057 47.568 51.9643 47.568C51.923 47.568 51.9023 47.5887 51.9023 47.63C51.8197 49.986 51.6957 51.8873 51.5303 53.334C51.4063 54.7393 51.117 56 50.6623 57.116C50.249 58.2733 49.815 59.1 49.3603 59.596C48.947 60.092 48.203 60.5053 47.1283 60.836C46.0537 61.1667 44.979 61.3527 43.9043 61.394C42.871 61.4767 41.3417 61.518 39.3163 61.518C37.2083 61.518 35.5963 61.4973 34.4803 61.456C33.4057 61.456 32.331 61.332 31.2563 61.084C30.223 60.836 29.5203 60.588 29.1483 60.34C28.7763 60.092 28.425 59.596 28.0943 58.852C27.805 58.108 27.6397 57.364 27.5983 56.62C27.557 55.876 27.5363 54.76 27.5363 53.272V30.952C27.5363 30.0013 27.867 29.1747 28.5283 28.472C29.231 27.7693 30.0577 27.418 31.0083 27.418H33.8603C34.811 27.418 35.6377 27.7693 36.3403 28.472C37.043 29.1747 37.3943 30.0013 37.3943 30.952V51.164C37.3943 52.0733 37.4977 52.6107 37.7043 52.776C37.911 52.9413 38.6343 53.024 39.8743 53.024C40.701 53.024 41.2797 53.0033 41.6103 52.962C41.941 52.8793 42.251 52.59 42.5403 52.094C42.8297 51.598 42.995 50.9367 43.0363 50.11C43.119 49.2833 43.181 47.9607 43.2223 46.142C43.2637 45.1913 43.6357 44.4267 44.3383 43.848C45.0823 43.228 45.909 42.98 46.8183 43.104L50.4763 43.538C50.807 43.538 50.931 43.3933 50.8483 43.104C50.187 40.7893 49.505 38.64 48.8023 36.656C48.4717 35.7467 48.513 34.858 48.9263 33.99C49.3397 33.0807 50.001 32.4813 50.9103 32.192L53.0183 31.51Z"/>
<path d="M66.2863 49.242L65.9143 48.374C65.5423 47.506 65.5423 46.6587 65.9143 45.832C66.3277 45.0053 66.989 44.4267 67.8983 44.096C70.1717 43.2693 72.4863 42.2567 74.8423 41.058C74.8423 40.9753 74.801 40.9133 74.7183 40.872H69.5103C68.6423 40.872 67.8983 40.562 67.2783 39.942C66.6583 39.322 66.3483 38.578 66.3483 37.71C66.3483 36.842 66.6583 36.098 67.2783 35.478C67.8983 34.858 68.6423 34.548 69.5103 34.548H82.9023C83.233 34.548 83.543 34.4033 83.8323 34.114C83.8737 34.0727 83.9357 34.0107 84.0183 33.928C84.101 33.804 84.163 33.7213 84.2043 33.68C84.411 33.3907 84.349 33.246 84.0183 33.246H74.9043C73.9537 33.246 73.127 32.9153 72.4243 32.254C71.763 31.5513 71.4323 30.7247 71.4323 29.774V19.73C71.4323 18.7793 71.763 17.9527 72.4243 17.25C73.127 16.5473 73.9537 16.196 74.9043 16.196H78.3143C78.6863 16.196 78.8723 16.0307 78.8723 15.7V15.204C78.8723 14.832 78.6863 14.646 78.3143 14.646H69.8203C68.8697 14.646 68.043 14.3153 67.3403 13.654C66.679 12.9927 66.3483 12.1867 66.3483 11.236C66.3483 10.2853 66.679 9.47934 67.3403 8.81801C68.043 8.11534 68.8697 7.76401 69.8203 7.76401H78.3763C78.707 7.76401 78.8723 7.59867 78.8723 7.26801C78.8723 6.44134 79.141 5.75934 79.6783 5.22201C80.257 4.64334 80.9597 4.35401 81.7863 4.35401H85.5063C86.333 4.35401 87.0357 4.64334 87.6143 5.22201C88.193 5.80067 88.4823 6.48267 88.4823 7.26801C88.4823 7.59867 88.627 7.76401 88.9163 7.76401H100.2C100.49 7.76401 100.634 7.59867 100.634 7.26801C100.634 6.48267 100.924 5.80067 101.502 5.22201C102.081 4.64334 102.784 4.35401 103.61 4.35401H107.33C108.157 4.35401 108.839 4.64334 109.376 5.22201C109.955 5.75934 110.244 6.44134 110.244 7.26801C110.244 7.59867 110.389 7.76401 110.678 7.76401H119.296C120.247 7.76401 121.053 8.11534 121.714 8.81801C122.417 9.47934 122.768 10.2853 122.768 11.236C122.768 12.1867 122.417 12.9927 121.714 13.654C121.053 14.3153 120.247 14.646 119.296 14.646H110.802C110.43 14.646 110.244 14.832 110.244 15.204V15.7C110.244 16.0307 110.43 16.196 110.802 16.196H114.212C115.163 16.196 115.969 16.5473 116.63 17.25C117.333 17.9527 117.684 18.7793 117.684 19.73V29.774C117.684 30.7247 117.333 31.5513 116.63 32.254C115.969 32.9153 115.163 33.246 114.212 33.246H95.3023C94.9717 33.246 94.6823 33.4113 94.4343 33.742C94.393 33.7833 94.331 33.866 94.2483 33.99C94.207 34.0727 94.1657 34.1347 94.1243 34.176C93.959 34.424 94.0417 34.548 94.3723 34.548H119.606C120.474 34.548 121.218 34.858 121.838 35.478C122.458 36.098 122.768 36.842 122.768 37.71C122.768 38.578 122.458 39.322 121.838 39.942C121.218 40.562 120.474 40.872 119.606 40.872H114.336C114.295 40.872 114.274 40.9133 114.274 40.996C114.274 41.0373 114.295 41.0787 114.336 41.12C116.362 42.1947 118.676 43.1867 121.28 44.096C122.148 44.4267 122.768 45.0053 123.14 45.832C123.554 46.6587 123.574 47.506 123.202 48.374L122.83 49.242C122.458 50.1513 121.818 50.8127 120.908 51.226C119.999 51.598 119.09 51.598 118.18 51.226C118.056 51.1847 117.87 51.1227 117.622 51.04C117.374 50.916 117.188 50.8333 117.064 50.792C116.734 50.6267 116.568 50.73 116.568 51.102C116.196 55.566 115.37 58.4593 114.088 59.782C112.848 61.1047 110.513 61.766 107.082 61.766C105.222 61.766 102.928 61.704 100.2 61.58C99.2083 61.5387 98.3403 61.146 97.5963 60.402C96.8937 59.6993 96.501 58.852 96.4183 57.86L96.3563 56.93C96.315 55.9793 96.625 55.1733 97.2863 54.512C97.9477 53.8507 98.733 53.5613 99.6423 53.644C100.965 53.7267 102.577 53.768 104.478 53.768C105.222 53.768 105.677 53.6647 105.842 53.458C106.049 53.2513 106.214 52.652 106.338 51.66C106.421 51.288 106.276 51.102 105.904 51.102H96.6043C96.315 51.102 96.0257 51.2467 95.7363 51.536C91.9337 56.2893 85.0517 59.782 75.0903 62.014C74.057 62.2207 73.065 62.0967 72.1143 61.642C71.205 61.2287 70.5023 60.5467 70.0063 59.596L69.4483 58.542C69.035 57.7567 69.035 56.992 69.4483 56.248C69.8617 55.504 70.4817 55.0493 71.3083 54.884C76.9297 53.9747 81.1043 52.7967 83.8323 51.35C83.8737 51.3087 83.8943 51.2673 83.8943 51.226C83.8943 51.1433 83.853 51.102 83.7703 51.102H79.8643C78.4177 51.102 77.3843 50.482 76.7643 49.242C76.599 48.9113 76.3717 48.8287 76.0823 48.994C75.0903 49.49 73.3543 50.234 70.8743 51.226C69.965 51.598 69.0557 51.598 68.1463 51.226C67.2783 50.8127 66.6583 50.1513 66.2863 49.242ZM88.4823 15.204V15.7C88.4823 16.0307 88.6477 16.196 88.9783 16.196H100.138C100.469 16.196 100.634 16.0307 100.634 15.7V15.204C100.634 14.832 100.469 14.646 100.138 14.646H88.9783C88.6477 14.646 88.4823 14.832 88.4823 15.204ZM81.2903 21.404V22.086C81.2903 22.458 81.4557 22.644 81.7863 22.644H107.33C107.661 22.644 107.826 22.458 107.826 22.086V21.404C107.826 21.032 107.661 20.846 107.33 20.846H81.7863C81.4557 20.846 81.2903 21.032 81.2903 21.404ZM81.7863 28.41H107.33C107.661 28.41 107.826 28.224 107.826 27.852V27.17C107.826 26.8393 107.661 26.674 107.33 26.674H81.7863C81.4557 26.674 81.2903 26.8393 81.2903 27.17V27.852C81.2903 28.224 81.4557 28.41 81.7863 28.41ZM87.8003 41.244C86.395 42.484 85.341 43.352 84.6383 43.848C84.5557 43.9307 84.5143 44.0133 84.5143 44.096C84.5557 44.1373 84.6177 44.158 84.7003 44.158H89.4743C89.681 44.158 89.805 44.0753 89.8463 43.91C89.9703 43.3313 90.239 42.856 90.6523 42.484C91.107 42.0707 91.603 41.864 92.1403 41.864H97.5343C98.0717 41.864 98.5057 42.0707 98.8363 42.484C99.2083 42.8973 99.353 43.3727 99.2703 43.91C99.2703 44.0753 99.353 44.158 99.5183 44.158H104.478C104.561 44.158 104.602 44.1373 104.602 44.096C104.644 44.0133 104.623 43.9307 104.54 43.848C103.052 42.6907 101.998 41.8227 101.378 41.244C101.13 40.996 100.82 40.872 100.448 40.872H88.7303C88.3583 40.872 88.0483 40.996 87.8003 41.244Z"/>
<path d="M130.58 47.32C129.63 47.32 128.803 46.9687 128.1 46.266C127.398 45.5633 127.046 44.7367 127.046 43.786V42.856C127.046 42.0707 127.315 41.4093 127.852 40.872C128.431 40.2933 129.134 40.004 129.96 40.004C130.25 40.004 130.394 39.8593 130.394 39.57V18.242C130.394 17.994 130.25 17.87 129.96 17.87C129.258 17.87 128.638 17.622 128.1 17.126C127.604 16.5887 127.356 15.9687 127.356 15.266V12.91C127.356 12.2073 127.604 11.5873 128.1 11.05C128.638 10.5127 129.258 10.244 129.96 10.244C130.25 10.244 130.394 10.12 130.394 9.87201V9.19001C130.394 8.23934 130.725 7.41267 131.386 6.71001C132.089 6.00734 132.916 5.65601 133.866 5.65601H136.222C137.173 5.65601 138 6.00734 138.702 6.71001C139.405 7.41267 139.756 8.23934 139.756 9.19001V9.74801C139.756 10.0787 139.922 10.244 140.252 10.244H145.212C145.543 10.244 145.708 10.0787 145.708 9.74801V9.19001C145.708 8.23934 146.06 7.41267 146.762 6.71001C147.465 6.00734 148.292 5.65601 149.242 5.65601H151.04C151.991 5.65601 152.818 6.00734 153.52 6.71001C154.223 7.41267 154.574 8.23934 154.574 9.19001V9.93401C154.574 10.1407 154.678 10.244 154.884 10.244C155.546 10.244 156.104 10.4713 156.558 10.926C157.013 11.3807 157.24 11.9387 157.24 12.6V15.514C157.24 16.1753 157.013 16.7333 156.558 17.188C156.104 17.6427 155.546 17.87 154.884 17.87C154.678 17.87 154.574 17.994 154.574 18.242V39.694C154.574 39.9007 154.678 40.004 154.884 40.004C155.463 40.004 155.959 40.2107 156.372 40.624C156.786 41.0373 156.992 41.5333 156.992 42.112V43.786C156.992 44.7367 156.641 45.5633 155.938 46.266C155.236 46.9687 154.409 47.32 153.458 47.32H152.032C151.702 47.32 151.64 47.4853 151.846 47.816C153.252 49.924 154.368 51.6807 155.194 53.086C155.36 53.2927 155.484 53.2513 155.566 52.962L155.752 52.404C156.91 49.6347 157.695 46.5347 158.108 43.104C158.563 39.6733 158.79 34.8373 158.79 28.596V10.244C158.79 9.29334 159.142 8.46667 159.844 7.76401C160.547 7.06134 161.374 6.71001 162.324 6.71001H180.242C181.193 6.71001 182.02 7.06134 182.722 7.76401C183.425 8.46667 183.776 9.29334 183.776 10.244V50.544C183.776 52.404 183.756 53.892 183.714 55.008C183.673 56.124 183.549 57.1367 183.342 58.046C183.136 58.9967 182.908 59.6787 182.66 60.092C182.412 60.5053 181.978 60.8567 181.358 61.146C180.78 61.4353 180.16 61.6007 179.498 61.642C178.878 61.7247 177.99 61.766 176.832 61.766C176.378 61.766 174.786 61.7247 172.058 61.642C171.066 61.6007 170.198 61.2287 169.454 60.526C168.71 59.8233 168.318 58.976 168.276 57.984L168.214 56.682C168.173 55.7727 168.483 55.008 169.144 54.388C169.806 53.7267 170.612 53.4167 171.562 53.458H172.182C173.216 53.458 173.815 53.3753 173.98 53.21C174.146 53.0033 174.228 52.342 174.228 51.226V43.972C174.228 43.6413 174.063 43.476 173.732 43.476H167.718C167.305 43.476 167.098 43.6413 167.098 43.972C166.52 49.8 165.259 54.822 163.316 59.038C162.944 59.8233 162.304 60.2987 161.394 60.464C160.526 60.6293 159.762 60.4227 159.1 59.844L156.93 57.922C156.724 57.798 156.558 57.6327 156.434 57.426C156.393 57.3433 156.31 57.302 156.186 57.302C156.062 57.302 155.98 57.3433 155.938 57.426C155.649 58.0873 155.132 58.6247 154.388 59.038L153.582 59.534C152.756 59.9887 151.867 60.0713 150.916 59.782C149.966 59.534 149.263 58.9967 148.808 58.17C147.734 56.31 146.721 54.6153 145.77 53.086C145.233 52.2593 145.068 51.3913 145.274 50.482C145.522 49.5727 146.06 48.8907 146.886 48.436L148.436 47.568C148.478 47.5267 148.498 47.4853 148.498 47.444C148.498 47.3613 148.457 47.32 148.374 47.32H137.772C137.69 47.32 137.648 47.3613 137.648 47.444C137.648 47.4853 137.669 47.5267 137.71 47.568L139.26 48.436C140.128 48.932 140.686 49.6553 140.934 50.606C141.224 51.5567 141.12 52.466 140.624 53.334C139.26 55.6487 137.731 57.86 136.036 59.968C135.416 60.7533 134.61 61.208 133.618 61.332C132.668 61.456 131.779 61.2287 130.952 60.65L130.022 59.968C129.237 59.4307 128.782 58.6867 128.658 57.736C128.576 56.7853 128.824 55.938 129.402 55.194C131.469 52.5487 133.164 50.0687 134.486 47.754C134.569 47.6713 134.569 47.5887 134.486 47.506C134.445 47.382 134.362 47.32 134.238 47.32H130.58ZM167.656 15.328V20.97C167.656 21.3007 167.822 21.466 168.152 21.466H173.732C174.063 21.466 174.228 21.3007 174.228 20.97V15.328C174.228 14.956 174.063 14.77 173.732 14.77H168.152C167.822 14.77 167.656 14.956 167.656 15.328ZM167.656 32.998C167.656 33.2873 167.636 33.7213 167.594 34.3C167.594 34.8373 167.594 35.23 167.594 35.478C167.594 35.85 167.76 36.036 168.09 36.036H173.732C174.063 36.036 174.228 35.8707 174.228 35.54V29.402C174.228 29.03 174.063 28.844 173.732 28.844H168.152C167.822 28.844 167.656 29.03 167.656 29.402V32.998ZM139.756 18.428V20.784C139.756 21.156 139.922 21.342 140.252 21.342H145.212C145.543 21.342 145.708 21.156 145.708 20.784V18.428C145.708 18.056 145.543 17.87 145.212 17.87H140.252C139.922 17.87 139.756 18.056 139.756 18.428ZM139.756 27.666V30.084C139.756 30.456 139.922 30.642 140.252 30.642H145.212C145.543 30.642 145.708 30.456 145.708 30.084V27.666C145.708 27.294 145.543 27.108 145.212 27.108H140.252C139.922 27.108 139.756 27.294 139.756 27.666ZM139.756 36.966V39.446C139.756 39.818 139.922 40.004 140.252 40.004H145.212C145.543 40.004 145.708 39.818 145.708 39.446V36.966C145.708 36.594 145.543 36.408 145.212 36.408H140.252C139.922 36.408 139.756 36.594 139.756 36.966Z"/>
<path d="M228.23 34.362C229.181 34.362 230.008 34.7133 230.71 35.416C231.413 36.1187 231.764 36.9453 231.764 37.896V53.086C231.764 53.458 231.95 53.644 232.322 53.644H233.562C234.926 53.644 235.732 53.5407 235.98 53.334C236.228 53.1273 236.352 52.404 236.352 51.164V32.068C236.352 31.696 236.166 31.51 235.794 31.51H222.588C221.638 31.51 220.811 31.1587 220.108 30.456C219.447 29.7533 219.116 28.9267 219.116 27.976V9.68601C219.116 8.73534 219.447 7.92934 220.108 7.26801C220.811 6.56534 221.638 6.21401 222.588 6.21401H242.242C243.193 6.21401 244.02 6.56534 244.722 7.26801C245.425 7.92934 245.776 8.73534 245.776 9.68601V50.482C245.776 52.3833 245.735 53.8713 245.652 54.946C245.611 56.0207 245.446 57.0333 245.156 57.984C244.867 58.9347 244.516 59.6167 244.102 60.03C243.73 60.4433 243.09 60.7947 242.18 61.084C241.271 61.3733 240.32 61.5387 239.328 61.58C238.336 61.6627 236.952 61.704 235.174 61.704C233.397 61.704 231.744 61.6627 230.214 61.58C229.305 61.5387 228.499 61.208 227.796 60.588C227.094 59.968 226.66 59.2033 226.494 58.294C226.412 57.922 226.226 57.736 225.936 57.736H212.606C212.4 57.736 212.296 57.8393 212.296 58.046C212.296 58.6247 212.09 59.1207 211.676 59.534C211.263 59.9473 210.788 60.154 210.25 60.154H207.77C206.82 60.154 205.993 59.8027 205.29 59.1C204.588 58.3973 204.236 57.5707 204.236 56.62V37.896C204.236 36.9453 204.588 36.1187 205.29 35.416C205.993 34.7133 206.82 34.362 207.77 34.362H228.23ZM226.556 13.964V15.638C226.556 16.01 226.742 16.196 227.114 16.196H235.794C236.166 16.196 236.352 16.01 236.352 15.638V13.964C236.352 13.592 236.166 13.406 235.794 13.406H227.114C226.742 13.406 226.556 13.592 226.556 13.964ZM235.794 25.124C236.166 25.124 236.352 24.938 236.352 24.566V22.892C236.352 22.5613 236.166 22.396 235.794 22.396H227.114C226.742 22.396 226.556 22.5613 226.556 22.892V24.566C226.556 24.938 226.742 25.124 227.114 25.124H235.794ZM223.704 51.164V49.552C223.704 49.18 223.518 48.994 223.146 48.994H212.854C212.482 48.994 212.296 49.18 212.296 49.552V51.164C212.296 51.536 212.482 51.722 212.854 51.722H223.146C223.518 51.722 223.704 51.536 223.704 51.164ZM223.704 42.732V41.182C223.704 40.81 223.518 40.624 223.146 40.624H212.854C212.482 40.624 212.296 40.81 212.296 41.182V42.732C212.296 43.0627 212.482 43.228 212.854 43.228H223.146C223.518 43.228 223.704 43.0627 223.704 42.732ZM193.758 61.828C192.808 61.828 191.981 61.4767 191.278 60.774C190.576 60.0713 190.224 59.2447 190.224 58.294V9.68601C190.224 8.73534 190.576 7.92934 191.278 7.26801C191.981 6.56534 192.808 6.21401 193.758 6.21401H212.792C213.743 6.21401 214.549 6.56534 215.21 7.26801C215.913 7.92934 216.264 8.73534 216.264 9.68601V27.976C216.264 28.9267 215.913 29.7533 215.21 30.456C214.549 31.1587 213.743 31.51 212.792 31.51H200.206C199.834 31.51 199.648 31.696 199.648 32.068V58.294C199.648 59.2447 199.297 60.0713 198.594 60.774C197.892 61.4767 197.065 61.828 196.114 61.828H193.758ZM199.648 13.964V15.638C199.648 16.01 199.834 16.196 200.206 16.196H208.266C208.638 16.196 208.824 16.01 208.824 15.638V13.964C208.824 13.592 208.638 13.406 208.266 13.406H200.206C199.834 13.406 199.648 13.592 199.648 13.964ZM199.648 22.892V24.566C199.648 24.938 199.834 25.124 200.206 25.124H208.266C208.638 25.124 208.824 24.938 208.824 24.566V22.892C208.824 22.5613 208.638 22.396 208.266 22.396H200.206C199.834 22.396 199.648 22.5613 199.648 22.892Z"/>
</mask>
<path d="M7.63433 59.534L5.34033 56.496C3.97633 54.6773 3.70766 52.652 4.53433 50.42C5.44366 47.8573 6.043 44.9227 6.33233 41.616C6.663 38.268 6.82833 32.936 6.82833 25.62V13.406C6.82833 12.4553 7.17966 11.6287 7.88233 10.926C8.585 10.2233 9.41166 9.87201 10.3623 9.87201H28.9003C29.231 9.87201 29.3963 9.68601 29.3963 9.31401V7.51601C29.3963 6.56534 29.7477 5.75934 30.4503 5.09801C31.153 4.39534 31.9797 4.04401 32.9303 4.04401H36.0303C36.981 4.04401 37.8077 4.39534 38.5103 5.09801C39.213 5.75934 39.5643 6.56534 39.5643 7.51601V9.31401C39.5643 9.68601 39.7297 9.87201 40.0603 9.87201H57.2343C58.185 9.87201 58.991 10.2233 59.6523 10.926C60.355 11.6287 60.7063 12.4553 60.7063 13.406V14.398C60.7063 15.3487 60.355 16.1753 59.6523 16.878C58.991 17.5807 58.185 17.932 57.2343 17.932H36.7123C36.671 17.932 36.6503 17.9527 36.6503 17.994C36.6503 18.0353 36.671 18.056 36.7123 18.056C40.639 19.0067 44.483 20.2053 48.2443 21.652C49.1537 21.9827 49.7943 22.6027 50.1663 23.512C50.5383 24.38 50.5383 25.2687 50.1663 26.178L49.6703 27.294C49.2983 28.2033 48.6577 28.844 47.7483 29.216C46.8803 29.5467 45.9917 29.5467 45.0823 29.216C40.5357 27.48 35.2863 25.93 29.3343 24.566C28.425 24.3593 27.743 23.8633 27.2883 23.078C26.8337 22.2513 26.751 21.404 27.0403 20.536L27.2883 19.792C27.4537 19.3373 27.7637 18.8413 28.2183 18.304C28.301 18.2213 28.3217 18.1387 28.2803 18.056C28.239 17.9733 28.177 17.932 28.0943 17.932H16.5623C16.2317 17.932 16.0663 18.0973 16.0663 18.428V33.122C16.0663 38.8673 15.7357 43.7033 15.0743 47.63H15.1363C15.9217 44.53 16.769 40.438 17.6783 35.354C17.8437 34.4033 18.319 33.6593 19.1043 33.122C19.8897 32.5433 20.7577 32.3573 21.7083 32.564L23.1963 32.812C24.147 33.0187 24.9117 33.5147 25.4903 34.3C26.1103 35.0853 26.3377 35.974 26.1723 36.966C25.0977 43.9927 23.6923 50.2753 21.9563 55.814C21.667 56.7233 21.0883 57.364 20.2203 57.736C19.3523 58.1493 18.4843 58.17 17.6163 57.798L15.9423 57.054C14.7437 56.558 13.9997 55.628 13.7103 54.264C13.669 54.2227 13.5863 54.2433 13.4623 54.326C12.9663 55.8553 12.305 57.4673 11.4783 59.162C11.1063 59.906 10.4863 60.3193 9.61833 60.402C8.79166 60.4847 8.13033 60.1953 7.63433 59.534ZM53.0183 31.51C53.969 31.1793 54.8783 31.2207 55.7463 31.634C56.6557 32.0473 57.2757 32.7087 57.6063 33.618C59.5903 39.1153 61.3263 45.398 62.8143 52.466C63.021 53.4167 62.8557 54.326 62.3183 55.194C61.781 56.0207 61.037 56.5787 60.0863 56.868L57.7303 57.55C56.821 57.798 55.9737 57.674 55.1883 57.178C54.403 56.682 53.907 55.9587 53.7003 55.008C53.2043 52.404 52.6463 49.9447 52.0263 47.63C52.0263 47.5887 52.0057 47.568 51.9643 47.568C51.923 47.568 51.9023 47.5887 51.9023 47.63C51.8197 49.986 51.6957 51.8873 51.5303 53.334C51.4063 54.7393 51.117 56 50.6623 57.116C50.249 58.2733 49.815 59.1 49.3603 59.596C48.947 60.092 48.203 60.5053 47.1283 60.836C46.0537 61.1667 44.979 61.3527 43.9043 61.394C42.871 61.4767 41.3417 61.518 39.3163 61.518C37.2083 61.518 35.5963 61.4973 34.4803 61.456C33.4057 61.456 32.331 61.332 31.2563 61.084C30.223 60.836 29.5203 60.588 29.1483 60.34C28.7763 60.092 28.425 59.596 28.0943 58.852C27.805 58.108 27.6397 57.364 27.5983 56.62C27.557 55.876 27.5363 54.76 27.5363 53.272V30.952C27.5363 30.0013 27.867 29.1747 28.5283 28.472C29.231 27.7693 30.0577 27.418 31.0083 27.418H33.8603C34.811 27.418 35.6377 27.7693 36.3403 28.472C37.043 29.1747 37.3943 30.0013 37.3943 30.952V51.164C37.3943 52.0733 37.4977 52.6107 37.7043 52.776C37.911 52.9413 38.6343 53.024 39.8743 53.024C40.701 53.024 41.2797 53.0033 41.6103 52.962C41.941 52.8793 42.251 52.59 42.5403 52.094C42.8297 51.598 42.995 50.9367 43.0363 50.11C43.119 49.2833 43.181 47.9607 43.2223 46.142C43.2637 45.1913 43.6357 44.4267 44.3383 43.848C45.0823 43.228 45.909 42.98 46.8183 43.104L50.4763 43.538C50.807 43.538 50.931 43.3933 50.8483 43.104C50.187 40.7893 49.505 38.64 48.8023 36.656C48.4717 35.7467 48.513 34.858 48.9263 33.99C49.3397 33.0807 50.001 32.4813 50.9103 32.192L53.0183 31.51Z" fill="white"/>
<path d="M66.2863 49.242L65.9143 48.374C65.5423 47.506 65.5423 46.6587 65.9143 45.832C66.3277 45.0053 66.989 44.4267 67.8983 44.096C70.1717 43.2693 72.4863 42.2567 74.8423 41.058C74.8423 40.9753 74.801 40.9133 74.7183 40.872H69.5103C68.6423 40.872 67.8983 40.562 67.2783 39.942C66.6583 39.322 66.3483 38.578 66.3483 37.71C66.3483 36.842 66.6583 36.098 67.2783 35.478C67.8983 34.858 68.6423 34.548 69.5103 34.548H82.9023C83.233 34.548 83.543 34.4033 83.8323 34.114C83.8737 34.0727 83.9357 34.0107 84.0183 33.928C84.101 33.804 84.163 33.7213 84.2043 33.68C84.411 33.3907 84.349 33.246 84.0183 33.246H74.9043C73.9537 33.246 73.127 32.9153 72.4243 32.254C71.763 31.5513 71.4323 30.7247 71.4323 29.774V19.73C71.4323 18.7793 71.763 17.9527 72.4243 17.25C73.127 16.5473 73.9537 16.196 74.9043 16.196H78.3143C78.6863 16.196 78.8723 16.0307 78.8723 15.7V15.204C78.8723 14.832 78.6863 14.646 78.3143 14.646H69.8203C68.8697 14.646 68.043 14.3153 67.3403 13.654C66.679 12.9927 66.3483 12.1867 66.3483 11.236C66.3483 10.2853 66.679 9.47934 67.3403 8.81801C68.043 8.11534 68.8697 7.76401 69.8203 7.76401H78.3763C78.707 7.76401 78.8723 7.59867 78.8723 7.26801C78.8723 6.44134 79.141 5.75934 79.6783 5.22201C80.257 4.64334 80.9597 4.35401 81.7863 4.35401H85.5063C86.333 4.35401 87.0357 4.64334 87.6143 5.22201C88.193 5.80067 88.4823 6.48267 88.4823 7.26801C88.4823 7.59867 88.627 7.76401 88.9163 7.76401H100.2C100.49 7.76401 100.634 7.59867 100.634 7.26801C100.634 6.48267 100.924 5.80067 101.502 5.22201C102.081 4.64334 102.784 4.35401 103.61 4.35401H107.33C108.157 4.35401 108.839 4.64334 109.376 5.22201C109.955 5.75934 110.244 6.44134 110.244 7.26801C110.244 7.59867 110.389 7.76401 110.678 7.76401H119.296C120.247 7.76401 121.053 8.11534 121.714 8.81801C122.417 9.47934 122.768 10.2853 122.768 11.236C122.768 12.1867 122.417 12.9927 121.714 13.654C121.053 14.3153 120.247 14.646 119.296 14.646H110.802C110.43 14.646 110.244 14.832 110.244 15.204V15.7C110.244 16.0307 110.43 16.196 110.802 16.196H114.212C115.163 16.196 115.969 16.5473 116.63 17.25C117.333 17.9527 117.684 18.7793 117.684 19.73V29.774C117.684 30.7247 117.333 31.5513 116.63 32.254C115.969 32.9153 115.163 33.246 114.212 33.246H95.3023C94.9717 33.246 94.6823 33.4113 94.4343 33.742C94.393 33.7833 94.331 33.866 94.2483 33.99C94.207 34.0727 94.1657 34.1347 94.1243 34.176C93.959 34.424 94.0417 34.548 94.3723 34.548H119.606C120.474 34.548 121.218 34.858 121.838 35.478C122.458 36.098 122.768 36.842 122.768 37.71C122.768 38.578 122.458 39.322 121.838 39.942C121.218 40.562 120.474 40.872 119.606 40.872H114.336C114.295 40.872 114.274 40.9133 114.274 40.996C114.274 41.0373 114.295 41.0787 114.336 41.12C116.362 42.1947 118.676 43.1867 121.28 44.096C122.148 44.4267 122.768 45.0053 123.14 45.832C123.554 46.6587 123.574 47.506 123.202 48.374L122.83 49.242C122.458 50.1513 121.818 50.8127 120.908 51.226C119.999 51.598 119.09 51.598 118.18 51.226C118.056 51.1847 117.87 51.1227 117.622 51.04C117.374 50.916 117.188 50.8333 117.064 50.792C116.734 50.6267 116.568 50.73 116.568 51.102C116.196 55.566 115.37 58.4593 114.088 59.782C112.848 61.1047 110.513 61.766 107.082 61.766C105.222 61.766 102.928 61.704 100.2 61.58C99.2083 61.5387 98.3403 61.146 97.5963 60.402C96.8937 59.6993 96.501 58.852 96.4183 57.86L96.3563 56.93C96.315 55.9793 96.625 55.1733 97.2863 54.512C97.9477 53.8507 98.733 53.5613 99.6423 53.644C100.965 53.7267 102.577 53.768 104.478 53.768C105.222 53.768 105.677 53.6647 105.842 53.458C106.049 53.2513 106.214 52.652 106.338 51.66C106.421 51.288 106.276 51.102 105.904 51.102H96.6043C96.315 51.102 96.0257 51.2467 95.7363 51.536C91.9337 56.2893 85.0517 59.782 75.0903 62.014C74.057 62.2207 73.065 62.0967 72.1143 61.642C71.205 61.2287 70.5023 60.5467 70.0063 59.596L69.4483 58.542C69.035 57.7567 69.035 56.992 69.4483 56.248C69.8617 55.504 70.4817 55.0493 71.3083 54.884C76.9297 53.9747 81.1043 52.7967 83.8323 51.35C83.8737 51.3087 83.8943 51.2673 83.8943 51.226C83.8943 51.1433 83.853 51.102 83.7703 51.102H79.8643C78.4177 51.102 77.3843 50.482 76.7643 49.242C76.599 48.9113 76.3717 48.8287 76.0823 48.994C75.0903 49.49 73.3543 50.234 70.8743 51.226C69.965 51.598 69.0557 51.598 68.1463 51.226C67.2783 50.8127 66.6583 50.1513 66.2863 49.242ZM88.4823 15.204V15.7C88.4823 16.0307 88.6477 16.196 88.9783 16.196H100.138C100.469 16.196 100.634 16.0307 100.634 15.7V15.204C100.634 14.832 100.469 14.646 100.138 14.646H88.9783C88.6477 14.646 88.4823 14.832 88.4823 15.204ZM81.2903 21.404V22.086C81.2903 22.458 81.4557 22.644 81.7863 22.644H107.33C107.661 22.644 107.826 22.458 107.826 22.086V21.404C107.826 21.032 107.661 20.846 107.33 20.846H81.7863C81.4557 20.846 81.2903 21.032 81.2903 21.404ZM81.7863 28.41H107.33C107.661 28.41 107.826 28.224 107.826 27.852V27.17C107.826 26.8393 107.661 26.674 107.33 26.674H81.7863C81.4557 26.674 81.2903 26.8393 81.2903 27.17V27.852C81.2903 28.224 81.4557 28.41 81.7863 28.41ZM87.8003 41.244C86.395 42.484 85.341 43.352 84.6383 43.848C84.5557 43.9307 84.5143 44.0133 84.5143 44.096C84.5557 44.1373 84.6177 44.158 84.7003 44.158H89.4743C89.681 44.158 89.805 44.0753 89.8463 43.91C89.9703 43.3313 90.239 42.856 90.6523 42.484C91.107 42.0707 91.603 41.864 92.1403 41.864H97.5343C98.0717 41.864 98.5057 42.0707 98.8363 42.484C99.2083 42.8973 99.353 43.3727 99.2703 43.91C99.2703 44.0753 99.353 44.158 99.5183 44.158H104.478C104.561 44.158 104.602 44.1373 104.602 44.096C104.644 44.0133 104.623 43.9307 104.54 43.848C103.052 42.6907 101.998 41.8227 101.378 41.244C101.13 40.996 100.82 40.872 100.448 40.872H88.7303C88.3583 40.872 88.0483 40.996 87.8003 41.244Z" fill="white"/>
<path d="M130.58 47.32C129.63 47.32 128.803 46.9687 128.1 46.266C127.398 45.5633 127.046 44.7367 127.046 43.786V42.856C127.046 42.0707 127.315 41.4093 127.852 40.872C128.431 40.2933 129.134 40.004 129.96 40.004C130.25 40.004 130.394 39.8593 130.394 39.57V18.242C130.394 17.994 130.25 17.87 129.96 17.87C129.258 17.87 128.638 17.622 128.1 17.126C127.604 16.5887 127.356 15.9687 127.356 15.266V12.91C127.356 12.2073 127.604 11.5873 128.1 11.05C128.638 10.5127 129.258 10.244 129.96 10.244C130.25 10.244 130.394 10.12 130.394 9.87201V9.19001C130.394 8.23934 130.725 7.41267 131.386 6.71001C132.089 6.00734 132.916 5.65601 133.866 5.65601H136.222C137.173 5.65601 138 6.00734 138.702 6.71001C139.405 7.41267 139.756 8.23934 139.756 9.19001V9.74801C139.756 10.0787 139.922 10.244 140.252 10.244H145.212C145.543 10.244 145.708 10.0787 145.708 9.74801V9.19001C145.708 8.23934 146.06 7.41267 146.762 6.71001C147.465 6.00734 148.292 5.65601 149.242 5.65601H151.04C151.991 5.65601 152.818 6.00734 153.52 6.71001C154.223 7.41267 154.574 8.23934 154.574 9.19001V9.93401C154.574 10.1407 154.678 10.244 154.884 10.244C155.546 10.244 156.104 10.4713 156.558 10.926C157.013 11.3807 157.24 11.9387 157.24 12.6V15.514C157.24 16.1753 157.013 16.7333 156.558 17.188C156.104 17.6427 155.546 17.87 154.884 17.87C154.678 17.87 154.574 17.994 154.574 18.242V39.694C154.574 39.9007 154.678 40.004 154.884 40.004C155.463 40.004 155.959 40.2107 156.372 40.624C156.786 41.0373 156.992 41.5333 156.992 42.112V43.786C156.992 44.7367 156.641 45.5633 155.938 46.266C155.236 46.9687 154.409 47.32 153.458 47.32H152.032C151.702 47.32 151.64 47.4853 151.846 47.816C153.252 49.924 154.368 51.6807 155.194 53.086C155.36 53.2927 155.484 53.2513 155.566 52.962L155.752 52.404C156.91 49.6347 157.695 46.5347 158.108 43.104C158.563 39.6733 158.79 34.8373 158.79 28.596V10.244C158.79 9.29334 159.142 8.46667 159.844 7.76401C160.547 7.06134 161.374 6.71001 162.324 6.71001H180.242C181.193 6.71001 182.02 7.06134 182.722 7.76401C183.425 8.46667 183.776 9.29334 183.776 10.244V50.544C183.776 52.404 183.756 53.892 183.714 55.008C183.673 56.124 183.549 57.1367 183.342 58.046C183.136 58.9967 182.908 59.6787 182.66 60.092C182.412 60.5053 181.978 60.8567 181.358 61.146C180.78 61.4353 180.16 61.6007 179.498 61.642C178.878 61.7247 177.99 61.766 176.832 61.766C176.378 61.766 174.786 61.7247 172.058 61.642C171.066 61.6007 170.198 61.2287 169.454 60.526C168.71 59.8233 168.318 58.976 168.276 57.984L168.214 56.682C168.173 55.7727 168.483 55.008 169.144 54.388C169.806 53.7267 170.612 53.4167 171.562 53.458H172.182C173.216 53.458 173.815 53.3753 173.98 53.21C174.146 53.0033 174.228 52.342 174.228 51.226V43.972C174.228 43.6413 174.063 43.476 173.732 43.476H167.718C167.305 43.476 167.098 43.6413 167.098 43.972C166.52 49.8 165.259 54.822 163.316 59.038C162.944 59.8233 162.304 60.2987 161.394 60.464C160.526 60.6293 159.762 60.4227 159.1 59.844L156.93 57.922C156.724 57.798 156.558 57.6327 156.434 57.426C156.393 57.3433 156.31 57.302 156.186 57.302C156.062 57.302 155.98 57.3433 155.938 57.426C155.649 58.0873 155.132 58.6247 154.388 59.038L153.582 59.534C152.756 59.9887 151.867 60.0713 150.916 59.782C149.966 59.534 149.263 58.9967 148.808 58.17C147.734 56.31 146.721 54.6153 145.77 53.086C145.233 52.2593 145.068 51.3913 145.274 50.482C145.522 49.5727 146.06 48.8907 146.886 48.436L148.436 47.568C148.478 47.5267 148.498 47.4853 148.498 47.444C148.498 47.3613 148.457 47.32 148.374 47.32H137.772C137.69 47.32 137.648 47.3613 137.648 47.444C137.648 47.4853 137.669 47.5267 137.71 47.568L139.26 48.436C140.128 48.932 140.686 49.6553 140.934 50.606C141.224 51.5567 141.12 52.466 140.624 53.334C139.26 55.6487 137.731 57.86 136.036 59.968C135.416 60.7533 134.61 61.208 133.618 61.332C132.668 61.456 131.779 61.2287 130.952 60.65L130.022 59.968C129.237 59.4307 128.782 58.6867 128.658 57.736C128.576 56.7853 128.824 55.938 129.402 55.194C131.469 52.5487 133.164 50.0687 134.486 47.754C134.569 47.6713 134.569 47.5887 134.486 47.506C134.445 47.382 134.362 47.32 134.238 47.32H130.58ZM167.656 15.328V20.97C167.656 21.3007 167.822 21.466 168.152 21.466H173.732C174.063 21.466 174.228 21.3007 174.228 20.97V15.328C174.228 14.956 174.063 14.77 173.732 14.77H168.152C167.822 14.77 167.656 14.956 167.656 15.328ZM167.656 32.998C167.656 33.2873 167.636 33.7213 167.594 34.3C167.594 34.8373 167.594 35.23 167.594 35.478C167.594 35.85 167.76 36.036 168.09 36.036H173.732C174.063 36.036 174.228 35.8707 174.228 35.54V29.402C174.228 29.03 174.063 28.844 173.732 28.844H168.152C167.822 28.844 167.656 29.03 167.656 29.402V32.998ZM139.756 18.428V20.784C139.756 21.156 139.922 21.342 140.252 21.342H145.212C145.543 21.342 145.708 21.156 145.708 20.784V18.428C145.708 18.056 145.543 17.87 145.212 17.87H140.252C139.922 17.87 139.756 18.056 139.756 18.428ZM139.756 27.666V30.084C139.756 30.456 139.922 30.642 140.252 30.642H145.212C145.543 30.642 145.708 30.456 145.708 30.084V27.666C145.708 27.294 145.543 27.108 145.212 27.108H140.252C139.922 27.108 139.756 27.294 139.756 27.666ZM139.756 36.966V39.446C139.756 39.818 139.922 40.004 140.252 40.004H145.212C145.543 40.004 145.708 39.818 145.708 39.446V36.966C145.708 36.594 145.543 36.408 145.212 36.408H140.252C139.922 36.408 139.756 36.594 139.756 36.966Z" fill="white"/>
<path d="M228.23 34.362C229.181 34.362 230.008 34.7133 230.71 35.416C231.413 36.1187 231.764 36.9453 231.764 37.896V53.086C231.764 53.458 231.95 53.644 232.322 53.644H233.562C234.926 53.644 235.732 53.5407 235.98 53.334C236.228 53.1273 236.352 52.404 236.352 51.164V32.068C236.352 31.696 236.166 31.51 235.794 31.51H222.588C221.638 31.51 220.811 31.1587 220.108 30.456C219.447 29.7533 219.116 28.9267 219.116 27.976V9.68601C219.116 8.73534 219.447 7.92934 220.108 7.26801C220.811 6.56534 221.638 6.21401 222.588 6.21401H242.242C243.193 6.21401 244.02 6.56534 244.722 7.26801C245.425 7.92934 245.776 8.73534 245.776 9.68601V50.482C245.776 52.3833 245.735 53.8713 245.652 54.946C245.611 56.0207 245.446 57.0333 245.156 57.984C244.867 58.9347 244.516 59.6167 244.102 60.03C243.73 60.4433 243.09 60.7947 242.18 61.084C241.271 61.3733 240.32 61.5387 239.328 61.58C238.336 61.6627 236.952 61.704 235.174 61.704C233.397 61.704 231.744 61.6627 230.214 61.58C229.305 61.5387 228.499 61.208 227.796 60.588C227.094 59.968 226.66 59.2033 226.494 58.294C226.412 57.922 226.226 57.736 225.936 57.736H212.606C212.4 57.736 212.296 57.8393 212.296 58.046C212.296 58.6247 212.09 59.1207 211.676 59.534C211.263 59.9473 210.788 60.154 210.25 60.154H207.77C206.82 60.154 205.993 59.8027 205.29 59.1C204.588 58.3973 204.236 57.5707 204.236 56.62V37.896C204.236 36.9453 204.588 36.1187 205.29 35.416C205.993 34.7133 206.82 34.362 207.77 34.362H228.23ZM226.556 13.964V15.638C226.556 16.01 226.742 16.196 227.114 16.196H235.794C236.166 16.196 236.352 16.01 236.352 15.638V13.964C236.352 13.592 236.166 13.406 235.794 13.406H227.114C226.742 13.406 226.556 13.592 226.556 13.964ZM235.794 25.124C236.166 25.124 236.352 24.938 236.352 24.566V22.892C236.352 22.5613 236.166 22.396 235.794 22.396H227.114C226.742 22.396 226.556 22.5613 226.556 22.892V24.566C226.556 24.938 226.742 25.124 227.114 25.124H235.794ZM223.704 51.164V49.552C223.704 49.18 223.518 48.994 223.146 48.994H212.854C212.482 48.994 212.296 49.18 212.296 49.552V51.164C212.296 51.536 212.482 51.722 212.854 51.722H223.146C223.518 51.722 223.704 51.536 223.704 51.164ZM223.704 42.732V41.182C223.704 40.81 223.518 40.624 223.146 40.624H212.854C212.482 40.624 212.296 40.81 212.296 41.182V42.732C212.296 43.0627 212.482 43.228 212.854 43.228H223.146C223.518 43.228 223.704 43.0627 223.704 42.732ZM193.758 61.828C192.808 61.828 191.981 61.4767 191.278 60.774C190.576 60.0713 190.224 59.2447 190.224 58.294V9.68601C190.224 8.73534 190.576 7.92934 191.278 7.26801C191.981 6.56534 192.808 6.21401 193.758 6.21401H212.792C213.743 6.21401 214.549 6.56534 215.21 7.26801C215.913 7.92934 216.264 8.73534 216.264 9.68601V27.976C216.264 28.9267 215.913 29.7533 215.21 30.456C214.549 31.1587 213.743 31.51 212.792 31.51H200.206C199.834 31.51 199.648 31.696 199.648 32.068V58.294C199.648 59.2447 199.297 60.0713 198.594 60.774C197.892 61.4767 197.065 61.828 196.114 61.828H193.758ZM199.648 13.964V15.638C199.648 16.01 199.834 16.196 200.206 16.196H208.266C208.638 16.196 208.824 16.01 208.824 15.638V13.964C208.824 13.592 208.638 13.406 208.266 13.406H200.206C199.834 13.406 199.648 13.592 199.648 13.964ZM199.648 22.892V24.566C199.648 24.938 199.834 25.124 200.206 25.124H208.266C208.638 25.124 208.824 24.938 208.824 24.566V22.892C208.824 22.5613 208.638 22.396 208.266 22.396H200.206C199.834 22.396 199.648 22.5613 199.648 22.892Z" fill="white"/>
<path d="M7.63433 59.534L5.34033 56.496C3.97633 54.6773 3.70766 52.652 4.53433 50.42C5.44366 47.8573 6.043 44.9227 6.33233 41.616C6.663 38.268 6.82833 32.936 6.82833 25.62V13.406C6.82833 12.4553 7.17966 11.6287 7.88233 10.926C8.585 10.2233 9.41166 9.87201 10.3623 9.87201H28.9003C29.231 9.87201 29.3963 9.68601 29.3963 9.31401V7.51601C29.3963 6.56534 29.7477 5.75934 30.4503 5.09801C31.153 4.39534 31.9797 4.04401 32.9303 4.04401H36.0303C36.981 4.04401 37.8077 4.39534 38.5103 5.09801C39.213 5.75934 39.5643 6.56534 39.5643 7.51601V9.31401C39.5643 9.68601 39.7297 9.87201 40.0603 9.87201H57.2343C58.185 9.87201 58.991 10.2233 59.6523 10.926C60.355 11.6287 60.7063 12.4553 60.7063 13.406V14.398C60.7063 15.3487 60.355 16.1753 59.6523 16.878C58.991 17.5807 58.185 17.932 57.2343 17.932H36.7123C36.671 17.932 36.6503 17.9527 36.6503 17.994C36.6503 18.0353 36.671 18.056 36.7123 18.056C40.639 19.0067 44.483 20.2053 48.2443 21.652C49.1537 21.9827 49.7943 22.6027 50.1663 23.512C50.5383 24.38 50.5383 25.2687 50.1663 26.178L49.6703 27.294C49.2983 28.2033 48.6577 28.844 47.7483 29.216C46.8803 29.5467 45.9917 29.5467 45.0823 29.216C40.5357 27.48 35.2863 25.93 29.3343 24.566C28.425 24.3593 27.743 23.8633 27.2883 23.078C26.8337 22.2513 26.751 21.404 27.0403 20.536L27.2883 19.792C27.4537 19.3373 27.7637 18.8413 28.2183 18.304C28.301 18.2213 28.3217 18.1387 28.2803 18.056C28.239 17.9733 28.177 17.932 28.0943 17.932H16.5623C16.2317 17.932 16.0663 18.0973 16.0663 18.428V33.122C16.0663 38.8673 15.7357 43.7033 15.0743 47.63H15.1363C15.9217 44.53 16.769 40.438 17.6783 35.354C17.8437 34.4033 18.319 33.6593 19.1043 33.122C19.8897 32.5433 20.7577 32.3573 21.7083 32.564L23.1963 32.812C24.147 33.0187 24.9117 33.5147 25.4903 34.3C26.1103 35.0853 26.3377 35.974 26.1723 36.966C25.0977 43.9927 23.6923 50.2753 21.9563 55.814C21.667 56.7233 21.0883 57.364 20.2203 57.736C19.3523 58.1493 18.4843 58.17 17.6163 57.798L15.9423 57.054C14.7437 56.558 13.9997 55.628 13.7103 54.264C13.669 54.2227 13.5863 54.2433 13.4623 54.326C12.9663 55.8553 12.305 57.4673 11.4783 59.162C11.1063 59.906 10.4863 60.3193 9.61833 60.402C8.79166 60.4847 8.13033 60.1953 7.63433 59.534ZM53.0183 31.51C53.969 31.1793 54.8783 31.2207 55.7463 31.634C56.6557 32.0473 57.2757 32.7087 57.6063 33.618C59.5903 39.1153 61.3263 45.398 62.8143 52.466C63.021 53.4167 62.8557 54.326 62.3183 55.194C61.781 56.0207 61.037 56.5787 60.0863 56.868L57.7303 57.55C56.821 57.798 55.9737 57.674 55.1883 57.178C54.403 56.682 53.907 55.9587 53.7003 55.008C53.2043 52.404 52.6463 49.9447 52.0263 47.63C52.0263 47.5887 52.0057 47.568 51.9643 47.568C51.923 47.568 51.9023 47.5887 51.9023 47.63C51.8197 49.986 51.6957 51.8873 51.5303 53.334C51.4063 54.7393 51.117 56 50.6623 57.116C50.249 58.2733 49.815 59.1 49.3603 59.596C48.947 60.092 48.203 60.5053 47.1283 60.836C46.0537 61.1667 44.979 61.3527 43.9043 61.394C42.871 61.4767 41.3417 61.518 39.3163 61.518C37.2083 61.518 35.5963 61.4973 34.4803 61.456C33.4057 61.456 32.331 61.332 31.2563 61.084C30.223 60.836 29.5203 60.588 29.1483 60.34C28.7763 60.092 28.425 59.596 28.0943 58.852C27.805 58.108 27.6397 57.364 27.5983 56.62C27.557 55.876 27.5363 54.76 27.5363 53.272V30.952C27.5363 30.0013 27.867 29.1747 28.5283 28.472C29.231 27.7693 30.0577 27.418 31.0083 27.418H33.8603C34.811 27.418 35.6377 27.7693 36.3403 28.472C37.043 29.1747 37.3943 30.0013 37.3943 30.952V51.164C37.3943 52.0733 37.4977 52.6107 37.7043 52.776C37.911 52.9413 38.6343 53.024 39.8743 53.024C40.701 53.024 41.2797 53.0033 41.6103 52.962C41.941 52.8793 42.251 52.59 42.5403 52.094C42.8297 51.598 42.995 50.9367 43.0363 50.11C43.119 49.2833 43.181 47.9607 43.2223 46.142C43.2637 45.1913 43.6357 44.4267 44.3383 43.848C45.0823 43.228 45.909 42.98 46.8183 43.104L50.4763 43.538C50.807 43.538 50.931 43.3933 50.8483 43.104C50.187 40.7893 49.505 38.64 48.8023 36.656C48.4717 35.7467 48.513 34.858 48.9263 33.99C49.3397 33.0807 50.001 32.4813 50.9103 32.192L53.0183 31.51Z" stroke="black" stroke-width="8" mask="url(#path-1-outside-1_324_1855)"/>
<path d="M66.2863 49.242L65.9143 48.374C65.5423 47.506 65.5423 46.6587 65.9143 45.832C66.3277 45.0053 66.989 44.4267 67.8983 44.096C70.1717 43.2693 72.4863 42.2567 74.8423 41.058C74.8423 40.9753 74.801 40.9133 74.7183 40.872H69.5103C68.6423 40.872 67.8983 40.562 67.2783 39.942C66.6583 39.322 66.3483 38.578 66.3483 37.71C66.3483 36.842 66.6583 36.098 67.2783 35.478C67.8983 34.858 68.6423 34.548 69.5103 34.548H82.9023C83.233 34.548 83.543 34.4033 83.8323 34.114C83.8737 34.0727 83.9357 34.0107 84.0183 33.928C84.101 33.804 84.163 33.7213 84.2043 33.68C84.411 33.3907 84.349 33.246 84.0183 33.246H74.9043C73.9537 33.246 73.127 32.9153 72.4243 32.254C71.763 31.5513 71.4323 30.7247 71.4323 29.774V19.73C71.4323 18.7793 71.763 17.9527 72.4243 17.25C73.127 16.5473 73.9537 16.196 74.9043 16.196H78.3143C78.6863 16.196 78.8723 16.0307 78.8723 15.7V15.204C78.8723 14.832 78.6863 14.646 78.3143 14.646H69.8203C68.8697 14.646 68.043 14.3153 67.3403 13.654C66.679 12.9927 66.3483 12.1867 66.3483 11.236C66.3483 10.2853 66.679 9.47934 67.3403 8.81801C68.043 8.11534 68.8697 7.76401 69.8203 7.76401H78.3763C78.707 7.76401 78.8723 7.59867 78.8723 7.26801C78.8723 6.44134 79.141 5.75934 79.6783 5.22201C80.257 4.64334 80.9597 4.35401 81.7863 4.35401H85.5063C86.333 4.35401 87.0357 4.64334 87.6143 5.22201C88.193 5.80067 88.4823 6.48267 88.4823 7.26801C88.4823 7.59867 88.627 7.76401 88.9163 7.76401H100.2C100.49 7.76401 100.634 7.59867 100.634 7.26801C100.634 6.48267 100.924 5.80067 101.502 5.22201C102.081 4.64334 102.784 4.35401 103.61 4.35401H107.33C108.157 4.35401 108.839 4.64334 109.376 5.22201C109.955 5.75934 110.244 6.44134 110.244 7.26801C110.244 7.59867 110.389 7.76401 110.678 7.76401H119.296C120.247 7.76401 121.053 8.11534 121.714 8.81801C122.417 9.47934 122.768 10.2853 122.768 11.236C122.768 12.1867 122.417 12.9927 121.714 13.654C121.053 14.3153 120.247 14.646 119.296 14.646H110.802C110.43 14.646 110.244 14.832 110.244 15.204V15.7C110.244 16.0307 110.43 16.196 110.802 16.196H114.212C115.163 16.196 115.969 16.5473 116.63 17.25C117.333 17.9527 117.684 18.7793 117.684 19.73V29.774C117.684 30.7247 117.333 31.5513 116.63 32.254C115.969 32.9153 115.163 33.246 114.212 33.246H95.3023C94.9717 33.246 94.6823 33.4113 94.4343 33.742C94.393 33.7833 94.331 33.866 94.2483 33.99C94.207 34.0727 94.1657 34.1347 94.1243 34.176C93.959 34.424 94.0417 34.548 94.3723 34.548H119.606C120.474 34.548 121.218 34.858 121.838 35.478C122.458 36.098 122.768 36.842 122.768 37.71C122.768 38.578 122.458 39.322 121.838 39.942C121.218 40.562 120.474 40.872 119.606 40.872H114.336C114.295 40.872 114.274 40.9133 114.274 40.996C114.274 41.0373 114.295 41.0787 114.336 41.12C116.362 42.1947 118.676 43.1867 121.28 44.096C122.148 44.4267 122.768 45.0053 123.14 45.832C123.554 46.6587 123.574 47.506 123.202 48.374L122.83 49.242C122.458 50.1513 121.818 50.8127 120.908 51.226C119.999 51.598 119.09 51.598 118.18 51.226C118.056 51.1847 117.87 51.1227 117.622 51.04C117.374 50.916 117.188 50.8333 117.064 50.792C116.734 50.6267 116.568 50.73 116.568 51.102C116.196 55.566 115.37 58.4593 114.088 59.782C112.848 61.1047 110.513 61.766 107.082 61.766C105.222 61.766 102.928 61.704 100.2 61.58C99.2083 61.5387 98.3403 61.146 97.5963 60.402C96.8937 59.6993 96.501 58.852 96.4183 57.86L96.3563 56.93C96.315 55.9793 96.625 55.1733 97.2863 54.512C97.9477 53.8507 98.733 53.5613 99.6423 53.644C100.965 53.7267 102.577 53.768 104.478 53.768C105.222 53.768 105.677 53.6647 105.842 53.458C106.049 53.2513 106.214 52.652 106.338 51.66C106.421 51.288 106.276 51.102 105.904 51.102H96.6043C96.315 51.102 96.0257 51.2467 95.7363 51.536C91.9337 56.2893 85.0517 59.782 75.0903 62.014C74.057 62.2207 73.065 62.0967 72.1143 61.642C71.205 61.2287 70.5023 60.5467 70.0063 59.596L69.4483 58.542C69.035 57.7567 69.035 56.992 69.4483 56.248C69.8617 55.504 70.4817 55.0493 71.3083 54.884C76.9297 53.9747 81.1043 52.7967 83.8323 51.35C83.8737 51.3087 83.8943 51.2673 83.8943 51.226C83.8943 51.1433 83.853 51.102 83.7703 51.102H79.8643C78.4177 51.102 77.3843 50.482 76.7643 49.242C76.599 48.9113 76.3717 48.8287 76.0823 48.994C75.0903 49.49 73.3543 50.234 70.8743 51.226C69.965 51.598 69.0557 51.598 68.1463 51.226C67.2783 50.8127 66.6583 50.1513 66.2863 49.242ZM88.4823 15.204V15.7C88.4823 16.0307 88.6477 16.196 88.9783 16.196H100.138C100.469 16.196 100.634 16.0307 100.634 15.7V15.204C100.634 14.832 100.469 14.646 100.138 14.646H88.9783C88.6477 14.646 88.4823 14.832 88.4823 15.204ZM81.2903 21.404V22.086C81.2903 22.458 81.4557 22.644 81.7863 22.644H107.33C107.661 22.644 107.826 22.458 107.826 22.086V21.404C107.826 21.032 107.661 20.846 107.33 20.846H81.7863C81.4557 20.846 81.2903 21.032 81.2903 21.404ZM81.7863 28.41H107.33C107.661 28.41 107.826 28.224 107.826 27.852V27.17C107.826 26.8393 107.661 26.674 107.33 26.674H81.7863C81.4557 26.674 81.2903 26.8393 81.2903 27.17V27.852C81.2903 28.224 81.4557 28.41 81.7863 28.41ZM87.8003 41.244C86.395 42.484 85.341 43.352 84.6383 43.848C84.5557 43.9307 84.5143 44.0133 84.5143 44.096C84.5557 44.1373 84.6177 44.158 84.7003 44.158H89.4743C89.681 44.158 89.805 44.0753 89.8463 43.91C89.9703 43.3313 90.239 42.856 90.6523 42.484C91.107 42.0707 91.603 41.864 92.1403 41.864H97.5343C98.0717 41.864 98.5057 42.0707 98.8363 42.484C99.2083 42.8973 99.353 43.3727 99.2703 43.91C99.2703 44.0753 99.353 44.158 99.5183 44.158H104.478C104.561 44.158 104.602 44.1373 104.602 44.096C104.644 44.0133 104.623 43.9307 104.54 43.848C103.052 42.6907 101.998 41.8227 101.378 41.244C101.13 40.996 100.82 40.872 100.448 40.872H88.7303C88.3583 40.872 88.0483 40.996 87.8003 41.244Z" stroke="black" stroke-width="8" mask="url(#path-1-outside-1_324_1855)"/>
<path d="M130.58 47.32C129.63 47.32 128.803 46.9687 128.1 46.266C127.398 45.5633 127.046 44.7367 127.046 43.786V42.856C127.046 42.0707 127.315 41.4093 127.852 40.872C128.431 40.2933 129.134 40.004 129.96 40.004C130.25 40.004 130.394 39.8593 130.394 39.57V18.242C130.394 17.994 130.25 17.87 129.96 17.87C129.258 17.87 128.638 17.622 128.1 17.126C127.604 16.5887 127.356 15.9687 127.356 15.266V12.91C127.356 12.2073 127.604 11.5873 128.1 11.05C128.638 10.5127 129.258 10.244 129.96 10.244C130.25 10.244 130.394 10.12 130.394 9.87201V9.19001C130.394 8.23934 130.725 7.41267 131.386 6.71001C132.089 6.00734 132.916 5.65601 133.866 5.65601H136.222C137.173 5.65601 138 6.00734 138.702 6.71001C139.405 7.41267 139.756 8.23934 139.756 9.19001V9.74801C139.756 10.0787 139.922 10.244 140.252 10.244H145.212C145.543 10.244 145.708 10.0787 145.708 9.74801V9.19001C145.708 8.23934 146.06 7.41267 146.762 6.71001C147.465 6.00734 148.292 5.65601 149.242 5.65601H151.04C151.991 5.65601 152.818 6.00734 153.52 6.71001C154.223 7.41267 154.574 8.23934 154.574 9.19001V9.93401C154.574 10.1407 154.678 10.244 154.884 10.244C155.546 10.244 156.104 10.4713 156.558 10.926C157.013 11.3807 157.24 11.9387 157.24 12.6V15.514C157.24 16.1753 157.013 16.7333 156.558 17.188C156.104 17.6427 155.546 17.87 154.884 17.87C154.678 17.87 154.574 17.994 154.574 18.242V39.694C154.574 39.9007 154.678 40.004 154.884 40.004C155.463 40.004 155.959 40.2107 156.372 40.624C156.786 41.0373 156.992 41.5333 156.992 42.112V43.786C156.992 44.7367 156.641 45.5633 155.938 46.266C155.236 46.9687 154.409 47.32 153.458 47.32H152.032C151.702 47.32 151.64 47.4853 151.846 47.816C153.252 49.924 154.368 51.6807 155.194 53.086C155.36 53.2927 155.484 53.2513 155.566 52.962L155.752 52.404C156.91 49.6347 157.695 46.5347 158.108 43.104C158.563 39.6733 158.79 34.8373 158.79 28.596V10.244C158.79 9.29334 159.142 8.46667 159.844 7.76401C160.547 7.06134 161.374 6.71001 162.324 6.71001H180.242C181.193 6.71001 182.02 7.06134 182.722 7.76401C183.425 8.46667 183.776 9.29334 183.776 10.244V50.544C183.776 52.404 183.756 53.892 183.714 55.008C183.673 56.124 183.549 57.1367 183.342 58.046C183.136 58.9967 182.908 59.6787 182.66 60.092C182.412 60.5053 181.978 60.8567 181.358 61.146C180.78 61.4353 180.16 61.6007 179.498 61.642C178.878 61.7247 177.99 61.766 176.832 61.766C176.378 61.766 174.786 61.7247 172.058 61.642C171.066 61.6007 170.198 61.2287 169.454 60.526C168.71 59.8233 168.318 58.976 168.276 57.984L168.214 56.682C168.173 55.7727 168.483 55.008 169.144 54.388C169.806 53.7267 170.612 53.4167 171.562 53.458H172.182C173.216 53.458 173.815 53.3753 173.98 53.21C174.146 53.0033 174.228 52.342 174.228 51.226V43.972C174.228 43.6413 174.063 43.476 173.732 43.476H167.718C167.305 43.476 167.098 43.6413 167.098 43.972C166.52 49.8 165.259 54.822 163.316 59.038C162.944 59.8233 162.304 60.2987 161.394 60.464C160.526 60.6293 159.762 60.4227 159.1 59.844L156.93 57.922C156.724 57.798 156.558 57.6327 156.434 57.426C156.393 57.3433 156.31 57.302 156.186 57.302C156.062 57.302 155.98 57.3433 155.938 57.426C155.649 58.0873 155.132 58.6247 154.388 59.038L153.582 59.534C152.756 59.9887 151.867 60.0713 150.916 59.782C149.966 59.534 149.263 58.9967 148.808 58.17C147.734 56.31 146.721 54.6153 145.77 53.086C145.233 52.2593 145.068 51.3913 145.274 50.482C145.522 49.5727 146.06 48.8907 146.886 48.436L148.436 47.568C148.478 47.5267 148.498 47.4853 148.498 47.444C148.498 47.3613 148.457 47.32 148.374 47.32H137.772C137.69 47.32 137.648 47.3613 137.648 47.444C137.648 47.4853 137.669 47.5267 137.71 47.568L139.26 48.436C140.128 48.932 140.686 49.6553 140.934 50.606C141.224 51.5567 141.12 52.466 140.624 53.334C139.26 55.6487 137.731 57.86 136.036 59.968C135.416 60.7533 134.61 61.208 133.618 61.332C132.668 61.456 131.779 61.2287 130.952 60.65L130.022 59.968C129.237 59.4307 128.782 58.6867 128.658 57.736C128.576 56.7853 128.824 55.938 129.402 55.194C131.469 52.5487 133.164 50.0687 134.486 47.754C134.569 47.6713 134.569 47.5887 134.486 47.506C134.445 47.382 134.362 47.32 134.238 47.32H130.58ZM167.656 15.328V20.97C167.656 21.3007 167.822 21.466 168.152 21.466H173.732C174.063 21.466 174.228 21.3007 174.228 20.97V15.328C174.228 14.956 174.063 14.77 173.732 14.77H168.152C167.822 14.77 167.656 14.956 167.656 15.328ZM167.656 32.998C167.656 33.2873 167.636 33.7213 167.594 34.3C167.594 34.8373 167.594 35.23 167.594 35.478C167.594 35.85 167.76 36.036 168.09 36.036H173.732C174.063 36.036 174.228 35.8707 174.228 35.54V29.402C174.228 29.03 174.063 28.844 173.732 28.844H168.152C167.822 28.844 167.656 29.03 167.656 29.402V32.998ZM139.756 18.428V20.784C139.756 21.156 139.922 21.342 140.252 21.342H145.212C145.543 21.342 145.708 21.156 145.708 20.784V18.428C145.708 18.056 145.543 17.87 145.212 17.87H140.252C139.922 17.87 139.756 18.056 139.756 18.428ZM139.756 27.666V30.084C139.756 30.456 139.922 30.642 140.252 30.642H145.212C145.543 30.642 145.708 30.456 145.708 30.084V27.666C145.708 27.294 145.543 27.108 145.212 27.108H140.252C139.922 27.108 139.756 27.294 139.756 27.666ZM139.756 36.966V39.446C139.756 39.818 139.922 40.004 140.252 40.004H145.212C145.543 40.004 145.708 39.818 145.708 39.446V36.966C145.708 36.594 145.543 36.408 145.212 36.408H140.252C139.922 36.408 139.756 36.594 139.756 36.966Z" stroke="black" stroke-width="8" mask="url(#path-1-outside-1_324_1855)"/>
<path d="M228.23 34.362C229.181 34.362 230.008 34.7133 230.71 35.416C231.413 36.1187 231.764 36.9453 231.764 37.896V53.086C231.764 53.458 231.95 53.644 232.322 53.644H233.562C234.926 53.644 235.732 53.5407 235.98 53.334C236.228 53.1273 236.352 52.404 236.352 51.164V32.068C236.352 31.696 236.166 31.51 235.794 31.51H222.588C221.638 31.51 220.811 31.1587 220.108 30.456C219.447 29.7533 219.116 28.9267 219.116 27.976V9.68601C219.116 8.73534 219.447 7.92934 220.108 7.26801C220.811 6.56534 221.638 6.21401 222.588 6.21401H242.242C243.193 6.21401 244.02 6.56534 244.722 7.26801C245.425 7.92934 245.776 8.73534 245.776 9.68601V50.482C245.776 52.3833 245.735 53.8713 245.652 54.946C245.611 56.0207 245.446 57.0333 245.156 57.984C244.867 58.9347 244.516 59.6167 244.102 60.03C243.73 60.4433 243.09 60.7947 242.18 61.084C241.271 61.3733 240.32 61.5387 239.328 61.58C238.336 61.6627 236.952 61.704 235.174 61.704C233.397 61.704 231.744 61.6627 230.214 61.58C229.305 61.5387 228.499 61.208 227.796 60.588C227.094 59.968 226.66 59.2033 226.494 58.294C226.412 57.922 226.226 57.736 225.936 57.736H212.606C212.4 57.736 212.296 57.8393 212.296 58.046C212.296 58.6247 212.09 59.1207 211.676 59.534C211.263 59.9473 210.788 60.154 210.25 60.154H207.77C206.82 60.154 205.993 59.8027 205.29 59.1C204.588 58.3973 204.236 57.5707 204.236 56.62V37.896C204.236 36.9453 204.588 36.1187 205.29 35.416C205.993 34.7133 206.82 34.362 207.77 34.362H228.23ZM226.556 13.964V15.638C226.556 16.01 226.742 16.196 227.114 16.196H235.794C236.166 16.196 236.352 16.01 236.352 15.638V13.964C236.352 13.592 236.166 13.406 235.794 13.406H227.114C226.742 13.406 226.556 13.592 226.556 13.964ZM235.794 25.124C236.166 25.124 236.352 24.938 236.352 24.566V22.892C236.352 22.5613 236.166 22.396 235.794 22.396H227.114C226.742 22.396 226.556 22.5613 226.556 22.892V24.566C226.556 24.938 226.742 25.124 227.114 25.124H235.794ZM223.704 51.164V49.552C223.704 49.18 223.518 48.994 223.146 48.994H212.854C212.482 48.994 212.296 49.18 212.296 49.552V51.164C212.296 51.536 212.482 51.722 212.854 51.722H223.146C223.518 51.722 223.704 51.536 223.704 51.164ZM223.704 42.732V41.182C223.704 40.81 223.518 40.624 223.146 40.624H212.854C212.482 40.624 212.296 40.81 212.296 41.182V42.732C212.296 43.0627 212.482 43.228 212.854 43.228H223.146C223.518 43.228 223.704 43.0627 223.704 42.732ZM193.758 61.828C192.808 61.828 191.981 61.4767 191.278 60.774C190.576 60.0713 190.224 59.2447 190.224 58.294V9.68601C190.224 8.73534 190.576 7.92934 191.278 7.26801C191.981 6.56534 192.808 6.21401 193.758 6.21401H212.792C213.743 6.21401 214.549 6.56534 215.21 7.26801C215.913 7.92934 216.264 8.73534 216.264 9.68601V27.976C216.264 28.9267 215.913 29.7533 215.21 30.456C214.549 31.1587 213.743 31.51 212.792 31.51H200.206C199.834 31.51 199.648 31.696 199.648 32.068V58.294C199.648 59.2447 199.297 60.0713 198.594 60.774C197.892 61.4767 197.065 61.828 196.114 61.828H193.758ZM199.648 13.964V15.638C199.648 16.01 199.834 16.196 200.206 16.196H208.266C208.638 16.196 208.824 16.01 208.824 15.638V13.964C208.824 13.592 208.638 13.406 208.266 13.406H200.206C199.834 13.406 199.648 13.592 199.648 13.964ZM199.648 22.892V24.566C199.648 24.938 199.834 25.124 200.206 25.124H208.266C208.638 25.124 208.824 24.938 208.824 24.566V22.892C208.824 22.5613 208.638 22.396 208.266 22.396H200.206C199.834 22.396 199.648 22.5613 199.648 22.892Z" stroke="black" stroke-width="8" mask="url(#path-1-outside-1_324_1855)"/>
</svg>
