<svg width="435" height="68" viewBox="0 0 435 68" fill="none" xmlns="http://www.w3.org/2000/svg">
<mask id="path-1-outside-1_324_1856" maskUnits="userSpaceOnUse" x="0.269531" y="0.299988" width="435" height="67" fill="black">
<rect fill="white" x="0.269531" y="0.299988" width="435" height="67"/>
<path d="M48.2275 16.452C49.0129 17.2373 49.9635 17.63 51.0795 17.63C52.1955 17.63 53.1462 17.2373 53.9315 16.452C54.7169 15.6667 55.1095 14.716 55.1095 13.6C55.1095 12.484 54.7169 11.5333 53.9315 10.748C53.1462 9.96265 52.1955 9.56999 51.0795 9.56999C49.9635 9.56999 49.0129 9.96265 48.2275 10.748C47.4422 11.5333 47.0495 12.484 47.0495 13.6C47.0495 14.716 47.4422 15.6667 48.2275 16.452ZM51.0795 4.29999C53.6422 4.29999 55.8329 5.20932 57.6515 7.02799C59.4702 8.84665 60.3795 11.0373 60.3795 13.6C60.3795 16.08 59.5322 18.2087 57.8375 19.986C56.1842 21.7633 54.1382 22.7347 51.6995 22.9C51.3689 22.9 51.2035 23.086 51.2035 23.458C51.2035 23.4993 51.1829 23.582 51.1415 23.706C51.1415 23.83 51.1415 23.9333 51.1415 24.016C49.8602 34.928 46.1402 43.2773 39.9815 49.064C33.8642 54.8507 25.0809 58.4673 13.6315 59.914C12.6395 60.038 11.7509 59.79 10.9655 59.17C10.1802 58.5913 9.6842 57.8267 9.47753 56.876L9.04353 54.52C8.8782 53.6107 9.0642 52.784 9.60153 52.04C10.1802 51.2547 10.9449 50.8 11.8955 50.676C21.1129 49.4773 27.9742 46.708 32.4795 42.368C37.0262 38.028 39.7749 31.518 40.7255 22.838C40.8082 22.466 40.6635 22.28 40.2915 22.28H7.80353C6.85286 22.28 6.0262 21.9287 5.32353 21.226C4.62086 20.5233 4.26953 19.6967 4.26953 18.746V16.266C4.26953 15.3153 4.62086 14.5093 5.32353 13.848C6.0262 13.1453 6.85286 12.794 7.80353 12.794H41.2835C41.6142 12.794 41.8209 12.6287 41.9035 12.298C42.2342 10.0247 43.2469 8.12332 44.9415 6.59399C46.6775 5.06465 48.7235 4.29999 51.0795 4.29999Z"/>
<path d="M74.5775 59.79C73.5855 59.8313 72.7382 59.5007 72.0355 58.798C71.3742 58.0953 71.0435 57.248 71.0435 56.256V13.166C71.0435 12.2153 71.3742 11.4093 72.0355 10.748C72.7382 10.0453 73.5649 9.69399 74.5155 9.69399H78.2975C79.2482 9.69399 80.0749 10.0453 80.7775 10.748C81.4802 11.4093 81.8315 12.2153 81.8315 13.166V49.25C81.8315 49.374 81.8729 49.498 81.9555 49.622C82.0795 49.746 82.2035 49.7873 82.3275 49.746C88.9409 48.878 94.2522 46.832 98.2615 43.608C102.312 40.384 105.66 35.548 108.306 29.1C108.678 28.1907 109.277 27.5707 110.104 27.24C110.972 26.868 111.86 26.8473 112.77 27.178L115.498 28.232C116.407 28.604 117.048 29.2447 117.42 30.154C117.833 31.022 117.854 31.9107 117.482 32.82C113.555 42.2853 108.244 49.1053 101.548 53.28C94.8515 57.4133 85.8615 59.5833 74.5775 59.79Z"/>
<path d="M125.852 31.332L125.542 29.038C125.418 28.0873 125.645 27.2193 126.224 26.434C126.802 25.6487 127.567 25.1733 128.518 25.008L138.19 23.52C138.52 23.4373 138.686 23.2513 138.686 22.962V12.36C138.686 11.4093 139.037 10.5827 139.74 9.87999C140.442 9.17732 141.269 8.82599 142.22 8.82599H145.196C146.146 8.82599 146.973 9.17732 147.676 9.87999C148.378 10.5827 148.73 11.4093 148.73 12.36V21.412C148.73 21.784 148.895 21.9287 149.226 21.846L175.948 17.816C176.898 17.6507 177.766 17.8573 178.552 18.436C179.337 19.0147 179.792 19.7793 179.916 20.73L180.288 23.024C180.618 25.5453 180.267 27.736 179.234 29.596C176.299 35.052 172.414 39.9913 167.578 44.414C166.875 45.0753 166.028 45.3647 165.036 45.282C164.044 45.1993 163.196 44.8067 162.494 44.104L160.634 42.244C159.972 41.5413 159.662 40.7353 159.704 39.826C159.745 38.8753 160.117 38.0693 160.82 37.408C163.713 34.7627 166.255 31.89 168.446 28.79C168.528 28.7073 168.528 28.6247 168.446 28.542C168.404 28.418 168.342 28.3767 168.26 28.418L149.226 31.332C148.895 31.4147 148.73 31.6007 148.73 31.89V42.368C148.73 43.7733 148.75 44.8893 148.792 45.716C148.833 46.5013 148.957 47.2453 149.164 47.948C149.412 48.6507 149.66 49.1467 149.908 49.436C150.197 49.7253 150.672 49.994 151.334 50.242C152.036 50.4487 152.739 50.5727 153.442 50.614C154.186 50.6553 155.219 50.676 156.542 50.676C162.824 50.676 168.9 50.3247 174.77 49.622C175.72 49.498 176.568 49.746 177.312 50.366C178.056 50.9447 178.448 51.7093 178.49 52.66L178.552 54.644C178.634 55.636 178.366 56.504 177.746 57.248C177.126 58.0333 176.32 58.4673 175.328 58.55C168.632 59.294 161.502 59.666 153.938 59.666C148.068 59.666 144.059 58.6327 141.91 56.566C139.76 54.458 138.686 50.428 138.686 44.476V33.44C138.686 33.068 138.52 32.9233 138.19 33.006L129.82 34.246C128.869 34.4113 128.001 34.2047 127.216 33.626C126.43 33.0473 125.976 32.2827 125.852 31.332ZM165.594 8.26799C165.883 7.44132 166.42 6.82132 167.206 6.40799C167.991 5.99465 168.838 5.93265 169.748 6.22199C170.657 6.51132 171.318 7.04865 171.732 7.83399C171.938 8.20599 172.228 8.76399 172.6 9.50799C172.972 10.2107 173.24 10.748 173.406 11.12C173.819 11.9467 173.881 12.794 173.592 13.662C173.302 14.4887 172.744 15.088 171.918 15.46C171.132 15.832 170.306 15.8733 169.438 15.584C168.611 15.2947 167.991 14.7573 167.578 13.972C167.412 13.6 167.123 13.0627 166.71 12.36C166.296 11.616 166.007 11.058 165.842 10.686C165.428 9.90065 165.346 9.09465 165.594 8.26799ZM181.342 7.21399C181.548 7.62732 181.838 8.22665 182.21 9.01199C182.623 9.79732 182.912 10.3553 183.078 10.686C183.491 11.5127 183.553 12.3393 183.264 13.166C182.974 13.9927 182.416 14.6127 181.59 15.026C180.763 15.4393 179.916 15.5013 179.048 15.212C178.221 14.9227 177.58 14.3647 177.126 13.538C176.754 12.794 176.154 11.678 175.328 10.19C174.914 9.36332 174.832 8.53665 175.08 7.70999C175.369 6.84199 175.927 6.20132 176.754 5.78799C177.58 5.37465 178.448 5.31265 179.358 5.60199C180.267 5.89132 180.928 6.42865 181.342 7.21399Z"/>
<path d="M195.974 20.358C195.106 19.9447 194.527 19.2833 194.238 18.374C193.948 17.4647 194.031 16.5967 194.486 15.77L195.912 12.98C196.366 12.112 197.048 11.5333 197.958 11.244C198.908 10.9133 199.838 10.9547 200.748 11.368C205.005 13.3933 209.366 15.5633 213.83 17.878C214.698 18.2913 215.256 18.9733 215.504 19.924C215.793 20.8747 215.71 21.7633 215.256 22.59L213.644 25.38C213.189 26.2067 212.486 26.7647 211.536 27.054C210.626 27.3433 209.738 27.2607 208.87 26.806C204.571 24.574 200.272 22.4247 195.974 20.358ZM239.994 17.32C240.944 17.5267 241.688 18.0433 242.226 18.87C242.763 19.6553 242.928 20.5233 242.722 21.474C240.283 32.3447 235.488 40.7973 228.338 46.832C221.228 52.8667 211.515 56.6487 199.198 58.178C198.206 58.302 197.317 58.054 196.532 57.434C195.746 56.8553 195.271 56.07 195.106 55.078L194.672 52.226C194.506 51.3167 194.713 50.49 195.292 49.746C195.87 48.9607 196.635 48.506 197.586 48.382C207.671 46.9767 215.524 43.98 221.146 39.392C226.808 34.804 230.797 28.1287 233.112 19.366C233.36 18.4153 233.876 17.692 234.662 17.196C235.488 16.6587 236.377 16.4933 237.328 16.7L239.994 17.32Z"/>
<path d="M263.74 60.534C262.789 60.534 261.962 60.1827 261.26 59.48C260.557 58.7773 260.206 57.9507 260.206 57V12.36C260.206 11.4093 260.557 10.5827 261.26 9.87999C261.962 9.17732 262.789 8.82599 263.74 8.82599H267.274C268.224 8.82599 269.03 9.17732 269.692 9.87999C270.394 10.5827 270.746 11.4093 270.746 12.36V25.38C270.746 25.752 270.932 25.9793 271.304 26.062C281.017 28.4593 290.834 31.394 300.754 34.866C301.663 35.1553 302.345 35.7547 302.8 36.664C303.254 37.532 303.316 38.4413 302.986 39.392L301.994 42.182C301.663 43.0913 301.084 43.7527 300.258 44.166C299.431 44.5793 298.563 44.6413 297.654 44.352C289.18 41.3347 280.376 38.648 271.242 36.292C270.911 36.2093 270.746 36.354 270.746 36.726V57C270.746 57.9507 270.394 58.7773 269.692 59.48C269.03 60.1827 268.224 60.534 267.274 60.534H263.74Z"/>
<path d="M316.688 61.898C315.737 61.898 314.91 61.5467 314.208 60.844C313.505 60.1413 313.154 59.3147 313.154 58.364V15.336C313.154 14.3853 313.505 13.5587 314.208 12.856C314.91 12.1533 315.737 11.802 316.688 11.802H334.358C334.688 11.802 334.854 11.616 334.854 11.244V9.13599C334.854 8.18532 335.205 7.37932 335.908 6.71799C336.61 6.01532 337.437 5.66399 338.388 5.66399H341.24C342.19 5.66399 343.017 6.01532 343.72 6.71799C344.422 7.37932 344.774 8.18532 344.774 9.13599V11.244C344.774 11.616 344.939 11.802 345.27 11.802H363.312C364.262 11.802 365.068 12.1533 365.73 12.856C366.432 13.5587 366.784 14.3853 366.784 15.336V50.614C366.784 52.5153 366.742 54.0033 366.66 55.078C366.618 56.1527 366.453 57.1653 366.164 58.116C365.874 59.0667 365.544 59.7487 365.172 60.162C364.8 60.5753 364.159 60.9267 363.25 61.216C362.34 61.5053 361.39 61.6707 360.398 61.712C359.406 61.7947 358.021 61.836 356.244 61.836C355.086 61.836 352.792 61.774 349.362 61.65C348.37 61.6087 347.502 61.2367 346.758 60.534C346.055 59.8727 345.683 59.046 345.642 58.054L345.58 56.752C345.538 55.8427 345.848 55.0573 346.51 54.396C347.171 53.6933 347.977 53.3627 348.928 53.404C350.746 53.4867 352.482 53.528 354.136 53.528C355.5 53.528 356.306 53.4247 356.554 53.218C356.802 52.97 356.926 52.226 356.926 50.986V42.058C356.926 41.9753 356.884 41.934 356.802 41.934C356.76 41.934 356.719 41.9547 356.678 41.996C356.595 42.0787 356.306 42.3267 355.81 42.74L353.764 44.042C352.937 44.5793 352.048 44.7653 351.098 44.6C350.147 44.4347 349.382 43.9593 348.804 43.174C345.91 39.2887 343.224 36.044 340.744 33.44C340.661 33.3573 340.537 33.3367 340.372 33.378C340.206 33.378 340.103 33.44 340.062 33.564C337.416 37.6147 333.758 41.1073 329.088 44.042C328.22 44.5793 327.29 44.7653 326.298 44.6C325.347 44.3933 324.541 43.8973 323.88 43.112L323.384 42.554C323.301 42.4713 323.218 42.4507 323.136 42.492C323.094 42.5333 323.074 42.5953 323.074 42.678V58.364C323.074 59.3147 322.722 60.1413 322.02 60.844C321.317 61.5467 320.49 61.898 319.54 61.898H316.688ZM356.926 20.668C356.926 20.296 356.76 20.11 356.43 20.11H345.146C344.774 20.11 344.588 20.2753 344.588 20.606C344.422 22.0113 344.257 23.086 344.092 23.83C344.009 24.1607 344.112 24.4707 344.402 24.76C348.618 28.6453 352.689 33.068 356.616 38.028C356.698 38.1107 356.76 38.152 356.802 38.152C356.884 38.1107 356.926 38.0487 356.926 37.966V20.668ZM323.57 20.11C323.239 20.11 323.074 20.296 323.074 20.668V36.044C323.074 36.3747 323.239 36.4573 323.57 36.292C327.083 34.432 329.728 32.262 331.506 29.782C333.283 27.2607 334.358 24.2227 334.73 20.668C334.73 20.296 334.564 20.11 334.234 20.11H323.57Z"/>
<path d="M377.696 24.078C376.745 24.078 375.918 23.7267 375.216 23.024C374.554 22.3213 374.224 21.4947 374.224 20.544V13.228C374.224 12.2773 374.554 11.4507 375.216 10.748C375.918 10.0453 376.745 9.69399 377.696 9.69399H396.73C397.06 9.69399 397.226 9.52865 397.226 9.19799V7.95799C397.226 7.00732 397.577 6.18065 398.28 5.47799C398.982 4.77532 399.809 4.42399 400.76 4.42399H403.86C404.81 4.42399 405.637 4.77532 406.34 5.47799C407.042 6.18065 407.394 7.00732 407.394 7.95799V9.19799C407.394 9.52865 407.559 9.69399 407.89 9.69399H426.924C427.874 9.69399 428.68 10.0453 429.342 10.748C430.044 11.4507 430.396 12.2773 430.396 13.228V20.544C430.396 21.4947 430.044 22.3213 429.342 23.024C428.68 23.7267 427.874 24.078 426.924 24.078H422.956C422.873 24.078 422.811 24.1193 422.77 24.202C422.728 24.2433 422.749 24.3053 422.832 24.388C423.7 25.0907 424.96 26.1447 426.614 27.55C427.316 28.17 427.688 28.976 427.73 29.968C427.771 30.96 427.461 31.7867 426.8 32.448L425.994 33.254C425.291 33.9567 424.444 34.3493 423.452 34.432C422.501 34.4733 421.654 34.1633 420.91 33.502C417.024 30.1953 412.726 26.8887 408.014 23.582C407.228 23.0447 406.774 22.3213 406.65 21.412C406.526 20.4613 406.774 19.6347 407.394 18.932L408.51 17.63C408.675 17.382 408.613 17.258 408.324 17.258H395.056C394.973 17.258 394.911 17.2993 394.87 17.382C394.828 17.4233 394.849 17.4853 394.932 17.568L396.234 18.56C396.978 19.18 397.391 19.9653 397.474 20.916C397.598 21.8253 397.329 22.6313 396.668 23.334C392.865 27.2607 388.112 30.7947 382.408 33.936C381.54 34.3907 380.63 34.494 379.68 34.246C378.729 33.9567 377.985 33.378 377.448 32.51L377.014 31.766C376.518 30.9393 376.394 30.0713 376.642 29.162C376.931 28.2527 377.489 27.5707 378.316 27.116C379.68 26.2893 381.147 25.38 382.718 24.388C382.8 24.3053 382.821 24.2433 382.78 24.202C382.738 24.1193 382.676 24.078 382.594 24.078H377.696ZM413.718 17.258C413.635 17.258 413.573 17.2993 413.532 17.382C413.532 17.4647 413.573 17.5267 413.656 17.568C416.218 19.304 418.45 20.9367 420.352 22.466C420.641 22.6727 420.786 22.6107 420.786 22.28V17.754C420.786 17.4233 420.62 17.258 420.29 17.258H413.718ZM383.834 17.754V23.086C383.834 23.1687 383.875 23.2513 383.958 23.334C384.04 23.3753 384.123 23.3753 384.206 23.334C386.479 21.7633 388.752 19.862 391.026 17.63C391.108 17.5887 391.129 17.5267 391.088 17.444C391.088 17.32 391.046 17.258 390.964 17.258H384.33C383.999 17.258 383.834 17.4233 383.834 17.754ZM375.154 48.382L374.534 47.08C374.12 46.1707 374.058 45.2613 374.348 44.352C374.637 43.4013 375.216 42.6987 376.084 42.244C382.325 38.8133 388.112 34.68 393.444 29.844C395.262 28.232 397.288 27.426 399.52 27.426H405.1C407.332 27.426 409.357 28.232 411.176 29.844C416.549 34.7213 422.315 38.8547 428.474 42.244C429.342 42.6987 429.92 43.4013 430.21 44.352C430.54 45.2613 430.499 46.1707 430.086 47.08L429.466 48.382C429.052 49.25 428.391 49.8493 427.482 50.18C426.572 50.4693 425.704 50.3867 424.878 49.932C424.795 49.8493 424.63 49.746 424.382 49.622C424.134 49.498 423.968 49.4153 423.886 49.374C423.638 49.2087 423.514 49.312 423.514 49.684V59.48C423.514 60.4307 423.162 61.2573 422.46 61.96C421.757 62.6627 420.93 63.014 419.98 63.014H415.95C415.288 63.014 414.73 62.7867 414.276 62.332C413.862 61.8773 413.656 61.3193 413.656 60.658C413.656 60.41 413.532 60.286 413.284 60.286H391.336C391.129 60.286 391.026 60.41 391.026 60.658C391.026 61.3193 390.798 61.8773 390.344 62.332C389.889 62.7867 389.331 63.014 388.67 63.014H384.64C383.689 63.014 382.862 62.6627 382.16 61.96C381.457 61.2573 381.106 60.4307 381.106 59.48V49.684C381.106 49.56 381.044 49.4773 380.92 49.436C380.837 49.3533 380.754 49.3327 380.672 49.374L379.742 49.932C378.915 50.3867 378.047 50.4693 377.138 50.18C376.228 49.8493 375.567 49.25 375.154 48.382ZM394.994 39.516C394.911 39.5987 394.89 39.6813 394.932 39.764C394.973 39.8053 395.035 39.826 395.118 39.826H409.502C409.584 39.826 409.646 39.8053 409.688 39.764C409.729 39.6813 409.729 39.5987 409.688 39.516C407.166 37.3667 404.831 35.1967 402.682 33.006C402.434 32.7993 402.206 32.7993 402 33.006C399.85 35.1967 397.515 37.3667 394.994 39.516ZM391.026 47.7V52.722C391.026 53.0527 391.191 53.218 391.522 53.218H413.098C413.47 53.218 413.656 53.0527 413.656 52.722V47.7C413.656 47.3693 413.47 47.204 413.098 47.204H391.522C391.191 47.204 391.026 47.3693 391.026 47.7Z"/>
</mask>
<path d="M48.2275 16.452C49.0129 17.2373 49.9635 17.63 51.0795 17.63C52.1955 17.63 53.1462 17.2373 53.9315 16.452C54.7169 15.6667 55.1095 14.716 55.1095 13.6C55.1095 12.484 54.7169 11.5333 53.9315 10.748C53.1462 9.96265 52.1955 9.56999 51.0795 9.56999C49.9635 9.56999 49.0129 9.96265 48.2275 10.748C47.4422 11.5333 47.0495 12.484 47.0495 13.6C47.0495 14.716 47.4422 15.6667 48.2275 16.452ZM51.0795 4.29999C53.6422 4.29999 55.8329 5.20932 57.6515 7.02799C59.4702 8.84665 60.3795 11.0373 60.3795 13.6C60.3795 16.08 59.5322 18.2087 57.8375 19.986C56.1842 21.7633 54.1382 22.7347 51.6995 22.9C51.3689 22.9 51.2035 23.086 51.2035 23.458C51.2035 23.4993 51.1829 23.582 51.1415 23.706C51.1415 23.83 51.1415 23.9333 51.1415 24.016C49.8602 34.928 46.1402 43.2773 39.9815 49.064C33.8642 54.8507 25.0809 58.4673 13.6315 59.914C12.6395 60.038 11.7509 59.79 10.9655 59.17C10.1802 58.5913 9.6842 57.8267 9.47753 56.876L9.04353 54.52C8.8782 53.6107 9.0642 52.784 9.60153 52.04C10.1802 51.2547 10.9449 50.8 11.8955 50.676C21.1129 49.4773 27.9742 46.708 32.4795 42.368C37.0262 38.028 39.7749 31.518 40.7255 22.838C40.8082 22.466 40.6635 22.28 40.2915 22.28H7.80353C6.85286 22.28 6.0262 21.9287 5.32353 21.226C4.62086 20.5233 4.26953 19.6967 4.26953 18.746V16.266C4.26953 15.3153 4.62086 14.5093 5.32353 13.848C6.0262 13.1453 6.85286 12.794 7.80353 12.794H41.2835C41.6142 12.794 41.8209 12.6287 41.9035 12.298C42.2342 10.0247 43.2469 8.12332 44.9415 6.59399C46.6775 5.06465 48.7235 4.29999 51.0795 4.29999Z" fill="white"/>
<path d="M74.5775 59.79C73.5855 59.8313 72.7382 59.5007 72.0355 58.798C71.3742 58.0953 71.0435 57.248 71.0435 56.256V13.166C71.0435 12.2153 71.3742 11.4093 72.0355 10.748C72.7382 10.0453 73.5649 9.69399 74.5155 9.69399H78.2975C79.2482 9.69399 80.0749 10.0453 80.7775 10.748C81.4802 11.4093 81.8315 12.2153 81.8315 13.166V49.25C81.8315 49.374 81.8729 49.498 81.9555 49.622C82.0795 49.746 82.2035 49.7873 82.3275 49.746C88.9409 48.878 94.2522 46.832 98.2615 43.608C102.312 40.384 105.66 35.548 108.306 29.1C108.678 28.1907 109.277 27.5707 110.104 27.24C110.972 26.868 111.86 26.8473 112.77 27.178L115.498 28.232C116.407 28.604 117.048 29.2447 117.42 30.154C117.833 31.022 117.854 31.9107 117.482 32.82C113.555 42.2853 108.244 49.1053 101.548 53.28C94.8515 57.4133 85.8615 59.5833 74.5775 59.79Z" fill="white"/>
<path d="M125.852 31.332L125.542 29.038C125.418 28.0873 125.645 27.2193 126.224 26.434C126.802 25.6487 127.567 25.1733 128.518 25.008L138.19 23.52C138.52 23.4373 138.686 23.2513 138.686 22.962V12.36C138.686 11.4093 139.037 10.5827 139.74 9.87999C140.442 9.17732 141.269 8.82599 142.22 8.82599H145.196C146.146 8.82599 146.973 9.17732 147.676 9.87999C148.378 10.5827 148.73 11.4093 148.73 12.36V21.412C148.73 21.784 148.895 21.9287 149.226 21.846L175.948 17.816C176.898 17.6507 177.766 17.8573 178.552 18.436C179.337 19.0147 179.792 19.7793 179.916 20.73L180.288 23.024C180.618 25.5453 180.267 27.736 179.234 29.596C176.299 35.052 172.414 39.9913 167.578 44.414C166.875 45.0753 166.028 45.3647 165.036 45.282C164.044 45.1993 163.196 44.8067 162.494 44.104L160.634 42.244C159.972 41.5413 159.662 40.7353 159.704 39.826C159.745 38.8753 160.117 38.0693 160.82 37.408C163.713 34.7627 166.255 31.89 168.446 28.79C168.528 28.7073 168.528 28.6247 168.446 28.542C168.404 28.418 168.342 28.3767 168.26 28.418L149.226 31.332C148.895 31.4147 148.73 31.6007 148.73 31.89V42.368C148.73 43.7733 148.75 44.8893 148.792 45.716C148.833 46.5013 148.957 47.2453 149.164 47.948C149.412 48.6507 149.66 49.1467 149.908 49.436C150.197 49.7253 150.672 49.994 151.334 50.242C152.036 50.4487 152.739 50.5727 153.442 50.614C154.186 50.6553 155.219 50.676 156.542 50.676C162.824 50.676 168.9 50.3247 174.77 49.622C175.72 49.498 176.568 49.746 177.312 50.366C178.056 50.9447 178.448 51.7093 178.49 52.66L178.552 54.644C178.634 55.636 178.366 56.504 177.746 57.248C177.126 58.0333 176.32 58.4673 175.328 58.55C168.632 59.294 161.502 59.666 153.938 59.666C148.068 59.666 144.059 58.6327 141.91 56.566C139.76 54.458 138.686 50.428 138.686 44.476V33.44C138.686 33.068 138.52 32.9233 138.19 33.006L129.82 34.246C128.869 34.4113 128.001 34.2047 127.216 33.626C126.43 33.0473 125.976 32.2827 125.852 31.332ZM165.594 8.26799C165.883 7.44132 166.42 6.82132 167.206 6.40799C167.991 5.99465 168.838 5.93265 169.748 6.22199C170.657 6.51132 171.318 7.04865 171.732 7.83399C171.938 8.20599 172.228 8.76399 172.6 9.50799C172.972 10.2107 173.24 10.748 173.406 11.12C173.819 11.9467 173.881 12.794 173.592 13.662C173.302 14.4887 172.744 15.088 171.918 15.46C171.132 15.832 170.306 15.8733 169.438 15.584C168.611 15.2947 167.991 14.7573 167.578 13.972C167.412 13.6 167.123 13.0627 166.71 12.36C166.296 11.616 166.007 11.058 165.842 10.686C165.428 9.90065 165.346 9.09465 165.594 8.26799ZM181.342 7.21399C181.548 7.62732 181.838 8.22665 182.21 9.01199C182.623 9.79732 182.912 10.3553 183.078 10.686C183.491 11.5127 183.553 12.3393 183.264 13.166C182.974 13.9927 182.416 14.6127 181.59 15.026C180.763 15.4393 179.916 15.5013 179.048 15.212C178.221 14.9227 177.58 14.3647 177.126 13.538C176.754 12.794 176.154 11.678 175.328 10.19C174.914 9.36332 174.832 8.53665 175.08 7.70999C175.369 6.84199 175.927 6.20132 176.754 5.78799C177.58 5.37465 178.448 5.31265 179.358 5.60199C180.267 5.89132 180.928 6.42865 181.342 7.21399Z" fill="white"/>
<path d="M195.974 20.358C195.106 19.9447 194.527 19.2833 194.238 18.374C193.948 17.4647 194.031 16.5967 194.486 15.77L195.912 12.98C196.366 12.112 197.048 11.5333 197.958 11.244C198.908 10.9133 199.838 10.9547 200.748 11.368C205.005 13.3933 209.366 15.5633 213.83 17.878C214.698 18.2913 215.256 18.9733 215.504 19.924C215.793 20.8747 215.71 21.7633 215.256 22.59L213.644 25.38C213.189 26.2067 212.486 26.7647 211.536 27.054C210.626 27.3433 209.738 27.2607 208.87 26.806C204.571 24.574 200.272 22.4247 195.974 20.358ZM239.994 17.32C240.944 17.5267 241.688 18.0433 242.226 18.87C242.763 19.6553 242.928 20.5233 242.722 21.474C240.283 32.3447 235.488 40.7973 228.338 46.832C221.228 52.8667 211.515 56.6487 199.198 58.178C198.206 58.302 197.317 58.054 196.532 57.434C195.746 56.8553 195.271 56.07 195.106 55.078L194.672 52.226C194.506 51.3167 194.713 50.49 195.292 49.746C195.87 48.9607 196.635 48.506 197.586 48.382C207.671 46.9767 215.524 43.98 221.146 39.392C226.808 34.804 230.797 28.1287 233.112 19.366C233.36 18.4153 233.876 17.692 234.662 17.196C235.488 16.6587 236.377 16.4933 237.328 16.7L239.994 17.32Z" fill="white"/>
<path d="M263.74 60.534C262.789 60.534 261.962 60.1827 261.26 59.48C260.557 58.7773 260.206 57.9507 260.206 57V12.36C260.206 11.4093 260.557 10.5827 261.26 9.87999C261.962 9.17732 262.789 8.82599 263.74 8.82599H267.274C268.224 8.82599 269.03 9.17732 269.692 9.87999C270.394 10.5827 270.746 11.4093 270.746 12.36V25.38C270.746 25.752 270.932 25.9793 271.304 26.062C281.017 28.4593 290.834 31.394 300.754 34.866C301.663 35.1553 302.345 35.7547 302.8 36.664C303.254 37.532 303.316 38.4413 302.986 39.392L301.994 42.182C301.663 43.0913 301.084 43.7527 300.258 44.166C299.431 44.5793 298.563 44.6413 297.654 44.352C289.18 41.3347 280.376 38.648 271.242 36.292C270.911 36.2093 270.746 36.354 270.746 36.726V57C270.746 57.9507 270.394 58.7773 269.692 59.48C269.03 60.1827 268.224 60.534 267.274 60.534H263.74Z" fill="white"/>
<path d="M316.688 61.898C315.737 61.898 314.91 61.5467 314.208 60.844C313.505 60.1413 313.154 59.3147 313.154 58.364V15.336C313.154 14.3853 313.505 13.5587 314.208 12.856C314.91 12.1533 315.737 11.802 316.688 11.802H334.358C334.688 11.802 334.854 11.616 334.854 11.244V9.13599C334.854 8.18532 335.205 7.37932 335.908 6.71799C336.61 6.01532 337.437 5.66399 338.388 5.66399H341.24C342.19 5.66399 343.017 6.01532 343.72 6.71799C344.422 7.37932 344.774 8.18532 344.774 9.13599V11.244C344.774 11.616 344.939 11.802 345.27 11.802H363.312C364.262 11.802 365.068 12.1533 365.73 12.856C366.432 13.5587 366.784 14.3853 366.784 15.336V50.614C366.784 52.5153 366.742 54.0033 366.66 55.078C366.618 56.1527 366.453 57.1653 366.164 58.116C365.874 59.0667 365.544 59.7487 365.172 60.162C364.8 60.5753 364.159 60.9267 363.25 61.216C362.34 61.5053 361.39 61.6707 360.398 61.712C359.406 61.7947 358.021 61.836 356.244 61.836C355.086 61.836 352.792 61.774 349.362 61.65C348.37 61.6087 347.502 61.2367 346.758 60.534C346.055 59.8727 345.683 59.046 345.642 58.054L345.58 56.752C345.538 55.8427 345.848 55.0573 346.51 54.396C347.171 53.6933 347.977 53.3627 348.928 53.404C350.746 53.4867 352.482 53.528 354.136 53.528C355.5 53.528 356.306 53.4247 356.554 53.218C356.802 52.97 356.926 52.226 356.926 50.986V42.058C356.926 41.9753 356.884 41.934 356.802 41.934C356.76 41.934 356.719 41.9547 356.678 41.996C356.595 42.0787 356.306 42.3267 355.81 42.74L353.764 44.042C352.937 44.5793 352.048 44.7653 351.098 44.6C350.147 44.4347 349.382 43.9593 348.804 43.174C345.91 39.2887 343.224 36.044 340.744 33.44C340.661 33.3573 340.537 33.3367 340.372 33.378C340.206 33.378 340.103 33.44 340.062 33.564C337.416 37.6147 333.758 41.1073 329.088 44.042C328.22 44.5793 327.29 44.7653 326.298 44.6C325.347 44.3933 324.541 43.8973 323.88 43.112L323.384 42.554C323.301 42.4713 323.218 42.4507 323.136 42.492C323.094 42.5333 323.074 42.5953 323.074 42.678V58.364C323.074 59.3147 322.722 60.1413 322.02 60.844C321.317 61.5467 320.49 61.898 319.54 61.898H316.688ZM356.926 20.668C356.926 20.296 356.76 20.11 356.43 20.11H345.146C344.774 20.11 344.588 20.2753 344.588 20.606C344.422 22.0113 344.257 23.086 344.092 23.83C344.009 24.1607 344.112 24.4707 344.402 24.76C348.618 28.6453 352.689 33.068 356.616 38.028C356.698 38.1107 356.76 38.152 356.802 38.152C356.884 38.1107 356.926 38.0487 356.926 37.966V20.668ZM323.57 20.11C323.239 20.11 323.074 20.296 323.074 20.668V36.044C323.074 36.3747 323.239 36.4573 323.57 36.292C327.083 34.432 329.728 32.262 331.506 29.782C333.283 27.2607 334.358 24.2227 334.73 20.668C334.73 20.296 334.564 20.11 334.234 20.11H323.57Z" fill="white"/>
<path d="M377.696 24.078C376.745 24.078 375.918 23.7267 375.216 23.024C374.554 22.3213 374.224 21.4947 374.224 20.544V13.228C374.224 12.2773 374.554 11.4507 375.216 10.748C375.918 10.0453 376.745 9.69399 377.696 9.69399H396.73C397.06 9.69399 397.226 9.52865 397.226 9.19799V7.95799C397.226 7.00732 397.577 6.18065 398.28 5.47799C398.982 4.77532 399.809 4.42399 400.76 4.42399H403.86C404.81 4.42399 405.637 4.77532 406.34 5.47799C407.042 6.18065 407.394 7.00732 407.394 7.95799V9.19799C407.394 9.52865 407.559 9.69399 407.89 9.69399H426.924C427.874 9.69399 428.68 10.0453 429.342 10.748C430.044 11.4507 430.396 12.2773 430.396 13.228V20.544C430.396 21.4947 430.044 22.3213 429.342 23.024C428.68 23.7267 427.874 24.078 426.924 24.078H422.956C422.873 24.078 422.811 24.1193 422.77 24.202C422.728 24.2433 422.749 24.3053 422.832 24.388C423.7 25.0907 424.96 26.1447 426.614 27.55C427.316 28.17 427.688 28.976 427.73 29.968C427.771 30.96 427.461 31.7867 426.8 32.448L425.994 33.254C425.291 33.9567 424.444 34.3493 423.452 34.432C422.501 34.4733 421.654 34.1633 420.91 33.502C417.024 30.1953 412.726 26.8887 408.014 23.582C407.228 23.0447 406.774 22.3213 406.65 21.412C406.526 20.4613 406.774 19.6347 407.394 18.932L408.51 17.63C408.675 17.382 408.613 17.258 408.324 17.258H395.056C394.973 17.258 394.911 17.2993 394.87 17.382C394.828 17.4233 394.849 17.4853 394.932 17.568L396.234 18.56C396.978 19.18 397.391 19.9653 397.474 20.916C397.598 21.8253 397.329 22.6313 396.668 23.334C392.865 27.2607 388.112 30.7947 382.408 33.936C381.54 34.3907 380.63 34.494 379.68 34.246C378.729 33.9567 377.985 33.378 377.448 32.51L377.014 31.766C376.518 30.9393 376.394 30.0713 376.642 29.162C376.931 28.2527 377.489 27.5707 378.316 27.116C379.68 26.2893 381.147 25.38 382.718 24.388C382.8 24.3053 382.821 24.2433 382.78 24.202C382.738 24.1193 382.676 24.078 382.594 24.078H377.696ZM413.718 17.258C413.635 17.258 413.573 17.2993 413.532 17.382C413.532 17.4647 413.573 17.5267 413.656 17.568C416.218 19.304 418.45 20.9367 420.352 22.466C420.641 22.6727 420.786 22.6107 420.786 22.28V17.754C420.786 17.4233 420.62 17.258 420.29 17.258H413.718ZM383.834 17.754V23.086C383.834 23.1687 383.875 23.2513 383.958 23.334C384.04 23.3753 384.123 23.3753 384.206 23.334C386.479 21.7633 388.752 19.862 391.026 17.63C391.108 17.5887 391.129 17.5267 391.088 17.444C391.088 17.32 391.046 17.258 390.964 17.258H384.33C383.999 17.258 383.834 17.4233 383.834 17.754ZM375.154 48.382L374.534 47.08C374.12 46.1707 374.058 45.2613 374.348 44.352C374.637 43.4013 375.216 42.6987 376.084 42.244C382.325 38.8133 388.112 34.68 393.444 29.844C395.262 28.232 397.288 27.426 399.52 27.426H405.1C407.332 27.426 409.357 28.232 411.176 29.844C416.549 34.7213 422.315 38.8547 428.474 42.244C429.342 42.6987 429.92 43.4013 430.21 44.352C430.54 45.2613 430.499 46.1707 430.086 47.08L429.466 48.382C429.052 49.25 428.391 49.8493 427.482 50.18C426.572 50.4693 425.704 50.3867 424.878 49.932C424.795 49.8493 424.63 49.746 424.382 49.622C424.134 49.498 423.968 49.4153 423.886 49.374C423.638 49.2087 423.514 49.312 423.514 49.684V59.48C423.514 60.4307 423.162 61.2573 422.46 61.96C421.757 62.6627 420.93 63.014 419.98 63.014H415.95C415.288 63.014 414.73 62.7867 414.276 62.332C413.862 61.8773 413.656 61.3193 413.656 60.658C413.656 60.41 413.532 60.286 413.284 60.286H391.336C391.129 60.286 391.026 60.41 391.026 60.658C391.026 61.3193 390.798 61.8773 390.344 62.332C389.889 62.7867 389.331 63.014 388.67 63.014H384.64C383.689 63.014 382.862 62.6627 382.16 61.96C381.457 61.2573 381.106 60.4307 381.106 59.48V49.684C381.106 49.56 381.044 49.4773 380.92 49.436C380.837 49.3533 380.754 49.3327 380.672 49.374L379.742 49.932C378.915 50.3867 378.047 50.4693 377.138 50.18C376.228 49.8493 375.567 49.25 375.154 48.382ZM394.994 39.516C394.911 39.5987 394.89 39.6813 394.932 39.764C394.973 39.8053 395.035 39.826 395.118 39.826H409.502C409.584 39.826 409.646 39.8053 409.688 39.764C409.729 39.6813 409.729 39.5987 409.688 39.516C407.166 37.3667 404.831 35.1967 402.682 33.006C402.434 32.7993 402.206 32.7993 402 33.006C399.85 35.1967 397.515 37.3667 394.994 39.516ZM391.026 47.7V52.722C391.026 53.0527 391.191 53.218 391.522 53.218H413.098C413.47 53.218 413.656 53.0527 413.656 52.722V47.7C413.656 47.3693 413.47 47.204 413.098 47.204H391.522C391.191 47.204 391.026 47.3693 391.026 47.7Z" fill="white"/>
<path d="M48.2275 16.452C49.0129 17.2373 49.9635 17.63 51.0795 17.63C52.1955 17.63 53.1462 17.2373 53.9315 16.452C54.7169 15.6667 55.1095 14.716 55.1095 13.6C55.1095 12.484 54.7169 11.5333 53.9315 10.748C53.1462 9.96265 52.1955 9.56999 51.0795 9.56999C49.9635 9.56999 49.0129 9.96265 48.2275 10.748C47.4422 11.5333 47.0495 12.484 47.0495 13.6C47.0495 14.716 47.4422 15.6667 48.2275 16.452ZM51.0795 4.29999C53.6422 4.29999 55.8329 5.20932 57.6515 7.02799C59.4702 8.84665 60.3795 11.0373 60.3795 13.6C60.3795 16.08 59.5322 18.2087 57.8375 19.986C56.1842 21.7633 54.1382 22.7347 51.6995 22.9C51.3689 22.9 51.2035 23.086 51.2035 23.458C51.2035 23.4993 51.1829 23.582 51.1415 23.706C51.1415 23.83 51.1415 23.9333 51.1415 24.016C49.8602 34.928 46.1402 43.2773 39.9815 49.064C33.8642 54.8507 25.0809 58.4673 13.6315 59.914C12.6395 60.038 11.7509 59.79 10.9655 59.17C10.1802 58.5913 9.6842 57.8267 9.47753 56.876L9.04353 54.52C8.8782 53.6107 9.0642 52.784 9.60153 52.04C10.1802 51.2547 10.9449 50.8 11.8955 50.676C21.1129 49.4773 27.9742 46.708 32.4795 42.368C37.0262 38.028 39.7749 31.518 40.7255 22.838C40.8082 22.466 40.6635 22.28 40.2915 22.28H7.80353C6.85286 22.28 6.0262 21.9287 5.32353 21.226C4.62086 20.5233 4.26953 19.6967 4.26953 18.746V16.266C4.26953 15.3153 4.62086 14.5093 5.32353 13.848C6.0262 13.1453 6.85286 12.794 7.80353 12.794H41.2835C41.6142 12.794 41.8209 12.6287 41.9035 12.298C42.2342 10.0247 43.2469 8.12332 44.9415 6.59399C46.6775 5.06465 48.7235 4.29999 51.0795 4.29999Z" stroke="black" stroke-width="8" mask="url(#path-1-outside-1_324_1856)"/>
<path d="M74.5775 59.79C73.5855 59.8313 72.7382 59.5007 72.0355 58.798C71.3742 58.0953 71.0435 57.248 71.0435 56.256V13.166C71.0435 12.2153 71.3742 11.4093 72.0355 10.748C72.7382 10.0453 73.5649 9.69399 74.5155 9.69399H78.2975C79.2482 9.69399 80.0749 10.0453 80.7775 10.748C81.4802 11.4093 81.8315 12.2153 81.8315 13.166V49.25C81.8315 49.374 81.8729 49.498 81.9555 49.622C82.0795 49.746 82.2035 49.7873 82.3275 49.746C88.9409 48.878 94.2522 46.832 98.2615 43.608C102.312 40.384 105.66 35.548 108.306 29.1C108.678 28.1907 109.277 27.5707 110.104 27.24C110.972 26.868 111.86 26.8473 112.77 27.178L115.498 28.232C116.407 28.604 117.048 29.2447 117.42 30.154C117.833 31.022 117.854 31.9107 117.482 32.82C113.555 42.2853 108.244 49.1053 101.548 53.28C94.8515 57.4133 85.8615 59.5833 74.5775 59.79Z" stroke="black" stroke-width="8" mask="url(#path-1-outside-1_324_1856)"/>
<path d="M125.852 31.332L125.542 29.038C125.418 28.0873 125.645 27.2193 126.224 26.434C126.802 25.6487 127.567 25.1733 128.518 25.008L138.19 23.52C138.52 23.4373 138.686 23.2513 138.686 22.962V12.36C138.686 11.4093 139.037 10.5827 139.74 9.87999C140.442 9.17732 141.269 8.82599 142.22 8.82599H145.196C146.146 8.82599 146.973 9.17732 147.676 9.87999C148.378 10.5827 148.73 11.4093 148.73 12.36V21.412C148.73 21.784 148.895 21.9287 149.226 21.846L175.948 17.816C176.898 17.6507 177.766 17.8573 178.552 18.436C179.337 19.0147 179.792 19.7793 179.916 20.73L180.288 23.024C180.618 25.5453 180.267 27.736 179.234 29.596C176.299 35.052 172.414 39.9913 167.578 44.414C166.875 45.0753 166.028 45.3647 165.036 45.282C164.044 45.1993 163.196 44.8067 162.494 44.104L160.634 42.244C159.972 41.5413 159.662 40.7353 159.704 39.826C159.745 38.8753 160.117 38.0693 160.82 37.408C163.713 34.7627 166.255 31.89 168.446 28.79C168.528 28.7073 168.528 28.6247 168.446 28.542C168.404 28.418 168.342 28.3767 168.26 28.418L149.226 31.332C148.895 31.4147 148.73 31.6007 148.73 31.89V42.368C148.73 43.7733 148.75 44.8893 148.792 45.716C148.833 46.5013 148.957 47.2453 149.164 47.948C149.412 48.6507 149.66 49.1467 149.908 49.436C150.197 49.7253 150.672 49.994 151.334 50.242C152.036 50.4487 152.739 50.5727 153.442 50.614C154.186 50.6553 155.219 50.676 156.542 50.676C162.824 50.676 168.9 50.3247 174.77 49.622C175.72 49.498 176.568 49.746 177.312 50.366C178.056 50.9447 178.448 51.7093 178.49 52.66L178.552 54.644C178.634 55.636 178.366 56.504 177.746 57.248C177.126 58.0333 176.32 58.4673 175.328 58.55C168.632 59.294 161.502 59.666 153.938 59.666C148.068 59.666 144.059 58.6327 141.91 56.566C139.76 54.458 138.686 50.428 138.686 44.476V33.44C138.686 33.068 138.52 32.9233 138.19 33.006L129.82 34.246C128.869 34.4113 128.001 34.2047 127.216 33.626C126.43 33.0473 125.976 32.2827 125.852 31.332ZM165.594 8.26799C165.883 7.44132 166.42 6.82132 167.206 6.40799C167.991 5.99465 168.838 5.93265 169.748 6.22199C170.657 6.51132 171.318 7.04865 171.732 7.83399C171.938 8.20599 172.228 8.76399 172.6 9.50799C172.972 10.2107 173.24 10.748 173.406 11.12C173.819 11.9467 173.881 12.794 173.592 13.662C173.302 14.4887 172.744 15.088 171.918 15.46C171.132 15.832 170.306 15.8733 169.438 15.584C168.611 15.2947 167.991 14.7573 167.578 13.972C167.412 13.6 167.123 13.0627 166.71 12.36C166.296 11.616 166.007 11.058 165.842 10.686C165.428 9.90065 165.346 9.09465 165.594 8.26799ZM181.342 7.21399C181.548 7.62732 181.838 8.22665 182.21 9.01199C182.623 9.79732 182.912 10.3553 183.078 10.686C183.491 11.5127 183.553 12.3393 183.264 13.166C182.974 13.9927 182.416 14.6127 181.59 15.026C180.763 15.4393 179.916 15.5013 179.048 15.212C178.221 14.9227 177.58 14.3647 177.126 13.538C176.754 12.794 176.154 11.678 175.328 10.19C174.914 9.36332 174.832 8.53665 175.08 7.70999C175.369 6.84199 175.927 6.20132 176.754 5.78799C177.58 5.37465 178.448 5.31265 179.358 5.60199C180.267 5.89132 180.928 6.42865 181.342 7.21399Z" stroke="black" stroke-width="8" mask="url(#path-1-outside-1_324_1856)"/>
<path d="M195.974 20.358C195.106 19.9447 194.527 19.2833 194.238 18.374C193.948 17.4647 194.031 16.5967 194.486 15.77L195.912 12.98C196.366 12.112 197.048 11.5333 197.958 11.244C198.908 10.9133 199.838 10.9547 200.748 11.368C205.005 13.3933 209.366 15.5633 213.83 17.878C214.698 18.2913 215.256 18.9733 215.504 19.924C215.793 20.8747 215.71 21.7633 215.256 22.59L213.644 25.38C213.189 26.2067 212.486 26.7647 211.536 27.054C210.626 27.3433 209.738 27.2607 208.87 26.806C204.571 24.574 200.272 22.4247 195.974 20.358ZM239.994 17.32C240.944 17.5267 241.688 18.0433 242.226 18.87C242.763 19.6553 242.928 20.5233 242.722 21.474C240.283 32.3447 235.488 40.7973 228.338 46.832C221.228 52.8667 211.515 56.6487 199.198 58.178C198.206 58.302 197.317 58.054 196.532 57.434C195.746 56.8553 195.271 56.07 195.106 55.078L194.672 52.226C194.506 51.3167 194.713 50.49 195.292 49.746C195.87 48.9607 196.635 48.506 197.586 48.382C207.671 46.9767 215.524 43.98 221.146 39.392C226.808 34.804 230.797 28.1287 233.112 19.366C233.36 18.4153 233.876 17.692 234.662 17.196C235.488 16.6587 236.377 16.4933 237.328 16.7L239.994 17.32Z" stroke="black" stroke-width="8" mask="url(#path-1-outside-1_324_1856)"/>
<path d="M263.74 60.534C262.789 60.534 261.962 60.1827 261.26 59.48C260.557 58.7773 260.206 57.9507 260.206 57V12.36C260.206 11.4093 260.557 10.5827 261.26 9.87999C261.962 9.17732 262.789 8.82599 263.74 8.82599H267.274C268.224 8.82599 269.03 9.17732 269.692 9.87999C270.394 10.5827 270.746 11.4093 270.746 12.36V25.38C270.746 25.752 270.932 25.9793 271.304 26.062C281.017 28.4593 290.834 31.394 300.754 34.866C301.663 35.1553 302.345 35.7547 302.8 36.664C303.254 37.532 303.316 38.4413 302.986 39.392L301.994 42.182C301.663 43.0913 301.084 43.7527 300.258 44.166C299.431 44.5793 298.563 44.6413 297.654 44.352C289.18 41.3347 280.376 38.648 271.242 36.292C270.911 36.2093 270.746 36.354 270.746 36.726V57C270.746 57.9507 270.394 58.7773 269.692 59.48C269.03 60.1827 268.224 60.534 267.274 60.534H263.74Z" stroke="black" stroke-width="8" mask="url(#path-1-outside-1_324_1856)"/>
<path d="M316.688 61.898C315.737 61.898 314.91 61.5467 314.208 60.844C313.505 60.1413 313.154 59.3147 313.154 58.364V15.336C313.154 14.3853 313.505 13.5587 314.208 12.856C314.91 12.1533 315.737 11.802 316.688 11.802H334.358C334.688 11.802 334.854 11.616 334.854 11.244V9.13599C334.854 8.18532 335.205 7.37932 335.908 6.71799C336.61 6.01532 337.437 5.66399 338.388 5.66399H341.24C342.19 5.66399 343.017 6.01532 343.72 6.71799C344.422 7.37932 344.774 8.18532 344.774 9.13599V11.244C344.774 11.616 344.939 11.802 345.27 11.802H363.312C364.262 11.802 365.068 12.1533 365.73 12.856C366.432 13.5587 366.784 14.3853 366.784 15.336V50.614C366.784 52.5153 366.742 54.0033 366.66 55.078C366.618 56.1527 366.453 57.1653 366.164 58.116C365.874 59.0667 365.544 59.7487 365.172 60.162C364.8 60.5753 364.159 60.9267 363.25 61.216C362.34 61.5053 361.39 61.6707 360.398 61.712C359.406 61.7947 358.021 61.836 356.244 61.836C355.086 61.836 352.792 61.774 349.362 61.65C348.37 61.6087 347.502 61.2367 346.758 60.534C346.055 59.8727 345.683 59.046 345.642 58.054L345.58 56.752C345.538 55.8427 345.848 55.0573 346.51 54.396C347.171 53.6933 347.977 53.3627 348.928 53.404C350.746 53.4867 352.482 53.528 354.136 53.528C355.5 53.528 356.306 53.4247 356.554 53.218C356.802 52.97 356.926 52.226 356.926 50.986V42.058C356.926 41.9753 356.884 41.934 356.802 41.934C356.76 41.934 356.719 41.9547 356.678 41.996C356.595 42.0787 356.306 42.3267 355.81 42.74L353.764 44.042C352.937 44.5793 352.048 44.7653 351.098 44.6C350.147 44.4347 349.382 43.9593 348.804 43.174C345.91 39.2887 343.224 36.044 340.744 33.44C340.661 33.3573 340.537 33.3367 340.372 33.378C340.206 33.378 340.103 33.44 340.062 33.564C337.416 37.6147 333.758 41.1073 329.088 44.042C328.22 44.5793 327.29 44.7653 326.298 44.6C325.347 44.3933 324.541 43.8973 323.88 43.112L323.384 42.554C323.301 42.4713 323.218 42.4507 323.136 42.492C323.094 42.5333 323.074 42.5953 323.074 42.678V58.364C323.074 59.3147 322.722 60.1413 322.02 60.844C321.317 61.5467 320.49 61.898 319.54 61.898H316.688ZM356.926 20.668C356.926 20.296 356.76 20.11 356.43 20.11H345.146C344.774 20.11 344.588 20.2753 344.588 20.606C344.422 22.0113 344.257 23.086 344.092 23.83C344.009 24.1607 344.112 24.4707 344.402 24.76C348.618 28.6453 352.689 33.068 356.616 38.028C356.698 38.1107 356.76 38.152 356.802 38.152C356.884 38.1107 356.926 38.0487 356.926 37.966V20.668ZM323.57 20.11C323.239 20.11 323.074 20.296 323.074 20.668V36.044C323.074 36.3747 323.239 36.4573 323.57 36.292C327.083 34.432 329.728 32.262 331.506 29.782C333.283 27.2607 334.358 24.2227 334.73 20.668C334.73 20.296 334.564 20.11 334.234 20.11H323.57Z" stroke="black" stroke-width="8" mask="url(#path-1-outside-1_324_1856)"/>
<path d="M377.696 24.078C376.745 24.078 375.918 23.7267 375.216 23.024C374.554 22.3213 374.224 21.4947 374.224 20.544V13.228C374.224 12.2773 374.554 11.4507 375.216 10.748C375.918 10.0453 376.745 9.69399 377.696 9.69399H396.73C397.06 9.69399 397.226 9.52865 397.226 9.19799V7.95799C397.226 7.00732 397.577 6.18065 398.28 5.47799C398.982 4.77532 399.809 4.42399 400.76 4.42399H403.86C404.81 4.42399 405.637 4.77532 406.34 5.47799C407.042 6.18065 407.394 7.00732 407.394 7.95799V9.19799C407.394 9.52865 407.559 9.69399 407.89 9.69399H426.924C427.874 9.69399 428.68 10.0453 429.342 10.748C430.044 11.4507 430.396 12.2773 430.396 13.228V20.544C430.396 21.4947 430.044 22.3213 429.342 23.024C428.68 23.7267 427.874 24.078 426.924 24.078H422.956C422.873 24.078 422.811 24.1193 422.77 24.202C422.728 24.2433 422.749 24.3053 422.832 24.388C423.7 25.0907 424.96 26.1447 426.614 27.55C427.316 28.17 427.688 28.976 427.73 29.968C427.771 30.96 427.461 31.7867 426.8 32.448L425.994 33.254C425.291 33.9567 424.444 34.3493 423.452 34.432C422.501 34.4733 421.654 34.1633 420.91 33.502C417.024 30.1953 412.726 26.8887 408.014 23.582C407.228 23.0447 406.774 22.3213 406.65 21.412C406.526 20.4613 406.774 19.6347 407.394 18.932L408.51 17.63C408.675 17.382 408.613 17.258 408.324 17.258H395.056C394.973 17.258 394.911 17.2993 394.87 17.382C394.828 17.4233 394.849 17.4853 394.932 17.568L396.234 18.56C396.978 19.18 397.391 19.9653 397.474 20.916C397.598 21.8253 397.329 22.6313 396.668 23.334C392.865 27.2607 388.112 30.7947 382.408 33.936C381.54 34.3907 380.63 34.494 379.68 34.246C378.729 33.9567 377.985 33.378 377.448 32.51L377.014 31.766C376.518 30.9393 376.394 30.0713 376.642 29.162C376.931 28.2527 377.489 27.5707 378.316 27.116C379.68 26.2893 381.147 25.38 382.718 24.388C382.8 24.3053 382.821 24.2433 382.78 24.202C382.738 24.1193 382.676 24.078 382.594 24.078H377.696ZM413.718 17.258C413.635 17.258 413.573 17.2993 413.532 17.382C413.532 17.4647 413.573 17.5267 413.656 17.568C416.218 19.304 418.45 20.9367 420.352 22.466C420.641 22.6727 420.786 22.6107 420.786 22.28V17.754C420.786 17.4233 420.62 17.258 420.29 17.258H413.718ZM383.834 17.754V23.086C383.834 23.1687 383.875 23.2513 383.958 23.334C384.04 23.3753 384.123 23.3753 384.206 23.334C386.479 21.7633 388.752 19.862 391.026 17.63C391.108 17.5887 391.129 17.5267 391.088 17.444C391.088 17.32 391.046 17.258 390.964 17.258H384.33C383.999 17.258 383.834 17.4233 383.834 17.754ZM375.154 48.382L374.534 47.08C374.12 46.1707 374.058 45.2613 374.348 44.352C374.637 43.4013 375.216 42.6987 376.084 42.244C382.325 38.8133 388.112 34.68 393.444 29.844C395.262 28.232 397.288 27.426 399.52 27.426H405.1C407.332 27.426 409.357 28.232 411.176 29.844C416.549 34.7213 422.315 38.8547 428.474 42.244C429.342 42.6987 429.92 43.4013 430.21 44.352C430.54 45.2613 430.499 46.1707 430.086 47.08L429.466 48.382C429.052 49.25 428.391 49.8493 427.482 50.18C426.572 50.4693 425.704 50.3867 424.878 49.932C424.795 49.8493 424.63 49.746 424.382 49.622C424.134 49.498 423.968 49.4153 423.886 49.374C423.638 49.2087 423.514 49.312 423.514 49.684V59.48C423.514 60.4307 423.162 61.2573 422.46 61.96C421.757 62.6627 420.93 63.014 419.98 63.014H415.95C415.288 63.014 414.73 62.7867 414.276 62.332C413.862 61.8773 413.656 61.3193 413.656 60.658C413.656 60.41 413.532 60.286 413.284 60.286H391.336C391.129 60.286 391.026 60.41 391.026 60.658C391.026 61.3193 390.798 61.8773 390.344 62.332C389.889 62.7867 389.331 63.014 388.67 63.014H384.64C383.689 63.014 382.862 62.6627 382.16 61.96C381.457 61.2573 381.106 60.4307 381.106 59.48V49.684C381.106 49.56 381.044 49.4773 380.92 49.436C380.837 49.3533 380.754 49.3327 380.672 49.374L379.742 49.932C378.915 50.3867 378.047 50.4693 377.138 50.18C376.228 49.8493 375.567 49.25 375.154 48.382ZM394.994 39.516C394.911 39.5987 394.89 39.6813 394.932 39.764C394.973 39.8053 395.035 39.826 395.118 39.826H409.502C409.584 39.826 409.646 39.8053 409.688 39.764C409.729 39.6813 409.729 39.5987 409.688 39.516C407.166 37.3667 404.831 35.1967 402.682 33.006C402.434 32.7993 402.206 32.7993 402 33.006C399.85 35.1967 397.515 37.3667 394.994 39.516ZM391.026 47.7V52.722C391.026 53.0527 391.191 53.218 391.522 53.218H413.098C413.47 53.218 413.656 53.0527 413.656 52.722V47.7C413.656 47.3693 413.47 47.204 413.098 47.204H391.522C391.191 47.204 391.026 47.3693 391.026 47.7Z" stroke="black" stroke-width="8" mask="url(#path-1-outside-1_324_1856)"/>
</svg>
