<?xml version="1.0" encoding="UTF-8"?>
<svg id="_レイヤー_1" data-name="レイヤー 1" xmlns="http://www.w3.org/2000/svg" version="1.1" viewBox="0 0 873 532">
  <defs>
    <style>
      .cls-1 {
        fill: #fff;
        stroke-width: 0px;
      }
    </style>
  </defs>
  <path class="cls-1" d="M763.9,532c0-1,0-2,0-3,0-51.4-41.6-93-93-93s-26.8,3-38.6,8.4c-11.1-38.9-46.9-67.4-89.4-67.4s-42.6,7.8-58.5,20.7c-12.5-6.2-26.6-9.7-41.5-9.7s-31.8,4.2-45.2,11.7c-15.4-30.1-46.7-50.7-82.8-50.7s-3.9,0-5.9.2c-21.4-36.6-61.2-61.2-106.6-61.2s-82.1,22.7-104.1,57c-7.5-1.9-15.3-3-23.4-3s-19.3,1.5-28.1,4.3c-12.3-13.5-28.5-23.4-46.9-27.8v213.5h763.9Z"/>
</svg>