<svg width="234" height="77" viewBox="0 0 234 77" fill="none" xmlns="http://www.w3.org/2000/svg">
<path d="M43.4157 49.1507C42.6337 49.1507 41.9537 48.8617 41.3757 48.2838C40.7977 47.7058 40.5087 47.0258 40.5087 46.2438V45.5298C40.5087 44.7478 40.7977 44.0848 41.3757 43.5408C41.9537 42.9628 42.6337 42.6738 43.4157 42.6738H58.9196C59.1916 42.6738 59.3275 42.5208 59.3275 42.2148V41.1438C59.3275 40.8378 59.1916 40.6848 58.9196 40.6848H48.3117C47.5297 40.6848 46.8497 40.3958 46.2717 39.8178C45.6937 39.2398 45.4047 38.5599 45.4047 37.7779V37.5739C45.4047 36.7919 45.6937 36.1289 46.2717 35.5849C46.8497 35.0069 47.5297 34.7179 48.3117 34.7179H58.9196C59.1916 34.7179 59.3275 34.5649 59.3275 34.2589V33.2389C59.3275 32.9669 59.1916 32.8309 58.9196 32.8309H47.8017C47.0197 32.8309 46.3397 32.5419 45.7617 31.9639C45.1837 31.3859 44.8947 30.7059 44.8947 29.9239V29.1079C44.8947 28.8019 44.7417 28.649 44.4357 28.649H43.8747C43.0927 28.649 42.4127 28.377 41.8347 27.833C41.2567 27.255 40.9677 26.575 40.9677 25.793V21.254C40.9677 20.472 41.2567 19.792 41.8347 19.214C42.4127 18.6361 43.0927 18.3471 43.8747 18.3471H58.9196C59.1916 18.3471 59.3275 18.1941 59.3275 17.8881V17.6841C59.3275 16.9021 59.6165 16.2391 60.1945 15.6951C60.7725 15.1171 61.4525 14.8281 62.2345 14.8281H64.7845C65.5665 14.8281 66.2465 15.1171 66.8245 15.6951C67.4025 16.2391 67.6915 16.9021 67.6915 17.6841V17.8881C67.6915 18.1941 67.8275 18.3471 68.0995 18.3471H83.1443C83.9263 18.3471 84.6063 18.6361 85.1843 19.214C85.7623 19.792 86.0513 20.472 86.0513 21.254V25.793C86.0513 26.575 85.7623 27.255 85.1843 27.833C84.6063 28.377 83.9263 28.649 83.1443 28.649H82.5833C82.2773 28.649 82.1243 28.8019 82.1243 29.1079V29.9239C82.1243 30.7059 81.8353 31.3859 81.2573 31.9639C80.6793 32.5419 79.9993 32.8309 79.2173 32.8309H68.0995C67.8275 32.8309 67.6915 32.9669 67.6915 33.2389V34.2589C67.6915 34.5649 67.8275 34.7179 68.0995 34.7179H78.7074C79.4893 34.7179 80.1693 35.0069 80.7473 35.5849C81.3253 36.1289 81.6143 36.7919 81.6143 37.5739V37.7779C81.6143 38.5599 81.3253 39.2398 80.7473 39.8178C80.1693 40.3958 79.4893 40.6848 78.7074 40.6848H68.0995C67.8275 40.6848 67.6915 40.8378 67.6915 41.1438V42.2148C67.6915 42.5208 67.8275 42.6738 68.0995 42.6738H83.6033C84.3853 42.6738 85.0653 42.9628 85.6433 43.5408C86.2213 44.0848 86.5103 44.7478 86.5103 45.5298V46.2438C86.5103 47.0258 86.2213 47.7058 85.6433 48.2838C85.0653 48.8617 84.3853 49.1507 83.6033 49.1507H69.8844C69.8164 49.1507 69.7484 49.2017 69.6804 49.3037C69.6464 49.3717 69.6634 49.4227 69.7314 49.4567C72.2474 51.7347 76.9904 53.4347 83.9603 54.5567C84.6743 54.6587 85.2013 55.0327 85.5413 55.6787C85.9153 56.3247 85.9663 56.9707 85.6943 57.6167L85.0823 59.1466C84.7763 59.9286 84.2493 60.5236 83.5013 60.9316C82.7533 61.3396 81.9713 61.4586 81.1553 61.2886C77.5514 60.5066 74.2874 59.3676 71.3634 57.8717C68.4395 56.4097 66.0595 54.7777 64.2235 52.9757C64.0195 52.7717 63.8325 52.7717 63.6625 52.9757C59.4465 56.9197 53.5136 59.6906 45.8637 61.2886C45.0477 61.4586 44.2657 61.3396 43.5177 60.9316C42.7697 60.5236 42.2427 59.9286 41.9367 59.1466L41.3247 57.6167C41.0527 56.9367 41.1037 56.2907 41.4777 55.6787C41.8517 55.0327 42.4127 54.6417 43.1607 54.5057C50.0626 53.3837 54.7716 51.7007 57.2876 49.4567C57.3556 49.4227 57.3556 49.3717 57.2876 49.3037C57.2536 49.2017 57.2026 49.1507 57.1346 49.1507H43.4157ZM67.6915 25.13V26.201C67.6915 26.473 67.8275 26.609 68.0995 26.609H78.0954C78.4014 26.609 78.5544 26.473 78.5544 26.201V25.13C78.5544 24.824 78.4014 24.671 78.0954 24.671H68.0995C67.8275 24.671 67.6915 24.824 67.6915 25.13ZM58.9196 26.609C59.1916 26.609 59.3275 26.473 59.3275 26.201V25.13C59.3275 24.824 59.1916 24.671 58.9196 24.671H48.9237C48.6177 24.671 48.4647 24.824 48.4647 25.13V26.201C48.4647 26.473 48.6177 26.609 48.9237 26.609H58.9196ZM117.059 46.5498C114.135 46.5498 112.673 47.5868 112.673 49.6607C112.673 51.8707 114.135 52.9757 117.059 52.9757C118.453 52.9757 119.456 52.6697 120.068 52.0577C120.68 51.4457 120.986 50.4257 120.986 48.9977V48.0798C120.986 47.7398 120.85 47.5188 120.578 47.4168C119.456 46.8388 118.283 46.5498 117.059 46.5498ZM117.518 59.9626C113.608 59.9626 110.565 59.0446 108.389 57.2087C106.247 55.4067 105.176 52.8907 105.176 49.6607C105.176 46.4988 106.247 44.0338 108.389 42.2658C110.531 40.4638 113.574 39.5628 117.518 39.5628C118.538 39.5628 119.558 39.6648 120.578 39.8688C120.85 39.9368 120.986 39.8178 120.986 39.5118V31.7599C120.986 31.4539 120.833 31.3009 120.527 31.3009H109.919C109.137 31.3009 108.457 31.0119 107.879 30.4339C107.335 29.8559 107.063 29.1759 107.063 28.394V27.221C107.063 26.439 107.335 25.759 107.879 25.181C108.457 24.603 109.137 24.314 109.919 24.314H120.527C120.833 24.314 120.986 24.178 120.986 23.906V19.724C120.986 18.942 121.275 18.2791 121.853 17.7351C122.431 17.1571 123.111 16.8681 123.893 16.8681H125.933C126.715 16.8681 127.378 17.1571 127.922 17.7351C128.5 18.2791 128.789 18.942 128.789 19.724V23.906C128.789 24.178 128.942 24.314 129.248 24.314H133.889C134.671 24.314 135.351 24.603 135.929 25.181C136.507 25.759 136.796 26.439 136.796 27.221V28.394C136.796 29.1759 136.507 29.8559 135.929 30.4339C135.351 31.0119 134.671 31.3009 133.889 31.3009H129.248C128.942 31.3009 128.789 31.4539 128.789 31.7599V44.1018C128.789 44.3398 128.908 44.5778 129.146 44.8158C130.744 46.2438 132.767 48.1988 135.215 50.6807C135.759 51.2587 136.031 51.9557 136.031 52.7717C136.031 53.5537 135.742 54.2337 135.164 54.8117L134.144 55.7807C133.566 56.3247 132.886 56.5967 132.104 56.5967C131.322 56.5967 130.659 56.3077 130.115 55.7297C129.945 55.5257 129.673 55.2367 129.299 54.8627C128.925 54.4887 128.653 54.1997 128.483 53.9957C128.415 53.9277 128.313 53.8937 128.177 53.8937C128.075 53.8937 128.007 53.9447 127.973 54.0467C126.409 57.9907 122.924 59.9626 117.518 59.9626ZM98.3422 59.6566C97.5262 59.7586 96.7782 59.5716 96.0982 59.0956C95.4182 58.6196 94.9932 57.9737 94.8232 57.1577C93.5652 51.3777 92.9362 45.2238 92.9362 38.6959C92.9362 32.1679 93.5652 26.014 94.8232 20.234C94.9932 19.418 95.4182 18.7721 96.0982 18.2961C96.7782 17.8201 97.5262 17.6331 98.3422 17.7351L100.28 17.9901C101.028 18.0581 101.623 18.4151 102.065 19.061C102.507 19.673 102.643 20.37 102.473 21.152C101.317 26.592 100.739 32.4399 100.739 38.6959C100.739 44.9518 101.317 50.7997 102.473 56.2397C102.643 57.0217 102.507 57.7187 102.065 58.3307C101.623 58.9426 101.028 59.2996 100.28 59.4016L98.3422 59.6566ZM147.302 57.0557C146.52 57.0557 145.84 56.7667 145.262 56.1887C144.684 55.6107 144.395 54.9307 144.395 54.1487V50.2727C144.395 49.4907 144.684 48.8107 145.262 48.2328C145.84 47.6548 146.52 47.3658 147.302 47.3658H151.178C151.96 47.3658 152.64 47.6548 153.218 48.2328C153.796 48.8107 154.085 49.4907 154.085 50.2727V54.1487C154.085 54.9307 153.796 55.6107 153.218 56.1887C152.64 56.7667 151.96 57.0557 151.178 57.0557H147.302ZM164.484 57.0557C163.702 57.0557 163.022 56.7667 162.444 56.1887C161.866 55.6107 161.577 54.9307 161.577 54.1487V50.2727C161.577 49.4907 161.866 48.8107 162.444 48.2328C163.022 47.6548 163.702 47.3658 164.484 47.3658H168.36C169.142 47.3658 169.822 47.6548 170.4 48.2328C170.978 48.8107 171.267 49.4907 171.267 50.2727V54.1487C171.267 54.9307 170.978 55.6107 170.4 56.1887C169.822 56.7667 169.142 57.0557 168.36 57.0557H164.484ZM181.667 57.0557C180.885 57.0557 180.205 56.7667 179.627 56.1887C179.049 55.6107 178.76 54.9307 178.76 54.1487V50.2727C178.76 49.4907 179.049 48.8107 179.627 48.2328C180.205 47.6548 180.885 47.3658 181.667 47.3658H185.542C186.324 47.3658 187.004 47.6548 187.582 48.2328C188.16 48.8107 188.449 49.4907 188.449 50.2727V54.1487C188.449 54.9307 188.16 55.6107 187.582 56.1887C187.004 56.7667 186.324 57.0557 185.542 57.0557H181.667Z" fill="white"/>
<path d="M218.899 44.8423L208.885 62.1881" stroke="white" stroke-width="5.00731" stroke-linecap="round"/>
<path d="M225.993 32.5557L222.655 38.3376" stroke="white" stroke-width="5.00731" stroke-linecap="round"/>
<path d="M231 23.8828L229.748 26.051" stroke="white" stroke-width="5.00731" stroke-linecap="round"/>
<rect x="-8.01144e-08" y="2.98991e-07" width="4.37753e-07" height="44.2313" transform="matrix(-0.866025 0.5 0.5 0.866025 2.75 23.8828)" stroke="white" stroke-width="4.37753e-07"/>
<path d="M14.8506 44.8423L24.8652 62.1881" stroke="white" stroke-width="5.00731" stroke-linecap="round"/>
<path d="M7.75684 32.5557L11.095 38.3376" stroke="white" stroke-width="5.00731" stroke-linecap="round"/>
<path d="M2.75 23.8828L4.00183 26.051" stroke="white" stroke-width="5.00731" stroke-linecap="round"/>
</svg>
