<svg width="281" height="91" viewBox="0 0 281 91" fill="none" xmlns="http://www.w3.org/2000/svg">
<rect x="37" y="51" width="206" height="30" rx="15" fill="#FFF204"/>
<path d="M52.4777 59.5279C51.5406 59.5279 50.7258 59.1817 50.0333 58.4891C49.3407 57.7965 48.9944 56.9817 48.9944 56.0447V55.1891C48.9944 54.2521 49.3407 53.4577 50.0333 52.8058C50.7258 52.1133 51.5406 51.767 52.4777 51.767H71.0551C71.381 51.767 71.544 51.5836 71.544 51.217V49.9337C71.544 49.567 71.381 49.3837 71.0551 49.3837H58.3442C57.4072 49.3837 56.5924 49.0374 55.8998 48.3448C55.2072 47.6522 54.861 46.8374 54.861 45.9004V45.656C54.861 44.719 55.2072 43.9245 55.8998 43.2727C56.5924 42.5801 57.4072 42.2338 58.3442 42.2338H71.0551C71.381 42.2338 71.544 42.0505 71.544 41.6838V40.4616C71.544 40.1357 71.381 39.9727 71.0551 39.9727H57.7331C56.7961 39.9727 55.9813 39.6265 55.2887 38.9339C54.5961 38.2413 54.2499 37.4265 54.2499 36.4895V35.5117C54.2499 35.1451 54.0665 34.9617 53.6999 34.9617H53.0277C52.0906 34.9617 51.2758 34.6358 50.5833 33.984C49.8907 33.2914 49.5444 32.4766 49.5444 31.5396V26.1008C49.5444 25.1638 49.8907 24.349 50.5833 23.6564C51.2758 22.9638 52.0906 22.6175 53.0277 22.6175H71.0551C71.381 22.6175 71.544 22.4342 71.544 22.0675V21.8231C71.544 20.8861 71.8903 20.0916 72.5829 19.4398C73.2754 18.7472 74.0902 18.4009 75.0273 18.4009H78.0828C79.0198 18.4009 79.8346 18.7472 80.5272 19.4398C81.2197 20.0916 81.566 20.8861 81.566 21.8231V22.0675C81.566 22.4342 81.729 22.6175 82.0549 22.6175H100.082C101.019 22.6175 101.834 22.9638 102.527 23.6564C103.219 24.349 103.566 25.1638 103.566 26.1008V31.5396C103.566 32.4766 103.219 33.2914 102.527 33.984C101.834 34.6358 101.019 34.9617 100.082 34.9617H99.4101C99.0435 34.9617 98.8602 35.1451 98.8602 35.5117V36.4895C98.8602 37.4265 98.5139 38.2413 97.8213 38.9339C97.1287 39.6265 96.3139 39.9727 95.3769 39.9727H82.0549C81.729 39.9727 81.566 40.1357 81.566 40.4616V41.6838C81.566 42.0505 81.729 42.2338 82.0549 42.2338H94.7658C95.7028 42.2338 96.5176 42.5801 97.2102 43.2727C97.9028 43.9245 98.2491 44.719 98.2491 45.656V45.9004C98.2491 46.8374 97.9028 47.6522 97.2102 48.3448C96.5176 49.0374 95.7028 49.3837 94.7658 49.3837H82.0549C81.729 49.3837 81.566 49.567 81.566 49.9337V51.217C81.566 51.5836 81.729 51.767 82.0549 51.767H100.632C101.569 51.767 102.384 52.1133 103.077 52.8058C103.769 53.4577 104.116 54.2521 104.116 55.1891V56.0447C104.116 56.9817 103.769 57.7965 103.077 58.4891C102.384 59.1817 101.569 59.5279 100.632 59.5279H84.1938C84.1123 59.5279 84.0308 59.5891 83.9493 59.7113C83.9086 59.7928 83.9289 59.8539 84.0104 59.8946C87.0252 62.6242 92.7084 64.6612 101.06 66.0056C101.916 66.1278 102.547 66.576 102.955 67.35C103.403 68.1241 103.464 68.8982 103.138 69.6722L102.405 71.5055C102.038 72.4425 101.406 73.1555 100.51 73.6444C99.6138 74.1332 98.6768 74.2758 97.6991 74.0721C93.3806 73.1351 89.4696 71.7703 85.9659 69.9778C82.4623 68.2259 79.6105 66.2704 77.4105 64.1112C77.1661 63.8668 76.942 63.8668 76.7383 64.1112C71.6866 68.837 64.5774 72.1574 55.4109 74.0721C54.4332 74.2758 53.4962 74.1332 52.5999 73.6444C51.7036 73.1555 51.0721 72.4425 50.7055 71.5055L49.9722 69.6722C49.6462 68.8574 49.7073 68.0833 50.1555 67.35C50.6036 66.576 51.2758 66.1075 52.1721 65.9445C60.4423 64.6001 66.0848 62.5834 69.0996 59.8946C69.1811 59.8539 69.1811 59.7928 69.0996 59.7113C69.0588 59.5891 68.9977 59.5279 68.9163 59.5279H52.4777ZM81.566 30.7451V32.0284C81.566 32.3544 81.729 32.5173 82.0549 32.5173H94.0325C94.3991 32.5173 94.5825 32.3544 94.5825 32.0284V30.7451C94.5825 30.3785 94.3991 30.1951 94.0325 30.1951H82.0549C81.729 30.1951 81.566 30.3785 81.566 30.7451ZM71.0551 32.5173C71.381 32.5173 71.544 32.3544 71.544 32.0284V30.7451C71.544 30.3785 71.381 30.1951 71.0551 30.1951H59.0775C58.7109 30.1951 58.5276 30.3785 58.5276 30.7451V32.0284C58.5276 32.3544 58.7109 32.5173 59.0775 32.5173H71.0551ZM140.721 56.4113C137.217 56.4113 135.465 57.6539 135.465 60.139C135.465 62.7871 137.217 64.1112 140.721 64.1112C142.391 64.1112 143.593 63.7445 144.326 63.0112C145.059 62.2779 145.426 61.0557 145.426 59.3446V58.2446C145.426 57.8372 145.263 57.5724 144.937 57.4502C143.593 56.7576 142.187 56.4113 140.721 56.4113ZM141.27 72.4833C136.585 72.4833 132.939 71.3833 130.332 69.1833C127.765 67.0241 126.482 64.0093 126.482 60.139C126.482 56.3502 127.765 53.3966 130.332 51.2781C132.898 49.1189 136.545 48.0393 141.27 48.0393C142.493 48.0393 143.715 48.1615 144.937 48.4059C145.263 48.4874 145.426 48.3448 145.426 47.9782V38.6894C145.426 38.3228 145.243 38.1394 144.876 38.1394H132.165C131.228 38.1394 130.413 37.7932 129.721 37.1006C129.069 36.408 128.743 35.5932 128.743 34.6562V33.2506C128.743 32.3136 129.069 31.4988 129.721 30.8062C130.413 30.1137 131.228 29.7674 132.165 29.7674H144.876C145.243 29.7674 145.426 29.6044 145.426 29.2785V24.2675C145.426 23.3305 145.772 22.536 146.465 21.8842C147.157 21.1916 147.972 20.8453 148.909 20.8453H151.354C152.291 20.8453 153.085 21.1916 153.737 21.8842C154.43 22.536 154.776 23.3305 154.776 24.2675V29.2785C154.776 29.6044 154.959 29.7674 155.326 29.7674H160.887C161.824 29.7674 162.639 30.1137 163.331 30.8062C164.024 31.4988 164.37 32.3136 164.37 33.2506V34.6562C164.37 35.5932 164.024 36.408 163.331 37.1006C162.639 37.7932 161.824 38.1394 160.887 38.1394H155.326C154.959 38.1394 154.776 38.3228 154.776 38.6894V53.4781C154.776 53.7632 154.918 54.0484 155.204 54.3336C157.118 56.0447 159.542 58.3872 162.476 61.3612C163.128 62.0538 163.453 62.889 163.453 63.8668C163.453 64.8038 163.107 65.6186 162.415 66.3112L161.192 67.4722C160.5 68.1241 159.685 68.45 158.748 68.45C157.811 68.45 157.017 68.1037 156.365 67.4111C156.161 67.1667 155.835 66.8204 155.387 66.3723C154.939 65.9241 154.613 65.5778 154.409 65.3334C154.328 65.2519 154.205 65.2112 154.042 65.2112C153.92 65.2112 153.839 65.2723 153.798 65.3945C151.924 70.1204 147.748 72.4833 141.27 72.4833ZM118.293 72.1166C117.315 72.2388 116.419 72.0148 115.604 71.4444C114.789 70.874 114.28 70.1 114.077 69.1222C112.569 62.1964 111.815 54.8225 111.815 47.0004C111.815 39.1783 112.569 31.8044 114.077 24.8786C114.28 23.9008 114.789 23.1268 115.604 22.5564C116.419 21.986 117.315 21.762 118.293 21.8842L120.615 22.1897C121.512 22.2712 122.225 22.699 122.754 23.473C123.284 24.2064 123.447 25.0415 123.243 25.9786C121.858 32.497 121.165 39.5042 121.165 47.0004C121.165 54.4966 121.858 61.5038 123.243 68.0222C123.447 68.9593 123.284 69.7944 122.754 70.5278C122.225 71.2611 121.512 71.6888 120.615 71.8111L118.293 72.1166ZM176.959 69C176.022 69 175.207 68.6537 174.514 67.9611C173.822 67.2685 173.475 66.4537 173.475 65.5167V60.8724C173.475 59.9353 173.822 59.1205 174.514 58.428C175.207 57.7354 176.022 57.3891 176.959 57.3891H181.603C182.54 57.3891 183.355 57.7354 184.047 58.428C184.74 59.1205 185.086 59.9353 185.086 60.8724V65.5167C185.086 66.4537 184.74 67.2685 184.047 67.9611C183.355 68.6537 182.54 69 181.603 69H176.959ZM197.548 69C196.611 69 195.796 68.6537 195.103 67.9611C194.411 67.2685 194.064 66.4537 194.064 65.5167V60.8724C194.064 59.9353 194.411 59.1205 195.103 58.428C195.796 57.7354 196.611 57.3891 197.548 57.3891H202.192C203.129 57.3891 203.944 57.7354 204.636 58.428C205.329 59.1205 205.675 59.9353 205.675 60.8724V65.5167C205.675 66.4537 205.329 67.2685 204.636 67.9611C203.944 68.6537 203.129 69 202.192 69H197.548ZM218.136 69C217.199 69 216.385 68.6537 215.692 67.9611C214.999 67.2685 214.653 66.4537 214.653 65.5167V60.8724C214.653 59.9353 214.999 59.1205 215.692 58.428C216.385 57.7354 217.199 57.3891 218.136 57.3891H222.781C223.718 57.3891 224.533 57.7354 225.225 58.428C225.918 59.1205 226.264 59.9353 226.264 60.8724V65.5167C226.264 66.4537 225.918 67.2685 225.225 67.9611C224.533 68.6537 223.718 69 222.781 69H218.136Z" fill="black"/>
<path d="M262.75 53.665L250.75 74.4496" stroke="black" stroke-width="6" stroke-linecap="round"/>
<path d="M271.25 38.9434L267.25 45.8716" stroke="black" stroke-width="6" stroke-linecap="round"/>
<path d="M277.25 28.5508L275.75 31.1489" stroke="black" stroke-width="6" stroke-linecap="round"/>
<path d="M18.25 53.665L30.25 74.4496" stroke="black" stroke-width="6" stroke-linecap="round"/>
<path d="M9.75 38.9434L13.75 45.8716" stroke="black" stroke-width="6" stroke-linecap="round"/>
<path d="M3.75 28.5508L5.25 31.1489" stroke="black" stroke-width="6" stroke-linecap="round"/>
</svg>
