<svg width="764" height="244" viewBox="0 0 764 244" fill="none" xmlns="http://www.w3.org/2000/svg">
<path d="M764 244C764 243 764 242 764 241C764 189.6 722.4 148 671 148C619.6 148 644.2 151 632.4 156.4C621.3 117.5 585.5 89 543 89C500.5 89 500.4 96.8 484.5 109.7C472 103.5 457.9 100 443 100C428.1 100 411.2 104.2 397.8 111.7C382.4 81.6 351.1 61 315 61C278.9 61 311.1 61 309.1 61.2C287.7 24.6 247.9 0 202.5 0C157.1 0 120.4 22.7 98.4 57C90.9 55.1 83.1 54 75 54C66.9 54 55.7 55.5 46.9 58.3C34.6 44.8 18.4 34.9 0 30.5V244H763.9H764Z" fill="white"/>
</svg>
