<?xml version="1.0" encoding="UTF-8"?>
<svg id="_レイヤー_1" data-name="レイヤー 1" xmlns="http://www.w3.org/2000/svg" version="1.1" viewBox="0 0 878 893">
  <defs>
    <style>
      .cls-1 {
        fill: #fff;
        stroke-width: 0px;
      }
    </style>
  </defs>
  <path class="cls-1" d="M878,317.5c-20.4,3.7-38.5,14.1-51.9,28.9-8.9-2.8-18.3-4.3-28.1-4.3-35,0-65.6,19.4-81.4,48-26,.4-50.1,8.8-69.8,22.9-16.6-25.3-45.2-42-77.8-42s-67.4,20.6-82.8,50.7c-13.4-7.4-28.8-11.7-45.2-11.7s-38,6.1-53,16.6c-17-18.2-41.2-29.6-68-29.6-39.6,0-73.4,24.7-86.8,59.6-3.4-.4-6.8-.6-10.2-.6-29.4,0-55.7,13.7-72.7,35h-49.8c-16.7-16.1-39.4-26-64.5-26s-9.8.4-14.6,1.1c-4.6-12.8-12-24.2-21.4-33.6v460.5h878V317.5Z"/>
</svg>