<?xml version="1.0" encoding="UTF-8"?>
<svg id="_レイヤー_1" data-name="レイヤー 1" xmlns="http://www.w3.org/2000/svg" version="1.1" viewBox="0 0 878 1159">
  <defs>
    <style>
      .cls-1 {
        fill: #0170ba;
        stroke-width: 0px;
      }
    </style>
  </defs>
  <path class="cls-1" d="M878,467.3c-14-8.5-30.4-13.3-48-13.3-29.4,0-55.7,13.7-72.7,35h-85.8c-15.2-30.8-46.8-52-83.5-52s-26.1,2.8-37.6,7.9c-16.6-15.5-38.9-24.9-63.4-24.9s-31.8,4.2-45.2,11.7c-15.4-30.1-46.7-50.7-82.8-50.7s-7.3.2-10.9.6c-24.3-37.1-66.6-61.6-114.6-61.6s-65.5,12.5-89.5,33.1c-4.6-.7-9.3-1.1-14-1.1-9.8,0-19.3,1.5-28.1,4.3-16.9-18.6-41.3-30.3-68.4-30.3s-23.1,2.2-33.5,6.3v826.7h878V467.3Z"/>
</svg>