<svg width="336" height="46" viewBox="0 0 336 46" fill="none" xmlns="http://www.w3.org/2000/svg">
<mask id="path-1-outside-1_458_2484" maskUnits="userSpaceOnUse" x="0.333984" y="0.0605469" width="336" height="46" fill="black">
<rect fill="white" x="0.333984" y="0.0605469" width="336" height="46"/>
<path d="M6.68598 39.0836C6.04198 39.0836 5.48198 38.8456 5.00598 38.3696C4.55798 37.8936 4.33398 37.3336 4.33398 36.6896V35.3456C4.33398 34.7016 4.55798 34.1556 5.00598 33.7076C5.48198 33.2316 6.04198 32.9936 6.68598 32.9936H27.812C28.064 32.9936 28.19 32.8676 28.19 32.6156V15.1436C28.19 14.8916 28.064 14.7656 27.812 14.7656H6.68598C6.04198 14.7656 5.48198 14.5416 5.00598 14.0936C4.55798 13.6176 4.33398 13.0576 4.33398 12.4136V11.0696C4.33398 10.4256 4.55798 9.86561 5.00598 9.38961C5.48198 8.9136 6.04198 8.6756 6.68598 8.6756H32.6C33.244 8.6756 33.804 8.9136 34.28 9.38961C34.756 9.86561 34.994 10.4256 34.994 11.0696V36.6896C34.994 37.3336 34.756 37.8936 34.28 38.3696C33.804 38.8456 33.244 39.0836 32.6 39.0836H6.68598Z"/>
<path d="M46.88 27.2816C46.236 27.2816 45.676 27.0436 45.2 26.5676C44.724 26.0916 44.486 25.5316 44.486 24.8876V22.8716C44.486 22.2276 44.724 21.6676 45.2 21.1916C45.676 20.7156 46.236 20.4776 46.88 20.4776H77.12C77.764 20.4776 78.324 20.7156 78.8 21.1916C79.276 21.6676 79.514 22.2276 79.514 22.8716V24.8876C79.514 25.5316 79.276 26.0916 78.8 26.5676C78.324 27.0436 77.764 27.2816 77.12 27.2816H46.88Z"/>
<path d="M119.33 9.55761C119.078 9.05361 118.672 8.29761 118.112 7.2896C117.832 6.72961 117.776 6.16961 117.944 5.60961C118.14 5.02161 118.518 4.58761 119.078 4.30761C119.638 4.02761 120.226 3.98561 120.842 4.1816C121.458 4.37761 121.906 4.74161 122.186 5.27361C122.326 5.55361 122.522 5.95961 122.774 6.49161C123.054 7.02361 123.25 7.40161 123.362 7.62561C123.642 8.18561 123.684 8.74561 123.488 9.30561C123.292 9.86561 122.914 10.2856 122.354 10.5656C121.794 10.8456 121.22 10.8876 120.632 10.6916C120.072 10.4956 119.638 10.1176 119.33 9.55761ZM90.476 10.2296C90.476 9.58561 90.714 9.02561 91.19 8.54961C91.666 8.07361 92.226 7.83561 92.87 7.83561H111.476C111.672 7.83561 111.742 7.73761 111.686 7.54161C111.518 7.03761 111.532 6.53361 111.728 6.02961C111.924 5.52561 112.26 5.14761 112.736 4.89561C113.296 4.61561 113.856 4.57361 114.416 4.7696C115.004 4.96561 115.452 5.34361 115.76 5.90361C115.872 6.15561 116.068 6.53361 116.348 7.03761C116.628 7.51361 116.824 7.87761 116.936 8.12961C117.216 8.68961 117.258 9.26361 117.062 9.85161C116.866 10.4116 116.488 10.8176 115.928 11.0696C115.788 11.1256 115.578 11.1816 115.298 11.2376C115.046 11.2936 114.92 11.4196 114.92 11.6156C114.892 12.2596 114.64 12.8056 114.164 13.2536C113.716 13.7016 113.17 13.9256 112.526 13.9256H92.87C92.226 13.9256 91.666 13.7016 91.19 13.2536C90.714 12.7776 90.476 12.2176 90.476 11.5736V10.2296ZM87.914 25.2656C87.27 25.2656 86.71 25.0416 86.234 24.5936C85.758 24.1176 85.52 23.5576 85.52 22.9136V21.5696C85.52 20.9256 85.758 20.3656 86.234 19.8896C86.71 19.4136 87.27 19.1756 87.914 19.1756H119.666C120.31 19.1756 120.87 19.4136 121.346 19.8896C121.822 20.3656 122.06 20.9256 122.06 21.5696V22.9136C122.06 23.5576 121.822 24.1176 121.346 24.5936C120.87 25.0416 120.31 25.2656 119.666 25.2656H109.04C108.816 25.2656 108.704 25.3916 108.704 25.6436C108.648 29.8716 107.542 33.3016 105.386 35.9336C103.23 38.5376 99.954 40.4136 95.558 41.5616C94.914 41.7296 94.298 41.6316 93.71 41.2676C93.122 40.9316 92.716 40.4416 92.492 39.7976L91.988 38.2436C91.792 37.6556 91.862 37.0816 92.198 36.5216C92.534 35.9616 93.01 35.5836 93.626 35.3876C96.426 34.5476 98.428 33.3716 99.632 31.8596C100.864 30.3476 101.508 28.2756 101.564 25.6436C101.564 25.3916 101.438 25.2656 101.186 25.2656H87.914Z"/>
<path d="M132.56 28.4996L132.434 27.7436C132.322 27.0996 132.448 26.5256 132.812 26.0216C133.204 25.4896 133.722 25.1536 134.366 25.0136C138.258 24.2576 142.024 23.0396 145.664 21.3596C149.332 19.6516 152.566 17.6356 155.366 15.3116C155.842 14.9196 156.402 14.7516 157.046 14.8076C157.69 14.8356 158.208 15.1016 158.6 15.6056L159.062 16.1936C159.482 16.7256 159.664 17.3276 159.608 17.9996C159.552 18.6436 159.272 19.1756 158.768 19.5956C156.612 21.4156 154.176 23.0816 151.46 24.5936C151.264 24.6776 151.166 24.8456 151.166 25.0976V38.7476C151.166 39.3916 150.928 39.9376 150.452 40.3856C149.976 40.8616 149.416 41.0996 148.772 41.0996H147.176C146.532 41.0996 145.972 40.8616 145.496 40.3856C145.02 39.9376 144.782 39.3916 144.782 38.7476V28.0796C144.782 27.9956 144.74 27.9396 144.656 27.9116C144.572 27.8556 144.488 27.8416 144.404 27.8696C141.352 29.0176 138.3 29.8856 135.248 30.4736C134.604 30.5856 134.016 30.4596 133.484 30.0956C132.98 29.7036 132.672 29.1716 132.56 28.4996Z"/>
<path d="M170.696 33.2456L170.276 31.6076C170.108 30.9916 170.192 30.4036 170.528 29.8436C170.864 29.2836 171.354 28.9336 171.998 28.7936C182.246 26.2736 190.142 22.3816 195.686 17.1176C195.742 17.0896 195.756 17.0476 195.728 16.9916C195.7 16.9076 195.658 16.8656 195.602 16.8656H174.896C174.252 16.8656 173.692 16.6416 173.216 16.1936C172.74 15.7176 172.502 15.1576 172.502 14.5136V13.1696C172.502 12.5256 172.74 11.9656 173.216 11.4896C173.692 11.0136 174.252 10.7756 174.896 10.7756H184.136C184.388 10.7756 184.514 10.6636 184.514 10.4396V7.4996C184.514 6.8556 184.752 6.29561 185.228 5.81961C185.704 5.34361 186.264 5.10561 186.908 5.10561H189.26C189.904 5.10561 190.464 5.34361 190.94 5.81961C191.416 6.29561 191.654 6.8556 191.654 7.4996V10.4396C191.654 10.6636 191.766 10.7756 191.99 10.7756H202.028C202.672 10.7756 203.232 11.0136 203.708 11.4896C204.184 11.9656 204.422 12.5256 204.422 13.1696V16.5296C204.422 16.7536 204.352 16.9776 204.212 17.2016C202.588 19.7216 200.348 22.1296 197.492 24.4256C197.38 24.5656 197.394 24.7056 197.534 24.8456C200.474 27.0576 202.84 28.8636 204.632 30.2636C205.136 30.6556 205.416 31.1876 205.472 31.8596C205.528 32.5036 205.346 33.0636 204.926 33.5396L203.75 34.9256C203.302 35.4296 202.756 35.7236 202.112 35.8076C201.468 35.8636 200.88 35.6956 200.348 35.3036C197.912 33.4276 195.098 31.2996 191.906 28.9196C191.738 28.8076 191.654 28.8636 191.654 29.0876V39.4196C191.654 40.0636 191.416 40.6236 190.94 41.0996C190.464 41.5756 189.904 41.8136 189.26 41.8136H186.908C186.264 41.8136 185.704 41.5756 185.228 41.0996C184.752 40.6236 184.514 40.0636 184.514 39.4196V32.0276C184.514 31.8316 184.402 31.7616 184.178 31.8176C180.818 33.1336 177.304 34.2116 173.636 35.0516C172.992 35.1916 172.376 35.0936 171.788 34.7576C171.228 34.3936 170.864 33.8896 170.696 33.2456Z"/>
<path d="M214.88 27.2816C214.236 27.2816 213.676 27.0436 213.2 26.5676C212.724 26.0916 212.486 25.5316 212.486 24.8876V22.8716C212.486 22.2276 212.724 21.6676 213.2 21.1916C213.676 20.7156 214.236 20.4776 214.88 20.4776H245.12C245.764 20.4776 246.324 20.7156 246.8 21.1916C247.276 21.6676 247.514 22.2276 247.514 22.8716V24.8876C247.514 25.5316 247.276 26.0916 246.8 26.5676C246.324 27.0436 245.764 27.2816 245.12 27.2816H214.88Z"/>
<path d="M256.922 25.8116L255.872 24.8456C255.396 24.4256 255.13 23.8936 255.074 23.2496C255.046 22.5776 255.242 22.0036 255.662 21.5276C259.134 17.4116 261.402 12.8756 262.466 7.91961C262.606 7.24761 262.942 6.70161 263.474 6.28161C264.006 5.83361 264.594 5.62361 265.238 5.65161L266.918 5.77761C267.59 5.83361 268.136 6.09961 268.556 6.57561C268.976 7.05161 269.13 7.5976 269.018 8.21361C269.018 8.29761 268.99 8.43761 268.934 8.63361C268.878 8.80161 268.85 8.92761 268.85 9.01161C268.822 9.09561 268.836 9.17961 268.892 9.26361C268.976 9.34761 269.06 9.38961 269.144 9.38961H285.272C285.916 9.38961 286.476 9.62761 286.952 10.1036C287.428 10.5516 287.666 11.0976 287.666 11.7416C287.61 21.1776 285.524 28.2196 281.408 32.8676C277.292 37.4876 270.712 40.3156 261.668 41.3516C260.996 41.4356 260.394 41.2676 259.862 40.8476C259.33 40.4276 259.008 39.8956 258.896 39.2516L258.644 37.8656C258.532 37.2216 258.672 36.6476 259.064 36.1436C259.456 35.6116 259.974 35.3036 260.618 35.2196C267.198 34.3236 271.944 32.5316 274.856 29.8436C275.024 29.6756 274.996 29.5356 274.772 29.4236C272.7 28.3596 270.096 27.0996 266.96 25.6436C266.372 25.3636 265.98 24.9296 265.784 24.3416C265.616 23.7256 265.686 23.1376 265.994 22.5776L266.918 20.8556C267.226 20.2676 267.688 19.8756 268.304 19.6796C268.948 19.4556 269.578 19.4836 270.194 19.7636C273.638 21.3596 276.382 22.6756 278.426 23.7116C278.622 23.7956 278.762 23.7536 278.846 23.5856C279.658 21.4016 280.162 18.8116 280.358 15.8156C280.358 15.5916 280.246 15.4796 280.022 15.4796H267.338C267.086 15.4796 266.918 15.5916 266.834 15.8156C265.322 19.3996 263.166 22.6896 260.366 25.6856C259.918 26.1616 259.358 26.4136 258.686 26.4416C258.014 26.4696 257.426 26.2596 256.922 25.8116Z"/>
<path d="M298.88 27.2816C298.236 27.2816 297.676 27.0436 297.2 26.5676C296.724 26.0916 296.486 25.5316 296.486 24.8876V22.8716C296.486 22.2276 296.724 21.6676 297.2 21.1916C297.676 20.7156 298.236 20.4776 298.88 20.4776H329.12C329.764 20.4776 330.324 20.7156 330.8 21.1916C331.276 21.6676 331.514 22.2276 331.514 22.8716V24.8876C331.514 25.5316 331.276 26.0916 330.8 26.5676C330.324 27.0436 329.764 27.2816 329.12 27.2816H298.88Z"/>
</mask>
<path d="M6.68598 39.0836C6.04198 39.0836 5.48198 38.8456 5.00598 38.3696C4.55798 37.8936 4.33398 37.3336 4.33398 36.6896V35.3456C4.33398 34.7016 4.55798 34.1556 5.00598 33.7076C5.48198 33.2316 6.04198 32.9936 6.68598 32.9936H27.812C28.064 32.9936 28.19 32.8676 28.19 32.6156V15.1436C28.19 14.8916 28.064 14.7656 27.812 14.7656H6.68598C6.04198 14.7656 5.48198 14.5416 5.00598 14.0936C4.55798 13.6176 4.33398 13.0576 4.33398 12.4136V11.0696C4.33398 10.4256 4.55798 9.86561 5.00598 9.38961C5.48198 8.9136 6.04198 8.6756 6.68598 8.6756H32.6C33.244 8.6756 33.804 8.9136 34.28 9.38961C34.756 9.86561 34.994 10.4256 34.994 11.0696V36.6896C34.994 37.3336 34.756 37.8936 34.28 38.3696C33.804 38.8456 33.244 39.0836 32.6 39.0836H6.68598Z" fill="white"/>
<path d="M46.88 27.2816C46.236 27.2816 45.676 27.0436 45.2 26.5676C44.724 26.0916 44.486 25.5316 44.486 24.8876V22.8716C44.486 22.2276 44.724 21.6676 45.2 21.1916C45.676 20.7156 46.236 20.4776 46.88 20.4776H77.12C77.764 20.4776 78.324 20.7156 78.8 21.1916C79.276 21.6676 79.514 22.2276 79.514 22.8716V24.8876C79.514 25.5316 79.276 26.0916 78.8 26.5676C78.324 27.0436 77.764 27.2816 77.12 27.2816H46.88Z" fill="white"/>
<path d="M119.33 9.55761C119.078 9.05361 118.672 8.29761 118.112 7.2896C117.832 6.72961 117.776 6.16961 117.944 5.60961C118.14 5.02161 118.518 4.58761 119.078 4.30761C119.638 4.02761 120.226 3.98561 120.842 4.1816C121.458 4.37761 121.906 4.74161 122.186 5.27361C122.326 5.55361 122.522 5.95961 122.774 6.49161C123.054 7.02361 123.25 7.40161 123.362 7.62561C123.642 8.18561 123.684 8.74561 123.488 9.30561C123.292 9.86561 122.914 10.2856 122.354 10.5656C121.794 10.8456 121.22 10.8876 120.632 10.6916C120.072 10.4956 119.638 10.1176 119.33 9.55761ZM90.476 10.2296C90.476 9.58561 90.714 9.02561 91.19 8.54961C91.666 8.07361 92.226 7.83561 92.87 7.83561H111.476C111.672 7.83561 111.742 7.73761 111.686 7.54161C111.518 7.03761 111.532 6.53361 111.728 6.02961C111.924 5.52561 112.26 5.14761 112.736 4.89561C113.296 4.61561 113.856 4.57361 114.416 4.7696C115.004 4.96561 115.452 5.34361 115.76 5.90361C115.872 6.15561 116.068 6.53361 116.348 7.03761C116.628 7.51361 116.824 7.87761 116.936 8.12961C117.216 8.68961 117.258 9.26361 117.062 9.85161C116.866 10.4116 116.488 10.8176 115.928 11.0696C115.788 11.1256 115.578 11.1816 115.298 11.2376C115.046 11.2936 114.92 11.4196 114.92 11.6156C114.892 12.2596 114.64 12.8056 114.164 13.2536C113.716 13.7016 113.17 13.9256 112.526 13.9256H92.87C92.226 13.9256 91.666 13.7016 91.19 13.2536C90.714 12.7776 90.476 12.2176 90.476 11.5736V10.2296ZM87.914 25.2656C87.27 25.2656 86.71 25.0416 86.234 24.5936C85.758 24.1176 85.52 23.5576 85.52 22.9136V21.5696C85.52 20.9256 85.758 20.3656 86.234 19.8896C86.71 19.4136 87.27 19.1756 87.914 19.1756H119.666C120.31 19.1756 120.87 19.4136 121.346 19.8896C121.822 20.3656 122.06 20.9256 122.06 21.5696V22.9136C122.06 23.5576 121.822 24.1176 121.346 24.5936C120.87 25.0416 120.31 25.2656 119.666 25.2656H109.04C108.816 25.2656 108.704 25.3916 108.704 25.6436C108.648 29.8716 107.542 33.3016 105.386 35.9336C103.23 38.5376 99.954 40.4136 95.558 41.5616C94.914 41.7296 94.298 41.6316 93.71 41.2676C93.122 40.9316 92.716 40.4416 92.492 39.7976L91.988 38.2436C91.792 37.6556 91.862 37.0816 92.198 36.5216C92.534 35.9616 93.01 35.5836 93.626 35.3876C96.426 34.5476 98.428 33.3716 99.632 31.8596C100.864 30.3476 101.508 28.2756 101.564 25.6436C101.564 25.3916 101.438 25.2656 101.186 25.2656H87.914Z" fill="white"/>
<path d="M132.56 28.4996L132.434 27.7436C132.322 27.0996 132.448 26.5256 132.812 26.0216C133.204 25.4896 133.722 25.1536 134.366 25.0136C138.258 24.2576 142.024 23.0396 145.664 21.3596C149.332 19.6516 152.566 17.6356 155.366 15.3116C155.842 14.9196 156.402 14.7516 157.046 14.8076C157.69 14.8356 158.208 15.1016 158.6 15.6056L159.062 16.1936C159.482 16.7256 159.664 17.3276 159.608 17.9996C159.552 18.6436 159.272 19.1756 158.768 19.5956C156.612 21.4156 154.176 23.0816 151.46 24.5936C151.264 24.6776 151.166 24.8456 151.166 25.0976V38.7476C151.166 39.3916 150.928 39.9376 150.452 40.3856C149.976 40.8616 149.416 41.0996 148.772 41.0996H147.176C146.532 41.0996 145.972 40.8616 145.496 40.3856C145.02 39.9376 144.782 39.3916 144.782 38.7476V28.0796C144.782 27.9956 144.74 27.9396 144.656 27.9116C144.572 27.8556 144.488 27.8416 144.404 27.8696C141.352 29.0176 138.3 29.8856 135.248 30.4736C134.604 30.5856 134.016 30.4596 133.484 30.0956C132.98 29.7036 132.672 29.1716 132.56 28.4996Z" fill="white"/>
<path d="M170.696 33.2456L170.276 31.6076C170.108 30.9916 170.192 30.4036 170.528 29.8436C170.864 29.2836 171.354 28.9336 171.998 28.7936C182.246 26.2736 190.142 22.3816 195.686 17.1176C195.742 17.0896 195.756 17.0476 195.728 16.9916C195.7 16.9076 195.658 16.8656 195.602 16.8656H174.896C174.252 16.8656 173.692 16.6416 173.216 16.1936C172.74 15.7176 172.502 15.1576 172.502 14.5136V13.1696C172.502 12.5256 172.74 11.9656 173.216 11.4896C173.692 11.0136 174.252 10.7756 174.896 10.7756H184.136C184.388 10.7756 184.514 10.6636 184.514 10.4396V7.4996C184.514 6.8556 184.752 6.29561 185.228 5.81961C185.704 5.34361 186.264 5.10561 186.908 5.10561H189.26C189.904 5.10561 190.464 5.34361 190.94 5.81961C191.416 6.29561 191.654 6.8556 191.654 7.4996V10.4396C191.654 10.6636 191.766 10.7756 191.99 10.7756H202.028C202.672 10.7756 203.232 11.0136 203.708 11.4896C204.184 11.9656 204.422 12.5256 204.422 13.1696V16.5296C204.422 16.7536 204.352 16.9776 204.212 17.2016C202.588 19.7216 200.348 22.1296 197.492 24.4256C197.38 24.5656 197.394 24.7056 197.534 24.8456C200.474 27.0576 202.84 28.8636 204.632 30.2636C205.136 30.6556 205.416 31.1876 205.472 31.8596C205.528 32.5036 205.346 33.0636 204.926 33.5396L203.75 34.9256C203.302 35.4296 202.756 35.7236 202.112 35.8076C201.468 35.8636 200.88 35.6956 200.348 35.3036C197.912 33.4276 195.098 31.2996 191.906 28.9196C191.738 28.8076 191.654 28.8636 191.654 29.0876V39.4196C191.654 40.0636 191.416 40.6236 190.94 41.0996C190.464 41.5756 189.904 41.8136 189.26 41.8136H186.908C186.264 41.8136 185.704 41.5756 185.228 41.0996C184.752 40.6236 184.514 40.0636 184.514 39.4196V32.0276C184.514 31.8316 184.402 31.7616 184.178 31.8176C180.818 33.1336 177.304 34.2116 173.636 35.0516C172.992 35.1916 172.376 35.0936 171.788 34.7576C171.228 34.3936 170.864 33.8896 170.696 33.2456Z" fill="white"/>
<path d="M214.88 27.2816C214.236 27.2816 213.676 27.0436 213.2 26.5676C212.724 26.0916 212.486 25.5316 212.486 24.8876V22.8716C212.486 22.2276 212.724 21.6676 213.2 21.1916C213.676 20.7156 214.236 20.4776 214.88 20.4776H245.12C245.764 20.4776 246.324 20.7156 246.8 21.1916C247.276 21.6676 247.514 22.2276 247.514 22.8716V24.8876C247.514 25.5316 247.276 26.0916 246.8 26.5676C246.324 27.0436 245.764 27.2816 245.12 27.2816H214.88Z" fill="white"/>
<path d="M256.922 25.8116L255.872 24.8456C255.396 24.4256 255.13 23.8936 255.074 23.2496C255.046 22.5776 255.242 22.0036 255.662 21.5276C259.134 17.4116 261.402 12.8756 262.466 7.91961C262.606 7.24761 262.942 6.70161 263.474 6.28161C264.006 5.83361 264.594 5.62361 265.238 5.65161L266.918 5.77761C267.59 5.83361 268.136 6.09961 268.556 6.57561C268.976 7.05161 269.13 7.5976 269.018 8.21361C269.018 8.29761 268.99 8.43761 268.934 8.63361C268.878 8.80161 268.85 8.92761 268.85 9.01161C268.822 9.09561 268.836 9.17961 268.892 9.26361C268.976 9.34761 269.06 9.38961 269.144 9.38961H285.272C285.916 9.38961 286.476 9.62761 286.952 10.1036C287.428 10.5516 287.666 11.0976 287.666 11.7416C287.61 21.1776 285.524 28.2196 281.408 32.8676C277.292 37.4876 270.712 40.3156 261.668 41.3516C260.996 41.4356 260.394 41.2676 259.862 40.8476C259.33 40.4276 259.008 39.8956 258.896 39.2516L258.644 37.8656C258.532 37.2216 258.672 36.6476 259.064 36.1436C259.456 35.6116 259.974 35.3036 260.618 35.2196C267.198 34.3236 271.944 32.5316 274.856 29.8436C275.024 29.6756 274.996 29.5356 274.772 29.4236C272.7 28.3596 270.096 27.0996 266.96 25.6436C266.372 25.3636 265.98 24.9296 265.784 24.3416C265.616 23.7256 265.686 23.1376 265.994 22.5776L266.918 20.8556C267.226 20.2676 267.688 19.8756 268.304 19.6796C268.948 19.4556 269.578 19.4836 270.194 19.7636C273.638 21.3596 276.382 22.6756 278.426 23.7116C278.622 23.7956 278.762 23.7536 278.846 23.5856C279.658 21.4016 280.162 18.8116 280.358 15.8156C280.358 15.5916 280.246 15.4796 280.022 15.4796H267.338C267.086 15.4796 266.918 15.5916 266.834 15.8156C265.322 19.3996 263.166 22.6896 260.366 25.6856C259.918 26.1616 259.358 26.4136 258.686 26.4416C258.014 26.4696 257.426 26.2596 256.922 25.8116Z" fill="white"/>
<path d="M298.88 27.2816C298.236 27.2816 297.676 27.0436 297.2 26.5676C296.724 26.0916 296.486 25.5316 296.486 24.8876V22.8716C296.486 22.2276 296.724 21.6676 297.2 21.1916C297.676 20.7156 298.236 20.4776 298.88 20.4776H329.12C329.764 20.4776 330.324 20.7156 330.8 21.1916C331.276 21.6676 331.514 22.2276 331.514 22.8716V24.8876C331.514 25.5316 331.276 26.0916 330.8 26.5676C330.324 27.0436 329.764 27.2816 329.12 27.2816H298.88Z" fill="white"/>
<path d="M6.68598 39.0836C6.04198 39.0836 5.48198 38.8456 5.00598 38.3696C4.55798 37.8936 4.33398 37.3336 4.33398 36.6896V35.3456C4.33398 34.7016 4.55798 34.1556 5.00598 33.7076C5.48198 33.2316 6.04198 32.9936 6.68598 32.9936H27.812C28.064 32.9936 28.19 32.8676 28.19 32.6156V15.1436C28.19 14.8916 28.064 14.7656 27.812 14.7656H6.68598C6.04198 14.7656 5.48198 14.5416 5.00598 14.0936C4.55798 13.6176 4.33398 13.0576 4.33398 12.4136V11.0696C4.33398 10.4256 4.55798 9.86561 5.00598 9.38961C5.48198 8.9136 6.04198 8.6756 6.68598 8.6756H32.6C33.244 8.6756 33.804 8.9136 34.28 9.38961C34.756 9.86561 34.994 10.4256 34.994 11.0696V36.6896C34.994 37.3336 34.756 37.8936 34.28 38.3696C33.804 38.8456 33.244 39.0836 32.6 39.0836H6.68598Z" stroke="black" stroke-width="8" mask="url(#path-1-outside-1_458_2484)"/>
<path d="M46.88 27.2816C46.236 27.2816 45.676 27.0436 45.2 26.5676C44.724 26.0916 44.486 25.5316 44.486 24.8876V22.8716C44.486 22.2276 44.724 21.6676 45.2 21.1916C45.676 20.7156 46.236 20.4776 46.88 20.4776H77.12C77.764 20.4776 78.324 20.7156 78.8 21.1916C79.276 21.6676 79.514 22.2276 79.514 22.8716V24.8876C79.514 25.5316 79.276 26.0916 78.8 26.5676C78.324 27.0436 77.764 27.2816 77.12 27.2816H46.88Z" stroke="black" stroke-width="8" mask="url(#path-1-outside-1_458_2484)"/>
<path d="M119.33 9.55761C119.078 9.05361 118.672 8.29761 118.112 7.2896C117.832 6.72961 117.776 6.16961 117.944 5.60961C118.14 5.02161 118.518 4.58761 119.078 4.30761C119.638 4.02761 120.226 3.98561 120.842 4.1816C121.458 4.37761 121.906 4.74161 122.186 5.27361C122.326 5.55361 122.522 5.95961 122.774 6.49161C123.054 7.02361 123.25 7.40161 123.362 7.62561C123.642 8.18561 123.684 8.74561 123.488 9.30561C123.292 9.86561 122.914 10.2856 122.354 10.5656C121.794 10.8456 121.22 10.8876 120.632 10.6916C120.072 10.4956 119.638 10.1176 119.33 9.55761ZM90.476 10.2296C90.476 9.58561 90.714 9.02561 91.19 8.54961C91.666 8.07361 92.226 7.83561 92.87 7.83561H111.476C111.672 7.83561 111.742 7.73761 111.686 7.54161C111.518 7.03761 111.532 6.53361 111.728 6.02961C111.924 5.52561 112.26 5.14761 112.736 4.89561C113.296 4.61561 113.856 4.57361 114.416 4.7696C115.004 4.96561 115.452 5.34361 115.76 5.90361C115.872 6.15561 116.068 6.53361 116.348 7.03761C116.628 7.51361 116.824 7.87761 116.936 8.12961C117.216 8.68961 117.258 9.26361 117.062 9.85161C116.866 10.4116 116.488 10.8176 115.928 11.0696C115.788 11.1256 115.578 11.1816 115.298 11.2376C115.046 11.2936 114.92 11.4196 114.92 11.6156C114.892 12.2596 114.64 12.8056 114.164 13.2536C113.716 13.7016 113.17 13.9256 112.526 13.9256H92.87C92.226 13.9256 91.666 13.7016 91.19 13.2536C90.714 12.7776 90.476 12.2176 90.476 11.5736V10.2296ZM87.914 25.2656C87.27 25.2656 86.71 25.0416 86.234 24.5936C85.758 24.1176 85.52 23.5576 85.52 22.9136V21.5696C85.52 20.9256 85.758 20.3656 86.234 19.8896C86.71 19.4136 87.27 19.1756 87.914 19.1756H119.666C120.31 19.1756 120.87 19.4136 121.346 19.8896C121.822 20.3656 122.06 20.9256 122.06 21.5696V22.9136C122.06 23.5576 121.822 24.1176 121.346 24.5936C120.87 25.0416 120.31 25.2656 119.666 25.2656H109.04C108.816 25.2656 108.704 25.3916 108.704 25.6436C108.648 29.8716 107.542 33.3016 105.386 35.9336C103.23 38.5376 99.954 40.4136 95.558 41.5616C94.914 41.7296 94.298 41.6316 93.71 41.2676C93.122 40.9316 92.716 40.4416 92.492 39.7976L91.988 38.2436C91.792 37.6556 91.862 37.0816 92.198 36.5216C92.534 35.9616 93.01 35.5836 93.626 35.3876C96.426 34.5476 98.428 33.3716 99.632 31.8596C100.864 30.3476 101.508 28.2756 101.564 25.6436C101.564 25.3916 101.438 25.2656 101.186 25.2656H87.914Z" stroke="black" stroke-width="8" mask="url(#path-1-outside-1_458_2484)"/>
<path d="M132.56 28.4996L132.434 27.7436C132.322 27.0996 132.448 26.5256 132.812 26.0216C133.204 25.4896 133.722 25.1536 134.366 25.0136C138.258 24.2576 142.024 23.0396 145.664 21.3596C149.332 19.6516 152.566 17.6356 155.366 15.3116C155.842 14.9196 156.402 14.7516 157.046 14.8076C157.69 14.8356 158.208 15.1016 158.6 15.6056L159.062 16.1936C159.482 16.7256 159.664 17.3276 159.608 17.9996C159.552 18.6436 159.272 19.1756 158.768 19.5956C156.612 21.4156 154.176 23.0816 151.46 24.5936C151.264 24.6776 151.166 24.8456 151.166 25.0976V38.7476C151.166 39.3916 150.928 39.9376 150.452 40.3856C149.976 40.8616 149.416 41.0996 148.772 41.0996H147.176C146.532 41.0996 145.972 40.8616 145.496 40.3856C145.02 39.9376 144.782 39.3916 144.782 38.7476V28.0796C144.782 27.9956 144.74 27.9396 144.656 27.9116C144.572 27.8556 144.488 27.8416 144.404 27.8696C141.352 29.0176 138.3 29.8856 135.248 30.4736C134.604 30.5856 134.016 30.4596 133.484 30.0956C132.98 29.7036 132.672 29.1716 132.56 28.4996Z" stroke="black" stroke-width="8" mask="url(#path-1-outside-1_458_2484)"/>
<path d="M170.696 33.2456L170.276 31.6076C170.108 30.9916 170.192 30.4036 170.528 29.8436C170.864 29.2836 171.354 28.9336 171.998 28.7936C182.246 26.2736 190.142 22.3816 195.686 17.1176C195.742 17.0896 195.756 17.0476 195.728 16.9916C195.7 16.9076 195.658 16.8656 195.602 16.8656H174.896C174.252 16.8656 173.692 16.6416 173.216 16.1936C172.74 15.7176 172.502 15.1576 172.502 14.5136V13.1696C172.502 12.5256 172.74 11.9656 173.216 11.4896C173.692 11.0136 174.252 10.7756 174.896 10.7756H184.136C184.388 10.7756 184.514 10.6636 184.514 10.4396V7.4996C184.514 6.8556 184.752 6.29561 185.228 5.81961C185.704 5.34361 186.264 5.10561 186.908 5.10561H189.26C189.904 5.10561 190.464 5.34361 190.94 5.81961C191.416 6.29561 191.654 6.8556 191.654 7.4996V10.4396C191.654 10.6636 191.766 10.7756 191.99 10.7756H202.028C202.672 10.7756 203.232 11.0136 203.708 11.4896C204.184 11.9656 204.422 12.5256 204.422 13.1696V16.5296C204.422 16.7536 204.352 16.9776 204.212 17.2016C202.588 19.7216 200.348 22.1296 197.492 24.4256C197.38 24.5656 197.394 24.7056 197.534 24.8456C200.474 27.0576 202.84 28.8636 204.632 30.2636C205.136 30.6556 205.416 31.1876 205.472 31.8596C205.528 32.5036 205.346 33.0636 204.926 33.5396L203.75 34.9256C203.302 35.4296 202.756 35.7236 202.112 35.8076C201.468 35.8636 200.88 35.6956 200.348 35.3036C197.912 33.4276 195.098 31.2996 191.906 28.9196C191.738 28.8076 191.654 28.8636 191.654 29.0876V39.4196C191.654 40.0636 191.416 40.6236 190.94 41.0996C190.464 41.5756 189.904 41.8136 189.26 41.8136H186.908C186.264 41.8136 185.704 41.5756 185.228 41.0996C184.752 40.6236 184.514 40.0636 184.514 39.4196V32.0276C184.514 31.8316 184.402 31.7616 184.178 31.8176C180.818 33.1336 177.304 34.2116 173.636 35.0516C172.992 35.1916 172.376 35.0936 171.788 34.7576C171.228 34.3936 170.864 33.8896 170.696 33.2456Z" stroke="black" stroke-width="8" mask="url(#path-1-outside-1_458_2484)"/>
<path d="M214.88 27.2816C214.236 27.2816 213.676 27.0436 213.2 26.5676C212.724 26.0916 212.486 25.5316 212.486 24.8876V22.8716C212.486 22.2276 212.724 21.6676 213.2 21.1916C213.676 20.7156 214.236 20.4776 214.88 20.4776H245.12C245.764 20.4776 246.324 20.7156 246.8 21.1916C247.276 21.6676 247.514 22.2276 247.514 22.8716V24.8876C247.514 25.5316 247.276 26.0916 246.8 26.5676C246.324 27.0436 245.764 27.2816 245.12 27.2816H214.88Z" stroke="black" stroke-width="8" mask="url(#path-1-outside-1_458_2484)"/>
<path d="M256.922 25.8116L255.872 24.8456C255.396 24.4256 255.13 23.8936 255.074 23.2496C255.046 22.5776 255.242 22.0036 255.662 21.5276C259.134 17.4116 261.402 12.8756 262.466 7.91961C262.606 7.24761 262.942 6.70161 263.474 6.28161C264.006 5.83361 264.594 5.62361 265.238 5.65161L266.918 5.77761C267.59 5.83361 268.136 6.09961 268.556 6.57561C268.976 7.05161 269.13 7.5976 269.018 8.21361C269.018 8.29761 268.99 8.43761 268.934 8.63361C268.878 8.80161 268.85 8.92761 268.85 9.01161C268.822 9.09561 268.836 9.17961 268.892 9.26361C268.976 9.34761 269.06 9.38961 269.144 9.38961H285.272C285.916 9.38961 286.476 9.62761 286.952 10.1036C287.428 10.5516 287.666 11.0976 287.666 11.7416C287.61 21.1776 285.524 28.2196 281.408 32.8676C277.292 37.4876 270.712 40.3156 261.668 41.3516C260.996 41.4356 260.394 41.2676 259.862 40.8476C259.33 40.4276 259.008 39.8956 258.896 39.2516L258.644 37.8656C258.532 37.2216 258.672 36.6476 259.064 36.1436C259.456 35.6116 259.974 35.3036 260.618 35.2196C267.198 34.3236 271.944 32.5316 274.856 29.8436C275.024 29.6756 274.996 29.5356 274.772 29.4236C272.7 28.3596 270.096 27.0996 266.96 25.6436C266.372 25.3636 265.98 24.9296 265.784 24.3416C265.616 23.7256 265.686 23.1376 265.994 22.5776L266.918 20.8556C267.226 20.2676 267.688 19.8756 268.304 19.6796C268.948 19.4556 269.578 19.4836 270.194 19.7636C273.638 21.3596 276.382 22.6756 278.426 23.7116C278.622 23.7956 278.762 23.7536 278.846 23.5856C279.658 21.4016 280.162 18.8116 280.358 15.8156C280.358 15.5916 280.246 15.4796 280.022 15.4796H267.338C267.086 15.4796 266.918 15.5916 266.834 15.8156C265.322 19.3996 263.166 22.6896 260.366 25.6856C259.918 26.1616 259.358 26.4136 258.686 26.4416C258.014 26.4696 257.426 26.2596 256.922 25.8116Z" stroke="black" stroke-width="8" mask="url(#path-1-outside-1_458_2484)"/>
<path d="M298.88 27.2816C298.236 27.2816 297.676 27.0436 297.2 26.5676C296.724 26.0916 296.486 25.5316 296.486 24.8876V22.8716C296.486 22.2276 296.724 21.6676 297.2 21.1916C297.676 20.7156 298.236 20.4776 298.88 20.4776H329.12C329.764 20.4776 330.324 20.7156 330.8 21.1916C331.276 21.6676 331.514 22.2276 331.514 22.8716V24.8876C331.514 25.5316 331.276 26.0916 330.8 26.5676C330.324 27.0436 329.764 27.2816 329.12 27.2816H298.88Z" stroke="black" stroke-width="8" mask="url(#path-1-outside-1_458_2484)"/>
</svg>
