<svg width="487" height="64" viewBox="0 0 487 64" fill="none" xmlns="http://www.w3.org/2000/svg">
<mask id="path-1-outside-1_281_15062" maskUnits="userSpaceOnUse" x="0" y="0" width="487" height="64" fill="black">
<rect fill="white" width="487" height="64"/>
<path d="M7.472 55.7007C6.52133 55.7007 5.69467 55.3494 4.992 54.6467C4.33067 53.944 4 53.1174 4 52.1667V50.1827C4 49.232 4.33067 48.426 4.992 47.7647C5.69467 47.062 6.52133 46.7107 7.472 46.7107H38.658C39.03 46.7107 39.216 46.5247 39.216 46.1527V20.3607C39.216 19.9887 39.03 19.8027 38.658 19.8027H7.472C6.52133 19.8027 5.69467 19.472 4.992 18.8107C4.33067 18.108 4 17.2814 4 16.3307V14.3467C4 13.396 4.33067 12.5694 4.992 11.8667C5.69467 11.164 6.52133 10.8127 7.472 10.8127H45.726C46.6767 10.8127 47.5033 11.164 48.206 11.8667C48.9087 12.5694 49.26 13.396 49.26 14.3467V52.1667C49.26 53.1174 48.9087 53.944 48.206 54.6467C47.5033 55.3494 46.6767 55.7007 45.726 55.7007H7.472Z"/>
<path d="M66.806 38.2787C65.8553 38.2787 65.0287 37.9274 64.326 37.2247C63.6233 36.522 63.272 35.6954 63.272 34.7447V31.7687C63.272 30.818 63.6233 29.9914 64.326 29.2887C65.0287 28.586 65.8553 28.2347 66.806 28.2347H111.446C112.397 28.2347 113.223 28.586 113.926 29.2887C114.629 29.9914 114.98 30.818 114.98 31.7687V34.7447C114.98 35.6954 114.629 36.522 113.926 37.2247C113.223 37.9274 112.397 38.2787 111.446 38.2787H66.806Z"/>
<path d="M177.476 12.1147C177.104 11.3707 176.505 10.2547 175.678 8.76671C175.265 7.94004 175.182 7.11337 175.43 6.28671C175.719 5.41871 176.277 4.77804 177.104 4.36471C177.931 3.95137 178.799 3.88937 179.708 4.1787C180.617 4.46804 181.279 5.00537 181.692 5.79071C181.899 6.20404 182.188 6.80337 182.56 7.58871C182.973 8.37404 183.263 8.93204 183.428 9.26271C183.841 10.0894 183.903 10.916 183.614 11.7427C183.325 12.5694 182.767 13.1894 181.94 13.6027C181.113 14.016 180.266 14.078 179.398 13.7887C178.571 13.4994 177.931 12.9414 177.476 12.1147ZM134.882 13.1067C134.882 12.156 135.233 11.3294 135.936 10.6267C136.639 9.92404 137.465 9.57271 138.416 9.57271H165.882C166.171 9.57271 166.275 9.42804 166.192 9.13871C165.944 8.39471 165.965 7.65071 166.254 6.90671C166.543 6.16271 167.039 5.60471 167.742 5.23271C168.569 4.81937 169.395 4.75737 170.222 5.0467C171.09 5.33604 171.751 5.89404 172.206 6.72071C172.371 7.09271 172.661 7.65071 173.074 8.39471C173.487 9.09737 173.777 9.63471 173.942 10.0067C174.355 10.8334 174.417 11.6807 174.128 12.5487C173.839 13.3754 173.281 13.9747 172.454 14.3467C172.247 14.4294 171.937 14.512 171.524 14.5947C171.152 14.6774 170.966 14.8634 170.966 15.1527C170.925 16.1034 170.553 16.9094 169.85 17.5707C169.189 18.232 168.383 18.5627 167.432 18.5627H138.416C137.465 18.5627 136.639 18.232 135.936 17.5707C135.233 16.868 134.882 16.0414 134.882 15.0907V13.1067ZM131.1 35.3027C130.149 35.3027 129.323 34.972 128.62 34.3107C127.917 33.608 127.566 32.7814 127.566 31.8307V29.8467C127.566 28.896 127.917 28.0694 128.62 27.3667C129.323 26.664 130.149 26.3127 131.1 26.3127H177.972C178.923 26.3127 179.749 26.664 180.452 27.3667C181.155 28.0694 181.506 28.896 181.506 29.8467V31.8307C181.506 32.7814 181.155 33.608 180.452 34.3107C179.749 34.972 178.923 35.3027 177.972 35.3027H162.286C161.955 35.3027 161.79 35.4887 161.79 35.8607C161.707 42.102 160.075 47.1654 156.892 51.0507C153.709 54.8947 148.873 57.664 142.384 59.3587C141.433 59.6067 140.524 59.462 139.656 58.9247C138.788 58.4287 138.189 57.7054 137.858 56.7547L137.114 54.4607C136.825 53.5927 136.928 52.7454 137.424 51.9187C137.92 51.092 138.623 50.534 139.532 50.2447C143.665 49.0047 146.621 47.2687 148.398 45.0367C150.217 42.8047 151.167 39.746 151.25 35.8607C151.25 35.4887 151.064 35.3027 150.692 35.3027H131.1Z"/>
<path d="M193.906 40.0767L193.72 38.9607C193.555 38.01 193.741 37.1627 194.278 36.4187C194.857 35.6334 195.621 35.1374 196.572 34.9307C202.317 33.8147 207.877 32.0167 213.25 29.5367C218.665 27.0154 223.439 24.0394 227.572 20.6087C228.275 20.03 229.101 19.782 230.052 19.8647C231.003 19.906 231.767 20.2987 232.346 21.0427L233.028 21.9107C233.648 22.696 233.917 23.5847 233.834 24.5767C233.751 25.5274 233.338 26.3127 232.594 26.9327C229.411 29.6194 225.815 32.0787 221.806 34.3107C221.517 34.4347 221.372 34.6827 221.372 35.0547V55.2047C221.372 56.1554 221.021 56.9614 220.318 57.6227C219.615 58.3254 218.789 58.6767 217.838 58.6767H215.482C214.531 58.6767 213.705 58.3254 213.002 57.6227C212.299 56.9614 211.948 56.1554 211.948 55.2047V39.4567C211.948 39.3327 211.886 39.25 211.762 39.2087C211.638 39.126 211.514 39.1054 211.39 39.1467C206.885 40.8414 202.379 42.1227 197.874 42.9907C196.923 43.156 196.055 42.97 195.27 42.4327C194.526 41.854 194.071 41.0687 193.906 40.0767Z"/>
<path d="M244.622 47.0827L244.002 44.6647C243.754 43.7554 243.878 42.8874 244.374 42.0607C244.87 41.234 245.593 40.7174 246.544 40.5107C261.672 36.7907 273.328 31.0454 281.512 23.2747C281.595 23.2334 281.615 23.1714 281.574 23.0887C281.533 22.9647 281.471 22.9027 281.388 22.9027H250.822C249.871 22.9027 249.045 22.572 248.342 21.9107C247.639 21.208 247.288 20.3814 247.288 19.4307V17.4467C247.288 16.496 247.639 15.6694 248.342 14.9667C249.045 14.264 249.871 13.9127 250.822 13.9127H264.462C264.834 13.9127 265.02 13.7474 265.02 13.4167V9.0767C265.02 8.12604 265.371 7.29937 266.074 6.59671C266.777 5.89404 267.603 5.54271 268.554 5.54271H272.026C272.977 5.54271 273.803 5.89404 274.506 6.59671C275.209 7.29937 275.56 8.12604 275.56 9.0767V13.4167C275.56 13.7474 275.725 13.9127 276.056 13.9127H290.874C291.825 13.9127 292.651 14.264 293.354 14.9667C294.057 15.6694 294.408 16.496 294.408 17.4467V22.4067C294.408 22.7374 294.305 23.068 294.098 23.3987C291.701 27.1187 288.394 30.6734 284.178 34.0627C284.013 34.2694 284.033 34.476 284.24 34.6827C288.58 37.948 292.073 40.614 294.718 42.6807C295.462 43.2594 295.875 44.0447 295.958 45.0367C296.041 45.9874 295.772 46.814 295.152 47.5167L293.416 49.5627C292.755 50.3067 291.949 50.7407 290.998 50.8647C290.047 50.9474 289.179 50.6994 288.394 50.1207C284.798 47.3514 280.644 44.21 275.932 40.6967C275.684 40.5314 275.56 40.614 275.56 40.9447V56.1967C275.56 57.1474 275.209 57.974 274.506 58.6767C273.803 59.3794 272.977 59.7307 272.026 59.7307H268.554C267.603 59.7307 266.777 59.3794 266.074 58.6767C265.371 57.974 265.02 57.1474 265.02 56.1967V45.2847C265.02 44.9954 264.855 44.892 264.524 44.9747C259.564 46.9174 254.377 48.5087 248.962 49.7487C248.011 49.9554 247.102 49.8107 246.234 49.3147C245.407 48.7774 244.87 48.0334 244.622 47.0827Z"/>
<path d="M309.846 38.2787C308.895 38.2787 308.069 37.9274 307.366 37.2247C306.663 36.522 306.312 35.6954 306.312 34.7447V31.7687C306.312 30.818 306.663 29.9914 307.366 29.2887C308.069 28.586 308.895 28.2347 309.846 28.2347H354.486C355.437 28.2347 356.263 28.586 356.966 29.2887C357.669 29.9914 358.02 30.818 358.02 31.7687V34.7447C358.02 35.6954 357.669 36.522 356.966 37.2247C356.263 37.9274 355.437 38.2787 354.486 38.2787H309.846Z"/>
<path d="M371.908 36.1087L370.358 34.6827C369.655 34.0627 369.263 33.2774 369.18 32.3267C369.139 31.3347 369.428 30.4874 370.048 29.7847C375.173 23.7087 378.521 17.0127 380.092 9.69671C380.299 8.70471 380.795 7.89871 381.58 7.27871C382.365 6.61737 383.233 6.30737 384.184 6.34871L386.664 6.53471C387.656 6.61737 388.462 7.01004 389.082 7.71271C389.702 8.41537 389.929 9.22137 389.764 10.1307C389.764 10.2547 389.723 10.4614 389.64 10.7507C389.557 10.9987 389.516 11.1847 389.516 11.3087C389.475 11.4327 389.495 11.5567 389.578 11.6807C389.702 11.8047 389.826 11.8667 389.95 11.8667H413.758C414.709 11.8667 415.535 12.218 416.238 12.9207C416.941 13.582 417.292 14.388 417.292 15.3387C417.209 29.268 414.13 39.6634 408.054 46.5247C401.978 53.3447 392.265 57.5194 378.914 59.0487C377.922 59.1727 377.033 58.9247 376.248 58.3047C375.463 57.6847 374.987 56.8994 374.822 55.9487L374.45 53.9027C374.285 52.952 374.491 52.1047 375.07 51.3607C375.649 50.5754 376.413 50.1207 377.364 49.9967C387.077 48.674 394.083 46.0287 398.382 42.0607C398.63 41.8127 398.589 41.606 398.258 41.4407C395.199 39.87 391.355 38.01 386.726 35.8607C385.858 35.4474 385.279 34.8067 384.99 33.9387C384.742 33.0294 384.845 32.1614 385.3 31.3347L386.664 28.7927C387.119 27.9247 387.801 27.346 388.71 27.0567C389.661 26.726 390.591 26.7674 391.5 27.1807C396.584 29.5367 400.635 31.4794 403.652 33.0087C403.941 33.1327 404.148 33.0707 404.272 32.8227C405.471 29.5987 406.215 25.7754 406.504 21.3527C406.504 21.022 406.339 20.8567 406.008 20.8567H387.284C386.912 20.8567 386.664 21.022 386.54 21.3527C384.308 26.6434 381.125 31.5 376.992 35.9227C376.331 36.6254 375.504 36.9974 374.512 37.0387C373.52 37.08 372.652 36.77 371.908 36.1087Z"/>
<path d="M433.846 38.2787C432.895 38.2787 432.069 37.9274 431.366 37.2247C430.663 36.522 430.312 35.6954 430.312 34.7447V31.7687C430.312 30.818 430.663 29.9914 431.366 29.2887C432.069 28.586 432.895 28.2347 433.846 28.2347H478.486C479.437 28.2347 480.263 28.586 480.966 29.2887C481.669 29.9914 482.02 30.818 482.02 31.7687V34.7447C482.02 35.6954 481.669 36.522 480.966 37.2247C480.263 37.9274 479.437 38.2787 478.486 38.2787H433.846Z"/>
</mask>
<path d="M7.472 55.7007C6.52133 55.7007 5.69467 55.3494 4.992 54.6467C4.33067 53.944 4 53.1174 4 52.1667V50.1827C4 49.232 4.33067 48.426 4.992 47.7647C5.69467 47.062 6.52133 46.7107 7.472 46.7107H38.658C39.03 46.7107 39.216 46.5247 39.216 46.1527V20.3607C39.216 19.9887 39.03 19.8027 38.658 19.8027H7.472C6.52133 19.8027 5.69467 19.472 4.992 18.8107C4.33067 18.108 4 17.2814 4 16.3307V14.3467C4 13.396 4.33067 12.5694 4.992 11.8667C5.69467 11.164 6.52133 10.8127 7.472 10.8127H45.726C46.6767 10.8127 47.5033 11.164 48.206 11.8667C48.9087 12.5694 49.26 13.396 49.26 14.3467V52.1667C49.26 53.1174 48.9087 53.944 48.206 54.6467C47.5033 55.3494 46.6767 55.7007 45.726 55.7007H7.472Z" fill="white"/>
<path d="M66.806 38.2787C65.8553 38.2787 65.0287 37.9274 64.326 37.2247C63.6233 36.522 63.272 35.6954 63.272 34.7447V31.7687C63.272 30.818 63.6233 29.9914 64.326 29.2887C65.0287 28.586 65.8553 28.2347 66.806 28.2347H111.446C112.397 28.2347 113.223 28.586 113.926 29.2887C114.629 29.9914 114.98 30.818 114.98 31.7687V34.7447C114.98 35.6954 114.629 36.522 113.926 37.2247C113.223 37.9274 112.397 38.2787 111.446 38.2787H66.806Z" fill="white"/>
<path d="M177.476 12.1147C177.104 11.3707 176.505 10.2547 175.678 8.76671C175.265 7.94004 175.182 7.11337 175.43 6.28671C175.719 5.41871 176.277 4.77804 177.104 4.36471C177.931 3.95137 178.799 3.88937 179.708 4.1787C180.617 4.46804 181.279 5.00537 181.692 5.79071C181.899 6.20404 182.188 6.80337 182.56 7.58871C182.973 8.37404 183.263 8.93204 183.428 9.26271C183.841 10.0894 183.903 10.916 183.614 11.7427C183.325 12.5694 182.767 13.1894 181.94 13.6027C181.113 14.016 180.266 14.078 179.398 13.7887C178.571 13.4994 177.931 12.9414 177.476 12.1147ZM134.882 13.1067C134.882 12.156 135.233 11.3294 135.936 10.6267C136.639 9.92404 137.465 9.57271 138.416 9.57271H165.882C166.171 9.57271 166.275 9.42804 166.192 9.13871C165.944 8.39471 165.965 7.65071 166.254 6.90671C166.543 6.16271 167.039 5.60471 167.742 5.23271C168.569 4.81937 169.395 4.75737 170.222 5.0467C171.09 5.33604 171.751 5.89404 172.206 6.72071C172.371 7.09271 172.661 7.65071 173.074 8.39471C173.487 9.09737 173.777 9.63471 173.942 10.0067C174.355 10.8334 174.417 11.6807 174.128 12.5487C173.839 13.3754 173.281 13.9747 172.454 14.3467C172.247 14.4294 171.937 14.512 171.524 14.5947C171.152 14.6774 170.966 14.8634 170.966 15.1527C170.925 16.1034 170.553 16.9094 169.85 17.5707C169.189 18.232 168.383 18.5627 167.432 18.5627H138.416C137.465 18.5627 136.639 18.232 135.936 17.5707C135.233 16.868 134.882 16.0414 134.882 15.0907V13.1067ZM131.1 35.3027C130.149 35.3027 129.323 34.972 128.62 34.3107C127.917 33.608 127.566 32.7814 127.566 31.8307V29.8467C127.566 28.896 127.917 28.0694 128.62 27.3667C129.323 26.664 130.149 26.3127 131.1 26.3127H177.972C178.923 26.3127 179.749 26.664 180.452 27.3667C181.155 28.0694 181.506 28.896 181.506 29.8467V31.8307C181.506 32.7814 181.155 33.608 180.452 34.3107C179.749 34.972 178.923 35.3027 177.972 35.3027H162.286C161.955 35.3027 161.79 35.4887 161.79 35.8607C161.707 42.102 160.075 47.1654 156.892 51.0507C153.709 54.8947 148.873 57.664 142.384 59.3587C141.433 59.6067 140.524 59.462 139.656 58.9247C138.788 58.4287 138.189 57.7054 137.858 56.7547L137.114 54.4607C136.825 53.5927 136.928 52.7454 137.424 51.9187C137.92 51.092 138.623 50.534 139.532 50.2447C143.665 49.0047 146.621 47.2687 148.398 45.0367C150.217 42.8047 151.167 39.746 151.25 35.8607C151.25 35.4887 151.064 35.3027 150.692 35.3027H131.1Z" fill="white"/>
<path d="M193.906 40.0767L193.72 38.9607C193.555 38.01 193.741 37.1627 194.278 36.4187C194.857 35.6334 195.621 35.1374 196.572 34.9307C202.317 33.8147 207.877 32.0167 213.25 29.5367C218.665 27.0154 223.439 24.0394 227.572 20.6087C228.275 20.03 229.101 19.782 230.052 19.8647C231.003 19.906 231.767 20.2987 232.346 21.0427L233.028 21.9107C233.648 22.696 233.917 23.5847 233.834 24.5767C233.751 25.5274 233.338 26.3127 232.594 26.9327C229.411 29.6194 225.815 32.0787 221.806 34.3107C221.517 34.4347 221.372 34.6827 221.372 35.0547V55.2047C221.372 56.1554 221.021 56.9614 220.318 57.6227C219.615 58.3254 218.789 58.6767 217.838 58.6767H215.482C214.531 58.6767 213.705 58.3254 213.002 57.6227C212.299 56.9614 211.948 56.1554 211.948 55.2047V39.4567C211.948 39.3327 211.886 39.25 211.762 39.2087C211.638 39.126 211.514 39.1054 211.39 39.1467C206.885 40.8414 202.379 42.1227 197.874 42.9907C196.923 43.156 196.055 42.97 195.27 42.4327C194.526 41.854 194.071 41.0687 193.906 40.0767Z" fill="white"/>
<path d="M244.622 47.0827L244.002 44.6647C243.754 43.7554 243.878 42.8874 244.374 42.0607C244.87 41.234 245.593 40.7174 246.544 40.5107C261.672 36.7907 273.328 31.0454 281.512 23.2747C281.595 23.2334 281.615 23.1714 281.574 23.0887C281.533 22.9647 281.471 22.9027 281.388 22.9027H250.822C249.871 22.9027 249.045 22.572 248.342 21.9107C247.639 21.208 247.288 20.3814 247.288 19.4307V17.4467C247.288 16.496 247.639 15.6694 248.342 14.9667C249.045 14.264 249.871 13.9127 250.822 13.9127H264.462C264.834 13.9127 265.02 13.7474 265.02 13.4167V9.0767C265.02 8.12604 265.371 7.29937 266.074 6.59671C266.777 5.89404 267.603 5.54271 268.554 5.54271H272.026C272.977 5.54271 273.803 5.89404 274.506 6.59671C275.209 7.29937 275.56 8.12604 275.56 9.0767V13.4167C275.56 13.7474 275.725 13.9127 276.056 13.9127H290.874C291.825 13.9127 292.651 14.264 293.354 14.9667C294.057 15.6694 294.408 16.496 294.408 17.4467V22.4067C294.408 22.7374 294.305 23.068 294.098 23.3987C291.701 27.1187 288.394 30.6734 284.178 34.0627C284.013 34.2694 284.033 34.476 284.24 34.6827C288.58 37.948 292.073 40.614 294.718 42.6807C295.462 43.2594 295.875 44.0447 295.958 45.0367C296.041 45.9874 295.772 46.814 295.152 47.5167L293.416 49.5627C292.755 50.3067 291.949 50.7407 290.998 50.8647C290.047 50.9474 289.179 50.6994 288.394 50.1207C284.798 47.3514 280.644 44.21 275.932 40.6967C275.684 40.5314 275.56 40.614 275.56 40.9447V56.1967C275.56 57.1474 275.209 57.974 274.506 58.6767C273.803 59.3794 272.977 59.7307 272.026 59.7307H268.554C267.603 59.7307 266.777 59.3794 266.074 58.6767C265.371 57.974 265.02 57.1474 265.02 56.1967V45.2847C265.02 44.9954 264.855 44.892 264.524 44.9747C259.564 46.9174 254.377 48.5087 248.962 49.7487C248.011 49.9554 247.102 49.8107 246.234 49.3147C245.407 48.7774 244.87 48.0334 244.622 47.0827Z" fill="white"/>
<path d="M309.846 38.2787C308.895 38.2787 308.069 37.9274 307.366 37.2247C306.663 36.522 306.312 35.6954 306.312 34.7447V31.7687C306.312 30.818 306.663 29.9914 307.366 29.2887C308.069 28.586 308.895 28.2347 309.846 28.2347H354.486C355.437 28.2347 356.263 28.586 356.966 29.2887C357.669 29.9914 358.02 30.818 358.02 31.7687V34.7447C358.02 35.6954 357.669 36.522 356.966 37.2247C356.263 37.9274 355.437 38.2787 354.486 38.2787H309.846Z" fill="white"/>
<path d="M371.908 36.1087L370.358 34.6827C369.655 34.0627 369.263 33.2774 369.18 32.3267C369.139 31.3347 369.428 30.4874 370.048 29.7847C375.173 23.7087 378.521 17.0127 380.092 9.69671C380.299 8.70471 380.795 7.89871 381.58 7.27871C382.365 6.61737 383.233 6.30737 384.184 6.34871L386.664 6.53471C387.656 6.61737 388.462 7.01004 389.082 7.71271C389.702 8.41537 389.929 9.22137 389.764 10.1307C389.764 10.2547 389.723 10.4614 389.64 10.7507C389.557 10.9987 389.516 11.1847 389.516 11.3087C389.475 11.4327 389.495 11.5567 389.578 11.6807C389.702 11.8047 389.826 11.8667 389.95 11.8667H413.758C414.709 11.8667 415.535 12.218 416.238 12.9207C416.941 13.582 417.292 14.388 417.292 15.3387C417.209 29.268 414.13 39.6634 408.054 46.5247C401.978 53.3447 392.265 57.5194 378.914 59.0487C377.922 59.1727 377.033 58.9247 376.248 58.3047C375.463 57.6847 374.987 56.8994 374.822 55.9487L374.45 53.9027C374.285 52.952 374.491 52.1047 375.07 51.3607C375.649 50.5754 376.413 50.1207 377.364 49.9967C387.077 48.674 394.083 46.0287 398.382 42.0607C398.63 41.8127 398.589 41.606 398.258 41.4407C395.199 39.87 391.355 38.01 386.726 35.8607C385.858 35.4474 385.279 34.8067 384.99 33.9387C384.742 33.0294 384.845 32.1614 385.3 31.3347L386.664 28.7927C387.119 27.9247 387.801 27.346 388.71 27.0567C389.661 26.726 390.591 26.7674 391.5 27.1807C396.584 29.5367 400.635 31.4794 403.652 33.0087C403.941 33.1327 404.148 33.0707 404.272 32.8227C405.471 29.5987 406.215 25.7754 406.504 21.3527C406.504 21.022 406.339 20.8567 406.008 20.8567H387.284C386.912 20.8567 386.664 21.022 386.54 21.3527C384.308 26.6434 381.125 31.5 376.992 35.9227C376.331 36.6254 375.504 36.9974 374.512 37.0387C373.52 37.08 372.652 36.77 371.908 36.1087Z" fill="white"/>
<path d="M433.846 38.2787C432.895 38.2787 432.069 37.9274 431.366 37.2247C430.663 36.522 430.312 35.6954 430.312 34.7447V31.7687C430.312 30.818 430.663 29.9914 431.366 29.2887C432.069 28.586 432.895 28.2347 433.846 28.2347H478.486C479.437 28.2347 480.263 28.586 480.966 29.2887C481.669 29.9914 482.02 30.818 482.02 31.7687V34.7447C482.02 35.6954 481.669 36.522 480.966 37.2247C480.263 37.9274 479.437 38.2787 478.486 38.2787H433.846Z" fill="white"/>
<path d="M7.472 55.7007C6.52133 55.7007 5.69467 55.3494 4.992 54.6467C4.33067 53.944 4 53.1174 4 52.1667V50.1827C4 49.232 4.33067 48.426 4.992 47.7647C5.69467 47.062 6.52133 46.7107 7.472 46.7107H38.658C39.03 46.7107 39.216 46.5247 39.216 46.1527V20.3607C39.216 19.9887 39.03 19.8027 38.658 19.8027H7.472C6.52133 19.8027 5.69467 19.472 4.992 18.8107C4.33067 18.108 4 17.2814 4 16.3307V14.3467C4 13.396 4.33067 12.5694 4.992 11.8667C5.69467 11.164 6.52133 10.8127 7.472 10.8127H45.726C46.6767 10.8127 47.5033 11.164 48.206 11.8667C48.9087 12.5694 49.26 13.396 49.26 14.3467V52.1667C49.26 53.1174 48.9087 53.944 48.206 54.6467C47.5033 55.3494 46.6767 55.7007 45.726 55.7007H7.472Z" stroke="black" stroke-width="8" mask="url(#path-1-outside-1_281_15062)"/>
<path d="M66.806 38.2787C65.8553 38.2787 65.0287 37.9274 64.326 37.2247C63.6233 36.522 63.272 35.6954 63.272 34.7447V31.7687C63.272 30.818 63.6233 29.9914 64.326 29.2887C65.0287 28.586 65.8553 28.2347 66.806 28.2347H111.446C112.397 28.2347 113.223 28.586 113.926 29.2887C114.629 29.9914 114.98 30.818 114.98 31.7687V34.7447C114.98 35.6954 114.629 36.522 113.926 37.2247C113.223 37.9274 112.397 38.2787 111.446 38.2787H66.806Z" stroke="black" stroke-width="8" mask="url(#path-1-outside-1_281_15062)"/>
<path d="M177.476 12.1147C177.104 11.3707 176.505 10.2547 175.678 8.76671C175.265 7.94004 175.182 7.11337 175.43 6.28671C175.719 5.41871 176.277 4.77804 177.104 4.36471C177.931 3.95137 178.799 3.88937 179.708 4.1787C180.617 4.46804 181.279 5.00537 181.692 5.79071C181.899 6.20404 182.188 6.80337 182.56 7.58871C182.973 8.37404 183.263 8.93204 183.428 9.26271C183.841 10.0894 183.903 10.916 183.614 11.7427C183.325 12.5694 182.767 13.1894 181.94 13.6027C181.113 14.016 180.266 14.078 179.398 13.7887C178.571 13.4994 177.931 12.9414 177.476 12.1147ZM134.882 13.1067C134.882 12.156 135.233 11.3294 135.936 10.6267C136.639 9.92404 137.465 9.57271 138.416 9.57271H165.882C166.171 9.57271 166.275 9.42804 166.192 9.13871C165.944 8.39471 165.965 7.65071 166.254 6.90671C166.543 6.16271 167.039 5.60471 167.742 5.23271C168.569 4.81937 169.395 4.75737 170.222 5.0467C171.09 5.33604 171.751 5.89404 172.206 6.72071C172.371 7.09271 172.661 7.65071 173.074 8.39471C173.487 9.09737 173.777 9.63471 173.942 10.0067C174.355 10.8334 174.417 11.6807 174.128 12.5487C173.839 13.3754 173.281 13.9747 172.454 14.3467C172.247 14.4294 171.937 14.512 171.524 14.5947C171.152 14.6774 170.966 14.8634 170.966 15.1527C170.925 16.1034 170.553 16.9094 169.85 17.5707C169.189 18.232 168.383 18.5627 167.432 18.5627H138.416C137.465 18.5627 136.639 18.232 135.936 17.5707C135.233 16.868 134.882 16.0414 134.882 15.0907V13.1067ZM131.1 35.3027C130.149 35.3027 129.323 34.972 128.62 34.3107C127.917 33.608 127.566 32.7814 127.566 31.8307V29.8467C127.566 28.896 127.917 28.0694 128.62 27.3667C129.323 26.664 130.149 26.3127 131.1 26.3127H177.972C178.923 26.3127 179.749 26.664 180.452 27.3667C181.155 28.0694 181.506 28.896 181.506 29.8467V31.8307C181.506 32.7814 181.155 33.608 180.452 34.3107C179.749 34.972 178.923 35.3027 177.972 35.3027H162.286C161.955 35.3027 161.79 35.4887 161.79 35.8607C161.707 42.102 160.075 47.1654 156.892 51.0507C153.709 54.8947 148.873 57.664 142.384 59.3587C141.433 59.6067 140.524 59.462 139.656 58.9247C138.788 58.4287 138.189 57.7054 137.858 56.7547L137.114 54.4607C136.825 53.5927 136.928 52.7454 137.424 51.9187C137.92 51.092 138.623 50.534 139.532 50.2447C143.665 49.0047 146.621 47.2687 148.398 45.0367C150.217 42.8047 151.167 39.746 151.25 35.8607C151.25 35.4887 151.064 35.3027 150.692 35.3027H131.1Z" stroke="black" stroke-width="8" mask="url(#path-1-outside-1_281_15062)"/>
<path d="M193.906 40.0767L193.72 38.9607C193.555 38.01 193.741 37.1627 194.278 36.4187C194.857 35.6334 195.621 35.1374 196.572 34.9307C202.317 33.8147 207.877 32.0167 213.25 29.5367C218.665 27.0154 223.439 24.0394 227.572 20.6087C228.275 20.03 229.101 19.782 230.052 19.8647C231.003 19.906 231.767 20.2987 232.346 21.0427L233.028 21.9107C233.648 22.696 233.917 23.5847 233.834 24.5767C233.751 25.5274 233.338 26.3127 232.594 26.9327C229.411 29.6194 225.815 32.0787 221.806 34.3107C221.517 34.4347 221.372 34.6827 221.372 35.0547V55.2047C221.372 56.1554 221.021 56.9614 220.318 57.6227C219.615 58.3254 218.789 58.6767 217.838 58.6767H215.482C214.531 58.6767 213.705 58.3254 213.002 57.6227C212.299 56.9614 211.948 56.1554 211.948 55.2047V39.4567C211.948 39.3327 211.886 39.25 211.762 39.2087C211.638 39.126 211.514 39.1054 211.39 39.1467C206.885 40.8414 202.379 42.1227 197.874 42.9907C196.923 43.156 196.055 42.97 195.27 42.4327C194.526 41.854 194.071 41.0687 193.906 40.0767Z" stroke="black" stroke-width="8" mask="url(#path-1-outside-1_281_15062)"/>
<path d="M244.622 47.0827L244.002 44.6647C243.754 43.7554 243.878 42.8874 244.374 42.0607C244.87 41.234 245.593 40.7174 246.544 40.5107C261.672 36.7907 273.328 31.0454 281.512 23.2747C281.595 23.2334 281.615 23.1714 281.574 23.0887C281.533 22.9647 281.471 22.9027 281.388 22.9027H250.822C249.871 22.9027 249.045 22.572 248.342 21.9107C247.639 21.208 247.288 20.3814 247.288 19.4307V17.4467C247.288 16.496 247.639 15.6694 248.342 14.9667C249.045 14.264 249.871 13.9127 250.822 13.9127H264.462C264.834 13.9127 265.02 13.7474 265.02 13.4167V9.0767C265.02 8.12604 265.371 7.29937 266.074 6.59671C266.777 5.89404 267.603 5.54271 268.554 5.54271H272.026C272.977 5.54271 273.803 5.89404 274.506 6.59671C275.209 7.29937 275.56 8.12604 275.56 9.0767V13.4167C275.56 13.7474 275.725 13.9127 276.056 13.9127H290.874C291.825 13.9127 292.651 14.264 293.354 14.9667C294.057 15.6694 294.408 16.496 294.408 17.4467V22.4067C294.408 22.7374 294.305 23.068 294.098 23.3987C291.701 27.1187 288.394 30.6734 284.178 34.0627C284.013 34.2694 284.033 34.476 284.24 34.6827C288.58 37.948 292.073 40.614 294.718 42.6807C295.462 43.2594 295.875 44.0447 295.958 45.0367C296.041 45.9874 295.772 46.814 295.152 47.5167L293.416 49.5627C292.755 50.3067 291.949 50.7407 290.998 50.8647C290.047 50.9474 289.179 50.6994 288.394 50.1207C284.798 47.3514 280.644 44.21 275.932 40.6967C275.684 40.5314 275.56 40.614 275.56 40.9447V56.1967C275.56 57.1474 275.209 57.974 274.506 58.6767C273.803 59.3794 272.977 59.7307 272.026 59.7307H268.554C267.603 59.7307 266.777 59.3794 266.074 58.6767C265.371 57.974 265.02 57.1474 265.02 56.1967V45.2847C265.02 44.9954 264.855 44.892 264.524 44.9747C259.564 46.9174 254.377 48.5087 248.962 49.7487C248.011 49.9554 247.102 49.8107 246.234 49.3147C245.407 48.7774 244.87 48.0334 244.622 47.0827Z" stroke="black" stroke-width="8" mask="url(#path-1-outside-1_281_15062)"/>
<path d="M309.846 38.2787C308.895 38.2787 308.069 37.9274 307.366 37.2247C306.663 36.522 306.312 35.6954 306.312 34.7447V31.7687C306.312 30.818 306.663 29.9914 307.366 29.2887C308.069 28.586 308.895 28.2347 309.846 28.2347H354.486C355.437 28.2347 356.263 28.586 356.966 29.2887C357.669 29.9914 358.02 30.818 358.02 31.7687V34.7447C358.02 35.6954 357.669 36.522 356.966 37.2247C356.263 37.9274 355.437 38.2787 354.486 38.2787H309.846Z" stroke="black" stroke-width="8" mask="url(#path-1-outside-1_281_15062)"/>
<path d="M371.908 36.1087L370.358 34.6827C369.655 34.0627 369.263 33.2774 369.18 32.3267C369.139 31.3347 369.428 30.4874 370.048 29.7847C375.173 23.7087 378.521 17.0127 380.092 9.69671C380.299 8.70471 380.795 7.89871 381.58 7.27871C382.365 6.61737 383.233 6.30737 384.184 6.34871L386.664 6.53471C387.656 6.61737 388.462 7.01004 389.082 7.71271C389.702 8.41537 389.929 9.22137 389.764 10.1307C389.764 10.2547 389.723 10.4614 389.64 10.7507C389.557 10.9987 389.516 11.1847 389.516 11.3087C389.475 11.4327 389.495 11.5567 389.578 11.6807C389.702 11.8047 389.826 11.8667 389.95 11.8667H413.758C414.709 11.8667 415.535 12.218 416.238 12.9207C416.941 13.582 417.292 14.388 417.292 15.3387C417.209 29.268 414.13 39.6634 408.054 46.5247C401.978 53.3447 392.265 57.5194 378.914 59.0487C377.922 59.1727 377.033 58.9247 376.248 58.3047C375.463 57.6847 374.987 56.8994 374.822 55.9487L374.45 53.9027C374.285 52.952 374.491 52.1047 375.07 51.3607C375.649 50.5754 376.413 50.1207 377.364 49.9967C387.077 48.674 394.083 46.0287 398.382 42.0607C398.63 41.8127 398.589 41.606 398.258 41.4407C395.199 39.87 391.355 38.01 386.726 35.8607C385.858 35.4474 385.279 34.8067 384.99 33.9387C384.742 33.0294 384.845 32.1614 385.3 31.3347L386.664 28.7927C387.119 27.9247 387.801 27.346 388.71 27.0567C389.661 26.726 390.591 26.7674 391.5 27.1807C396.584 29.5367 400.635 31.4794 403.652 33.0087C403.941 33.1327 404.148 33.0707 404.272 32.8227C405.471 29.5987 406.215 25.7754 406.504 21.3527C406.504 21.022 406.339 20.8567 406.008 20.8567H387.284C386.912 20.8567 386.664 21.022 386.54 21.3527C384.308 26.6434 381.125 31.5 376.992 35.9227C376.331 36.6254 375.504 36.9974 374.512 37.0387C373.52 37.08 372.652 36.77 371.908 36.1087Z" stroke="black" stroke-width="8" mask="url(#path-1-outside-1_281_15062)"/>
<path d="M433.846 38.2787C432.895 38.2787 432.069 37.9274 431.366 37.2247C430.663 36.522 430.312 35.6954 430.312 34.7447V31.7687C430.312 30.818 430.663 29.9914 431.366 29.2887C432.069 28.586 432.895 28.2347 433.846 28.2347H478.486C479.437 28.2347 480.263 28.586 480.966 29.2887C481.669 29.9914 482.02 30.818 482.02 31.7687V34.7447C482.02 35.6954 481.669 36.522 480.966 37.2247C480.263 37.9274 479.437 38.2787 478.486 38.2787H433.846Z" stroke="black" stroke-width="8" mask="url(#path-1-outside-1_281_15062)"/>
</svg>
