<svg width="254" height="46" viewBox="0 0 254 46" fill="none" xmlns="http://www.w3.org/2000/svg">
<mask id="path-1-outside-1_429_2265" maskUnits="userSpaceOnUse" x="0.905273" y="0.480469" width="253" height="46" fill="black">
<rect fill="white" x="0.905273" y="0.480469" width="253" height="46"/>
<path d="M7.29927 14.4715C6.65527 14.4715 6.09527 14.2335 5.61927 13.7575C5.14327 13.2815 4.90527 12.7215 4.90527 12.0775V10.5655C4.90527 9.92153 5.14327 9.37553 5.61927 8.92753C6.09527 8.45153 6.65527 8.21353 7.29927 8.21353H36.7833C37.4273 8.21353 37.9873 8.45153 38.4633 8.92753C38.9393 9.37553 39.1773 9.92153 39.1773 10.5655V14.4715C37.8893 18.1115 36.0133 21.3315 33.5493 24.1315C31.1133 26.9035 27.9073 29.4095 23.9313 31.6495C23.7353 31.7615 23.6933 31.9015 23.8053 32.0695C24.0293 32.4055 24.4493 33.0355 25.0653 33.9595C25.7093 34.8555 26.1993 35.5555 26.5353 36.0595C26.8993 36.5915 27.0113 37.1795 26.8713 37.8235C26.7313 38.4395 26.3953 38.9155 25.8633 39.2515L23.8473 40.5115C23.2873 40.8755 22.6713 40.9735 21.9993 40.8055C21.3553 40.6655 20.8373 40.3155 20.4453 39.7555C17.1133 34.8555 13.9073 30.3055 10.8273 26.1055C10.4353 25.5735 10.2953 24.9995 10.4073 24.3835C10.5193 23.7395 10.8413 23.2355 11.3733 22.8715L13.3053 21.5695C13.8653 21.2055 14.4673 21.0795 15.1113 21.1915C15.7833 21.3035 16.3153 21.6255 16.7073 22.1575C17.6313 23.4175 18.5133 24.6355 19.3533 25.8115C19.4933 26.0075 19.6753 26.0495 19.8993 25.9375C22.5313 24.4815 24.8693 22.7735 26.9133 20.8135C28.9573 18.8255 30.4973 16.8095 31.5333 14.7655C31.5613 14.7095 31.5473 14.6535 31.4913 14.5975C31.4633 14.5135 31.4073 14.4715 31.3233 14.4715H7.29927Z"/>
<path d="M46.6953 33.2455L46.2753 31.6075C46.1073 30.9915 46.1913 30.4035 46.5273 29.8435C46.8633 29.2835 47.3533 28.9335 47.9973 28.7935C58.2453 26.2735 66.1413 22.3815 71.6853 17.1175C71.7413 17.0895 71.7553 17.0475 71.7273 16.9915C71.6993 16.9075 71.6573 16.8655 71.6013 16.8655H50.8953C50.2513 16.8655 49.6913 16.6415 49.2153 16.1935C48.7393 15.7175 48.5013 15.1575 48.5013 14.5135V13.1695C48.5013 12.5255 48.7393 11.9655 49.2153 11.4895C49.6913 11.0135 50.2513 10.7755 50.8953 10.7755H60.1353C60.3873 10.7755 60.5133 10.6635 60.5133 10.4395V7.49953C60.5133 6.85553 60.7513 6.29553 61.2273 5.81953C61.7033 5.34353 62.2633 5.10553 62.9073 5.10553H65.2593C65.9033 5.10553 66.4633 5.34353 66.9393 5.81953C67.4153 6.29553 67.6533 6.85553 67.6533 7.49953V10.4395C67.6533 10.6635 67.7653 10.7755 67.9893 10.7755H78.0273C78.6713 10.7755 79.2313 11.0135 79.7073 11.4895C80.1833 11.9655 80.4213 12.5255 80.4213 13.1695V16.5295C80.4213 16.7535 80.3513 16.9775 80.2113 17.2015C78.5873 19.7215 76.3473 22.1295 73.4913 24.4255C73.3793 24.5655 73.3933 24.7055 73.5333 24.8455C76.4733 27.0575 78.8393 28.8635 80.6313 30.2635C81.1353 30.6555 81.4153 31.1875 81.4713 31.8595C81.5273 32.5035 81.3453 33.0635 80.9253 33.5395L79.7493 34.9255C79.3013 35.4295 78.7553 35.7235 78.1113 35.8075C77.4673 35.8635 76.8793 35.6955 76.3473 35.3035C73.9113 33.4275 71.0973 31.2995 67.9053 28.9195C67.7373 28.8075 67.6533 28.8635 67.6533 29.0875V39.4195C67.6533 40.0635 67.4153 40.6235 66.9393 41.0995C66.4633 41.5755 65.9033 41.8135 65.2593 41.8135H62.9073C62.2633 41.8135 61.7033 41.5755 61.2273 41.0995C60.7513 40.6235 60.5133 40.0635 60.5133 39.4195V32.0275C60.5133 31.8315 60.4013 31.7615 60.1773 31.8175C56.8173 33.1335 53.3033 34.2115 49.6353 35.0515C48.9913 35.1915 48.3753 35.0935 47.7873 34.7575C47.2273 34.3935 46.8633 33.8895 46.6953 33.2455Z"/>
<path d="M121.497 14.0935C122.141 14.2055 122.645 14.5415 123.009 15.1015C123.401 15.6335 123.527 16.2075 123.387 16.8235C121.595 24.4955 118.431 30.2075 113.895 33.9595C109.359 37.6835 102.765 40.0495 94.1133 41.0575C93.4413 41.1415 92.8393 40.9735 92.3073 40.5535C91.7753 40.1615 91.4533 39.6295 91.3413 38.9575L91.0473 37.2355C90.9353 36.6195 91.0753 36.0595 91.4673 35.5555C91.8873 35.0235 92.4193 34.7155 93.0633 34.6315C100.343 33.7915 105.761 31.9715 109.317 29.1715C112.901 26.3435 115.435 21.8635 116.919 15.7315C117.059 15.0875 117.409 14.5835 117.969 14.2195C118.529 13.8275 119.131 13.6875 119.775 13.7995L121.497 14.0935ZM118.347 11.4475C117.815 11.6995 117.255 11.7415 116.667 11.5735C116.107 11.3775 115.687 11.0135 115.407 10.4815C115.267 10.2295 115.071 9.86553 114.819 9.38953C114.567 8.88553 114.371 8.50753 114.231 8.25553C113.951 7.72353 113.895 7.17753 114.063 6.61753C114.259 6.02953 114.623 5.59553 115.155 5.31553C115.715 5.03553 116.275 4.99353 116.835 5.18953C117.423 5.38553 117.871 5.76353 118.179 6.32353C118.319 6.57553 118.515 6.95353 118.767 7.45753C119.019 7.93353 119.215 8.29753 119.355 8.54953C119.635 9.10953 119.677 9.66953 119.481 10.2295C119.285 10.7895 118.907 11.1955 118.347 11.4475ZM125.907 9.72553C125.711 10.2855 125.333 10.7055 124.773 10.9855C124.213 11.2655 123.639 11.3075 123.051 11.1115C122.491 10.9155 122.057 10.5375 121.749 9.97753C121.497 9.47353 121.091 8.71753 120.531 7.70953C120.251 7.14953 120.195 6.58953 120.363 6.02953C120.559 5.44153 120.937 5.00753 121.497 4.72753C122.057 4.44753 122.645 4.40553 123.261 4.60153C123.877 4.79753 124.325 5.16153 124.605 5.69353C124.745 5.97353 124.941 6.37953 125.193 6.91153C125.473 7.44353 125.669 7.82153 125.781 8.04553C126.061 8.60553 126.103 9.16553 125.907 9.72553ZM91.3413 23.0815C90.6973 22.9695 90.1933 22.6475 89.8293 22.1155C89.4653 21.5555 89.3533 20.9535 89.4933 20.3095L89.7453 19.1335C89.8853 18.4895 90.2353 17.9855 90.7953 17.6215C91.3553 17.2295 91.9573 17.0895 92.6013 17.2015C95.0373 17.6495 98.1173 18.2515 101.841 19.0075C102.485 19.1475 102.989 19.4975 103.353 20.0575C103.717 20.5895 103.829 21.1775 103.689 21.8215L103.437 23.0395C103.297 23.6835 102.947 24.1875 102.387 24.5515C101.827 24.8875 101.225 24.9855 100.581 24.8455C97.6693 24.2575 94.5893 23.6695 91.3413 23.0815ZM104.193 8.88553C104.837 8.99753 105.341 9.33353 105.705 9.89353C106.069 10.4535 106.181 11.0555 106.041 11.6995L105.789 13.0015C105.677 13.6455 105.327 14.1495 104.739 14.5135C104.179 14.8775 103.577 14.9895 102.933 14.8495C99.1813 14.0935 95.9893 13.4915 93.3573 13.0435C92.7413 12.9315 92.2373 12.6095 91.8453 12.0775C91.4813 11.5455 91.3693 10.9575 91.5093 10.3135L91.7613 9.01153C91.8733 8.36753 92.2093 7.84953 92.7693 7.45753C93.3293 7.06553 93.9313 6.92553 94.5753 7.03753C96.4233 7.34553 99.6293 7.96153 104.193 8.88553Z"/>
<path d="M133.173 39.4195L131.871 37.5715C131.507 37.0395 131.395 36.4655 131.535 35.8495C131.675 35.2335 132.025 34.7575 132.585 34.4215C137.373 31.5655 141.447 28.3315 144.807 24.7195C144.975 24.5515 144.961 24.3835 144.765 24.2155C141.797 21.8635 138.969 19.7075 136.281 17.7475C135.749 17.3555 135.427 16.8515 135.315 16.2355C135.231 15.5915 135.399 15.0175 135.819 14.5135L137.121 13.0015C137.569 12.4695 138.115 12.1615 138.759 12.0775C139.431 11.9935 140.047 12.1475 140.607 12.5395C143.239 14.4435 146.025 16.5575 148.965 18.8815C149.161 19.0215 149.329 18.9935 149.469 18.7975C151.653 15.4935 153.389 12.0215 154.677 8.38153C154.901 7.73753 155.307 7.26153 155.895 6.95353C156.483 6.61753 157.099 6.50553 157.743 6.61753L160.053 7.12153C160.697 7.26153 161.173 7.61153 161.481 8.17153C161.817 8.70353 161.887 9.27753 161.691 9.89353C160.179 14.7655 158.009 19.2875 155.181 23.4595C155.041 23.6555 155.083 23.8375 155.307 24.0055C158.219 26.4135 161.061 28.8775 163.833 31.3975C164.309 31.8455 164.561 32.4055 164.589 33.0775C164.645 33.7215 164.449 34.2955 164.001 34.7995L162.615 36.3955C162.167 36.8715 161.621 37.1375 160.977 37.1935C160.333 37.2215 159.773 37.0115 159.297 36.5635C156.917 34.3795 154.159 31.9715 151.023 29.3395C150.827 29.1995 150.659 29.1995 150.519 29.3395C146.599 33.5395 141.965 37.1795 136.617 40.2595C136.029 40.5955 135.399 40.6795 134.727 40.5115C134.083 40.3435 133.565 39.9795 133.173 39.4195Z"/>
<path d="M176.433 14.1775C175.845 13.8975 175.453 13.4495 175.257 12.8335C175.061 12.2175 175.117 11.6295 175.425 11.0695L176.391 9.17953C176.699 8.59153 177.161 8.19953 177.777 8.00353C178.421 7.77953 179.051 7.80753 179.667 8.08753C182.551 9.45953 185.505 10.9295 188.529 12.4975C189.117 12.7775 189.495 13.2395 189.663 13.8835C189.859 14.5275 189.803 15.1295 189.495 15.6895L188.403 17.5795C188.095 18.1395 187.619 18.5175 186.975 18.7135C186.359 18.9095 185.757 18.8535 185.169 18.5455C182.257 17.0335 179.345 15.5775 176.433 14.1775ZM206.253 12.1195C206.897 12.2595 207.401 12.6095 207.765 13.1695C208.129 13.7015 208.241 14.2895 208.101 14.9335C206.449 22.2975 203.201 28.0235 198.357 32.1115C193.541 36.1995 186.961 38.7615 178.617 39.7975C177.945 39.8815 177.343 39.7135 176.811 39.2935C176.279 38.9015 175.957 38.3695 175.845 37.6975L175.551 35.7655C175.439 35.1495 175.579 34.5895 175.971 34.0855C176.363 33.5535 176.881 33.2455 177.525 33.1615C184.357 32.2095 189.677 30.1795 193.485 27.0715C197.321 23.9635 200.023 19.4415 201.591 13.5055C201.759 12.8615 202.109 12.3715 202.641 12.0355C203.201 11.6715 203.803 11.5595 204.447 11.6995L206.253 12.1195Z"/>
<path d="M222.339 41.3935C221.695 41.3935 221.135 41.1555 220.659 40.6795C220.183 40.2035 219.945 39.6435 219.945 38.9995V8.75953C219.945 8.11553 220.183 7.55553 220.659 7.07953C221.135 6.60353 221.695 6.36553 222.339 6.36553H224.733C225.377 6.36553 225.923 6.60353 226.371 7.07953C226.847 7.55553 227.085 8.11553 227.085 8.75953V17.5795C227.085 17.8315 227.211 17.9855 227.463 18.0415C234.043 19.6655 240.693 21.6535 247.413 24.0055C248.029 24.2015 248.491 24.6075 248.799 25.2235C249.107 25.8115 249.149 26.4275 248.925 27.0715L248.253 28.9615C248.029 29.5775 247.637 30.0255 247.077 30.3055C246.517 30.5855 245.929 30.6275 245.313 30.4315C239.573 28.3875 233.609 26.5675 227.421 24.9715C227.197 24.9155 227.085 25.0135 227.085 25.2655V38.9995C227.085 39.6435 226.847 40.2035 226.371 40.6795C225.923 41.1555 225.377 41.3935 224.733 41.3935H222.339Z"/>
</mask>
<path d="M7.29927 14.4715C6.65527 14.4715 6.09527 14.2335 5.61927 13.7575C5.14327 13.2815 4.90527 12.7215 4.90527 12.0775V10.5655C4.90527 9.92153 5.14327 9.37553 5.61927 8.92753C6.09527 8.45153 6.65527 8.21353 7.29927 8.21353H36.7833C37.4273 8.21353 37.9873 8.45153 38.4633 8.92753C38.9393 9.37553 39.1773 9.92153 39.1773 10.5655V14.4715C37.8893 18.1115 36.0133 21.3315 33.5493 24.1315C31.1133 26.9035 27.9073 29.4095 23.9313 31.6495C23.7353 31.7615 23.6933 31.9015 23.8053 32.0695C24.0293 32.4055 24.4493 33.0355 25.0653 33.9595C25.7093 34.8555 26.1993 35.5555 26.5353 36.0595C26.8993 36.5915 27.0113 37.1795 26.8713 37.8235C26.7313 38.4395 26.3953 38.9155 25.8633 39.2515L23.8473 40.5115C23.2873 40.8755 22.6713 40.9735 21.9993 40.8055C21.3553 40.6655 20.8373 40.3155 20.4453 39.7555C17.1133 34.8555 13.9073 30.3055 10.8273 26.1055C10.4353 25.5735 10.2953 24.9995 10.4073 24.3835C10.5193 23.7395 10.8413 23.2355 11.3733 22.8715L13.3053 21.5695C13.8653 21.2055 14.4673 21.0795 15.1113 21.1915C15.7833 21.3035 16.3153 21.6255 16.7073 22.1575C17.6313 23.4175 18.5133 24.6355 19.3533 25.8115C19.4933 26.0075 19.6753 26.0495 19.8993 25.9375C22.5313 24.4815 24.8693 22.7735 26.9133 20.8135C28.9573 18.8255 30.4973 16.8095 31.5333 14.7655C31.5613 14.7095 31.5473 14.6535 31.4913 14.5975C31.4633 14.5135 31.4073 14.4715 31.3233 14.4715H7.29927Z" fill="white"/>
<path d="M46.6953 33.2455L46.2753 31.6075C46.1073 30.9915 46.1913 30.4035 46.5273 29.8435C46.8633 29.2835 47.3533 28.9335 47.9973 28.7935C58.2453 26.2735 66.1413 22.3815 71.6853 17.1175C71.7413 17.0895 71.7553 17.0475 71.7273 16.9915C71.6993 16.9075 71.6573 16.8655 71.6013 16.8655H50.8953C50.2513 16.8655 49.6913 16.6415 49.2153 16.1935C48.7393 15.7175 48.5013 15.1575 48.5013 14.5135V13.1695C48.5013 12.5255 48.7393 11.9655 49.2153 11.4895C49.6913 11.0135 50.2513 10.7755 50.8953 10.7755H60.1353C60.3873 10.7755 60.5133 10.6635 60.5133 10.4395V7.49953C60.5133 6.85553 60.7513 6.29553 61.2273 5.81953C61.7033 5.34353 62.2633 5.10553 62.9073 5.10553H65.2593C65.9033 5.10553 66.4633 5.34353 66.9393 5.81953C67.4153 6.29553 67.6533 6.85553 67.6533 7.49953V10.4395C67.6533 10.6635 67.7653 10.7755 67.9893 10.7755H78.0273C78.6713 10.7755 79.2313 11.0135 79.7073 11.4895C80.1833 11.9655 80.4213 12.5255 80.4213 13.1695V16.5295C80.4213 16.7535 80.3513 16.9775 80.2113 17.2015C78.5873 19.7215 76.3473 22.1295 73.4913 24.4255C73.3793 24.5655 73.3933 24.7055 73.5333 24.8455C76.4733 27.0575 78.8393 28.8635 80.6313 30.2635C81.1353 30.6555 81.4153 31.1875 81.4713 31.8595C81.5273 32.5035 81.3453 33.0635 80.9253 33.5395L79.7493 34.9255C79.3013 35.4295 78.7553 35.7235 78.1113 35.8075C77.4673 35.8635 76.8793 35.6955 76.3473 35.3035C73.9113 33.4275 71.0973 31.2995 67.9053 28.9195C67.7373 28.8075 67.6533 28.8635 67.6533 29.0875V39.4195C67.6533 40.0635 67.4153 40.6235 66.9393 41.0995C66.4633 41.5755 65.9033 41.8135 65.2593 41.8135H62.9073C62.2633 41.8135 61.7033 41.5755 61.2273 41.0995C60.7513 40.6235 60.5133 40.0635 60.5133 39.4195V32.0275C60.5133 31.8315 60.4013 31.7615 60.1773 31.8175C56.8173 33.1335 53.3033 34.2115 49.6353 35.0515C48.9913 35.1915 48.3753 35.0935 47.7873 34.7575C47.2273 34.3935 46.8633 33.8895 46.6953 33.2455Z" fill="white"/>
<path d="M121.497 14.0935C122.141 14.2055 122.645 14.5415 123.009 15.1015C123.401 15.6335 123.527 16.2075 123.387 16.8235C121.595 24.4955 118.431 30.2075 113.895 33.9595C109.359 37.6835 102.765 40.0495 94.1133 41.0575C93.4413 41.1415 92.8393 40.9735 92.3073 40.5535C91.7753 40.1615 91.4533 39.6295 91.3413 38.9575L91.0473 37.2355C90.9353 36.6195 91.0753 36.0595 91.4673 35.5555C91.8873 35.0235 92.4193 34.7155 93.0633 34.6315C100.343 33.7915 105.761 31.9715 109.317 29.1715C112.901 26.3435 115.435 21.8635 116.919 15.7315C117.059 15.0875 117.409 14.5835 117.969 14.2195C118.529 13.8275 119.131 13.6875 119.775 13.7995L121.497 14.0935ZM118.347 11.4475C117.815 11.6995 117.255 11.7415 116.667 11.5735C116.107 11.3775 115.687 11.0135 115.407 10.4815C115.267 10.2295 115.071 9.86553 114.819 9.38953C114.567 8.88553 114.371 8.50753 114.231 8.25553C113.951 7.72353 113.895 7.17753 114.063 6.61753C114.259 6.02953 114.623 5.59553 115.155 5.31553C115.715 5.03553 116.275 4.99353 116.835 5.18953C117.423 5.38553 117.871 5.76353 118.179 6.32353C118.319 6.57553 118.515 6.95353 118.767 7.45753C119.019 7.93353 119.215 8.29753 119.355 8.54953C119.635 9.10953 119.677 9.66953 119.481 10.2295C119.285 10.7895 118.907 11.1955 118.347 11.4475ZM125.907 9.72553C125.711 10.2855 125.333 10.7055 124.773 10.9855C124.213 11.2655 123.639 11.3075 123.051 11.1115C122.491 10.9155 122.057 10.5375 121.749 9.97753C121.497 9.47353 121.091 8.71753 120.531 7.70953C120.251 7.14953 120.195 6.58953 120.363 6.02953C120.559 5.44153 120.937 5.00753 121.497 4.72753C122.057 4.44753 122.645 4.40553 123.261 4.60153C123.877 4.79753 124.325 5.16153 124.605 5.69353C124.745 5.97353 124.941 6.37953 125.193 6.91153C125.473 7.44353 125.669 7.82153 125.781 8.04553C126.061 8.60553 126.103 9.16553 125.907 9.72553ZM91.3413 23.0815C90.6973 22.9695 90.1933 22.6475 89.8293 22.1155C89.4653 21.5555 89.3533 20.9535 89.4933 20.3095L89.7453 19.1335C89.8853 18.4895 90.2353 17.9855 90.7953 17.6215C91.3553 17.2295 91.9573 17.0895 92.6013 17.2015C95.0373 17.6495 98.1173 18.2515 101.841 19.0075C102.485 19.1475 102.989 19.4975 103.353 20.0575C103.717 20.5895 103.829 21.1775 103.689 21.8215L103.437 23.0395C103.297 23.6835 102.947 24.1875 102.387 24.5515C101.827 24.8875 101.225 24.9855 100.581 24.8455C97.6693 24.2575 94.5893 23.6695 91.3413 23.0815ZM104.193 8.88553C104.837 8.99753 105.341 9.33353 105.705 9.89353C106.069 10.4535 106.181 11.0555 106.041 11.6995L105.789 13.0015C105.677 13.6455 105.327 14.1495 104.739 14.5135C104.179 14.8775 103.577 14.9895 102.933 14.8495C99.1813 14.0935 95.9893 13.4915 93.3573 13.0435C92.7413 12.9315 92.2373 12.6095 91.8453 12.0775C91.4813 11.5455 91.3693 10.9575 91.5093 10.3135L91.7613 9.01153C91.8733 8.36753 92.2093 7.84953 92.7693 7.45753C93.3293 7.06553 93.9313 6.92553 94.5753 7.03753C96.4233 7.34553 99.6293 7.96153 104.193 8.88553Z" fill="white"/>
<path d="M133.173 39.4195L131.871 37.5715C131.507 37.0395 131.395 36.4655 131.535 35.8495C131.675 35.2335 132.025 34.7575 132.585 34.4215C137.373 31.5655 141.447 28.3315 144.807 24.7195C144.975 24.5515 144.961 24.3835 144.765 24.2155C141.797 21.8635 138.969 19.7075 136.281 17.7475C135.749 17.3555 135.427 16.8515 135.315 16.2355C135.231 15.5915 135.399 15.0175 135.819 14.5135L137.121 13.0015C137.569 12.4695 138.115 12.1615 138.759 12.0775C139.431 11.9935 140.047 12.1475 140.607 12.5395C143.239 14.4435 146.025 16.5575 148.965 18.8815C149.161 19.0215 149.329 18.9935 149.469 18.7975C151.653 15.4935 153.389 12.0215 154.677 8.38153C154.901 7.73753 155.307 7.26153 155.895 6.95353C156.483 6.61753 157.099 6.50553 157.743 6.61753L160.053 7.12153C160.697 7.26153 161.173 7.61153 161.481 8.17153C161.817 8.70353 161.887 9.27753 161.691 9.89353C160.179 14.7655 158.009 19.2875 155.181 23.4595C155.041 23.6555 155.083 23.8375 155.307 24.0055C158.219 26.4135 161.061 28.8775 163.833 31.3975C164.309 31.8455 164.561 32.4055 164.589 33.0775C164.645 33.7215 164.449 34.2955 164.001 34.7995L162.615 36.3955C162.167 36.8715 161.621 37.1375 160.977 37.1935C160.333 37.2215 159.773 37.0115 159.297 36.5635C156.917 34.3795 154.159 31.9715 151.023 29.3395C150.827 29.1995 150.659 29.1995 150.519 29.3395C146.599 33.5395 141.965 37.1795 136.617 40.2595C136.029 40.5955 135.399 40.6795 134.727 40.5115C134.083 40.3435 133.565 39.9795 133.173 39.4195Z" fill="white"/>
<path d="M176.433 14.1775C175.845 13.8975 175.453 13.4495 175.257 12.8335C175.061 12.2175 175.117 11.6295 175.425 11.0695L176.391 9.17953C176.699 8.59153 177.161 8.19953 177.777 8.00353C178.421 7.77953 179.051 7.80753 179.667 8.08753C182.551 9.45953 185.505 10.9295 188.529 12.4975C189.117 12.7775 189.495 13.2395 189.663 13.8835C189.859 14.5275 189.803 15.1295 189.495 15.6895L188.403 17.5795C188.095 18.1395 187.619 18.5175 186.975 18.7135C186.359 18.9095 185.757 18.8535 185.169 18.5455C182.257 17.0335 179.345 15.5775 176.433 14.1775ZM206.253 12.1195C206.897 12.2595 207.401 12.6095 207.765 13.1695C208.129 13.7015 208.241 14.2895 208.101 14.9335C206.449 22.2975 203.201 28.0235 198.357 32.1115C193.541 36.1995 186.961 38.7615 178.617 39.7975C177.945 39.8815 177.343 39.7135 176.811 39.2935C176.279 38.9015 175.957 38.3695 175.845 37.6975L175.551 35.7655C175.439 35.1495 175.579 34.5895 175.971 34.0855C176.363 33.5535 176.881 33.2455 177.525 33.1615C184.357 32.2095 189.677 30.1795 193.485 27.0715C197.321 23.9635 200.023 19.4415 201.591 13.5055C201.759 12.8615 202.109 12.3715 202.641 12.0355C203.201 11.6715 203.803 11.5595 204.447 11.6995L206.253 12.1195Z" fill="white"/>
<path d="M222.339 41.3935C221.695 41.3935 221.135 41.1555 220.659 40.6795C220.183 40.2035 219.945 39.6435 219.945 38.9995V8.75953C219.945 8.11553 220.183 7.55553 220.659 7.07953C221.135 6.60353 221.695 6.36553 222.339 6.36553H224.733C225.377 6.36553 225.923 6.60353 226.371 7.07953C226.847 7.55553 227.085 8.11553 227.085 8.75953V17.5795C227.085 17.8315 227.211 17.9855 227.463 18.0415C234.043 19.6655 240.693 21.6535 247.413 24.0055C248.029 24.2015 248.491 24.6075 248.799 25.2235C249.107 25.8115 249.149 26.4275 248.925 27.0715L248.253 28.9615C248.029 29.5775 247.637 30.0255 247.077 30.3055C246.517 30.5855 245.929 30.6275 245.313 30.4315C239.573 28.3875 233.609 26.5675 227.421 24.9715C227.197 24.9155 227.085 25.0135 227.085 25.2655V38.9995C227.085 39.6435 226.847 40.2035 226.371 40.6795C225.923 41.1555 225.377 41.3935 224.733 41.3935H222.339Z" fill="white"/>
<path d="M7.29927 14.4715C6.65527 14.4715 6.09527 14.2335 5.61927 13.7575C5.14327 13.2815 4.90527 12.7215 4.90527 12.0775V10.5655C4.90527 9.92153 5.14327 9.37553 5.61927 8.92753C6.09527 8.45153 6.65527 8.21353 7.29927 8.21353H36.7833C37.4273 8.21353 37.9873 8.45153 38.4633 8.92753C38.9393 9.37553 39.1773 9.92153 39.1773 10.5655V14.4715C37.8893 18.1115 36.0133 21.3315 33.5493 24.1315C31.1133 26.9035 27.9073 29.4095 23.9313 31.6495C23.7353 31.7615 23.6933 31.9015 23.8053 32.0695C24.0293 32.4055 24.4493 33.0355 25.0653 33.9595C25.7093 34.8555 26.1993 35.5555 26.5353 36.0595C26.8993 36.5915 27.0113 37.1795 26.8713 37.8235C26.7313 38.4395 26.3953 38.9155 25.8633 39.2515L23.8473 40.5115C23.2873 40.8755 22.6713 40.9735 21.9993 40.8055C21.3553 40.6655 20.8373 40.3155 20.4453 39.7555C17.1133 34.8555 13.9073 30.3055 10.8273 26.1055C10.4353 25.5735 10.2953 24.9995 10.4073 24.3835C10.5193 23.7395 10.8413 23.2355 11.3733 22.8715L13.3053 21.5695C13.8653 21.2055 14.4673 21.0795 15.1113 21.1915C15.7833 21.3035 16.3153 21.6255 16.7073 22.1575C17.6313 23.4175 18.5133 24.6355 19.3533 25.8115C19.4933 26.0075 19.6753 26.0495 19.8993 25.9375C22.5313 24.4815 24.8693 22.7735 26.9133 20.8135C28.9573 18.8255 30.4973 16.8095 31.5333 14.7655C31.5613 14.7095 31.5473 14.6535 31.4913 14.5975C31.4633 14.5135 31.4073 14.4715 31.3233 14.4715H7.29927Z" stroke="black" stroke-width="8" mask="url(#path-1-outside-1_429_2265)"/>
<path d="M46.6953 33.2455L46.2753 31.6075C46.1073 30.9915 46.1913 30.4035 46.5273 29.8435C46.8633 29.2835 47.3533 28.9335 47.9973 28.7935C58.2453 26.2735 66.1413 22.3815 71.6853 17.1175C71.7413 17.0895 71.7553 17.0475 71.7273 16.9915C71.6993 16.9075 71.6573 16.8655 71.6013 16.8655H50.8953C50.2513 16.8655 49.6913 16.6415 49.2153 16.1935C48.7393 15.7175 48.5013 15.1575 48.5013 14.5135V13.1695C48.5013 12.5255 48.7393 11.9655 49.2153 11.4895C49.6913 11.0135 50.2513 10.7755 50.8953 10.7755H60.1353C60.3873 10.7755 60.5133 10.6635 60.5133 10.4395V7.49953C60.5133 6.85553 60.7513 6.29553 61.2273 5.81953C61.7033 5.34353 62.2633 5.10553 62.9073 5.10553H65.2593C65.9033 5.10553 66.4633 5.34353 66.9393 5.81953C67.4153 6.29553 67.6533 6.85553 67.6533 7.49953V10.4395C67.6533 10.6635 67.7653 10.7755 67.9893 10.7755H78.0273C78.6713 10.7755 79.2313 11.0135 79.7073 11.4895C80.1833 11.9655 80.4213 12.5255 80.4213 13.1695V16.5295C80.4213 16.7535 80.3513 16.9775 80.2113 17.2015C78.5873 19.7215 76.3473 22.1295 73.4913 24.4255C73.3793 24.5655 73.3933 24.7055 73.5333 24.8455C76.4733 27.0575 78.8393 28.8635 80.6313 30.2635C81.1353 30.6555 81.4153 31.1875 81.4713 31.8595C81.5273 32.5035 81.3453 33.0635 80.9253 33.5395L79.7493 34.9255C79.3013 35.4295 78.7553 35.7235 78.1113 35.8075C77.4673 35.8635 76.8793 35.6955 76.3473 35.3035C73.9113 33.4275 71.0973 31.2995 67.9053 28.9195C67.7373 28.8075 67.6533 28.8635 67.6533 29.0875V39.4195C67.6533 40.0635 67.4153 40.6235 66.9393 41.0995C66.4633 41.5755 65.9033 41.8135 65.2593 41.8135H62.9073C62.2633 41.8135 61.7033 41.5755 61.2273 41.0995C60.7513 40.6235 60.5133 40.0635 60.5133 39.4195V32.0275C60.5133 31.8315 60.4013 31.7615 60.1773 31.8175C56.8173 33.1335 53.3033 34.2115 49.6353 35.0515C48.9913 35.1915 48.3753 35.0935 47.7873 34.7575C47.2273 34.3935 46.8633 33.8895 46.6953 33.2455Z" stroke="black" stroke-width="8" mask="url(#path-1-outside-1_429_2265)"/>
<path d="M121.497 14.0935C122.141 14.2055 122.645 14.5415 123.009 15.1015C123.401 15.6335 123.527 16.2075 123.387 16.8235C121.595 24.4955 118.431 30.2075 113.895 33.9595C109.359 37.6835 102.765 40.0495 94.1133 41.0575C93.4413 41.1415 92.8393 40.9735 92.3073 40.5535C91.7753 40.1615 91.4533 39.6295 91.3413 38.9575L91.0473 37.2355C90.9353 36.6195 91.0753 36.0595 91.4673 35.5555C91.8873 35.0235 92.4193 34.7155 93.0633 34.6315C100.343 33.7915 105.761 31.9715 109.317 29.1715C112.901 26.3435 115.435 21.8635 116.919 15.7315C117.059 15.0875 117.409 14.5835 117.969 14.2195C118.529 13.8275 119.131 13.6875 119.775 13.7995L121.497 14.0935ZM118.347 11.4475C117.815 11.6995 117.255 11.7415 116.667 11.5735C116.107 11.3775 115.687 11.0135 115.407 10.4815C115.267 10.2295 115.071 9.86553 114.819 9.38953C114.567 8.88553 114.371 8.50753 114.231 8.25553C113.951 7.72353 113.895 7.17753 114.063 6.61753C114.259 6.02953 114.623 5.59553 115.155 5.31553C115.715 5.03553 116.275 4.99353 116.835 5.18953C117.423 5.38553 117.871 5.76353 118.179 6.32353C118.319 6.57553 118.515 6.95353 118.767 7.45753C119.019 7.93353 119.215 8.29753 119.355 8.54953C119.635 9.10953 119.677 9.66953 119.481 10.2295C119.285 10.7895 118.907 11.1955 118.347 11.4475ZM125.907 9.72553C125.711 10.2855 125.333 10.7055 124.773 10.9855C124.213 11.2655 123.639 11.3075 123.051 11.1115C122.491 10.9155 122.057 10.5375 121.749 9.97753C121.497 9.47353 121.091 8.71753 120.531 7.70953C120.251 7.14953 120.195 6.58953 120.363 6.02953C120.559 5.44153 120.937 5.00753 121.497 4.72753C122.057 4.44753 122.645 4.40553 123.261 4.60153C123.877 4.79753 124.325 5.16153 124.605 5.69353C124.745 5.97353 124.941 6.37953 125.193 6.91153C125.473 7.44353 125.669 7.82153 125.781 8.04553C126.061 8.60553 126.103 9.16553 125.907 9.72553ZM91.3413 23.0815C90.6973 22.9695 90.1933 22.6475 89.8293 22.1155C89.4653 21.5555 89.3533 20.9535 89.4933 20.3095L89.7453 19.1335C89.8853 18.4895 90.2353 17.9855 90.7953 17.6215C91.3553 17.2295 91.9573 17.0895 92.6013 17.2015C95.0373 17.6495 98.1173 18.2515 101.841 19.0075C102.485 19.1475 102.989 19.4975 103.353 20.0575C103.717 20.5895 103.829 21.1775 103.689 21.8215L103.437 23.0395C103.297 23.6835 102.947 24.1875 102.387 24.5515C101.827 24.8875 101.225 24.9855 100.581 24.8455C97.6693 24.2575 94.5893 23.6695 91.3413 23.0815ZM104.193 8.88553C104.837 8.99753 105.341 9.33353 105.705 9.89353C106.069 10.4535 106.181 11.0555 106.041 11.6995L105.789 13.0015C105.677 13.6455 105.327 14.1495 104.739 14.5135C104.179 14.8775 103.577 14.9895 102.933 14.8495C99.1813 14.0935 95.9893 13.4915 93.3573 13.0435C92.7413 12.9315 92.2373 12.6095 91.8453 12.0775C91.4813 11.5455 91.3693 10.9575 91.5093 10.3135L91.7613 9.01153C91.8733 8.36753 92.2093 7.84953 92.7693 7.45753C93.3293 7.06553 93.9313 6.92553 94.5753 7.03753C96.4233 7.34553 99.6293 7.96153 104.193 8.88553Z" stroke="black" stroke-width="8" mask="url(#path-1-outside-1_429_2265)"/>
<path d="M133.173 39.4195L131.871 37.5715C131.507 37.0395 131.395 36.4655 131.535 35.8495C131.675 35.2335 132.025 34.7575 132.585 34.4215C137.373 31.5655 141.447 28.3315 144.807 24.7195C144.975 24.5515 144.961 24.3835 144.765 24.2155C141.797 21.8635 138.969 19.7075 136.281 17.7475C135.749 17.3555 135.427 16.8515 135.315 16.2355C135.231 15.5915 135.399 15.0175 135.819 14.5135L137.121 13.0015C137.569 12.4695 138.115 12.1615 138.759 12.0775C139.431 11.9935 140.047 12.1475 140.607 12.5395C143.239 14.4435 146.025 16.5575 148.965 18.8815C149.161 19.0215 149.329 18.9935 149.469 18.7975C151.653 15.4935 153.389 12.0215 154.677 8.38153C154.901 7.73753 155.307 7.26153 155.895 6.95353C156.483 6.61753 157.099 6.50553 157.743 6.61753L160.053 7.12153C160.697 7.26153 161.173 7.61153 161.481 8.17153C161.817 8.70353 161.887 9.27753 161.691 9.89353C160.179 14.7655 158.009 19.2875 155.181 23.4595C155.041 23.6555 155.083 23.8375 155.307 24.0055C158.219 26.4135 161.061 28.8775 163.833 31.3975C164.309 31.8455 164.561 32.4055 164.589 33.0775C164.645 33.7215 164.449 34.2955 164.001 34.7995L162.615 36.3955C162.167 36.8715 161.621 37.1375 160.977 37.1935C160.333 37.2215 159.773 37.0115 159.297 36.5635C156.917 34.3795 154.159 31.9715 151.023 29.3395C150.827 29.1995 150.659 29.1995 150.519 29.3395C146.599 33.5395 141.965 37.1795 136.617 40.2595C136.029 40.5955 135.399 40.6795 134.727 40.5115C134.083 40.3435 133.565 39.9795 133.173 39.4195Z" stroke="black" stroke-width="8" mask="url(#path-1-outside-1_429_2265)"/>
<path d="M176.433 14.1775C175.845 13.8975 175.453 13.4495 175.257 12.8335C175.061 12.2175 175.117 11.6295 175.425 11.0695L176.391 9.17953C176.699 8.59153 177.161 8.19953 177.777 8.00353C178.421 7.77953 179.051 7.80753 179.667 8.08753C182.551 9.45953 185.505 10.9295 188.529 12.4975C189.117 12.7775 189.495 13.2395 189.663 13.8835C189.859 14.5275 189.803 15.1295 189.495 15.6895L188.403 17.5795C188.095 18.1395 187.619 18.5175 186.975 18.7135C186.359 18.9095 185.757 18.8535 185.169 18.5455C182.257 17.0335 179.345 15.5775 176.433 14.1775ZM206.253 12.1195C206.897 12.2595 207.401 12.6095 207.765 13.1695C208.129 13.7015 208.241 14.2895 208.101 14.9335C206.449 22.2975 203.201 28.0235 198.357 32.1115C193.541 36.1995 186.961 38.7615 178.617 39.7975C177.945 39.8815 177.343 39.7135 176.811 39.2935C176.279 38.9015 175.957 38.3695 175.845 37.6975L175.551 35.7655C175.439 35.1495 175.579 34.5895 175.971 34.0855C176.363 33.5535 176.881 33.2455 177.525 33.1615C184.357 32.2095 189.677 30.1795 193.485 27.0715C197.321 23.9635 200.023 19.4415 201.591 13.5055C201.759 12.8615 202.109 12.3715 202.641 12.0355C203.201 11.6715 203.803 11.5595 204.447 11.6995L206.253 12.1195Z" stroke="black" stroke-width="8" mask="url(#path-1-outside-1_429_2265)"/>
<path d="M222.339 41.3935C221.695 41.3935 221.135 41.1555 220.659 40.6795C220.183 40.2035 219.945 39.6435 219.945 38.9995V8.75953C219.945 8.11553 220.183 7.55553 220.659 7.07953C221.135 6.60353 221.695 6.36553 222.339 6.36553H224.733C225.377 6.36553 225.923 6.60353 226.371 7.07953C226.847 7.55553 227.085 8.11553 227.085 8.75953V17.5795C227.085 17.8315 227.211 17.9855 227.463 18.0415C234.043 19.6655 240.693 21.6535 247.413 24.0055C248.029 24.2015 248.491 24.6075 248.799 25.2235C249.107 25.8115 249.149 26.4275 248.925 27.0715L248.253 28.9615C248.029 29.5775 247.637 30.0255 247.077 30.3055C246.517 30.5855 245.929 30.6275 245.313 30.4315C239.573 28.3875 233.609 26.5675 227.421 24.9715C227.197 24.9155 227.085 25.0135 227.085 25.2655V38.9995C227.085 39.6435 226.847 40.2035 226.371 40.6795C225.923 41.1555 225.377 41.3935 224.733 41.3935H222.339Z" stroke="black" stroke-width="8" mask="url(#path-1-outside-1_429_2265)"/>
</svg>
