<svg width="365" height="64" viewBox="0 0 365 64" fill="none" xmlns="http://www.w3.org/2000/svg">
<mask id="path-1-outside-1_281_15061" maskUnits="userSpaceOnUse" x="0.125977" y="0.043335" width="365" height="64" fill="black">
<rect fill="white" x="0.125977" y="0.043335" width="365" height="64"/>
<path d="M7.65998 18.792C6.70931 18.792 5.88264 18.4407 5.17998 17.738C4.47731 17.0354 4.12598 16.2087 4.12598 15.258V13.026C4.12598 12.0754 4.47731 11.2694 5.17998 10.608C5.88264 9.90538 6.70931 9.55404 7.65998 9.55404H51.184C52.1346 9.55404 52.9613 9.90538 53.664 10.608C54.3666 11.2694 54.718 12.0754 54.718 13.026V18.792C52.8166 24.1654 50.0473 28.9187 46.41 33.052C42.814 37.144 38.0813 40.8434 32.212 44.15C31.9226 44.3154 31.8606 44.522 32.026 44.77C32.3566 45.266 32.9766 46.196 33.886 47.56C34.8366 48.8827 35.56 49.916 36.056 50.66C36.5933 51.4454 36.7586 52.3134 36.552 53.264C36.3453 54.1734 35.8493 54.876 35.064 55.372L32.088 57.232C31.2613 57.7694 30.352 57.914 29.36 57.666C28.4093 57.4594 27.6446 56.9427 27.066 56.116C22.1473 48.8827 17.4146 42.166 12.868 35.966C12.2893 35.1807 12.0826 34.3334 12.248 33.424C12.4133 32.4734 12.8886 31.7294 13.674 31.192L16.526 29.27C17.3526 28.7327 18.2413 28.5467 19.192 28.712C20.184 28.8774 20.9693 29.3527 21.548 30.138C22.912 31.998 24.214 33.796 25.454 35.532C25.6606 35.8214 25.9293 35.8834 26.26 35.718C30.1453 33.5687 33.5966 31.0474 36.614 28.154C39.6313 25.2194 41.9046 22.2434 43.434 19.226C43.4753 19.1434 43.4546 19.0607 43.372 18.978C43.3306 18.854 43.248 18.792 43.124 18.792H7.65998Z"/>
<path d="M65.816 46.506L65.196 44.088C64.948 43.1787 65.072 42.3107 65.568 41.484C66.064 40.6574 66.7873 40.1407 67.738 39.934C82.866 36.214 94.522 30.4687 102.706 22.698C102.789 22.6567 102.809 22.5947 102.768 22.512C102.727 22.388 102.665 22.326 102.582 22.326H72.016C71.0653 22.326 70.2386 21.9954 69.536 21.334C68.8333 20.6314 68.482 19.8047 68.482 18.854V16.87C68.482 15.9194 68.8333 15.0927 69.536 14.39C70.2386 13.6874 71.0653 13.336 72.016 13.336H85.656C86.028 13.336 86.214 13.1707 86.214 12.84V8.50004C86.214 7.54937 86.5653 6.72271 87.268 6.02004C87.9706 5.31737 88.7973 4.96604 89.748 4.96604H93.22C94.1706 4.96604 94.9973 5.31737 95.7 6.02004C96.4026 6.72271 96.754 7.54937 96.754 8.50004V12.84C96.754 13.1707 96.9193 13.336 97.25 13.336H112.068C113.019 13.336 113.845 13.6874 114.548 14.39C115.251 15.0927 115.602 15.9194 115.602 16.87V21.83C115.602 22.1607 115.499 22.4914 115.292 22.822C112.895 26.542 109.588 30.0967 105.372 33.486C105.207 33.6927 105.227 33.8994 105.434 34.106C109.774 37.3714 113.267 40.0374 115.912 42.104C116.656 42.6827 117.069 43.468 117.152 44.46C117.235 45.4107 116.966 46.2374 116.346 46.94L114.61 48.986C113.949 49.73 113.143 50.164 112.192 50.288C111.241 50.3707 110.373 50.1227 109.588 49.544C105.992 46.7747 101.838 43.6334 97.126 40.12C96.878 39.9547 96.754 40.0374 96.754 40.368V55.62C96.754 56.5707 96.4026 57.3974 95.7 58.1C94.9973 58.8027 94.1706 59.154 93.22 59.154H89.748C88.7973 59.154 87.9706 58.8027 87.268 58.1C86.5653 57.3974 86.214 56.5707 86.214 55.62V44.708C86.214 44.4187 86.0486 44.3154 85.718 44.398C80.758 46.3407 75.5706 47.932 70.156 49.172C69.2053 49.3787 68.296 49.234 67.428 48.738C66.6013 48.2007 66.064 47.4567 65.816 46.506Z"/>
<path d="M176.238 18.234C177.189 18.3994 177.933 18.8954 178.47 19.722C179.049 20.5074 179.235 21.3547 179.028 22.264C176.383 33.5894 171.712 42.0214 165.016 47.56C158.32 53.0574 148.586 56.55 135.814 58.038C134.822 58.162 133.933 57.914 133.148 57.294C132.363 56.7154 131.887 55.93 131.722 54.938L131.288 52.396C131.123 51.4867 131.329 50.66 131.908 49.916C132.528 49.1307 133.313 48.676 134.264 48.552C145.011 47.312 153.009 44.6254 158.258 40.492C163.549 36.3174 167.289 29.704 169.48 20.652C169.687 19.7014 170.203 18.9574 171.03 18.42C171.857 17.8414 172.745 17.6347 173.696 17.8L176.238 18.234ZM171.588 14.328C170.803 14.7 169.976 14.762 169.108 14.514C168.281 14.2247 167.661 13.6874 167.248 12.902C167.041 12.53 166.752 11.9927 166.38 11.29C166.008 10.546 165.719 9.98804 165.512 9.61604C165.099 8.83071 165.016 8.02471 165.264 7.19804C165.553 6.33004 166.091 5.68937 166.876 5.27604C167.703 4.86271 168.529 4.80071 169.356 5.09004C170.224 5.37937 170.885 5.93737 171.34 6.76404C171.547 7.13604 171.836 7.69404 172.208 8.43804C172.58 9.14071 172.869 9.67804 173.076 10.05C173.489 10.8767 173.551 11.7034 173.262 12.53C172.973 13.3567 172.415 13.956 171.588 14.328ZM182.748 11.786C182.459 12.6127 181.901 13.2327 181.074 13.646C180.247 14.0594 179.4 14.1214 178.532 13.832C177.705 13.5427 177.065 12.9847 176.61 12.158C176.238 11.414 175.639 10.298 174.812 8.81004C174.399 7.98337 174.316 7.15671 174.564 6.33004C174.853 5.46204 175.411 4.82137 176.238 4.40804C177.065 3.99471 177.933 3.93271 178.842 4.22204C179.751 4.51137 180.413 5.04871 180.826 5.83404C181.033 6.24737 181.322 6.84671 181.694 7.63204C182.107 8.41737 182.397 8.97537 182.562 9.30604C182.975 10.1327 183.037 10.9594 182.748 11.786ZM131.722 31.502C130.771 31.3367 130.027 30.8614 129.49 30.076C128.953 29.2494 128.787 28.3607 128.994 27.41L129.366 25.674C129.573 24.7234 130.089 23.9794 130.916 23.442C131.743 22.8634 132.631 22.6567 133.582 22.822C137.178 23.4834 141.725 24.372 147.222 25.488C148.173 25.6947 148.917 26.2114 149.454 27.038C149.991 27.8234 150.157 28.6914 149.95 29.642L149.578 31.44C149.371 32.3907 148.855 33.1347 148.028 33.672C147.201 34.168 146.313 34.3127 145.362 34.106C141.063 33.238 136.517 32.37 131.722 31.502ZM150.694 10.546C151.645 10.7114 152.389 11.2074 152.926 12.034C153.463 12.8607 153.629 13.7494 153.422 14.7L153.05 16.622C152.885 17.5727 152.368 18.3167 151.5 18.854C150.673 19.3914 149.785 19.5567 148.834 19.35C143.295 18.234 138.583 17.3454 134.698 16.684C133.789 16.5187 133.045 16.0434 132.466 15.258C131.929 14.4727 131.763 13.6047 131.97 12.654L132.342 10.732C132.507 9.78137 133.003 9.01671 133.83 8.43804C134.657 7.85937 135.545 7.65271 136.496 7.81804C139.224 8.27271 143.957 9.18204 150.694 10.546Z"/>
<path d="M193.474 55.62L191.552 52.892C191.015 52.1067 190.849 51.2594 191.056 50.35C191.263 49.4407 191.779 48.738 192.606 48.242C199.674 44.026 205.688 39.252 210.648 33.92C210.896 33.672 210.875 33.424 210.586 33.176C206.205 29.704 202.03 26.5214 198.062 23.628C197.277 23.0494 196.801 22.3054 196.636 21.396C196.512 20.4454 196.76 19.598 197.38 18.854L199.302 16.622C199.963 15.8367 200.769 15.382 201.72 15.258C202.712 15.134 203.621 15.3614 204.448 15.94C208.333 18.7507 212.446 21.8714 216.786 25.302C217.075 25.5087 217.323 25.4674 217.53 25.178C220.754 20.3007 223.317 15.1754 225.218 9.80204C225.549 8.85138 226.148 8.14871 227.016 7.69404C227.884 7.19804 228.793 7.03271 229.744 7.19804L233.154 7.94204C234.105 8.14871 234.807 8.66538 235.262 9.49204C235.758 10.2774 235.861 11.1247 235.572 12.034C233.34 19.226 230.137 25.9014 225.962 32.06C225.755 32.3494 225.817 32.618 226.148 32.866C230.447 36.4207 234.642 40.058 238.734 43.778C239.437 44.4394 239.809 45.266 239.85 46.258C239.933 47.2087 239.643 48.056 238.982 48.8L236.936 51.156C236.275 51.8587 235.469 52.2514 234.518 52.334C233.567 52.3754 232.741 52.0654 232.038 51.404C228.525 48.18 224.453 44.6254 219.824 40.74C219.535 40.5334 219.287 40.5334 219.08 40.74C213.293 46.94 206.453 52.3134 198.558 56.86C197.69 57.356 196.76 57.48 195.768 57.232C194.817 56.984 194.053 56.4467 193.474 55.62Z"/>
<path d="M256.094 18.358C255.226 17.9447 254.647 17.2834 254.358 16.374C254.069 15.4647 254.151 14.5967 254.606 13.77L256.032 10.98C256.487 10.112 257.169 9.53338 258.078 9.24404C259.029 8.91337 259.959 8.95471 260.868 9.36804C265.125 11.3934 269.486 13.5634 273.95 15.878C274.818 16.2914 275.376 16.9734 275.624 17.924C275.913 18.8747 275.831 19.7634 275.376 20.59L273.764 23.38C273.309 24.2067 272.607 24.7647 271.656 25.054C270.747 25.3434 269.858 25.2607 268.99 24.806C264.691 22.574 260.393 20.4247 256.094 18.358ZM300.114 15.32C301.065 15.5267 301.809 16.0434 302.346 16.87C302.883 17.6554 303.049 18.5234 302.842 19.474C300.403 30.3447 295.609 38.7974 288.458 44.832C281.349 50.8667 271.635 54.6487 259.318 56.178C258.326 56.302 257.437 56.054 256.652 55.434C255.867 54.8554 255.391 54.07 255.226 53.078L254.792 50.226C254.627 49.3167 254.833 48.49 255.412 47.746C255.991 46.9607 256.755 46.506 257.706 46.382C267.791 44.9767 275.645 41.98 281.266 37.392C286.929 32.804 290.917 26.1287 293.232 17.366C293.48 16.4154 293.997 15.692 294.782 15.196C295.609 14.6587 296.497 14.4934 297.448 14.7L300.114 15.32Z"/>
<path d="M321.38 58.534C320.429 58.534 319.603 58.1827 318.9 57.48C318.197 56.7774 317.846 55.9507 317.846 55V10.36C317.846 9.40938 318.197 8.58271 318.9 7.88004C319.603 7.17738 320.429 6.82604 321.38 6.82604H324.914C325.865 6.82604 326.671 7.17738 327.332 7.88004C328.035 8.58271 328.386 9.40938 328.386 10.36V23.38C328.386 23.752 328.572 23.9794 328.944 24.062C338.657 26.4594 348.474 29.394 358.394 32.866C359.303 33.1554 359.985 33.7547 360.44 34.664C360.895 35.532 360.957 36.4414 360.626 37.392L359.634 40.182C359.303 41.0914 358.725 41.7527 357.898 42.166C357.071 42.5794 356.203 42.6414 355.294 42.352C346.821 39.3347 338.017 36.648 328.882 34.292C328.551 34.2094 328.386 34.354 328.386 34.726V55C328.386 55.9507 328.035 56.7774 327.332 57.48C326.671 58.1827 325.865 58.534 324.914 58.534H321.38Z"/>
</mask>
<path d="M7.65998 18.792C6.70931 18.792 5.88264 18.4407 5.17998 17.738C4.47731 17.0354 4.12598 16.2087 4.12598 15.258V13.026C4.12598 12.0754 4.47731 11.2694 5.17998 10.608C5.88264 9.90538 6.70931 9.55404 7.65998 9.55404H51.184C52.1346 9.55404 52.9613 9.90538 53.664 10.608C54.3666 11.2694 54.718 12.0754 54.718 13.026V18.792C52.8166 24.1654 50.0473 28.9187 46.41 33.052C42.814 37.144 38.0813 40.8434 32.212 44.15C31.9226 44.3154 31.8606 44.522 32.026 44.77C32.3566 45.266 32.9766 46.196 33.886 47.56C34.8366 48.8827 35.56 49.916 36.056 50.66C36.5933 51.4454 36.7586 52.3134 36.552 53.264C36.3453 54.1734 35.8493 54.876 35.064 55.372L32.088 57.232C31.2613 57.7694 30.352 57.914 29.36 57.666C28.4093 57.4594 27.6446 56.9427 27.066 56.116C22.1473 48.8827 17.4146 42.166 12.868 35.966C12.2893 35.1807 12.0826 34.3334 12.248 33.424C12.4133 32.4734 12.8886 31.7294 13.674 31.192L16.526 29.27C17.3526 28.7327 18.2413 28.5467 19.192 28.712C20.184 28.8774 20.9693 29.3527 21.548 30.138C22.912 31.998 24.214 33.796 25.454 35.532C25.6606 35.8214 25.9293 35.8834 26.26 35.718C30.1453 33.5687 33.5966 31.0474 36.614 28.154C39.6313 25.2194 41.9046 22.2434 43.434 19.226C43.4753 19.1434 43.4546 19.0607 43.372 18.978C43.3306 18.854 43.248 18.792 43.124 18.792H7.65998Z" fill="white"/>
<path d="M65.816 46.506L65.196 44.088C64.948 43.1787 65.072 42.3107 65.568 41.484C66.064 40.6574 66.7873 40.1407 67.738 39.934C82.866 36.214 94.522 30.4687 102.706 22.698C102.789 22.6567 102.809 22.5947 102.768 22.512C102.727 22.388 102.665 22.326 102.582 22.326H72.016C71.0653 22.326 70.2386 21.9954 69.536 21.334C68.8333 20.6314 68.482 19.8047 68.482 18.854V16.87C68.482 15.9194 68.8333 15.0927 69.536 14.39C70.2386 13.6874 71.0653 13.336 72.016 13.336H85.656C86.028 13.336 86.214 13.1707 86.214 12.84V8.50004C86.214 7.54937 86.5653 6.72271 87.268 6.02004C87.9706 5.31737 88.7973 4.96604 89.748 4.96604H93.22C94.1706 4.96604 94.9973 5.31737 95.7 6.02004C96.4026 6.72271 96.754 7.54937 96.754 8.50004V12.84C96.754 13.1707 96.9193 13.336 97.25 13.336H112.068C113.019 13.336 113.845 13.6874 114.548 14.39C115.251 15.0927 115.602 15.9194 115.602 16.87V21.83C115.602 22.1607 115.499 22.4914 115.292 22.822C112.895 26.542 109.588 30.0967 105.372 33.486C105.207 33.6927 105.227 33.8994 105.434 34.106C109.774 37.3714 113.267 40.0374 115.912 42.104C116.656 42.6827 117.069 43.468 117.152 44.46C117.235 45.4107 116.966 46.2374 116.346 46.94L114.61 48.986C113.949 49.73 113.143 50.164 112.192 50.288C111.241 50.3707 110.373 50.1227 109.588 49.544C105.992 46.7747 101.838 43.6334 97.126 40.12C96.878 39.9547 96.754 40.0374 96.754 40.368V55.62C96.754 56.5707 96.4026 57.3974 95.7 58.1C94.9973 58.8027 94.1706 59.154 93.22 59.154H89.748C88.7973 59.154 87.9706 58.8027 87.268 58.1C86.5653 57.3974 86.214 56.5707 86.214 55.62V44.708C86.214 44.4187 86.0486 44.3154 85.718 44.398C80.758 46.3407 75.5706 47.932 70.156 49.172C69.2053 49.3787 68.296 49.234 67.428 48.738C66.6013 48.2007 66.064 47.4567 65.816 46.506Z" fill="white"/>
<path d="M176.238 18.234C177.189 18.3994 177.933 18.8954 178.47 19.722C179.049 20.5074 179.235 21.3547 179.028 22.264C176.383 33.5894 171.712 42.0214 165.016 47.56C158.32 53.0574 148.586 56.55 135.814 58.038C134.822 58.162 133.933 57.914 133.148 57.294C132.363 56.7154 131.887 55.93 131.722 54.938L131.288 52.396C131.123 51.4867 131.329 50.66 131.908 49.916C132.528 49.1307 133.313 48.676 134.264 48.552C145.011 47.312 153.009 44.6254 158.258 40.492C163.549 36.3174 167.289 29.704 169.48 20.652C169.687 19.7014 170.203 18.9574 171.03 18.42C171.857 17.8414 172.745 17.6347 173.696 17.8L176.238 18.234ZM171.588 14.328C170.803 14.7 169.976 14.762 169.108 14.514C168.281 14.2247 167.661 13.6874 167.248 12.902C167.041 12.53 166.752 11.9927 166.38 11.29C166.008 10.546 165.719 9.98804 165.512 9.61604C165.099 8.83071 165.016 8.02471 165.264 7.19804C165.553 6.33004 166.091 5.68937 166.876 5.27604C167.703 4.86271 168.529 4.80071 169.356 5.09004C170.224 5.37937 170.885 5.93737 171.34 6.76404C171.547 7.13604 171.836 7.69404 172.208 8.43804C172.58 9.14071 172.869 9.67804 173.076 10.05C173.489 10.8767 173.551 11.7034 173.262 12.53C172.973 13.3567 172.415 13.956 171.588 14.328ZM182.748 11.786C182.459 12.6127 181.901 13.2327 181.074 13.646C180.247 14.0594 179.4 14.1214 178.532 13.832C177.705 13.5427 177.065 12.9847 176.61 12.158C176.238 11.414 175.639 10.298 174.812 8.81004C174.399 7.98337 174.316 7.15671 174.564 6.33004C174.853 5.46204 175.411 4.82137 176.238 4.40804C177.065 3.99471 177.933 3.93271 178.842 4.22204C179.751 4.51137 180.413 5.04871 180.826 5.83404C181.033 6.24737 181.322 6.84671 181.694 7.63204C182.107 8.41737 182.397 8.97537 182.562 9.30604C182.975 10.1327 183.037 10.9594 182.748 11.786ZM131.722 31.502C130.771 31.3367 130.027 30.8614 129.49 30.076C128.953 29.2494 128.787 28.3607 128.994 27.41L129.366 25.674C129.573 24.7234 130.089 23.9794 130.916 23.442C131.743 22.8634 132.631 22.6567 133.582 22.822C137.178 23.4834 141.725 24.372 147.222 25.488C148.173 25.6947 148.917 26.2114 149.454 27.038C149.991 27.8234 150.157 28.6914 149.95 29.642L149.578 31.44C149.371 32.3907 148.855 33.1347 148.028 33.672C147.201 34.168 146.313 34.3127 145.362 34.106C141.063 33.238 136.517 32.37 131.722 31.502ZM150.694 10.546C151.645 10.7114 152.389 11.2074 152.926 12.034C153.463 12.8607 153.629 13.7494 153.422 14.7L153.05 16.622C152.885 17.5727 152.368 18.3167 151.5 18.854C150.673 19.3914 149.785 19.5567 148.834 19.35C143.295 18.234 138.583 17.3454 134.698 16.684C133.789 16.5187 133.045 16.0434 132.466 15.258C131.929 14.4727 131.763 13.6047 131.97 12.654L132.342 10.732C132.507 9.78137 133.003 9.01671 133.83 8.43804C134.657 7.85937 135.545 7.65271 136.496 7.81804C139.224 8.27271 143.957 9.18204 150.694 10.546Z" fill="white"/>
<path d="M193.474 55.62L191.552 52.892C191.015 52.1067 190.849 51.2594 191.056 50.35C191.263 49.4407 191.779 48.738 192.606 48.242C199.674 44.026 205.688 39.252 210.648 33.92C210.896 33.672 210.875 33.424 210.586 33.176C206.205 29.704 202.03 26.5214 198.062 23.628C197.277 23.0494 196.801 22.3054 196.636 21.396C196.512 20.4454 196.76 19.598 197.38 18.854L199.302 16.622C199.963 15.8367 200.769 15.382 201.72 15.258C202.712 15.134 203.621 15.3614 204.448 15.94C208.333 18.7507 212.446 21.8714 216.786 25.302C217.075 25.5087 217.323 25.4674 217.53 25.178C220.754 20.3007 223.317 15.1754 225.218 9.80204C225.549 8.85138 226.148 8.14871 227.016 7.69404C227.884 7.19804 228.793 7.03271 229.744 7.19804L233.154 7.94204C234.105 8.14871 234.807 8.66538 235.262 9.49204C235.758 10.2774 235.861 11.1247 235.572 12.034C233.34 19.226 230.137 25.9014 225.962 32.06C225.755 32.3494 225.817 32.618 226.148 32.866C230.447 36.4207 234.642 40.058 238.734 43.778C239.437 44.4394 239.809 45.266 239.85 46.258C239.933 47.2087 239.643 48.056 238.982 48.8L236.936 51.156C236.275 51.8587 235.469 52.2514 234.518 52.334C233.567 52.3754 232.741 52.0654 232.038 51.404C228.525 48.18 224.453 44.6254 219.824 40.74C219.535 40.5334 219.287 40.5334 219.08 40.74C213.293 46.94 206.453 52.3134 198.558 56.86C197.69 57.356 196.76 57.48 195.768 57.232C194.817 56.984 194.053 56.4467 193.474 55.62Z" fill="white"/>
<path d="M256.094 18.358C255.226 17.9447 254.647 17.2834 254.358 16.374C254.069 15.4647 254.151 14.5967 254.606 13.77L256.032 10.98C256.487 10.112 257.169 9.53338 258.078 9.24404C259.029 8.91337 259.959 8.95471 260.868 9.36804C265.125 11.3934 269.486 13.5634 273.95 15.878C274.818 16.2914 275.376 16.9734 275.624 17.924C275.913 18.8747 275.831 19.7634 275.376 20.59L273.764 23.38C273.309 24.2067 272.607 24.7647 271.656 25.054C270.747 25.3434 269.858 25.2607 268.99 24.806C264.691 22.574 260.393 20.4247 256.094 18.358ZM300.114 15.32C301.065 15.5267 301.809 16.0434 302.346 16.87C302.883 17.6554 303.049 18.5234 302.842 19.474C300.403 30.3447 295.609 38.7974 288.458 44.832C281.349 50.8667 271.635 54.6487 259.318 56.178C258.326 56.302 257.437 56.054 256.652 55.434C255.867 54.8554 255.391 54.07 255.226 53.078L254.792 50.226C254.627 49.3167 254.833 48.49 255.412 47.746C255.991 46.9607 256.755 46.506 257.706 46.382C267.791 44.9767 275.645 41.98 281.266 37.392C286.929 32.804 290.917 26.1287 293.232 17.366C293.48 16.4154 293.997 15.692 294.782 15.196C295.609 14.6587 296.497 14.4934 297.448 14.7L300.114 15.32Z" fill="white"/>
<path d="M321.38 58.534C320.429 58.534 319.603 58.1827 318.9 57.48C318.197 56.7774 317.846 55.9507 317.846 55V10.36C317.846 9.40938 318.197 8.58271 318.9 7.88004C319.603 7.17738 320.429 6.82604 321.38 6.82604H324.914C325.865 6.82604 326.671 7.17738 327.332 7.88004C328.035 8.58271 328.386 9.40938 328.386 10.36V23.38C328.386 23.752 328.572 23.9794 328.944 24.062C338.657 26.4594 348.474 29.394 358.394 32.866C359.303 33.1554 359.985 33.7547 360.44 34.664C360.895 35.532 360.957 36.4414 360.626 37.392L359.634 40.182C359.303 41.0914 358.725 41.7527 357.898 42.166C357.071 42.5794 356.203 42.6414 355.294 42.352C346.821 39.3347 338.017 36.648 328.882 34.292C328.551 34.2094 328.386 34.354 328.386 34.726V55C328.386 55.9507 328.035 56.7774 327.332 57.48C326.671 58.1827 325.865 58.534 324.914 58.534H321.38Z" fill="white"/>
<path d="M7.65998 18.792C6.70931 18.792 5.88264 18.4407 5.17998 17.738C4.47731 17.0354 4.12598 16.2087 4.12598 15.258V13.026C4.12598 12.0754 4.47731 11.2694 5.17998 10.608C5.88264 9.90538 6.70931 9.55404 7.65998 9.55404H51.184C52.1346 9.55404 52.9613 9.90538 53.664 10.608C54.3666 11.2694 54.718 12.0754 54.718 13.026V18.792C52.8166 24.1654 50.0473 28.9187 46.41 33.052C42.814 37.144 38.0813 40.8434 32.212 44.15C31.9226 44.3154 31.8606 44.522 32.026 44.77C32.3566 45.266 32.9766 46.196 33.886 47.56C34.8366 48.8827 35.56 49.916 36.056 50.66C36.5933 51.4454 36.7586 52.3134 36.552 53.264C36.3453 54.1734 35.8493 54.876 35.064 55.372L32.088 57.232C31.2613 57.7694 30.352 57.914 29.36 57.666C28.4093 57.4594 27.6446 56.9427 27.066 56.116C22.1473 48.8827 17.4146 42.166 12.868 35.966C12.2893 35.1807 12.0826 34.3334 12.248 33.424C12.4133 32.4734 12.8886 31.7294 13.674 31.192L16.526 29.27C17.3526 28.7327 18.2413 28.5467 19.192 28.712C20.184 28.8774 20.9693 29.3527 21.548 30.138C22.912 31.998 24.214 33.796 25.454 35.532C25.6606 35.8214 25.9293 35.8834 26.26 35.718C30.1453 33.5687 33.5966 31.0474 36.614 28.154C39.6313 25.2194 41.9046 22.2434 43.434 19.226C43.4753 19.1434 43.4546 19.0607 43.372 18.978C43.3306 18.854 43.248 18.792 43.124 18.792H7.65998Z" stroke="black" stroke-width="8" mask="url(#path-1-outside-1_281_15061)"/>
<path d="M65.816 46.506L65.196 44.088C64.948 43.1787 65.072 42.3107 65.568 41.484C66.064 40.6574 66.7873 40.1407 67.738 39.934C82.866 36.214 94.522 30.4687 102.706 22.698C102.789 22.6567 102.809 22.5947 102.768 22.512C102.727 22.388 102.665 22.326 102.582 22.326H72.016C71.0653 22.326 70.2386 21.9954 69.536 21.334C68.8333 20.6314 68.482 19.8047 68.482 18.854V16.87C68.482 15.9194 68.8333 15.0927 69.536 14.39C70.2386 13.6874 71.0653 13.336 72.016 13.336H85.656C86.028 13.336 86.214 13.1707 86.214 12.84V8.50004C86.214 7.54937 86.5653 6.72271 87.268 6.02004C87.9706 5.31737 88.7973 4.96604 89.748 4.96604H93.22C94.1706 4.96604 94.9973 5.31737 95.7 6.02004C96.4026 6.72271 96.754 7.54937 96.754 8.50004V12.84C96.754 13.1707 96.9193 13.336 97.25 13.336H112.068C113.019 13.336 113.845 13.6874 114.548 14.39C115.251 15.0927 115.602 15.9194 115.602 16.87V21.83C115.602 22.1607 115.499 22.4914 115.292 22.822C112.895 26.542 109.588 30.0967 105.372 33.486C105.207 33.6927 105.227 33.8994 105.434 34.106C109.774 37.3714 113.267 40.0374 115.912 42.104C116.656 42.6827 117.069 43.468 117.152 44.46C117.235 45.4107 116.966 46.2374 116.346 46.94L114.61 48.986C113.949 49.73 113.143 50.164 112.192 50.288C111.241 50.3707 110.373 50.1227 109.588 49.544C105.992 46.7747 101.838 43.6334 97.126 40.12C96.878 39.9547 96.754 40.0374 96.754 40.368V55.62C96.754 56.5707 96.4026 57.3974 95.7 58.1C94.9973 58.8027 94.1706 59.154 93.22 59.154H89.748C88.7973 59.154 87.9706 58.8027 87.268 58.1C86.5653 57.3974 86.214 56.5707 86.214 55.62V44.708C86.214 44.4187 86.0486 44.3154 85.718 44.398C80.758 46.3407 75.5706 47.932 70.156 49.172C69.2053 49.3787 68.296 49.234 67.428 48.738C66.6013 48.2007 66.064 47.4567 65.816 46.506Z" stroke="black" stroke-width="8" mask="url(#path-1-outside-1_281_15061)"/>
<path d="M176.238 18.234C177.189 18.3994 177.933 18.8954 178.47 19.722C179.049 20.5074 179.235 21.3547 179.028 22.264C176.383 33.5894 171.712 42.0214 165.016 47.56C158.32 53.0574 148.586 56.55 135.814 58.038C134.822 58.162 133.933 57.914 133.148 57.294C132.363 56.7154 131.887 55.93 131.722 54.938L131.288 52.396C131.123 51.4867 131.329 50.66 131.908 49.916C132.528 49.1307 133.313 48.676 134.264 48.552C145.011 47.312 153.009 44.6254 158.258 40.492C163.549 36.3174 167.289 29.704 169.48 20.652C169.687 19.7014 170.203 18.9574 171.03 18.42C171.857 17.8414 172.745 17.6347 173.696 17.8L176.238 18.234ZM171.588 14.328C170.803 14.7 169.976 14.762 169.108 14.514C168.281 14.2247 167.661 13.6874 167.248 12.902C167.041 12.53 166.752 11.9927 166.38 11.29C166.008 10.546 165.719 9.98804 165.512 9.61604C165.099 8.83071 165.016 8.02471 165.264 7.19804C165.553 6.33004 166.091 5.68937 166.876 5.27604C167.703 4.86271 168.529 4.80071 169.356 5.09004C170.224 5.37937 170.885 5.93737 171.34 6.76404C171.547 7.13604 171.836 7.69404 172.208 8.43804C172.58 9.14071 172.869 9.67804 173.076 10.05C173.489 10.8767 173.551 11.7034 173.262 12.53C172.973 13.3567 172.415 13.956 171.588 14.328ZM182.748 11.786C182.459 12.6127 181.901 13.2327 181.074 13.646C180.247 14.0594 179.4 14.1214 178.532 13.832C177.705 13.5427 177.065 12.9847 176.61 12.158C176.238 11.414 175.639 10.298 174.812 8.81004C174.399 7.98337 174.316 7.15671 174.564 6.33004C174.853 5.46204 175.411 4.82137 176.238 4.40804C177.065 3.99471 177.933 3.93271 178.842 4.22204C179.751 4.51137 180.413 5.04871 180.826 5.83404C181.033 6.24737 181.322 6.84671 181.694 7.63204C182.107 8.41737 182.397 8.97537 182.562 9.30604C182.975 10.1327 183.037 10.9594 182.748 11.786ZM131.722 31.502C130.771 31.3367 130.027 30.8614 129.49 30.076C128.953 29.2494 128.787 28.3607 128.994 27.41L129.366 25.674C129.573 24.7234 130.089 23.9794 130.916 23.442C131.743 22.8634 132.631 22.6567 133.582 22.822C137.178 23.4834 141.725 24.372 147.222 25.488C148.173 25.6947 148.917 26.2114 149.454 27.038C149.991 27.8234 150.157 28.6914 149.95 29.642L149.578 31.44C149.371 32.3907 148.855 33.1347 148.028 33.672C147.201 34.168 146.313 34.3127 145.362 34.106C141.063 33.238 136.517 32.37 131.722 31.502ZM150.694 10.546C151.645 10.7114 152.389 11.2074 152.926 12.034C153.463 12.8607 153.629 13.7494 153.422 14.7L153.05 16.622C152.885 17.5727 152.368 18.3167 151.5 18.854C150.673 19.3914 149.785 19.5567 148.834 19.35C143.295 18.234 138.583 17.3454 134.698 16.684C133.789 16.5187 133.045 16.0434 132.466 15.258C131.929 14.4727 131.763 13.6047 131.97 12.654L132.342 10.732C132.507 9.78137 133.003 9.01671 133.83 8.43804C134.657 7.85937 135.545 7.65271 136.496 7.81804C139.224 8.27271 143.957 9.18204 150.694 10.546Z" stroke="black" stroke-width="8" mask="url(#path-1-outside-1_281_15061)"/>
<path d="M193.474 55.62L191.552 52.892C191.015 52.1067 190.849 51.2594 191.056 50.35C191.263 49.4407 191.779 48.738 192.606 48.242C199.674 44.026 205.688 39.252 210.648 33.92C210.896 33.672 210.875 33.424 210.586 33.176C206.205 29.704 202.03 26.5214 198.062 23.628C197.277 23.0494 196.801 22.3054 196.636 21.396C196.512 20.4454 196.76 19.598 197.38 18.854L199.302 16.622C199.963 15.8367 200.769 15.382 201.72 15.258C202.712 15.134 203.621 15.3614 204.448 15.94C208.333 18.7507 212.446 21.8714 216.786 25.302C217.075 25.5087 217.323 25.4674 217.53 25.178C220.754 20.3007 223.317 15.1754 225.218 9.80204C225.549 8.85138 226.148 8.14871 227.016 7.69404C227.884 7.19804 228.793 7.03271 229.744 7.19804L233.154 7.94204C234.105 8.14871 234.807 8.66538 235.262 9.49204C235.758 10.2774 235.861 11.1247 235.572 12.034C233.34 19.226 230.137 25.9014 225.962 32.06C225.755 32.3494 225.817 32.618 226.148 32.866C230.447 36.4207 234.642 40.058 238.734 43.778C239.437 44.4394 239.809 45.266 239.85 46.258C239.933 47.2087 239.643 48.056 238.982 48.8L236.936 51.156C236.275 51.8587 235.469 52.2514 234.518 52.334C233.567 52.3754 232.741 52.0654 232.038 51.404C228.525 48.18 224.453 44.6254 219.824 40.74C219.535 40.5334 219.287 40.5334 219.08 40.74C213.293 46.94 206.453 52.3134 198.558 56.86C197.69 57.356 196.76 57.48 195.768 57.232C194.817 56.984 194.053 56.4467 193.474 55.62Z" stroke="black" stroke-width="8" mask="url(#path-1-outside-1_281_15061)"/>
<path d="M256.094 18.358C255.226 17.9447 254.647 17.2834 254.358 16.374C254.069 15.4647 254.151 14.5967 254.606 13.77L256.032 10.98C256.487 10.112 257.169 9.53338 258.078 9.24404C259.029 8.91337 259.959 8.95471 260.868 9.36804C265.125 11.3934 269.486 13.5634 273.95 15.878C274.818 16.2914 275.376 16.9734 275.624 17.924C275.913 18.8747 275.831 19.7634 275.376 20.59L273.764 23.38C273.309 24.2067 272.607 24.7647 271.656 25.054C270.747 25.3434 269.858 25.2607 268.99 24.806C264.691 22.574 260.393 20.4247 256.094 18.358ZM300.114 15.32C301.065 15.5267 301.809 16.0434 302.346 16.87C302.883 17.6554 303.049 18.5234 302.842 19.474C300.403 30.3447 295.609 38.7974 288.458 44.832C281.349 50.8667 271.635 54.6487 259.318 56.178C258.326 56.302 257.437 56.054 256.652 55.434C255.867 54.8554 255.391 54.07 255.226 53.078L254.792 50.226C254.627 49.3167 254.833 48.49 255.412 47.746C255.991 46.9607 256.755 46.506 257.706 46.382C267.791 44.9767 275.645 41.98 281.266 37.392C286.929 32.804 290.917 26.1287 293.232 17.366C293.48 16.4154 293.997 15.692 294.782 15.196C295.609 14.6587 296.497 14.4934 297.448 14.7L300.114 15.32Z" stroke="black" stroke-width="8" mask="url(#path-1-outside-1_281_15061)"/>
<path d="M321.38 58.534C320.429 58.534 319.603 58.1827 318.9 57.48C318.197 56.7774 317.846 55.9507 317.846 55V10.36C317.846 9.40938 318.197 8.58271 318.9 7.88004C319.603 7.17738 320.429 6.82604 321.38 6.82604H324.914C325.865 6.82604 326.671 7.17738 327.332 7.88004C328.035 8.58271 328.386 9.40938 328.386 10.36V23.38C328.386 23.752 328.572 23.9794 328.944 24.062C338.657 26.4594 348.474 29.394 358.394 32.866C359.303 33.1554 359.985 33.7547 360.44 34.664C360.895 35.532 360.957 36.4414 360.626 37.392L359.634 40.182C359.303 41.0914 358.725 41.7527 357.898 42.166C357.071 42.5794 356.203 42.6414 355.294 42.352C346.821 39.3347 338.017 36.648 328.882 34.292C328.551 34.2094 328.386 34.354 328.386 34.726V55C328.386 55.9507 328.035 56.7774 327.332 57.48C326.671 58.1827 325.865 58.534 324.914 58.534H321.38Z" stroke="black" stroke-width="8" mask="url(#path-1-outside-1_281_15061)"/>
</svg>
