<svg width="212" height="47" viewBox="0 0 212 47" fill="none" xmlns="http://www.w3.org/2000/svg">
<mask id="path-1-outside-1_429_2263" maskUnits="userSpaceOnUse" x="0.569336" y="0.299805" width="211" height="46" fill="black">
<rect fill="white" x="0.569336" y="0.299805" width="211" height="46"/>
<path d="M34.3473 12.5318C34.8793 13.0638 35.5233 13.3298 36.2793 13.3298C37.0353 13.3298 37.6793 13.0638 38.2113 12.5318C38.7433 11.9998 39.0093 11.3558 39.0093 10.5998C39.0093 9.8438 38.7433 9.1998 38.2113 8.6678C37.6793 8.1358 37.0353 7.8698 36.2793 7.8698C35.5233 7.8698 34.8793 8.1358 34.3473 8.6678C33.8153 9.1998 33.5493 9.8438 33.5493 10.5998C33.5493 11.3558 33.8153 11.9998 34.3473 12.5318ZM36.2793 4.2998C38.0153 4.2998 39.4993 4.9158 40.7313 6.1478C41.9633 7.3798 42.5793 8.8638 42.5793 10.5998C42.5793 12.2798 42.0053 13.7218 40.8573 14.9258C39.7373 16.1298 38.3513 16.7878 36.6993 16.8998C36.4753 16.8998 36.3633 17.0258 36.3633 17.2778C36.3633 17.3058 36.3493 17.3618 36.3213 17.4458C36.3213 17.5298 36.3213 17.5998 36.3213 17.6558C35.4533 25.0478 32.9333 30.7038 28.7613 34.6238C24.6173 38.5438 18.6673 40.9938 10.9113 41.9738C10.2393 42.0578 9.63734 41.8898 9.10534 41.4698C8.57334 41.0778 8.23734 40.5598 8.09734 39.9158L7.80334 38.3198C7.69134 37.7038 7.81734 37.1438 8.18134 36.6398C8.57334 36.1078 9.09134 35.7998 9.73534 35.7158C15.9793 34.9038 20.6273 33.0278 23.6793 30.0878C26.7593 27.1478 28.6213 22.7378 29.2653 16.8578C29.3213 16.6058 29.2233 16.4798 28.9713 16.4798H6.96334C6.31934 16.4798 5.75934 16.2418 5.28334 15.7658C4.80734 15.2898 4.56934 14.7298 4.56934 14.0858V12.4058C4.56934 11.7618 4.80734 11.2158 5.28334 10.7678C5.75934 10.2918 6.31934 10.0538 6.96334 10.0538H29.6433C29.8673 10.0538 30.0073 9.9418 30.0633 9.7178C30.2873 8.1778 30.9733 6.8898 32.1213 5.8538C33.2973 4.8178 34.6833 4.2998 36.2793 4.2998Z"/>
<path d="M49.3833 25.5518C48.7393 25.5518 48.1793 25.3138 47.7033 24.8378C47.2273 24.3618 46.9893 23.8018 46.9893 23.1578V21.8558C46.9893 21.2118 47.2273 20.6518 47.7033 20.1758C48.1793 19.6998 48.7393 19.4618 49.3833 19.4618H78.0693C78.7413 19.4618 79.3013 19.6998 79.7493 20.1758C80.2253 20.6238 80.4493 21.1838 80.4213 21.8558C80.1693 28.0438 78.0693 32.8178 74.1213 36.1778C70.1733 39.5098 64.2093 41.4978 56.2293 42.1418C55.5573 42.1978 54.9553 42.0158 54.4233 41.5958C53.8913 41.1758 53.5553 40.6298 53.4153 39.9578L53.1633 38.5718C53.0513 37.9558 53.1913 37.3958 53.5833 36.8918C53.9753 36.3878 54.4933 36.1078 55.1373 36.0518C60.1773 35.6318 64.1393 34.6098 67.0233 32.9858C69.9353 31.3338 71.8533 28.9538 72.7773 25.8458C72.8333 25.6498 72.7493 25.5518 72.5253 25.5518H49.3833ZM52.3653 8.4158H75.6333C76.2773 8.4158 76.8233 8.6538 77.2713 9.12981C77.7473 9.6058 77.9853 10.1658 77.9853 10.8098V12.1538C77.9853 12.7978 77.7473 13.3578 77.2713 13.8338C76.8233 14.2818 76.2773 14.5058 75.6333 14.5058H52.3653C51.7213 14.5058 51.1613 14.2818 50.6853 13.8338C50.2373 13.3578 50.0133 12.7978 50.0133 12.1538V10.8098C50.0133 10.1658 50.2373 9.6058 50.6853 9.12981C51.1613 8.6538 51.7213 8.4158 52.3653 8.4158Z"/>
<path d="M92.4333 15.1778C91.8453 14.8978 91.4533 14.4498 91.2573 13.8338C91.0613 13.2178 91.1173 12.6298 91.4253 12.0698L92.3913 10.1798C92.6993 9.5918 93.1613 9.19981 93.7773 9.0038C94.4213 8.7798 95.0513 8.8078 95.6673 9.0878C98.5513 10.4598 101.505 11.9298 104.529 13.4978C105.117 13.7778 105.495 14.2398 105.663 14.8838C105.859 15.5278 105.803 16.1298 105.495 16.6898L104.403 18.5798C104.095 19.1398 103.619 19.5178 102.975 19.7138C102.359 19.9098 101.757 19.8538 101.169 19.5458C98.2573 18.0338 95.3453 16.5778 92.4333 15.1778ZM122.253 13.1198C122.897 13.2598 123.401 13.6098 123.765 14.1698C124.129 14.7018 124.241 15.2898 124.101 15.9338C122.449 23.2978 119.201 29.0238 114.357 33.1118C109.541 37.1998 102.961 39.7618 94.6173 40.7978C93.9453 40.8818 93.3433 40.7138 92.8113 40.2938C92.2793 39.9018 91.9573 39.3698 91.8453 38.6978L91.5513 36.7658C91.4393 36.1498 91.5793 35.5898 91.9713 35.0858C92.3633 34.5538 92.8813 34.2458 93.5253 34.1618C100.357 33.2098 105.677 31.1798 109.485 28.0718C113.321 24.9638 116.023 20.4418 117.591 14.5058C117.759 13.8618 118.109 13.3718 118.641 13.0358C119.201 12.6718 119.803 12.5598 120.447 12.6998L122.253 13.1198Z"/>
<path d="M132.459 20.8058C131.815 20.8058 131.255 20.5818 130.779 20.1338C130.303 19.6578 130.065 19.0978 130.065 18.4538V16.7738C130.065 16.1298 130.303 15.5698 130.779 15.0938C131.255 14.6178 131.815 14.3798 132.459 14.3798H145.395C145.647 14.3798 145.773 14.2538 145.773 14.0018V9.2558C145.773 8.6118 145.997 8.0658 146.445 7.6178C146.921 7.1418 147.481 6.9038 148.125 6.9038H150.519C151.163 6.9038 151.723 7.1418 152.199 7.6178C152.675 8.0658 152.913 8.6118 152.913 9.2558V14.0018C152.913 14.2538 153.025 14.3798 153.249 14.3798H163.539C164.183 14.3798 164.743 14.6178 165.219 15.0938C165.695 15.5698 165.933 16.1298 165.933 16.7738V18.4538C165.933 19.0978 165.695 19.6578 165.219 20.1338C164.743 20.5818 164.183 20.8058 163.539 20.8058H153.249C153.025 20.8058 152.913 20.9318 152.913 21.1838V21.7298C152.913 27.3298 151.695 31.7398 149.259 34.9598C146.851 38.1798 143.071 40.4338 137.919 41.7218C137.247 41.8898 136.617 41.8058 136.029 41.4698C135.469 41.1338 135.077 40.6298 134.853 39.9578L134.307 38.2358C134.111 37.6198 134.167 37.0458 134.475 36.5138C134.783 35.9818 135.245 35.6318 135.861 35.4638C139.473 34.5118 142.021 32.9998 143.505 30.9278C145.017 28.8278 145.773 25.7618 145.773 21.7298V21.1838C145.773 20.9318 145.647 20.8058 145.395 20.8058H132.459Z"/>
<path d="M174.879 28.2818C174.235 28.2818 173.675 28.0438 173.199 27.5678C172.723 27.0918 172.485 26.5318 172.485 25.8878V23.8718C172.485 23.2278 172.723 22.6678 173.199 22.1918C173.675 21.7158 174.235 21.4778 174.879 21.4778H205.119C205.763 21.4778 206.323 21.7158 206.799 22.1918C207.275 22.6678 207.513 23.2278 207.513 23.8718V25.8878C207.513 26.5318 207.275 27.0918 206.799 27.5678C206.323 28.0438 205.763 28.2818 205.119 28.2818H174.879Z"/>
</mask>
<path d="M34.3473 12.5318C34.8793 13.0638 35.5233 13.3298 36.2793 13.3298C37.0353 13.3298 37.6793 13.0638 38.2113 12.5318C38.7433 11.9998 39.0093 11.3558 39.0093 10.5998C39.0093 9.8438 38.7433 9.1998 38.2113 8.6678C37.6793 8.1358 37.0353 7.8698 36.2793 7.8698C35.5233 7.8698 34.8793 8.1358 34.3473 8.6678C33.8153 9.1998 33.5493 9.8438 33.5493 10.5998C33.5493 11.3558 33.8153 11.9998 34.3473 12.5318ZM36.2793 4.2998C38.0153 4.2998 39.4993 4.9158 40.7313 6.1478C41.9633 7.3798 42.5793 8.8638 42.5793 10.5998C42.5793 12.2798 42.0053 13.7218 40.8573 14.9258C39.7373 16.1298 38.3513 16.7878 36.6993 16.8998C36.4753 16.8998 36.3633 17.0258 36.3633 17.2778C36.3633 17.3058 36.3493 17.3618 36.3213 17.4458C36.3213 17.5298 36.3213 17.5998 36.3213 17.6558C35.4533 25.0478 32.9333 30.7038 28.7613 34.6238C24.6173 38.5438 18.6673 40.9938 10.9113 41.9738C10.2393 42.0578 9.63734 41.8898 9.10534 41.4698C8.57334 41.0778 8.23734 40.5598 8.09734 39.9158L7.80334 38.3198C7.69134 37.7038 7.81734 37.1438 8.18134 36.6398C8.57334 36.1078 9.09134 35.7998 9.73534 35.7158C15.9793 34.9038 20.6273 33.0278 23.6793 30.0878C26.7593 27.1478 28.6213 22.7378 29.2653 16.8578C29.3213 16.6058 29.2233 16.4798 28.9713 16.4798H6.96334C6.31934 16.4798 5.75934 16.2418 5.28334 15.7658C4.80734 15.2898 4.56934 14.7298 4.56934 14.0858V12.4058C4.56934 11.7618 4.80734 11.2158 5.28334 10.7678C5.75934 10.2918 6.31934 10.0538 6.96334 10.0538H29.6433C29.8673 10.0538 30.0073 9.9418 30.0633 9.7178C30.2873 8.1778 30.9733 6.8898 32.1213 5.8538C33.2973 4.8178 34.6833 4.2998 36.2793 4.2998Z" fill="white"/>
<path d="M49.3833 25.5518C48.7393 25.5518 48.1793 25.3138 47.7033 24.8378C47.2273 24.3618 46.9893 23.8018 46.9893 23.1578V21.8558C46.9893 21.2118 47.2273 20.6518 47.7033 20.1758C48.1793 19.6998 48.7393 19.4618 49.3833 19.4618H78.0693C78.7413 19.4618 79.3013 19.6998 79.7493 20.1758C80.2253 20.6238 80.4493 21.1838 80.4213 21.8558C80.1693 28.0438 78.0693 32.8178 74.1213 36.1778C70.1733 39.5098 64.2093 41.4978 56.2293 42.1418C55.5573 42.1978 54.9553 42.0158 54.4233 41.5958C53.8913 41.1758 53.5553 40.6298 53.4153 39.9578L53.1633 38.5718C53.0513 37.9558 53.1913 37.3958 53.5833 36.8918C53.9753 36.3878 54.4933 36.1078 55.1373 36.0518C60.1773 35.6318 64.1393 34.6098 67.0233 32.9858C69.9353 31.3338 71.8533 28.9538 72.7773 25.8458C72.8333 25.6498 72.7493 25.5518 72.5253 25.5518H49.3833ZM52.3653 8.4158H75.6333C76.2773 8.4158 76.8233 8.6538 77.2713 9.12981C77.7473 9.6058 77.9853 10.1658 77.9853 10.8098V12.1538C77.9853 12.7978 77.7473 13.3578 77.2713 13.8338C76.8233 14.2818 76.2773 14.5058 75.6333 14.5058H52.3653C51.7213 14.5058 51.1613 14.2818 50.6853 13.8338C50.2373 13.3578 50.0133 12.7978 50.0133 12.1538V10.8098C50.0133 10.1658 50.2373 9.6058 50.6853 9.12981C51.1613 8.6538 51.7213 8.4158 52.3653 8.4158Z" fill="white"/>
<path d="M92.4333 15.1778C91.8453 14.8978 91.4533 14.4498 91.2573 13.8338C91.0613 13.2178 91.1173 12.6298 91.4253 12.0698L92.3913 10.1798C92.6993 9.5918 93.1613 9.19981 93.7773 9.0038C94.4213 8.7798 95.0513 8.8078 95.6673 9.0878C98.5513 10.4598 101.505 11.9298 104.529 13.4978C105.117 13.7778 105.495 14.2398 105.663 14.8838C105.859 15.5278 105.803 16.1298 105.495 16.6898L104.403 18.5798C104.095 19.1398 103.619 19.5178 102.975 19.7138C102.359 19.9098 101.757 19.8538 101.169 19.5458C98.2573 18.0338 95.3453 16.5778 92.4333 15.1778ZM122.253 13.1198C122.897 13.2598 123.401 13.6098 123.765 14.1698C124.129 14.7018 124.241 15.2898 124.101 15.9338C122.449 23.2978 119.201 29.0238 114.357 33.1118C109.541 37.1998 102.961 39.7618 94.6173 40.7978C93.9453 40.8818 93.3433 40.7138 92.8113 40.2938C92.2793 39.9018 91.9573 39.3698 91.8453 38.6978L91.5513 36.7658C91.4393 36.1498 91.5793 35.5898 91.9713 35.0858C92.3633 34.5538 92.8813 34.2458 93.5253 34.1618C100.357 33.2098 105.677 31.1798 109.485 28.0718C113.321 24.9638 116.023 20.4418 117.591 14.5058C117.759 13.8618 118.109 13.3718 118.641 13.0358C119.201 12.6718 119.803 12.5598 120.447 12.6998L122.253 13.1198Z" fill="white"/>
<path d="M132.459 20.8058C131.815 20.8058 131.255 20.5818 130.779 20.1338C130.303 19.6578 130.065 19.0978 130.065 18.4538V16.7738C130.065 16.1298 130.303 15.5698 130.779 15.0938C131.255 14.6178 131.815 14.3798 132.459 14.3798H145.395C145.647 14.3798 145.773 14.2538 145.773 14.0018V9.2558C145.773 8.6118 145.997 8.0658 146.445 7.6178C146.921 7.1418 147.481 6.9038 148.125 6.9038H150.519C151.163 6.9038 151.723 7.1418 152.199 7.6178C152.675 8.0658 152.913 8.6118 152.913 9.2558V14.0018C152.913 14.2538 153.025 14.3798 153.249 14.3798H163.539C164.183 14.3798 164.743 14.6178 165.219 15.0938C165.695 15.5698 165.933 16.1298 165.933 16.7738V18.4538C165.933 19.0978 165.695 19.6578 165.219 20.1338C164.743 20.5818 164.183 20.8058 163.539 20.8058H153.249C153.025 20.8058 152.913 20.9318 152.913 21.1838V21.7298C152.913 27.3298 151.695 31.7398 149.259 34.9598C146.851 38.1798 143.071 40.4338 137.919 41.7218C137.247 41.8898 136.617 41.8058 136.029 41.4698C135.469 41.1338 135.077 40.6298 134.853 39.9578L134.307 38.2358C134.111 37.6198 134.167 37.0458 134.475 36.5138C134.783 35.9818 135.245 35.6318 135.861 35.4638C139.473 34.5118 142.021 32.9998 143.505 30.9278C145.017 28.8278 145.773 25.7618 145.773 21.7298V21.1838C145.773 20.9318 145.647 20.8058 145.395 20.8058H132.459Z" fill="white"/>
<path d="M174.879 28.2818C174.235 28.2818 173.675 28.0438 173.199 27.5678C172.723 27.0918 172.485 26.5318 172.485 25.8878V23.8718C172.485 23.2278 172.723 22.6678 173.199 22.1918C173.675 21.7158 174.235 21.4778 174.879 21.4778H205.119C205.763 21.4778 206.323 21.7158 206.799 22.1918C207.275 22.6678 207.513 23.2278 207.513 23.8718V25.8878C207.513 26.5318 207.275 27.0918 206.799 27.5678C206.323 28.0438 205.763 28.2818 205.119 28.2818H174.879Z" fill="white"/>
<path d="M34.3473 12.5318C34.8793 13.0638 35.5233 13.3298 36.2793 13.3298C37.0353 13.3298 37.6793 13.0638 38.2113 12.5318C38.7433 11.9998 39.0093 11.3558 39.0093 10.5998C39.0093 9.8438 38.7433 9.1998 38.2113 8.6678C37.6793 8.1358 37.0353 7.8698 36.2793 7.8698C35.5233 7.8698 34.8793 8.1358 34.3473 8.6678C33.8153 9.1998 33.5493 9.8438 33.5493 10.5998C33.5493 11.3558 33.8153 11.9998 34.3473 12.5318ZM36.2793 4.2998C38.0153 4.2998 39.4993 4.9158 40.7313 6.1478C41.9633 7.3798 42.5793 8.8638 42.5793 10.5998C42.5793 12.2798 42.0053 13.7218 40.8573 14.9258C39.7373 16.1298 38.3513 16.7878 36.6993 16.8998C36.4753 16.8998 36.3633 17.0258 36.3633 17.2778C36.3633 17.3058 36.3493 17.3618 36.3213 17.4458C36.3213 17.5298 36.3213 17.5998 36.3213 17.6558C35.4533 25.0478 32.9333 30.7038 28.7613 34.6238C24.6173 38.5438 18.6673 40.9938 10.9113 41.9738C10.2393 42.0578 9.63734 41.8898 9.10534 41.4698C8.57334 41.0778 8.23734 40.5598 8.09734 39.9158L7.80334 38.3198C7.69134 37.7038 7.81734 37.1438 8.18134 36.6398C8.57334 36.1078 9.09134 35.7998 9.73534 35.7158C15.9793 34.9038 20.6273 33.0278 23.6793 30.0878C26.7593 27.1478 28.6213 22.7378 29.2653 16.8578C29.3213 16.6058 29.2233 16.4798 28.9713 16.4798H6.96334C6.31934 16.4798 5.75934 16.2418 5.28334 15.7658C4.80734 15.2898 4.56934 14.7298 4.56934 14.0858V12.4058C4.56934 11.7618 4.80734 11.2158 5.28334 10.7678C5.75934 10.2918 6.31934 10.0538 6.96334 10.0538H29.6433C29.8673 10.0538 30.0073 9.9418 30.0633 9.7178C30.2873 8.1778 30.9733 6.8898 32.1213 5.8538C33.2973 4.8178 34.6833 4.2998 36.2793 4.2998Z" stroke="black" stroke-width="8" mask="url(#path-1-outside-1_429_2263)"/>
<path d="M49.3833 25.5518C48.7393 25.5518 48.1793 25.3138 47.7033 24.8378C47.2273 24.3618 46.9893 23.8018 46.9893 23.1578V21.8558C46.9893 21.2118 47.2273 20.6518 47.7033 20.1758C48.1793 19.6998 48.7393 19.4618 49.3833 19.4618H78.0693C78.7413 19.4618 79.3013 19.6998 79.7493 20.1758C80.2253 20.6238 80.4493 21.1838 80.4213 21.8558C80.1693 28.0438 78.0693 32.8178 74.1213 36.1778C70.1733 39.5098 64.2093 41.4978 56.2293 42.1418C55.5573 42.1978 54.9553 42.0158 54.4233 41.5958C53.8913 41.1758 53.5553 40.6298 53.4153 39.9578L53.1633 38.5718C53.0513 37.9558 53.1913 37.3958 53.5833 36.8918C53.9753 36.3878 54.4933 36.1078 55.1373 36.0518C60.1773 35.6318 64.1393 34.6098 67.0233 32.9858C69.9353 31.3338 71.8533 28.9538 72.7773 25.8458C72.8333 25.6498 72.7493 25.5518 72.5253 25.5518H49.3833ZM52.3653 8.4158H75.6333C76.2773 8.4158 76.8233 8.6538 77.2713 9.12981C77.7473 9.6058 77.9853 10.1658 77.9853 10.8098V12.1538C77.9853 12.7978 77.7473 13.3578 77.2713 13.8338C76.8233 14.2818 76.2773 14.5058 75.6333 14.5058H52.3653C51.7213 14.5058 51.1613 14.2818 50.6853 13.8338C50.2373 13.3578 50.0133 12.7978 50.0133 12.1538V10.8098C50.0133 10.1658 50.2373 9.6058 50.6853 9.12981C51.1613 8.6538 51.7213 8.4158 52.3653 8.4158Z" stroke="black" stroke-width="8" mask="url(#path-1-outside-1_429_2263)"/>
<path d="M92.4333 15.1778C91.8453 14.8978 91.4533 14.4498 91.2573 13.8338C91.0613 13.2178 91.1173 12.6298 91.4253 12.0698L92.3913 10.1798C92.6993 9.5918 93.1613 9.19981 93.7773 9.0038C94.4213 8.7798 95.0513 8.8078 95.6673 9.0878C98.5513 10.4598 101.505 11.9298 104.529 13.4978C105.117 13.7778 105.495 14.2398 105.663 14.8838C105.859 15.5278 105.803 16.1298 105.495 16.6898L104.403 18.5798C104.095 19.1398 103.619 19.5178 102.975 19.7138C102.359 19.9098 101.757 19.8538 101.169 19.5458C98.2573 18.0338 95.3453 16.5778 92.4333 15.1778ZM122.253 13.1198C122.897 13.2598 123.401 13.6098 123.765 14.1698C124.129 14.7018 124.241 15.2898 124.101 15.9338C122.449 23.2978 119.201 29.0238 114.357 33.1118C109.541 37.1998 102.961 39.7618 94.6173 40.7978C93.9453 40.8818 93.3433 40.7138 92.8113 40.2938C92.2793 39.9018 91.9573 39.3698 91.8453 38.6978L91.5513 36.7658C91.4393 36.1498 91.5793 35.5898 91.9713 35.0858C92.3633 34.5538 92.8813 34.2458 93.5253 34.1618C100.357 33.2098 105.677 31.1798 109.485 28.0718C113.321 24.9638 116.023 20.4418 117.591 14.5058C117.759 13.8618 118.109 13.3718 118.641 13.0358C119.201 12.6718 119.803 12.5598 120.447 12.6998L122.253 13.1198Z" stroke="black" stroke-width="8" mask="url(#path-1-outside-1_429_2263)"/>
<path d="M132.459 20.8058C131.815 20.8058 131.255 20.5818 130.779 20.1338C130.303 19.6578 130.065 19.0978 130.065 18.4538V16.7738C130.065 16.1298 130.303 15.5698 130.779 15.0938C131.255 14.6178 131.815 14.3798 132.459 14.3798H145.395C145.647 14.3798 145.773 14.2538 145.773 14.0018V9.2558C145.773 8.6118 145.997 8.0658 146.445 7.6178C146.921 7.1418 147.481 6.9038 148.125 6.9038H150.519C151.163 6.9038 151.723 7.1418 152.199 7.6178C152.675 8.0658 152.913 8.6118 152.913 9.2558V14.0018C152.913 14.2538 153.025 14.3798 153.249 14.3798H163.539C164.183 14.3798 164.743 14.6178 165.219 15.0938C165.695 15.5698 165.933 16.1298 165.933 16.7738V18.4538C165.933 19.0978 165.695 19.6578 165.219 20.1338C164.743 20.5818 164.183 20.8058 163.539 20.8058H153.249C153.025 20.8058 152.913 20.9318 152.913 21.1838V21.7298C152.913 27.3298 151.695 31.7398 149.259 34.9598C146.851 38.1798 143.071 40.4338 137.919 41.7218C137.247 41.8898 136.617 41.8058 136.029 41.4698C135.469 41.1338 135.077 40.6298 134.853 39.9578L134.307 38.2358C134.111 37.6198 134.167 37.0458 134.475 36.5138C134.783 35.9818 135.245 35.6318 135.861 35.4638C139.473 34.5118 142.021 32.9998 143.505 30.9278C145.017 28.8278 145.773 25.7618 145.773 21.7298V21.1838C145.773 20.9318 145.647 20.8058 145.395 20.8058H132.459Z" stroke="black" stroke-width="8" mask="url(#path-1-outside-1_429_2263)"/>
<path d="M174.879 28.2818C174.235 28.2818 173.675 28.0438 173.199 27.5678C172.723 27.0918 172.485 26.5318 172.485 25.8878V23.8718C172.485 23.2278 172.723 22.6678 173.199 22.1918C173.675 21.7158 174.235 21.4778 174.879 21.4778H205.119C205.763 21.4778 206.323 21.7158 206.799 22.1918C207.275 22.6678 207.513 23.2278 207.513 23.8718V25.8878C207.513 26.5318 207.275 27.0918 206.799 27.5678C206.323 28.0438 205.763 28.2818 205.119 28.2818H174.879Z" stroke="black" stroke-width="8" mask="url(#path-1-outside-1_429_2263)"/>
</svg>
