<svg width="308" height="64" viewBox="0 0 308 64" fill="none" xmlns="http://www.w3.org/2000/svg">
<mask id="path-1-outside-1_281_15053" maskUnits="userSpaceOnUse" x="0" y="0" width="308" height="64" fill="black">
<rect fill="white" width="308" height="64"/>
<path d="M47.958 16.152C48.7433 16.9373 49.694 17.33 50.81 17.33C51.926 17.33 52.8767 16.9373 53.662 16.152C54.4473 15.3667 54.84 14.416 54.84 13.3C54.84 12.184 54.4473 11.2333 53.662 10.448C52.8767 9.66266 51.926 9.27 50.81 9.27C49.694 9.27 48.7433 9.66266 47.958 10.448C47.1727 11.2333 46.78 12.184 46.78 13.3C46.78 14.416 47.1727 15.3667 47.958 16.152ZM50.81 4C53.3727 4 55.5633 4.90933 57.382 6.728C59.2007 8.54667 60.11 10.7373 60.11 13.3C60.11 15.78 59.2627 17.9087 57.568 19.686C55.9147 21.4633 53.8687 22.4347 51.43 22.6C51.0993 22.6 50.934 22.786 50.934 23.158C50.934 23.1993 50.9133 23.282 50.872 23.406C50.872 23.53 50.872 23.6333 50.872 23.716C49.5907 34.628 45.8707 42.9773 39.712 48.764C33.5947 54.5507 24.8113 58.1673 13.362 59.614C12.37 59.738 11.4813 59.49 10.696 58.87C9.91067 58.2913 9.41467 57.5267 9.208 56.576L8.774 54.22C8.60867 53.3107 8.79467 52.484 9.332 51.74C9.91067 50.9547 10.6753 50.5 11.626 50.376C20.8433 49.1773 27.7047 46.408 32.21 42.068C36.7567 37.728 39.5053 31.218 40.456 22.538C40.5387 22.166 40.394 21.98 40.022 21.98H7.534C6.58333 21.98 5.75667 21.6287 5.054 20.926C4.35133 20.2233 4 19.3967 4 18.446V15.966C4 15.0153 4.35133 14.2093 5.054 13.548C5.75667 12.8453 6.58333 12.494 7.534 12.494H41.014C41.3447 12.494 41.5513 12.3287 41.634 11.998C41.9647 9.72467 42.9773 7.82333 44.672 6.294C46.408 4.76467 48.454 4 50.81 4Z"/>
<path d="M70.154 35.372C69.2033 35.372 68.3767 35.0207 67.674 34.318C66.9713 33.6153 66.62 32.7887 66.62 31.838V29.916C66.62 28.9653 66.9713 28.1387 67.674 27.436C68.3767 26.7333 69.2033 26.382 70.154 26.382H112.5C113.492 26.382 114.319 26.7333 114.98 27.436C115.683 28.0973 116.013 28.924 115.972 29.916C115.6 39.0507 112.5 46.098 106.672 51.058C100.844 55.9767 92.04 58.9113 80.26 59.862C79.268 59.9447 78.3793 59.676 77.594 59.056C76.8087 58.436 76.3127 57.63 76.106 56.638L75.734 54.592C75.5687 53.6827 75.7753 52.856 76.354 52.112C76.9327 51.368 77.6973 50.9547 78.648 50.872C86.088 50.252 91.9367 48.7433 96.194 46.346C100.493 43.9073 103.324 40.394 104.688 35.806C104.771 35.5167 104.647 35.372 104.316 35.372H70.154ZM74.556 10.076H108.904C109.855 10.076 110.661 10.4273 111.322 11.13C112.025 11.8327 112.376 12.6593 112.376 13.61V15.594C112.376 16.5447 112.025 17.3713 111.322 18.074C110.661 18.7353 109.855 19.066 108.904 19.066H74.556C73.6053 19.066 72.7787 18.7353 72.076 18.074C71.4147 17.3713 71.084 16.5447 71.084 15.594V13.61C71.084 12.6593 71.4147 11.8327 72.076 11.13C72.7787 10.4273 73.6053 10.076 74.556 10.076Z"/>
<path d="M131.224 20.058C130.356 19.6447 129.777 18.9833 129.488 18.074C129.199 17.1647 129.281 16.2967 129.736 15.47L131.162 12.68C131.617 11.812 132.299 11.2333 133.208 10.944C134.159 10.6133 135.089 10.6547 135.998 11.068C140.255 13.0933 144.616 15.2633 149.08 17.578C149.948 17.9913 150.506 18.6733 150.754 19.624C151.043 20.5747 150.961 21.4633 150.506 22.29L148.894 25.08C148.439 25.9067 147.737 26.4647 146.786 26.754C145.877 27.0433 144.988 26.9607 144.12 26.506C139.821 24.274 135.523 22.1247 131.224 20.058ZM175.244 17.02C176.195 17.2267 176.939 17.7433 177.476 18.57C178.013 19.3553 178.179 20.2233 177.972 21.174C175.533 32.0447 170.739 40.4973 163.588 46.532C156.479 52.5667 146.765 56.3487 134.448 57.878C133.456 58.002 132.567 57.754 131.782 57.134C130.997 56.5553 130.521 55.77 130.356 54.778L129.922 51.926C129.757 51.0167 129.963 50.19 130.542 49.446C131.121 48.6607 131.885 48.206 132.836 48.082C142.921 46.6767 150.775 43.68 156.396 39.092C162.059 34.504 166.047 27.8287 168.362 19.066C168.61 18.1153 169.127 17.392 169.912 16.896C170.739 16.3587 171.627 16.1933 172.578 16.4L175.244 17.02Z"/>
<path d="M192.79 28.366C191.839 28.366 191.013 28.0353 190.31 27.374C189.607 26.6713 189.256 25.8447 189.256 24.894V22.414C189.256 21.4633 189.607 20.6367 190.31 19.934C191.013 19.2313 191.839 18.88 192.79 18.88H211.886C212.258 18.88 212.444 18.694 212.444 18.322V11.316C212.444 10.3653 212.775 9.55933 213.436 8.898C214.139 8.19533 214.965 7.844 215.916 7.844H219.45C220.401 7.844 221.227 8.19533 221.93 8.898C222.633 9.55933 222.984 10.3653 222.984 11.316V18.322C222.984 18.694 223.149 18.88 223.48 18.88H238.67C239.621 18.88 240.447 19.2313 241.15 19.934C241.853 20.6367 242.204 21.4633 242.204 22.414V24.894C242.204 25.8447 241.853 26.6713 241.15 27.374C240.447 28.0353 239.621 28.366 238.67 28.366H223.48C223.149 28.366 222.984 28.552 222.984 28.924V29.73C222.984 37.9967 221.186 44.5067 217.59 49.26C214.035 54.0133 208.455 57.3407 200.85 59.242C199.858 59.49 198.928 59.366 198.06 58.87C197.233 58.374 196.655 57.63 196.324 56.638L195.518 54.096C195.229 53.1867 195.311 52.3393 195.766 51.554C196.221 50.7687 196.903 50.252 197.812 50.004C203.144 48.5987 206.905 46.3667 209.096 43.308C211.328 40.208 212.444 35.682 212.444 29.73V28.924C212.444 28.552 212.258 28.366 211.886 28.366H192.79Z"/>
<path d="M255.41 39.402C254.459 39.402 253.633 39.0507 252.93 38.348C252.227 37.6453 251.876 36.8187 251.876 35.868V32.892C251.876 31.9413 252.227 31.1147 252.93 30.412C253.633 29.7093 254.459 29.358 255.41 29.358H300.05C301.001 29.358 301.827 29.7093 302.53 30.412C303.233 31.1147 303.584 31.9413 303.584 32.892V35.868C303.584 36.8187 303.233 37.6453 302.53 38.348C301.827 39.0507 301.001 39.402 300.05 39.402H255.41Z"/>
</mask>
<path d="M47.958 16.152C48.7433 16.9373 49.694 17.33 50.81 17.33C51.926 17.33 52.8767 16.9373 53.662 16.152C54.4473 15.3667 54.84 14.416 54.84 13.3C54.84 12.184 54.4473 11.2333 53.662 10.448C52.8767 9.66266 51.926 9.27 50.81 9.27C49.694 9.27 48.7433 9.66266 47.958 10.448C47.1727 11.2333 46.78 12.184 46.78 13.3C46.78 14.416 47.1727 15.3667 47.958 16.152ZM50.81 4C53.3727 4 55.5633 4.90933 57.382 6.728C59.2007 8.54667 60.11 10.7373 60.11 13.3C60.11 15.78 59.2627 17.9087 57.568 19.686C55.9147 21.4633 53.8687 22.4347 51.43 22.6C51.0993 22.6 50.934 22.786 50.934 23.158C50.934 23.1993 50.9133 23.282 50.872 23.406C50.872 23.53 50.872 23.6333 50.872 23.716C49.5907 34.628 45.8707 42.9773 39.712 48.764C33.5947 54.5507 24.8113 58.1673 13.362 59.614C12.37 59.738 11.4813 59.49 10.696 58.87C9.91067 58.2913 9.41467 57.5267 9.208 56.576L8.774 54.22C8.60867 53.3107 8.79467 52.484 9.332 51.74C9.91067 50.9547 10.6753 50.5 11.626 50.376C20.8433 49.1773 27.7047 46.408 32.21 42.068C36.7567 37.728 39.5053 31.218 40.456 22.538C40.5387 22.166 40.394 21.98 40.022 21.98H7.534C6.58333 21.98 5.75667 21.6287 5.054 20.926C4.35133 20.2233 4 19.3967 4 18.446V15.966C4 15.0153 4.35133 14.2093 5.054 13.548C5.75667 12.8453 6.58333 12.494 7.534 12.494H41.014C41.3447 12.494 41.5513 12.3287 41.634 11.998C41.9647 9.72467 42.9773 7.82333 44.672 6.294C46.408 4.76467 48.454 4 50.81 4Z" fill="white"/>
<path d="M70.154 35.372C69.2033 35.372 68.3767 35.0207 67.674 34.318C66.9713 33.6153 66.62 32.7887 66.62 31.838V29.916C66.62 28.9653 66.9713 28.1387 67.674 27.436C68.3767 26.7333 69.2033 26.382 70.154 26.382H112.5C113.492 26.382 114.319 26.7333 114.98 27.436C115.683 28.0973 116.013 28.924 115.972 29.916C115.6 39.0507 112.5 46.098 106.672 51.058C100.844 55.9767 92.04 58.9113 80.26 59.862C79.268 59.9447 78.3793 59.676 77.594 59.056C76.8087 58.436 76.3127 57.63 76.106 56.638L75.734 54.592C75.5687 53.6827 75.7753 52.856 76.354 52.112C76.9327 51.368 77.6973 50.9547 78.648 50.872C86.088 50.252 91.9367 48.7433 96.194 46.346C100.493 43.9073 103.324 40.394 104.688 35.806C104.771 35.5167 104.647 35.372 104.316 35.372H70.154ZM74.556 10.076H108.904C109.855 10.076 110.661 10.4273 111.322 11.13C112.025 11.8327 112.376 12.6593 112.376 13.61V15.594C112.376 16.5447 112.025 17.3713 111.322 18.074C110.661 18.7353 109.855 19.066 108.904 19.066H74.556C73.6053 19.066 72.7787 18.7353 72.076 18.074C71.4147 17.3713 71.084 16.5447 71.084 15.594V13.61C71.084 12.6593 71.4147 11.8327 72.076 11.13C72.7787 10.4273 73.6053 10.076 74.556 10.076Z" fill="white"/>
<path d="M131.224 20.058C130.356 19.6447 129.777 18.9833 129.488 18.074C129.199 17.1647 129.281 16.2967 129.736 15.47L131.162 12.68C131.617 11.812 132.299 11.2333 133.208 10.944C134.159 10.6133 135.089 10.6547 135.998 11.068C140.255 13.0933 144.616 15.2633 149.08 17.578C149.948 17.9913 150.506 18.6733 150.754 19.624C151.043 20.5747 150.961 21.4633 150.506 22.29L148.894 25.08C148.439 25.9067 147.737 26.4647 146.786 26.754C145.877 27.0433 144.988 26.9607 144.12 26.506C139.821 24.274 135.523 22.1247 131.224 20.058ZM175.244 17.02C176.195 17.2267 176.939 17.7433 177.476 18.57C178.013 19.3553 178.179 20.2233 177.972 21.174C175.533 32.0447 170.739 40.4973 163.588 46.532C156.479 52.5667 146.765 56.3487 134.448 57.878C133.456 58.002 132.567 57.754 131.782 57.134C130.997 56.5553 130.521 55.77 130.356 54.778L129.922 51.926C129.757 51.0167 129.963 50.19 130.542 49.446C131.121 48.6607 131.885 48.206 132.836 48.082C142.921 46.6767 150.775 43.68 156.396 39.092C162.059 34.504 166.047 27.8287 168.362 19.066C168.61 18.1153 169.127 17.392 169.912 16.896C170.739 16.3587 171.627 16.1933 172.578 16.4L175.244 17.02Z" fill="white"/>
<path d="M192.79 28.366C191.839 28.366 191.013 28.0353 190.31 27.374C189.607 26.6713 189.256 25.8447 189.256 24.894V22.414C189.256 21.4633 189.607 20.6367 190.31 19.934C191.013 19.2313 191.839 18.88 192.79 18.88H211.886C212.258 18.88 212.444 18.694 212.444 18.322V11.316C212.444 10.3653 212.775 9.55933 213.436 8.898C214.139 8.19533 214.965 7.844 215.916 7.844H219.45C220.401 7.844 221.227 8.19533 221.93 8.898C222.633 9.55933 222.984 10.3653 222.984 11.316V18.322C222.984 18.694 223.149 18.88 223.48 18.88H238.67C239.621 18.88 240.447 19.2313 241.15 19.934C241.853 20.6367 242.204 21.4633 242.204 22.414V24.894C242.204 25.8447 241.853 26.6713 241.15 27.374C240.447 28.0353 239.621 28.366 238.67 28.366H223.48C223.149 28.366 222.984 28.552 222.984 28.924V29.73C222.984 37.9967 221.186 44.5067 217.59 49.26C214.035 54.0133 208.455 57.3407 200.85 59.242C199.858 59.49 198.928 59.366 198.06 58.87C197.233 58.374 196.655 57.63 196.324 56.638L195.518 54.096C195.229 53.1867 195.311 52.3393 195.766 51.554C196.221 50.7687 196.903 50.252 197.812 50.004C203.144 48.5987 206.905 46.3667 209.096 43.308C211.328 40.208 212.444 35.682 212.444 29.73V28.924C212.444 28.552 212.258 28.366 211.886 28.366H192.79Z" fill="white"/>
<path d="M255.41 39.402C254.459 39.402 253.633 39.0507 252.93 38.348C252.227 37.6453 251.876 36.8187 251.876 35.868V32.892C251.876 31.9413 252.227 31.1147 252.93 30.412C253.633 29.7093 254.459 29.358 255.41 29.358H300.05C301.001 29.358 301.827 29.7093 302.53 30.412C303.233 31.1147 303.584 31.9413 303.584 32.892V35.868C303.584 36.8187 303.233 37.6453 302.53 38.348C301.827 39.0507 301.001 39.402 300.05 39.402H255.41Z" fill="white"/>
<path d="M47.958 16.152C48.7433 16.9373 49.694 17.33 50.81 17.33C51.926 17.33 52.8767 16.9373 53.662 16.152C54.4473 15.3667 54.84 14.416 54.84 13.3C54.84 12.184 54.4473 11.2333 53.662 10.448C52.8767 9.66266 51.926 9.27 50.81 9.27C49.694 9.27 48.7433 9.66266 47.958 10.448C47.1727 11.2333 46.78 12.184 46.78 13.3C46.78 14.416 47.1727 15.3667 47.958 16.152ZM50.81 4C53.3727 4 55.5633 4.90933 57.382 6.728C59.2007 8.54667 60.11 10.7373 60.11 13.3C60.11 15.78 59.2627 17.9087 57.568 19.686C55.9147 21.4633 53.8687 22.4347 51.43 22.6C51.0993 22.6 50.934 22.786 50.934 23.158C50.934 23.1993 50.9133 23.282 50.872 23.406C50.872 23.53 50.872 23.6333 50.872 23.716C49.5907 34.628 45.8707 42.9773 39.712 48.764C33.5947 54.5507 24.8113 58.1673 13.362 59.614C12.37 59.738 11.4813 59.49 10.696 58.87C9.91067 58.2913 9.41467 57.5267 9.208 56.576L8.774 54.22C8.60867 53.3107 8.79467 52.484 9.332 51.74C9.91067 50.9547 10.6753 50.5 11.626 50.376C20.8433 49.1773 27.7047 46.408 32.21 42.068C36.7567 37.728 39.5053 31.218 40.456 22.538C40.5387 22.166 40.394 21.98 40.022 21.98H7.534C6.58333 21.98 5.75667 21.6287 5.054 20.926C4.35133 20.2233 4 19.3967 4 18.446V15.966C4 15.0153 4.35133 14.2093 5.054 13.548C5.75667 12.8453 6.58333 12.494 7.534 12.494H41.014C41.3447 12.494 41.5513 12.3287 41.634 11.998C41.9647 9.72467 42.9773 7.82333 44.672 6.294C46.408 4.76467 48.454 4 50.81 4Z" stroke="black" stroke-width="8" mask="url(#path-1-outside-1_281_15053)"/>
<path d="M70.154 35.372C69.2033 35.372 68.3767 35.0207 67.674 34.318C66.9713 33.6153 66.62 32.7887 66.62 31.838V29.916C66.62 28.9653 66.9713 28.1387 67.674 27.436C68.3767 26.7333 69.2033 26.382 70.154 26.382H112.5C113.492 26.382 114.319 26.7333 114.98 27.436C115.683 28.0973 116.013 28.924 115.972 29.916C115.6 39.0507 112.5 46.098 106.672 51.058C100.844 55.9767 92.04 58.9113 80.26 59.862C79.268 59.9447 78.3793 59.676 77.594 59.056C76.8087 58.436 76.3127 57.63 76.106 56.638L75.734 54.592C75.5687 53.6827 75.7753 52.856 76.354 52.112C76.9327 51.368 77.6973 50.9547 78.648 50.872C86.088 50.252 91.9367 48.7433 96.194 46.346C100.493 43.9073 103.324 40.394 104.688 35.806C104.771 35.5167 104.647 35.372 104.316 35.372H70.154ZM74.556 10.076H108.904C109.855 10.076 110.661 10.4273 111.322 11.13C112.025 11.8327 112.376 12.6593 112.376 13.61V15.594C112.376 16.5447 112.025 17.3713 111.322 18.074C110.661 18.7353 109.855 19.066 108.904 19.066H74.556C73.6053 19.066 72.7787 18.7353 72.076 18.074C71.4147 17.3713 71.084 16.5447 71.084 15.594V13.61C71.084 12.6593 71.4147 11.8327 72.076 11.13C72.7787 10.4273 73.6053 10.076 74.556 10.076Z" stroke="black" stroke-width="8" mask="url(#path-1-outside-1_281_15053)"/>
<path d="M131.224 20.058C130.356 19.6447 129.777 18.9833 129.488 18.074C129.199 17.1647 129.281 16.2967 129.736 15.47L131.162 12.68C131.617 11.812 132.299 11.2333 133.208 10.944C134.159 10.6133 135.089 10.6547 135.998 11.068C140.255 13.0933 144.616 15.2633 149.08 17.578C149.948 17.9913 150.506 18.6733 150.754 19.624C151.043 20.5747 150.961 21.4633 150.506 22.29L148.894 25.08C148.439 25.9067 147.737 26.4647 146.786 26.754C145.877 27.0433 144.988 26.9607 144.12 26.506C139.821 24.274 135.523 22.1247 131.224 20.058ZM175.244 17.02C176.195 17.2267 176.939 17.7433 177.476 18.57C178.013 19.3553 178.179 20.2233 177.972 21.174C175.533 32.0447 170.739 40.4973 163.588 46.532C156.479 52.5667 146.765 56.3487 134.448 57.878C133.456 58.002 132.567 57.754 131.782 57.134C130.997 56.5553 130.521 55.77 130.356 54.778L129.922 51.926C129.757 51.0167 129.963 50.19 130.542 49.446C131.121 48.6607 131.885 48.206 132.836 48.082C142.921 46.6767 150.775 43.68 156.396 39.092C162.059 34.504 166.047 27.8287 168.362 19.066C168.61 18.1153 169.127 17.392 169.912 16.896C170.739 16.3587 171.627 16.1933 172.578 16.4L175.244 17.02Z" stroke="black" stroke-width="8" mask="url(#path-1-outside-1_281_15053)"/>
<path d="M192.79 28.366C191.839 28.366 191.013 28.0353 190.31 27.374C189.607 26.6713 189.256 25.8447 189.256 24.894V22.414C189.256 21.4633 189.607 20.6367 190.31 19.934C191.013 19.2313 191.839 18.88 192.79 18.88H211.886C212.258 18.88 212.444 18.694 212.444 18.322V11.316C212.444 10.3653 212.775 9.55933 213.436 8.898C214.139 8.19533 214.965 7.844 215.916 7.844H219.45C220.401 7.844 221.227 8.19533 221.93 8.898C222.633 9.55933 222.984 10.3653 222.984 11.316V18.322C222.984 18.694 223.149 18.88 223.48 18.88H238.67C239.621 18.88 240.447 19.2313 241.15 19.934C241.853 20.6367 242.204 21.4633 242.204 22.414V24.894C242.204 25.8447 241.853 26.6713 241.15 27.374C240.447 28.0353 239.621 28.366 238.67 28.366H223.48C223.149 28.366 222.984 28.552 222.984 28.924V29.73C222.984 37.9967 221.186 44.5067 217.59 49.26C214.035 54.0133 208.455 57.3407 200.85 59.242C199.858 59.49 198.928 59.366 198.06 58.87C197.233 58.374 196.655 57.63 196.324 56.638L195.518 54.096C195.229 53.1867 195.311 52.3393 195.766 51.554C196.221 50.7687 196.903 50.252 197.812 50.004C203.144 48.5987 206.905 46.3667 209.096 43.308C211.328 40.208 212.444 35.682 212.444 29.73V28.924C212.444 28.552 212.258 28.366 211.886 28.366H192.79Z" stroke="black" stroke-width="8" mask="url(#path-1-outside-1_281_15053)"/>
<path d="M255.41 39.402C254.459 39.402 253.633 39.0507 252.93 38.348C252.227 37.6453 251.876 36.8187 251.876 35.868V32.892C251.876 31.9413 252.227 31.1147 252.93 30.412C253.633 29.7093 254.459 29.358 255.41 29.358H300.05C301.001 29.358 301.827 29.7093 302.53 30.412C303.233 31.1147 303.584 31.9413 303.584 32.892V35.868C303.584 36.8187 303.233 37.6453 302.53 38.348C301.827 39.0507 301.001 39.402 300.05 39.402H255.41Z" stroke="black" stroke-width="8" mask="url(#path-1-outside-1_281_15053)"/>
</svg>
