<svg width="518" height="64" viewBox="0 0 518 64" fill="none" xmlns="http://www.w3.org/2000/svg">
<mask id="path-1-outside-1_275_14987" maskUnits="userSpaceOnUse" x="0" y="0" width="518" height="64" fill="black">
<rect fill="white" width="518" height="64"/>
<path d="M47.958 16.152C48.7433 16.9373 49.694 17.33 50.81 17.33C51.926 17.33 52.8767 16.9373 53.662 16.152C54.4473 15.3667 54.84 14.416 54.84 13.3C54.84 12.184 54.4473 11.2333 53.662 10.448C52.8767 9.66266 51.926 9.27 50.81 9.27C49.694 9.27 48.7433 9.66266 47.958 10.448C47.1727 11.2333 46.78 12.184 46.78 13.3C46.78 14.416 47.1727 15.3667 47.958 16.152ZM50.81 4C53.3727 4 55.5633 4.90933 57.382 6.728C59.2007 8.54667 60.11 10.7373 60.11 13.3C60.11 15.78 59.2627 17.9087 57.568 19.686C55.9147 21.4633 53.8687 22.4347 51.43 22.6C51.0993 22.6 50.934 22.786 50.934 23.158C50.934 23.1993 50.9133 23.282 50.872 23.406C50.872 23.53 50.872 23.6333 50.872 23.716C49.5907 34.628 45.8707 42.9773 39.712 48.764C33.5947 54.5507 24.8113 58.1673 13.362 59.614C12.37 59.738 11.4813 59.49 10.696 58.87C9.91067 58.2913 9.41467 57.5267 9.208 56.576L8.774 54.22C8.60867 53.3107 8.79467 52.484 9.332 51.74C9.91067 50.9547 10.6753 50.5 11.626 50.376C20.8433 49.1773 27.7047 46.408 32.21 42.068C36.7567 37.728 39.5053 31.218 40.456 22.538C40.5387 22.166 40.394 21.98 40.022 21.98H7.534C6.58333 21.98 5.75667 21.6287 5.054 20.926C4.35133 20.2233 4 19.3967 4 18.446V15.966C4 15.0153 4.35133 14.2093 5.054 13.548C5.75667 12.8453 6.58333 12.494 7.534 12.494H41.014C41.3447 12.494 41.5513 12.3287 41.634 11.998C41.9647 9.72467 42.9773 7.82333 44.672 6.294C46.408 4.76467 48.454 4 50.81 4Z"/>
<path d="M77.346 20.802V47.958C77.346 48.33 77.532 48.516 77.904 48.516H105.556C105.928 48.516 106.114 48.33 106.114 47.958V20.802C106.114 20.43 105.928 20.244 105.556 20.244H77.904C77.532 20.244 77.346 20.43 77.346 20.802ZM70.34 57.506C69.3893 57.506 68.5627 57.1753 67.86 56.514C67.1573 55.8113 66.806 54.9847 66.806 54.034V14.726C66.806 13.7753 67.1573 12.9693 67.86 12.308C68.5627 11.6053 69.3893 11.254 70.34 11.254H113.12C114.071 11.254 114.897 11.6053 115.6 12.308C116.303 12.9693 116.654 13.7753 116.654 14.726V54.034C116.654 54.9847 116.303 55.8113 115.6 56.514C114.897 57.1753 114.071 57.506 113.12 57.506H70.34Z"/>
<path d="M133.394 21.36C132.443 21.36 131.617 21.0087 130.914 20.306C130.211 19.6033 129.86 18.7767 129.86 17.826V15.346C129.86 14.3953 130.211 13.5893 130.914 12.928C131.617 12.2253 132.443 11.874 133.394 11.874H174.624C175.575 11.874 176.401 12.2253 177.104 12.928C177.807 13.5893 178.137 14.3953 178.096 15.346C177.848 28.8207 174.624 39.0713 168.424 46.098C162.265 53.0833 152.841 57.382 140.152 58.994C139.16 59.118 138.23 58.8907 137.362 58.312C136.535 57.7333 136.039 56.948 135.874 55.956L135.44 53.6C135.275 52.6907 135.461 51.864 135.998 51.12C136.535 50.3347 137.279 49.88 138.23 49.756C147.447 48.5573 154.329 45.788 158.876 41.448C163.423 37.108 166.171 30.5773 167.122 21.856C167.122 21.5253 166.977 21.36 166.688 21.36H133.394Z"/>
<path d="M193.348 57.382C192.397 57.382 191.571 57.0307 190.868 56.328C190.165 55.6253 189.814 54.7987 189.814 53.848V52.98C189.814 52.0293 190.165 51.2233 190.868 50.562C191.571 49.8593 192.397 49.508 193.348 49.508H204.446C204.777 49.508 204.942 49.322 204.942 48.95V29.73C204.942 29.358 204.777 29.172 204.446 29.172H194.836C193.885 29.172 193.059 28.8413 192.356 28.18C191.653 27.4773 191.302 26.6507 191.302 25.7V24.832C191.302 23.8813 191.653 23.0547 192.356 22.352C193.059 21.6493 193.885 21.298 194.836 21.298H224.224C225.175 21.298 226.001 21.6493 226.704 22.352C227.407 23.0547 227.758 23.8813 227.758 24.832V25.7C227.758 26.6507 227.407 27.4773 226.704 28.18C226.001 28.8413 225.175 29.172 224.224 29.172H214.676C214.304 29.172 214.118 29.358 214.118 29.73V48.95C214.118 49.322 214.304 49.508 214.676 49.508H225.712C226.663 49.508 227.489 49.8593 228.192 50.562C228.895 51.2233 229.246 52.0293 229.246 52.98V53.848C229.246 54.7987 228.895 55.6253 228.192 56.328C227.489 57.0307 226.663 57.382 225.712 57.382H193.348Z"/>
<path d="M281.884 24.398C281.471 35.5993 279.032 43.8247 274.568 49.074C270.104 54.3233 262.933 57.6507 253.054 59.056C252.062 59.2213 251.153 58.994 250.326 58.374C249.499 57.7953 248.983 57.01 248.776 56.018L248.528 54.84C248.363 53.9307 248.528 53.104 249.024 52.36C249.561 51.5747 250.305 51.0993 251.256 50.934C259.068 49.694 264.565 47.1313 267.748 43.246C270.972 39.3193 272.77 32.892 273.142 23.964C273.183 23.0133 273.535 22.2073 274.196 21.546C274.899 20.8847 275.725 20.5747 276.676 20.616L278.412 20.74C279.363 20.8227 280.189 21.2153 280.892 21.918C281.595 22.6207 281.925 23.4473 281.884 24.398ZM243.63 36.674C242.638 32.5407 241.811 29.2753 241.15 26.878C240.902 25.9687 241.005 25.1007 241.46 24.274C241.956 23.4473 242.679 22.9307 243.63 22.724L244.87 22.414C245.821 22.2073 246.709 22.352 247.536 22.848C248.404 23.344 248.983 24.0673 249.272 25.018C250.388 29.0687 251.277 32.334 251.938 34.814C252.186 35.7233 252.041 36.5913 251.504 37.418C251.008 38.2447 250.285 38.7613 249.334 38.968L247.846 39.34C246.895 39.5467 246.007 39.402 245.18 38.906C244.353 38.3687 243.837 37.6247 243.63 36.674ZM261.362 38.1C260.411 38.3067 259.523 38.162 258.696 37.666C257.869 37.17 257.332 36.4673 257.084 35.558C257.043 35.31 256.154 31.9413 254.418 25.452C254.17 24.5013 254.294 23.6127 254.79 22.786C255.286 21.918 255.989 21.3807 256.898 21.174L258.324 20.864C259.275 20.6573 260.184 20.802 261.052 21.298C261.92 21.794 262.478 22.5173 262.726 23.468C263.883 27.7253 264.772 31.094 265.392 33.574C265.64 34.4833 265.495 35.372 264.958 36.24C264.462 37.0667 263.739 37.5833 262.788 37.79L261.362 38.1Z"/>
<path d="M343.388 21.918C340.867 33.7807 336.217 42.5847 329.438 48.33C322.701 54.034 312.822 57.63 299.802 59.118C298.81 59.242 297.921 58.994 297.136 58.374C296.392 57.7953 295.937 57.01 295.772 56.018L295.338 53.476C295.173 52.5667 295.379 51.7193 295.958 50.934C296.537 50.1487 297.301 49.7147 298.252 49.632C309.247 48.392 317.389 45.6227 322.68 41.324C327.971 36.984 331.691 30.0193 333.84 20.43C334.047 19.4793 334.563 18.7147 335.39 18.136C336.217 17.516 337.105 17.2887 338.056 17.454L340.598 17.888C341.549 18.0533 342.293 18.5493 342.83 19.376C343.409 20.1613 343.595 21.0087 343.388 21.918ZM295.772 32.582C294.821 32.4167 294.077 31.9413 293.54 31.156C293.003 30.3293 292.837 29.4407 293.044 28.49L293.416 26.754C293.623 25.8033 294.139 25.0593 294.966 24.522C295.793 23.9433 296.681 23.7367 297.632 23.902C301.228 24.5633 305.775 25.452 311.272 26.568C312.223 26.7747 312.967 27.2913 313.504 28.118C314.041 28.9033 314.207 29.7713 314 30.722L313.628 32.52C313.421 33.4707 312.905 34.2147 312.078 34.752C311.251 35.248 310.363 35.3927 309.412 35.186C305.113 34.318 300.567 33.45 295.772 32.582ZM314.744 11.626C315.695 11.7913 316.439 12.2873 316.976 13.114C317.513 13.9407 317.679 14.8293 317.472 15.78L317.1 17.702C316.935 18.6527 316.418 19.3967 315.55 19.934C314.723 20.4713 313.835 20.6367 312.884 20.43C307.345 19.314 302.633 18.4253 298.748 17.764C297.839 17.5987 297.095 17.1233 296.516 16.338C295.979 15.5527 295.813 14.6847 296.02 13.734L296.392 11.812C296.557 10.8613 297.053 10.0967 297.88 9.518C298.707 8.93933 299.595 8.73267 300.546 8.898C303.274 9.35267 308.007 10.262 314.744 11.626Z"/>
<path d="M356.966 57.878C356.015 57.878 355.189 57.5267 354.486 56.824C353.783 56.1213 353.432 55.2947 353.432 54.344V53.476C353.432 52.5253 353.783 51.7193 354.486 51.058C355.189 50.3553 356.015 50.004 356.966 50.004H381.27C381.601 50.004 381.766 49.818 381.766 49.446V42.998C381.766 42.626 381.601 42.44 381.27 42.44H359.818C358.867 42.44 358.041 42.1093 357.338 41.448C356.635 40.7453 356.284 39.9187 356.284 38.968V38.286C356.284 37.3353 356.635 36.5087 357.338 35.806C358.041 35.1033 358.867 34.752 359.818 34.752H381.27C381.601 34.752 381.766 34.5867 381.766 34.256V29.048C381.766 28.676 381.601 28.49 381.27 28.49H356.966C356.015 28.49 355.189 28.1593 354.486 27.498C353.783 26.7953 353.432 25.9687 353.432 25.018V24.336C353.432 23.3853 353.783 22.5587 354.486 21.856C355.189 21.1533 356.015 20.802 356.966 20.802H387.656C388.607 20.802 389.433 21.1533 390.136 21.856C390.839 22.5587 391.19 23.3853 391.19 24.336V54.344C391.19 55.2947 390.839 56.1213 390.136 56.824C389.433 57.5267 388.607 57.878 387.656 57.878H356.966Z"/>
<path d="M405.45 28.366C404.499 28.366 403.673 28.0353 402.97 27.374C402.267 26.6713 401.916 25.8447 401.916 24.894V22.414C401.916 21.4633 402.267 20.6367 402.97 19.934C403.673 19.2313 404.499 18.88 405.45 18.88H424.546C424.918 18.88 425.104 18.694 425.104 18.322V11.316C425.104 10.3653 425.435 9.55933 426.096 8.898C426.799 8.19533 427.625 7.844 428.576 7.844H432.11C433.061 7.844 433.887 8.19533 434.59 8.898C435.293 9.55933 435.644 10.3653 435.644 11.316V18.322C435.644 18.694 435.809 18.88 436.14 18.88H451.33C452.281 18.88 453.107 19.2313 453.81 19.934C454.513 20.6367 454.864 21.4633 454.864 22.414V24.894C454.864 25.8447 454.513 26.6713 453.81 27.374C453.107 28.0353 452.281 28.366 451.33 28.366H436.14C435.809 28.366 435.644 28.552 435.644 28.924V29.73C435.644 37.9967 433.846 44.5067 430.25 49.26C426.695 54.0133 421.115 57.3407 413.51 59.242C412.518 59.49 411.588 59.366 410.72 58.87C409.893 58.374 409.315 57.63 408.984 56.638L408.178 54.096C407.889 53.1867 407.971 52.3393 408.426 51.554C408.881 50.7687 409.563 50.252 410.472 50.004C415.804 48.5987 419.565 46.3667 421.756 43.308C423.988 40.208 425.104 35.682 425.104 29.73V28.924C425.104 28.552 424.918 28.366 424.546 28.366H405.45Z"/>
<path d="M486.856 59.18C485.905 59.2213 485.079 58.8907 484.376 58.188C483.715 57.4853 483.384 56.6587 483.384 55.708V12.99C483.384 12.0393 483.715 11.2127 484.376 10.51C485.079 9.80733 485.905 9.456 486.856 9.456H490.204C491.155 9.456 491.961 9.80733 492.622 10.51C493.325 11.2127 493.676 12.0393 493.676 12.99V48.144C493.676 48.4333 493.862 48.5367 494.234 48.454C497.003 47.462 499.153 45.7673 500.682 43.37C502.211 40.9313 503.327 37.4593 504.03 32.954C504.195 32.0033 504.65 31.2387 505.394 30.66C506.138 30.04 506.985 29.792 507.936 29.916L510.478 30.288C511.429 30.412 512.214 30.8667 512.834 31.652C513.454 32.4373 513.702 33.3053 513.578 34.256C512.379 42.564 509.589 48.7227 505.208 52.732C500.868 56.7413 494.751 58.8907 486.856 59.18ZM459.514 57.072L457.84 54.468C457.344 53.6827 457.199 52.8353 457.406 51.926C457.654 51.0167 458.191 50.314 459.018 49.818C460.754 48.7433 462.097 47.6273 463.048 46.47C463.999 45.3127 464.763 43.6593 465.342 41.51C465.921 39.3193 466.293 36.8187 466.458 34.008C466.623 31.1973 466.706 27.2913 466.706 22.29V12.99C466.706 12.0393 467.057 11.2127 467.76 10.51C468.463 9.80733 469.289 9.456 470.24 9.456H473.34C474.291 9.456 475.117 9.80733 475.82 10.51C476.523 11.2127 476.874 12.0393 476.874 12.99V22.29C476.874 30.0193 476.481 36.1573 475.696 40.704C474.952 45.2093 473.712 48.8053 471.976 51.492C470.281 54.1373 467.822 56.4107 464.598 58.312C463.73 58.808 462.8 58.932 461.808 58.684C460.857 58.436 460.093 57.8987 459.514 57.072Z"/>
</mask>
<path d="M47.958 16.152C48.7433 16.9373 49.694 17.33 50.81 17.33C51.926 17.33 52.8767 16.9373 53.662 16.152C54.4473 15.3667 54.84 14.416 54.84 13.3C54.84 12.184 54.4473 11.2333 53.662 10.448C52.8767 9.66266 51.926 9.27 50.81 9.27C49.694 9.27 48.7433 9.66266 47.958 10.448C47.1727 11.2333 46.78 12.184 46.78 13.3C46.78 14.416 47.1727 15.3667 47.958 16.152ZM50.81 4C53.3727 4 55.5633 4.90933 57.382 6.728C59.2007 8.54667 60.11 10.7373 60.11 13.3C60.11 15.78 59.2627 17.9087 57.568 19.686C55.9147 21.4633 53.8687 22.4347 51.43 22.6C51.0993 22.6 50.934 22.786 50.934 23.158C50.934 23.1993 50.9133 23.282 50.872 23.406C50.872 23.53 50.872 23.6333 50.872 23.716C49.5907 34.628 45.8707 42.9773 39.712 48.764C33.5947 54.5507 24.8113 58.1673 13.362 59.614C12.37 59.738 11.4813 59.49 10.696 58.87C9.91067 58.2913 9.41467 57.5267 9.208 56.576L8.774 54.22C8.60867 53.3107 8.79467 52.484 9.332 51.74C9.91067 50.9547 10.6753 50.5 11.626 50.376C20.8433 49.1773 27.7047 46.408 32.21 42.068C36.7567 37.728 39.5053 31.218 40.456 22.538C40.5387 22.166 40.394 21.98 40.022 21.98H7.534C6.58333 21.98 5.75667 21.6287 5.054 20.926C4.35133 20.2233 4 19.3967 4 18.446V15.966C4 15.0153 4.35133 14.2093 5.054 13.548C5.75667 12.8453 6.58333 12.494 7.534 12.494H41.014C41.3447 12.494 41.5513 12.3287 41.634 11.998C41.9647 9.72467 42.9773 7.82333 44.672 6.294C46.408 4.76467 48.454 4 50.81 4Z" fill="white"/>
<path d="M77.346 20.802V47.958C77.346 48.33 77.532 48.516 77.904 48.516H105.556C105.928 48.516 106.114 48.33 106.114 47.958V20.802C106.114 20.43 105.928 20.244 105.556 20.244H77.904C77.532 20.244 77.346 20.43 77.346 20.802ZM70.34 57.506C69.3893 57.506 68.5627 57.1753 67.86 56.514C67.1573 55.8113 66.806 54.9847 66.806 54.034V14.726C66.806 13.7753 67.1573 12.9693 67.86 12.308C68.5627 11.6053 69.3893 11.254 70.34 11.254H113.12C114.071 11.254 114.897 11.6053 115.6 12.308C116.303 12.9693 116.654 13.7753 116.654 14.726V54.034C116.654 54.9847 116.303 55.8113 115.6 56.514C114.897 57.1753 114.071 57.506 113.12 57.506H70.34Z" fill="white"/>
<path d="M133.394 21.36C132.443 21.36 131.617 21.0087 130.914 20.306C130.211 19.6033 129.86 18.7767 129.86 17.826V15.346C129.86 14.3953 130.211 13.5893 130.914 12.928C131.617 12.2253 132.443 11.874 133.394 11.874H174.624C175.575 11.874 176.401 12.2253 177.104 12.928C177.807 13.5893 178.137 14.3953 178.096 15.346C177.848 28.8207 174.624 39.0713 168.424 46.098C162.265 53.0833 152.841 57.382 140.152 58.994C139.16 59.118 138.23 58.8907 137.362 58.312C136.535 57.7333 136.039 56.948 135.874 55.956L135.44 53.6C135.275 52.6907 135.461 51.864 135.998 51.12C136.535 50.3347 137.279 49.88 138.23 49.756C147.447 48.5573 154.329 45.788 158.876 41.448C163.423 37.108 166.171 30.5773 167.122 21.856C167.122 21.5253 166.977 21.36 166.688 21.36H133.394Z" fill="white"/>
<path d="M193.348 57.382C192.397 57.382 191.571 57.0307 190.868 56.328C190.165 55.6253 189.814 54.7987 189.814 53.848V52.98C189.814 52.0293 190.165 51.2233 190.868 50.562C191.571 49.8593 192.397 49.508 193.348 49.508H204.446C204.777 49.508 204.942 49.322 204.942 48.95V29.73C204.942 29.358 204.777 29.172 204.446 29.172H194.836C193.885 29.172 193.059 28.8413 192.356 28.18C191.653 27.4773 191.302 26.6507 191.302 25.7V24.832C191.302 23.8813 191.653 23.0547 192.356 22.352C193.059 21.6493 193.885 21.298 194.836 21.298H224.224C225.175 21.298 226.001 21.6493 226.704 22.352C227.407 23.0547 227.758 23.8813 227.758 24.832V25.7C227.758 26.6507 227.407 27.4773 226.704 28.18C226.001 28.8413 225.175 29.172 224.224 29.172H214.676C214.304 29.172 214.118 29.358 214.118 29.73V48.95C214.118 49.322 214.304 49.508 214.676 49.508H225.712C226.663 49.508 227.489 49.8593 228.192 50.562C228.895 51.2233 229.246 52.0293 229.246 52.98V53.848C229.246 54.7987 228.895 55.6253 228.192 56.328C227.489 57.0307 226.663 57.382 225.712 57.382H193.348Z" fill="white"/>
<path d="M281.884 24.398C281.471 35.5993 279.032 43.8247 274.568 49.074C270.104 54.3233 262.933 57.6507 253.054 59.056C252.062 59.2213 251.153 58.994 250.326 58.374C249.499 57.7953 248.983 57.01 248.776 56.018L248.528 54.84C248.363 53.9307 248.528 53.104 249.024 52.36C249.561 51.5747 250.305 51.0993 251.256 50.934C259.068 49.694 264.565 47.1313 267.748 43.246C270.972 39.3193 272.77 32.892 273.142 23.964C273.183 23.0133 273.535 22.2073 274.196 21.546C274.899 20.8847 275.725 20.5747 276.676 20.616L278.412 20.74C279.363 20.8227 280.189 21.2153 280.892 21.918C281.595 22.6207 281.925 23.4473 281.884 24.398ZM243.63 36.674C242.638 32.5407 241.811 29.2753 241.15 26.878C240.902 25.9687 241.005 25.1007 241.46 24.274C241.956 23.4473 242.679 22.9307 243.63 22.724L244.87 22.414C245.821 22.2073 246.709 22.352 247.536 22.848C248.404 23.344 248.983 24.0673 249.272 25.018C250.388 29.0687 251.277 32.334 251.938 34.814C252.186 35.7233 252.041 36.5913 251.504 37.418C251.008 38.2447 250.285 38.7613 249.334 38.968L247.846 39.34C246.895 39.5467 246.007 39.402 245.18 38.906C244.353 38.3687 243.837 37.6247 243.63 36.674ZM261.362 38.1C260.411 38.3067 259.523 38.162 258.696 37.666C257.869 37.17 257.332 36.4673 257.084 35.558C257.043 35.31 256.154 31.9413 254.418 25.452C254.17 24.5013 254.294 23.6127 254.79 22.786C255.286 21.918 255.989 21.3807 256.898 21.174L258.324 20.864C259.275 20.6573 260.184 20.802 261.052 21.298C261.92 21.794 262.478 22.5173 262.726 23.468C263.883 27.7253 264.772 31.094 265.392 33.574C265.64 34.4833 265.495 35.372 264.958 36.24C264.462 37.0667 263.739 37.5833 262.788 37.79L261.362 38.1Z" fill="white"/>
<path d="M343.388 21.918C340.867 33.7807 336.217 42.5847 329.438 48.33C322.701 54.034 312.822 57.63 299.802 59.118C298.81 59.242 297.921 58.994 297.136 58.374C296.392 57.7953 295.937 57.01 295.772 56.018L295.338 53.476C295.173 52.5667 295.379 51.7193 295.958 50.934C296.537 50.1487 297.301 49.7147 298.252 49.632C309.247 48.392 317.389 45.6227 322.68 41.324C327.971 36.984 331.691 30.0193 333.84 20.43C334.047 19.4793 334.563 18.7147 335.39 18.136C336.217 17.516 337.105 17.2887 338.056 17.454L340.598 17.888C341.549 18.0533 342.293 18.5493 342.83 19.376C343.409 20.1613 343.595 21.0087 343.388 21.918ZM295.772 32.582C294.821 32.4167 294.077 31.9413 293.54 31.156C293.003 30.3293 292.837 29.4407 293.044 28.49L293.416 26.754C293.623 25.8033 294.139 25.0593 294.966 24.522C295.793 23.9433 296.681 23.7367 297.632 23.902C301.228 24.5633 305.775 25.452 311.272 26.568C312.223 26.7747 312.967 27.2913 313.504 28.118C314.041 28.9033 314.207 29.7713 314 30.722L313.628 32.52C313.421 33.4707 312.905 34.2147 312.078 34.752C311.251 35.248 310.363 35.3927 309.412 35.186C305.113 34.318 300.567 33.45 295.772 32.582ZM314.744 11.626C315.695 11.7913 316.439 12.2873 316.976 13.114C317.513 13.9407 317.679 14.8293 317.472 15.78L317.1 17.702C316.935 18.6527 316.418 19.3967 315.55 19.934C314.723 20.4713 313.835 20.6367 312.884 20.43C307.345 19.314 302.633 18.4253 298.748 17.764C297.839 17.5987 297.095 17.1233 296.516 16.338C295.979 15.5527 295.813 14.6847 296.02 13.734L296.392 11.812C296.557 10.8613 297.053 10.0967 297.88 9.518C298.707 8.93933 299.595 8.73267 300.546 8.898C303.274 9.35267 308.007 10.262 314.744 11.626Z" fill="white"/>
<path d="M356.966 57.878C356.015 57.878 355.189 57.5267 354.486 56.824C353.783 56.1213 353.432 55.2947 353.432 54.344V53.476C353.432 52.5253 353.783 51.7193 354.486 51.058C355.189 50.3553 356.015 50.004 356.966 50.004H381.27C381.601 50.004 381.766 49.818 381.766 49.446V42.998C381.766 42.626 381.601 42.44 381.27 42.44H359.818C358.867 42.44 358.041 42.1093 357.338 41.448C356.635 40.7453 356.284 39.9187 356.284 38.968V38.286C356.284 37.3353 356.635 36.5087 357.338 35.806C358.041 35.1033 358.867 34.752 359.818 34.752H381.27C381.601 34.752 381.766 34.5867 381.766 34.256V29.048C381.766 28.676 381.601 28.49 381.27 28.49H356.966C356.015 28.49 355.189 28.1593 354.486 27.498C353.783 26.7953 353.432 25.9687 353.432 25.018V24.336C353.432 23.3853 353.783 22.5587 354.486 21.856C355.189 21.1533 356.015 20.802 356.966 20.802H387.656C388.607 20.802 389.433 21.1533 390.136 21.856C390.839 22.5587 391.19 23.3853 391.19 24.336V54.344C391.19 55.2947 390.839 56.1213 390.136 56.824C389.433 57.5267 388.607 57.878 387.656 57.878H356.966Z" fill="white"/>
<path d="M405.45 28.366C404.499 28.366 403.673 28.0353 402.97 27.374C402.267 26.6713 401.916 25.8447 401.916 24.894V22.414C401.916 21.4633 402.267 20.6367 402.97 19.934C403.673 19.2313 404.499 18.88 405.45 18.88H424.546C424.918 18.88 425.104 18.694 425.104 18.322V11.316C425.104 10.3653 425.435 9.55933 426.096 8.898C426.799 8.19533 427.625 7.844 428.576 7.844H432.11C433.061 7.844 433.887 8.19533 434.59 8.898C435.293 9.55933 435.644 10.3653 435.644 11.316V18.322C435.644 18.694 435.809 18.88 436.14 18.88H451.33C452.281 18.88 453.107 19.2313 453.81 19.934C454.513 20.6367 454.864 21.4633 454.864 22.414V24.894C454.864 25.8447 454.513 26.6713 453.81 27.374C453.107 28.0353 452.281 28.366 451.33 28.366H436.14C435.809 28.366 435.644 28.552 435.644 28.924V29.73C435.644 37.9967 433.846 44.5067 430.25 49.26C426.695 54.0133 421.115 57.3407 413.51 59.242C412.518 59.49 411.588 59.366 410.72 58.87C409.893 58.374 409.315 57.63 408.984 56.638L408.178 54.096C407.889 53.1867 407.971 52.3393 408.426 51.554C408.881 50.7687 409.563 50.252 410.472 50.004C415.804 48.5987 419.565 46.3667 421.756 43.308C423.988 40.208 425.104 35.682 425.104 29.73V28.924C425.104 28.552 424.918 28.366 424.546 28.366H405.45Z" fill="white"/>
<path d="M486.856 59.18C485.905 59.2213 485.079 58.8907 484.376 58.188C483.715 57.4853 483.384 56.6587 483.384 55.708V12.99C483.384 12.0393 483.715 11.2127 484.376 10.51C485.079 9.80733 485.905 9.456 486.856 9.456H490.204C491.155 9.456 491.961 9.80733 492.622 10.51C493.325 11.2127 493.676 12.0393 493.676 12.99V48.144C493.676 48.4333 493.862 48.5367 494.234 48.454C497.003 47.462 499.153 45.7673 500.682 43.37C502.211 40.9313 503.327 37.4593 504.03 32.954C504.195 32.0033 504.65 31.2387 505.394 30.66C506.138 30.04 506.985 29.792 507.936 29.916L510.478 30.288C511.429 30.412 512.214 30.8667 512.834 31.652C513.454 32.4373 513.702 33.3053 513.578 34.256C512.379 42.564 509.589 48.7227 505.208 52.732C500.868 56.7413 494.751 58.8907 486.856 59.18ZM459.514 57.072L457.84 54.468C457.344 53.6827 457.199 52.8353 457.406 51.926C457.654 51.0167 458.191 50.314 459.018 49.818C460.754 48.7433 462.097 47.6273 463.048 46.47C463.999 45.3127 464.763 43.6593 465.342 41.51C465.921 39.3193 466.293 36.8187 466.458 34.008C466.623 31.1973 466.706 27.2913 466.706 22.29V12.99C466.706 12.0393 467.057 11.2127 467.76 10.51C468.463 9.80733 469.289 9.456 470.24 9.456H473.34C474.291 9.456 475.117 9.80733 475.82 10.51C476.523 11.2127 476.874 12.0393 476.874 12.99V22.29C476.874 30.0193 476.481 36.1573 475.696 40.704C474.952 45.2093 473.712 48.8053 471.976 51.492C470.281 54.1373 467.822 56.4107 464.598 58.312C463.73 58.808 462.8 58.932 461.808 58.684C460.857 58.436 460.093 57.8987 459.514 57.072Z" fill="white"/>
<path d="M47.958 16.152C48.7433 16.9373 49.694 17.33 50.81 17.33C51.926 17.33 52.8767 16.9373 53.662 16.152C54.4473 15.3667 54.84 14.416 54.84 13.3C54.84 12.184 54.4473 11.2333 53.662 10.448C52.8767 9.66266 51.926 9.27 50.81 9.27C49.694 9.27 48.7433 9.66266 47.958 10.448C47.1727 11.2333 46.78 12.184 46.78 13.3C46.78 14.416 47.1727 15.3667 47.958 16.152ZM50.81 4C53.3727 4 55.5633 4.90933 57.382 6.728C59.2007 8.54667 60.11 10.7373 60.11 13.3C60.11 15.78 59.2627 17.9087 57.568 19.686C55.9147 21.4633 53.8687 22.4347 51.43 22.6C51.0993 22.6 50.934 22.786 50.934 23.158C50.934 23.1993 50.9133 23.282 50.872 23.406C50.872 23.53 50.872 23.6333 50.872 23.716C49.5907 34.628 45.8707 42.9773 39.712 48.764C33.5947 54.5507 24.8113 58.1673 13.362 59.614C12.37 59.738 11.4813 59.49 10.696 58.87C9.91067 58.2913 9.41467 57.5267 9.208 56.576L8.774 54.22C8.60867 53.3107 8.79467 52.484 9.332 51.74C9.91067 50.9547 10.6753 50.5 11.626 50.376C20.8433 49.1773 27.7047 46.408 32.21 42.068C36.7567 37.728 39.5053 31.218 40.456 22.538C40.5387 22.166 40.394 21.98 40.022 21.98H7.534C6.58333 21.98 5.75667 21.6287 5.054 20.926C4.35133 20.2233 4 19.3967 4 18.446V15.966C4 15.0153 4.35133 14.2093 5.054 13.548C5.75667 12.8453 6.58333 12.494 7.534 12.494H41.014C41.3447 12.494 41.5513 12.3287 41.634 11.998C41.9647 9.72467 42.9773 7.82333 44.672 6.294C46.408 4.76467 48.454 4 50.81 4Z" stroke="black" stroke-width="8" mask="url(#path-1-outside-1_275_14987)"/>
<path d="M77.346 20.802V47.958C77.346 48.33 77.532 48.516 77.904 48.516H105.556C105.928 48.516 106.114 48.33 106.114 47.958V20.802C106.114 20.43 105.928 20.244 105.556 20.244H77.904C77.532 20.244 77.346 20.43 77.346 20.802ZM70.34 57.506C69.3893 57.506 68.5627 57.1753 67.86 56.514C67.1573 55.8113 66.806 54.9847 66.806 54.034V14.726C66.806 13.7753 67.1573 12.9693 67.86 12.308C68.5627 11.6053 69.3893 11.254 70.34 11.254H113.12C114.071 11.254 114.897 11.6053 115.6 12.308C116.303 12.9693 116.654 13.7753 116.654 14.726V54.034C116.654 54.9847 116.303 55.8113 115.6 56.514C114.897 57.1753 114.071 57.506 113.12 57.506H70.34Z" stroke="black" stroke-width="8" mask="url(#path-1-outside-1_275_14987)"/>
<path d="M133.394 21.36C132.443 21.36 131.617 21.0087 130.914 20.306C130.211 19.6033 129.86 18.7767 129.86 17.826V15.346C129.86 14.3953 130.211 13.5893 130.914 12.928C131.617 12.2253 132.443 11.874 133.394 11.874H174.624C175.575 11.874 176.401 12.2253 177.104 12.928C177.807 13.5893 178.137 14.3953 178.096 15.346C177.848 28.8207 174.624 39.0713 168.424 46.098C162.265 53.0833 152.841 57.382 140.152 58.994C139.16 59.118 138.23 58.8907 137.362 58.312C136.535 57.7333 136.039 56.948 135.874 55.956L135.44 53.6C135.275 52.6907 135.461 51.864 135.998 51.12C136.535 50.3347 137.279 49.88 138.23 49.756C147.447 48.5573 154.329 45.788 158.876 41.448C163.423 37.108 166.171 30.5773 167.122 21.856C167.122 21.5253 166.977 21.36 166.688 21.36H133.394Z" stroke="black" stroke-width="8" mask="url(#path-1-outside-1_275_14987)"/>
<path d="M193.348 57.382C192.397 57.382 191.571 57.0307 190.868 56.328C190.165 55.6253 189.814 54.7987 189.814 53.848V52.98C189.814 52.0293 190.165 51.2233 190.868 50.562C191.571 49.8593 192.397 49.508 193.348 49.508H204.446C204.777 49.508 204.942 49.322 204.942 48.95V29.73C204.942 29.358 204.777 29.172 204.446 29.172H194.836C193.885 29.172 193.059 28.8413 192.356 28.18C191.653 27.4773 191.302 26.6507 191.302 25.7V24.832C191.302 23.8813 191.653 23.0547 192.356 22.352C193.059 21.6493 193.885 21.298 194.836 21.298H224.224C225.175 21.298 226.001 21.6493 226.704 22.352C227.407 23.0547 227.758 23.8813 227.758 24.832V25.7C227.758 26.6507 227.407 27.4773 226.704 28.18C226.001 28.8413 225.175 29.172 224.224 29.172H214.676C214.304 29.172 214.118 29.358 214.118 29.73V48.95C214.118 49.322 214.304 49.508 214.676 49.508H225.712C226.663 49.508 227.489 49.8593 228.192 50.562C228.895 51.2233 229.246 52.0293 229.246 52.98V53.848C229.246 54.7987 228.895 55.6253 228.192 56.328C227.489 57.0307 226.663 57.382 225.712 57.382H193.348Z" stroke="black" stroke-width="8" mask="url(#path-1-outside-1_275_14987)"/>
<path d="M281.884 24.398C281.471 35.5993 279.032 43.8247 274.568 49.074C270.104 54.3233 262.933 57.6507 253.054 59.056C252.062 59.2213 251.153 58.994 250.326 58.374C249.499 57.7953 248.983 57.01 248.776 56.018L248.528 54.84C248.363 53.9307 248.528 53.104 249.024 52.36C249.561 51.5747 250.305 51.0993 251.256 50.934C259.068 49.694 264.565 47.1313 267.748 43.246C270.972 39.3193 272.77 32.892 273.142 23.964C273.183 23.0133 273.535 22.2073 274.196 21.546C274.899 20.8847 275.725 20.5747 276.676 20.616L278.412 20.74C279.363 20.8227 280.189 21.2153 280.892 21.918C281.595 22.6207 281.925 23.4473 281.884 24.398ZM243.63 36.674C242.638 32.5407 241.811 29.2753 241.15 26.878C240.902 25.9687 241.005 25.1007 241.46 24.274C241.956 23.4473 242.679 22.9307 243.63 22.724L244.87 22.414C245.821 22.2073 246.709 22.352 247.536 22.848C248.404 23.344 248.983 24.0673 249.272 25.018C250.388 29.0687 251.277 32.334 251.938 34.814C252.186 35.7233 252.041 36.5913 251.504 37.418C251.008 38.2447 250.285 38.7613 249.334 38.968L247.846 39.34C246.895 39.5467 246.007 39.402 245.18 38.906C244.353 38.3687 243.837 37.6247 243.63 36.674ZM261.362 38.1C260.411 38.3067 259.523 38.162 258.696 37.666C257.869 37.17 257.332 36.4673 257.084 35.558C257.043 35.31 256.154 31.9413 254.418 25.452C254.17 24.5013 254.294 23.6127 254.79 22.786C255.286 21.918 255.989 21.3807 256.898 21.174L258.324 20.864C259.275 20.6573 260.184 20.802 261.052 21.298C261.92 21.794 262.478 22.5173 262.726 23.468C263.883 27.7253 264.772 31.094 265.392 33.574C265.64 34.4833 265.495 35.372 264.958 36.24C264.462 37.0667 263.739 37.5833 262.788 37.79L261.362 38.1Z" stroke="black" stroke-width="8" mask="url(#path-1-outside-1_275_14987)"/>
<path d="M343.388 21.918C340.867 33.7807 336.217 42.5847 329.438 48.33C322.701 54.034 312.822 57.63 299.802 59.118C298.81 59.242 297.921 58.994 297.136 58.374C296.392 57.7953 295.937 57.01 295.772 56.018L295.338 53.476C295.173 52.5667 295.379 51.7193 295.958 50.934C296.537 50.1487 297.301 49.7147 298.252 49.632C309.247 48.392 317.389 45.6227 322.68 41.324C327.971 36.984 331.691 30.0193 333.84 20.43C334.047 19.4793 334.563 18.7147 335.39 18.136C336.217 17.516 337.105 17.2887 338.056 17.454L340.598 17.888C341.549 18.0533 342.293 18.5493 342.83 19.376C343.409 20.1613 343.595 21.0087 343.388 21.918ZM295.772 32.582C294.821 32.4167 294.077 31.9413 293.54 31.156C293.003 30.3293 292.837 29.4407 293.044 28.49L293.416 26.754C293.623 25.8033 294.139 25.0593 294.966 24.522C295.793 23.9433 296.681 23.7367 297.632 23.902C301.228 24.5633 305.775 25.452 311.272 26.568C312.223 26.7747 312.967 27.2913 313.504 28.118C314.041 28.9033 314.207 29.7713 314 30.722L313.628 32.52C313.421 33.4707 312.905 34.2147 312.078 34.752C311.251 35.248 310.363 35.3927 309.412 35.186C305.113 34.318 300.567 33.45 295.772 32.582ZM314.744 11.626C315.695 11.7913 316.439 12.2873 316.976 13.114C317.513 13.9407 317.679 14.8293 317.472 15.78L317.1 17.702C316.935 18.6527 316.418 19.3967 315.55 19.934C314.723 20.4713 313.835 20.6367 312.884 20.43C307.345 19.314 302.633 18.4253 298.748 17.764C297.839 17.5987 297.095 17.1233 296.516 16.338C295.979 15.5527 295.813 14.6847 296.02 13.734L296.392 11.812C296.557 10.8613 297.053 10.0967 297.88 9.518C298.707 8.93933 299.595 8.73267 300.546 8.898C303.274 9.35267 308.007 10.262 314.744 11.626Z" stroke="black" stroke-width="8" mask="url(#path-1-outside-1_275_14987)"/>
<path d="M356.966 57.878C356.015 57.878 355.189 57.5267 354.486 56.824C353.783 56.1213 353.432 55.2947 353.432 54.344V53.476C353.432 52.5253 353.783 51.7193 354.486 51.058C355.189 50.3553 356.015 50.004 356.966 50.004H381.27C381.601 50.004 381.766 49.818 381.766 49.446V42.998C381.766 42.626 381.601 42.44 381.27 42.44H359.818C358.867 42.44 358.041 42.1093 357.338 41.448C356.635 40.7453 356.284 39.9187 356.284 38.968V38.286C356.284 37.3353 356.635 36.5087 357.338 35.806C358.041 35.1033 358.867 34.752 359.818 34.752H381.27C381.601 34.752 381.766 34.5867 381.766 34.256V29.048C381.766 28.676 381.601 28.49 381.27 28.49H356.966C356.015 28.49 355.189 28.1593 354.486 27.498C353.783 26.7953 353.432 25.9687 353.432 25.018V24.336C353.432 23.3853 353.783 22.5587 354.486 21.856C355.189 21.1533 356.015 20.802 356.966 20.802H387.656C388.607 20.802 389.433 21.1533 390.136 21.856C390.839 22.5587 391.19 23.3853 391.19 24.336V54.344C391.19 55.2947 390.839 56.1213 390.136 56.824C389.433 57.5267 388.607 57.878 387.656 57.878H356.966Z" stroke="black" stroke-width="8" mask="url(#path-1-outside-1_275_14987)"/>
<path d="M405.45 28.366C404.499 28.366 403.673 28.0353 402.97 27.374C402.267 26.6713 401.916 25.8447 401.916 24.894V22.414C401.916 21.4633 402.267 20.6367 402.97 19.934C403.673 19.2313 404.499 18.88 405.45 18.88H424.546C424.918 18.88 425.104 18.694 425.104 18.322V11.316C425.104 10.3653 425.435 9.55933 426.096 8.898C426.799 8.19533 427.625 7.844 428.576 7.844H432.11C433.061 7.844 433.887 8.19533 434.59 8.898C435.293 9.55933 435.644 10.3653 435.644 11.316V18.322C435.644 18.694 435.809 18.88 436.14 18.88H451.33C452.281 18.88 453.107 19.2313 453.81 19.934C454.513 20.6367 454.864 21.4633 454.864 22.414V24.894C454.864 25.8447 454.513 26.6713 453.81 27.374C453.107 28.0353 452.281 28.366 451.33 28.366H436.14C435.809 28.366 435.644 28.552 435.644 28.924V29.73C435.644 37.9967 433.846 44.5067 430.25 49.26C426.695 54.0133 421.115 57.3407 413.51 59.242C412.518 59.49 411.588 59.366 410.72 58.87C409.893 58.374 409.315 57.63 408.984 56.638L408.178 54.096C407.889 53.1867 407.971 52.3393 408.426 51.554C408.881 50.7687 409.563 50.252 410.472 50.004C415.804 48.5987 419.565 46.3667 421.756 43.308C423.988 40.208 425.104 35.682 425.104 29.73V28.924C425.104 28.552 424.918 28.366 424.546 28.366H405.45Z" stroke="black" stroke-width="8" mask="url(#path-1-outside-1_275_14987)"/>
<path d="M486.856 59.18C485.905 59.2213 485.079 58.8907 484.376 58.188C483.715 57.4853 483.384 56.6587 483.384 55.708V12.99C483.384 12.0393 483.715 11.2127 484.376 10.51C485.079 9.80733 485.905 9.456 486.856 9.456H490.204C491.155 9.456 491.961 9.80733 492.622 10.51C493.325 11.2127 493.676 12.0393 493.676 12.99V48.144C493.676 48.4333 493.862 48.5367 494.234 48.454C497.003 47.462 499.153 45.7673 500.682 43.37C502.211 40.9313 503.327 37.4593 504.03 32.954C504.195 32.0033 504.65 31.2387 505.394 30.66C506.138 30.04 506.985 29.792 507.936 29.916L510.478 30.288C511.429 30.412 512.214 30.8667 512.834 31.652C513.454 32.4373 513.702 33.3053 513.578 34.256C512.379 42.564 509.589 48.7227 505.208 52.732C500.868 56.7413 494.751 58.8907 486.856 59.18ZM459.514 57.072L457.84 54.468C457.344 53.6827 457.199 52.8353 457.406 51.926C457.654 51.0167 458.191 50.314 459.018 49.818C460.754 48.7433 462.097 47.6273 463.048 46.47C463.999 45.3127 464.763 43.6593 465.342 41.51C465.921 39.3193 466.293 36.8187 466.458 34.008C466.623 31.1973 466.706 27.2913 466.706 22.29V12.99C466.706 12.0393 467.057 11.2127 467.76 10.51C468.463 9.80733 469.289 9.456 470.24 9.456H473.34C474.291 9.456 475.117 9.80733 475.82 10.51C476.523 11.2127 476.874 12.0393 476.874 12.99V22.29C476.874 30.0193 476.481 36.1573 475.696 40.704C474.952 45.2093 473.712 48.8053 471.976 51.492C470.281 54.1373 467.822 56.4107 464.598 58.312C463.73 58.808 462.8 58.932 461.808 58.684C460.857 58.436 460.093 57.8987 459.514 57.072Z" stroke="black" stroke-width="8" mask="url(#path-1-outside-1_275_14987)"/>
</svg>
