<svg width="354" height="46" viewBox="0 0 354 46" fill="none" xmlns="http://www.w3.org/2000/svg">
<mask id="path-1-outside-1_429_2266" maskUnits="userSpaceOnUse" x="0.639648" y="0.299805" width="354" height="46" fill="black">
<rect fill="white" x="0.639648" y="0.299805" width="354" height="46"/>
<path d="M34.4177 12.5318C34.9497 13.0638 35.5936 13.3298 36.3496 13.3298C37.1056 13.3298 37.7497 13.0638 38.2817 12.5318C38.8137 11.9998 39.0797 11.3558 39.0797 10.5998C39.0797 9.8438 38.8137 9.1998 38.2817 8.6678C37.7497 8.1358 37.1056 7.8698 36.3496 7.8698C35.5936 7.8698 34.9497 8.1358 34.4177 8.6678C33.8857 9.1998 33.6196 9.8438 33.6196 10.5998C33.6196 11.3558 33.8857 11.9998 34.4177 12.5318ZM36.3496 4.2998C38.0857 4.2998 39.5697 4.9158 40.8017 6.1478C42.0337 7.3798 42.6497 8.8638 42.6497 10.5998C42.6497 12.2798 42.0757 13.7218 40.9277 14.9258C39.8076 16.1298 38.4216 16.7878 36.7696 16.8998C36.5457 16.8998 36.4337 17.0258 36.4337 17.2778C36.4337 17.3058 36.4197 17.3618 36.3916 17.4458C36.3916 17.5298 36.3916 17.5998 36.3916 17.6558C35.5237 25.0478 33.0037 30.7038 28.8316 34.6238C24.6876 38.5438 18.7376 40.9938 10.9816 41.9738C10.3096 42.0578 9.70765 41.8898 9.17565 41.4698C8.64365 41.0778 8.30765 40.5598 8.16765 39.9158L7.87365 38.3198C7.76165 37.7038 7.88765 37.1438 8.25165 36.6398C8.64365 36.1078 9.16165 35.7998 9.80565 35.7158C16.0496 34.9038 20.6976 33.0278 23.7496 30.0878C26.8296 27.1478 28.6916 22.7378 29.3356 16.8578C29.3916 16.6058 29.2936 16.4798 29.0416 16.4798H7.03365C6.38965 16.4798 5.82965 16.2418 5.35365 15.7658C4.87765 15.2898 4.63965 14.7298 4.63965 14.0858V12.4058C4.63965 11.7618 4.87765 11.2158 5.35365 10.7678C5.82965 10.2918 6.38965 10.0538 7.03365 10.0538H29.7136C29.9377 10.0538 30.0777 9.9418 30.1336 9.7178C30.3577 8.1778 31.0437 6.8898 32.1917 5.8538C33.3677 4.8178 34.7536 4.2998 36.3496 4.2998Z"/>
<path d="M54.3256 15.6818V34.0778C54.3256 34.3298 54.4516 34.4558 54.7036 34.4558H73.4357C73.6877 34.4558 73.8137 34.3298 73.8137 34.0778V15.6818C73.8137 15.4298 73.6877 15.3038 73.4357 15.3038H54.7036C54.4516 15.3038 54.3256 15.4298 54.3256 15.6818ZM49.5796 40.5458C48.9356 40.5458 48.3756 40.3218 47.8996 39.8738C47.4236 39.3978 47.1856 38.8378 47.1856 38.1938V11.5658C47.1856 10.9218 47.4236 10.3758 47.8996 9.9278C48.3756 9.4518 48.9356 9.2138 49.5796 9.2138H78.5596C79.2036 9.2138 79.7636 9.4518 80.2396 9.9278C80.7156 10.3758 80.9537 10.9218 80.9537 11.5658V38.1938C80.9537 38.8378 80.7156 39.3978 80.2396 39.8738C79.7636 40.3218 79.2036 40.5458 78.5596 40.5458H49.5796Z"/>
<path d="M92.2936 16.0598C91.6496 16.0598 91.0896 15.8218 90.6136 15.3458C90.1376 14.8698 89.8997 14.3098 89.8997 13.6658V11.9858C89.8997 11.3418 90.1376 10.7958 90.6136 10.3478C91.0896 9.8718 91.6496 9.6338 92.2936 9.6338H120.224C120.868 9.6338 121.428 9.8718 121.904 10.3478C122.38 10.7958 122.604 11.3418 122.576 11.9858C122.408 21.1138 120.224 28.0578 116.024 32.8178C111.852 37.5498 105.468 40.4618 96.8717 41.5538C96.1997 41.6378 95.5697 41.4838 94.9817 41.0918C94.4217 40.6998 94.0856 40.1678 93.9736 39.4958L93.6796 37.8998C93.5676 37.2838 93.6936 36.7238 94.0576 36.2198C94.4216 35.6878 94.9256 35.3798 95.5696 35.2958C101.814 34.4838 106.476 32.6078 109.556 29.6678C112.636 26.7278 114.498 22.3038 115.142 16.3958C115.142 16.1718 115.044 16.0598 114.848 16.0598H92.2936Z"/>
<path d="M132.908 40.4618C132.264 40.4618 131.704 40.2238 131.228 39.7478C130.752 39.2718 130.514 38.7118 130.514 38.0678V37.4798C130.514 36.8358 130.752 36.2898 131.228 35.8418C131.704 35.3658 132.264 35.1278 132.908 35.1278H140.426C140.65 35.1278 140.762 35.0018 140.762 34.7498V21.7298C140.762 21.4778 140.65 21.3518 140.426 21.3518H133.916C133.272 21.3518 132.712 21.1278 132.236 20.6798C131.76 20.2038 131.522 19.6438 131.522 18.9998V18.4118C131.522 17.7678 131.76 17.2078 132.236 16.7318C132.712 16.2558 133.272 16.0178 133.916 16.0178H153.824C154.468 16.0178 155.028 16.2558 155.504 16.7318C155.98 17.2078 156.218 17.7678 156.218 18.4118V18.9998C156.218 19.6438 155.98 20.2038 155.504 20.6798C155.028 21.1278 154.468 21.3518 153.824 21.3518H147.356C147.104 21.3518 146.978 21.4778 146.978 21.7298V34.7498C146.978 35.0018 147.104 35.1278 147.356 35.1278H154.832C155.476 35.1278 156.036 35.3658 156.512 35.8418C156.988 36.2898 157.226 36.8358 157.226 37.4798V38.0678C157.226 38.7118 156.988 39.2718 156.512 39.7478C156.036 40.2238 155.476 40.4618 154.832 40.4618H132.908Z"/>
<path d="M192.884 18.1178C192.604 25.7058 190.952 31.2778 187.928 34.8338C184.904 38.3898 180.046 40.6438 173.354 41.5958C172.682 41.7078 172.066 41.5538 171.506 41.1338C170.946 40.7418 170.596 40.2098 170.456 39.5378L170.288 38.7398C170.176 38.1238 170.288 37.5638 170.624 37.0598C170.988 36.5278 171.492 36.2058 172.136 36.0938C177.428 35.2538 181.152 33.5178 183.308 30.8858C185.492 28.2258 186.71 23.8718 186.962 17.8238C186.99 17.1798 187.228 16.6338 187.676 16.1858C188.152 15.7378 188.712 15.5278 189.356 15.5558L190.532 15.6398C191.176 15.6958 191.736 15.9618 192.212 16.4378C192.688 16.9138 192.912 17.4738 192.884 18.1178ZM166.97 26.4338C166.298 23.6338 165.738 21.4218 165.29 19.7978C165.122 19.1818 165.192 18.5938 165.5 18.0338C165.836 17.4738 166.326 17.1238 166.97 16.9838L167.81 16.7738C168.454 16.6338 169.056 16.7318 169.616 17.0678C170.204 17.4038 170.596 17.8938 170.792 18.5378C171.548 21.2818 172.15 23.4938 172.598 25.1738C172.766 25.7898 172.668 26.3778 172.304 26.9378C171.968 27.4978 171.478 27.8478 170.834 27.9878L169.826 28.2398C169.182 28.3798 168.58 28.2818 168.02 27.9458C167.46 27.5818 167.11 27.0778 166.97 26.4338ZM178.982 27.3998C178.338 27.5398 177.736 27.4418 177.176 27.1058C176.616 26.7698 176.252 26.2938 176.084 25.6778C176.056 25.5098 175.454 23.2278 174.278 18.8318C174.11 18.1878 174.194 17.5858 174.53 17.0258C174.866 16.4378 175.342 16.0738 175.958 15.9338L176.924 15.7238C177.568 15.5838 178.184 15.6818 178.772 16.0178C179.36 16.3538 179.738 16.8438 179.906 17.4878C180.69 20.3718 181.292 22.6538 181.712 24.3338C181.88 24.9498 181.782 25.5518 181.418 26.1398C181.082 26.6998 180.592 27.0498 179.948 27.1898L178.982 27.3998Z"/>
<path d="M234.548 16.4378C232.84 24.4738 229.69 30.4378 225.098 34.3298C220.534 38.1938 213.842 40.6298 205.022 41.6378C204.35 41.7218 203.748 41.5538 203.216 41.1338C202.712 40.7418 202.404 40.2098 202.292 39.5378L201.998 37.8158C201.886 37.1998 202.026 36.6258 202.418 36.0938C202.81 35.5618 203.328 35.2678 203.972 35.2118C211.42 34.3718 216.936 32.4958 220.52 29.5838C224.104 26.6438 226.624 21.9258 228.08 15.4298C228.22 14.7858 228.57 14.2678 229.13 13.8758C229.69 13.4558 230.292 13.3018 230.936 13.4138L232.658 13.7078C233.302 13.8198 233.806 14.1558 234.17 14.7158C234.562 15.2478 234.688 15.8218 234.548 16.4378ZM202.292 23.6618C201.648 23.5498 201.144 23.2278 200.78 22.6958C200.416 22.1358 200.304 21.5338 200.444 20.8898L200.696 19.7138C200.836 19.0698 201.186 18.5658 201.746 18.2018C202.306 17.8098 202.908 17.6698 203.552 17.7818C205.988 18.2298 209.068 18.8318 212.792 19.5878C213.436 19.7278 213.94 20.0778 214.304 20.6378C214.668 21.1698 214.78 21.7578 214.64 22.4018L214.388 23.6198C214.248 24.2638 213.898 24.7678 213.338 25.1318C212.778 25.4678 212.176 25.5658 211.532 25.4258C208.62 24.8378 205.54 24.2498 202.292 23.6618ZM215.144 9.4658C215.788 9.5778 216.292 9.9138 216.656 10.4738C217.02 11.0338 217.132 11.6358 216.992 12.2798L216.74 13.5818C216.628 14.2258 216.278 14.7298 215.69 15.0938C215.13 15.4578 214.528 15.5698 213.884 15.4298C210.132 14.6738 206.94 14.0718 204.308 13.6238C203.692 13.5118 203.188 13.1898 202.796 12.6578C202.432 12.1258 202.32 11.5378 202.46 10.8938L202.712 9.5918C202.824 8.9478 203.16 8.4298 203.72 8.0378C204.28 7.6458 204.882 7.5058 205.526 7.6178C207.374 7.9258 210.58 8.5418 215.144 9.4658Z"/>
<path d="M243.746 40.7978C243.102 40.7978 242.542 40.5598 242.066 40.0838C241.59 39.6078 241.352 39.0478 241.352 38.4038V37.8158C241.352 37.1718 241.59 36.6258 242.066 36.1778C242.542 35.7018 243.102 35.4638 243.746 35.4638H260.21C260.434 35.4638 260.546 35.3378 260.546 35.0858V30.7178C260.546 30.4658 260.434 30.3398 260.21 30.3398H245.678C245.034 30.3398 244.474 30.1158 243.998 29.6678C243.522 29.1918 243.284 28.6318 243.284 27.9878V27.5258C243.284 26.8818 243.522 26.3218 243.998 25.8458C244.474 25.3698 245.034 25.1318 245.678 25.1318H260.21C260.434 25.1318 260.546 25.0198 260.546 24.7958V21.2678C260.546 21.0158 260.434 20.8898 260.21 20.8898H243.746C243.102 20.8898 242.542 20.6658 242.066 20.2178C241.59 19.7418 241.352 19.1818 241.352 18.5378V18.0758C241.352 17.4318 241.59 16.8718 242.066 16.3958C242.542 15.9198 243.102 15.6818 243.746 15.6818H264.536C265.18 15.6818 265.74 15.9198 266.216 16.3958C266.692 16.8718 266.93 17.4318 266.93 18.0758V38.4038C266.93 39.0478 266.692 39.6078 266.216 40.0838C265.74 40.5598 265.18 40.7978 264.536 40.7978H243.746Z"/>
<path d="M276.59 20.8058C275.946 20.8058 275.386 20.5818 274.91 20.1338C274.434 19.6578 274.196 19.0978 274.196 18.4538V16.7738C274.196 16.1298 274.434 15.5698 274.91 15.0938C275.386 14.6178 275.946 14.3798 276.59 14.3798H289.526C289.778 14.3798 289.904 14.2538 289.904 14.0018V9.2558C289.904 8.6118 290.128 8.0658 290.576 7.6178C291.052 7.1418 291.612 6.9038 292.256 6.9038H294.65C295.294 6.9038 295.854 7.1418 296.33 7.6178C296.806 8.0658 297.044 8.6118 297.044 9.2558V14.0018C297.044 14.2538 297.156 14.3798 297.38 14.3798H307.67C308.314 14.3798 308.874 14.6178 309.35 15.0938C309.826 15.5698 310.064 16.1298 310.064 16.7738V18.4538C310.064 19.0978 309.826 19.6578 309.35 20.1338C308.874 20.5818 308.314 20.8058 307.67 20.8058H297.38C297.156 20.8058 297.044 20.9318 297.044 21.1838V21.7298C297.044 27.3298 295.826 31.7398 293.39 34.9598C290.982 38.1798 287.202 40.4338 282.05 41.7218C281.378 41.8898 280.748 41.8058 280.16 41.4698C279.6 41.1338 279.208 40.6298 278.984 39.9578L278.438 38.2358C278.242 37.6198 278.298 37.0458 278.606 36.5138C278.914 35.9818 279.376 35.6318 279.992 35.4638C283.604 34.5118 286.152 32.9998 287.636 30.9278C289.148 28.8278 289.904 25.7618 289.904 21.7298V21.1838C289.904 20.9318 289.778 20.8058 289.526 20.8058H276.59Z"/>
<path d="M331.736 41.6798C331.092 41.7078 330.532 41.4838 330.056 41.0078C329.608 40.5318 329.384 39.9718 329.384 39.3278V10.3898C329.384 9.7458 329.608 9.1858 330.056 8.7098C330.532 8.2338 331.092 7.9958 331.736 7.9958H334.004C334.648 7.9958 335.194 8.2338 335.642 8.7098C336.118 9.1858 336.356 9.7458 336.356 10.3898V34.2038C336.356 34.3998 336.482 34.4698 336.734 34.4138C338.61 33.7418 340.066 32.5938 341.102 30.9698C342.138 29.3178 342.894 26.9658 343.37 23.9138C343.482 23.2698 343.79 22.7518 344.294 22.3598C344.798 21.9398 345.372 21.7718 346.016 21.8558L347.738 22.1078C348.382 22.1918 348.914 22.4998 349.334 23.0318C349.754 23.5638 349.922 24.1518 349.838 24.7958C349.026 30.4238 347.136 34.5958 344.168 37.3118C341.228 40.0278 337.084 41.4838 331.736 41.6798ZM313.214 40.2518L312.08 38.4878C311.744 37.9558 311.646 37.3818 311.786 36.7658C311.954 36.1498 312.318 35.6738 312.878 35.3378C314.054 34.6098 314.964 33.8538 315.608 33.0698C316.252 32.2858 316.77 31.1658 317.162 29.7098C317.554 28.2258 317.806 26.5318 317.918 24.6278C318.03 22.7238 318.086 20.0778 318.086 16.6898V10.3898C318.086 9.7458 318.324 9.1858 318.8 8.7098C319.276 8.2338 319.836 7.9958 320.48 7.9958H322.58C323.224 7.9958 323.784 8.2338 324.26 8.7098C324.736 9.1858 324.974 9.7458 324.974 10.3898V16.6898C324.974 21.9258 324.708 26.0838 324.176 29.1638C323.672 32.2158 322.832 34.6518 321.656 36.4718C320.508 38.2638 318.842 39.8038 316.658 41.0918C316.07 41.4278 315.44 41.5118 314.768 41.3438C314.124 41.1758 313.606 40.8118 313.214 40.2518Z"/>
</mask>
<path d="M34.4177 12.5318C34.9497 13.0638 35.5936 13.3298 36.3496 13.3298C37.1056 13.3298 37.7497 13.0638 38.2817 12.5318C38.8137 11.9998 39.0797 11.3558 39.0797 10.5998C39.0797 9.8438 38.8137 9.1998 38.2817 8.6678C37.7497 8.1358 37.1056 7.8698 36.3496 7.8698C35.5936 7.8698 34.9497 8.1358 34.4177 8.6678C33.8857 9.1998 33.6196 9.8438 33.6196 10.5998C33.6196 11.3558 33.8857 11.9998 34.4177 12.5318ZM36.3496 4.2998C38.0857 4.2998 39.5697 4.9158 40.8017 6.1478C42.0337 7.3798 42.6497 8.8638 42.6497 10.5998C42.6497 12.2798 42.0757 13.7218 40.9277 14.9258C39.8076 16.1298 38.4216 16.7878 36.7696 16.8998C36.5457 16.8998 36.4337 17.0258 36.4337 17.2778C36.4337 17.3058 36.4197 17.3618 36.3916 17.4458C36.3916 17.5298 36.3916 17.5998 36.3916 17.6558C35.5237 25.0478 33.0037 30.7038 28.8316 34.6238C24.6876 38.5438 18.7376 40.9938 10.9816 41.9738C10.3096 42.0578 9.70765 41.8898 9.17565 41.4698C8.64365 41.0778 8.30765 40.5598 8.16765 39.9158L7.87365 38.3198C7.76165 37.7038 7.88765 37.1438 8.25165 36.6398C8.64365 36.1078 9.16165 35.7998 9.80565 35.7158C16.0496 34.9038 20.6976 33.0278 23.7496 30.0878C26.8296 27.1478 28.6916 22.7378 29.3356 16.8578C29.3916 16.6058 29.2936 16.4798 29.0416 16.4798H7.03365C6.38965 16.4798 5.82965 16.2418 5.35365 15.7658C4.87765 15.2898 4.63965 14.7298 4.63965 14.0858V12.4058C4.63965 11.7618 4.87765 11.2158 5.35365 10.7678C5.82965 10.2918 6.38965 10.0538 7.03365 10.0538H29.7136C29.9377 10.0538 30.0777 9.9418 30.1336 9.7178C30.3577 8.1778 31.0437 6.8898 32.1917 5.8538C33.3677 4.8178 34.7536 4.2998 36.3496 4.2998Z" fill="white"/>
<path d="M54.3256 15.6818V34.0778C54.3256 34.3298 54.4516 34.4558 54.7036 34.4558H73.4357C73.6877 34.4558 73.8137 34.3298 73.8137 34.0778V15.6818C73.8137 15.4298 73.6877 15.3038 73.4357 15.3038H54.7036C54.4516 15.3038 54.3256 15.4298 54.3256 15.6818ZM49.5796 40.5458C48.9356 40.5458 48.3756 40.3218 47.8996 39.8738C47.4236 39.3978 47.1856 38.8378 47.1856 38.1938V11.5658C47.1856 10.9218 47.4236 10.3758 47.8996 9.9278C48.3756 9.4518 48.9356 9.2138 49.5796 9.2138H78.5596C79.2036 9.2138 79.7636 9.4518 80.2396 9.9278C80.7156 10.3758 80.9537 10.9218 80.9537 11.5658V38.1938C80.9537 38.8378 80.7156 39.3978 80.2396 39.8738C79.7636 40.3218 79.2036 40.5458 78.5596 40.5458H49.5796Z" fill="white"/>
<path d="M92.2936 16.0598C91.6496 16.0598 91.0896 15.8218 90.6136 15.3458C90.1376 14.8698 89.8997 14.3098 89.8997 13.6658V11.9858C89.8997 11.3418 90.1376 10.7958 90.6136 10.3478C91.0896 9.8718 91.6496 9.6338 92.2936 9.6338H120.224C120.868 9.6338 121.428 9.8718 121.904 10.3478C122.38 10.7958 122.604 11.3418 122.576 11.9858C122.408 21.1138 120.224 28.0578 116.024 32.8178C111.852 37.5498 105.468 40.4618 96.8717 41.5538C96.1997 41.6378 95.5697 41.4838 94.9817 41.0918C94.4217 40.6998 94.0856 40.1678 93.9736 39.4958L93.6796 37.8998C93.5676 37.2838 93.6936 36.7238 94.0576 36.2198C94.4216 35.6878 94.9256 35.3798 95.5696 35.2958C101.814 34.4838 106.476 32.6078 109.556 29.6678C112.636 26.7278 114.498 22.3038 115.142 16.3958C115.142 16.1718 115.044 16.0598 114.848 16.0598H92.2936Z" fill="white"/>
<path d="M132.908 40.4618C132.264 40.4618 131.704 40.2238 131.228 39.7478C130.752 39.2718 130.514 38.7118 130.514 38.0678V37.4798C130.514 36.8358 130.752 36.2898 131.228 35.8418C131.704 35.3658 132.264 35.1278 132.908 35.1278H140.426C140.65 35.1278 140.762 35.0018 140.762 34.7498V21.7298C140.762 21.4778 140.65 21.3518 140.426 21.3518H133.916C133.272 21.3518 132.712 21.1278 132.236 20.6798C131.76 20.2038 131.522 19.6438 131.522 18.9998V18.4118C131.522 17.7678 131.76 17.2078 132.236 16.7318C132.712 16.2558 133.272 16.0178 133.916 16.0178H153.824C154.468 16.0178 155.028 16.2558 155.504 16.7318C155.98 17.2078 156.218 17.7678 156.218 18.4118V18.9998C156.218 19.6438 155.98 20.2038 155.504 20.6798C155.028 21.1278 154.468 21.3518 153.824 21.3518H147.356C147.104 21.3518 146.978 21.4778 146.978 21.7298V34.7498C146.978 35.0018 147.104 35.1278 147.356 35.1278H154.832C155.476 35.1278 156.036 35.3658 156.512 35.8418C156.988 36.2898 157.226 36.8358 157.226 37.4798V38.0678C157.226 38.7118 156.988 39.2718 156.512 39.7478C156.036 40.2238 155.476 40.4618 154.832 40.4618H132.908Z" fill="white"/>
<path d="M192.884 18.1178C192.604 25.7058 190.952 31.2778 187.928 34.8338C184.904 38.3898 180.046 40.6438 173.354 41.5958C172.682 41.7078 172.066 41.5538 171.506 41.1338C170.946 40.7418 170.596 40.2098 170.456 39.5378L170.288 38.7398C170.176 38.1238 170.288 37.5638 170.624 37.0598C170.988 36.5278 171.492 36.2058 172.136 36.0938C177.428 35.2538 181.152 33.5178 183.308 30.8858C185.492 28.2258 186.71 23.8718 186.962 17.8238C186.99 17.1798 187.228 16.6338 187.676 16.1858C188.152 15.7378 188.712 15.5278 189.356 15.5558L190.532 15.6398C191.176 15.6958 191.736 15.9618 192.212 16.4378C192.688 16.9138 192.912 17.4738 192.884 18.1178ZM166.97 26.4338C166.298 23.6338 165.738 21.4218 165.29 19.7978C165.122 19.1818 165.192 18.5938 165.5 18.0338C165.836 17.4738 166.326 17.1238 166.97 16.9838L167.81 16.7738C168.454 16.6338 169.056 16.7318 169.616 17.0678C170.204 17.4038 170.596 17.8938 170.792 18.5378C171.548 21.2818 172.15 23.4938 172.598 25.1738C172.766 25.7898 172.668 26.3778 172.304 26.9378C171.968 27.4978 171.478 27.8478 170.834 27.9878L169.826 28.2398C169.182 28.3798 168.58 28.2818 168.02 27.9458C167.46 27.5818 167.11 27.0778 166.97 26.4338ZM178.982 27.3998C178.338 27.5398 177.736 27.4418 177.176 27.1058C176.616 26.7698 176.252 26.2938 176.084 25.6778C176.056 25.5098 175.454 23.2278 174.278 18.8318C174.11 18.1878 174.194 17.5858 174.53 17.0258C174.866 16.4378 175.342 16.0738 175.958 15.9338L176.924 15.7238C177.568 15.5838 178.184 15.6818 178.772 16.0178C179.36 16.3538 179.738 16.8438 179.906 17.4878C180.69 20.3718 181.292 22.6538 181.712 24.3338C181.88 24.9498 181.782 25.5518 181.418 26.1398C181.082 26.6998 180.592 27.0498 179.948 27.1898L178.982 27.3998Z" fill="white"/>
<path d="M234.548 16.4378C232.84 24.4738 229.69 30.4378 225.098 34.3298C220.534 38.1938 213.842 40.6298 205.022 41.6378C204.35 41.7218 203.748 41.5538 203.216 41.1338C202.712 40.7418 202.404 40.2098 202.292 39.5378L201.998 37.8158C201.886 37.1998 202.026 36.6258 202.418 36.0938C202.81 35.5618 203.328 35.2678 203.972 35.2118C211.42 34.3718 216.936 32.4958 220.52 29.5838C224.104 26.6438 226.624 21.9258 228.08 15.4298C228.22 14.7858 228.57 14.2678 229.13 13.8758C229.69 13.4558 230.292 13.3018 230.936 13.4138L232.658 13.7078C233.302 13.8198 233.806 14.1558 234.17 14.7158C234.562 15.2478 234.688 15.8218 234.548 16.4378ZM202.292 23.6618C201.648 23.5498 201.144 23.2278 200.78 22.6958C200.416 22.1358 200.304 21.5338 200.444 20.8898L200.696 19.7138C200.836 19.0698 201.186 18.5658 201.746 18.2018C202.306 17.8098 202.908 17.6698 203.552 17.7818C205.988 18.2298 209.068 18.8318 212.792 19.5878C213.436 19.7278 213.94 20.0778 214.304 20.6378C214.668 21.1698 214.78 21.7578 214.64 22.4018L214.388 23.6198C214.248 24.2638 213.898 24.7678 213.338 25.1318C212.778 25.4678 212.176 25.5658 211.532 25.4258C208.62 24.8378 205.54 24.2498 202.292 23.6618ZM215.144 9.4658C215.788 9.5778 216.292 9.9138 216.656 10.4738C217.02 11.0338 217.132 11.6358 216.992 12.2798L216.74 13.5818C216.628 14.2258 216.278 14.7298 215.69 15.0938C215.13 15.4578 214.528 15.5698 213.884 15.4298C210.132 14.6738 206.94 14.0718 204.308 13.6238C203.692 13.5118 203.188 13.1898 202.796 12.6578C202.432 12.1258 202.32 11.5378 202.46 10.8938L202.712 9.5918C202.824 8.9478 203.16 8.4298 203.72 8.0378C204.28 7.6458 204.882 7.5058 205.526 7.6178C207.374 7.9258 210.58 8.5418 215.144 9.4658Z" fill="white"/>
<path d="M243.746 40.7978C243.102 40.7978 242.542 40.5598 242.066 40.0838C241.59 39.6078 241.352 39.0478 241.352 38.4038V37.8158C241.352 37.1718 241.59 36.6258 242.066 36.1778C242.542 35.7018 243.102 35.4638 243.746 35.4638H260.21C260.434 35.4638 260.546 35.3378 260.546 35.0858V30.7178C260.546 30.4658 260.434 30.3398 260.21 30.3398H245.678C245.034 30.3398 244.474 30.1158 243.998 29.6678C243.522 29.1918 243.284 28.6318 243.284 27.9878V27.5258C243.284 26.8818 243.522 26.3218 243.998 25.8458C244.474 25.3698 245.034 25.1318 245.678 25.1318H260.21C260.434 25.1318 260.546 25.0198 260.546 24.7958V21.2678C260.546 21.0158 260.434 20.8898 260.21 20.8898H243.746C243.102 20.8898 242.542 20.6658 242.066 20.2178C241.59 19.7418 241.352 19.1818 241.352 18.5378V18.0758C241.352 17.4318 241.59 16.8718 242.066 16.3958C242.542 15.9198 243.102 15.6818 243.746 15.6818H264.536C265.18 15.6818 265.74 15.9198 266.216 16.3958C266.692 16.8718 266.93 17.4318 266.93 18.0758V38.4038C266.93 39.0478 266.692 39.6078 266.216 40.0838C265.74 40.5598 265.18 40.7978 264.536 40.7978H243.746Z" fill="white"/>
<path d="M276.59 20.8058C275.946 20.8058 275.386 20.5818 274.91 20.1338C274.434 19.6578 274.196 19.0978 274.196 18.4538V16.7738C274.196 16.1298 274.434 15.5698 274.91 15.0938C275.386 14.6178 275.946 14.3798 276.59 14.3798H289.526C289.778 14.3798 289.904 14.2538 289.904 14.0018V9.2558C289.904 8.6118 290.128 8.0658 290.576 7.6178C291.052 7.1418 291.612 6.9038 292.256 6.9038H294.65C295.294 6.9038 295.854 7.1418 296.33 7.6178C296.806 8.0658 297.044 8.6118 297.044 9.2558V14.0018C297.044 14.2538 297.156 14.3798 297.38 14.3798H307.67C308.314 14.3798 308.874 14.6178 309.35 15.0938C309.826 15.5698 310.064 16.1298 310.064 16.7738V18.4538C310.064 19.0978 309.826 19.6578 309.35 20.1338C308.874 20.5818 308.314 20.8058 307.67 20.8058H297.38C297.156 20.8058 297.044 20.9318 297.044 21.1838V21.7298C297.044 27.3298 295.826 31.7398 293.39 34.9598C290.982 38.1798 287.202 40.4338 282.05 41.7218C281.378 41.8898 280.748 41.8058 280.16 41.4698C279.6 41.1338 279.208 40.6298 278.984 39.9578L278.438 38.2358C278.242 37.6198 278.298 37.0458 278.606 36.5138C278.914 35.9818 279.376 35.6318 279.992 35.4638C283.604 34.5118 286.152 32.9998 287.636 30.9278C289.148 28.8278 289.904 25.7618 289.904 21.7298V21.1838C289.904 20.9318 289.778 20.8058 289.526 20.8058H276.59Z" fill="white"/>
<path d="M331.736 41.6798C331.092 41.7078 330.532 41.4838 330.056 41.0078C329.608 40.5318 329.384 39.9718 329.384 39.3278V10.3898C329.384 9.7458 329.608 9.1858 330.056 8.7098C330.532 8.2338 331.092 7.9958 331.736 7.9958H334.004C334.648 7.9958 335.194 8.2338 335.642 8.7098C336.118 9.1858 336.356 9.7458 336.356 10.3898V34.2038C336.356 34.3998 336.482 34.4698 336.734 34.4138C338.61 33.7418 340.066 32.5938 341.102 30.9698C342.138 29.3178 342.894 26.9658 343.37 23.9138C343.482 23.2698 343.79 22.7518 344.294 22.3598C344.798 21.9398 345.372 21.7718 346.016 21.8558L347.738 22.1078C348.382 22.1918 348.914 22.4998 349.334 23.0318C349.754 23.5638 349.922 24.1518 349.838 24.7958C349.026 30.4238 347.136 34.5958 344.168 37.3118C341.228 40.0278 337.084 41.4838 331.736 41.6798ZM313.214 40.2518L312.08 38.4878C311.744 37.9558 311.646 37.3818 311.786 36.7658C311.954 36.1498 312.318 35.6738 312.878 35.3378C314.054 34.6098 314.964 33.8538 315.608 33.0698C316.252 32.2858 316.77 31.1658 317.162 29.7098C317.554 28.2258 317.806 26.5318 317.918 24.6278C318.03 22.7238 318.086 20.0778 318.086 16.6898V10.3898C318.086 9.7458 318.324 9.1858 318.8 8.7098C319.276 8.2338 319.836 7.9958 320.48 7.9958H322.58C323.224 7.9958 323.784 8.2338 324.26 8.7098C324.736 9.1858 324.974 9.7458 324.974 10.3898V16.6898C324.974 21.9258 324.708 26.0838 324.176 29.1638C323.672 32.2158 322.832 34.6518 321.656 36.4718C320.508 38.2638 318.842 39.8038 316.658 41.0918C316.07 41.4278 315.44 41.5118 314.768 41.3438C314.124 41.1758 313.606 40.8118 313.214 40.2518Z" fill="white"/>
<path d="M34.4177 12.5318C34.9497 13.0638 35.5936 13.3298 36.3496 13.3298C37.1056 13.3298 37.7497 13.0638 38.2817 12.5318C38.8137 11.9998 39.0797 11.3558 39.0797 10.5998C39.0797 9.8438 38.8137 9.1998 38.2817 8.6678C37.7497 8.1358 37.1056 7.8698 36.3496 7.8698C35.5936 7.8698 34.9497 8.1358 34.4177 8.6678C33.8857 9.1998 33.6196 9.8438 33.6196 10.5998C33.6196 11.3558 33.8857 11.9998 34.4177 12.5318ZM36.3496 4.2998C38.0857 4.2998 39.5697 4.9158 40.8017 6.1478C42.0337 7.3798 42.6497 8.8638 42.6497 10.5998C42.6497 12.2798 42.0757 13.7218 40.9277 14.9258C39.8076 16.1298 38.4216 16.7878 36.7696 16.8998C36.5457 16.8998 36.4337 17.0258 36.4337 17.2778C36.4337 17.3058 36.4197 17.3618 36.3916 17.4458C36.3916 17.5298 36.3916 17.5998 36.3916 17.6558C35.5237 25.0478 33.0037 30.7038 28.8316 34.6238C24.6876 38.5438 18.7376 40.9938 10.9816 41.9738C10.3096 42.0578 9.70765 41.8898 9.17565 41.4698C8.64365 41.0778 8.30765 40.5598 8.16765 39.9158L7.87365 38.3198C7.76165 37.7038 7.88765 37.1438 8.25165 36.6398C8.64365 36.1078 9.16165 35.7998 9.80565 35.7158C16.0496 34.9038 20.6976 33.0278 23.7496 30.0878C26.8296 27.1478 28.6916 22.7378 29.3356 16.8578C29.3916 16.6058 29.2936 16.4798 29.0416 16.4798H7.03365C6.38965 16.4798 5.82965 16.2418 5.35365 15.7658C4.87765 15.2898 4.63965 14.7298 4.63965 14.0858V12.4058C4.63965 11.7618 4.87765 11.2158 5.35365 10.7678C5.82965 10.2918 6.38965 10.0538 7.03365 10.0538H29.7136C29.9377 10.0538 30.0777 9.9418 30.1336 9.7178C30.3577 8.1778 31.0437 6.8898 32.1917 5.8538C33.3677 4.8178 34.7536 4.2998 36.3496 4.2998Z" stroke="black" stroke-width="8" mask="url(#path-1-outside-1_429_2266)"/>
<path d="M54.3256 15.6818V34.0778C54.3256 34.3298 54.4516 34.4558 54.7036 34.4558H73.4357C73.6877 34.4558 73.8137 34.3298 73.8137 34.0778V15.6818C73.8137 15.4298 73.6877 15.3038 73.4357 15.3038H54.7036C54.4516 15.3038 54.3256 15.4298 54.3256 15.6818ZM49.5796 40.5458C48.9356 40.5458 48.3756 40.3218 47.8996 39.8738C47.4236 39.3978 47.1856 38.8378 47.1856 38.1938V11.5658C47.1856 10.9218 47.4236 10.3758 47.8996 9.9278C48.3756 9.4518 48.9356 9.2138 49.5796 9.2138H78.5596C79.2036 9.2138 79.7636 9.4518 80.2396 9.9278C80.7156 10.3758 80.9537 10.9218 80.9537 11.5658V38.1938C80.9537 38.8378 80.7156 39.3978 80.2396 39.8738C79.7636 40.3218 79.2036 40.5458 78.5596 40.5458H49.5796Z" stroke="black" stroke-width="8" mask="url(#path-1-outside-1_429_2266)"/>
<path d="M92.2936 16.0598C91.6496 16.0598 91.0896 15.8218 90.6136 15.3458C90.1376 14.8698 89.8997 14.3098 89.8997 13.6658V11.9858C89.8997 11.3418 90.1376 10.7958 90.6136 10.3478C91.0896 9.8718 91.6496 9.6338 92.2936 9.6338H120.224C120.868 9.6338 121.428 9.8718 121.904 10.3478C122.38 10.7958 122.604 11.3418 122.576 11.9858C122.408 21.1138 120.224 28.0578 116.024 32.8178C111.852 37.5498 105.468 40.4618 96.8717 41.5538C96.1997 41.6378 95.5697 41.4838 94.9817 41.0918C94.4217 40.6998 94.0856 40.1678 93.9736 39.4958L93.6796 37.8998C93.5676 37.2838 93.6936 36.7238 94.0576 36.2198C94.4216 35.6878 94.9256 35.3798 95.5696 35.2958C101.814 34.4838 106.476 32.6078 109.556 29.6678C112.636 26.7278 114.498 22.3038 115.142 16.3958C115.142 16.1718 115.044 16.0598 114.848 16.0598H92.2936Z" stroke="black" stroke-width="8" mask="url(#path-1-outside-1_429_2266)"/>
<path d="M132.908 40.4618C132.264 40.4618 131.704 40.2238 131.228 39.7478C130.752 39.2718 130.514 38.7118 130.514 38.0678V37.4798C130.514 36.8358 130.752 36.2898 131.228 35.8418C131.704 35.3658 132.264 35.1278 132.908 35.1278H140.426C140.65 35.1278 140.762 35.0018 140.762 34.7498V21.7298C140.762 21.4778 140.65 21.3518 140.426 21.3518H133.916C133.272 21.3518 132.712 21.1278 132.236 20.6798C131.76 20.2038 131.522 19.6438 131.522 18.9998V18.4118C131.522 17.7678 131.76 17.2078 132.236 16.7318C132.712 16.2558 133.272 16.0178 133.916 16.0178H153.824C154.468 16.0178 155.028 16.2558 155.504 16.7318C155.98 17.2078 156.218 17.7678 156.218 18.4118V18.9998C156.218 19.6438 155.98 20.2038 155.504 20.6798C155.028 21.1278 154.468 21.3518 153.824 21.3518H147.356C147.104 21.3518 146.978 21.4778 146.978 21.7298V34.7498C146.978 35.0018 147.104 35.1278 147.356 35.1278H154.832C155.476 35.1278 156.036 35.3658 156.512 35.8418C156.988 36.2898 157.226 36.8358 157.226 37.4798V38.0678C157.226 38.7118 156.988 39.2718 156.512 39.7478C156.036 40.2238 155.476 40.4618 154.832 40.4618H132.908Z" stroke="black" stroke-width="8" mask="url(#path-1-outside-1_429_2266)"/>
<path d="M192.884 18.1178C192.604 25.7058 190.952 31.2778 187.928 34.8338C184.904 38.3898 180.046 40.6438 173.354 41.5958C172.682 41.7078 172.066 41.5538 171.506 41.1338C170.946 40.7418 170.596 40.2098 170.456 39.5378L170.288 38.7398C170.176 38.1238 170.288 37.5638 170.624 37.0598C170.988 36.5278 171.492 36.2058 172.136 36.0938C177.428 35.2538 181.152 33.5178 183.308 30.8858C185.492 28.2258 186.71 23.8718 186.962 17.8238C186.99 17.1798 187.228 16.6338 187.676 16.1858C188.152 15.7378 188.712 15.5278 189.356 15.5558L190.532 15.6398C191.176 15.6958 191.736 15.9618 192.212 16.4378C192.688 16.9138 192.912 17.4738 192.884 18.1178ZM166.97 26.4338C166.298 23.6338 165.738 21.4218 165.29 19.7978C165.122 19.1818 165.192 18.5938 165.5 18.0338C165.836 17.4738 166.326 17.1238 166.97 16.9838L167.81 16.7738C168.454 16.6338 169.056 16.7318 169.616 17.0678C170.204 17.4038 170.596 17.8938 170.792 18.5378C171.548 21.2818 172.15 23.4938 172.598 25.1738C172.766 25.7898 172.668 26.3778 172.304 26.9378C171.968 27.4978 171.478 27.8478 170.834 27.9878L169.826 28.2398C169.182 28.3798 168.58 28.2818 168.02 27.9458C167.46 27.5818 167.11 27.0778 166.97 26.4338ZM178.982 27.3998C178.338 27.5398 177.736 27.4418 177.176 27.1058C176.616 26.7698 176.252 26.2938 176.084 25.6778C176.056 25.5098 175.454 23.2278 174.278 18.8318C174.11 18.1878 174.194 17.5858 174.53 17.0258C174.866 16.4378 175.342 16.0738 175.958 15.9338L176.924 15.7238C177.568 15.5838 178.184 15.6818 178.772 16.0178C179.36 16.3538 179.738 16.8438 179.906 17.4878C180.69 20.3718 181.292 22.6538 181.712 24.3338C181.88 24.9498 181.782 25.5518 181.418 26.1398C181.082 26.6998 180.592 27.0498 179.948 27.1898L178.982 27.3998Z" stroke="black" stroke-width="8" mask="url(#path-1-outside-1_429_2266)"/>
<path d="M234.548 16.4378C232.84 24.4738 229.69 30.4378 225.098 34.3298C220.534 38.1938 213.842 40.6298 205.022 41.6378C204.35 41.7218 203.748 41.5538 203.216 41.1338C202.712 40.7418 202.404 40.2098 202.292 39.5378L201.998 37.8158C201.886 37.1998 202.026 36.6258 202.418 36.0938C202.81 35.5618 203.328 35.2678 203.972 35.2118C211.42 34.3718 216.936 32.4958 220.52 29.5838C224.104 26.6438 226.624 21.9258 228.08 15.4298C228.22 14.7858 228.57 14.2678 229.13 13.8758C229.69 13.4558 230.292 13.3018 230.936 13.4138L232.658 13.7078C233.302 13.8198 233.806 14.1558 234.17 14.7158C234.562 15.2478 234.688 15.8218 234.548 16.4378ZM202.292 23.6618C201.648 23.5498 201.144 23.2278 200.78 22.6958C200.416 22.1358 200.304 21.5338 200.444 20.8898L200.696 19.7138C200.836 19.0698 201.186 18.5658 201.746 18.2018C202.306 17.8098 202.908 17.6698 203.552 17.7818C205.988 18.2298 209.068 18.8318 212.792 19.5878C213.436 19.7278 213.94 20.0778 214.304 20.6378C214.668 21.1698 214.78 21.7578 214.64 22.4018L214.388 23.6198C214.248 24.2638 213.898 24.7678 213.338 25.1318C212.778 25.4678 212.176 25.5658 211.532 25.4258C208.62 24.8378 205.54 24.2498 202.292 23.6618ZM215.144 9.4658C215.788 9.5778 216.292 9.9138 216.656 10.4738C217.02 11.0338 217.132 11.6358 216.992 12.2798L216.74 13.5818C216.628 14.2258 216.278 14.7298 215.69 15.0938C215.13 15.4578 214.528 15.5698 213.884 15.4298C210.132 14.6738 206.94 14.0718 204.308 13.6238C203.692 13.5118 203.188 13.1898 202.796 12.6578C202.432 12.1258 202.32 11.5378 202.46 10.8938L202.712 9.5918C202.824 8.9478 203.16 8.4298 203.72 8.0378C204.28 7.6458 204.882 7.5058 205.526 7.6178C207.374 7.9258 210.58 8.5418 215.144 9.4658Z" stroke="black" stroke-width="8" mask="url(#path-1-outside-1_429_2266)"/>
<path d="M243.746 40.7978C243.102 40.7978 242.542 40.5598 242.066 40.0838C241.59 39.6078 241.352 39.0478 241.352 38.4038V37.8158C241.352 37.1718 241.59 36.6258 242.066 36.1778C242.542 35.7018 243.102 35.4638 243.746 35.4638H260.21C260.434 35.4638 260.546 35.3378 260.546 35.0858V30.7178C260.546 30.4658 260.434 30.3398 260.21 30.3398H245.678C245.034 30.3398 244.474 30.1158 243.998 29.6678C243.522 29.1918 243.284 28.6318 243.284 27.9878V27.5258C243.284 26.8818 243.522 26.3218 243.998 25.8458C244.474 25.3698 245.034 25.1318 245.678 25.1318H260.21C260.434 25.1318 260.546 25.0198 260.546 24.7958V21.2678C260.546 21.0158 260.434 20.8898 260.21 20.8898H243.746C243.102 20.8898 242.542 20.6658 242.066 20.2178C241.59 19.7418 241.352 19.1818 241.352 18.5378V18.0758C241.352 17.4318 241.59 16.8718 242.066 16.3958C242.542 15.9198 243.102 15.6818 243.746 15.6818H264.536C265.18 15.6818 265.74 15.9198 266.216 16.3958C266.692 16.8718 266.93 17.4318 266.93 18.0758V38.4038C266.93 39.0478 266.692 39.6078 266.216 40.0838C265.74 40.5598 265.18 40.7978 264.536 40.7978H243.746Z" stroke="black" stroke-width="8" mask="url(#path-1-outside-1_429_2266)"/>
<path d="M276.59 20.8058C275.946 20.8058 275.386 20.5818 274.91 20.1338C274.434 19.6578 274.196 19.0978 274.196 18.4538V16.7738C274.196 16.1298 274.434 15.5698 274.91 15.0938C275.386 14.6178 275.946 14.3798 276.59 14.3798H289.526C289.778 14.3798 289.904 14.2538 289.904 14.0018V9.2558C289.904 8.6118 290.128 8.0658 290.576 7.6178C291.052 7.1418 291.612 6.9038 292.256 6.9038H294.65C295.294 6.9038 295.854 7.1418 296.33 7.6178C296.806 8.0658 297.044 8.6118 297.044 9.2558V14.0018C297.044 14.2538 297.156 14.3798 297.38 14.3798H307.67C308.314 14.3798 308.874 14.6178 309.35 15.0938C309.826 15.5698 310.064 16.1298 310.064 16.7738V18.4538C310.064 19.0978 309.826 19.6578 309.35 20.1338C308.874 20.5818 308.314 20.8058 307.67 20.8058H297.38C297.156 20.8058 297.044 20.9318 297.044 21.1838V21.7298C297.044 27.3298 295.826 31.7398 293.39 34.9598C290.982 38.1798 287.202 40.4338 282.05 41.7218C281.378 41.8898 280.748 41.8058 280.16 41.4698C279.6 41.1338 279.208 40.6298 278.984 39.9578L278.438 38.2358C278.242 37.6198 278.298 37.0458 278.606 36.5138C278.914 35.9818 279.376 35.6318 279.992 35.4638C283.604 34.5118 286.152 32.9998 287.636 30.9278C289.148 28.8278 289.904 25.7618 289.904 21.7298V21.1838C289.904 20.9318 289.778 20.8058 289.526 20.8058H276.59Z" stroke="black" stroke-width="8" mask="url(#path-1-outside-1_429_2266)"/>
<path d="M331.736 41.6798C331.092 41.7078 330.532 41.4838 330.056 41.0078C329.608 40.5318 329.384 39.9718 329.384 39.3278V10.3898C329.384 9.7458 329.608 9.1858 330.056 8.7098C330.532 8.2338 331.092 7.9958 331.736 7.9958H334.004C334.648 7.9958 335.194 8.2338 335.642 8.7098C336.118 9.1858 336.356 9.7458 336.356 10.3898V34.2038C336.356 34.3998 336.482 34.4698 336.734 34.4138C338.61 33.7418 340.066 32.5938 341.102 30.9698C342.138 29.3178 342.894 26.9658 343.37 23.9138C343.482 23.2698 343.79 22.7518 344.294 22.3598C344.798 21.9398 345.372 21.7718 346.016 21.8558L347.738 22.1078C348.382 22.1918 348.914 22.4998 349.334 23.0318C349.754 23.5638 349.922 24.1518 349.838 24.7958C349.026 30.4238 347.136 34.5958 344.168 37.3118C341.228 40.0278 337.084 41.4838 331.736 41.6798ZM313.214 40.2518L312.08 38.4878C311.744 37.9558 311.646 37.3818 311.786 36.7658C311.954 36.1498 312.318 35.6738 312.878 35.3378C314.054 34.6098 314.964 33.8538 315.608 33.0698C316.252 32.2858 316.77 31.1658 317.162 29.7098C317.554 28.2258 317.806 26.5318 317.918 24.6278C318.03 22.7238 318.086 20.0778 318.086 16.6898V10.3898C318.086 9.7458 318.324 9.1858 318.8 8.7098C319.276 8.2338 319.836 7.9958 320.48 7.9958H322.58C323.224 7.9958 323.784 8.2338 324.26 8.7098C324.736 9.1858 324.974 9.7458 324.974 10.3898V16.6898C324.974 21.9258 324.708 26.0838 324.176 29.1638C323.672 32.2158 322.832 34.6518 321.656 36.4718C320.508 38.2638 318.842 39.8038 316.658 41.0918C316.07 41.4278 315.44 41.5118 314.768 41.3438C314.124 41.1758 313.606 40.8118 313.214 40.2518Z" stroke="black" stroke-width="8" mask="url(#path-1-outside-1_429_2266)"/>
</svg>
