<svg width="266" height="238" viewBox="0 0 266 238" fill="none" xmlns="http://www.w3.org/2000/svg">
<path d="M259.113 167.497C263.997 153.384 270.121 135.898 261.727 120.821C257.048 110.976 237.509 105.056 237.509 105.056C221.134 102.302 202.696 99.6172 186.046 102.164C183.5 102.164 181.024 103.128 178.96 101.132C172.148 88.5333 159.283 80.4097 145.66 78.6886C141.876 77.656 137.61 78.2067 134.308 76.4168C132.313 73.3876 132.313 69.257 129.354 59.4812C126.396 49.7053 121.304 40.7556 120.892 40.3425C106.856 16.4537 84.9776 1.37688 62.2046 0H61.4478C47.6876 0 35.0282 7.50399 28.4234 19.414C21.8185 29.1898 17.5528 39.9983 13.4248 50.4626C11.9112 54.249 -4.18822 102.371 1.04064 135.898C3.03586 147.533 11.9112 159.649 23.7449 162.403C43.1467 166.189 63.099 162.403 80.7808 157.377C82.776 156.826 85.3216 155.312 87.5921 156.62C97.981 172.523 114.562 182.368 133.551 182.368C134.308 182.849 135.065 183.125 135.546 183.882C142.839 203.572 151.714 227.805 173.868 235.859C199.875 243.157 220.24 221.953 234.895 203.021C239.848 197.995 245.696 190.285 250.031 183.607C255.672 174.795 259.044 167.36 259.044 167.36L259.113 167.497Z" fill="#231815"/>
<path d="M12.7377 117.517C12.5313 128.394 13.0129 139.753 22.8515 145.812C41.5653 154.899 63.444 148.084 81.1258 141.475C83.6026 139.96 83.121 137.206 83.121 134.452C82.3642 130.391 85.1162 125.847 81.3322 123.093C73.7641 121.579 66.196 116.071 64.4072 108.223C61.8615 98.6536 65.164 89.0154 72.7321 82.9572C82.089 77.9316 94.9547 80.6853 103.004 87.019C107.545 87.2943 110.573 82.9572 114.632 81.4426C116.421 80.9607 118.966 80.2034 119.448 77.9316C117.177 61.7532 110.091 49.7744 100.252 37.1071C91.9275 26.0232 80.5754 19.965 68.7416 16.6605C58.0775 14.3886 48.0326 17.4177 41.7029 26.5051C35.3732 35.3172 31.5892 45.1618 27.3235 55.0065C21.4755 76.2105 14.4578 94.5229 12.6689 117.517H12.7377Z" fill="#E60020"/>
<path d="M80.3694 91.2178C78.5806 91.975 76.5854 93.0077 75.5534 94.7288C73.0077 100.03 73.2829 107.396 78.787 110.907C81.0574 111.94 83.1215 113.454 85.5983 112.972C89.3823 109.186 90.6208 104.436 93.648 100.374C94.4048 98.6529 96.1936 97.3449 95.6432 95.3484C91.8592 91.2866 85.8047 90.0474 80.2318 91.2866L80.3694 91.2178Z" fill="#E60020"/>
<path d="M167.125 169.012C161.345 173.762 155.016 177.342 148.961 181.404C148.48 182.161 148.48 183.676 148.961 184.64C153.502 195.517 158.043 206.601 166.162 215.964C174.211 222.022 184.05 226.084 194.439 223.055C213.634 215.688 224.986 197.169 236.545 181.266C243.906 165.57 256.222 149.667 249.961 130.528C246.177 120.684 235.306 117.31 226.706 115.038C213.084 113.524 197.947 111.527 185.288 116.828C183.018 119.376 185.013 122.887 184.807 125.916C184.807 128.67 183.775 132.456 186.045 134.521C193.888 137.757 201.938 143.609 204.002 152.421C205.516 160.269 202.97 168.048 196.915 173.143C193.131 176.654 187.834 178.719 182.536 177.204C177.514 175.965 173.73 171.903 169.67 168.874C168.638 168.599 168.157 168.874 167.125 169.15V169.012Z" fill="#E60020"/>
<path d="M97.3599 124.057C94.3326 136.449 97.0847 149.047 105.203 158.135C109.262 161.921 113.528 165.983 118.619 167.497C133.756 172.798 151.644 169.769 162.033 157.171C167.812 149.391 171.596 140.992 172.146 131.148C172.422 117.241 168.638 103.61 155.978 96.3127C146.14 88.9464 129.696 88.7399 119.101 94.7981C106.992 100.099 100.938 112.766 97.4287 124.057H97.3599Z" fill="#E60020"/>
<path d="M191.481 162.954C194.026 160.958 194.233 157.653 193.751 154.899C192.238 150.631 187.972 146.845 183.362 146.294C180.61 149.323 179.097 153.316 177.308 156.896C176.551 159.925 179.578 161.715 181.573 163.161C184.326 164.675 188.66 165.226 191.412 162.885L191.481 162.954Z" fill="#E60020"/>
</svg>
