<svg width="40" height="37" viewBox="0 0 40 37" fill="none" xmlns="http://www.w3.org/2000/svg">
<path d="M26.2059 11.0149L23.2316 3.86381C22.036 0.989286 17.964 0.989289 16.7684 3.86381L13.7941 11.0149C13.7221 11.188 13.5593 11.3063 13.3724 11.3213L5.6522 11.9402C2.54891 12.189 1.29057 16.0618 3.65495 18.0871L9.53691 23.1256C9.6793 23.2476 9.74149 23.439 9.69798 23.6214L7.90095 31.155C7.17859 34.1832 10.473 36.5767 13.1298 34.9539L19.7394 30.9169C19.8994 30.8191 20.1006 30.8191 20.2606 30.9169L26.8702 34.9539C29.527 36.5767 32.8214 34.1832 32.0991 31.155L30.302 23.6214C30.2585 23.439 30.3207 23.2476 30.4631 23.1256L36.3451 18.0871C38.7094 16.0618 37.4511 12.189 34.3478 11.9402L26.6276 11.3213C26.4407 11.3063 26.2779 11.188 26.2059 11.0149Z" fill="#FFF204" stroke="black" stroke-width="3"/>
</svg>
