<svg width="2037" height="385" viewBox="0 0 2037 385" fill="none" xmlns="http://www.w3.org/2000/svg">
<path d="M277.118 376.859C249.396 376.859 227.289 370.215 211.405 357.125C195.098 343.692 186.833 325.356 186.833 302.656C186.833 279.956 194.98 262.028 211.049 248.701C226.723 235.703 248.948 229.112 277.118 229.112C284.738 229.112 292.186 229.89 299.331 231.419V138.616C299.331 131.471 302.046 125.222 307.385 120.015C312.46 115.085 318.432 112.594 325.155 112.594C325.511 112.594 325.866 112.594 326.236 112.62C353.668 113.292 377.831 114.756 398.026 116.997C405.105 117.643 411.182 121.044 415.611 126.831C420.041 132.644 421.807 139.169 420.897 146.235L419.896 154.237C418.96 161.381 415.598 167.168 409.877 171.505C405.211 175.038 399.977 176.831 394.296 176.831C393.109 176.831 391.883 176.752 390.671 176.594C383.315 175.671 374.825 174.986 365.387 174.524V262.753C379.795 272.785 394.797 284.873 409.89 298.635C415.176 303.618 417.971 309.735 418.274 316.906C418.577 324.024 416.178 330.51 411.353 335.677L405.263 342.427C400.412 347.594 394.282 350.442 387.045 350.89C386.426 350.929 385.819 350.943 385.226 350.943C378.635 350.943 372.743 348.675 367.72 344.22C364.161 340.95 360.694 337.853 357.306 334.939C344.902 362.767 317.97 376.846 277.118 376.846V376.859ZM277.118 286.798C268.326 286.798 261.814 288.379 257.767 291.49C254.221 294.232 252.56 297.778 252.56 302.656C252.56 307.771 254.339 311.541 258.149 314.52C262.394 317.829 268.774 319.516 277.118 319.516C285.898 319.516 291.988 317.842 294.73 314.665C296.391 312.74 299.159 307.296 299.331 292.426C291.5 288.696 284.039 286.811 277.132 286.811L277.118 286.798ZM147.945 334.531C144.927 334.531 141.855 333.99 138.81 332.936L127.671 329.218C120.895 326.753 115.965 322.271 113.025 315.904C110.086 309.563 109.835 302.906 112.3 296.157C126.669 257.902 140.379 216.404 153.1 172.639H139.205C132.14 172.639 125.944 170.095 120.763 165.072C115.53 159.997 112.88 153.802 112.88 146.657V138.616C112.88 131.563 115.609 125.183 120.777 120.187C125.944 115.164 132.14 112.62 139.205 112.62H169.366C171.752 103.023 173.493 95.971 174.653 91.1199C176.182 84.2124 179.965 78.5967 185.937 74.4179C190.827 70.9905 196.245 69.2505 202.019 69.2505C203.232 69.2505 204.484 69.3296 205.723 69.4878L216.427 70.8192C223.572 71.7551 229.464 75.288 233.511 81.0354C237.572 86.8225 238.89 93.5059 237.334 100.374C236.886 102.364 236.227 105.409 235.344 109.496C235.106 110.616 234.882 111.645 234.671 112.607H259.059C266.111 112.607 272.32 115.151 277.501 120.174C282.668 125.196 285.397 131.563 285.397 138.602V146.644C285.397 153.788 282.747 159.984 277.514 165.059C272.32 170.082 266.124 172.626 259.072 172.626H219.907C207.055 220.148 191.209 268.791 172.781 317.262C170.355 323.932 165.768 328.915 159.19 331.986C155.565 333.674 151.794 334.517 147.972 334.517L147.945 334.531Z" fill="white"/>
<path d="M202.007 76.5025C202.929 76.5025 203.865 76.5684 204.814 76.687L215.532 78.0184C220.659 78.6907 224.68 81.0899 227.58 85.2159C230.48 89.3552 231.377 93.8635 230.269 98.7673C229.821 100.771 229.149 103.842 228.266 107.982C227.369 112.108 226.697 115.179 226.262 117.196C225.814 118.989 226.591 119.872 228.595 119.872H259.059C264.187 119.872 268.656 121.718 272.453 125.396C276.249 129.073 278.147 133.489 278.147 138.617V146.659C278.147 151.786 276.249 156.202 272.453 159.88C268.656 163.558 264.187 165.404 259.059 165.404H216.876C215.083 165.404 213.976 166.406 213.528 168.422C200.583 216.63 184.738 265.404 165.993 314.719C164.2 319.636 160.917 323.209 156.119 325.437C153.456 326.676 150.727 327.295 147.959 327.295C145.745 327.295 143.504 326.9 141.223 326.109L130.176 322.431C125.259 320.638 121.74 317.461 119.631 312.887C117.508 308.313 117.337 303.58 119.13 298.663C134.302 258.273 148.592 214.745 161.972 168.106C162.42 166.313 161.748 165.417 159.968 165.417H139.206C134.078 165.417 129.609 163.571 125.813 159.894C122.016 156.216 120.118 151.8 120.118 146.672V138.631C120.118 133.503 122.016 129.087 125.813 125.409C129.609 121.731 134.065 119.885 139.206 119.885H172.36C174.139 119.885 175.26 119.002 175.708 117.209C178.384 106.492 180.388 98.3455 181.732 92.7694C182.853 87.6415 185.634 83.5154 190.103 80.3912C193.768 77.8207 197.749 76.5288 202.033 76.5288M325.182 119.872C325.459 119.872 325.735 119.872 326.025 119.885C353.471 120.558 377.252 122.008 397.341 124.235C402.469 124.684 406.648 127.03 409.891 131.262C413.121 135.506 414.413 140.186 413.74 145.327L412.738 153.368C412.066 158.496 409.667 162.622 405.541 165.746C402.14 168.317 398.409 169.609 394.336 169.609C393.453 169.609 392.556 169.543 391.647 169.424C382.722 168.304 372.453 167.526 360.853 167.091C359.06 167.091 358.164 167.987 358.164 169.767V263.836C358.164 265.629 358.942 267.079 360.51 268.186C375.011 278.231 389.854 290.174 405.04 304.002C408.836 307.575 410.84 311.991 411.064 317.224C411.288 322.471 409.601 326.992 406.042 330.775L400.017 337.472C396.445 341.268 391.976 343.325 386.624 343.668C386.163 343.694 385.702 343.707 385.253 343.707C380.455 343.707 376.237 342.073 372.559 338.803C366.983 333.675 361.618 328.983 356.49 324.738C356.186 324.448 355.817 324.303 355.369 324.303C355.145 324.303 354.908 324.342 354.644 324.408C353.853 324.632 353.365 325.081 353.141 325.74C343.321 354.978 317.984 369.597 277.146 369.597C251.031 369.597 230.665 363.573 216.046 351.511C201.427 339.462 194.11 323.169 194.11 302.631C194.11 282.093 201.308 266.195 215.703 254.252C230.098 242.322 250.57 236.338 277.132 236.338C286.505 236.338 295.429 237.563 303.919 240.015C304.275 240.108 304.604 240.147 304.894 240.147C306.028 240.147 306.595 239.435 306.595 237.999V138.617C306.595 133.489 308.546 129.021 312.448 125.224C316.139 121.639 320.383 119.859 325.169 119.859M277.132 326.768C288.298 326.768 295.996 324.316 300.228 319.412C304.459 314.508 306.595 305.017 306.595 290.952C306.595 288.724 305.698 287.261 303.919 286.602C294.546 281.922 285.609 279.575 277.132 279.575C266.639 279.575 258.717 281.645 253.365 285.771C248.013 289.91 245.324 295.539 245.324 302.684C245.324 309.829 248.118 315.906 253.694 320.256C259.27 324.606 267.087 326.781 277.132 326.781M202.007 62.002C194.717 62.002 187.902 64.1902 181.759 68.4876C174.39 73.6419 169.486 80.9053 167.574 89.487C166.638 93.3758 165.36 98.6091 163.672 105.358H139.18C130.295 105.358 122.175 108.68 115.689 114.982C109.098 121.375 105.605 129.548 105.605 138.617V146.659C105.605 155.715 109.098 163.888 115.702 170.294C122.175 176.582 130.295 179.904 139.18 179.904H143.398C131.508 220.084 118.787 258.233 105.525 293.549L105.499 293.615L105.473 293.68C102.375 302.183 102.718 310.923 106.448 318.964C110.166 327.018 116.651 332.924 125.193 336.035L125.378 336.101L125.563 336.167L136.517 339.818C140.287 341.123 144.123 341.783 147.933 341.783C152.81 341.783 157.609 340.702 162.196 338.579C170.435 334.743 176.433 328.244 179.557 319.781C179.926 318.819 180.295 317.844 180.651 316.881C183.538 335.402 192.304 350.786 206.792 362.729C223.995 376.927 247.657 384.124 277.119 384.124C300.017 384.124 319.157 379.787 334.001 371.219C344.665 365.062 353.168 356.784 359.429 346.502C360.523 347.491 361.618 348.479 362.712 349.494L362.804 349.573L362.896 349.652C369.197 355.255 376.922 358.208 385.227 358.208C385.978 358.208 386.743 358.181 387.508 358.142C396.511 357.575 404.486 353.858 410.55 347.411L410.656 347.293L410.761 347.174L416.693 340.583C422.849 333.965 425.894 325.687 425.512 316.618C425.117 307.614 421.465 299.612 414.953 293.456L414.861 293.364L414.768 293.272C400.532 280.3 386.374 268.792 372.625 258.985V182.198C378.86 182.607 384.594 183.147 389.762 183.793C391.278 183.991 392.807 184.096 394.296 184.096C401.494 184.096 408.388 181.737 414.268 177.294C421.478 171.837 425.921 164.204 427.081 155.227V155.161L428.096 147.159C429.243 138.275 426.923 129.732 421.399 122.482C415.704 115.034 407.887 110.671 398.765 109.814C378.385 107.56 354.064 106.07 326.46 105.398C326.025 105.385 325.59 105.372 325.155 105.372C316.6 105.372 308.704 108.641 302.337 114.85C296.708 120.32 293.307 126.991 292.358 134.333C291.422 127.004 288.074 120.386 282.537 115.008C276.038 108.707 267.918 105.385 259.046 105.385H243.649C243.966 103.961 244.203 102.854 244.401 101.997C246.431 93.0858 244.717 84.4118 239.444 76.9111C234.198 69.4499 226.578 64.8757 217.417 63.6629H217.324L206.607 62.3183C205.078 62.1206 203.536 62.0283 202.007 62.0283V62.002ZM225.418 179.891H259.033C267.918 179.891 276.038 176.569 282.524 170.281C287.625 165.338 290.855 159.34 292.081 152.722V222.826C287.19 222.18 282.181 221.863 277.119 221.863C247.288 221.863 223.546 228.982 206.541 243.021C213.383 221.85 219.684 200.759 225.418 179.891ZM277.119 312.254C270.528 312.254 265.506 311.055 262.605 308.801C260.879 307.456 259.811 305.953 259.811 302.658C259.811 299.665 260.694 298.4 262.21 297.226C263.739 296.053 267.733 294.063 277.119 294.063C281.707 294.063 286.663 295.091 291.91 297.121C291.29 307.245 289.26 309.921 289.234 309.947C288.68 310.58 285.411 312.267 277.132 312.267L277.119 312.254Z" fill="black"/>
<path d="M26.6536 326.756C23.3844 326.756 20.5502 325.556 18.151 323.144C15.7386 320.731 14.5391 317.897 14.5391 314.628V311.438C14.5391 308.182 15.7386 305.347 18.151 302.922C20.5634 300.51 23.3976 299.31 26.6536 299.31H34.3125C35.4462 299.31 36.158 298.743 36.4348 297.609L42.1823 265.695C42.4591 264.562 41.9714 263.995 40.6927 263.995H37.7135C34.4443 263.995 31.6101 262.795 29.1978 260.383C26.7854 257.97 25.5858 255.136 25.5858 251.867V248.677C25.5858 245.421 26.7854 242.587 29.1978 240.161C31.6101 237.736 34.4443 236.549 37.7135 236.549H45.5833C46.717 236.549 47.4288 235.982 47.7057 234.849L50.6849 218.041C51.3967 214.64 53.0181 211.806 55.5755 209.526C58.1328 207.258 61.178 206.125 64.724 206.125H73.2265C76.3507 206.125 78.9345 207.337 80.9909 209.736C83.0473 212.149 83.7856 214.917 83.2187 218.028L80.2395 234.836C79.9495 235.969 80.4504 236.536 81.7291 236.536H95.1355C96.2692 236.536 96.981 235.969 97.2578 234.836L100.237 218.028C100.949 214.627 102.61 211.793 105.233 209.512C107.856 207.245 110.941 206.111 114.487 206.111H123.003C126.127 206.111 128.671 207.324 130.662 209.723C132.652 212.136 133.351 214.904 132.784 218.015L129.805 234.822C129.66 235.244 129.805 235.64 130.227 235.996C130.649 236.351 131.084 236.523 131.505 236.523H134.063C137.332 236.523 140.166 237.736 142.578 240.135C144.991 242.547 146.19 245.381 146.19 248.651V251.841C146.19 255.11 144.978 257.944 142.578 260.356C140.179 262.769 137.332 263.968 134.063 263.968H126.615C125.481 263.968 124.769 264.535 124.492 265.669L118.745 297.583C118.455 298.717 118.956 299.284 120.235 299.284H123.003C126.272 299.284 129.106 300.496 131.519 302.896C133.931 305.308 135.131 308.142 135.131 311.411V314.601C135.131 317.871 133.918 320.705 131.519 323.117C129.119 325.53 126.272 326.729 123.003 326.729H115.555C114.421 326.729 113.709 327.296 113.432 328.43L109.596 349.495C108.885 352.896 107.263 355.743 104.706 358.011C102.148 360.278 99.1034 361.412 95.5573 361.412H86.8307C83.7065 361.412 81.1623 360.212 79.1718 357.8C77.1812 355.387 76.4826 352.619 77.0494 349.508L80.6613 328.443C80.9514 327.309 80.4504 326.742 79.1718 326.742H65.7654C64.6317 326.742 63.9199 327.309 63.643 328.443L60.0311 349.508C59.3193 352.909 57.6583 355.757 55.035 358.024C52.4117 360.291 49.3271 361.425 45.7811 361.425H37.2653C34.1411 361.425 31.5574 360.225 29.5009 357.813C27.4445 355.401 26.6931 352.632 27.2731 349.521L31.1092 328.456C31.386 327.322 30.8983 326.756 29.6196 326.756H26.6404H26.6536ZM74.7425 265.695L69.206 297.609C68.916 298.743 69.4169 299.31 70.6956 299.31H84.1019C85.2356 299.31 85.9474 298.743 86.2243 297.609L91.7608 265.695C92.0377 264.562 91.5499 263.995 90.2712 263.995H76.8649C75.7312 263.995 75.0193 264.562 74.7425 265.695Z" fill="white"/>
<path d="M123.043 206.112C126.168 206.112 128.712 207.325 130.702 209.724C132.693 212.136 133.391 214.904 132.825 218.015L129.845 234.823C129.7 235.245 129.845 235.64 130.267 235.996C130.689 236.352 131.124 236.523 131.546 236.523H134.103C137.372 236.523 140.207 237.736 142.619 240.135C145.031 242.548 146.231 245.382 146.231 248.651V251.841C146.231 255.11 145.018 257.945 142.619 260.357C140.207 262.769 137.372 263.969 134.103 263.969H126.655C125.522 263.969 124.81 264.536 124.533 265.669L118.785 297.584C118.495 298.717 118.996 299.284 120.275 299.284H123.043C126.313 299.284 129.147 300.497 131.559 302.896C133.971 305.308 135.171 308.143 135.171 311.412V314.602C135.171 317.871 133.958 320.705 131.559 323.118C129.147 325.53 126.313 326.73 123.043 326.73H115.595C114.462 326.73 113.75 327.297 113.473 328.43L109.637 349.495C108.925 352.896 107.304 355.744 104.746 358.011C102.189 360.279 99.1439 361.412 95.5979 361.412H86.8712C83.747 361.412 81.2028 360.213 79.2123 357.8C77.2218 355.388 76.5231 352.62 77.0899 349.509L80.7019 328.443C80.9919 327.31 80.491 326.743 79.2123 326.743H65.8059C64.6722 326.743 63.9604 327.31 63.6836 328.443L60.0716 349.509C59.3598 352.91 57.6988 355.757 55.0755 358.024C52.4523 360.292 49.3676 361.425 45.8216 361.425H37.3058C34.1816 361.425 31.5979 360.226 29.5415 357.813C27.485 355.401 26.7337 352.633 27.3137 349.522L31.1497 328.457C31.4265 327.323 30.9388 326.756 29.6601 326.756H26.6809C23.4117 326.756 20.5775 325.556 18.1784 323.144C15.766 320.732 14.5664 317.898 14.5664 314.628V311.438C14.5664 308.182 15.766 305.348 18.1784 302.922C20.5907 300.51 23.4249 299.311 26.6809 299.311H34.3398C35.4735 299.311 36.1853 298.744 36.4622 297.61L42.2096 265.696C42.4865 264.562 41.9987 263.995 40.7201 263.995H37.7409C34.4717 263.995 31.6375 262.796 29.2251 260.383C26.8127 257.971 25.6132 255.137 25.6132 251.868V248.677C25.6132 245.421 26.8127 242.587 29.2251 240.162C31.6375 237.749 34.4717 236.55 37.7409 236.55H45.6107C46.7444 236.55 47.4562 235.983 47.733 234.849L50.7122 218.042C51.4241 214.641 53.0455 211.807 55.6028 209.526C58.1602 207.259 61.2053 206.125 64.7513 206.125H73.2539C76.3781 206.125 78.9618 207.338 81.0183 209.737C83.0747 212.149 83.8129 214.918 83.2461 218.029L80.2669 234.836C79.9769 235.97 80.4778 236.537 81.7565 236.537H95.1628C96.2965 236.537 97.0084 235.97 97.2852 234.836L100.264 218.029C100.976 214.628 102.637 211.793 105.26 209.513C107.884 207.246 110.968 206.112 114.514 206.112H123.03M70.6834 299.311H84.0897C85.2234 299.311 85.9352 298.744 86.2121 297.61L91.7486 265.696C92.0255 264.562 91.5377 263.995 90.259 263.995H76.8527C75.719 263.995 75.0071 264.562 74.7303 265.696L69.1938 297.61C68.9038 298.744 69.4047 299.311 70.6834 299.311ZM123.03 191.611H114.514C107.501 191.611 101.029 194.011 95.7824 198.545C94.7542 199.442 93.7919 200.391 92.9087 201.393C92.6318 201.037 92.3418 200.681 92.0518 200.338C87.2535 194.709 80.5701 191.625 73.2407 191.625H64.7382C57.6593 191.625 51.1604 194.063 45.9534 198.69C41.0892 203.014 37.82 208.682 36.4885 215.102L36.449 215.313L36.4094 215.524L35.223 222.181C29.0669 222.735 23.4776 225.398 18.9297 229.932C13.7887 235.073 11.0731 241.559 11.0731 248.691V251.881C11.0731 259.025 13.7887 265.511 18.9429 270.652C20.9862 272.696 23.2272 274.356 25.6527 275.609L23.9654 284.955C17.8752 285.548 12.3518 288.198 7.85664 292.693C2.71555 297.834 0 304.32 0 311.451V314.642C0 321.773 2.71555 328.272 7.86982 333.413C9.89989 335.443 12.1409 337.104 14.5532 338.356L12.9977 346.938C11.6531 354.32 13.5909 361.531 18.4684 367.252C23.2404 372.854 29.9106 375.952 37.2531 375.952H45.7689C52.7818 375.952 59.2675 373.553 64.5141 369.018C65.5291 368.148 66.465 367.226 67.3351 366.237C67.546 366.514 67.7569 366.791 67.981 367.054C72.7002 372.789 79.3968 375.952 86.8316 375.952H95.5583C102.65 375.952 109.149 373.514 114.343 368.887C119.181 364.589 122.45 358.921 123.795 352.501L123.834 352.316L123.874 352.132L125.878 341.125C131.875 340.492 137.333 337.855 141.775 333.413C146.916 328.272 149.645 321.773 149.645 314.642V311.451C149.645 304.333 146.93 297.847 141.789 292.693C139.798 290.702 137.61 289.081 135.263 287.829L136.964 278.351C142.962 277.718 148.406 275.082 152.848 270.639C157.99 265.498 160.718 258.999 160.718 251.881V248.691C160.718 241.572 158.003 235.086 152.862 229.932C150.858 227.929 148.657 226.307 146.297 225.055L147.088 220.586C148.393 213.362 146.547 206.217 141.881 200.549C137.148 194.801 130.452 191.651 123.03 191.651V191.611Z" fill="black"/>
<path d="M1868.06 375.987C1862.66 375.987 1857.74 373.913 1853.82 370.001C1849.9 366.089 1847.83 361.169 1847.83 355.775V349.27C1841.83 350.574 1836.3 351.67 1831.28 352.559C1829.91 352.841 1828.55 352.989 1827.22 352.989C1823.14 352.989 1819.38 351.7 1816.01 349.151C1815.94 349.092 1815.85 349.033 1815.78 348.958V349.64C1815.78 355.034 1813.7 359.954 1809.79 363.881C1805.89 367.793 1800.96 369.867 1795.56 369.867H1680.99C1675.55 369.867 1670.63 367.763 1666.78 363.792C1666.33 363.332 1665.92 362.873 1665.53 362.384C1664.57 365.066 1663.01 367.541 1660.91 369.719C1657.04 373.69 1652.14 375.795 1646.7 375.795H1640.13C1634.74 375.795 1629.82 373.72 1625.91 369.808C1622 365.896 1619.92 360.976 1619.92 355.567V323.915C1618.47 324.375 1616.96 324.612 1615.45 324.612C1613.45 324.612 1611.42 324.197 1609.44 323.397C1606.41 322.167 1603.96 320.196 1602.23 317.662V354.501C1602.23 359.88 1600.15 364.814 1596.24 368.726C1592.31 372.653 1587.39 374.728 1582 374.728H1565.91C1562.04 374.728 1558.54 373.276 1555.8 370.534C1554.88 369.615 1554.1 368.608 1553.48 367.526H1509.89C1509.21 368.667 1508.37 369.734 1507.35 370.697C1504.54 373.335 1501.08 374.728 1497.3 374.728H1482.26C1476.86 374.728 1471.93 372.653 1468.02 368.726C1464.1 364.814 1462.03 359.894 1462.03 354.501V318.106C1461.59 318.136 1461.14 318.151 1460.68 318.151C1459.94 318.151 1459.2 318.106 1458.44 318.017C1457.64 317.929 1456.84 317.795 1456.09 317.603V355.553C1456.09 360.947 1454.01 365.866 1450.1 369.793C1446.17 373.705 1441.25 375.78 1435.88 375.78H1427.41C1421.98 375.78 1417.06 373.676 1413.2 369.704C1409.41 365.792 1407.41 360.902 1407.41 355.553V324.478C1406.77 324.567 1406.12 324.612 1405.47 324.612C1403.47 324.612 1401.45 324.197 1399.47 323.397C1394.96 321.574 1391.75 318.136 1390.28 313.587C1387.45 317.84 1383.37 320.655 1378.42 321.781L1370.45 323.663C1368.76 324.034 1367.21 324.212 1365.68 324.212C1362.08 324.212 1358.61 323.278 1355.41 321.426C1350.82 318.788 1347.54 314.639 1345.96 309.423C1342.39 297.197 1338.22 283.727 1333.52 269.205V279.727C1333.52 337.267 1317.82 366.444 1286.83 366.444C1277.3 366.444 1265.46 364.562 1250.67 360.665C1245.27 359.257 1240.98 355.908 1238.29 350.974C1235.96 346.721 1235.19 341.994 1236.02 337.193C1234.3 342.097 1232.54 346.973 1230.73 351.818C1228.91 356.827 1225.33 360.784 1220.43 363.184C1217.58 364.577 1214.61 365.274 1211.58 365.274C1209.38 365.274 1207.15 364.903 1204.94 364.162L1199.22 362.473C1194.88 361.095 1191.39 358.427 1188.96 354.678C1188.48 356.22 1187.83 357.716 1187 359.168C1184.29 363.91 1180.09 367.259 1174.89 368.845L1165.33 371.601C1163.44 372.194 1161.51 372.49 1159.61 372.49C1156.24 372.49 1152.96 371.557 1149.91 369.719C1145.61 367.141 1142.63 363.318 1141.24 358.576C1115.06 362.769 1089.49 365.911 1065.19 367.896C1064.63 367.941 1064.02 367.971 1063.44 367.971C1059.13 367.971 1055.06 366.578 1051.56 363.925C1050.57 366.044 1049.19 368 1047.42 369.764C1043.5 373.69 1038.58 375.75 1033.18 375.75H1026.19C1020.8 375.75 1015.88 373.676 1011.96 369.764C1008.04 365.852 1005.98 360.917 1005.98 355.523V343.283C1003.15 346.291 999.412 347.921 995.189 347.921C994.774 347.921 994.344 347.906 993.914 347.877C988.639 347.477 984.149 344.765 981.23 340.26L981.082 340.023L976.636 332.614C971.02 322.996 971.568 312.831 978.118 303.91C986.372 292.737 993.01 280.823 997.93 268.39H994.226C988.832 268.39 983.912 266.316 980 262.404C976.088 258.492 974.013 253.572 974.013 248.163V244.77C974.013 239.376 976.088 234.441 980 230.529C983.912 226.617 988.832 224.542 994.226 224.542H1005.98V217.341C1003.56 217.533 1001.47 217.667 999.649 217.756C999.323 217.756 998.997 217.77 998.686 217.77C993.633 217.77 988.935 216.022 985.097 212.717C980.993 209.191 978.548 204.508 978.073 199.203L977.851 197.202C977.377 191.883 978.903 186.859 982.267 182.695C985.764 178.353 990.521 175.923 996.063 175.641C1016.33 174.115 1036.03 171.329 1054.57 167.328C1056.09 167.002 1057.65 166.824 1059.19 166.824C1062.75 166.824 1066.23 167.714 1069.53 169.477C1074.35 172.055 1077.83 176.131 1079.64 181.287L1079.73 181.554L1080.37 183.866C1082.14 189.037 1081.73 194.328 1079.12 199.158C1076.45 204.137 1072.17 207.427 1066.76 208.657C1063.47 209.457 1059.06 210.317 1053.41 211.28V224.528H1065.16C1070.56 224.528 1075.48 226.602 1079.39 230.514C1081.74 232.87 1083.43 235.597 1084.4 238.546C1089.29 220.586 1093.64 202.833 1097.42 185.407C1098.53 180.235 1101.44 175.834 1105.81 172.693C1109.5 170.04 1113.6 168.706 1118.02 168.706C1118.94 168.706 1119.87 168.766 1120.81 168.884L1131.34 170.144C1137.02 170.885 1141.62 173.76 1144.78 178.472C1147.85 183.095 1148.84 188.311 1147.64 193.587C1142.78 215.177 1137.33 236.738 1131.31 258.106C1131.86 257.884 1132.42 257.677 1132.99 257.484L1141.85 254.891C1143.79 254.298 1145.85 253.987 1147.88 253.987C1151.09 253.987 1154.27 254.772 1157.26 256.298C1162.21 258.847 1165.68 262.878 1167.34 268.005C1174.89 290.277 1181.58 312.92 1187.25 335.414C1197.42 306.889 1206.03 278.437 1212.87 250.742H1206.77C1201.37 250.742 1196.45 248.667 1192.53 244.755C1188.61 240.843 1186.54 235.923 1186.54 230.514V225.639C1186.54 220.245 1188.61 215.325 1192.53 211.413C1196.45 207.501 1201.37 205.427 1206.77 205.427H1222.77C1223.48 201.648 1224.73 194.846 1226.91 182.695C1227.78 177.435 1230.51 172.826 1234.76 169.477C1238.58 166.454 1242.94 164.928 1247.73 164.928C1248.33 164.928 1248.96 164.957 1249.59 165.002L1255.77 165.432C1261.17 165.906 1265.86 168.366 1269.38 172.559C1273.02 176.931 1274.44 182.102 1273.49 187.556C1272.84 191.971 1271.89 197.869 1270.61 205.427H1287.9C1291.32 205.427 1295.29 205.693 1299.68 206.227C1304.05 206.76 1306.94 207.146 1308.78 207.427C1309.58 207.561 1310.38 207.738 1311.21 208.005C1309.56 203.886 1309.41 199.425 1310.84 194.994C1312.45 189.882 1315.89 185.807 1320.74 183.258L1322.51 182.325H1322.97C1325.34 181.376 1327.8 180.902 1330.32 180.902C1332.34 180.902 1334.38 181.213 1336.41 181.821C1339.66 182.814 1342.46 184.473 1344.74 186.711C1346.45 181.865 1349.8 178.146 1354.48 175.908L1354.95 175.686L1355.52 175.508C1358.36 174.145 1361.34 173.448 1364.39 173.448C1366.3 173.448 1368.23 173.715 1370.16 174.263C1375.56 175.804 1379.77 179.213 1382.37 184.147C1384.97 189.126 1389.38 197.528 1389.61 198.017C1391.46 201.559 1392.19 205.367 1391.76 209.205C1392.78 206.582 1394.38 204.182 1396.53 202.092C1399.61 199.099 1403.32 197.217 1407.39 196.55V186.014C1407.39 180.665 1409.39 175.775 1413.19 171.878C1417.04 167.906 1421.96 165.802 1427.41 165.802H1435.88C1441.27 165.802 1446.19 167.877 1450.1 171.789C1454.01 175.701 1456.09 180.635 1456.09 186.029V196.447C1458.27 196.699 1460.34 197.306 1462.28 198.24C1461.84 196.565 1461.6 194.817 1461.6 193.024V189.852C1461.6 184.414 1463.7 179.494 1467.68 175.641C1471.57 171.848 1476.48 169.847 1481.83 169.847H1584.1C1589.45 169.847 1594.34 171.848 1598.26 175.641C1602.24 179.509 1604.33 184.429 1604.33 189.867V193.038C1604.33 198.432 1602.26 203.352 1598.35 207.264C1596.24 209.368 1593.86 210.924 1591.26 211.932C1594.14 215.518 1595.65 219.771 1595.65 224.365V253.172C1595.65 258.062 1593.94 262.567 1590.7 266.286C1592.68 267.264 1594.55 268.598 1596.21 270.272C1599.15 273.206 1601.03 276.689 1601.81 280.512C1603.4 278.215 1605.38 276.037 1607.77 274.036C1618.81 264.864 1627.61 254.076 1634.03 241.836H1620.65C1615.19 241.836 1610.27 239.731 1606.42 235.76C1602.64 231.863 1600.63 226.973 1600.63 221.623V216.333C1600.63 210.939 1602.66 206.049 1606.51 202.211C1610.17 198.536 1614.79 196.521 1619.91 196.343V186.059C1619.91 180.665 1621.98 175.745 1625.89 171.818C1629.81 167.906 1634.72 165.832 1640.12 165.832H1646.68C1652.12 165.832 1657.04 167.936 1660.89 171.907C1664.69 175.819 1666.69 180.709 1666.69 186.044V196.313H1667.43C1672.78 196.313 1677.68 198.314 1681.58 202.122C1683.2 203.693 1684.5 205.441 1685.48 207.323C1686.03 206.612 1686.63 205.93 1687.29 205.278C1691.2 201.366 1696.12 199.292 1701.53 199.292H1709.37C1714.74 199.292 1719.68 201.366 1723.59 205.278C1727.52 209.205 1729.58 214.125 1729.58 219.519V324.241H1730.44V187.407C1730.44 182.013 1732.51 177.094 1736.42 173.182C1740.34 169.27 1745.26 167.195 1750.66 167.195H1759.35C1764.74 167.195 1769.66 169.27 1773.59 173.182C1777.52 177.109 1779.58 182.028 1779.58 187.422V218.867H1791.96C1797.36 218.867 1802.28 220.942 1806.19 224.854C1810.12 228.781 1812.18 233.715 1812.18 239.094V243.54C1812.18 248.978 1810.07 253.898 1806.1 257.751C1802.19 261.544 1797.3 263.56 1791.95 263.56H1779.56V324.345H1795.55C1800.05 324.345 1804.22 325.782 1807.75 328.524L1807.64 327.472V327.323C1807.36 323.263 1808.5 319.41 1810.93 316.165C1812.19 314.491 1813.72 313.098 1815.44 312.031V212.762C1814.55 212.199 1813.72 211.532 1812.95 210.761C1810.29 208.109 1808.87 204.715 1808.87 200.981V191.023C1808.87 185.57 1810.98 180.665 1814.95 176.812C1818.84 173.019 1823.73 171.018 1829.08 171.018H1874.62C1881.25 171.018 1886.77 173.7 1890.57 178.679C1890.91 178.664 1891.25 178.65 1891.56 178.65H1894.61C1895.5 175.182 1897.35 172.041 1900.06 169.403C1903.95 165.624 1908.85 163.609 1914.2 163.609H1923.09C1928.49 163.609 1933.38 165.639 1937.23 169.492C1939.85 172.115 1941.63 175.227 1942.5 178.65H1944.49C1945.63 178.65 1946.74 178.739 1947.82 178.902C1948.76 175.893 1950.4 173.137 1952.71 170.751C1956.57 166.78 1961.49 164.676 1966.93 164.676H1971.16C1976.69 164.676 1981.66 166.706 1985.51 170.559C1987.2 172.248 1988.53 174.145 1989.51 176.205C1991.18 175.775 1992.89 175.553 1994.59 175.553C1997.11 175.553 1999.62 176.027 2002.06 176.975C2007.2 178.961 2011.04 182.71 2013.17 187.822C2015.35 192.772 2017.77 198.936 2020.54 206.642C2022.41 211.621 2022.21 216.822 2019.96 221.668C2019.06 223.609 2017.92 225.343 2016.54 226.839C2017.81 227.654 2019.01 228.618 2020.14 229.744C2024.05 233.671 2026.13 238.59 2026.13 243.97V244.177C2026.13 249.571 2024.05 254.491 2020.14 258.403C2018.85 259.707 2017.44 260.788 2015.95 261.678C2018.42 264.034 2020.26 266.953 2021.37 270.287C2023.07 275.385 2022.78 280.705 2020.52 285.654L2020.43 285.861C2018.29 290.262 2015.75 295.138 2012.86 300.369L2014.43 301.273C2019.03 303.866 2022.61 307.615 2025.04 312.357C2027.49 317.128 2028.41 322.167 2027.79 327.309C2026.08 342.438 2022.97 353.552 2018.27 361.199C2011.32 372.549 2002.89 374.935 1997.04 374.935C1988.21 374.935 1976.59 371.734 1967.83 357.835C1965.22 360.043 1962.14 362.591 1958.54 365.511L1958.24 365.733C1954.61 368.4 1950.58 369.749 1946.28 369.749C1945.38 369.749 1944.46 369.689 1943.56 369.571C1938.19 368.86 1933.63 366.118 1930.34 361.673L1929.52 360.546H1919.45C1918.68 362.206 1917.62 363.718 1916.29 365.051C1913.3 368.059 1909.36 369.66 1904.93 369.66H1897.95C1893.46 369.66 1889.34 368.252 1885.85 365.57C1884.95 367.215 1883.81 368.741 1882.42 370.119C1878.56 373.972 1873.61 376.002 1868.07 376.002L1868.06 375.987ZM1666.69 330.48C1666.69 330.48 1666.75 330.421 1666.76 330.391C1670.62 326.42 1675.53 324.315 1680.97 324.315H1681.3V319.233C1679.37 319.914 1677.33 320.255 1675.24 320.255C1674.5 320.255 1673.74 320.211 1672.99 320.122C1670.73 319.87 1668.61 319.277 1666.69 318.343V330.48ZM1053.38 325.738C1054.67 325.056 1056.03 324.508 1057.49 324.123L1058.17 322.196C1057.59 322.122 1057.01 322.033 1056.45 321.9C1055.38 321.678 1054.36 321.352 1053.38 320.952V325.738ZM1261.28 250.83C1255.42 275.577 1248.47 300.057 1240.54 323.93C1242.24 321.292 1244.61 319.099 1247.53 317.499C1250.57 315.839 1253.82 314.98 1257.21 314.98C1258.99 314.98 1260.81 315.217 1262.62 315.691C1271.03 317.958 1275.54 318.788 1277.9 319.084C1278.41 318.047 1279.76 314.594 1281.2 304.71C1282.34 296.871 1282.92 286.676 1282.92 274.436C1282.92 259.959 1282.37 253.839 1282 251.334C1280.92 251.097 1278.96 250.816 1275.61 250.816H1261.3L1261.28 250.83ZM1122.09 289.388C1119.07 299.183 1115.93 308.934 1112.67 318.61C1117.63 317.988 1123.43 317.217 1130.02 316.313C1127.22 306.237 1124.57 297.227 1122.09 289.388ZM1356.18 227.595C1359.28 227.595 1362.33 228.321 1365.27 229.759C1370.21 232.174 1373.8 236.234 1375.62 241.495C1380.59 255.809 1385.2 270.317 1389.4 284.78C1391.14 280.912 1393.85 277.356 1397.51 274.214C1408.21 265.293 1416.55 254.491 1422.44 241.954H1410.65C1405.25 241.954 1400.33 239.88 1396.41 235.968C1392.5 232.07 1390.43 227.136 1390.43 221.742V216.452C1390.43 215.696 1390.47 214.94 1390.55 214.199C1388.8 218.867 1385.55 222.498 1381.12 224.78L1380.42 225.254L1379.88 225.521C1377.09 226.839 1374.17 227.521 1371.19 227.521C1369 227.521 1366.78 227.151 1364.6 226.424C1361.29 225.313 1358.45 223.505 1356.17 221.09C1355.13 223.802 1353.59 226.187 1351.62 228.143C1353.08 227.803 1354.63 227.625 1356.17 227.625L1356.18 227.595ZM1072.94 277.859C1074.33 273.399 1075.68 268.939 1077 264.493C1074.1 266.657 1070.79 267.961 1067.24 268.316C1068.44 270.302 1072.38 276.911 1072.94 277.859ZM1463.47 263.826C1465.16 265.945 1466.8 268.005 1468.39 270.02C1468.43 269.976 1468.48 269.946 1468.52 269.902C1470.06 268.464 1471.74 267.294 1473.53 266.405C1470.28 262.685 1468.58 258.18 1468.58 253.29V251.705C1467.2 255.454 1465.5 259.514 1463.47 263.841V263.826ZM1676.5 262.359C1678.11 264.315 1679.73 266.301 1681.31 268.287V251.779C1679.71 255.587 1678.1 259.129 1676.5 262.359ZM1331.63 233.182C1331.82 234.249 1331.95 235.271 1332.01 236.279C1332.04 236.812 1332.09 237.435 1332.15 238.161C1333.29 236.56 1334.65 235.153 1336.18 233.997C1334.65 233.908 1333.12 233.626 1331.63 233.182ZM1473.14 211.828C1473.23 211.724 1473.32 211.621 1473.41 211.517C1473.28 211.458 1473.14 211.398 1473.03 211.324C1473.07 211.487 1473.11 211.665 1473.14 211.828ZM678.799 369.956C676.488 369.956 674.132 369.556 671.82 368.771C666.589 366.993 662.425 363.481 659.772 358.605L656.231 352.367C653.489 347.402 653.045 342.097 654.927 336.97C656.675 332.199 660.098 328.361 664.826 325.886L665.048 325.782C666.574 325.041 667.982 324.256 669.286 323.441C662.973 320.374 657.001 316.595 651.459 312.164L651.311 312.046C647.132 308.534 644.628 303.881 644.05 298.531C643.131 302.992 642.45 307.63 642.02 312.461C641.575 317.736 639.338 322.493 635.544 326.168C631.647 329.961 626.757 331.962 621.407 331.962H615.48C610.027 331.962 605.107 329.857 601.254 325.886C597.476 321.989 595.46 317.099 595.46 311.749V209.428C595.46 204.078 597.461 199.188 601.254 195.276C605.122 191.305 610.027 189.2 615.48 189.2H622.252C627.646 189.2 632.566 191.275 636.478 195.187C640.405 199.114 642.464 204.034 642.464 209.428V215.548C653.904 204.686 667.582 196.98 683.349 192.52V187.822C683.349 182.428 685.394 177.538 689.246 173.685C693.084 169.847 697.974 167.803 703.368 167.803H712.897C718.231 167.803 723.121 169.803 727.034 173.597C731.005 177.464 733.109 182.369 733.109 187.807V189.897C752.299 192.668 767.458 199.647 778.231 210.717C790.16 222.987 796.221 239.791 796.221 260.67C796.221 281.549 789.656 299.806 776.72 312.016C764.687 323.367 747.572 330.109 725.774 332.065C722.469 339.786 717.891 346.543 712.126 352.159C705.725 358.398 697.397 363.762 687.379 368.074C684.623 369.319 681.733 369.941 678.814 369.941L678.799 369.956ZM683.334 242.339C673.598 247.17 665.359 254.461 658.335 264.419C654.453 269.917 651.222 275.992 648.673 282.616L651.8 278.2C655.075 273.666 659.758 271.043 665.374 270.554C666.011 270.495 666.648 270.465 667.285 270.465C671.894 270.465 676.088 271.917 679.763 274.777C680.904 275.637 682.104 276.452 683.349 277.237V242.339H683.334ZM733.094 282.097C741.674 278.378 745.601 271.532 745.601 260.67C745.601 249.808 741.689 242.784 733.094 239.05V282.097ZM435.332 366.148C430.931 366.148 426.811 364.829 423.106 362.236C418.602 359.079 415.623 354.56 414.512 349.166C409.207 324.79 406.51 298.427 406.51 270.85C406.51 243.273 409.207 216.896 414.541 192.46C415.653 187.141 418.616 182.621 423.121 179.479C426.841 176.886 430.945 175.567 435.347 175.567C436.236 175.567 437.154 175.627 438.058 175.73L447.942 176.783C453.321 177.272 457.945 179.954 461.16 184.533C464.302 189.023 465.339 194.283 464.154 199.736C459.501 221.623 457.144 245.555 457.144 270.865C457.144 296.175 459.501 320.107 464.168 342.023C465.339 347.462 464.317 352.708 461.175 357.183C457.945 361.776 453.336 364.459 447.838 364.962L438.014 366.015C437.228 366.118 436.295 366.178 435.391 366.178L435.332 366.148ZM937.071 364.77C921.867 364.77 910.516 362.384 902.366 357.449C893.697 352.204 887.888 343.816 885.117 332.51C883.487 325.575 882.227 322.759 881.664 321.737C880.553 322.211 878.597 323.189 875.426 325.234C870.21 328.598 854.369 339.519 826.969 358.635L826.747 358.783C823.25 361.05 819.471 362.206 815.515 362.206C814.314 362.206 813.099 362.102 811.884 361.88C806.653 360.947 802.208 358.161 799.007 353.819L794.695 347.788C791.479 343.446 790.234 338.2 791.183 332.762C792.116 327.368 794.991 322.878 799.481 319.811L878.063 265.856H822.302C816.908 265.856 812.018 263.826 808.165 259.973C804.327 256.135 802.282 251.245 802.282 245.851V240.769C802.282 235.375 804.312 230.5 808.165 226.647C812.003 222.794 816.893 220.764 822.287 220.764H872.625C861.852 219.875 850.827 218.793 839.58 217.533H839.432C834.082 216.807 829.489 214.184 826.14 209.902C822.746 205.59 821.324 200.433 822.035 195.024L822.657 189.986C823.369 184.503 826.11 179.894 830.57 176.605C834.334 173.834 838.543 172.426 843.092 172.426C843.714 172.426 844.351 172.456 845.003 172.515H845.211C871.084 175.449 896.75 177.153 921.526 177.568H921.734C926.95 177.79 931.721 179.88 935.53 183.569C939.501 187.422 941.605 192.342 941.605 197.78V203.5C941.605 208.85 939.605 213.74 935.811 217.652C934.626 218.882 933.336 219.919 931.958 220.764H937.693C943.087 220.764 947.977 222.794 951.83 226.647C955.668 230.485 957.713 235.375 957.713 240.769V250.297C957.713 261.114 953.134 270.02 944.48 276.052L922.46 291.507C925.542 295.701 927.972 301.613 929.75 309.23C931.158 315.009 932.388 317.128 932.788 317.736C933.396 317.973 935.485 318.61 940.657 318.61C944.628 318.61 948.436 318.358 951.993 317.84C953.06 317.706 954.038 317.632 955.001 317.632C959.121 317.632 963.003 318.788 966.545 321.055C971.198 324.049 974.176 328.435 975.139 333.755L976.177 338.912C977.318 344.202 976.28 349.522 973.139 354.175C969.997 358.828 965.463 361.776 960.054 362.725L959.802 362.769C950.437 364.103 942.998 364.755 937.056 364.755L937.071 364.77ZM533.86 359.257C511.943 359.257 494.354 354.782 481.58 345.95C467.858 336.466 460.908 323.456 460.908 307.259C460.908 300.887 462.761 293.893 466.569 285.876C470.111 278.422 474.986 271.013 481.062 263.871C484.603 259.618 489.553 257.232 495.302 256.995C495.628 256.995 495.954 256.98 496.28 256.98C501.289 256.98 505.838 258.536 509.78 261.618L514.729 265.278C519.115 268.687 521.62 273.443 521.99 279.015C522.331 284.231 520.82 289.151 517.648 293.241C510.773 301.954 510.684 305.051 510.684 305.17C510.684 307.022 511.128 308.193 513.588 309.423C516.181 310.727 521.812 312.268 533.875 312.268C544.114 312.268 555.332 311.231 567.231 309.2C568.431 308.993 569.646 308.889 570.832 308.889C574.877 308.889 578.671 310.075 582.094 312.416C586.584 315.498 589.459 319.974 590.392 325.367L590.437 325.649L591.267 331.695C592.126 337.074 590.985 342.29 587.947 346.78C584.821 351.404 580.345 354.352 574.966 355.316C561.674 357.938 547.848 359.272 533.86 359.272V359.257ZM499.348 235.582C493.954 235.582 489.019 233.508 485.107 229.581C481.195 225.684 479.12 220.749 479.12 215.355V209.635C479.12 204.241 481.195 199.321 485.107 195.409C489.019 191.497 493.939 189.423 499.333 189.423H566.89C572.284 189.423 577.204 191.497 581.116 195.409C585.043 199.336 587.103 204.256 587.103 209.65V215.37C587.103 220.764 585.028 225.684 581.116 229.596C577.204 233.508 572.269 235.582 566.875 235.582H499.318H499.348Z" fill="white"/>
<path d="M1923.12 171.731C1926.37 171.731 1929.15 172.901 1931.5 175.228C1933.82 177.554 1934.99 180.34 1934.99 183.585V184.86C1934.99 186.134 1935.63 186.771 1936.9 186.771H1944.54C1948.77 186.771 1952.02 188.461 1954.27 191.854C1954.35 191.884 1954.4 191.913 1954.48 191.913C1954.69 191.913 1954.89 191.75 1955.12 191.439V184.875C1955.12 181.629 1956.29 178.814 1958.61 176.398C1960.94 173.998 1963.73 172.798 1966.97 172.798H1971.21C1974.59 172.798 1977.46 173.968 1979.79 176.295C1982.12 178.621 1983.29 181.481 1983.29 184.875V185.719C1983.29 186.594 1983.55 187.038 1984.1 187.038C1984.34 187.038 1984.63 186.949 1984.99 186.771L1989.87 184.652C1991.47 184 1993.05 183.674 1994.65 183.674C1996.16 183.674 1997.68 183.971 1999.19 184.549C2002.28 185.749 2004.48 187.898 2005.75 191.009C2007.87 195.811 2010.27 201.946 2012.95 209.444C2014.08 212.407 2013.98 215.341 2012.63 218.231C2011.28 221.135 2009.13 223.136 2006.17 224.277C2004.83 224.81 2003.51 225.077 2002.18 225.077C2000.68 225.077 1999.19 224.736 1997.69 224.07C1994.86 222.795 1992.89 220.75 1991.76 217.935C1990.06 213.415 1987.52 206.925 1984.13 198.448C1983.98 198.167 1983.8 198.033 1983.6 198.033C1983.39 198.033 1983.27 198.182 1983.27 198.448C1983.4 209.177 1983.63 219.624 1983.91 229.789C1983.91 231.197 1984.55 231.909 1985.82 231.909H2005.94C2009.19 231.909 2012 233.109 2014.42 235.509C2016.82 237.91 2018.02 240.725 2018.02 243.986V244.193C2018.02 247.438 2016.82 250.269 2014.42 252.669C2012.02 255.07 2009.2 256.27 2005.94 256.27H1986.46C1985.33 256.27 1984.77 256.833 1984.77 257.959C1984.9 262.909 1985.26 269.118 1985.82 276.601C1985.82 276.883 1985.95 277.031 1986.24 277.031C1986.52 277.031 1986.72 276.957 1986.87 276.823C1987.3 275.979 1987.89 274.734 1988.68 273.119C1989.45 271.503 1989.98 270.333 1990.27 269.622C1991.67 266.791 1993.94 264.85 1997.04 263.798C1998.3 263.368 1999.53 263.161 2000.74 263.161C2002.52 263.161 2004.25 263.62 2005.93 264.539L2007.62 265.591C2010.58 267.28 2012.6 269.725 2013.65 272.896C2014.72 276.068 2014.52 279.224 2013.12 282.321C2010.29 288.115 2006.83 294.605 2002.74 301.807C2002.18 302.933 2002.39 303.793 2003.38 304.356L2010.37 308.372C2013.62 310.209 2016.09 312.788 2017.78 316.107C2019.47 319.426 2020.11 322.85 2019.7 326.376C2018.14 340.217 2015.35 350.412 2011.32 356.976C2007.31 363.541 2002.54 366.816 1997.02 366.816C1985.45 366.816 1976.77 359.97 1970.97 346.278C1970.65 345.7 1970.29 345.418 1969.91 345.418C1969.64 345.418 1969.36 345.566 1969.06 345.863C1965.95 348.826 1960.73 353.272 1953.38 359.199C1951.17 360.829 1948.79 361.644 1946.24 361.644C1945.69 361.644 1945.14 361.6 1944.58 361.526C1941.41 361.111 1938.83 359.54 1936.86 356.858L1934.74 353.894C1934.03 352.901 1933.05 352.412 1931.78 352.412H1914C1913.15 352.412 1912.72 352.842 1912.72 353.687C1912.72 355.939 1911.98 357.821 1910.5 359.303C1909.02 360.785 1907.15 361.526 1904.88 361.526H1897.9C1894.66 361.526 1891.87 360.355 1889.53 358.029C1887.2 355.702 1886.03 352.916 1886.03 349.671V276.823C1886.03 273.578 1887.2 270.763 1889.53 268.347C1891.86 265.947 1894.64 264.746 1897.9 264.746H1940.68C1943.93 264.746 1946.74 265.947 1949.16 268.347C1951.56 270.748 1952.76 273.563 1952.76 276.823V323.413C1952.76 323.694 1952.86 323.902 1953.09 324.05C1953.19 324.124 1953.31 324.154 1953.43 324.154C1953.55 324.154 1953.68 324.124 1953.83 324.05C1956.64 321.368 1959.19 318.611 1961.44 315.796C1962.29 314.951 1962.57 313.958 1962.29 312.832C1960.04 298.992 1958.26 280.721 1957 257.989C1957 256.863 1956.36 256.3 1955.09 256.3H1888.8C1885.97 256.3 1883.51 255.455 1881.39 253.751C1881.2 253.573 1881.02 253.469 1880.83 253.469C1880.74 253.469 1880.64 253.499 1880.55 253.544C1880.27 253.677 1880.12 253.899 1880.12 254.181V355.835C1880.12 359.229 1878.95 362.089 1876.62 364.415C1874.3 366.742 1871.44 367.913 1868.04 367.913C1864.65 367.913 1861.97 366.712 1859.57 364.312C1857.17 361.911 1855.97 359.096 1855.97 355.835V341.017C1855.97 339.98 1855.58 339.461 1854.82 339.461C1854.66 339.461 1854.47 339.491 1854.26 339.535C1845.09 341.654 1836.89 343.343 1829.69 344.618C1828.83 344.811 1828 344.899 1827.19 344.899C1824.92 344.899 1822.83 344.173 1820.91 342.706C1818.3 340.735 1816.85 338.113 1816.56 334.867L1815.72 326.821C1815.57 324.702 1816.13 322.79 1817.41 321.101C1818.68 319.412 1820.37 318.345 1822.49 317.93C1823.2 317.648 1823.54 317.219 1823.54 316.655V207.532C1823.54 206.969 1823.26 206.687 1822.7 206.687C1821.14 206.687 1819.79 206.124 1818.67 204.998C1817.54 203.872 1816.98 202.523 1816.98 200.968V191.009C1816.98 187.764 1818.18 184.978 1820.58 182.652C1822.98 180.325 1825.8 179.155 1829.06 179.155H1874.59C1879.68 179.155 1883.35 181.481 1885.6 186.149C1885.93 186.92 1886.52 187.305 1887.35 187.305C1887.59 187.305 1887.86 187.275 1888.14 187.201C1889.54 186.92 1890.69 186.786 1891.53 186.786H1900.42C1901.55 186.786 1902.11 186.149 1902.11 184.875V183.6C1902.11 180.355 1903.31 177.569 1905.71 175.243C1908.11 172.916 1910.93 171.745 1914.19 171.745H1923.08M1947.22 231.894H1953.99C1955.12 231.894 1955.69 231.182 1955.69 229.775C1955.55 227.226 1955.44 223.418 1955.37 218.335C1955.29 213.252 1955.26 209.37 1955.26 206.687C1955.26 206.554 1955.13 206.48 1954.85 206.48C1954.57 206.48 1954.36 206.554 1954.21 206.687C1952.66 208.806 1951.04 210.214 1949.34 210.926C1948.21 211.489 1947.78 212.2 1948.06 213.045C1948.77 215.445 1948.83 217.772 1948.27 220.024C1947.99 221.15 1947.6 222.81 1947.1 225.003C1946.61 227.196 1946.23 228.856 1945.93 229.982C1945.65 231.256 1946.06 231.894 1947.2 231.894M1848.51 225.966H1854.23C1855.36 225.966 1855.92 225.329 1855.92 224.055V208.377C1855.92 207.251 1855.36 206.687 1854.23 206.687H1848.51C1847.39 206.687 1846.82 207.251 1846.82 208.377V224.055C1846.82 225.329 1847.39 225.966 1848.51 225.966ZM1880.85 234.68C1881.01 234.68 1881.17 234.605 1881.34 234.428C1883.45 232.738 1885.93 231.879 1888.74 231.879H1890.23C1891.35 231.879 1891.78 231.242 1891.5 229.967C1890.94 227.715 1890.09 224.455 1888.95 220.232C1888.39 218.112 1888.31 215.786 1888.74 213.237C1888.88 212.393 1888.39 211.681 1887.26 211.118C1885.43 210.555 1883.87 209.488 1882.59 207.947C1882.09 207.251 1881.57 206.91 1881.01 206.91C1880.77 206.91 1880.52 206.969 1880.27 207.102C1880.12 207.102 1880.06 207.251 1880.06 207.532V233.79C1880.06 234.072 1880.19 234.324 1880.49 234.531C1880.61 234.62 1880.73 234.665 1880.85 234.665M1918.81 231.879H1919.45C1920.72 231.879 1921.49 231.316 1921.77 230.19C1923.46 224.677 1924.95 219.179 1926.22 213.667C1926.5 212.541 1926.07 211.963 1924.95 211.963H1913.73C1912.6 211.963 1912.17 212.526 1912.45 213.667C1913.45 217.342 1914.78 222.84 1916.48 230.19C1916.77 231.316 1917.54 231.879 1918.81 231.879ZM1848.5 268.94H1854.22C1855.34 268.94 1855.91 268.303 1855.91 267.028V250.935C1855.91 249.809 1855.34 249.231 1854.22 249.231H1848.5C1847.37 249.231 1846.81 249.794 1846.81 250.935V267.028C1846.81 268.303 1847.37 268.94 1848.5 268.94ZM1914.57 298.799H1925.58C1926.86 298.799 1927.49 298.236 1927.49 297.095V289.478C1927.49 288.352 1926.86 287.774 1925.58 287.774H1914.57C1913.3 287.774 1912.66 288.337 1912.66 289.478V297.095C1912.66 298.221 1913.3 298.799 1914.57 298.799ZM1847.93 312.64C1848.1 312.64 1848.29 312.61 1848.5 312.566C1849.21 312.432 1850.13 312.21 1851.25 311.928C1852.38 311.647 1853.3 311.439 1854.01 311.291C1855.28 311.01 1855.92 310.224 1855.92 308.965V293.939C1855.92 292.812 1855.36 292.235 1854.23 292.235H1848.51C1847.39 292.235 1846.82 292.798 1846.82 293.939V311.084C1846.82 312.121 1847.19 312.64 1847.95 312.64M1995.26 332.467C1996.82 332.467 1998.51 323.916 2000.34 306.846C2000.34 306.564 2000.27 306.416 2000.13 306.416C2000 306.416 1999.85 306.49 1999.72 306.623C1997.04 310.995 1994.28 315.233 1991.47 319.338C1990.76 320.182 1990.55 321.249 1990.83 322.509C1992.24 329.147 1993.72 332.467 1995.27 332.467M1914.59 330.14H1925.6C1926.87 330.14 1927.51 329.503 1927.51 328.229V320.612C1927.51 319.338 1926.87 318.7 1925.6 318.7H1914.59C1913.31 318.7 1912.68 319.338 1912.68 320.612V328.229C1912.68 329.503 1913.31 330.14 1914.59 330.14ZM1247.67 173.168C1248.05 173.168 1248.45 173.183 1248.85 173.212L1254.99 173.627C1258.23 173.909 1260.91 175.317 1263.03 177.865C1265.15 180.414 1265.92 183.23 1265.36 186.342C1264.52 192.136 1263.11 200.671 1261.12 211.963C1260.84 213.089 1261.33 213.667 1262.6 213.667H1287.8C1290.89 213.667 1294.51 213.919 1298.6 214.408C1302.69 214.897 1305.62 215.282 1307.39 215.579C1309.15 215.86 1311.27 216.779 1313.73 218.335C1316.2 219.891 1317.82 221.195 1318.6 222.247C1319.37 223.299 1320.4 225.418 1321.67 228.604C1322.95 231.79 1323.64 234.502 1323.79 236.754C1323.92 239.007 1324.22 242.756 1324.63 247.972C1325.05 253.188 1325.27 257.856 1325.27 261.946V279.728C1325.27 332.111 1312.42 358.295 1286.73 358.295C1277.97 358.295 1266.61 356.458 1252.63 352.783C1249.39 351.938 1246.94 350.027 1245.33 347.063C1243.71 344.099 1243.31 340.928 1244.16 337.535L1245.86 331.607C1246.7 328.51 1248.54 326.169 1251.37 324.613C1253.19 323.605 1255.12 323.101 1257.12 323.101C1258.22 323.101 1259.33 323.25 1260.49 323.546C1269.94 326.095 1276.37 327.354 1279.75 327.354C1281.72 327.354 1283.48 325.843 1285.04 322.805C1286.6 319.767 1287.96 314.121 1289.17 305.868C1290.37 297.614 1290.97 287.122 1290.97 274.423C1290.97 258.463 1290.33 249.187 1289.06 246.579C1287.78 243.971 1283.26 242.667 1275.5 242.667H1256.65C1255.37 242.667 1254.6 243.23 1254.32 244.356C1245.99 280.35 1235.55 315.233 1222.98 348.975C1221.85 352.072 1219.76 354.368 1216.73 355.85C1215.01 356.695 1213.24 357.11 1211.45 357.11C1210.09 357.11 1208.71 356.873 1207.3 356.384L1201.58 354.694C1198.47 353.702 1196.22 351.701 1194.81 348.649C1193.4 345.611 1193.25 342.543 1194.38 339.431C1205.95 307.097 1215.42 275.341 1222.76 244.134C1223.04 243.141 1222.55 242.652 1221.28 242.652H1206.66C1203.42 242.652 1200.59 241.452 1198.19 239.051C1195.79 236.65 1194.59 233.835 1194.59 230.575V225.7C1194.59 222.454 1195.79 219.639 1198.19 217.223C1200.59 214.823 1203.4 213.623 1206.66 213.623H1227.63C1228.76 213.623 1229.47 212.985 1229.75 211.711C1230.17 209.873 1231.87 200.701 1234.83 184.178C1235.4 180.8 1237.03 178.043 1239.71 175.924C1242.07 174.057 1244.72 173.124 1247.64 173.124M1646.58 174.013C1649.83 174.013 1652.61 175.213 1654.94 177.614C1657.27 180.014 1658.44 182.83 1658.44 186.09V202.612C1658.44 203.887 1659.07 204.524 1660.35 204.524H1667.33C1670.57 204.524 1673.4 205.695 1675.8 208.021C1678.2 210.348 1679.4 213.133 1679.4 216.379V221.669C1679.4 230.145 1678 237.91 1675.17 244.964C1672.62 251.321 1670.08 256.892 1667.53 261.694C1667.12 262.82 1667.18 263.813 1667.74 264.657C1674.38 272.57 1680.72 280.676 1686.8 289.004C1688.77 291.834 1689.58 294.902 1689.23 298.221C1688.87 301.541 1687.44 304.401 1684.89 306.801L1682.13 309.35C1680.07 311.158 1677.74 312.077 1675.11 312.077C1674.66 312.077 1674.22 312.047 1673.76 312.002C1670.59 311.662 1668.07 310.209 1666.24 307.661C1665.96 307.246 1664.97 305.868 1663.28 303.526C1661.58 301.2 1660.32 299.392 1659.47 298.132C1659.38 297.94 1659.25 297.851 1659.09 297.851C1659.01 297.851 1658.92 297.88 1658.84 297.925C1658.55 298.073 1658.42 298.28 1658.42 298.562V355.524C1658.42 358.77 1657.25 361.6 1654.92 364C1652.6 366.401 1649.81 367.601 1646.57 367.601H1640C1636.76 367.601 1633.93 366.401 1631.53 364C1629.12 361.6 1627.92 358.77 1627.92 355.524V309.365C1627.92 309.083 1627.78 308.876 1627.49 308.728C1627.35 308.653 1627.21 308.624 1627.06 308.624C1626.92 308.624 1626.78 308.653 1626.65 308.728C1623.54 311.558 1621.21 313.603 1619.66 314.862C1618.26 315.9 1616.81 316.433 1615.28 316.433C1614.34 316.433 1613.36 316.226 1612.35 315.826C1609.73 314.773 1608.14 312.832 1607.58 310.002L1605.46 299.199C1604.19 291.864 1606.66 285.581 1612.87 280.35C1627.84 267.932 1638.85 252.891 1645.9 235.243C1646.18 234.25 1645.82 233.761 1644.83 233.761H1620.49C1617.24 233.761 1614.44 232.561 1612.11 230.16C1609.79 227.759 1608.62 224.944 1608.62 221.684V216.394C1608.62 213.148 1609.79 210.362 1612.11 208.036C1614.44 205.709 1617.23 204.539 1620.49 204.539H1626.21C1627.33 204.539 1627.91 203.902 1627.91 202.627V186.105C1627.91 182.859 1629.11 180.044 1631.51 177.628C1633.91 175.228 1636.73 174.028 1639.99 174.028H1646.55M1435.73 174.028C1438.97 174.028 1441.79 175.228 1444.2 177.628C1446.61 180.029 1447.81 182.845 1447.81 186.105V202.627C1447.81 203.902 1448.44 204.539 1449.72 204.539H1453.53C1456.77 204.539 1459.57 205.709 1461.9 208.036C1464.22 210.362 1465.4 213.148 1465.4 216.394V221.684C1465.4 230.723 1464.27 238.621 1462.02 245.408C1460.33 250.624 1457.85 256.566 1454.61 263.19C1454.18 264.317 1454.25 265.309 1454.81 266.154C1460.03 272.659 1464.77 278.646 1469.01 284.158C1469.11 284.396 1469.28 284.499 1469.49 284.499C1469.53 284.499 1469.59 284.499 1469.65 284.484C1469.93 284.41 1470.06 284.233 1470.06 283.951C1470.34 280.706 1471.65 277.979 1473.98 275.801C1476.3 273.608 1479.01 272.511 1482.13 272.511H1581.87C1585.11 272.511 1587.93 273.711 1590.34 276.112C1592.75 278.513 1593.95 281.343 1593.95 284.588V354.472C1593.95 357.717 1592.75 360.533 1590.34 362.948C1587.94 365.349 1585.13 366.549 1581.87 366.549H1565.78C1564.09 366.549 1562.63 365.942 1561.43 364.756C1560.23 363.571 1559.64 362.104 1559.64 360.414C1559.64 359.703 1559.36 359.347 1558.8 359.347H1504.37C1503.8 359.347 1503.52 359.703 1503.52 360.414C1503.52 362.104 1502.89 363.556 1501.61 364.756C1500.34 365.956 1498.86 366.549 1497.17 366.549H1482.13C1478.88 366.549 1476.05 365.349 1473.65 362.948C1471.25 360.548 1470.05 357.732 1470.05 354.472V306.608C1470.05 306.327 1469.9 306.119 1469.63 305.971C1469.54 305.927 1469.44 305.897 1469.35 305.897C1469.16 305.897 1468.98 305.986 1468.79 306.179L1467.51 307.231C1465.45 309.054 1463.14 309.957 1460.56 309.957C1460.13 309.957 1459.7 309.928 1459.26 309.883C1456.15 309.528 1453.67 308.09 1451.85 305.542C1451.44 304.978 1450.44 303.63 1448.89 301.511C1448.67 301.289 1448.46 301.17 1448.28 301.17C1448.24 301.17 1448.19 301.17 1448.15 301.185C1447.94 301.259 1447.84 301.437 1447.84 301.718V355.509C1447.84 358.755 1446.64 361.585 1444.23 363.986C1441.83 366.386 1439.02 367.587 1435.76 367.587H1427.28C1424.04 367.587 1421.24 366.386 1418.91 363.986C1416.58 361.585 1415.41 358.755 1415.41 355.509V311.676C1415.41 311.395 1415.23 311.187 1414.88 311.039C1414.76 310.995 1414.64 310.965 1414.54 310.965C1414.32 310.965 1414.11 311.054 1413.93 311.247C1413.52 311.662 1412.8 312.269 1411.81 313.04C1410.82 313.81 1410.11 314.418 1409.69 314.833C1408.3 315.87 1406.85 316.404 1405.32 316.404C1404.37 316.404 1403.39 316.196 1402.39 315.796C1399.76 314.744 1398.18 312.803 1397.62 309.972L1395.5 299.17C1394.22 291.834 1396.62 285.551 1402.7 280.32C1417.1 268.318 1427.47 253.292 1433.83 235.213C1434.11 234.22 1433.68 233.731 1432.56 233.731H1410.54C1407.29 233.731 1404.46 232.531 1402.06 230.13C1399.66 227.73 1398.46 224.914 1398.46 221.654V216.364C1398.46 213.119 1399.66 210.333 1402.06 208.006C1404.46 205.68 1407.28 204.509 1410.54 204.509H1413.5C1414.78 204.509 1415.41 203.872 1415.41 202.598V186.075C1415.41 182.83 1416.58 180.014 1418.91 177.599C1421.24 175.198 1424.02 173.998 1427.28 173.998H1435.76M1547.79 307.424H1557.95C1559.08 307.424 1559.66 306.86 1559.66 305.719V298.31C1559.66 297.184 1559.09 296.621 1557.95 296.621H1547.79C1546.51 296.621 1545.87 297.184 1545.87 298.31V305.719C1545.87 306.846 1546.51 307.424 1547.79 307.424ZM1505.21 307.424H1515.17C1516.44 307.424 1517.08 306.86 1517.08 305.719V298.31C1517.08 297.184 1516.44 296.621 1515.17 296.621H1505.21C1504.09 296.621 1503.52 297.184 1503.52 298.31V305.719C1503.52 306.846 1504.09 307.424 1505.21 307.424ZM1547.79 337.075H1557.95C1559.08 337.075 1559.66 336.512 1559.66 335.386V327.754C1559.66 326.628 1559.09 326.065 1557.95 326.065H1547.79C1546.51 326.065 1545.87 326.628 1545.87 327.754V335.386C1545.87 336.512 1546.51 337.075 1547.79 337.075ZM1505.21 337.075H1515.17C1516.44 337.075 1517.08 336.512 1517.08 335.386V327.754C1517.08 326.628 1516.44 326.065 1515.17 326.065H1505.21C1504.09 326.065 1503.52 326.628 1503.52 327.754V335.386C1503.52 336.512 1504.09 337.075 1505.21 337.075ZM1059.04 174.961C1061.27 174.961 1063.43 175.524 1065.55 176.665C1068.59 178.295 1070.66 180.725 1071.8 183.971L1072.44 186.297C1073.56 189.409 1073.36 192.402 1071.8 195.292C1070.25 198.182 1067.92 199.989 1064.82 200.701C1060.72 201.694 1054.73 202.82 1046.82 204.079C1045.69 204.361 1045.11 205.072 1045.11 206.198V230.975C1045.11 232.101 1045.68 232.664 1046.82 232.664H1065.03C1068.27 232.664 1071.11 233.865 1073.51 236.265C1075.91 238.666 1077.11 241.496 1077.11 244.741V248.12C1077.11 251.365 1075.91 254.196 1073.51 256.596C1071.11 258.997 1068.27 260.197 1065.03 260.197H1054.43C1054.02 260.197 1053.69 260.375 1053.49 260.73C1053.28 261.086 1053.31 261.397 1053.59 261.679C1056.14 265.784 1059.59 271.489 1063.96 278.839C1068.33 286.174 1071.02 290.634 1072.01 292.175C1073.42 294.576 1074.13 296.902 1074.13 299.17C1074.13 299.318 1074.2 299.377 1074.34 299.377C1074.47 299.377 1074.54 299.303 1074.54 299.17C1087.11 260.908 1097.33 223.566 1105.25 187.142C1105.94 183.897 1107.68 181.289 1110.43 179.303C1112.7 177.673 1115.18 176.858 1117.87 176.858C1118.45 176.858 1119.04 176.902 1119.64 176.976L1130.23 178.251C1133.48 178.666 1136.02 180.266 1137.86 183.008C1139.7 185.764 1140.26 188.698 1139.55 191.795C1129.25 237.54 1116.46 282.425 1101.22 326.48C1100.93 327.473 1101.29 327.962 1102.27 327.962C1110.18 327.117 1122.17 325.561 1138.26 323.294C1139.54 323.013 1140.03 322.375 1139.74 321.383C1135.37 305.29 1131.34 291.671 1127.67 280.513C1126.54 277.268 1126.75 274.156 1128.3 271.192C1129.86 268.229 1132.19 266.258 1135.3 265.265L1143.98 262.716C1145.24 262.331 1146.49 262.138 1147.72 262.138C1149.64 262.138 1151.54 262.612 1153.41 263.561C1156.44 265.117 1158.46 267.443 1159.44 270.555C1167.91 295.539 1175.18 320.597 1181.25 345.729C1181.96 348.975 1181.46 352.086 1179.77 355.05C1178.06 358.014 1175.6 359.985 1172.36 360.977L1162.83 363.734C1161.69 364.104 1160.56 364.282 1159.45 364.282C1157.56 364.282 1155.72 363.749 1153.94 362.682C1151.11 360.992 1149.35 358.518 1148.65 355.272C1148.5 354.843 1148.32 354.146 1148.12 353.153C1147.91 352.161 1147.72 351.464 1147.58 351.034C1147.35 349.997 1146.84 349.478 1146.04 349.478C1145.86 349.478 1145.67 349.508 1145.46 349.552C1117.37 354.205 1090.32 357.599 1064.35 359.718C1063.98 359.748 1063.62 359.762 1063.27 359.762C1060.45 359.762 1057.93 358.799 1055.68 356.858C1053.13 354.665 1051.8 351.953 1051.66 348.708L1051.46 343.195C1051.31 340.098 1052.2 337.446 1054.11 335.253C1056.02 333.059 1058.52 331.83 1061.62 331.548C1062.6 331.548 1063.38 330.985 1063.95 329.859L1071.58 308.253C1071.58 308.12 1071.53 307.972 1071.48 307.838C1071.43 307.764 1071.39 307.735 1071.34 307.735C1071.3 307.735 1071.22 307.764 1071.16 307.838C1070.6 308.683 1069.89 309.394 1069.05 309.957L1066.08 312.077C1064.3 313.44 1062.36 314.121 1060.27 314.121C1059.55 314.121 1058.81 314.033 1058.04 313.87C1055.07 313.232 1052.95 311.513 1051.68 308.683C1050.97 306.979 1049.91 304.652 1048.51 301.689C1047.1 298.725 1046.18 296.754 1045.75 295.761C1045.62 295.628 1045.47 295.554 1045.34 295.554C1045.2 295.554 1045.13 295.687 1045.13 295.969V355.48C1045.13 358.725 1043.93 361.555 1041.53 363.956C1039.13 366.357 1036.31 367.557 1033.05 367.557H1026.06C1022.81 367.557 1019.98 366.357 1017.58 363.956C1015.18 361.555 1013.98 358.725 1013.98 355.48V310.595C1013.98 310.313 1013.91 310.165 1013.77 310.165C1013.64 310.165 1013.49 310.239 1013.34 310.372C1009.82 319.841 1005.65 328.51 1000.85 336.423C999.413 338.631 997.487 339.728 995.042 339.728C994.834 339.728 994.612 339.728 994.39 339.698C991.633 339.491 989.485 338.187 987.929 335.786L983.483 328.377C979.527 321.605 979.883 315.04 984.536 308.683C995.264 294.146 1003.31 278.616 1008.67 262.094C1008.96 260.819 1008.53 260.182 1007.4 260.182H994.064C990.819 260.182 987.988 258.982 985.588 256.581C983.187 254.181 981.987 251.365 981.987 248.105V244.726C981.987 241.481 983.187 238.651 985.588 236.25C987.988 233.85 990.804 232.649 994.064 232.649H1012.28C1013.4 232.649 1013.96 232.086 1013.96 230.96V210.199C1013.96 209.073 1013.4 208.51 1012.28 208.51C1006.76 209.073 1002.39 209.429 999.146 209.562C998.939 209.562 998.732 209.562 998.524 209.562C995.397 209.562 992.641 208.54 990.255 206.48C987.707 204.302 986.299 201.575 986.017 198.33L985.81 196.418C985.528 193.173 986.403 190.283 988.448 187.735C990.492 185.186 993.145 183.852 996.39 183.719C1017.14 182.163 1037.05 179.347 1056.11 175.243C1057.09 175.035 1058.06 174.917 1059.01 174.917M1759.19 175.243C1762.43 175.243 1765.26 176.443 1767.66 178.844C1770.06 181.244 1771.26 184.06 1771.26 187.32V225.225C1771.26 226.352 1771.83 226.915 1772.95 226.915H1791.8C1795.05 226.915 1797.86 228.115 1800.28 230.516C1802.68 232.916 1803.88 235.746 1803.88 238.992V243.437C1803.88 246.683 1802.68 249.468 1800.28 251.795C1797.88 254.121 1795.06 255.292 1791.8 255.292H1772.95C1771.83 255.292 1771.26 255.929 1771.26 257.204V330.481C1771.26 331.755 1771.83 332.393 1772.95 332.393H1795.4C1798.65 332.393 1801.48 333.593 1803.88 335.994C1806.28 338.394 1807.48 341.21 1807.48 344.47V349.552C1807.48 352.798 1806.28 355.613 1803.88 358.029C1801.48 360.429 1798.66 361.629 1795.4 361.629H1680.83C1677.58 361.629 1674.8 360.429 1672.47 358.029C1670.14 355.628 1668.97 352.812 1668.97 349.552V344.47C1668.97 341.224 1670.14 338.409 1672.47 335.994C1674.8 333.593 1677.58 332.393 1680.83 332.393H1687.61C1688.74 332.393 1689.3 331.755 1689.3 330.481V219.505C1689.3 216.26 1690.5 213.445 1692.9 211.029C1695.3 208.629 1698.12 207.428 1701.38 207.428H1709.22C1712.46 207.428 1715.28 208.629 1717.69 211.029C1720.1 213.43 1721.3 216.245 1721.3 219.505V330.481C1721.3 331.755 1721.93 332.393 1723.21 332.393H1736.54C1737.82 332.393 1738.46 331.755 1738.46 330.481V187.409C1738.46 184.163 1739.66 181.348 1742.06 178.932C1744.46 176.532 1747.27 175.332 1750.53 175.332H1759.22M712.765 175.969C716.01 175.969 718.825 177.139 721.241 179.466C723.641 181.792 724.842 184.578 724.842 187.824V195.455C724.842 196.448 725.479 197.085 726.753 197.367C746.654 199.352 761.828 205.695 772.29 216.423C782.737 227.152 787.968 241.911 787.968 260.686C787.968 279.461 782.322 295.45 771.031 306.105C759.739 316.774 743.291 322.805 721.685 324.213C720.559 324.213 719.774 324.776 719.359 325.902C716.395 333.949 712.053 340.765 706.333 346.337C700.613 351.909 693.175 356.68 683.987 360.637C682.253 361.422 680.505 361.807 678.712 361.807C677.274 361.807 675.837 361.555 674.355 361.052C671.036 359.925 668.531 357.806 666.842 354.694L663.241 348.337C661.685 345.507 661.448 342.662 662.5 339.757C663.552 336.868 665.568 334.645 668.531 333.089C674.888 329.992 679.675 326.243 682.935 321.872C683.78 321.027 683.498 320.39 682.09 319.96C672.769 316.715 664.234 311.988 656.469 305.764C653.787 303.511 652.305 300.651 652.024 297.184C651.742 293.731 652.661 290.664 654.78 287.967L658.381 282.884C660.218 280.335 662.752 278.928 666.012 278.646C666.412 278.616 666.812 278.587 667.213 278.587C669.969 278.587 672.473 279.446 674.696 281.18C679.215 284.573 684.224 287.389 689.737 289.656C689.885 289.701 690.018 289.73 690.152 289.73C690.418 289.73 690.67 289.641 690.907 289.449C691.263 289.167 691.441 288.811 691.441 288.382V232.264C691.441 231.36 691.041 230.916 690.226 230.916C690.018 230.916 689.796 230.945 689.544 231.005C674.296 235.954 661.656 245.512 651.638 259.693C641.621 273.874 635.679 291.212 633.856 311.676C633.575 315.07 632.226 317.93 629.825 320.256C627.425 322.583 624.609 323.753 621.349 323.753H615.422C612.177 323.753 609.376 322.553 607.049 320.153C604.723 317.752 603.552 314.936 603.552 311.676V209.429C603.552 206.184 604.723 203.353 607.049 200.953C609.376 198.552 612.162 197.352 615.422 197.352H622.194C625.439 197.352 628.255 198.552 630.67 200.953C633.071 203.353 634.271 206.184 634.271 209.429V236.962C634.271 237.243 634.345 237.391 634.479 237.391C634.76 237.391 634.893 237.258 634.893 236.962C648.304 217.342 666.59 204.776 689.737 199.263C690.863 198.982 691.426 198.271 691.426 197.144V187.824C691.426 184.578 692.597 181.792 694.923 179.466C697.25 177.139 700.035 175.969 703.281 175.969H712.809M726.012 292.516C726.175 292.516 726.368 292.486 726.575 292.442C744.639 289.049 753.678 278.468 753.678 260.671C753.678 242.874 744.639 232.086 726.575 228.693C726.368 228.648 726.175 228.619 726.012 228.619C725.257 228.619 724.871 229.137 724.871 230.175V290.945C724.871 291.983 725.257 292.501 726.012 292.501M1584.02 178.073C1587.26 178.073 1590.09 179.244 1592.49 181.57C1594.89 183.897 1596.09 186.697 1596.09 189.943V193.114C1596.09 196.359 1594.89 199.189 1592.49 201.59C1590.09 203.99 1587.26 205.191 1584.02 205.191H1481.74C1478.49 205.191 1475.66 203.99 1473.26 201.59C1470.86 199.189 1469.66 196.374 1469.66 193.114V189.943C1469.66 186.697 1470.86 183.911 1473.26 181.57C1475.66 179.244 1478.48 178.073 1481.74 178.073H1584.02ZM843.049 180.562C843.449 180.562 843.849 180.577 844.249 180.622C870.507 183.585 896.203 185.275 921.335 185.704C924.58 185.838 927.395 187.083 929.811 189.409C932.211 191.736 933.412 194.521 933.412 197.767V203.487C933.412 206.732 932.241 209.562 929.915 211.963C927.721 214.23 925.113 215.371 922.09 215.371C921.913 215.371 921.735 215.371 921.542 215.371C896.277 214.66 869.233 212.689 840.441 209.444C837.195 209.014 834.543 207.502 832.498 204.894C830.453 202.286 829.638 199.352 830.068 196.107L830.705 191.024C831.12 187.779 832.676 185.171 835.358 183.185C837.699 181.452 840.263 180.592 843.049 180.592M1364.3 181.718C1365.47 181.718 1366.66 181.881 1367.86 182.222C1371.11 183.141 1373.51 185.082 1375.06 188.046C1379.71 196.937 1382.12 201.531 1382.26 201.812C1383.82 204.776 1384.06 207.814 1383 210.911C1381.95 214.023 1379.94 216.275 1376.97 217.683L1376.34 218.113C1374.65 218.913 1372.91 219.328 1371.15 219.328C1369.83 219.328 1368.48 219.105 1367.12 218.646C1363.95 217.579 1361.58 215.579 1360.02 212.6C1359.31 211.192 1358.18 208.999 1356.63 206.035C1355.07 203.072 1353.87 200.879 1353.03 199.471C1351.47 196.641 1351.16 193.618 1352.08 190.357C1353 187.112 1354.94 184.786 1357.9 183.363L1358.54 183.156C1360.41 182.178 1362.33 181.689 1364.3 181.689M435.259 183.674C435.837 183.674 436.429 183.719 437.037 183.793L446.995 184.845C450.092 185.127 452.567 186.579 454.404 189.187C456.242 191.81 456.805 194.729 456.094 197.974C451.292 220.558 448.892 244.845 448.892 270.822C448.892 296.799 451.292 321.086 456.094 343.669C456.805 346.915 456.227 349.849 454.404 352.457C452.567 355.065 450.092 356.517 446.995 356.799L437.037 357.866C436.444 357.94 435.852 357.984 435.274 357.984C432.562 357.984 430.043 357.169 427.716 355.539C424.886 353.568 423.123 350.886 422.426 347.493C417.195 323.502 414.587 297.94 414.587 270.837C414.587 243.734 417.195 218.172 422.426 194.181C423.137 190.802 424.901 188.12 427.716 186.134C430.043 184.504 432.562 183.689 435.259 183.689M1330.25 189.157C1331.47 189.157 1332.71 189.35 1333.97 189.735C1337.22 190.728 1339.62 192.699 1341.17 195.662C1342.73 198.493 1345.05 202.864 1348.17 208.792C1349.57 211.755 1349.72 214.793 1348.58 217.89C1347.45 221.002 1345.41 223.255 1342.45 224.662C1340.73 225.448 1338.99 225.833 1337.27 225.833C1335.9 225.833 1334.52 225.581 1333.13 225.077C1330.01 223.951 1327.69 221.906 1326.13 218.942C1325.42 217.668 1323.17 213.504 1319.36 206.45C1317.8 203.635 1317.52 200.671 1318.51 197.559C1319.49 194.447 1321.48 192.121 1324.44 190.565H1324.65C1326.46 189.617 1328.32 189.142 1330.24 189.142M566.832 197.559C570.077 197.559 572.908 198.76 575.308 201.16C577.709 203.561 578.909 206.376 578.909 209.636V215.356C578.909 218.602 577.709 221.432 575.308 223.832C572.908 226.233 570.077 227.433 566.832 227.433H499.275C496.029 227.433 493.199 226.233 490.798 223.832C488.398 221.432 487.198 218.616 487.198 215.356V209.636C487.198 206.391 488.398 203.576 490.798 201.16C493.199 198.745 496.015 197.559 499.275 197.559H566.832ZM1575.33 212.378C1578.58 212.378 1581.41 213.578 1583.81 215.979C1586.21 218.379 1587.41 221.195 1587.41 224.455V253.262C1587.41 256.507 1586.21 259.338 1583.81 261.738C1581.41 264.139 1578.58 265.339 1575.33 265.339H1488.72C1485.47 265.339 1482.64 264.139 1480.24 261.738C1477.84 259.338 1476.64 256.522 1476.64 253.262V224.455C1476.64 221.21 1477.84 218.394 1480.24 215.979C1482.64 213.578 1485.46 212.378 1488.72 212.378H1575.33ZM1512.65 245.63H1550.56C1551.68 245.63 1552.26 244.993 1552.26 243.719V235.672C1552.26 234.546 1551.7 233.983 1550.56 233.983H1512.65C1511.38 233.983 1510.74 234.546 1510.74 235.672V243.719C1510.74 244.993 1511.38 245.63 1512.65 245.63ZM937.635 228.9C940.88 228.9 943.666 230.071 945.993 232.398C948.319 234.724 949.49 237.51 949.49 240.755V250.283C949.49 258.463 946.245 264.82 939.739 269.34L907.761 291.79V291.997H908.398C914.326 291.997 918.771 298.34 921.735 311.054C923.424 317.974 925.365 322.316 927.558 324.079C929.737 325.843 934.079 326.732 940.584 326.732C944.955 326.732 949.119 326.45 953.076 325.887C953.698 325.813 954.321 325.769 954.928 325.769C957.477 325.769 959.848 326.48 962.071 327.903C964.827 329.666 966.487 332.111 967.05 335.208L968.117 340.498C968.813 343.744 968.22 346.781 966.309 349.597C964.397 352.412 961.834 354.117 958.588 354.68C949.697 355.954 942.495 356.591 936.983 356.591C923.424 356.591 913.259 354.546 906.487 350.456C899.714 346.366 895.195 339.728 892.928 330.555C891.372 323.916 889.786 319.367 888.156 316.893C886.526 314.418 884.585 313.188 882.332 313.188C880.08 313.188 876.257 314.922 870.893 318.374C865.528 321.827 849.287 333.03 822.184 351.938C820.021 353.346 817.753 354.042 815.397 354.042C814.671 354.042 813.93 353.983 813.189 353.85C810.018 353.287 807.44 351.657 805.454 348.975L801.216 343.047C799.23 340.365 798.534 337.401 799.097 334.156C799.66 330.911 801.29 328.362 803.972 326.525L903.286 258.33V257.9C903.286 257.767 903.212 257.693 903.078 257.693H822.184C818.939 257.693 816.153 256.522 813.827 254.195C811.5 251.869 810.329 249.083 810.329 245.838V240.755C810.329 237.51 811.5 234.724 813.827 232.398C816.153 230.071 818.939 228.9 822.184 228.9H937.605M1356.06 235.717C1357.92 235.717 1359.74 236.161 1361.56 237.051C1364.6 238.532 1366.67 240.903 1367.82 244.149C1374.17 262.509 1379.89 280.928 1384.98 299.422C1385.82 302.667 1385.39 305.705 1383.7 308.52C1382 311.35 1379.61 313.114 1376.5 313.81L1368.45 315.707C1367.46 315.929 1366.5 316.033 1365.55 316.033C1363.37 316.033 1361.31 315.47 1359.34 314.344C1356.51 312.714 1354.61 310.283 1353.62 307.038C1348.97 291.094 1343.38 273.297 1336.89 253.677C1335.9 250.58 1336.15 247.542 1337.63 244.578C1339.11 241.615 1341.41 239.644 1344.51 238.651L1352.34 236.324C1353.59 235.924 1354.82 235.732 1356.05 235.732M496.163 265.117C499.364 265.117 502.224 266.11 504.743 268.095L509.618 271.696C512.167 273.682 513.53 276.29 513.752 279.535C513.96 282.78 513.086 285.67 511.1 288.219C505.306 295.554 502.416 301.215 502.416 305.156C502.416 310.387 504.891 314.24 509.825 316.7C514.76 319.175 522.747 320.404 533.757 320.404C544.767 320.404 556.059 319.352 568.492 317.233C569.248 317.1 570.003 317.041 570.729 317.041C573.115 317.041 575.338 317.737 577.383 319.145C580.065 320.982 581.68 323.516 582.258 326.776L583.103 332.911C583.666 336.29 582.999 339.402 581.088 342.232C579.176 345.062 576.597 346.752 573.367 347.315C560.519 349.864 547.316 351.123 533.757 351.123C513.426 351.123 497.541 347.167 486.116 339.268C474.676 331.355 468.971 320.701 468.971 307.29C468.971 302.207 470.586 296.25 473.846 289.389C477.091 282.543 481.537 275.801 487.183 269.162C489.302 266.628 492.088 265.28 495.555 265.146C495.763 265.146 495.985 265.146 496.192 265.146M1923.02 155.46H1914.13C1906.62 155.46 1899.75 158.261 1894.29 163.58C1892.94 164.885 1891.75 166.277 1890.72 167.759C1886.14 164.588 1880.62 162.884 1874.53 162.884H1829C1821.47 162.884 1814.62 165.685 1809.15 171.005C1803.58 176.413 1800.62 183.348 1800.62 191.054V201.012C1800.62 205.709 1802.1 210.185 1804.83 213.934C1800.87 211.844 1796.48 210.763 1791.85 210.763H1787.61V187.468C1787.61 179.881 1784.72 172.961 1779.25 167.478C1773.75 161.98 1766.85 159.09 1759.25 159.09H1750.56C1742.95 159.09 1736.04 161.995 1730.56 167.478C1725.09 172.946 1722.2 179.866 1722.2 187.468V194.433C1718.26 192.358 1713.89 191.291 1709.28 191.291H1701.44C1695.97 191.291 1690.86 192.788 1686.37 195.677C1682.95 192.58 1679.02 190.432 1674.75 189.291V186.208C1674.75 178.71 1671.95 171.864 1666.66 166.396C1661.24 160.795 1654.3 157.831 1646.6 157.831H1640.03C1632.41 157.831 1625.51 160.735 1620.03 166.218C1615.11 171.138 1612.26 177.243 1611.74 183.956C1610.6 178.681 1607.92 173.924 1603.86 169.967C1598.38 164.647 1591.53 161.862 1584.02 161.862H1481.74C1474.23 161.862 1467.37 164.662 1461.91 169.967C1461.31 170.56 1460.73 171.168 1460.18 171.805C1458.98 169.819 1457.51 167.952 1455.78 166.233C1450.3 160.75 1443.39 157.861 1435.79 157.861H1427.31C1419.61 157.861 1412.67 160.824 1407.23 166.426C1401.94 171.879 1399.14 178.74 1399.14 186.238V190.743C1397.97 191.261 1396.83 191.869 1395.73 192.551C1394.8 190.758 1392.99 187.305 1389.48 180.592C1385.81 173.613 1379.88 168.797 1372.29 166.648C1369.61 165.892 1366.93 165.522 1364.27 165.522C1360.17 165.522 1356.17 166.396 1352.39 168.145L1351.8 168.337L1350.86 168.782C1347.41 170.427 1344.43 172.709 1342.03 175.48C1340.96 175.02 1339.87 174.605 1338.73 174.265C1335.9 173.405 1333.05 172.975 1330.24 172.975C1327.23 172.975 1324.29 173.45 1321.45 174.398H1320.41L1316.85 176.265C1310.05 179.836 1305.24 185.541 1302.96 192.773C1302.35 194.67 1301.95 196.581 1301.74 198.493C1301.35 198.448 1300.95 198.404 1300.55 198.345C1295.84 197.767 1291.54 197.485 1287.8 197.485H1280.13C1280.67 194.24 1281.1 191.424 1281.45 189.053C1282.76 181.318 1280.67 173.702 1275.54 167.567C1270.62 161.669 1264 158.201 1256.4 157.535H1256.25L1256.1 157.505L1250.04 157.09C1249.24 157.031 1248.44 157.001 1247.65 157.001C1241.09 157.001 1234.85 159.179 1229.62 163.314C1223.79 167.907 1220.05 174.22 1218.8 181.555C1217.56 188.52 1216.62 193.677 1215.91 197.5H1206.69C1199.09 197.5 1192.19 200.39 1186.7 205.858C1181.22 211.34 1178.32 218.261 1178.32 225.863V230.738C1178.32 238.355 1181.22 245.275 1186.7 250.743C1191.12 255.159 1196.48 257.9 1202.4 258.789C1198.2 274.882 1193.42 291.212 1188.08 307.661C1184.07 293.598 1179.69 279.565 1174.98 265.65C1172.64 258.463 1167.8 252.803 1160.92 249.276C1156.71 247.127 1152.31 246.06 1147.79 246.06C1146.18 246.06 1144.55 246.208 1142.93 246.475C1147.48 229.582 1151.67 212.585 1155.51 195.574C1157.22 188.09 1155.82 180.696 1151.5 174.176C1147.06 167.522 1140.28 163.299 1132.39 162.276H1132.23L1121.68 160.987C1120.44 160.839 1119.16 160.75 1117.93 160.75C1111.86 160.75 1106 162.647 1100.99 166.248C1094.93 170.619 1090.92 176.71 1089.38 183.897C1089.26 184.415 1089.15 184.934 1089.04 185.453C1088.8 184.193 1088.49 182.933 1088.07 181.689L1087.58 179.881L1087.44 179.333L1087.24 178.799C1084.75 171.686 1079.94 166.04 1073.28 162.484C1068.78 160.083 1064.01 158.868 1059.09 158.868C1056.97 158.868 1054.82 159.105 1052.72 159.565C1034.59 163.462 1015.31 166.203 995.442 167.7C987.662 168.115 980.712 171.686 975.807 177.777C971.11 183.63 968.961 190.654 969.628 198.122V198.285L969.658 198.448L969.85 200.212C970.547 207.636 973.955 214.171 979.69 219.091C980.031 219.387 980.386 219.683 980.742 219.965C978.371 221.269 976.148 222.943 974.118 224.959C969.08 229.997 966.22 236.25 965.805 243.156V240.933C965.805 233.331 962.945 226.455 957.536 221.047C954.617 218.112 951.253 215.934 947.563 214.541C948.971 211.148 949.712 207.488 949.712 203.664V197.945C949.712 190.254 946.763 183.319 941.162 177.88C935.886 172.768 929.277 169.893 922.031 169.582H921.616C897.106 169.152 871.693 167.478 846.086 164.588L845.879 164.559H845.671C844.797 164.47 843.923 164.425 843.049 164.425C836.81 164.425 830.809 166.426 825.696 170.204C819.398 174.843 815.546 181.363 814.553 189.053V189.128L813.915 194.151C813.026 200.938 814.523 207.414 818.213 213.045C812.211 213.874 806.773 216.601 802.342 221.047C800.653 222.736 799.216 224.573 798.03 226.529C794.681 218.483 789.998 211.355 784.012 205.206C773.239 194.136 758.732 186.742 740.786 183.126C739.793 177.376 737.037 172.175 732.651 167.922C727.183 162.617 720.322 159.817 712.824 159.817H703.296C695.694 159.817 688.818 162.677 683.409 168.085C678.312 173.168 675.481 179.57 675.17 186.668C665.642 189.928 656.869 194.344 648.882 199.915C647.489 196.122 645.252 192.64 642.214 189.587C636.716 184.089 629.796 181.2 622.209 181.2H615.437C607.746 181.2 600.796 184.149 595.373 189.75C593.728 191.439 592.32 193.277 591.179 195.218C589.993 193.292 588.571 191.484 586.896 189.809C581.399 184.312 574.478 181.422 566.891 181.422H499.334C491.732 181.422 484.812 184.312 479.344 189.794C475.506 193.632 472.942 198.167 471.742 203.146C471.846 202.612 471.964 202.064 472.083 201.531C473.728 193.973 472.201 186.297 467.8 179.999C463.236 173.509 456.464 169.552 448.684 168.797L438.934 167.759C437.734 167.611 436.518 167.537 435.318 167.537C429.317 167.537 423.478 169.404 418.44 172.916C412.216 177.273 408.111 183.497 406.555 190.906C401.117 215.905 398.361 242.845 398.361 270.985C398.361 299.125 401.117 326.065 406.555 351.064C408.126 358.488 412.231 364.712 418.44 369.054C423.478 372.58 429.317 374.447 435.333 374.447C436.518 374.447 437.734 374.373 438.949 374.225L448.655 373.188C456.449 372.447 463.236 368.476 467.785 362C470.438 358.221 472.053 353.939 472.557 349.478C473.95 350.634 475.417 351.731 476.943 352.798C491.11 362.593 510.255 367.557 533.861 367.557C548.354 367.557 562.698 366.179 576.479 363.467C584.036 362.089 590.334 357.955 594.706 351.479C598.01 346.589 599.7 341.091 599.7 335.356C604.308 338.557 609.658 340.232 615.452 340.232H621.379C628.892 340.232 635.753 337.431 641.206 332.126C644.629 328.807 647.148 324.835 648.63 320.434C650.319 321.709 652.038 322.924 653.787 324.094C650.897 326.969 648.689 330.422 647.252 334.334C644.585 341.639 645.222 349.464 649.03 356.384L649.075 356.458L649.119 356.532L652.661 362.8C656.321 369.424 662.011 374.21 669.154 376.641C672.325 377.722 675.555 378.256 678.771 378.256C682.831 378.256 686.817 377.396 690.611 375.707C701.517 370.995 710.66 365.097 717.773 358.162C723.182 352.887 727.657 346.752 731.169 339.846C752.626 337.194 769.786 329.903 782.278 318.108C795.541 305.601 802.876 288.604 804.135 267.517C809.233 271.874 815.457 274.171 822.273 274.171H851.762L794.829 313.262C788.502 317.589 784.456 323.902 783.123 331.533C781.789 339.179 783.508 346.515 788.102 352.798L792.266 358.636L792.34 358.74L792.414 358.844C796.874 364.904 803.098 368.787 810.404 370.091C812.093 370.387 813.797 370.535 815.471 370.535C821.028 370.535 826.304 368.95 831.135 365.808L831.372 365.66L831.594 365.497C854.77 349.33 870.003 338.794 877.042 334.082L877.131 334.467V334.541L877.176 334.615C880.436 347.908 887.682 358.281 898.129 364.578C907.598 370.298 920.327 373.069 937.057 373.069C943.385 373.069 951.209 372.388 960.959 370.995L961.211 370.965L961.463 370.921C969.109 369.587 975.481 365.438 979.897 358.903C981.157 357.036 982.179 355.095 982.95 353.079C986.032 354.828 989.5 355.88 993.234 356.176C993.886 356.221 994.523 356.25 995.146 356.25C996.035 356.25 996.909 356.206 997.783 356.102C997.887 363.541 1000.78 370.313 1006.16 375.692C1011.64 381.175 1018.54 384.065 1026.15 384.065H1033.14C1040.73 384.065 1047.65 381.175 1053.13 375.707C1053.47 375.366 1053.8 375.025 1054.11 374.685C1057.06 375.737 1060.18 376.285 1063.4 376.285C1064.23 376.285 1065.06 376.255 1065.89 376.181C1088.43 374.344 1112.09 371.513 1136.35 367.764C1138.62 371.454 1141.76 374.536 1145.69 376.893C1150.03 379.501 1154.71 380.819 1159.59 380.819C1162.28 380.819 1164.99 380.405 1167.65 379.59L1177.01 376.893L1177.13 376.863L1177.25 376.818C1182.73 375.144 1187.39 372.077 1190.96 367.824C1192.75 368.891 1194.66 369.75 1196.71 370.402L1196.87 370.461L1197.03 370.506L1202.46 372.106C1205.43 373.099 1208.49 373.588 1211.53 373.588C1215.81 373.588 1219.99 372.61 1223.94 370.684C1228.66 368.387 1232.49 365.053 1235.26 360.889C1238.81 364.697 1243.31 367.364 1248.59 368.742C1264.04 372.803 1276.55 374.773 1286.8 374.773C1305.79 374.773 1321.24 364.564 1330.34 346.011C1334.46 337.609 1337.44 327.399 1339.3 315.188C1341.76 320.923 1345.87 325.532 1351.32 328.658C1355.77 331.222 1360.6 332.526 1365.65 332.526C1367.77 332.526 1369.9 332.289 1372.04 331.83L1372.17 331.8L1372.31 331.77L1380.29 329.888C1383.42 329.177 1386.28 327.977 1388.87 326.347C1391.01 328.347 1393.54 329.977 1396.4 331.133C1397.33 331.518 1398.28 331.83 1399.23 332.096V355.732C1399.23 363.23 1402.03 370.091 1407.32 375.544C1412.76 381.145 1419.7 384.094 1427.4 384.094H1435.88C1443.46 384.094 1450.38 381.205 1455.87 375.737C1457.22 374.388 1458.42 372.936 1459.45 371.425C1460.3 372.551 1461.23 373.632 1462.27 374.655C1467.74 380.138 1474.66 383.027 1482.26 383.027H1497.3C1503.11 383.027 1508.65 380.819 1512.92 376.789C1513.24 376.478 1513.57 376.152 1513.88 375.826H1549.43C1549.62 376.033 1549.83 376.255 1550.04 376.448C1554.28 380.686 1559.91 383.027 1565.91 383.027H1582C1589.6 383.027 1596.51 380.138 1601.99 374.655C1607.47 369.157 1610.36 362.252 1610.36 354.665V332.378C1610.82 332.482 1611.28 332.57 1611.76 332.645V355.732C1611.76 363.334 1614.65 370.254 1620.13 375.737C1625.61 381.22 1632.52 384.109 1640.12 384.109H1646.68C1654.38 384.109 1661.31 381.16 1666.75 375.559C1667.02 375.292 1667.27 375.011 1667.52 374.729C1671.58 376.996 1676.13 378.182 1680.99 378.182H1795.57C1803.18 378.182 1810.1 375.277 1815.57 369.794C1818.27 367.098 1820.34 364.045 1821.75 360.726C1823.54 361.111 1825.38 361.304 1827.23 361.304C1829.09 361.304 1830.97 361.111 1832.83 360.726C1835.1 360.325 1837.46 359.881 1839.9 359.407C1840.64 365.645 1843.43 371.306 1848.07 375.944C1853.55 381.427 1860.47 384.317 1868.07 384.317C1875.67 384.317 1882.64 381.516 1888.02 376.196C1891.12 377.367 1894.45 377.959 1897.93 377.959H1904.91C1911.46 377.959 1917.55 375.47 1922.07 370.936C1922.74 370.269 1923.36 369.572 1923.94 368.846H1925.55C1930 373.84 1935.81 376.922 1942.49 377.811C1943.75 377.974 1945.04 378.063 1946.3 378.063C1952.3 378.063 1958.11 376.122 1963.09 372.462L1963.38 372.24L1963.67 372.002C1964.66 371.202 1965.61 370.432 1966.53 369.676C1977 381.131 1989.38 383.235 1997.05 383.235C2004.73 383.235 2016.33 380.182 2025.25 365.601C2030.57 356.917 2034.07 344.722 2035.92 328.318C2036.71 321.575 2035.51 315.011 2032.34 308.802C2030.13 304.504 2027.21 300.829 2023.61 297.851C2025.13 294.946 2026.54 292.19 2027.82 289.582L2027.92 289.389L2028.01 289.182C2031.14 282.306 2031.52 274.941 2029.15 267.843C2028.6 266.184 2027.92 264.598 2027.1 263.101C2031.83 257.826 2034.34 251.365 2034.34 244.312V244.104C2034.34 237.139 2031.91 230.753 2027.28 225.522C2027.33 225.433 2027.37 225.329 2027.42 225.24C2030.6 218.379 2030.88 211.029 2028.25 203.961C2025.44 196.152 2022.99 189.868 2020.73 184.756C2017.72 177.584 2012.32 172.323 2005.07 169.523C2001.68 168.204 1998.16 167.552 1994.65 167.552C1994.33 167.552 1994 167.552 1993.66 167.567C1992.95 166.663 1992.16 165.774 1991.33 164.944C1985.92 159.535 1978.97 156.675 1971.24 156.675H1967C1959.3 156.675 1952.36 159.639 1946.94 165.24C1946.46 165.729 1946 166.233 1945.57 166.737C1944.8 165.744 1943.97 164.796 1943.07 163.892C1937.66 158.483 1930.78 155.623 1923.18 155.623L1923.02 155.46ZM465.251 271.533C465.251 271.311 465.251 271.074 465.251 270.851C465.251 247.498 467.311 225.344 471.357 204.954C471.105 206.48 470.971 208.051 470.971 209.651V215.371C470.971 222.988 473.876 229.893 479.359 235.376C484.812 240.844 491.732 243.748 499.349 243.748H566.906C574.508 243.748 581.428 240.844 586.911 235.376C587.045 235.243 587.178 235.109 587.311 234.961V306.119C587.119 305.971 586.911 305.838 586.719 305.705C581.977 302.459 576.494 300.755 570.848 300.755C569.188 300.755 567.499 300.903 565.839 301.185C554.429 303.126 543.656 304.119 533.891 304.119C527.252 304.119 523.088 303.615 520.569 303.111C521.354 301.881 522.466 300.311 524.036 298.325L524.081 298.28L524.11 298.236C528.526 292.546 530.616 285.729 530.156 278.498C529.638 270.629 525.948 263.665 519.769 258.849L519.606 258.715L519.443 258.597L514.73 255.114C509.396 250.995 503.039 248.831 496.296 248.831C495.866 248.831 495.437 248.831 494.992 248.861C487.005 249.187 479.862 252.669 474.824 258.656C471.238 262.864 468.052 267.176 465.251 271.548V271.533ZM1068.66 216.616C1075.05 215.134 1080.49 211.503 1084.28 206.243C1083.09 211.163 1081.86 216.097 1080.59 221.061C1076.96 218.646 1072.93 217.149 1068.6 216.631H1068.66V216.616ZM1381.06 233.805C1381.85 233.509 1382.62 233.183 1383.39 232.812L1384.37 232.353C1385.78 235.776 1387.89 238.918 1390.68 241.704C1395.63 246.668 1401.79 249.513 1408.58 249.987C1404.21 256.492 1398.95 262.301 1392.74 267.532C1389.76 257.915 1386.62 248.327 1383.33 238.814C1382.71 237.051 1381.95 235.376 1381.06 233.805ZM1601.58 264.213C1603.03 260.805 1603.79 257.115 1603.79 253.247V244.4C1608.3 247.883 1613.64 249.809 1619.42 250.046C1615.02 256.077 1609.86 261.605 1603.89 266.717C1603.3 265.991 1602.66 265.295 1601.98 264.613C1601.84 264.48 1601.71 264.346 1601.58 264.213ZM933.219 293.909L949.193 282.691C960.085 275.119 965.879 263.902 965.879 250.298V249.987C966.309 256.878 969.154 263.131 974.192 268.184C977.615 271.607 981.587 274.008 985.943 275.341C981.957 283.551 977.141 291.494 971.54 299.066C968.665 302.993 966.664 307.157 965.583 311.439C962.234 310.135 958.692 309.468 955.017 309.468C953.713 309.468 952.379 309.557 951.061 309.72H950.957L950.853 309.75C947.682 310.209 944.244 310.432 940.673 310.432C939.843 310.432 939.132 310.417 938.539 310.387C938.287 309.572 937.991 308.535 937.68 307.26C936.45 302.015 934.938 297.599 933.219 293.894V293.909ZM670.28 262.479C671.851 260.73 673.496 259.115 675.185 257.619V263.442C673.584 262.983 671.954 262.657 670.28 262.479ZM1267.69 258.982H1274.44C1274.61 262.39 1274.74 267.34 1274.74 274.452C1274.74 286.292 1274.19 296.087 1273.11 303.556C1272.74 306.06 1272.4 308.076 1272.07 309.676C1270.12 309.217 1267.72 308.624 1264.77 307.838H1264.71L1264.65 307.809C1262.16 307.157 1259.66 306.831 1257.17 306.831C1256.26 306.831 1255.36 306.875 1254.47 306.964C1259.3 291.168 1263.7 275.149 1267.66 258.982H1267.69ZM1787.7 271.696H1791.94C1797.51 271.696 1802.72 270.155 1807.27 267.191V308.046C1806.24 309.024 1805.27 310.106 1804.4 311.276C1803.11 312.995 1802.06 314.833 1801.26 316.759C1799.4 316.389 1797.49 316.196 1795.54 316.196H1787.7V271.711V271.696Z" fill="black"/>
<path d="M559.372 139.222C563.433 127.492 568.522 112.957 561.545 100.426C557.657 92.2428 541.416 87.3216 541.416 87.3216C527.805 85.0327 512.479 82.801 498.64 84.9183C496.524 84.9183 494.465 85.7194 492.75 84.0599C487.088 73.5882 476.394 66.8359 465.071 65.4054C461.926 64.547 458.381 65.0048 455.636 63.517C453.977 60.9992 453.977 57.5659 451.518 49.4403C449.059 41.3147 444.827 33.8758 444.484 33.5324C432.818 13.6762 414.633 1.14445 395.704 0H395.075C383.638 0 373.115 6.23726 367.625 16.1368C362.135 24.2624 358.59 33.2463 355.159 41.9441C353.9 45.0914 340.519 85.0899 344.865 112.957C346.523 122.628 353.9 132.699 363.737 134.988C379.863 138.135 396.447 134.988 411.144 130.811C412.803 130.353 414.919 129.094 416.806 130.181C425.441 143.4 439.223 151.583 455.007 151.583C455.636 151.983 456.265 152.212 456.665 152.841C462.727 169.207 470.104 189.349 488.518 196.044C510.135 202.11 527.062 184.486 539.243 168.749C543.36 164.572 548.221 158.163 551.824 152.613C556.513 145.288 559.315 139.108 559.315 139.108L559.372 139.222Z" fill="#231815"/>
<path d="M354.587 97.679C354.416 106.72 354.816 116.162 362.994 121.197C378.549 128.751 396.734 123.086 411.431 117.592C413.49 116.334 413.089 114.045 413.089 111.756C412.46 108.38 414.748 104.603 411.603 102.314C405.312 101.055 399.022 96.4774 397.535 89.954C395.419 82 398.164 73.9889 404.454 68.9533C412.232 64.7761 422.926 67.065 429.616 72.3294C433.391 72.5583 435.907 68.9533 439.281 67.6944C440.768 67.2938 442.884 66.6644 443.284 64.7761C441.397 51.3288 435.507 41.372 427.329 30.8431C420.409 21.6302 410.974 16.5947 401.137 13.848C392.274 11.9596 383.924 14.4774 378.663 22.0308C373.402 29.3553 370.257 37.5381 366.711 45.7209C361.85 63.3455 356.017 78.5667 354.53 97.679H354.587Z" fill="#E60020"/>
<path d="M410.802 75.8193C409.316 76.4487 407.657 77.3071 406.799 78.7377C404.683 83.1438 404.912 89.2666 409.487 92.185C411.374 93.0433 413.09 94.3022 415.149 93.9016C418.294 90.7544 419.323 86.806 421.839 83.4299C422.468 81.9993 423.955 80.9121 423.498 79.2527C420.353 75.8765 415.32 74.8465 410.688 75.8765L410.802 75.8193Z" fill="#E60020"/>
<path d="M482.913 140.482C478.109 144.43 472.848 147.406 467.815 150.782C467.415 151.411 467.415 152.67 467.815 153.471C471.59 162.512 475.364 171.725 482.112 179.508C488.803 184.543 496.981 187.919 505.616 185.401C521.571 179.279 531.007 163.886 540.614 150.667C546.733 137.621 556.969 124.402 551.765 108.494C548.62 100.312 539.585 97.5076 532.436 95.6193C521.113 94.3604 508.532 92.7009 498.01 97.107C496.123 99.2243 497.781 102.143 497.61 104.66C497.61 106.949 496.752 110.097 498.639 111.813C505.158 114.503 511.849 119.367 513.565 126.691C514.823 133.214 512.707 139.681 507.675 143.915C504.529 146.833 500.126 148.55 495.722 147.291C491.548 146.261 488.403 142.885 485.029 140.367C484.171 140.138 483.77 140.367 482.913 140.596V140.482Z" fill="#E60020"/>
<path d="M424.925 103.115C422.409 113.415 424.696 123.887 431.444 131.44C434.818 134.587 438.364 137.963 442.596 139.222C455.177 143.628 470.045 141.111 478.68 130.639C483.484 124.173 486.629 117.192 487.087 109.009C487.316 97.4499 484.17 86.1198 473.648 80.0542C465.47 73.9314 451.803 73.7597 442.996 78.7953C432.931 83.2015 427.899 93.7304 424.982 103.115H424.925Z" fill="#E60020"/>
<path d="M503.158 135.447C505.273 133.787 505.445 131.04 505.045 128.751C503.787 125.204 500.241 122.056 496.41 121.599C494.122 124.116 492.864 127.435 491.377 130.411C490.748 132.929 493.264 134.416 494.923 135.618C497.21 136.877 500.813 137.335 503.1 135.389L503.158 135.447Z" fill="#E60020"/>
</svg>
