<svg width="118" height="30" viewBox="0 0 118 30" fill="none" xmlns="http://www.w3.org/2000/svg">
<path d="M14.6982 30H15.6068C15.6068 21.8624 22.1488 15.2487 30.305 15.0053C30.305 6.71958 23.5171 0 15.1471 0C6.77719 0 0 6.71958 0 14.9947C8.15615 15.2381 14.6982 21.8624 14.6982 29.9894V30Z" fill="#00A040"/>
<path d="M54.6125 2.99463H52.5173V4.94172H42.4478V6.7195H52.5173V8.5396H43.7091V17.0475H50.668C49.5991 18.1163 47.0443 20.2327 42.4478 21.7989V23.8094C42.4478 23.8094 48.3805 21.8941 52.5173 17.4285V23.9364H54.6125V17.4285C58.7387 21.8941 64.6821 23.8094 64.6821 23.8094V21.7989C60.0856 20.2221 57.5414 18.1057 56.4618 17.0475H63.4207V8.5396H54.6125V6.7195H64.6821V4.94172H54.6125V2.99463ZM45.6332 10.201H52.5173V12.0528H45.6332V10.201ZM45.6332 13.5449H52.5173V15.3967H45.6332V13.5449ZM61.4966 15.3967H54.6125V13.5449H61.4966V15.3967ZM61.4966 10.201V12.0528H54.6125V10.201H61.4966Z" fill="#898989"/>
<path d="M73.2768 17.4395C73.2768 17.4395 71.2351 19.7992 68.21 21.5135V23.6828C68.21 23.6828 72.8813 21.1749 75.853 17.4395H73.2768Z" fill="#898989"/>
<path d="M85.1208 17.4395H82.6836C85.7301 21.2913 90.4335 23.6723 90.4335 23.6723V21.5029C87.4191 19.7887 85.1208 17.4395 85.1208 17.4395Z" fill="#898989"/>
<path d="M86.5319 15.5025H88.5629V8.6665H70.0913V15.5025H78.2475V21.1956C78.2475 21.9575 77.8199 22.1586 77.2213 22.1586H74.6878V23.9363H77.7344C79.6264 23.9363 80.4174 23.0686 80.4174 21.7565V15.5025H86.5426H86.5319ZM72.1116 10.3279H86.5319V13.8517H72.1116V10.3279Z" fill="#898989"/>
<path d="M80.4068 2.99463H78.2368V4.94172H68.21V6.73008H90.4336V4.94172H80.4068V2.99463Z" fill="#898989"/>
<path d="M115.019 11.1536L117.574 3.27002H108.435V23.5134H110.188V4.95256H115.255L113.159 11.27C113.159 11.27 115.928 14.3282 115.928 17.1536C115.928 19.979 113.352 19.9155 113.352 19.9155H111.812V21.6721H113.309C113.309 21.6721 117.799 21.651 117.799 17.1325C117.799 14.0531 115.03 11.1536 115.03 11.1536H115.019Z" fill="#898989"/>
<path d="M105.356 3.27013C105.153 3.85214 104.918 4.4024 104.672 4.94209H100.599V2.82568H98.718V4.94209H94.4636V6.51881H98.718V9.80981H93.8115V11.3865H99.6053C97.9484 12.7622 96.1632 13.8416 94.4636 14.6352V16.54C94.8484 16.3707 95.2439 16.1696 95.6501 15.958V23.5241H106.596V13.5135H99.5304C100.375 12.8786 101.209 12.1696 102.01 11.3865H106.596V9.80981H103.486C105.057 7.95796 106.382 5.78865 107.163 3.27013H105.367H105.356ZM104.854 22.1167H97.5208V19.2172H104.854V22.1167ZM104.854 17.8098H97.5208V14.9103H104.854V17.8098ZM100.589 9.80981V6.51881H103.828C103.09 7.73574 102.235 8.83627 101.284 9.80981H100.589Z" fill="#898989"/>
</svg>
